  0
SECTION
  2
HEADER
  9
$ACADVER
  1
AC1015
  9
$ACADMAINTVER
 70
6
  9
$DWGCODEPAGE
  3
ANSI_1252
  9
$INSBASE
 10
0.0
 20
0.0
 30
0.0
  9
$EXTMIN
 10
1e+20
 20
1e+20
 30
1e+20
  9
$EXTMAX
 10
-1e+20
 20
-1e+20
 30
-1e+20
  9
$LIMMIN
 10
0.0
 20
0.0
  9
$LIMMAX
 10
420.0
 20
297.0
  9
$ORTHOMODE
 70
0
  9
$REGENMODE
 70
1
  9
$FILLMODE
 70
1
  9
$QTEXTMODE
 70
0
  9
$MIRRTEXT
 70
1
  9
$LTSCALE
 40
1.0
  9
$ATTMODE
 70
1
  9
$TEXTSIZE
 40
2.5
  9
$TRACEWID
 40
1.0
  9
$TEXTSTYLE
  7
Standard
  9
$CLAYER
  8
0
  9
$CELTYPE
  6
ByLayer
  9
$CECOLOR
 62
256
  9
$CELTSCALE
 40
1.0
  9
$DISPSILH
 70
0
  9
$DIMSCALE
 40
1.0
  9
$DIMASZ
 40
2.5
  9
$DIMEXO
 40
0.625
  9
$DIMDLI
 40
3.75
  9
$DIMRND
 40
0.0
  9
$DIMDLE
 40
0.0
  9
$DIMEXE
 40
1.25
  9
$DIMTP
 40
0.0
  9
$DIMTM
 40
0.0
  9
$DIMTXT
 40
2.5
  9
$DIMCEN
 40
2.5
  9
$DIMTSZ
 40
0.0
  9
$DIMTOL
 70
0
  9
$DIMLIM
 70
0
  9
$DIMTIH
 70
0
  9
$DIMTOH
 70
0
  9
$DIMSE1
 70
0
  9
$DIMSE2
 70
0
  9
$DIMTAD
 70
1
  9
$DIMZIN
 70
8
  9
$DIMBLK
  1

  9
$DIMASO
 70
1
  9
$DIMSHO
 70
1
  9
$DIMPOST
  1

  9
$DIMAPOST
  1

  9
$DIMALT
 70
0
  9
$DIMALTD
 70
3
  9
$DIMALTF
 40
0.03937007874
  9
$DIMLFAC
 40
1.0
  9
$DIMTOFL
 70
1
  9
$DIMTVP
 40
0.0
  9
$DIMTIX
 70
0
  9
$DIMSOXD
 70
0
  9
$DIMSAH
 70
0
  9
$DIMBLK1
  1

  9
$DIMBLK2
  1

  9
$DIMSTYLE
  2
ISO-25
  9
$DIMCLRD
 70
0
  9
$DIMCLRE
 70
0
  9
$DIMCLRT
 70
0
  9
$DIMTFAC
 40
1.0
  9
$DIMGAP
 40
0.625
  9
$DIMJUST
 70
0
  9
$DIMSD1
 70
0
  9
$DIMSD2
 70
0
  9
$DIMTOLJ
 70
0
  9
$DIMTZIN
 70
8
  9
$DIMALTZ
 70
0
  9
$DIMALTTZ
 70
0
  9
$DIMUPT
 70
0
  9
$DIMDEC
 70
2
  9
$DIMTDEC
 70
2
  9
$DIMALTU
 70
2
  9
$DIMALTTD
 70
3
  9
$DIMTXSTY
  7
Standard
  9
$DIMAUNIT
 70
0
  9
$DIMADEC
 70
0
  9
$DIMALTRND
 40
0.0
  9
$DIMAZIN
 70
0
  9
$DIMDSEP
 70
44
  9
$DIMATFIT
 70
3
  9
$DIMFRAC
 70
0
  9
$DIMLDRBLK
  1

  9
$DIMLUNIT
 70
2
  9
$DIMLWD
 70
-2
  9
$DIMLWE
 70
-2
  9
$DIMTMOVE
 70
0
  9
$LUNITS
 70
2
  9
$LUPREC
 70
4
  9
$SKETCHINC
 40
1.0
  9
$FILLETRAD
 40
10.0
  9
$AUNITS
 70
0
  9
$AUPREC
 70
2
  9
$MENU
  1
.
  9
$ELEVATION
 40
0.0
  9
$PELEVATION
 40
0.0
  9
$THICKNESS
 40
0.0
  9
$LIMCHECK
 70
0
  9
$CHAMFERA
 40
0.0
  9
$CHAMFERB
 40
0.0
  9
$CHAMFERC
 40
0.0
  9
$CHAMFERD
 40
0.0
  9
$SKPOLY
 70
0
  9
$TDCREATE
 40
2451545.0
  9
$TDUCREATE
 40
2451545.0
  9
$TDUPDATE
 40
2451545.0
  9
$TDUUPDATE
 40
2451545.0
  9
$TDINDWG
 40
0.0
  9
$TDUSRTIMER
 40
0.0
  9
$USRTIMER
 70
1
  9
$ANGBASE
 50
0.0
  9
$ANGDIR
 70
0
  9
$PDMODE
 70
0
  9
$PDSIZE
 40
0.0
  9
$PLINEWID
 40
0.0
  9
$SPLFRAME
 70
0
  9
$SPLINETYPE
 70
6
  9
$SPLINESEGS
 70
8
  9
$HANDSEED
  5
7A
  9
$SURFTAB1
 70
6
  9
$SURFTAB2
 70
6
  9
$SURFTYPE
 70
6
  9
$SURFU
 70
6
  9
$SURFV
 70
6
  9
$UCSBASE
  2

  9
$UCSNAME
  2

  9
$UCSORG
 10
0.0
 20
0.0
 30
0.0
  9
$UCSXDIR
 10
1.0
 20
0.0
 30
0.0
  9
$UCSYDIR
 10
0.0
 20
1.0
 30
0.0
  9
$UCSORTHOREF
  2

  9
$UCSORTHOVIEW
 70
0
  9
$UCSORGTOP
 10
0.0
 20
0.0
 30
0.0
  9
$UCSORGBOTTOM
 10
0.0
 20
0.0
 30
0.0
  9
$UCSORGLEFT
 10
0.0
 20
0.0
 30
0.0
  9
$UCSORGRIGHT
 10
0.0
 20
0.0
 30
0.0
  9
$UCSORGFRONT
 10
0.0
 20
0.0
 30
0.0
  9
$UCSORGBACK
 10
0.0
 20
0.0
 30
0.0
  9
$PUCSBASE
  2

  9
$PUCSNAME
  2

  9
$PUCSORG
 10
0.0
 20
0.0
 30
0.0
  9
$PUCSXDIR
 10
1.0
 20
0.0
 30
0.0
  9
$PUCSYDIR
 10
0.0
 20
1.0
 30
0.0
  9
$PUCSORTHOREF
  2

  9
$PUCSORTHOVIEW
 70
0
  9
$PUCSORGTOP
 10
0.0
 20
0.0
 30
0.0
  9
$PUCSORGBOTTOM
 10
0.0
 20
0.0
 30
0.0
  9
$PUCSORGLEFT
 10
0.0
 20
0.0
 30
0.0
  9
$PUCSORGRIGHT
 10
0.0
 20
0.0
 30
0.0
  9
$PUCSORGFRONT
 10
0.0
 20
0.0
 30
0.0
  9
$PUCSORGBACK
 10
0.0
 20
0.0
 30
0.0
  9
$USERI1
 70
0
  9
$USERI2
 70
0
  9
$USERI3
 70
0
  9
$USERI4
 70
0
  9
$USERI5
 70
0
  9
$USERR1
 40
0.0
  9
$USERR2
 40
0.0
  9
$USERR3
 40
0.0
  9
$USERR4
 40
0.0
  9
$USERR5
 40
0.0
  9
$WORLDVIEW
 70
1
  9
$SHADEDGE
 70
3
  9
$SHADEDIF
 70
70
  9
$TILEMODE
 70
1
  9
$MAXACTVP
 70
64
  9
$PINSBASE
 10
0.0
 20
0.0
 30
0.0
  9
$PLIMCHECK
 70
0
  9
$PEXTMIN
 10
1e+20
 20
1e+20
 30
1e+20
  9
$PEXTMAX
 10
-1e+20
 20
-1e+20
 30
-1e+20
  9
$PLIMMIN
 10
0.0
 20
0.0
  9
$PLIMMAX
 10
420.0
 20
297.0
  9
$UNITMODE
 70
0
  9
$VISRETAIN
 70
1
  9
$PLINEGEN
 70
0
  9
$PSLTSCALE
 70
1
  9
$TREEDEPTH
 70
3020
  9
$CMLSTYLE
  2
Standard
  9
$CMLJUST
 70
0
  9
$CMLSCALE
 40
20.0
  9
$PROXYGRAPHICS
 70
1
  9
$MEASUREMENT
 70
1
  9
$CELWEIGHT
370
-1
  9
$ENDCAPS
280
0
  9
$JOINSTYLE
280
0
  9
$LWDISPLAY
290
0
  9
$INSUNITS
 70
6
  9
$HYPERLINKBASE
  1

  9
$STYLESHEET
  1

  9
$XEDIT
290
1
  9
$CEPSNTYPE
380
0
  9
$PSTYLEMODE
290
1
  9
$FINGERPRINTGUID
  2
{00000000-0000-0000-0000-000000000000}
  9
$VERSIONGUID
  2
{00000000-0000-0000-0000-000000000000}
  9
$EXTNAMES
290
1
  9
$PSVPSCALE
 40
0.0
  9
$OLESTARTUP
290
0
  0
ENDSEC
  0
SECTION
  2
CLASSES
  0
CLASS
  1
ACDBDICTIONARYWDFLT
  2
AcDbDictionaryWithDefault
  3
ObjectDBX Classes
 90
0
280
0
281
0
  0
CLASS
  1
SUN
  2
AcDbSun
  3
SCENEOE
 90
1153
280
0
281
0
  0
CLASS
  1
VISUALSTYLE
  2
AcDbVisualStyle
  3
ObjectDBX Classes
 90
4095
280
0
281
0
  0
CLASS
  1
MATERIAL
  2
AcDbMaterial
  3
ObjectDBX Classes
 90
1153
280
0
281
0
  0
CLASS
  1
SCALE
  2
AcDbScale
  3
ObjectDBX Classes
 90
1153
280
0
281
0
  0
CLASS
  1
TABLESTYLE
  2
AcDbTableStyle
  3
ObjectDBX Classes
 90
4095
280
0
281
0
  0
CLASS
  1
MLEADERSTYLE
  2
AcDbMLeaderStyle
  3
ACDB_MLEADERSTYLE_CLASS
 90
4095
280
0
281
0
  0
CLASS
  1
DICTIONARYVAR
  2
AcDbDictionaryVar
  3
ObjectDBX Classes
 90
0
280
0
281
0
  0
CLASS
  1
CELLSTYLEMAP
  2
AcDbCellStyleMap
  3
ObjectDBX Classes
 90
1152
280
0
281
0
  0
CLASS
  1
MENTALRAYRENDERSETTINGS
  2
AcDbMentalRayRenderSettings
  3
SCENEOE
 90
1024
280
0
281
0
  0
CLASS
  1
ACDBDETAILVIEWSTYLE
  2
AcDbDetailViewStyle
  3
ObjectDBX Classes
 90
1025
280
0
281
0
  0
CLASS
  1
ACDBSECTIONVIEWSTYLE
  2
AcDbSectionViewStyle
  3
ObjectDBX Classes
 90
1025
280
0
281
0
  0
CLASS
  1
RASTERVARIABLES
  2
AcDbRasterVariables
  3
ISM
 90
0
280
0
281
0
  0
CLASS
  1
ACDBPLACEHOLDER
  2
AcDbPlaceHolder
  3
ObjectDBX Classes
 90
0
280
0
281
0
  0
CLASS
  1
LAYOUT
  2
AcDbLayout
  3
ObjectDBX Classes
 90
0
280
0
281
0
  0
ENDSEC
  0
SECTION
  2
TABLES
  0
TABLE
  2
VPORT
  5
8
330
0
100
AcDbSymbolTable
 70
1
  0
VPORT
  5
23
330
8
100
AcDbSymbolTableRecord
100
AcDbViewportTableRecord
  2
*Active
 70
0
 10
0.0
 20
0.0
 11
1.0
 21
1.0
 12
0.0
 22
0.0
 13
0.0
 23
0.0
 14
0.5
 24
0.5
 15
0.5
 25
0.5
 16
0.0
 26
0.0
 36
1.0
 17
0.0
 27
0.0
 37
0.0
 40
1000.0
 41
1.34
 42
50.0
 43
0.0
 44
0.0
 50
0.0
 51
0.0
 71
0
 72
1000
 73
1
 74
3
 75
0
 76
0
 77
0
 78
0
281
0
 65
0
146
0.0
  0
ENDTAB
  0
TABLE
  2
LTYPE
  5
2
330
0
100
AcDbSymbolTable
 70
4
  0
LTYPE
  5
24
330
2
100
AcDbSymbolTableRecord
100
AcDbLinetypeTableRecord
  2
ByBlock
 70
0
  3

 72
65
 73
0
 40
0.0
  0
LTYPE
  5
25
330
2
100
AcDbSymbolTableRecord
100
AcDbLinetypeTableRecord
  2
ByLayer
 70
0
  3

 72
65
 73
0
 40
0.0
  0
LTYPE
  5
26
330
2
100
AcDbSymbolTableRecord
100
AcDbLinetypeTableRecord
  2
Continuous
 70
0
  3

 72
65
 73
0
 40
0.0
  0
LTYPE
  5
2F
330
2
100
AcDbSymbolTableRecord
100
AcDbLinetypeTableRecord
  2
DASHED
 70
0
  3
Loft hidden edge — 2/1.4
 72
65
 73
2
 40
0.0
 49
2.0
 74
0
 49
-1.4
 74
0
  0
ENDTAB
  0
TABLE
  2
LAYER
  5
1
330
0
100
AcDbSymbolTable
 70
6
  0
LAYER
  5
27
330
1
100
AcDbSymbolTableRecord
100
AcDbLayerTableRecord
  2
0
 70
0
 62
7
  6
Continuous
370
-3
390
13
  0
LAYER
  5
28
330
1
100
AcDbSymbolTableRecord
100
AcDbLayerTableRecord
  2
Defpoints
 70
0
 62
7
  6
Continuous
290
0
370
-3
390
13
  0
LAYER
  5
30
330
1
100
AcDbSymbolTableRecord
100
AcDbLayerTableRecord
  2
VISIBLE
 70
0
 62
7
  6
Continuous
370
-3
390
13
  0
LAYER
  5
31
330
1
100
AcDbSymbolTableRecord
100
AcDbLayerTableRecord
  2
HIDDEN
 70
0
 62
8
  6
DASHED
370
-3
390
13
  0
LAYER
  5
32
330
1
100
AcDbSymbolTableRecord
100
AcDbLayerTableRecord
  2
DIMENSION
 70
0
 62
1
  6
Continuous
370
-3
390
13
  0
LAYER
  5
33
330
1
100
AcDbSymbolTableRecord
100
AcDbLayerTableRecord
  2
TITLE
 70
0
 62
5
  6
Continuous
370
-3
390
13
  0
ENDTAB
  0
TABLE
  2
STYLE
  5
5
330
0
100
AcDbSymbolTable
 70
2
  0
STYLE
  5
29
330
5
100
AcDbSymbolTableRecord
100
AcDbTextStyleTableRecord
  2
Standard
 70
0
 40
0.0
 41
1.0
 50
0.0
 71
0
 42
2.5
  3
txt
  4

  0
STYLE
  5
34
330
5
100
AcDbSymbolTableRecord
100
AcDbTextStyleTableRecord
  2
LOFT_MONO
 70
0
 40
0.0
 41
1.0
 50
0.0
 71
0
 42
2.5
  3
cour.ttf
  4

  0
ENDTAB
  0
TABLE
  2
VIEW
  5
7
330
0
100
AcDbSymbolTable
 70
0
  0
ENDTAB
  0
TABLE
  2
UCS
  5
6
330
0
100
AcDbSymbolTable
 70
0
  0
ENDTAB
  0
TABLE
  2
APPID
  5
3
330
0
100
AcDbSymbolTable
 70
3
  0
APPID
  5
2A
330
3
100
AcDbSymbolTableRecord
100
AcDbRegAppTableRecord
  2
ACAD
 70
0
  0
APPID
  5
77
330
3
100
AcDbSymbolTableRecord
100
AcDbRegAppTableRecord
  2
HATCHBACKGROUNDCOLOR
 70
0
  0
APPID
  5
78
330
3
100
AcDbSymbolTableRecord
100
AcDbRegAppTableRecord
  2
EZDXF
 70
0
  0
ENDTAB
  0
TABLE
  2
DIMSTYLE
  5
4
330
0
100
AcDbSymbolTable
 70
1
100
AcDbDimStyleTable
  0
DIMSTYLE
105
2B
330
4
100
AcDbSymbolTableRecord
100
AcDbDimStyleTableRecord
  2
Standard
 70
0
  3

  4

 40
1.0
 41
2.5
 42
0.625
 43
3.75
 44
1.25
 45
0.0
 46
0.0
 47
0.0
 48
0.0
140
2.5
141
2.5
142
0.0
143
0.03937007874
144
1.0
145
0.0
146
1.0
147
0.625
148
0.0
 71
0
 72
0
 73
0
 74
0
 75
0
 76
0
 77
1
 78
8
 79
3
170
0
171
3
172
1
173
0
174
0
175
0
176
0
177
0
178
0
179
2
271
2
272
2
273
2
274
3
275
0
276
0
277
2
278
44
279
0
280
0
281
0
282
0
283
0
284
8
285
0
286
0
288
0
289
3
371
-2
372
-2
  0
ENDTAB
  0
TABLE
  2
BLOCK_RECORD
  5
9
330
0
100
AcDbSymbolTable
 70
2
  0
BLOCK_RECORD
  5
17
330
9
100
AcDbSymbolTableRecord
100
AcDbBlockTableRecord
  2
*Model_Space
340
1A
  0
BLOCK_RECORD
  5
1B
330
9
100
AcDbSymbolTableRecord
100
AcDbBlockTableRecord
  2
*Paper_Space
340
1E
  0
ENDTAB
  0
ENDSEC
  0
SECTION
  2
BLOCKS
  0
BLOCK
  5
18
330
17
100
AcDbEntity
  8
0
100
AcDbBlockBegin
  2
*Model_Space
 70
0
 10
0.0
 20
0.0
 30
0.0
  3
*Model_Space
  1

  0
ENDBLK
  5
19
330
17
100
AcDbEntity
  8
0
100
AcDbBlockEnd
  0
BLOCK
  5
1C
330
1B
100
AcDbEntity
  8
0
100
AcDbBlockBegin
  2
*Paper_Space
 70
0
 10
0.0
 20
0.0
 30
0.0
  3
*Paper_Space
  1

  0
ENDBLK
  5
1D
330
1B
100
AcDbEntity
  8
0
100
AcDbBlockEnd
  0
ENDSEC
  0
SECTION
  2
ENTITIES
  0
LWPOLYLINE
  5
35
330
17
100
AcDbEntity
  8
TITLE
100
AcDbPolyline
 90
4
 70
1
 10
10.0
 20
200.0
 10
287.0
 20
200.0
 10
287.0
 20
10.0
 10
10.0
 20
10.0
  0
LINE
  5
36
330
17
100
AcDbEntity
  8
VISIBLE
100
AcDbLine
 10
98.7595148057186
 20
73.07472382764291
 30
0.0
 11
98.7595148057186
 21
83.07472382764291
 31
0.0
  0
LINE
  5
37
330
17
100
AcDbEntity
  8
VISIBLE
100
AcDbLine
 10
98.7595148057186
 20
73.07472382764291
 30
0.0
 11
138.7595148057186
 21
73.07472382764291
 31
0.0
  0
LINE
  5
38
330
17
100
AcDbEntity
  8
VISIBLE
100
AcDbLine
 10
98.7595148057186
 20
83.07472382764291
 30
0.0
 11
138.7595148057186
 21
83.07472382764291
 31
0.0
  0
LINE
  5
39
330
17
100
AcDbEntity
  8
HIDDEN
100
AcDbLine
 10
113.7595148057186
 20
73.07472382764291
 30
0.0
 11
113.7595148057186
 21
83.07472382764291
 31
0.0
  0
LINE
  5
3A
330
17
100
AcDbEntity
  8
HIDDEN
100
AcDbLine
 10
123.7595148057186
 20
73.07472382764291
 30
0.0
 11
123.7595148057186
 21
83.07472382764291
 31
0.0
  0
LINE
  5
3B
330
17
100
AcDbEntity
  8
VISIBLE
100
AcDbLine
 10
138.7595148057186
 20
73.07472382764291
 30
0.0
 11
138.7595148057186
 21
83.07472382764291
 31
0.0
  0
LWPOLYLINE
  5
3C
330
17
100
AcDbEntity
  8
HIDDEN
100
AcDbPolyline
 90
33
 70
0
 10
113.7595148057186
 20
73.07472382764291
 10
113.81435999782086
 20
73.07472382764291
 10
113.86920518992312
 20
73.07472382764291
 10
114.00043625149604
 20
73.07472382764291
 10
114.16222166085724
 20
73.07472382764291
 10
114.36636176505124
 20
73.07472382764291
 10
114.62697479568897
 20
73.07472382764291
 10
114.89983916856885
 20
73.07472382764291
 10
115.2462115949017
 20
73.07472382764291
 10
115.59258402123453
 20
73.07472382764291
 10
115.99757716406464
 20
73.07472382764291
 10
116.41234042631095
 20
73.07472382764291
 10
116.85429961658235
 20
73.07472382764291
 10
117.31665575287258
 20
73.07472382764291
 10
117.78598571965972
 20
73.07472382764291
 10
118.27275026268916
 20
73.07472382764291
 10
118.7595148057186
 20
73.07472382764291
 10
119.24627934874803
 20
73.07472382764291
 10
119.73304389177747
 20
73.07472382764291
 10
120.20237385856461
 20
73.07472382764291
 10
120.66472999485484
 20
73.07472382764291
 10
121.10668918512624
 20
73.07472382764291
 10
121.52145244737255
 20
73.07472382764291
 10
121.92644559020266
 20
73.07472382764291
 10
122.2728180165355
 20
73.07472382764291
 10
122.61919044286834
 20
73.07472382764291
 10
122.89205481574822
 20
73.07472382764291
 10
123.15266784638595
 20
73.07472382764291
 10
123.35680795057995
 20
73.07472382764291
 10
123.51859335994115
 20
73.07472382764291
 10
123.64982442151407
 20
73.07472382764291
 10
123.70466961361633
 20
73.07472382764291
 10
123.7595148057186
 20
73.07472382764291
  0
LWPOLYLINE
  5
3D
330
17
100
AcDbEntity
  8
HIDDEN
100
AcDbPolyline
 90
33
 70
0
 10
123.7595148057186
 20
73.07472382764291
 10
123.70466961361633
 20
73.07472382764291
 10
123.64982442151407
 20
73.07472382764291
 10
123.51859335994115
 20
73.07472382764291
 10
123.35680795057995
 20
73.07472382764291
 10
123.15266784638595
 20
73.07472382764291
 10
122.89205481574822
 20
73.07472382764291
 10
122.61919044286834
 20
73.07472382764291
 10
122.2728180165355
 20
73.07472382764291
 10
121.92644559020266
 20
73.07472382764291
 10
121.52145244737255
 20
73.07472382764291
 10
121.10668918512624
 20
73.07472382764291
 10
120.66472999485484
 20
73.07472382764291
 10
120.20237385856461
 20
73.07472382764291
 10
119.73304389177747
 20
73.07472382764291
 10
119.24627934874803
 20
73.07472382764291
 10
118.7595148057186
 20
73.07472382764291
 10
118.27275026268916
 20
73.07472382764291
 10
117.78598571965972
 20
73.07472382764291
 10
117.31665575287258
 20
73.07472382764291
 10
116.85429961658235
 20
73.07472382764291
 10
116.41234042631095
 20
73.07472382764291
 10
115.99757716406464
 20
73.07472382764291
 10
115.59258402123453
 20
73.07472382764291
 10
115.24621159490168
 20
73.07472382764291
 10
114.89983916856885
 20
73.07472382764291
 10
114.62697479568897
 20
73.07472382764291
 10
114.36636176505124
 20
73.07472382764291
 10
114.16222166085724
 20
73.07472382764291
 10
114.00043625149604
 20
73.07472382764291
 10
113.86920518992312
 20
73.07472382764291
 10
113.81435999782086
 20
73.07472382764291
 10
113.7595148057186
 20
73.07472382764291
  0
LWPOLYLINE
  5
3E
330
17
100
AcDbEntity
  8
HIDDEN
100
AcDbPolyline
 90
33
 70
0
 10
113.7595148057186
 20
83.07472382764291
 10
113.81435999782086
 20
83.07472382764291
 10
113.86920518992312
 20
83.07472382764291
 10
114.00043625149604
 20
83.07472382764291
 10
114.16222166085724
 20
83.07472382764291
 10
114.36636176505124
 20
83.07472382764291
 10
114.62697479568897
 20
83.07472382764291
 10
114.89983916856885
 20
83.07472382764291
 10
115.2462115949017
 20
83.07472382764291
 10
115.59258402123453
 20
83.07472382764291
 10
115.99757716406464
 20
83.07472382764291
 10
116.41234042631095
 20
83.07472382764291
 10
116.85429961658235
 20
83.07472382764291
 10
117.31665575287258
 20
83.07472382764291
 10
117.78598571965972
 20
83.07472382764291
 10
118.27275026268916
 20
83.07472382764291
 10
118.7595148057186
 20
83.07472382764291
 10
119.24627934874803
 20
83.07472382764291
 10
119.73304389177747
 20
83.07472382764291
 10
120.20237385856461
 20
83.07472382764291
 10
120.66472999485484
 20
83.07472382764291
 10
121.10668918512624
 20
83.07472382764291
 10
121.52145244737255
 20
83.07472382764291
 10
121.92644559020266
 20
83.07472382764291
 10
122.2728180165355
 20
83.07472382764291
 10
122.61919044286834
 20
83.07472382764291
 10
122.89205481574822
 20
83.07472382764291
 10
123.15266784638595
 20
83.07472382764291
 10
123.35680795057995
 20
83.07472382764291
 10
123.51859335994115
 20
83.07472382764291
 10
123.64982442151407
 20
83.07472382764291
 10
123.70466961361633
 20
83.07472382764291
 10
123.7595148057186
 20
83.07472382764291
  0
LWPOLYLINE
  5
3F
330
17
100
AcDbEntity
  8
HIDDEN
100
AcDbPolyline
 90
33
 70
0
 10
123.7595148057186
 20
83.07472382764291
 10
123.70466961361633
 20
83.07472382764291
 10
123.64982442151407
 20
83.07472382764291
 10
123.51859335994115
 20
83.07472382764291
 10
123.35680795057995
 20
83.07472382764291
 10
123.15266784638595
 20
83.07472382764291
 10
122.89205481574822
 20
83.07472382764291
 10
122.61919044286834
 20
83.07472382764291
 10
122.2728180165355
 20
83.07472382764291
 10
121.92644559020266
 20
83.07472382764291
 10
121.52145244737255
 20
83.07472382764291
 10
121.10668918512624
 20
83.07472382764291
 10
120.66472999485484
 20
83.07472382764291
 10
120.20237385856461
 20
83.07472382764291
 10
119.73304389177747
 20
83.07472382764291
 10
119.24627934874803
 20
83.07472382764291
 10
118.7595148057186
 20
83.07472382764291
 10
118.27275026268916
 20
83.07472382764291
 10
117.78598571965972
 20
83.07472382764291
 10
117.31665575287258
 20
83.07472382764291
 10
116.85429961658235
 20
83.07472382764291
 10
116.41234042631095
 20
83.07472382764291
 10
115.99757716406464
 20
83.07472382764291
 10
115.59258402123453
 20
83.07472382764291
 10
115.24621159490168
 20
83.07472382764291
 10
114.89983916856885
 20
83.07472382764291
 10
114.62697479568897
 20
83.07472382764291
 10
114.36636176505124
 20
83.07472382764291
 10
114.16222166085724
 20
83.07472382764291
 10
114.00043625149604
 20
83.07472382764291
 10
113.86920518992312
 20
83.07472382764291
 10
113.81435999782086
 20
83.07472382764291
 10
113.7595148057186
 20
83.07472382764291
  0
TEXT
  5
40
330
17
100
AcDbEntity
  8
TITLE
100
AcDbText
 10
118.7595148057186
 20
65.07472382764291
 30
0.0
 40
3.4
  1
FRONT
  7
LOFT_MONO
 72
1
 11
118.7595148057186
 21
65.07472382764291
 31
0.0
100
AcDbText
 73
2
  0
LINE
  5
41
330
17
100
AcDbEntity
  8
VISIBLE
100
AcDbLine
 10
98.7595148057186
 20
107.07472382764291
 30
0.0
 11
98.7595148057186
 21
132.0747238276429
 31
0.0
  0
LINE
  5
42
330
17
100
AcDbEntity
  8
VISIBLE
100
AcDbLine
 10
98.7595148057186
 20
107.07472382764291
 30
0.0
 11
138.7595148057186
 21
107.07472382764291
 31
0.0
  0
LINE
  5
43
330
17
100
AcDbEntity
  8
VISIBLE
100
AcDbLine
 10
98.7595148057186
 20
132.0747238276429
 30
0.0
 11
138.7595148057186
 21
132.0747238276429
 31
0.0
  0
LINE
  5
44
330
17
100
AcDbEntity
  8
VISIBLE
100
AcDbLine
 10
138.7595148057186
 20
107.07472382764291
 30
0.0
 11
138.7595148057186
 21
132.0747238276429
 31
0.0
  0
CIRCLE
  5
45
330
17
100
AcDbEntity
  8
VISIBLE
100
AcDbCircle
 10
118.7595148057186
 20
119.57472382764291
 30
0.0
 40
5.0
  0
LINE
  5
46
330
17
100
AcDbEntity
  8
DIMENSION
100
AcDbLine
 10
113.7595148057186
 20
119.57472382764291
 30
0.0
 11
123.7595148057186
 21
119.57472382764291
 31
0.0
  0
SOLID
  5
47
330
17
100
AcDbEntity
  8
DIMENSION
100
AcDbTrace
 10
113.7595148057186
 20
119.57472382764291
 30
0.0
 11
117.1595148057186
 21
118.67472382764291
 31
0.0
 12
117.1595148057186
 22
120.47472382764292
 32
0.0
 13
117.1595148057186
 23
120.47472382764292
 33
0.0
  0
SOLID
  5
48
330
17
100
AcDbEntity
  8
DIMENSION
100
AcDbTrace
 10
123.7595148057186
 20
119.57472382764291
 30
0.0
 11
120.35951480571859
 21
120.47472382764292
 31
0.0
 12
120.35951480571859
 22
118.67472382764291
 32
0.0
 13
120.35951480571859
 23
118.67472382764291
 33
0.0
  0
TEXT
  5
49
330
17
100
AcDbEntity
  8
DIMENSION
100
AcDbText
 10
133.0035148057186
 20
119.57472382764291
 30
0.0
 40
3.2
  1
Ø10.000
  7
LOFT_MONO
 72
1
 11
133.0035148057186
 21
119.57472382764291
 31
0.0
100
AcDbText
 73
2
  0
TEXT
  5
4A
330
17
100
AcDbEntity
  8
TITLE
100
AcDbText
 10
118.7595148057186
 20
99.07472382764291
 30
0.0
 40
3.4
  1
TOP
  7
LOFT_MONO
 72
1
 11
118.7595148057186
 21
99.07472382764291
 31
0.0
100
AcDbText
 73
2
  0
LINE
  5
4B
330
17
100
AcDbEntity
  8
VISIBLE
100
AcDbLine
 10
162.7595148057186
 20
73.07472382764291
 30
0.0
 11
162.7595148057186
 21
83.07472382764291
 31
0.0
  0
LINE
  5
4C
330
17
100
AcDbEntity
  8
VISIBLE
100
AcDbLine
 10
162.7595148057186
 20
73.07472382764291
 30
0.0
 11
187.7595148057186
 21
73.07472382764291
 31
0.0
  0
LINE
  5
4D
330
17
100
AcDbEntity
  8
VISIBLE
100
AcDbLine
 10
162.7595148057186
 20
83.07472382764291
 30
0.0
 11
187.7595148057186
 21
83.07472382764291
 31
0.0
  0
LINE
  5
4E
330
17
100
AcDbEntity
  8
HIDDEN
100
AcDbLine
 10
170.2595148057186
 20
73.07472382764291
 30
0.0
 11
170.2595148057186
 21
83.07472382764291
 31
0.0
  0
LINE
  5
4F
330
17
100
AcDbEntity
  8
HIDDEN
100
AcDbLine
 10
180.2595148057186
 20
73.07472382764291
 30
0.0
 11
180.2595148057186
 21
83.07472382764291
 31
0.0
  0
LINE
  5
50
330
17
100
AcDbEntity
  8
VISIBLE
100
AcDbLine
 10
187.7595148057186
 20
73.07472382764291
 30
0.0
 11
187.7595148057186
 21
83.07472382764291
 31
0.0
  0
LWPOLYLINE
  5
51
330
17
100
AcDbEntity
  8
HIDDEN
100
AcDbPolyline
 90
33
 70
0
 10
170.2595148057186
 20
73.07472382764291
 10
170.27326934657714
 20
73.07472382764291
 10
170.28702388743565
 20
73.07472382764291
 10
170.32030422142648
 20
73.07472382764291
 10
170.3613948726702
 20
73.07472382764291
 10
170.41397954031584
 20
73.07472382764291
 10
170.48188956316403
 20
73.07472382764291
 10
170.5535089236786
 20
73.07472382764291
 10
170.64738431019163
 20
73.07472382764291
 10
170.74125969670465
 20
73.07472382764291
 10
170.8563792199705
 20
73.07472382764291
 10
170.97503943269518
 20
73.07472382764291
 10
171.1070097055275
 20
73.07472382764291
 10
171.24896252344055
 20
73.07472382764291
 10
171.39706033167937
 20
73.07472382764291
 10
171.56052061573263
 20
73.07472382764291
 10
171.72398089978586
 20
73.07472382764291
 10
171.90689304206546
 20
73.07472382764291
 10
172.08980518434504
 20
73.07472382764291
 10
172.28496849227398
 20
73.07472382764291
 10
172.48503226646267
 20
73.07472382764291
 10
172.69136848945232
 20
73.07472382764291
 10
172.90606797750996
 20
73.07472382764291
 10
173.12247257174405
 20
73.07472382764291
 10
173.3491078030368
 20
73.07472382764291
 10
173.57574303432952
 20
73.07472382764291
 10
173.8101659859406
 20
73.07472382764291
 10
174.0458868909381
 20
73.07472382764291
 10
174.28510570825327
 20
73.07472382764291
 10
174.52694795980673
 20
73.07472382764291
 10
174.76967022276662
 20
73.07472382764291
 10
175.01459251424262
 20
73.07472382764291
 10
175.2595148057186
 20
73.07472382764291
  0
LWPOLYLINE
  5
52
330
17
100
AcDbEntity
  8
HIDDEN
100
AcDbPolyline
 90
33
 70
0
 10
180.2595148057186
 20
73.07472382764291
 10
180.20466961361632
 20
73.07472382764291
 10
180.14982442151407
 20
73.07472382764291
 10
180.01859335994115
 20
73.07472382764291
 10
179.85680795057993
 20
73.07472382764291
 10
179.65266784638595
 20
73.07472382764291
 10
179.39205481574822
 20
73.07472382764291
 10
179.11919044286833
 20
73.07472382764291
 10
178.7728180165355
 20
73.07472382764291
 10
178.42644559020266
 20
73.07472382764291
 10
178.02145244737255
 20
73.07472382764291
 10
177.60668918512624
 20
73.07472382764291
 10
177.16472999485484
 20
73.07472382764291
 10
176.7023738585646
 20
73.07472382764291
 10
176.23304389177747
 20
73.07472382764291
 10
175.74627934874803
 20
73.07472382764291
 10
175.2595148057186
 20
73.07472382764291
 10
174.77275026268916
 20
73.07472382764291
 10
174.28598571965972
 20
73.07472382764291
 10
173.81665575287258
 20
73.07472382764291
 10
173.35429961658235
 20
73.07472382764291
 10
172.91234042631095
 20
73.07472382764291
 10
172.49757716406464
 20
73.07472382764291
 10
172.09258402123453
 20
73.07472382764291
 10
171.7462115949017
 20
73.07472382764291
 10
171.39983916856886
 20
73.07472382764291
 10
171.12697479568897
 20
73.07472382764291
 10
170.86636176505124
 20
73.07472382764291
 10
170.66222166085726
 20
73.07472382764291
 10
170.50043625149604
 20
73.07472382764291
 10
170.36920518992312
 20
73.07472382764291
 10
170.31435999782084
 20
73.07472382764291
 10
170.2595148057186
 20
73.07472382764291
  0
LWPOLYLINE
  5
53
330
17
100
AcDbEntity
  8
HIDDEN
100
AcDbPolyline
 90
33
 70
0
 10
170.2595148057186
 20
83.07472382764291
 10
170.27326934657714
 20
83.07472382764291
 10
170.28702388743565
 20
83.07472382764291
 10
170.32030422142648
 20
83.07472382764291
 10
170.3613948726702
 20
83.07472382764291
 10
170.41397954031584
 20
83.07472382764291
 10
170.48188956316403
 20
83.07472382764291
 10
170.5535089236786
 20
83.07472382764291
 10
170.64738431019163
 20
83.07472382764291
 10
170.74125969670465
 20
83.07472382764291
 10
170.8563792199705
 20
83.07472382764291
 10
170.97503943269518
 20
83.07472382764291
 10
171.1070097055275
 20
83.07472382764291
 10
171.24896252344055
 20
83.07472382764291
 10
171.39706033167937
 20
83.07472382764291
 10
171.56052061573263
 20
83.07472382764291
 10
171.72398089978586
 20
83.07472382764291
 10
171.90689304206546
 20
83.07472382764291
 10
172.08980518434504
 20
83.07472382764291
 10
172.28496849227398
 20
83.07472382764291
 10
172.48503226646267
 20
83.07472382764291
 10
172.69136848945232
 20
83.07472382764291
 10
172.90606797750996
 20
83.07472382764291
 10
173.12247257174405
 20
83.07472382764291
 10
173.3491078030368
 20
83.07472382764291
 10
173.57574303432952
 20
83.07472382764291
 10
173.8101659859406
 20
83.07472382764291
 10
174.0458868909381
 20
83.07472382764291
 10
174.28510570825327
 20
83.07472382764291
 10
174.52694795980673
 20
83.07472382764291
 10
174.76967022276662
 20
83.07472382764291
 10
175.01459251424262
 20
83.07472382764291
 10
175.2595148057186
 20
83.07472382764291
  0
LWPOLYLINE
  5
54
330
17
100
AcDbEntity
  8
HIDDEN
100
AcDbPolyline
 90
33
 70
0
 10
180.2595148057186
 20
83.07472382764291
 10
180.20466961361632
 20
83.07472382764291
 10
180.14982442151407
 20
83.07472382764291
 10
180.01859335994115
 20
83.07472382764291
 10
179.85680795057993
 20
83.07472382764291
 10
179.65266784638595
 20
83.07472382764291
 10
179.39205481574822
 20
83.07472382764291
 10
179.11919044286833
 20
83.07472382764291
 10
178.7728180165355
 20
83.07472382764291
 10
178.42644559020266
 20
83.07472382764291
 10
178.02145244737255
 20
83.07472382764291
 10
177.60668918512624
 20
83.07472382764291
 10
177.16472999485484
 20
83.07472382764291
 10
176.7023738585646
 20
83.07472382764291
 10
176.23304389177747
 20
83.07472382764291
 10
175.74627934874803
 20
83.07472382764291
 10
175.2595148057186
 20
83.07472382764291
 10
174.77275026268916
 20
83.07472382764291
 10
174.28598571965972
 20
83.07472382764291
 10
173.81665575287258
 20
83.07472382764291
 10
173.35429961658235
 20
83.07472382764291
 10
172.91234042631095
 20
83.07472382764291
 10
172.49757716406464
 20
83.07472382764291
 10
172.09258402123453
 20
83.07472382764291
 10
171.7462115949017
 20
83.07472382764291
 10
171.39983916856886
 20
83.07472382764291
 10
171.12697479568897
 20
83.07472382764291
 10
170.86636176505124
 20
83.07472382764291
 10
170.66222166085726
 20
83.07472382764291
 10
170.50043625149604
 20
83.07472382764291
 10
170.36920518992312
 20
83.07472382764291
 10
170.31435999782084
 20
83.07472382764291
 10
170.2595148057186
 20
83.07472382764291
  0
LWPOLYLINE
  5
55
330
17
100
AcDbEntity
  8
HIDDEN
100
AcDbPolyline
 90
33
 70
0
 10
175.2595148057186
 20
73.07472382764291
 10
175.50443709719457
 20
73.07472382764291
 10
175.74935938867057
 20
73.07472382764291
 10
175.99208165163046
 20
73.07472382764291
 10
176.23392390318392
 20
73.07472382764291
 10
176.47314272049908
 20
73.07472382764291
 10
176.70886362549658
 20
73.07472382764291
 10
176.94328657710767
 20
73.07472382764291
 10
177.1699218084004
 20
73.07472382764291
 10
177.39655703969314
 20
73.07472382764291
 10
177.61296163392723
 20
73.07472382764291
 10
177.82766112198487
 20
73.07472382764291
 10
178.03399734497452
 20
73.07472382764291
 10
178.23406111916321
 20
73.07472382764291
 10
178.42922442709215
 20
73.07472382764291
 10
178.61213656937173
 20
73.07472382764291
 10
178.79504871165133
 20
73.07472382764291
 10
178.95850899570456
 20
73.07472382764291
 10
179.12196927975782
 20
73.07472382764291
 10
179.27006708799664
 20
73.07472382764291
 10
179.4120199059097
 20
73.07472382764291
 10
179.543990178742
 20
73.07472382764291
 10
179.66265039146668
 20
73.07472382764291
 10
179.77776991473254
 20
73.07472382764291
 10
179.87164530124556
 20
73.07472382764291
 10
179.96552068775858
 20
73.07472382764291
 10
180.03714004827316
 20
73.07472382764291
 10
180.10505007112135
 20
73.07472382764291
 10
180.157634738767
 20
73.07472382764291
 10
180.1987253900107
 20
73.07472382764291
 10
180.23200572400154
 20
73.07472382764291
 10
180.24576026486005
 20
73.07472382764291
 10
180.2595148057186
 20
73.07472382764291
  0
LWPOLYLINE
  5
56
330
17
100
AcDbEntity
  8
HIDDEN
100
AcDbPolyline
 90
33
 70
0
 10
175.2595148057186
 20
83.07472382764291
 10
175.50443709719457
 20
83.07472382764291
 10
175.74935938867057
 20
83.07472382764291
 10
175.99208165163046
 20
83.07472382764291
 10
176.23392390318392
 20
83.07472382764291
 10
176.47314272049908
 20
83.07472382764291
 10
176.70886362549658
 20
83.07472382764291
 10
176.94328657710767
 20
83.07472382764291
 10
177.1699218084004
 20
83.07472382764291
 10
177.39655703969314
 20
83.07472382764291
 10
177.61296163392723
 20
83.07472382764291
 10
177.82766112198487
 20
83.07472382764291
 10
178.03399734497452
 20
83.07472382764291
 10
178.23406111916321
 20
83.07472382764291
 10
178.42922442709215
 20
83.07472382764291
 10
178.61213656937173
 20
83.07472382764291
 10
178.79504871165133
 20
83.07472382764291
 10
178.95850899570456
 20
83.07472382764291
 10
179.12196927975782
 20
83.07472382764291
 10
179.27006708799664
 20
83.07472382764291
 10
179.4120199059097
 20
83.07472382764291
 10
179.543990178742
 20
83.07472382764291
 10
179.66265039146668
 20
83.07472382764291
 10
179.77776991473254
 20
83.07472382764291
 10
179.87164530124556
 20
83.07472382764291
 10
179.96552068775858
 20
83.07472382764291
 10
180.03714004827316
 20
83.07472382764291
 10
180.10505007112135
 20
83.07472382764291
 10
180.157634738767
 20
83.07472382764291
 10
180.1987253900107
 20
83.07472382764291
 10
180.23200572400154
 20
83.07472382764291
 10
180.24576026486005
 20
83.07472382764291
 10
180.2595148057186
 20
83.07472382764291
  0
TEXT
  5
57
330
17
100
AcDbEntity
  8
TITLE
100
AcDbText
 10
175.2595148057186
 20
65.07472382764291
 30
0.0
 40
3.4
  1
RIGHT
  7
LOFT_MONO
 72
1
 11
175.2595148057186
 21
65.07472382764291
 31
0.0
100
AcDbText
 73
2
  0
LINE
  5
58
330
17
100
AcDbEntity
  8
VISIBLE
100
AcDbLine
 10
152.27854441715579
 20
112.43037874452531
 30
0.0
 11
152.27854441715579
 21
120.59534455380256
 31
0.0
  0
LINE
  5
59
330
17
100
AcDbEntity
  8
VISIBLE
100
AcDbLine
 10
152.27854441715579
 20
112.43037874452531
 30
0.0
 11
169.9562139468195
 21
102.22417148292874
 31
0.0
  0
LINE
  5
5A
330
17
100
AcDbEntity
  8
HIDDEN
100
AcDbLine
 10
152.27854441715579
 20
112.43037874452531
 30
0.0
 11
180.5628156646177
 21
128.76031036307984
 31
0.0
  0
LINE
  5
5B
330
17
100
AcDbEntity
  8
VISIBLE
100
AcDbLine
 10
152.27854441715579
 20
120.59534455380256
 30
0.0
 11
169.9562139468195
 21
110.38913729220599
 31
0.0
  0
LINE
  5
5C
330
17
100
AcDbEntity
  8
VISIBLE
100
AcDbLine
 10
152.27854441715579
 20
120.59534455380256
 30
0.0
 11
180.5628156646177
 21
136.9252761723571
 31
0.0
  0
LINE
  5
5D
330
17
100
AcDbEntity
  8
VISIBLE
100
AcDbLine
 10
169.9562139468195
 20
102.22417148292874
 30
0.0
 11
169.9562139468195
 21
110.38913729220599
 31
0.0
  0
LINE
  5
5E
330
17
100
AcDbEntity
  8
VISIBLE
100
AcDbLine
 10
169.9562139468195
 20
102.22417148292874
 30
0.0
 11
198.2404851942814
 21
118.55410310148326
 31
0.0
  0
LINE
  5
5F
330
17
100
AcDbEntity
  8
VISIBLE
100
AcDbLine
 10
169.9562139468195
 20
110.38913729220599
 30
0.0
 11
198.2404851942814
 21
126.71906891076051
 31
0.0
  0
LINE
  5
60
330
17
100
AcDbEntity
  8
HIDDEN
100
AcDbLine
 10
170.2595148057186
 20
115.49224092300429
 30
0.0
 11
170.2595148057186
 21
123.65720673228154
 31
0.0
  0
LINE
  5
61
330
17
100
AcDbEntity
  8
HIDDEN
100
AcDbLine
 10
180.2595148057186
 20
115.49224092300429
 30
0.0
 11
180.2595148057186
 21
123.65720673228154
 31
0.0
  0
LINE
  5
62
330
17
100
AcDbEntity
  8
HIDDEN
100
AcDbLine
 10
180.5628156646177
 20
128.76031036307984
 30
0.0
 11
180.5628156646177
 21
136.9252761723571
 31
0.0
  0
LINE
  5
63
330
17
100
AcDbEntity
  8
HIDDEN
100
AcDbLine
 10
180.5628156646177
 20
128.76031036307984
 30
0.0
 11
198.2404851942814
 21
118.55410310148325
 31
0.0
  0
LINE
  5
64
330
17
100
AcDbEntity
  8
VISIBLE
100
AcDbLine
 10
180.5628156646177
 20
136.9252761723571
 30
0.0
 11
198.2404851942814
 21
126.71906891076051
 31
0.0
  0
LINE
  5
65
330
17
100
AcDbEntity
  8
VISIBLE
100
AcDbLine
 10
198.2404851942814
 20
118.55410310148325
 30
0.0
 11
198.2404851942814
 21
126.71906891076051
 31
0.0
  0
LWPOLYLINE
  5
66
330
17
100
AcDbEntity
  8
HIDDEN
100
AcDbPolyline
 90
33
 70
0
 10
178.79504871165133
 20
117.5334823753236
 10
178.5253790204875
 20
117.6781145798207
 10
178.23801132818076
 20
117.81090134558171
 10
177.9345029051541
 20
117.93112308961796
 10
177.6164984898486
 20
118.03812831988218
 10
177.28572137574355
 20
118.13133716576036
 10
176.9439640726797
 20
118.21024452044084
 10
176.59307859309308
 20
118.27442277813186
 10
176.23496641579925
 20
118.32352415129442
 10
175.87156818171468
 20
118.35728255533309
 10
175.5048531773557
 20
118.37551505053145
 10
175.13680866310403
 20
118.3781228334183
 10
174.76942910407078
 20
118.36509177219227
 10
174.40470536191708
 20
118.33649248330316
 10
174.04461390620227
 20
118.29247994877538
 10
173.69110610372414
 20
118.2332926763469
 10
173.34609764389316
 20
118.15925140697517
 10
173.01145815744556
 20
118.07075737671401
 10
172.68900108475248
 20
117.96829014238078
 10
172.38047384862938
 20
117.85240498279637
 10
172.08754838490037
 20
117.72372988968114
 10
171.81181208203327
 20
117.58296216451343
 10
171.5547591789438
 20
117.43086463979243
 10
171.31778266758556
 20
117.26826154518271
 10
171.10216674420587
 20
117.09603404094233
 10
170.90907985017503
 20
116.91511544283901
 10
170.73956834010139
 20
116.72648616443112
 10
170.5945508115449
 20
116.53116840412171
 10
170.47481312705756
 20
116.33022060577672
 10
170.38100415552594
 20
116.12473172292603
 10
170.3136322558947
 20
115.9158153176299
 10
170.27306252232515
 20
115.70460352598971
 10
170.2595148057186
 20
115.49224092300429
  0
LWPOLYLINE
  5
67
330
17
100
AcDbEntity
  8
HIDDEN
100
AcDbPolyline
 90
33
 70
0
 10
170.2595148057186
 20
115.49224092300429
 10
170.2835911723576
 20
115.20928981123194
 10
170.35558840370246
 20
114.92906367334277
 10
170.47481312705756
 20
114.65426124023185
 10
170.64011714316217
 20
114.38752900955231
 10
170.84990848397683
 20
114.13143575849628
 10
171.10216674420587
 20
113.88844780506624
 10
171.39446253890492
 20
113.66090525608442
 10
171.72398089978586
 20
113.45099947068496
 10
172.08754838490037
 20
113.26075195632743
 10
172.48166364062058
 20
113.09199490057495
 10
172.9025311215886
 20
112.94635352612639
 10
173.34609764389313
 20
112.82523043903339
 10
173.80809141944627
 20
112.72979212083727
 10
174.28406319563794
 20
112.66095769471414
 10
174.76942910407078
 20
112.61939007381629
 10
175.2595148057186
 20
112.60548957705615
 10
175.7496005073664
 20
112.61939007381629
 10
176.23496641579925
 20
112.66095769471414
 10
176.71093819199092
 20
112.72979212083727
 10
177.17293196754406
 20
112.82523043903339
 10
177.6164984898486
 20
112.94635352612639
 10
178.0373659708166
 20
113.09199490057495
 10
178.43148122653682
 20
113.26075195632743
 10
178.79504871165133
 20
113.45099947068496
 10
179.12456707253227
 20
113.66090525608442
 10
179.41686286723132
 20
113.88844780506624
 10
179.66912112746036
 20
114.13143575849628
 10
179.87891246827502
 20
114.38752900955231
 10
180.04421648437963
 20
114.65426124023185
 10
180.16344120773473
 20
114.92906367334277
 10
180.2354384390796
 20
115.20928981123194
 10
180.2595148057186
 20
115.49224092300429
  0
LWPOLYLINE
  5
68
330
17
100
AcDbEntity
  8
VISIBLE
100
AcDbPolyline
 90
33
 70
0
 10
178.79504871165133
 20
125.69844818460086
 10
178.5253790204875
 20
125.84308038909796
 10
178.23801132818076
 20
125.97586715485897
 10
177.9345029051541
 20
126.0960888988952
 10
177.6164984898486
 20
126.20309412915944
 10
177.28572137574355
 20
126.29630297503762
 10
176.9439640726797
 20
126.3752103297181
 10
176.59307859309308
 20
126.43938858740913
 10
176.23496641579925
 20
126.48848996057168
 10
175.87156818171468
 20
126.52224836461033
 10
175.5048531773557
 20
126.5404808598087
 10
175.13680866310403
 20
126.54308864269557
 10
174.76942910407078
 20
126.53005758146952
 10
174.40470536191708
 20
126.50145829258042
 10
174.04461390620227
 20
126.45744575805264
 10
173.69110610372414
 20
126.39825848562417
 10
173.34609764389316
 20
126.32421721625244
 10
173.01145815744556
 20
126.23572318599128
 10
172.68900108475248
 20
126.13325595165804
 10
172.38047384862938
 20
126.01737079207362
 10
172.08754838490037
 20
125.8886956989584
 10
171.81181208203327
 20
125.7479279737907
 10
171.5547591789438
 20
125.5958304490697
 10
171.31778266758556
 20
125.43322735445997
 10
171.10216674420587
 20
125.2609998502196
 10
170.90907985017503
 20
125.08008125211627
 10
170.73956834010139
 20
124.89145197370839
 10
170.5945508115449
 20
124.69613421339898
 10
170.47481312705756
 20
124.49518641505398
 10
170.38100415552594
 20
124.28969753220329
 10
170.3136322558947
 20
124.08078112690717
 10
170.27306252232515
 20
123.86956933526697
 10
170.2595148057186
 20
123.65720673228154
  0
LWPOLYLINE
  5
69
330
17
100
AcDbEntity
  8
VISIBLE
100
AcDbPolyline
 90
33
 70
0
 10
170.2595148057186
 20
123.65720673228154
 10
170.2835911723576
 20
123.3742556205092
 10
170.35558840370246
 20
123.09402948262003
 10
170.47481312705756
 20
122.81922704950911
 10
170.64011714316217
 20
122.55249481882957
 10
170.84990848397683
 20
122.29640156777354
 10
171.10216674420587
 20
122.0534136143435
 10
171.39446253890492
 20
121.8258710653617
 10
171.72398089978586
 20
121.61596527996223
 10
172.08754838490037
 20
121.42571776560469
 10
172.48166364062058
 20
121.2569607098522
 10
172.9025311215886
 20
121.11131933540366
 10
173.34609764389313
 20
120.99019624831067
 10
173.80809141944627
 20
120.89475793011454
 10
174.28406319563794
 20
120.8259235039914
 10
174.76942910407078
 20
120.78435588309355
 10
175.2595148057186
 20
120.77045538633342
 10
175.7496005073664
 20
120.78435588309355
 10
176.23496641579925
 20
120.8259235039914
 10
176.71093819199092
 20
120.89475793011454
 10
177.17293196754406
 20
120.99019624831067
 10
177.6164984898486
 20
121.11131933540365
 10
178.0373659708166
 20
121.2569607098522
 10
178.43148122653682
 20
121.42571776560469
 10
178.79504871165133
 20
121.61596527996223
 10
179.12456707253227
 20
121.8258710653617
 10
179.41686286723132
 20
122.0534136143435
 10
179.66912112746036
 20
122.29640156777354
 10
179.87891246827502
 20
122.55249481882957
 10
180.04421648437963
 20
122.81922704950911
 10
180.16344120773473
 20
123.09402948262003
 10
180.2354384390796
 20
123.3742556205092
 10
180.2595148057186
 20
123.65720673228154
  0
LWPOLYLINE
  5
6A
330
17
100
AcDbEntity
  8
HIDDEN
100
AcDbPolyline
 90
33
 70
0
 10
180.2595148057186
 20
115.49224092300429
 10
180.2580088991996
 20
115.56308534747401
 10
180.25349208674447
 20
115.6338870979115
 10
180.24596708911204
 20
115.70460352598971
 10
180.2354384390796
 20
115.77519203477662
 10
180.22191247871214
 20
115.84561010439404
 10
180.2053973555425
 20
115.9158153176299
 10
180.1859030176633
 20
115.98576538548892
 10
180.16344120773473
 20
116.0554181726658
 10
180.13802545591125
 20
116.12473172292603
 10
180.1096710716913
 20
116.19366428437874
 10
180.0783951346958
 20
116.26217433462648
 10
180.04421648437963
 20
116.33022060577672
 10
180.00715570868377
 20
116.39776210930013
 10
179.9672351316337
 20
116.46475816072054
 10
179.92447879989228
 20
116.53116840412171
 10
179.87891246827502
 20
116.59695283645625
 10
179.83056358423624
 20
116.66207183164198
 10
179.7794612713358
 20
116.72648616443112
 10
179.72563631169618
 20
116.79015703403824
 10
179.66912112746036
 20
116.85304608751228
 10
179.60994976126216
 20
116.91511544283901
 10
179.54815785571995
 20
116.9763277117597
 10
179.48378263196713
 20
117.0366460222924
 10
179.41686286723132
 20
117.09603404094233
 10
179.34743887147653
 20
117.1544559945877
 10
179.2755524631218
 20
117.21187669202817
 10
179.20124694385163
 20
117.26826154518271
 10
179.12456707253227
 20
117.32357658992414
 10
179.045559038251
 20
117.37778850653787
 10
178.96427043249338
 20
117.43086463979243
 10
178.88075022047593
 20
117.48277301860982
 10
178.79504871165133
 20
117.5334823753236
  0
LWPOLYLINE
  5
6B
330
17
100
AcDbEntity
  8
VISIBLE
100
AcDbPolyline
 90
33
 70
0
 10
180.2595148057186
 20
123.65720673228154
 10
180.2580088991996
 20
123.72805115675128
 10
180.25349208674447
 20
123.79885290718876
 10
180.24596708911204
 20
123.86956933526697
 10
180.2354384390796
 20
123.94015784405389
 10
180.22191247871214
 20
124.0105759136713
 10
180.2053973555425
 20
124.08078112690717
 10
180.1859030176633
 20
124.15073119476618
 10
180.16344120773473
 20
124.22038398194306
 10
180.13802545591125
 20
124.28969753220329
 10
180.1096710716913
 20
124.35863009365602
 10
180.0783951346958
 20
124.42714014390374
 10
180.04421648437963
 20
124.49518641505398
 10
180.00715570868377
 20
124.5627279185774
 10
179.9672351316337
 20
124.6297239699978
 10
179.92447879989228
 20
124.69613421339898
 10
179.87891246827502
 20
124.76191864573352
 10
179.83056358423624
 20
124.82703764091923
 10
179.7794612713358
 20
124.89145197370839
 10
179.72563631169618
 20
124.95512284331551
 10
179.66912112746036
 20
125.01801189678955
 10
179.60994976126216
 20
125.08008125211627
 10
179.54815785571995
 20
125.14129352103696
 10
179.48378263196713
 20
125.20161183156966
 10
179.41686286723132
 20
125.2609998502196
 10
179.34743887147653
 20
125.31942180386497
 10
179.2755524631218
 20
125.37684250130545
 10
179.20124694385163
 20
125.43322735445997
 10
179.12456707253227
 20
125.4885423992014
 10
179.045559038251
 20
125.54275431581513
 10
178.96427043249338
 20
125.5958304490697
 10
178.88075022047593
 20
125.64773882788708
 10
178.79504871165133
 20
125.69844818460086
  0
TEXT
  5
6C
330
17
100
AcDbEntity
  8
TITLE
100
AcDbText
 10
175.2595148057186
 20
94.22417148292874
 30
0.0
 40
3.4
  1
ISOMETRIC
  7
LOFT_MONO
 72
1
 11
175.2595148057186
 21
94.22417148292874
 31
0.0
100
AcDbText
 73
2
  0
LWPOLYLINE
  5
6D
330
17
100
AcDbEntity
  8
TITLE
100
AcDbPolyline
 90
4
 70
1
 10
191.0
 20
44.0
 10
287.0
 20
44.0
 10
287.0
 20
10.0
 10
191.0
 20
10.0
  0
LINE
  5
6E
330
17
100
AcDbEntity
  8
TITLE
100
AcDbLine
 10
248.6
 20
44.0
 30
0.0
 11
248.6
 21
10.0
 31
0.0
  0
LINE
  5
6F
330
17
100
AcDbEntity
  8
TITLE
100
AcDbLine
 10
248.6
 20
27.0
 30
0.0
 11
287.0
 21
27.0
 31
0.0
  0
TEXT
  5
70
330
17
100
AcDbEntity
  8
TITLE
100
AcDbText
 10
195.0
 20
36.0
 30
0.0
 40
2.3
  1
TITLE
  7
LOFT_MONO
 11
195.0
 21
36.0
 31
0.0
100
AcDbText
  0
TEXT
  5
71
330
17
100
AcDbEntity
  8
TITLE
100
AcDbText
 10
195.0
 20
26.0
 30
0.0
 40
3.4
  1
Plate — dimensions
  7
LOFT_MONO
 11
195.0
 21
26.0
 31
0.0
100
AcDbText
  0
TEXT
  5
72
330
17
100
AcDbEntity
  8
TITLE
100
AcDbText
 10
195.0
 20
14.0
 30
0.0
 40
2.3
  1
LOFT · PART DRAWING
  7
LOFT_MONO
 11
195.0
 21
14.0
 31
0.0
100
AcDbText
  0
TEXT
  5
73
330
17
100
AcDbEntity
  8
TITLE
100
AcDbText
 10
252.6
 20
36.0
 30
0.0
 40
2.3
  1
SCALE
  7
LOFT_MONO
 11
252.6
 21
36.0
 31
0.0
100
AcDbText
  0
TEXT
  5
74
330
17
100
AcDbEntity
  8
TITLE
100
AcDbText
 10
252.6
 20
30.0
 30
0.0
 40
3.4
  1
1:1
  7
LOFT_MONO
 11
252.6
 21
30.0
 31
0.0
100
AcDbText
  0
TEXT
  5
75
330
17
100
AcDbEntity
  8
TITLE
100
AcDbText
 10
252.6
 20
19.0
 30
0.0
 40
2.3
  1
SIZE
  7
LOFT_MONO
 11
252.6
 21
19.0
 31
0.0
100
AcDbText
  0
TEXT
  5
76
330
17
100
AcDbEntity
  8
TITLE
100
AcDbText
 10
252.6
 20
14.0
 30
0.0
 40
3.4
  1
A4
  7
LOFT_MONO
 11
252.6
 21
14.0
 31
0.0
100
AcDbText
  0
ENDSEC
  0
SECTION
  2
OBJECTS
  0
DICTIONARY
  5
A
330
0
100
AcDbDictionary
281
1
  3
ACAD_COLOR
350
B
  3
ACAD_GROUP
350
C
  3
ACAD_LAYOUT
350
D
  3
ACAD_MATERIAL
350
E
  3
ACAD_MLEADERSTYLE
350
F
  3
ACAD_MLINESTYLE
350
10
  3
ACAD_PLOTSETTINGS
350
11
  3
ACAD_PLOTSTYLENAME
350
12
  3
ACAD_SCALELIST
350
14
  3
ACAD_TABLESTYLE
350
15
  3
ACAD_VISUALSTYLE
350
16
  3
EZDXF_META
350
2D
  0
DICTIONARY
  5
B
330
A
100
AcDbDictionary
281
1
  0
DICTIONARY
  5
C
330
A
100
AcDbDictionary
281
1
  0
DICTIONARY
  5
D
330
A
100
AcDbDictionary
281
1
  3
Model
350
1A
  3
Layout1
350
1E
  0
DICTIONARY
  5
E
330
A
100
AcDbDictionary
281
1
  3
ByBlock
350
1F
  3
ByLayer
350
20
  3
Global
350
21
  0
DICTIONARY
  5
F
330
A
100
AcDbDictionary
281
1
  3
Standard
350
2C
  0
DICTIONARY
  5
10
330
A
100
AcDbDictionary
281
1
  3
Standard
350
22
  0
DICTIONARY
  5
11
330
A
100
AcDbDictionary
281
1
  0
ACDBDICTIONARYWDFLT
  5
12
330
A
100
AcDbDictionary
281
1
  3
Normal
350
13
100
AcDbDictionaryWithDefault
340
13
  0
ACDBPLACEHOLDER
  5
13
330
12
  0
DICTIONARY
  5
14
330
A
100
AcDbDictionary
281
1
  0
DICTIONARY
  5
15
330
A
100
AcDbDictionary
281
1
  0
DICTIONARY
  5
16
330
A
100
AcDbDictionary
281
1
  0
LAYOUT
  5
1A
330
D
100
AcDbPlotSettings
  1

  4
A3
  6

 40
7.5
 41
20.0
 42
7.5
 43
20.0
 44
420.0
 45
297.0
 46
0.0
 47
0.0
 48
0.0
 49
0.0
140
0.0
141
0.0
142
1.0
143
1.0
 70
1024
 72
1
 73
0
 74
5
  7

 75
16
 76
0
 77
2
 78
300
147
1.0
148
0.0
149
0.0
100
AcDbLayout
  1
Model
 70
1
 71
0
 10
0.0
 20
0.0
 11
420.0
 21
297.0
 12
0.0
 22
0.0
 32
0.0
 14
1e+20
 24
1e+20
 34
1e+20
 15
-1e+20
 25
-1e+20
 35
-1e+20
146
0.0
 13
0.0
 23
0.0
 33
0.0
 16
1.0
 26
0.0
 36
0.0
 17
0.0
 27
1.0
 37
0.0
 76
1
330
17
  0
LAYOUT
  5
1E
330
D
100
AcDbPlotSettings
  1

  4
A3
  6

 40
7.5
 41
20.0
 42
7.5
 43
20.0
 44
420.0
 45
297.0
 46
0.0
 47
0.0
 48
0.0
 49
0.0
140
0.0
141
0.0
142
1.0
143
1.0
 70
0
 72
1
 73
0
 74
5
  7

 75
16
 76
0
 77
2
 78
300
147
1.0
148
0.0
149
0.0
100
AcDbLayout
  1
Layout1
 70
1
 71
1
 10
0.0
 20
0.0
 11
420.0
 21
297.0
 12
0.0
 22
0.0
 32
0.0
 14
1e+20
 24
1e+20
 34
1e+20
 15
-1e+20
 25
-1e+20
 35
-1e+20
146
0.0
 13
0.0
 23
0.0
 33
0.0
 16
1.0
 26
0.0
 36
0.0
 17
0.0
 27
1.0
 37
0.0
 76
1
330
1B
  0
MATERIAL
  5
1F
102
{ACAD_REACTORS
330
E
102
}
330
E
100
AcDbMaterial
  1
ByBlock
  2

 70
0
 40
1.0
 71
1
 41
1.0
 91
-1023410177
 42
1.0
 72
1
  3

 73
1
 74
1
 75
1
 44
0.5
 73
0
 45
1.0
 46
1.0
 77
1
  4

 78
1
 79
1
170
1
 48
1.0
171
1
  6

172
1
173
1
174
1
140
1.0
141
1.0
175
1
  7

176
1
177
1
178
1
143
1.0
179
1
  8

270
1
271
1
272
1
145
1.0
146
1.0
273
1
  9

274
1
275
1
276
1
 42
1.0
 72
1
  3

 73
1
 74
1
 75
1
 94
63
  0
MATERIAL
  5
20
102
{ACAD_REACTORS
330
E
102
}
330
E
100
AcDbMaterial
  1
ByLayer
  2

 70
0
 40
1.0
 71
1
 41
1.0
 91
-1023410177
 42
1.0
 72
1
  3

 73
1
 74
1
 75
1
 44
0.5
 73
0
 45
1.0
 46
1.0
 77
1
  4

 78
1
 79
1
170
1
 48
1.0
171
1
  6

172
1
173
1
174
1
140
1.0
141
1.0
175
1
  7

176
1
177
1
178
1
143
1.0
179
1
  8

270
1
271
1
272
1
145
1.0
146
1.0
273
1
  9

274
1
275
1
276
1
 42
1.0
 72
1
  3

 73
1
 74
1
 75
1
 94
63
  0
MATERIAL
  5
21
102
{ACAD_REACTORS
330
E
102
}
330
E
100
AcDbMaterial
  1
Global
  2

 70
0
 40
1.0
 71
1
 41
1.0
 91
-1023410177
 42
1.0
 72
1
  3

 73
1
 74
1
 75
1
 44
0.5
 73
0
 45
1.0
 46
1.0
 77
1
  4

 78
1
 79
1
170
1
 48
1.0
171
1
  6

172
1
173
1
174
1
140
1.0
141
1.0
175
1
  7

176
1
177
1
178
1
143
1.0
179
1
  8

270
1
271
1
272
1
145
1.0
146
1.0
273
1
  9

274
1
275
1
276
1
 42
1.0
 72
1
  3

 73
1
 74
1
 75
1
 94
63
  0
MLINESTYLE
  5
22
102
{ACAD_REACTORS
330
10
102
}
330
10
100
AcDbMlineStyle
  2
Standard
 70
0
  3

 62
256
 51
90.0
 52
90.0
 71
2
 49
0.5
 62
256
  6
BYLAYER
 49
-0.5
 62
256
  6
BYLAYER
  0
MLEADERSTYLE
  5
2C
102
{ACAD_REACTORS
330
F
102
}
330
F
100
AcDbMLeaderStyle
179
2
170
2
171
1
172
0
 90
2
 40
0.0
 41
0.0
173
1
 91
-1056964608
 92
-2
290
1
 42
2.0
291
1
 43
8.0
  3
Standard
 44
4.0
300

342
29
174
1
175
1
176
0
178
1
 93
-1056964608
 45
4.0
292
0
297
0
 46
4.0
 94
-1056964608
 47
1.0
 49
1.0
140
1.0
294
1
141
0.0
177
0
142
1.0
295
0
296
0
143
3.75
271
0
272
9
273
9
  0
DICTIONARY
  5
2D
330
A
100
AcDbDictionary
280
1
281
1
  3
CREATED_BY_EZDXF
350
2E
  3
WRITTEN_BY_EZDXF
350
79
  0
DICTIONARYVAR
  5
2E
330
2D
100
DictionaryVariables
280
0
  1
0.0 @ 2000-01-01T00:00:00.000000+00:00
  0
DICTIONARYVAR
  5
79
330
2D
100
DictionaryVariables
280
0
  1
0.0 @ 2000-01-01T00:00:00.000000+00:00
  0
ENDSEC
  0
EOF
