  0
SECTION
  2
HEADER
  9
$ACADVER
  1
AC1015
  9
$ACADMAINTVER
 70
6
  9
$DWGCODEPAGE
  3
ANSI_1252
  9
$INSBASE
 10
0.0
 20
0.0
 30
0.0
  9
$EXTMIN
 10
1e+20
 20
1e+20
 30
1e+20
  9
$EXTMAX
 10
-1e+20
 20
-1e+20
 30
-1e+20
  9
$LIMMIN
 10
0.0
 20
0.0
  9
$LIMMAX
 10
420.0
 20
297.0
  9
$ORTHOMODE
 70
0
  9
$REGENMODE
 70
1
  9
$FILLMODE
 70
1
  9
$QTEXTMODE
 70
0
  9
$MIRRTEXT
 70
1
  9
$LTSCALE
 40
1.0
  9
$ATTMODE
 70
1
  9
$TEXTSIZE
 40
2.5
  9
$TRACEWID
 40
1.0
  9
$TEXTSTYLE
  7
Standard
  9
$CLAYER
  8
0
  9
$CELTYPE
  6
ByLayer
  9
$CECOLOR
 62
256
  9
$CELTSCALE
 40
1.0
  9
$DISPSILH
 70
0
  9
$DIMSCALE
 40
1.0
  9
$DIMASZ
 40
2.5
  9
$DIMEXO
 40
0.625
  9
$DIMDLI
 40
3.75
  9
$DIMRND
 40
0.0
  9
$DIMDLE
 40
0.0
  9
$DIMEXE
 40
1.25
  9
$DIMTP
 40
0.0
  9
$DIMTM
 40
0.0
  9
$DIMTXT
 40
2.5
  9
$DIMCEN
 40
2.5
  9
$DIMTSZ
 40
0.0
  9
$DIMTOL
 70
0
  9
$DIMLIM
 70
0
  9
$DIMTIH
 70
0
  9
$DIMTOH
 70
0
  9
$DIMSE1
 70
0
  9
$DIMSE2
 70
0
  9
$DIMTAD
 70
1
  9
$DIMZIN
 70
8
  9
$DIMBLK
  1

  9
$DIMASO
 70
1
  9
$DIMSHO
 70
1
  9
$DIMPOST
  1

  9
$DIMAPOST
  1

  9
$DIMALT
 70
0
  9
$DIMALTD
 70
3
  9
$DIMALTF
 40
0.03937007874
  9
$DIMLFAC
 40
1.0
  9
$DIMTOFL
 70
1
  9
$DIMTVP
 40
0.0
  9
$DIMTIX
 70
0
  9
$DIMSOXD
 70
0
  9
$DIMSAH
 70
0
  9
$DIMBLK1
  1

  9
$DIMBLK2
  1

  9
$DIMSTYLE
  2
ISO-25
  9
$DIMCLRD
 70
0
  9
$DIMCLRE
 70
0
  9
$DIMCLRT
 70
0
  9
$DIMTFAC
 40
1.0
  9
$DIMGAP
 40
0.625
  9
$DIMJUST
 70
0
  9
$DIMSD1
 70
0
  9
$DIMSD2
 70
0
  9
$DIMTOLJ
 70
0
  9
$DIMTZIN
 70
8
  9
$DIMALTZ
 70
0
  9
$DIMALTTZ
 70
0
  9
$DIMUPT
 70
0
  9
$DIMDEC
 70
2
  9
$DIMTDEC
 70
2
  9
$DIMALTU
 70
2
  9
$DIMALTTD
 70
3
  9
$DIMTXSTY
  7
Standard
  9
$DIMAUNIT
 70
0
  9
$DIMADEC
 70
0
  9
$DIMALTRND
 40
0.0
  9
$DIMAZIN
 70
0
  9
$DIMDSEP
 70
44
  9
$DIMATFIT
 70
3
  9
$DIMFRAC
 70
0
  9
$DIMLDRBLK
  1

  9
$DIMLUNIT
 70
2
  9
$DIMLWD
 70
-2
  9
$DIMLWE
 70
-2
  9
$DIMTMOVE
 70
0
  9
$LUNITS
 70
2
  9
$LUPREC
 70
4
  9
$SKETCHINC
 40
1.0
  9
$FILLETRAD
 40
10.0
  9
$AUNITS
 70
0
  9
$AUPREC
 70
2
  9
$MENU
  1
.
  9
$ELEVATION
 40
0.0
  9
$PELEVATION
 40
0.0
  9
$THICKNESS
 40
0.0
  9
$LIMCHECK
 70
0
  9
$CHAMFERA
 40
0.0
  9
$CHAMFERB
 40
0.0
  9
$CHAMFERC
 40
0.0
  9
$CHAMFERD
 40
0.0
  9
$SKPOLY
 70
0
  9
$TDCREATE
 40
2451545.0
  9
$TDUCREATE
 40
2451545.0
  9
$TDUPDATE
 40
2451545.0
  9
$TDUUPDATE
 40
2451545.0
  9
$TDINDWG
 40
0.0
  9
$TDUSRTIMER
 40
0.0
  9
$USRTIMER
 70
1
  9
$ANGBASE
 50
0.0
  9
$ANGDIR
 70
0
  9
$PDMODE
 70
0
  9
$PDSIZE
 40
0.0
  9
$PLINEWID
 40
0.0
  9
$SPLFRAME
 70
0
  9
$SPLINETYPE
 70
6
  9
$SPLINESEGS
 70
8
  9
$HANDSEED
  5
7A
  9
$SURFTAB1
 70
6
  9
$SURFTAB2
 70
6
  9
$SURFTYPE
 70
6
  9
$SURFU
 70
6
  9
$SURFV
 70
6
  9
$UCSBASE
  2

  9
$UCSNAME
  2

  9
$UCSORG
 10
0.0
 20
0.0
 30
0.0
  9
$UCSXDIR
 10
1.0
 20
0.0
 30
0.0
  9
$UCSYDIR
 10
0.0
 20
1.0
 30
0.0
  9
$UCSORTHOREF
  2

  9
$UCSORTHOVIEW
 70
0
  9
$UCSORGTOP
 10
0.0
 20
0.0
 30
0.0
  9
$UCSORGBOTTOM
 10
0.0
 20
0.0
 30
0.0
  9
$UCSORGLEFT
 10
0.0
 20
0.0
 30
0.0
  9
$UCSORGRIGHT
 10
0.0
 20
0.0
 30
0.0
  9
$UCSORGFRONT
 10
0.0
 20
0.0
 30
0.0
  9
$UCSORGBACK
 10
0.0
 20
0.0
 30
0.0
  9
$PUCSBASE
  2

  9
$PUCSNAME
  2

  9
$PUCSORG
 10
0.0
 20
0.0
 30
0.0
  9
$PUCSXDIR
 10
1.0
 20
0.0
 30
0.0
  9
$PUCSYDIR
 10
0.0
 20
1.0
 30
0.0
  9
$PUCSORTHOREF
  2

  9
$PUCSORTHOVIEW
 70
0
  9
$PUCSORGTOP
 10
0.0
 20
0.0
 30
0.0
  9
$PUCSORGBOTTOM
 10
0.0
 20
0.0
 30
0.0
  9
$PUCSORGLEFT
 10
0.0
 20
0.0
 30
0.0
  9
$PUCSORGRIGHT
 10
0.0
 20
0.0
 30
0.0
  9
$PUCSORGFRONT
 10
0.0
 20
0.0
 30
0.0
  9
$PUCSORGBACK
 10
0.0
 20
0.0
 30
0.0
  9
$USERI1
 70
0
  9
$USERI2
 70
0
  9
$USERI3
 70
0
  9
$USERI4
 70
0
  9
$USERI5
 70
0
  9
$USERR1
 40
0.0
  9
$USERR2
 40
0.0
  9
$USERR3
 40
0.0
  9
$USERR4
 40
0.0
  9
$USERR5
 40
0.0
  9
$WORLDVIEW
 70
1
  9
$SHADEDGE
 70
3
  9
$SHADEDIF
 70
70
  9
$TILEMODE
 70
1
  9
$MAXACTVP
 70
64
  9
$PINSBASE
 10
0.0
 20
0.0
 30
0.0
  9
$PLIMCHECK
 70
0
  9
$PEXTMIN
 10
1e+20
 20
1e+20
 30
1e+20
  9
$PEXTMAX
 10
-1e+20
 20
-1e+20
 30
-1e+20
  9
$PLIMMIN
 10
0.0
 20
0.0
  9
$PLIMMAX
 10
420.0
 20
297.0
  9
$UNITMODE
 70
0
  9
$VISRETAIN
 70
1
  9
$PLINEGEN
 70
0
  9
$PSLTSCALE
 70
1
  9
$TREEDEPTH
 70
3020
  9
$CMLSTYLE
  2
Standard
  9
$CMLJUST
 70
0
  9
$CMLSCALE
 40
20.0
  9
$PROXYGRAPHICS
 70
1
  9
$MEASUREMENT
 70
1
  9
$CELWEIGHT
370
-1
  9
$ENDCAPS
280
0
  9
$JOINSTYLE
280
0
  9
$LWDISPLAY
290
0
  9
$INSUNITS
 70
6
  9
$HYPERLINKBASE
  1

  9
$STYLESHEET
  1

  9
$XEDIT
290
1
  9
$CEPSNTYPE
380
0
  9
$PSTYLEMODE
290
1
  9
$FINGERPRINTGUID
  2
{00000000-0000-0000-0000-000000000000}
  9
$VERSIONGUID
  2
{00000000-0000-0000-0000-000000000000}
  9
$EXTNAMES
290
1
  9
$PSVPSCALE
 40
0.0
  9
$OLESTARTUP
290
0
  0
ENDSEC
  0
SECTION
  2
CLASSES
  0
CLASS
  1
ACDBDICTIONARYWDFLT
  2
AcDbDictionaryWithDefault
  3
ObjectDBX Classes
 90
0
280
0
281
0
  0
CLASS
  1
SUN
  2
AcDbSun
  3
SCENEOE
 90
1153
280
0
281
0
  0
CLASS
  1
VISUALSTYLE
  2
AcDbVisualStyle
  3
ObjectDBX Classes
 90
4095
280
0
281
0
  0
CLASS
  1
MATERIAL
  2
AcDbMaterial
  3
ObjectDBX Classes
 90
1153
280
0
281
0
  0
CLASS
  1
SCALE
  2
AcDbScale
  3
ObjectDBX Classes
 90
1153
280
0
281
0
  0
CLASS
  1
TABLESTYLE
  2
AcDbTableStyle
  3
ObjectDBX Classes
 90
4095
280
0
281
0
  0
CLASS
  1
MLEADERSTYLE
  2
AcDbMLeaderStyle
  3
ACDB_MLEADERSTYLE_CLASS
 90
4095
280
0
281
0
  0
CLASS
  1
DICTIONARYVAR
  2
AcDbDictionaryVar
  3
ObjectDBX Classes
 90
0
280
0
281
0
  0
CLASS
  1
CELLSTYLEMAP
  2
AcDbCellStyleMap
  3
ObjectDBX Classes
 90
1152
280
0
281
0
  0
CLASS
  1
MENTALRAYRENDERSETTINGS
  2
AcDbMentalRayRenderSettings
  3
SCENEOE
 90
1024
280
0
281
0
  0
CLASS
  1
ACDBDETAILVIEWSTYLE
  2
AcDbDetailViewStyle
  3
ObjectDBX Classes
 90
1025
280
0
281
0
  0
CLASS
  1
ACDBSECTIONVIEWSTYLE
  2
AcDbSectionViewStyle
  3
ObjectDBX Classes
 90
1025
280
0
281
0
  0
CLASS
  1
RASTERVARIABLES
  2
AcDbRasterVariables
  3
ISM
 90
0
280
0
281
0
  0
CLASS
  1
ACDBPLACEHOLDER
  2
AcDbPlaceHolder
  3
ObjectDBX Classes
 90
0
280
0
281
0
  0
CLASS
  1
LAYOUT
  2
AcDbLayout
  3
ObjectDBX Classes
 90
0
280
0
281
0
  0
ENDSEC
  0
SECTION
  2
TABLES
  0
TABLE
  2
VPORT
  5
8
330
0
100
AcDbSymbolTable
 70
1
  0
VPORT
  5
23
330
8
100
AcDbSymbolTableRecord
100
AcDbViewportTableRecord
  2
*Active
 70
0
 10
0.0
 20
0.0
 11
1.0
 21
1.0
 12
0.0
 22
0.0
 13
0.0
 23
0.0
 14
0.5
 24
0.5
 15
0.5
 25
0.5
 16
0.0
 26
0.0
 36
1.0
 17
0.0
 27
0.0
 37
0.0
 40
1000.0
 41
1.34
 42
50.0
 43
0.0
 44
0.0
 50
0.0
 51
0.0
 71
0
 72
1000
 73
1
 74
3
 75
0
 76
0
 77
0
 78
0
281
0
 65
0
146
0.0
  0
ENDTAB
  0
TABLE
  2
LTYPE
  5
2
330
0
100
AcDbSymbolTable
 70
4
  0
LTYPE
  5
24
330
2
100
AcDbSymbolTableRecord
100
AcDbLinetypeTableRecord
  2
ByBlock
 70
0
  3

 72
65
 73
0
 40
0.0
  0
LTYPE
  5
25
330
2
100
AcDbSymbolTableRecord
100
AcDbLinetypeTableRecord
  2
ByLayer
 70
0
  3

 72
65
 73
0
 40
0.0
  0
LTYPE
  5
26
330
2
100
AcDbSymbolTableRecord
100
AcDbLinetypeTableRecord
  2
Continuous
 70
0
  3

 72
65
 73
0
 40
0.0
  0
LTYPE
  5
2F
330
2
100
AcDbSymbolTableRecord
100
AcDbLinetypeTableRecord
  2
DASHED
 70
0
  3
Loft hidden edge — 2/1.4
 72
65
 73
2
 40
0.0
 49
2.0
 74
0
 49
-1.4
 74
0
  0
ENDTAB
  0
TABLE
  2
LAYER
  5
1
330
0
100
AcDbSymbolTable
 70
6
  0
LAYER
  5
27
330
1
100
AcDbSymbolTableRecord
100
AcDbLayerTableRecord
  2
0
 70
0
 62
7
  6
Continuous
370
-3
390
13
  0
LAYER
  5
28
330
1
100
AcDbSymbolTableRecord
100
AcDbLayerTableRecord
  2
Defpoints
 70
0
 62
7
  6
Continuous
290
0
370
-3
390
13
  0
LAYER
  5
30
330
1
100
AcDbSymbolTableRecord
100
AcDbLayerTableRecord
  2
VISIBLE
 70
0
 62
7
  6
Continuous
370
-3
390
13
  0
LAYER
  5
31
330
1
100
AcDbSymbolTableRecord
100
AcDbLayerTableRecord
  2
HIDDEN
 70
0
 62
8
  6
DASHED
370
-3
390
13
  0
LAYER
  5
32
330
1
100
AcDbSymbolTableRecord
100
AcDbLayerTableRecord
  2
DIMENSION
 70
0
 62
1
  6
Continuous
370
-3
390
13
  0
LAYER
  5
33
330
1
100
AcDbSymbolTableRecord
100
AcDbLayerTableRecord
  2
TITLE
 70
0
 62
5
  6
Continuous
370
-3
390
13
  0
ENDTAB
  0
TABLE
  2
STYLE
  5
5
330
0
100
AcDbSymbolTable
 70
2
  0
STYLE
  5
29
330
5
100
AcDbSymbolTableRecord
100
AcDbTextStyleTableRecord
  2
Standard
 70
0
 40
0.0
 41
1.0
 50
0.0
 71
0
 42
2.5
  3
txt
  4

  0
STYLE
  5
34
330
5
100
AcDbSymbolTableRecord
100
AcDbTextStyleTableRecord
  2
LOFT_MONO
 70
0
 40
0.0
 41
1.0
 50
0.0
 71
0
 42
2.5
  3
cour.ttf
  4

  0
ENDTAB
  0
TABLE
  2
VIEW
  5
7
330
0
100
AcDbSymbolTable
 70
0
  0
ENDTAB
  0
TABLE
  2
UCS
  5
6
330
0
100
AcDbSymbolTable
 70
0
  0
ENDTAB
  0
TABLE
  2
APPID
  5
3
330
0
100
AcDbSymbolTable
 70
3
  0
APPID
  5
2A
330
3
100
AcDbSymbolTableRecord
100
AcDbRegAppTableRecord
  2
ACAD
 70
0
  0
APPID
  5
77
330
3
100
AcDbSymbolTableRecord
100
AcDbRegAppTableRecord
  2
HATCHBACKGROUNDCOLOR
 70
0
  0
APPID
  5
78
330
3
100
AcDbSymbolTableRecord
100
AcDbRegAppTableRecord
  2
EZDXF
 70
0
  0
ENDTAB
  0
TABLE
  2
DIMSTYLE
  5
4
330
0
100
AcDbSymbolTable
 70
1
100
AcDbDimStyleTable
  0
DIMSTYLE
105
2B
330
4
100
AcDbSymbolTableRecord
100
AcDbDimStyleTableRecord
  2
Standard
 70
0
  3

  4

 40
1.0
 41
2.5
 42
0.625
 43
3.75
 44
1.25
 45
0.0
 46
0.0
 47
0.0
 48
0.0
140
2.5
141
2.5
142
0.0
143
0.03937007874
144
1.0
145
0.0
146
1.0
147
0.625
148
0.0
 71
0
 72
0
 73
0
 74
0
 75
0
 76
0
 77
1
 78
8
 79
3
170
0
171
3
172
1
173
0
174
0
175
0
176
0
177
0
178
0
179
2
271
2
272
2
273
2
274
3
275
0
276
0
277
2
278
44
279
0
280
0
281
0
282
0
283
0
284
8
285
0
286
0
288
0
289
3
371
-2
372
-2
  0
ENDTAB
  0
TABLE
  2
BLOCK_RECORD
  5
9
330
0
100
AcDbSymbolTable
 70
2
  0
BLOCK_RECORD
  5
17
330
9
100
AcDbSymbolTableRecord
100
AcDbBlockTableRecord
  2
*Model_Space
340
1A
  0
BLOCK_RECORD
  5
1B
330
9
100
AcDbSymbolTableRecord
100
AcDbBlockTableRecord
  2
*Paper_Space
340
1E
  0
ENDTAB
  0
ENDSEC
  0
SECTION
  2
BLOCKS
  0
BLOCK
  5
18
330
17
100
AcDbEntity
  8
0
100
AcDbBlockBegin
  2
*Model_Space
 70
0
 10
0.0
 20
0.0
 30
0.0
  3
*Model_Space
  1

  0
ENDBLK
  5
19
330
17
100
AcDbEntity
  8
0
100
AcDbBlockEnd
  0
BLOCK
  5
1C
330
1B
100
AcDbEntity
  8
0
100
AcDbBlockBegin
  2
*Paper_Space
 70
0
 10
0.0
 20
0.0
 30
0.0
  3
*Paper_Space
  1

  0
ENDBLK
  5
1D
330
1B
100
AcDbEntity
  8
0
100
AcDbBlockEnd
  0
ENDSEC
  0
SECTION
  2
ENTITIES
  0
LWPOLYLINE
  5
35
330
17
100
AcDbEntity
  8
TITLE
100
AcDbPolyline
 90
4
 70
1
 10
10.0
 20
200.0
 10
287.0
 20
200.0
 10
287.0
 20
10.0
 10
10.0
 20
10.0
  0
LINE
  5
36
330
17
100
AcDbEntity
  8
VISIBLE
100
AcDbLine
 10
93.5190296114372
 20
70.64944765528583
 30
0.0
 11
93.5190296114372
 21
80.64944765528583
 31
0.0
  0
LINE
  5
37
330
17
100
AcDbEntity
  8
VISIBLE
100
AcDbLine
 10
93.5190296114372
 20
70.64944765528583
 30
0.0
 11
133.5190296114372
 21
70.64944765528583
 31
0.0
  0
LINE
  5
38
330
17
100
AcDbEntity
  8
VISIBLE
100
AcDbLine
 10
93.5190296114372
 20
80.64944765528583
 30
0.0
 11
133.5190296114372
 21
80.64944765528583
 31
0.0
  0
LINE
  5
39
330
17
100
AcDbEntity
  8
HIDDEN
100
AcDbLine
 10
108.5190296114372
 20
70.64944765528583
 30
0.0
 11
108.5190296114372
 21
80.64944765528583
 31
0.0
  0
LINE
  5
3A
330
17
100
AcDbEntity
  8
HIDDEN
100
AcDbLine
 10
118.5190296114372
 20
70.64944765528583
 30
0.0
 11
118.5190296114372
 21
80.64944765528583
 31
0.0
  0
LINE
  5
3B
330
17
100
AcDbEntity
  8
VISIBLE
100
AcDbLine
 10
133.5190296114372
 20
70.64944765528583
 30
0.0
 11
133.5190296114372
 21
80.64944765528583
 31
0.0
  0
LWPOLYLINE
  5
3C
330
17
100
AcDbEntity
  8
HIDDEN
100
AcDbPolyline
 90
33
 70
0
 10
108.5190296114372
 20
70.64944765528583
 10
108.57387480353947
 20
70.64944765528583
 10
108.62871999564173
 20
70.64944765528583
 10
108.75995105721465
 20
70.64944765528583
 10
108.92173646657585
 20
70.64944765528583
 10
109.12587657076985
 20
70.64944765528583
 10
109.38648960140758
 20
70.64944765528583
 10
109.65935397428746
 20
70.64944765528583
 10
110.00572640062029
 20
70.64944765528583
 10
110.35209882695312
 20
70.64944765528583
 10
110.75709196978325
 20
70.64944765528583
 10
111.17185523202956
 20
70.64944765528583
 10
111.61381442230096
 20
70.64944765528583
 10
112.07617055859119
 20
70.64944765528583
 10
112.54550052537833
 20
70.64944765528583
 10
113.03226506840777
 20
70.64944765528583
 10
113.5190296114372
 20
70.64944765528583
 10
114.00579415446664
 20
70.64944765528583
 10
114.49255869749608
 20
70.64944765528583
 10
114.96188866428322
 20
70.64944765528583
 10
115.42424480057345
 20
70.64944765528583
 10
115.86620399084485
 20
70.64944765528583
 10
116.28096725309116
 20
70.64944765528583
 10
116.68596039592127
 20
70.64944765528583
 10
117.03233282225412
 20
70.64944765528583
 10
117.37870524858695
 20
70.64944765528583
 10
117.65156962146683
 20
70.64944765528583
 10
117.91218265210456
 20
70.64944765528583
 10
118.11632275629856
 20
70.64944765528583
 10
118.27810816565975
 20
70.64944765528583
 10
118.40933922723268
 20
70.64944765528583
 10
118.46418441933494
 20
70.64944765528583
 10
118.5190296114372
 20
70.64944765528583
  0
LWPOLYLINE
  5
3D
330
17
100
AcDbEntity
  8
HIDDEN
100
AcDbPolyline
 90
33
 70
0
 10
118.5190296114372
 20
70.64944765528583
 10
118.46418441933494
 20
70.64944765528583
 10
118.40933922723268
 20
70.64944765528583
 10
118.27810816565975
 20
70.64944765528583
 10
118.11632275629856
 20
70.64944765528583
 10
117.91218265210456
 20
70.64944765528583
 10
117.65156962146683
 20
70.64944765528583
 10
117.37870524858695
 20
70.64944765528583
 10
117.03233282225412
 20
70.64944765528583
 10
116.68596039592128
 20
70.64944765528583
 10
116.28096725309118
 20
70.64944765528583
 10
115.86620399084485
 20
70.64944765528583
 10
115.42424480057343
 20
70.64944765528583
 10
114.96188866428322
 20
70.64944765528583
 10
114.49255869749608
 20
70.64944765528583
 10
114.00579415446664
 20
70.64944765528583
 10
113.5190296114372
 20
70.64944765528583
 10
113.03226506840777
 20
70.64944765528583
 10
112.54550052537833
 20
70.64944765528583
 10
112.07617055859119
 20
70.64944765528583
 10
111.61381442230098
 20
70.64944765528583
 10
111.17185523202956
 20
70.64944765528583
 10
110.75709196978323
 20
70.64944765528583
 10
110.35209882695312
 20
70.64944765528583
 10
110.00572640062029
 20
70.64944765528583
 10
109.65935397428746
 20
70.64944765528583
 10
109.38648960140758
 20
70.64944765528583
 10
109.12587657076985
 20
70.64944765528583
 10
108.92173646657585
 20
70.64944765528583
 10
108.75995105721465
 20
70.64944765528583
 10
108.62871999564173
 20
70.64944765528583
 10
108.57387480353947
 20
70.64944765528583
 10
108.5190296114372
 20
70.64944765528583
  0
LWPOLYLINE
  5
3E
330
17
100
AcDbEntity
  8
HIDDEN
100
AcDbPolyline
 90
33
 70
0
 10
108.5190296114372
 20
80.64944765528583
 10
108.57387480353947
 20
80.64944765528583
 10
108.62871999564173
 20
80.64944765528583
 10
108.75995105721465
 20
80.64944765528583
 10
108.92173646657585
 20
80.64944765528583
 10
109.12587657076985
 20
80.64944765528583
 10
109.38648960140758
 20
80.64944765528583
 10
109.65935397428746
 20
80.64944765528583
 10
110.00572640062029
 20
80.64944765528583
 10
110.35209882695312
 20
80.64944765528583
 10
110.75709196978325
 20
80.64944765528583
 10
111.17185523202956
 20
80.64944765528583
 10
111.61381442230096
 20
80.64944765528583
 10
112.07617055859119
 20
80.64944765528583
 10
112.54550052537833
 20
80.64944765528583
 10
113.03226506840777
 20
80.64944765528583
 10
113.5190296114372
 20
80.64944765528583
 10
114.00579415446664
 20
80.64944765528583
 10
114.49255869749608
 20
80.64944765528583
 10
114.96188866428322
 20
80.64944765528583
 10
115.42424480057345
 20
80.64944765528583
 10
115.86620399084485
 20
80.64944765528583
 10
116.28096725309116
 20
80.64944765528583
 10
116.68596039592127
 20
80.64944765528583
 10
117.03233282225412
 20
80.64944765528583
 10
117.37870524858695
 20
80.64944765528583
 10
117.65156962146683
 20
80.64944765528583
 10
117.91218265210456
 20
80.64944765528583
 10
118.11632275629856
 20
80.64944765528583
 10
118.27810816565975
 20
80.64944765528583
 10
118.40933922723268
 20
80.64944765528583
 10
118.46418441933494
 20
80.64944765528583
 10
118.5190296114372
 20
80.64944765528583
  0
LWPOLYLINE
  5
3F
330
17
100
AcDbEntity
  8
HIDDEN
100
AcDbPolyline
 90
33
 70
0
 10
118.5190296114372
 20
80.64944765528583
 10
118.46418441933494
 20
80.64944765528583
 10
118.40933922723268
 20
80.64944765528583
 10
118.27810816565975
 20
80.64944765528583
 10
118.11632275629856
 20
80.64944765528583
 10
117.91218265210456
 20
80.64944765528583
 10
117.65156962146683
 20
80.64944765528583
 10
117.37870524858695
 20
80.64944765528583
 10
117.03233282225412
 20
80.64944765528583
 10
116.68596039592128
 20
80.64944765528583
 10
116.28096725309118
 20
80.64944765528583
 10
115.86620399084485
 20
80.64944765528583
 10
115.42424480057343
 20
80.64944765528583
 10
114.96188866428322
 20
80.64944765528583
 10
114.49255869749608
 20
80.64944765528583
 10
114.00579415446664
 20
80.64944765528583
 10
113.5190296114372
 20
80.64944765528583
 10
113.03226506840777
 20
80.64944765528583
 10
112.54550052537833
 20
80.64944765528583
 10
112.07617055859119
 20
80.64944765528583
 10
111.61381442230098
 20
80.64944765528583
 10
111.17185523202956
 20
80.64944765528583
 10
110.75709196978323
 20
80.64944765528583
 10
110.35209882695312
 20
80.64944765528583
 10
110.00572640062029
 20
80.64944765528583
 10
109.65935397428746
 20
80.64944765528583
 10
109.38648960140758
 20
80.64944765528583
 10
109.12587657076985
 20
80.64944765528583
 10
108.92173646657585
 20
80.64944765528583
 10
108.75995105721465
 20
80.64944765528583
 10
108.62871999564173
 20
80.64944765528583
 10
108.57387480353947
 20
80.64944765528583
 10
108.5190296114372
 20
80.64944765528583
  0
TEXT
  5
40
330
17
100
AcDbEntity
  8
TITLE
100
AcDbText
 10
113.5190296114372
 20
62.649447655285826
 30
0.0
 40
3.4
  1
FRONT
  7
LOFT_MONO
 72
1
 11
113.5190296114372
 21
62.649447655285826
 31
0.0
100
AcDbText
 73
2
  0
LINE
  5
41
330
17
100
AcDbEntity
  8
VISIBLE
100
AcDbLine
 10
93.5190296114372
 20
104.64944765528583
 30
0.0
 11
93.5190296114372
 21
129.64944765528583
 31
0.0
  0
LINE
  5
42
330
17
100
AcDbEntity
  8
VISIBLE
100
AcDbLine
 10
93.5190296114372
 20
104.64944765528583
 30
0.0
 11
133.5190296114372
 21
104.64944765528583
 31
0.0
  0
LINE
  5
43
330
17
100
AcDbEntity
  8
VISIBLE
100
AcDbLine
 10
93.5190296114372
 20
129.64944765528583
 30
0.0
 11
133.5190296114372
 21
129.64944765528583
 31
0.0
  0
LINE
  5
44
330
17
100
AcDbEntity
  8
VISIBLE
100
AcDbLine
 10
133.5190296114372
 20
104.64944765528583
 30
0.0
 11
133.5190296114372
 21
129.64944765528583
 31
0.0
  0
CIRCLE
  5
45
330
17
100
AcDbEntity
  8
VISIBLE
100
AcDbCircle
 10
113.5190296114372
 20
117.14944765528583
 30
0.0
 40
5.0
  0
LINE
  5
46
330
17
100
AcDbEntity
  8
DIMENSION
100
AcDbLine
 10
108.5190296114372
 20
117.14944765528583
 30
0.0
 11
118.5190296114372
 21
117.14944765528583
 31
0.0
  0
SOLID
  5
47
330
17
100
AcDbEntity
  8
DIMENSION
100
AcDbTrace
 10
108.5190296114372
 20
117.14944765528583
 30
0.0
 11
111.9190296114372
 21
116.24944765528582
 31
0.0
 12
111.9190296114372
 22
118.04944765528583
 32
0.0
 13
111.9190296114372
 23
118.04944765528583
 33
0.0
  0
SOLID
  5
48
330
17
100
AcDbEntity
  8
DIMENSION
100
AcDbTrace
 10
118.5190296114372
 20
117.14944765528583
 30
0.0
 11
115.11902961143721
 21
118.04944765528583
 31
0.0
 12
115.11902961143721
 22
116.24944765528582
 32
0.0
 13
115.11902961143721
 23
116.24944765528582
 33
0.0
  0
TEXT
  5
49
330
17
100
AcDbEntity
  8
DIMENSION
100
AcDbText
 10
127.7630296114372
 20
117.14944765528583
 30
0.0
 40
3.2
  1
Ø10.000
  7
LOFT_MONO
 72
1
 11
127.7630296114372
 21
117.14944765528583
 31
0.0
100
AcDbText
 73
2
  0
TEXT
  5
4A
330
17
100
AcDbEntity
  8
TITLE
100
AcDbText
 10
113.5190296114372
 20
96.64944765528583
 30
0.0
 40
3.4
  1
TOP
  7
LOFT_MONO
 72
1
 11
113.5190296114372
 21
96.64944765528583
 31
0.0
100
AcDbText
 73
2
  0
LINE
  5
4B
330
17
100
AcDbEntity
  8
VISIBLE
100
AcDbLine
 10
157.5190296114372
 20
70.64944765528583
 30
0.0
 11
157.5190296114372
 21
80.64944765528583
 31
0.0
  0
LINE
  5
4C
330
17
100
AcDbEntity
  8
VISIBLE
100
AcDbLine
 10
157.5190296114372
 20
70.64944765528583
 30
0.0
 11
182.5190296114372
 21
70.64944765528583
 31
0.0
  0
LINE
  5
4D
330
17
100
AcDbEntity
  8
VISIBLE
100
AcDbLine
 10
157.5190296114372
 20
80.64944765528583
 30
0.0
 11
182.5190296114372
 21
80.64944765528583
 31
0.0
  0
LINE
  5
4E
330
17
100
AcDbEntity
  8
HIDDEN
100
AcDbLine
 10
165.0190296114372
 20
70.64944765528583
 30
0.0
 11
165.0190296114372
 21
80.64944765528583
 31
0.0
  0
LINE
  5
4F
330
17
100
AcDbEntity
  8
HIDDEN
100
AcDbLine
 10
175.0190296114372
 20
70.64944765528583
 30
0.0
 11
175.0190296114372
 21
80.64944765528583
 31
0.0
  0
LINE
  5
50
330
17
100
AcDbEntity
  8
VISIBLE
100
AcDbLine
 10
182.5190296114372
 20
70.64944765528583
 30
0.0
 11
182.5190296114372
 21
80.64944765528583
 31
0.0
  0
LWPOLYLINE
  5
51
330
17
100
AcDbEntity
  8
HIDDEN
100
AcDbPolyline
 90
33
 70
0
 10
165.0190296114372
 20
70.64944765528583
 10
165.03278415229573
 20
70.64944765528583
 10
165.04653869315425
 20
70.64944765528583
 10
165.07981902714508
 20
70.64944765528583
 10
165.12090967838878
 20
70.64944765528583
 10
165.17349434603443
 20
70.64944765528583
 10
165.24140436888263
 20
70.64944765528583
 10
165.3130237293972
 20
70.64944765528583
 10
165.40689911591022
 20
70.64944765528583
 10
165.50077450242324
 20
70.64944765528583
 10
165.6158940256891
 20
70.64944765528583
 10
165.73455423841378
 20
70.64944765528583
 10
165.8665245112461
 20
70.64944765528583
 10
166.00847732915915
 20
70.64944765528583
 10
166.15657513739797
 20
70.64944765528583
 10
166.32003542145122
 20
70.64944765528583
 10
166.48349570550445
 20
70.64944765528583
 10
166.66640784778406
 20
70.64944765528583
 10
166.84931999006363
 20
70.64944765528583
 10
167.04448329799257
 20
70.64944765528583
 10
167.24454707218126
 20
70.64944765528583
 10
167.4508832951709
 20
70.64944765528583
 10
167.66558278322856
 20
70.64944765528583
 10
167.88198737746265
 20
70.64944765528583
 10
168.10862260875538
 20
70.64944765528583
 10
168.33525784004811
 20
70.64944765528583
 10
168.5696807916592
 20
70.64944765528583
 10
168.8054016966567
 20
70.64944765528583
 10
169.04462051397186
 20
70.64944765528583
 10
169.28646276552533
 20
70.64944765528583
 10
169.52918502848522
 20
70.64944765528583
 10
169.77410731996122
 20
70.64944765528583
 10
170.0190296114372
 20
70.64944765528583
  0
LWPOLYLINE
  5
52
330
17
100
AcDbEntity
  8
HIDDEN
100
AcDbPolyline
 90
33
 70
0
 10
175.0190296114372
 20
70.64944765528583
 10
174.9641844193349
 20
70.64944765528583
 10
174.90933922723266
 20
70.64944765528583
 10
174.77810816565975
 20
70.64944765528583
 10
174.61632275629853
 20
70.64944765528583
 10
174.41218265210455
 20
70.64944765528583
 10
174.15156962146682
 20
70.64944765528583
 10
173.87870524858693
 20
70.64944765528583
 10
173.5323328222541
 20
70.64944765528583
 10
173.18596039592126
 20
70.64944765528583
 10
172.78096725309115
 20
70.64944765528583
 10
172.36620399084484
 20
70.64944765528583
 10
171.92424480057343
 20
70.64944765528583
 10
171.4618886642832
 20
70.64944765528583
 10
170.99255869749607
 20
70.64944765528583
 10
170.50579415446663
 20
70.64944765528583
 10
170.0190296114372
 20
70.64944765528583
 10
169.53226506840775
 20
70.64944765528583
 10
169.04550052537832
 20
70.64944765528583
 10
168.57617055859117
 20
70.64944765528583
 10
168.11381442230095
 20
70.64944765528583
 10
167.67185523202954
 20
70.64944765528583
 10
167.25709196978323
 20
70.64944765528583
 10
166.85209882695312
 20
70.64944765528583
 10
166.5057264006203
 20
70.64944765528583
 10
166.15935397428746
 20
70.64944765528583
 10
165.88648960140756
 20
70.64944765528583
 10
165.62587657076983
 20
70.64944765528583
 10
165.42173646657585
 20
70.64944765528583
 10
165.25995105721464
 20
70.64944765528583
 10
165.12871999564172
 20
70.64944765528583
 10
165.07387480353944
 20
70.64944765528583
 10
165.0190296114372
 20
70.64944765528583
  0
LWPOLYLINE
  5
53
330
17
100
AcDbEntity
  8
HIDDEN
100
AcDbPolyline
 90
33
 70
0
 10
165.0190296114372
 20
80.64944765528583
 10
165.03278415229573
 20
80.64944765528583
 10
165.04653869315425
 20
80.64944765528583
 10
165.07981902714508
 20
80.64944765528583
 10
165.12090967838878
 20
80.64944765528583
 10
165.17349434603443
 20
80.64944765528583
 10
165.24140436888263
 20
80.64944765528583
 10
165.3130237293972
 20
80.64944765528583
 10
165.40689911591022
 20
80.64944765528583
 10
165.50077450242324
 20
80.64944765528583
 10
165.6158940256891
 20
80.64944765528583
 10
165.73455423841378
 20
80.64944765528583
 10
165.8665245112461
 20
80.64944765528583
 10
166.00847732915915
 20
80.64944765528583
 10
166.15657513739797
 20
80.64944765528583
 10
166.32003542145122
 20
80.64944765528583
 10
166.48349570550445
 20
80.64944765528583
 10
166.66640784778406
 20
80.64944765528583
 10
166.84931999006363
 20
80.64944765528583
 10
167.04448329799257
 20
80.64944765528583
 10
167.24454707218126
 20
80.64944765528583
 10
167.4508832951709
 20
80.64944765528583
 10
167.66558278322856
 20
80.64944765528583
 10
167.88198737746265
 20
80.64944765528583
 10
168.10862260875538
 20
80.64944765528583
 10
168.33525784004811
 20
80.64944765528583
 10
168.5696807916592
 20
80.64944765528583
 10
168.8054016966567
 20
80.64944765528583
 10
169.04462051397186
 20
80.64944765528583
 10
169.28646276552533
 20
80.64944765528583
 10
169.52918502848522
 20
80.64944765528583
 10
169.77410731996122
 20
80.64944765528583
 10
170.0190296114372
 20
80.64944765528583
  0
LWPOLYLINE
  5
54
330
17
100
AcDbEntity
  8
HIDDEN
100
AcDbPolyline
 90
33
 70
0
 10
175.0190296114372
 20
80.64944765528583
 10
174.9641844193349
 20
80.64944765528583
 10
174.90933922723266
 20
80.64944765528583
 10
174.77810816565975
 20
80.64944765528583
 10
174.61632275629853
 20
80.64944765528583
 10
174.41218265210455
 20
80.64944765528583
 10
174.15156962146682
 20
80.64944765528583
 10
173.87870524858693
 20
80.64944765528583
 10
173.5323328222541
 20
80.64944765528583
 10
173.18596039592126
 20
80.64944765528583
 10
172.78096725309115
 20
80.64944765528583
 10
172.36620399084484
 20
80.64944765528583
 10
171.92424480057343
 20
80.64944765528583
 10
171.4618886642832
 20
80.64944765528583
 10
170.99255869749607
 20
80.64944765528583
 10
170.50579415446663
 20
80.64944765528583
 10
170.0190296114372
 20
80.64944765528583
 10
169.53226506840775
 20
80.64944765528583
 10
169.04550052537832
 20
80.64944765528583
 10
168.57617055859117
 20
80.64944765528583
 10
168.11381442230095
 20
80.64944765528583
 10
167.67185523202954
 20
80.64944765528583
 10
167.25709196978323
 20
80.64944765528583
 10
166.85209882695312
 20
80.64944765528583
 10
166.5057264006203
 20
80.64944765528583
 10
166.15935397428746
 20
80.64944765528583
 10
165.88648960140756
 20
80.64944765528583
 10
165.62587657076983
 20
80.64944765528583
 10
165.42173646657585
 20
80.64944765528583
 10
165.25995105721464
 20
80.64944765528583
 10
165.12871999564172
 20
80.64944765528583
 10
165.07387480353944
 20
80.64944765528583
 10
165.0190296114372
 20
80.64944765528583
  0
LWPOLYLINE
  5
55
330
17
100
AcDbEntity
  8
HIDDEN
100
AcDbPolyline
 90
33
 70
0
 10
170.0190296114372
 20
70.64944765528583
 10
170.26395190291316
 20
70.64944765528583
 10
170.50887419438916
 20
70.64944765528583
 10
170.75159645734905
 20
70.64944765528583
 10
170.99343870890252
 20
70.64944765528583
 10
171.23265752621768
 20
70.64944765528583
 10
171.46837843121517
 20
70.64944765528583
 10
171.70280138282627
 20
70.64944765528583
 10
171.929436614119
 20
70.64944765528583
 10
172.15607184541173
 20
70.64944765528583
 10
172.37247643964582
 20
70.64944765528583
 10
172.58717592770347
 20
70.64944765528583
 10
172.79351215069312
 20
70.64944765528583
 10
172.9935759248818
 20
70.64944765528583
 10
173.18873923281075
 20
70.64944765528583
 10
173.37165137509032
 20
70.64944765528583
 10
173.55456351736993
 20
70.64944765528583
 10
173.71802380142316
 20
70.64944765528583
 10
173.88148408547642
 20
70.64944765528583
 10
174.02958189371523
 20
70.64944765528583
 10
174.17153471162828
 20
70.64944765528583
 10
174.3035049844606
 20
70.64944765528583
 10
174.42216519718528
 20
70.64944765528583
 10
174.53728472045114
 20
70.64944765528583
 10
174.63116010696416
 20
70.64944765528583
 10
174.72503549347718
 20
70.64944765528583
 10
174.79665485399175
 20
70.64944765528583
 10
174.86456487683995
 20
70.64944765528583
 10
174.9171495444856
 20
70.64944765528583
 10
174.9582401957293
 20
70.64944765528583
 10
174.99152052972013
 20
70.64944765528583
 10
175.00527507057865
 20
70.64944765528583
 10
175.0190296114372
 20
70.64944765528583
  0
LWPOLYLINE
  5
56
330
17
100
AcDbEntity
  8
HIDDEN
100
AcDbPolyline
 90
33
 70
0
 10
170.0190296114372
 20
80.64944765528583
 10
170.26395190291316
 20
80.64944765528583
 10
170.50887419438916
 20
80.64944765528583
 10
170.75159645734905
 20
80.64944765528583
 10
170.99343870890252
 20
80.64944765528583
 10
171.23265752621768
 20
80.64944765528583
 10
171.46837843121517
 20
80.64944765528583
 10
171.70280138282627
 20
80.64944765528583
 10
171.929436614119
 20
80.64944765528583
 10
172.15607184541173
 20
80.64944765528583
 10
172.37247643964582
 20
80.64944765528583
 10
172.58717592770347
 20
80.64944765528583
 10
172.79351215069312
 20
80.64944765528583
 10
172.9935759248818
 20
80.64944765528583
 10
173.18873923281075
 20
80.64944765528583
 10
173.37165137509032
 20
80.64944765528583
 10
173.55456351736993
 20
80.64944765528583
 10
173.71802380142316
 20
80.64944765528583
 10
173.88148408547642
 20
80.64944765528583
 10
174.02958189371523
 20
80.64944765528583
 10
174.17153471162828
 20
80.64944765528583
 10
174.3035049844606
 20
80.64944765528583
 10
174.42216519718528
 20
80.64944765528583
 10
174.53728472045114
 20
80.64944765528583
 10
174.63116010696416
 20
80.64944765528583
 10
174.72503549347718
 20
80.64944765528583
 10
174.79665485399175
 20
80.64944765528583
 10
174.86456487683995
 20
80.64944765528583
 10
174.9171495444856
 20
80.64944765528583
 10
174.9582401957293
 20
80.64944765528583
 10
174.99152052972013
 20
80.64944765528583
 10
175.00527507057865
 20
80.64944765528583
 10
175.0190296114372
 20
80.64944765528583
  0
TEXT
  5
57
330
17
100
AcDbEntity
  8
TITLE
100
AcDbText
 10
170.0190296114372
 20
62.649447655285826
 30
0.0
 40
3.4
  1
RIGHT
  7
LOFT_MONO
 72
1
 11
170.0190296114372
 21
62.649447655285826
 31
0.0
100
AcDbText
 73
2
  0
LINE
  5
58
330
17
100
AcDbEntity
  8
VISIBLE
100
AcDbLine
 10
157.5190296114372
 20
114.8556549168824
 30
0.0
 11
157.5190296114372
 21
123.02062072615965
 31
0.0
  0
LINE
  5
59
330
17
100
AcDbEntity
  8
VISIBLE
100
AcDbLine
 10
157.5190296114372
 20
114.8556549168824
 30
0.0
 11
175.1966991411009
 21
104.64944765528583
 31
0.0
  0
LINE
  5
5A
330
17
100
AcDbEntity
  8
HIDDEN
100
AcDbLine
 10
157.5190296114372
 20
114.8556549168824
 30
0.0
 11
185.8033008588991
 21
131.18558653543693
 31
0.0
  0
LINE
  5
5B
330
17
100
AcDbEntity
  8
VISIBLE
100
AcDbLine
 10
157.5190296114372
 20
123.02062072615965
 30
0.0
 11
175.1966991411009
 21
112.81441346456307
 31
0.0
  0
LINE
  5
5C
330
17
100
AcDbEntity
  8
VISIBLE
100
AcDbLine
 10
157.5190296114372
 20
123.02062072615965
 30
0.0
 11
185.8033008588991
 21
139.35055234471417
 31
0.0
  0
LINE
  5
5D
330
17
100
AcDbEntity
  8
VISIBLE
100
AcDbLine
 10
175.1966991411009
 20
104.64944765528583
 30
0.0
 11
175.1966991411009
 21
112.81441346456307
 31
0.0
  0
LINE
  5
5E
330
17
100
AcDbEntity
  8
VISIBLE
100
AcDbLine
 10
175.1966991411009
 20
104.64944765528583
 30
0.0
 11
203.4809703885628
 21
120.97937927384035
 31
0.0
  0
LINE
  5
5F
330
17
100
AcDbEntity
  8
VISIBLE
100
AcDbLine
 10
175.1966991411009
 20
112.81441346456307
 30
0.0
 11
203.4809703885628
 21
129.1443450831176
 31
0.0
  0
LINE
  5
60
330
17
100
AcDbEntity
  8
HIDDEN
100
AcDbLine
 10
175.5
 20
117.91751709536138
 30
0.0
 11
175.5
 21
126.08248290463862
 31
0.0
  0
LINE
  5
61
330
17
100
AcDbEntity
  8
HIDDEN
100
AcDbLine
 10
185.5
 20
117.91751709536138
 30
0.0
 11
185.5
 21
126.08248290463862
 31
0.0
  0
LINE
  5
62
330
17
100
AcDbEntity
  8
HIDDEN
100
AcDbLine
 10
185.8033008588991
 20
131.18558653543693
 30
0.0
 11
185.8033008588991
 21
139.35055234471417
 31
0.0
  0
LINE
  5
63
330
17
100
AcDbEntity
  8
HIDDEN
100
AcDbLine
 10
185.8033008588991
 20
131.18558653543693
 30
0.0
 11
203.4809703885628
 21
120.97937927384034
 31
0.0
  0
LINE
  5
64
330
17
100
AcDbEntity
  8
VISIBLE
100
AcDbLine
 10
185.8033008588991
 20
139.35055234471417
 30
0.0
 11
203.4809703885628
 21
129.1443450831176
 31
0.0
  0
LINE
  5
65
330
17
100
AcDbEntity
  8
VISIBLE
100
AcDbLine
 10
203.4809703885628
 20
120.97937927384034
 30
0.0
 11
203.4809703885628
 21
129.1443450831176
 31
0.0
  0
LWPOLYLINE
  5
66
330
17
100
AcDbEntity
  8
HIDDEN
100
AcDbPolyline
 90
33
 70
0
 10
184.03553390593274
 20
119.95875854768069
 10
183.7658642147689
 20
120.10339075217779
 10
183.47849652246217
 20
120.2361775179388
 10
183.1749880994355
 20
120.35639926197504
 10
182.85698368413
 20
120.46340449223926
 10
182.52620657002495
 20
120.55661333811744
 10
182.1844492669611
 20
120.63552069279793
 10
181.8335637873745
 20
120.69969895048895
 10
181.47545161008065
 20
120.74880032365151
 10
181.11205337599608
 20
120.78255872769017
 10
180.7453383716371
 20
120.80079122288853
 10
180.37729385738544
 20
120.80339900577539
 10
180.0099142983522
 20
120.79036794454936
 10
179.6451905561985
 20
120.76176865566025
 10
179.28509910048368
 20
120.71775612113247
 10
178.93159129800554
 20
120.658568848704
 10
178.58658283817456
 20
120.58452757933226
 10
178.25194335172696
 20
120.4960335490711
 10
177.92948627903388
 20
120.39356631473787
 10
177.62095904291078
 20
120.27768115515346
 10
177.32803357918178
 20
120.14900606203823
 10
177.05229727631468
 20
120.00823833687052
 10
176.79524437322522
 20
119.85614081214952
 10
176.55826786186697
 20
119.6935377175398
 10
176.34265193848728
 20
119.52131021329942
 10
176.14956504445644
 20
119.3403916151961
 10
175.9800535343828
 20
119.15176233678821
 10
175.8350360058263
 20
118.9564445764788
 10
175.71529832133896
 20
118.7554967781338
 10
175.62148934980735
 20
118.55000789528312
 10
175.5541174501761
 20
118.341091489987
 10
175.51354771660655
 20
118.1298796983468
 10
175.5
 20
117.91751709536138
  0
LWPOLYLINE
  5
67
330
17
100
AcDbEntity
  8
HIDDEN
100
AcDbPolyline
 90
33
 70
0
 10
175.5
 20
117.91751709536138
 10
175.524076366639
 20
117.63456598358903
 10
175.59607359798386
 20
117.35433984569985
 10
175.71529832133896
 20
117.07953741258893
 10
175.88060233744358
 20
116.8128051819094
 10
176.09039367825824
 20
116.55671193085337
 10
176.34265193848728
 20
116.31372397742332
 10
176.63494773318632
 20
116.0861814284415
 10
176.96446609406726
 20
115.87627564304205
 10
177.32803357918178
 20
115.68602812868451
 10
177.722148834902
 20
115.51727107293203
 10
178.14301631587
 20
115.37162969848347
 10
178.58658283817454
 20
115.25050661139048
 10
179.04857661372768
 20
115.15506829319436
 10
179.52454838991935
 20
115.08623386707123
 10
180.0099142983522
 20
115.04466624617338
 10
180.5
 20
115.03076574941323
 10
180.9900857016478
 20
115.04466624617338
 10
181.47545161008065
 20
115.08623386707123
 10
181.95142338627232
 20
115.15506829319436
 10
182.41341716182546
 20
115.25050661139048
 10
182.85698368413
 20
115.37162969848347
 10
183.277851165098
 20
115.51727107293203
 10
183.67196642081822
 20
115.68602812868451
 10
184.03553390593274
 20
115.87627564304205
 10
184.36505226681368
 20
116.0861814284415
 10
184.65734806151272
 20
116.31372397742332
 10
184.90960632174176
 20
116.55671193085337
 10
185.11939766255642
 20
116.8128051819094
 10
185.28470167866104
 20
117.07953741258893
 10
185.40392640201614
 20
117.35433984569985
 10
185.475923633361
 20
117.63456598358903
 10
185.5
 20
117.91751709536138
  0
LWPOLYLINE
  5
68
330
17
100
AcDbEntity
  8
VISIBLE
100
AcDbPolyline
 90
33
 70
0
 10
184.03553390593274
 20
128.12372435695795
 10
183.7658642147689
 20
128.26835656145505
 10
183.47849652246217
 20
128.40114332721606
 10
183.1749880994355
 20
128.5213650712523
 10
182.85698368413
 20
128.62837030151653
 10
182.52620657002495
 20
128.72157914739472
 10
182.1844492669611
 20
128.8004865020752
 10
181.8335637873745
 20
128.8646647597662
 10
181.47545161008065
 20
128.91376613292877
 10
181.11205337599608
 20
128.94752453696742
 10
180.7453383716371
 20
128.96575703216578
 10
180.37729385738544
 20
128.96836481505267
 10
180.0099142983522
 20
128.9553337538266
 10
179.6451905561985
 20
128.9267344649375
 10
179.28509910048368
 20
128.88272193040973
 10
178.93159129800554
 20
128.82353465798127
 10
178.58658283817456
 20
128.74949338860952
 10
178.25194335172696
 20
128.66099935834836
 10
177.92948627903388
 20
128.55853212401513
 10
177.62095904291078
 20
128.4426469644307
 10
177.32803357918178
 20
128.3139718713155
 10
177.05229727631468
 20
128.17320414614778
 10
176.79524437322522
 20
128.02110662142678
 10
176.55826786186697
 20
127.85850352681706
 10
176.34265193848728
 20
127.68627602257669
 10
176.14956504445644
 20
127.50535742447336
 10
175.9800535343828
 20
127.31672814606547
 10
175.8350360058263
 20
127.12141038575606
 10
175.71529832133896
 20
126.92046258741107
 10
175.62148934980735
 20
126.71497370456038
 10
175.5541174501761
 20
126.50605729926426
 10
175.51354771660655
 20
126.29484550762406
 10
175.5
 20
126.08248290463862
  0
LWPOLYLINE
  5
69
330
17
100
AcDbEntity
  8
VISIBLE
100
AcDbPolyline
 90
33
 70
0
 10
175.5
 20
126.08248290463862
 10
175.524076366639
 20
125.79953179286629
 10
175.59607359798386
 20
125.51930565497712
 10
175.71529832133896
 20
125.2445032218662
 10
175.88060233744358
 20
124.97777099118666
 10
176.09039367825824
 20
124.72167774013063
 10
176.34265193848728
 20
124.47868978670058
 10
176.63494773318632
 20
124.25114723771878
 10
176.96446609406726
 20
124.04124145231931
 10
177.32803357918178
 20
123.85099393796177
 10
177.722148834902
 20
123.68223688220928
 10
178.14301631587
 20
123.53659550776075
 10
178.58658283817454
 20
123.41547242066775
 10
179.04857661372768
 20
123.32003410247162
 10
179.52454838991935
 20
123.25119967634849
 10
180.0099142983522
 20
123.20963205545064
 10
180.5
 20
123.19573155869051
 10
180.9900857016478
 20
123.20963205545064
 10
181.47545161008065
 20
123.25119967634849
 10
181.95142338627232
 20
123.32003410247162
 10
182.41341716182546
 20
123.41547242066775
 10
182.85698368413
 20
123.53659550776074
 10
183.277851165098
 20
123.68223688220928
 10
183.67196642081822
 20
123.85099393796177
 10
184.03553390593274
 20
124.04124145231931
 10
184.36505226681368
 20
124.25114723771878
 10
184.65734806151272
 20
124.47868978670058
 10
184.90960632174176
 20
124.72167774013063
 10
185.11939766255642
 20
124.97777099118666
 10
185.28470167866104
 20
125.2445032218662
 10
185.40392640201614
 20
125.51930565497712
 10
185.475923633361
 20
125.79953179286629
 10
185.5
 20
126.08248290463862
  0
LWPOLYLINE
  5
6A
330
17
100
AcDbEntity
  8
HIDDEN
100
AcDbPolyline
 90
33
 70
0
 10
185.5
 20
117.91751709536138
 10
185.498494093481
 20
117.9883615198311
 10
185.49397728102588
 20
118.05916327026858
 10
185.48645228339345
 20
118.1298796983468
 10
185.475923633361
 20
118.20046820713371
 10
185.46239767299355
 20
118.27088627675113
 10
185.4458825498239
 20
118.341091489987
 10
185.4263882119447
 20
118.411041557846
 10
185.40392640201614
 20
118.48069434502288
 10
185.37851065019265
 20
118.55000789528312
 10
185.3501562659727
 20
118.61894045673583
 10
185.3188803289772
 20
118.68745050698357
 10
185.28470167866104
 20
118.7554967781338
 10
185.24764090296517
 20
118.82303828165722
 10
185.2077203259151
 20
118.89003433307762
 10
185.1649639941737
 20
118.9564445764788
 10
185.11939766255642
 20
119.02222900881334
 10
185.07104877851765
 20
119.08734800399907
 10
185.0199464656172
 20
119.15176233678821
 10
184.96612150597758
 20
119.21543320639533
 10
184.90960632174176
 20
119.27832225986937
 10
184.85043495554356
 20
119.3403916151961
 10
184.78864305000135
 20
119.40160388411678
 10
184.72426782624854
 20
119.46192219464949
 10
184.65734806151272
 20
119.52131021329942
 10
184.58792406575793
 20
119.5797321669448
 10
184.51603765740322
 20
119.63715286438526
 10
184.44173213813303
 20
119.6935377175398
 10
184.36505226681368
 20
119.74885276228123
 10
184.28604423253242
 20
119.80306467889496
 10
184.20475562677478
 20
119.85614081214952
 10
184.12123541475734
 20
119.9080491909669
 10
184.03553390593274
 20
119.95875854768069
  0
LWPOLYLINE
  5
6B
330
17
100
AcDbEntity
  8
VISIBLE
100
AcDbPolyline
 90
33
 70
0
 10
185.5
 20
126.08248290463862
 10
185.498494093481
 20
126.15332732910836
 10
185.49397728102588
 20
126.22412907954585
 10
185.48645228339345
 20
126.29484550762406
 10
185.475923633361
 20
126.36543401641097
 10
185.46239767299355
 20
126.43585208602839
 10
185.4458825498239
 20
126.50605729926426
 10
185.4263882119447
 20
126.57600736712327
 10
185.40392640201614
 20
126.64566015430015
 10
185.37851065019265
 20
126.71497370456038
 10
185.3501562659727
 20
126.7839062660131
 10
185.3188803289772
 20
126.85241631626083
 10
185.28470167866104
 20
126.92046258741107
 10
185.24764090296517
 20
126.98800409093448
 10
185.2077203259151
 20
127.05500014235488
 10
185.1649639941737
 20
127.12141038575606
 10
185.11939766255642
 20
127.1871948180906
 10
185.07104877851765
 20
127.25231381327632
 10
185.0199464656172
 20
127.31672814606547
 10
184.96612150597758
 20
127.3803990156726
 10
184.90960632174176
 20
127.44328806914663
 10
184.85043495554356
 20
127.50535742447336
 10
184.78864305000135
 20
127.56656969339404
 10
184.72426782624854
 20
127.62688800392675
 10
184.65734806151272
 20
127.68627602257669
 10
184.58792406575793
 20
127.74469797622206
 10
184.51603765740322
 20
127.80211867366253
 10
184.44173213813303
 20
127.85850352681706
 10
184.36505226681368
 20
127.9138185715585
 10
184.28604423253242
 20
127.96803048817222
 10
184.20475562677478
 20
128.02110662142678
 10
184.12123541475734
 20
128.07301500024417
 10
184.03553390593274
 20
128.12372435695795
  0
TEXT
  5
6C
330
17
100
AcDbEntity
  8
TITLE
100
AcDbText
 10
180.5
 20
96.64944765528583
 30
0.0
 40
3.4
  1
ISOMETRIC
  7
LOFT_MONO
 72
1
 11
180.5
 21
96.64944765528583
 31
0.0
100
AcDbText
 73
2
  0
LWPOLYLINE
  5
6D
330
17
100
AcDbEntity
  8
TITLE
100
AcDbPolyline
 90
4
 70
1
 10
191.0
 20
44.0
 10
287.0
 20
44.0
 10
287.0
 20
10.0
 10
191.0
 20
10.0
  0
LINE
  5
6E
330
17
100
AcDbEntity
  8
TITLE
100
AcDbLine
 10
248.6
 20
44.0
 30
0.0
 11
248.6
 21
10.0
 31
0.0
  0
LINE
  5
6F
330
17
100
AcDbEntity
  8
TITLE
100
AcDbLine
 10
248.6
 20
27.0
 30
0.0
 11
287.0
 21
27.0
 31
0.0
  0
TEXT
  5
70
330
17
100
AcDbEntity
  8
TITLE
100
AcDbText
 10
195.0
 20
36.0
 30
0.0
 40
2.3
  1
TITLE
  7
LOFT_MONO
 11
195.0
 21
36.0
 31
0.0
100
AcDbText
  0
TEXT
  5
71
330
17
100
AcDbEntity
  8
TITLE
100
AcDbText
 10
195.0
 20
26.0
 30
0.0
 40
3.4
  1
Plate — dimensions
  7
LOFT_MONO
 11
195.0
 21
26.0
 31
0.0
100
AcDbText
  0
TEXT
  5
72
330
17
100
AcDbEntity
  8
TITLE
100
AcDbText
 10
195.0
 20
14.0
 30
0.0
 40
2.3
  1
LOFT · PART DRAWING
  7
LOFT_MONO
 11
195.0
 21
14.0
 31
0.0
100
AcDbText
  0
TEXT
  5
73
330
17
100
AcDbEntity
  8
TITLE
100
AcDbText
 10
252.6
 20
36.0
 30
0.0
 40
2.3
  1
SCALE
  7
LOFT_MONO
 11
252.6
 21
36.0
 31
0.0
100
AcDbText
  0
TEXT
  5
74
330
17
100
AcDbEntity
  8
TITLE
100
AcDbText
 10
252.6
 20
30.0
 30
0.0
 40
3.4
  1
1:1
  7
LOFT_MONO
 11
252.6
 21
30.0
 31
0.0
100
AcDbText
  0
TEXT
  5
75
330
17
100
AcDbEntity
  8
TITLE
100
AcDbText
 10
252.6
 20
19.0
 30
0.0
 40
2.3
  1
SIZE
  7
LOFT_MONO
 11
252.6
 21
19.0
 31
0.0
100
AcDbText
  0
TEXT
  5
76
330
17
100
AcDbEntity
  8
TITLE
100
AcDbText
 10
252.6
 20
14.0
 30
0.0
 40
3.4
  1
A4
  7
LOFT_MONO
 11
252.6
 21
14.0
 31
0.0
100
AcDbText
  0
ENDSEC
  0
SECTION
  2
OBJECTS
  0
DICTIONARY
  5
A
330
0
100
AcDbDictionary
281
1
  3
ACAD_COLOR
350
B
  3
ACAD_GROUP
350
C
  3
ACAD_LAYOUT
350
D
  3
ACAD_MATERIAL
350
E
  3
ACAD_MLEADERSTYLE
350
F
  3
ACAD_MLINESTYLE
350
10
  3
ACAD_PLOTSETTINGS
350
11
  3
ACAD_PLOTSTYLENAME
350
12
  3
ACAD_SCALELIST
350
14
  3
ACAD_TABLESTYLE
350
15
  3
ACAD_VISUALSTYLE
350
16
  3
EZDXF_META
350
2D
  0
DICTIONARY
  5
B
330
A
100
AcDbDictionary
281
1
  0
DICTIONARY
  5
C
330
A
100
AcDbDictionary
281
1
  0
DICTIONARY
  5
D
330
A
100
AcDbDictionary
281
1
  3
Model
350
1A
  3
Layout1
350
1E
  0
DICTIONARY
  5
E
330
A
100
AcDbDictionary
281
1
  3
ByBlock
350
1F
  3
ByLayer
350
20
  3
Global
350
21
  0
DICTIONARY
  5
F
330
A
100
AcDbDictionary
281
1
  3
Standard
350
2C
  0
DICTIONARY
  5
10
330
A
100
AcDbDictionary
281
1
  3
Standard
350
22
  0
DICTIONARY
  5
11
330
A
100
AcDbDictionary
281
1
  0
ACDBDICTIONARYWDFLT
  5
12
330
A
100
AcDbDictionary
281
1
  3
Normal
350
13
100
AcDbDictionaryWithDefault
340
13
  0
ACDBPLACEHOLDER
  5
13
330
12
  0
DICTIONARY
  5
14
330
A
100
AcDbDictionary
281
1
  0
DICTIONARY
  5
15
330
A
100
AcDbDictionary
281
1
  0
DICTIONARY
  5
16
330
A
100
AcDbDictionary
281
1
  0
LAYOUT
  5
1A
330
D
100
AcDbPlotSettings
  1

  4
A3
  6

 40
7.5
 41
20.0
 42
7.5
 43
20.0
 44
420.0
 45
297.0
 46
0.0
 47
0.0
 48
0.0
 49
0.0
140
0.0
141
0.0
142
1.0
143
1.0
 70
1024
 72
1
 73
0
 74
5
  7

 75
16
 76
0
 77
2
 78
300
147
1.0
148
0.0
149
0.0
100
AcDbLayout
  1
Model
 70
1
 71
0
 10
0.0
 20
0.0
 11
420.0
 21
297.0
 12
0.0
 22
0.0
 32
0.0
 14
1e+20
 24
1e+20
 34
1e+20
 15
-1e+20
 25
-1e+20
 35
-1e+20
146
0.0
 13
0.0
 23
0.0
 33
0.0
 16
1.0
 26
0.0
 36
0.0
 17
0.0
 27
1.0
 37
0.0
 76
1
330
17
  0
LAYOUT
  5
1E
330
D
100
AcDbPlotSettings
  1

  4
A3
  6

 40
7.5
 41
20.0
 42
7.5
 43
20.0
 44
420.0
 45
297.0
 46
0.0
 47
0.0
 48
0.0
 49
0.0
140
0.0
141
0.0
142
1.0
143
1.0
 70
0
 72
1
 73
0
 74
5
  7

 75
16
 76
0
 77
2
 78
300
147
1.0
148
0.0
149
0.0
100
AcDbLayout
  1
Layout1
 70
1
 71
1
 10
0.0
 20
0.0
 11
420.0
 21
297.0
 12
0.0
 22
0.0
 32
0.0
 14
1e+20
 24
1e+20
 34
1e+20
 15
-1e+20
 25
-1e+20
 35
-1e+20
146
0.0
 13
0.0
 23
0.0
 33
0.0
 16
1.0
 26
0.0
 36
0.0
 17
0.0
 27
1.0
 37
0.0
 76
1
330
1B
  0
MATERIAL
  5
1F
102
{ACAD_REACTORS
330
E
102
}
330
E
100
AcDbMaterial
  1
ByBlock
  2

 70
0
 40
1.0
 71
1
 41
1.0
 91
-1023410177
 42
1.0
 72
1
  3

 73
1
 74
1
 75
1
 44
0.5
 73
0
 45
1.0
 46
1.0
 77
1
  4

 78
1
 79
1
170
1
 48
1.0
171
1
  6

172
1
173
1
174
1
140
1.0
141
1.0
175
1
  7

176
1
177
1
178
1
143
1.0
179
1
  8

270
1
271
1
272
1
145
1.0
146
1.0
273
1
  9

274
1
275
1
276
1
 42
1.0
 72
1
  3

 73
1
 74
1
 75
1
 94
63
  0
MATERIAL
  5
20
102
{ACAD_REACTORS
330
E
102
}
330
E
100
AcDbMaterial
  1
ByLayer
  2

 70
0
 40
1.0
 71
1
 41
1.0
 91
-1023410177
 42
1.0
 72
1
  3

 73
1
 74
1
 75
1
 44
0.5
 73
0
 45
1.0
 46
1.0
 77
1
  4

 78
1
 79
1
170
1
 48
1.0
171
1
  6

172
1
173
1
174
1
140
1.0
141
1.0
175
1
  7

176
1
177
1
178
1
143
1.0
179
1
  8

270
1
271
1
272
1
145
1.0
146
1.0
273
1
  9

274
1
275
1
276
1
 42
1.0
 72
1
  3

 73
1
 74
1
 75
1
 94
63
  0
MATERIAL
  5
21
102
{ACAD_REACTORS
330
E
102
}
330
E
100
AcDbMaterial
  1
Global
  2

 70
0
 40
1.0
 71
1
 41
1.0
 91
-1023410177
 42
1.0
 72
1
  3

 73
1
 74
1
 75
1
 44
0.5
 73
0
 45
1.0
 46
1.0
 77
1
  4

 78
1
 79
1
170
1
 48
1.0
171
1
  6

172
1
173
1
174
1
140
1.0
141
1.0
175
1
  7

176
1
177
1
178
1
143
1.0
179
1
  8

270
1
271
1
272
1
145
1.0
146
1.0
273
1
  9

274
1
275
1
276
1
 42
1.0
 72
1
  3

 73
1
 74
1
 75
1
 94
63
  0
MLINESTYLE
  5
22
102
{ACAD_REACTORS
330
10
102
}
330
10
100
AcDbMlineStyle
  2
Standard
 70
0
  3

 62
256
 51
90.0
 52
90.0
 71
2
 49
0.5
 62
256
  6
BYLAYER
 49
-0.5
 62
256
  6
BYLAYER
  0
MLEADERSTYLE
  5
2C
102
{ACAD_REACTORS
330
F
102
}
330
F
100
AcDbMLeaderStyle
179
2
170
2
171
1
172
0
 90
2
 40
0.0
 41
0.0
173
1
 91
-1056964608
 92
-2
290
1
 42
2.0
291
1
 43
8.0
  3
Standard
 44
4.0
300

342
29
174
1
175
1
176
0
178
1
 93
-1056964608
 45
4.0
292
0
297
0
 46
4.0
 94
-1056964608
 47
1.0
 49
1.0
140
1.0
294
1
141
0.0
177
0
142
1.0
295
0
296
0
143
3.75
271
0
272
9
273
9
  0
DICTIONARY
  5
2D
330
A
100
AcDbDictionary
280
1
281
1
  3
CREATED_BY_EZDXF
350
2E
  3
WRITTEN_BY_EZDXF
350
79
  0
DICTIONARYVAR
  5
2E
330
2D
100
DictionaryVariables
280
0
  1
0.0 @ 2000-01-01T00:00:00.000000+00:00
  0
DICTIONARYVAR
  5
79
330
2D
100
DictionaryVariables
280
0
  1
0.0 @ 2000-01-01T00:00:00.000000+00:00
  0
ENDSEC
  0
EOF
