  0
SECTION
  2
HEADER
  9
$ACADVER
  1
AC1015
  9
$ACADMAINTVER
 70
6
  9
$DWGCODEPAGE
  3
ANSI_1252
  9
$INSBASE
 10
0.0
 20
0.0
 30
0.0
  9
$EXTMIN
 10
1e+20
 20
1e+20
 30
1e+20
  9
$EXTMAX
 10
-1e+20
 20
-1e+20
 30
-1e+20
  9
$LIMMIN
 10
0.0
 20
0.0
  9
$LIMMAX
 10
420.0
 20
297.0
  9
$ORTHOMODE
 70
0
  9
$REGENMODE
 70
1
  9
$FILLMODE
 70
1
  9
$QTEXTMODE
 70
0
  9
$MIRRTEXT
 70
1
  9
$LTSCALE
 40
1.0
  9
$ATTMODE
 70
1
  9
$TEXTSIZE
 40
2.5
  9
$TRACEWID
 40
1.0
  9
$TEXTSTYLE
  7
Standard
  9
$CLAYER
  8
0
  9
$CELTYPE
  6
ByLayer
  9
$CECOLOR
 62
256
  9
$CELTSCALE
 40
1.0
  9
$DISPSILH
 70
0
  9
$DIMSCALE
 40
1.0
  9
$DIMASZ
 40
2.5
  9
$DIMEXO
 40
0.625
  9
$DIMDLI
 40
3.75
  9
$DIMRND
 40
0.0
  9
$DIMDLE
 40
0.0
  9
$DIMEXE
 40
1.25
  9
$DIMTP
 40
0.0
  9
$DIMTM
 40
0.0
  9
$DIMTXT
 40
2.5
  9
$DIMCEN
 40
2.5
  9
$DIMTSZ
 40
0.0
  9
$DIMTOL
 70
0
  9
$DIMLIM
 70
0
  9
$DIMTIH
 70
0
  9
$DIMTOH
 70
0
  9
$DIMSE1
 70
0
  9
$DIMSE2
 70
0
  9
$DIMTAD
 70
1
  9
$DIMZIN
 70
8
  9
$DIMBLK
  1

  9
$DIMASO
 70
1
  9
$DIMSHO
 70
1
  9
$DIMPOST
  1

  9
$DIMAPOST
  1

  9
$DIMALT
 70
0
  9
$DIMALTD
 70
3
  9
$DIMALTF
 40
0.03937007874
  9
$DIMLFAC
 40
1.0
  9
$DIMTOFL
 70
1
  9
$DIMTVP
 40
0.0
  9
$DIMTIX
 70
0
  9
$DIMSOXD
 70
0
  9
$DIMSAH
 70
0
  9
$DIMBLK1
  1

  9
$DIMBLK2
  1

  9
$DIMSTYLE
  2
ISO-25
  9
$DIMCLRD
 70
0
  9
$DIMCLRE
 70
0
  9
$DIMCLRT
 70
0
  9
$DIMTFAC
 40
1.0
  9
$DIMGAP
 40
0.625
  9
$DIMJUST
 70
0
  9
$DIMSD1
 70
0
  9
$DIMSD2
 70
0
  9
$DIMTOLJ
 70
0
  9
$DIMTZIN
 70
8
  9
$DIMALTZ
 70
0
  9
$DIMALTTZ
 70
0
  9
$DIMUPT
 70
0
  9
$DIMDEC
 70
2
  9
$DIMTDEC
 70
2
  9
$DIMALTU
 70
2
  9
$DIMALTTD
 70
3
  9
$DIMTXSTY
  7
Standard
  9
$DIMAUNIT
 70
0
  9
$DIMADEC
 70
0
  9
$DIMALTRND
 40
0.0
  9
$DIMAZIN
 70
0
  9
$DIMDSEP
 70
44
  9
$DIMATFIT
 70
3
  9
$DIMFRAC
 70
0
  9
$DIMLDRBLK
  1

  9
$DIMLUNIT
 70
2
  9
$DIMLWD
 70
-2
  9
$DIMLWE
 70
-2
  9
$DIMTMOVE
 70
0
  9
$LUNITS
 70
2
  9
$LUPREC
 70
4
  9
$SKETCHINC
 40
1.0
  9
$FILLETRAD
 40
10.0
  9
$AUNITS
 70
0
  9
$AUPREC
 70
2
  9
$MENU
  1
.
  9
$ELEVATION
 40
0.0
  9
$PELEVATION
 40
0.0
  9
$THICKNESS
 40
0.0
  9
$LIMCHECK
 70
0
  9
$CHAMFERA
 40
0.0
  9
$CHAMFERB
 40
0.0
  9
$CHAMFERC
 40
0.0
  9
$CHAMFERD
 40
0.0
  9
$SKPOLY
 70
0
  9
$TDCREATE
 40
2451545.0
  9
$TDUCREATE
 40
2451545.0
  9
$TDUPDATE
 40
2451545.0
  9
$TDUUPDATE
 40
2451545.0
  9
$TDINDWG
 40
0.0
  9
$TDUSRTIMER
 40
0.0
  9
$USRTIMER
 70
1
  9
$ANGBASE
 50
0.0
  9
$ANGDIR
 70
0
  9
$PDMODE
 70
0
  9
$PDSIZE
 40
0.0
  9
$PLINEWID
 40
0.0
  9
$SPLFRAME
 70
0
  9
$SPLINETYPE
 70
6
  9
$SPLINESEGS
 70
8
  9
$HANDSEED
  5
A3
  9
$SURFTAB1
 70
6
  9
$SURFTAB2
 70
6
  9
$SURFTYPE
 70
6
  9
$SURFU
 70
6
  9
$SURFV
 70
6
  9
$UCSBASE
  2

  9
$UCSNAME
  2

  9
$UCSORG
 10
0.0
 20
0.0
 30
0.0
  9
$UCSXDIR
 10
1.0
 20
0.0
 30
0.0
  9
$UCSYDIR
 10
0.0
 20
1.0
 30
0.0
  9
$UCSORTHOREF
  2

  9
$UCSORTHOVIEW
 70
0
  9
$UCSORGTOP
 10
0.0
 20
0.0
 30
0.0
  9
$UCSORGBOTTOM
 10
0.0
 20
0.0
 30
0.0
  9
$UCSORGLEFT
 10
0.0
 20
0.0
 30
0.0
  9
$UCSORGRIGHT
 10
0.0
 20
0.0
 30
0.0
  9
$UCSORGFRONT
 10
0.0
 20
0.0
 30
0.0
  9
$UCSORGBACK
 10
0.0
 20
0.0
 30
0.0
  9
$PUCSBASE
  2

  9
$PUCSNAME
  2

  9
$PUCSORG
 10
0.0
 20
0.0
 30
0.0
  9
$PUCSXDIR
 10
1.0
 20
0.0
 30
0.0
  9
$PUCSYDIR
 10
0.0
 20
1.0
 30
0.0
  9
$PUCSORTHOREF
  2

  9
$PUCSORTHOVIEW
 70
0
  9
$PUCSORGTOP
 10
0.0
 20
0.0
 30
0.0
  9
$PUCSORGBOTTOM
 10
0.0
 20
0.0
 30
0.0
  9
$PUCSORGLEFT
 10
0.0
 20
0.0
 30
0.0
  9
$PUCSORGRIGHT
 10
0.0
 20
0.0
 30
0.0
  9
$PUCSORGFRONT
 10
0.0
 20
0.0
 30
0.0
  9
$PUCSORGBACK
 10
0.0
 20
0.0
 30
0.0
  9
$USERI1
 70
0
  9
$USERI2
 70
0
  9
$USERI3
 70
0
  9
$USERI4
 70
0
  9
$USERI5
 70
0
  9
$USERR1
 40
0.0
  9
$USERR2
 40
0.0
  9
$USERR3
 40
0.0
  9
$USERR4
 40
0.0
  9
$USERR5
 40
0.0
  9
$WORLDVIEW
 70
1
  9
$SHADEDGE
 70
3
  9
$SHADEDIF
 70
70
  9
$TILEMODE
 70
1
  9
$MAXACTVP
 70
64
  9
$PINSBASE
 10
0.0
 20
0.0
 30
0.0
  9
$PLIMCHECK
 70
0
  9
$PEXTMIN
 10
1e+20
 20
1e+20
 30
1e+20
  9
$PEXTMAX
 10
-1e+20
 20
-1e+20
 30
-1e+20
  9
$PLIMMIN
 10
0.0
 20
0.0
  9
$PLIMMAX
 10
420.0
 20
297.0
  9
$UNITMODE
 70
0
  9
$VISRETAIN
 70
1
  9
$PLINEGEN
 70
0
  9
$PSLTSCALE
 70
1
  9
$TREEDEPTH
 70
3020
  9
$CMLSTYLE
  2
Standard
  9
$CMLJUST
 70
0
  9
$CMLSCALE
 40
20.0
  9
$PROXYGRAPHICS
 70
1
  9
$MEASUREMENT
 70
1
  9
$CELWEIGHT
370
-1
  9
$ENDCAPS
280
0
  9
$JOINSTYLE
280
0
  9
$LWDISPLAY
290
0
  9
$INSUNITS
 70
6
  9
$HYPERLINKBASE
  1

  9
$STYLESHEET
  1

  9
$XEDIT
290
1
  9
$CEPSNTYPE
380
0
  9
$PSTYLEMODE
290
1
  9
$FINGERPRINTGUID
  2
{00000000-0000-0000-0000-000000000000}
  9
$VERSIONGUID
  2
{00000000-0000-0000-0000-000000000000}
  9
$EXTNAMES
290
1
  9
$PSVPSCALE
 40
0.0
  9
$OLESTARTUP
290
0
  0
ENDSEC
  0
SECTION
  2
CLASSES
  0
CLASS
  1
ACDBDICTIONARYWDFLT
  2
AcDbDictionaryWithDefault
  3
ObjectDBX Classes
 90
0
280
0
281
0
  0
CLASS
  1
SUN
  2
AcDbSun
  3
SCENEOE
 90
1153
280
0
281
0
  0
CLASS
  1
VISUALSTYLE
  2
AcDbVisualStyle
  3
ObjectDBX Classes
 90
4095
280
0
281
0
  0
CLASS
  1
MATERIAL
  2
AcDbMaterial
  3
ObjectDBX Classes
 90
1153
280
0
281
0
  0
CLASS
  1
SCALE
  2
AcDbScale
  3
ObjectDBX Classes
 90
1153
280
0
281
0
  0
CLASS
  1
TABLESTYLE
  2
AcDbTableStyle
  3
ObjectDBX Classes
 90
4095
280
0
281
0
  0
CLASS
  1
MLEADERSTYLE
  2
AcDbMLeaderStyle
  3
ACDB_MLEADERSTYLE_CLASS
 90
4095
280
0
281
0
  0
CLASS
  1
DICTIONARYVAR
  2
AcDbDictionaryVar
  3
ObjectDBX Classes
 90
0
280
0
281
0
  0
CLASS
  1
CELLSTYLEMAP
  2
AcDbCellStyleMap
  3
ObjectDBX Classes
 90
1152
280
0
281
0
  0
CLASS
  1
MENTALRAYRENDERSETTINGS
  2
AcDbMentalRayRenderSettings
  3
SCENEOE
 90
1024
280
0
281
0
  0
CLASS
  1
ACDBDETAILVIEWSTYLE
  2
AcDbDetailViewStyle
  3
ObjectDBX Classes
 90
1025
280
0
281
0
  0
CLASS
  1
ACDBSECTIONVIEWSTYLE
  2
AcDbSectionViewStyle
  3
ObjectDBX Classes
 90
1025
280
0
281
0
  0
CLASS
  1
RASTERVARIABLES
  2
AcDbRasterVariables
  3
ISM
 90
0
280
0
281
0
  0
CLASS
  1
ACDBPLACEHOLDER
  2
AcDbPlaceHolder
  3
ObjectDBX Classes
 90
0
280
0
281
0
  0
CLASS
  1
LAYOUT
  2
AcDbLayout
  3
ObjectDBX Classes
 90
0
280
0
281
0
  0
ENDSEC
  0
SECTION
  2
TABLES
  0
TABLE
  2
VPORT
  5
8
330
0
100
AcDbSymbolTable
 70
1
  0
VPORT
  5
23
330
8
100
AcDbSymbolTableRecord
100
AcDbViewportTableRecord
  2
*Active
 70
0
 10
0.0
 20
0.0
 11
1.0
 21
1.0
 12
0.0
 22
0.0
 13
0.0
 23
0.0
 14
0.5
 24
0.5
 15
0.5
 25
0.5
 16
0.0
 26
0.0
 36
1.0
 17
0.0
 27
0.0
 37
0.0
 40
1000.0
 41
1.34
 42
50.0
 43
0.0
 44
0.0
 50
0.0
 51
0.0
 71
0
 72
1000
 73
1
 74
3
 75
0
 76
0
 77
0
 78
0
281
0
 65
0
146
0.0
  0
ENDTAB
  0
TABLE
  2
LTYPE
  5
2
330
0
100
AcDbSymbolTable
 70
4
  0
LTYPE
  5
24
330
2
100
AcDbSymbolTableRecord
100
AcDbLinetypeTableRecord
  2
ByBlock
 70
0
  3

 72
65
 73
0
 40
0.0
  0
LTYPE
  5
25
330
2
100
AcDbSymbolTableRecord
100
AcDbLinetypeTableRecord
  2
ByLayer
 70
0
  3

 72
65
 73
0
 40
0.0
  0
LTYPE
  5
26
330
2
100
AcDbSymbolTableRecord
100
AcDbLinetypeTableRecord
  2
Continuous
 70
0
  3

 72
65
 73
0
 40
0.0
  0
LTYPE
  5
2F
330
2
100
AcDbSymbolTableRecord
100
AcDbLinetypeTableRecord
  2
DASHED
 70
0
  3
Loft hidden edge — 2/1.4
 72
65
 73
2
 40
0.0
 49
2.0
 74
0
 49
-1.4
 74
0
  0
ENDTAB
  0
TABLE
  2
LAYER
  5
1
330
0
100
AcDbSymbolTable
 70
6
  0
LAYER
  5
27
330
1
100
AcDbSymbolTableRecord
100
AcDbLayerTableRecord
  2
0
 70
0
 62
7
  6
Continuous
370
-3
390
13
  0
LAYER
  5
28
330
1
100
AcDbSymbolTableRecord
100
AcDbLayerTableRecord
  2
Defpoints
 70
0
 62
7
  6
Continuous
290
0
370
-3
390
13
  0
LAYER
  5
30
330
1
100
AcDbSymbolTableRecord
100
AcDbLayerTableRecord
  2
VISIBLE
 70
0
 62
7
  6
Continuous
370
-3
390
13
  0
LAYER
  5
31
330
1
100
AcDbSymbolTableRecord
100
AcDbLayerTableRecord
  2
HIDDEN
 70
0
 62
8
  6
DASHED
370
-3
390
13
  0
LAYER
  5
32
330
1
100
AcDbSymbolTableRecord
100
AcDbLayerTableRecord
  2
DIMENSION
 70
0
 62
1
  6
Continuous
370
-3
390
13
  0
LAYER
  5
33
330
1
100
AcDbSymbolTableRecord
100
AcDbLayerTableRecord
  2
TITLE
 70
0
 62
5
  6
Continuous
370
-3
390
13
  0
ENDTAB
  0
TABLE
  2
STYLE
  5
5
330
0
100
AcDbSymbolTable
 70
2
  0
STYLE
  5
29
330
5
100
AcDbSymbolTableRecord
100
AcDbTextStyleTableRecord
  2
Standard
 70
0
 40
0.0
 41
1.0
 50
0.0
 71
0
 42
2.5
  3
txt
  4

  0
STYLE
  5
34
330
5
100
AcDbSymbolTableRecord
100
AcDbTextStyleTableRecord
  2
LOFT_MONO
 70
0
 40
0.0
 41
1.0
 50
0.0
 71
0
 42
2.5
  3
cour.ttf
  4

  0
ENDTAB
  0
TABLE
  2
VIEW
  5
7
330
0
100
AcDbSymbolTable
 70
0
  0
ENDTAB
  0
TABLE
  2
UCS
  5
6
330
0
100
AcDbSymbolTable
 70
0
  0
ENDTAB
  0
TABLE
  2
APPID
  5
3
330
0
100
AcDbSymbolTable
 70
3
  0
APPID
  5
2A
330
3
100
AcDbSymbolTableRecord
100
AcDbRegAppTableRecord
  2
ACAD
 70
0
  0
APPID
  5
A0
330
3
100
AcDbSymbolTableRecord
100
AcDbRegAppTableRecord
  2
HATCHBACKGROUNDCOLOR
 70
0
  0
APPID
  5
A1
330
3
100
AcDbSymbolTableRecord
100
AcDbRegAppTableRecord
  2
EZDXF
 70
0
  0
ENDTAB
  0
TABLE
  2
DIMSTYLE
  5
4
330
0
100
AcDbSymbolTable
 70
1
100
AcDbDimStyleTable
  0
DIMSTYLE
105
2B
330
4
100
AcDbSymbolTableRecord
100
AcDbDimStyleTableRecord
  2
Standard
 70
0
  3

  4

 40
1.0
 41
2.5
 42
0.625
 43
3.75
 44
1.25
 45
0.0
 46
0.0
 47
0.0
 48
0.0
140
2.5
141
2.5
142
0.0
143
0.03937007874
144
1.0
145
0.0
146
1.0
147
0.625
148
0.0
 71
0
 72
0
 73
0
 74
0
 75
0
 76
0
 77
1
 78
8
 79
3
170
0
171
3
172
1
173
0
174
0
175
0
176
0
177
0
178
0
179
2
271
2
272
2
273
2
274
3
275
0
276
0
277
2
278
44
279
0
280
0
281
0
282
0
283
0
284
8
285
0
286
0
288
0
289
3
371
-2
372
-2
  0
ENDTAB
  0
TABLE
  2
BLOCK_RECORD
  5
9
330
0
100
AcDbSymbolTable
 70
2
  0
BLOCK_RECORD
  5
17
330
9
100
AcDbSymbolTableRecord
100
AcDbBlockTableRecord
  2
*Model_Space
340
1A
  0
BLOCK_RECORD
  5
1B
330
9
100
AcDbSymbolTableRecord
100
AcDbBlockTableRecord
  2
*Paper_Space
340
1E
  0
ENDTAB
  0
ENDSEC
  0
SECTION
  2
BLOCKS
  0
BLOCK
  5
18
330
17
100
AcDbEntity
  8
0
100
AcDbBlockBegin
  2
*Model_Space
 70
0
 10
0.0
 20
0.0
 30
0.0
  3
*Model_Space
  1

  0
ENDBLK
  5
19
330
17
100
AcDbEntity
  8
0
100
AcDbBlockEnd
  0
BLOCK
  5
1C
330
1B
100
AcDbEntity
  8
0
100
AcDbBlockBegin
  2
*Paper_Space
 70
0
 10
0.0
 20
0.0
 30
0.0
  3
*Paper_Space
  1

  0
ENDBLK
  5
1D
330
1B
100
AcDbEntity
  8
0
100
AcDbBlockEnd
  0
ENDSEC
  0
SECTION
  2
ENTITIES
  0
LWPOLYLINE
  5
35
330
17
100
AcDbEntity
  8
TITLE
100
AcDbPolyline
 90
4
 70
1
 10
10.0
 20
200.0
 10
287.0
 20
200.0
 10
287.0
 20
10.0
 10
10.0
 20
10.0
  0
LINE
  5
36
330
17
100
AcDbEntity
  8
VISIBLE
100
AcDbLine
 10
118.01902961143719
 20
95.14944765528583
 30
0.0
 11
118.01902961143719
 21
105.14944765528583
 31
0.0
  0
LINE
  5
37
330
17
100
AcDbEntity
  8
VISIBLE
100
AcDbLine
 10
118.01902961143719
 20
95.14944765528583
 30
0.0
 11
158.0190296114372
 21
95.14944765528583
 31
0.0
  0
LINE
  5
38
330
17
100
AcDbEntity
  8
VISIBLE
100
AcDbLine
 10
118.01902961143719
 20
105.14944765528583
 30
0.0
 11
158.0190296114372
 21
105.14944765528583
 31
0.0
  0
LINE
  5
39
330
17
100
AcDbEntity
  8
HIDDEN
100
AcDbLine
 10
125.01902961143719
 20
95.14944765528583
 30
0.0
 11
125.01902961143719
 21
105.14944765528583
 31
0.0
  0
LINE
  5
3A
330
17
100
AcDbEntity
  8
HIDDEN
100
AcDbLine
 10
135.0190296114372
 20
95.14944765528583
 30
0.0
 11
135.0190296114372
 21
105.14944765528583
 31
0.0
  0
LINE
  5
3B
330
17
100
AcDbEntity
  8
HIDDEN
100
AcDbLine
 10
141.0190296114372
 20
95.14944765528583
 30
0.0
 11
141.0190296114372
 21
105.14944765528583
 31
0.0
  0
LINE
  5
3C
330
17
100
AcDbEntity
  8
HIDDEN
100
AcDbLine
 10
151.0190296114372
 20
95.14944765528583
 30
0.0
 11
151.0190296114372
 21
105.14944765528583
 31
0.0
  0
LINE
  5
3D
330
17
100
AcDbEntity
  8
VISIBLE
100
AcDbLine
 10
158.0190296114372
 20
95.14944765528583
 30
0.0
 11
158.0190296114372
 21
105.14944765528583
 31
0.0
  0
LWPOLYLINE
  5
3E
330
17
100
AcDbEntity
  8
HIDDEN
100
AcDbPolyline
 90
33
 70
0
 10
125.01902961143719
 20
95.14944765528583
 10
125.07387480353945
 20
95.14944765528583
 10
125.12871999564172
 20
95.14944765528583
 10
125.25995105721464
 20
95.14944765528583
 10
125.42173646657584
 20
95.14944765528583
 10
125.62587657076983
 20
95.14944765528583
 10
125.88648960140756
 20
95.14944765528583
 10
126.15935397428744
 20
95.14944765528583
 10
126.50572640062028
 20
95.14944765528583
 10
126.85209882695311
 20
95.14944765528583
 10
127.25709196978323
 20
95.14944765528583
 10
127.67185523202954
 20
95.14944765528583
 10
128.11381442230095
 20
95.14944765528583
 10
128.57617055859117
 20
95.14944765528583
 10
129.04550052537832
 20
95.14944765528583
 10
129.53226506840775
 20
95.14944765528583
 10
130.0190296114372
 20
95.14944765528583
 10
130.50579415446663
 20
95.14944765528583
 10
130.99255869749607
 20
95.14944765528583
 10
131.4618886642832
 20
95.14944765528583
 10
131.92424480057343
 20
95.14944765528583
 10
132.36620399084484
 20
95.14944765528583
 10
132.78096725309115
 20
95.14944765528583
 10
133.18596039592126
 20
95.14944765528583
 10
133.5323328222541
 20
95.14944765528583
 10
133.87870524858693
 20
95.14944765528583
 10
134.15156962146682
 20
95.14944765528583
 10
134.41218265210455
 20
95.14944765528583
 10
134.61632275629853
 20
95.14944765528583
 10
134.77810816565975
 20
95.14944765528583
 10
134.90933922723266
 20
95.14944765528583
 10
134.96418441933494
 20
95.14944765528583
 10
135.0190296114372
 20
95.14944765528583
  0
LWPOLYLINE
  5
3F
330
17
100
AcDbEntity
  8
HIDDEN
100
AcDbPolyline
 90
33
 70
0
 10
135.0190296114372
 20
95.14944765528583
 10
134.9641844193349
 20
95.14944765528583
 10
134.90933922723266
 20
95.14944765528583
 10
134.77810816565975
 20
95.14944765528583
 10
134.61632275629853
 20
95.14944765528583
 10
134.41218265210455
 20
95.14944765528583
 10
134.15156962146682
 20
95.14944765528583
 10
133.87870524858693
 20
95.14944765528583
 10
133.5323328222541
 20
95.14944765528583
 10
133.18596039592126
 20
95.14944765528583
 10
132.78096725309115
 20
95.14944765528583
 10
132.36620399084484
 20
95.14944765528583
 10
131.92424480057343
 20
95.14944765528583
 10
131.4618886642832
 20
95.14944765528583
 10
130.99255869749607
 20
95.14944765528583
 10
130.50579415446663
 20
95.14944765528583
 10
130.0190296114372
 20
95.14944765528583
 10
129.53226506840775
 20
95.14944765528583
 10
129.04550052537832
 20
95.14944765528583
 10
128.57617055859117
 20
95.14944765528583
 10
128.11381442230095
 20
95.14944765528583
 10
127.67185523202954
 20
95.14944765528583
 10
127.25709196978323
 20
95.14944765528583
 10
126.85209882695312
 20
95.14944765528583
 10
126.50572640062028
 20
95.14944765528583
 10
126.15935397428744
 20
95.14944765528583
 10
125.88648960140756
 20
95.14944765528583
 10
125.62587657076983
 20
95.14944765528583
 10
125.42173646657584
 20
95.14944765528583
 10
125.25995105721464
 20
95.14944765528583
 10
125.12871999564172
 20
95.14944765528583
 10
125.07387480353945
 20
95.14944765528583
 10
125.01902961143719
 20
95.14944765528583
  0
LWPOLYLINE
  5
40
330
17
100
AcDbEntity
  8
HIDDEN
100
AcDbPolyline
 90
33
 70
0
 10
125.01902961143719
 20
105.14944765528583
 10
125.07387480353945
 20
105.14944765528583
 10
125.12871999564172
 20
105.14944765528583
 10
125.25995105721464
 20
105.14944765528583
 10
125.42173646657584
 20
105.14944765528583
 10
125.62587657076983
 20
105.14944765528583
 10
125.88648960140756
 20
105.14944765528583
 10
126.15935397428744
 20
105.14944765528583
 10
126.50572640062028
 20
105.14944765528583
 10
126.85209882695311
 20
105.14944765528583
 10
127.25709196978323
 20
105.14944765528583
 10
127.67185523202954
 20
105.14944765528583
 10
128.11381442230095
 20
105.14944765528583
 10
128.57617055859117
 20
105.14944765528583
 10
129.04550052537832
 20
105.14944765528583
 10
129.53226506840775
 20
105.14944765528583
 10
130.0190296114372
 20
105.14944765528583
 10
130.50579415446663
 20
105.14944765528583
 10
130.99255869749607
 20
105.14944765528583
 10
131.4618886642832
 20
105.14944765528583
 10
131.92424480057343
 20
105.14944765528583
 10
132.36620399084484
 20
105.14944765528583
 10
132.78096725309115
 20
105.14944765528583
 10
133.18596039592126
 20
105.14944765528583
 10
133.5323328222541
 20
105.14944765528583
 10
133.87870524858693
 20
105.14944765528583
 10
134.15156962146682
 20
105.14944765528583
 10
134.41218265210455
 20
105.14944765528583
 10
134.61632275629853
 20
105.14944765528583
 10
134.77810816565975
 20
105.14944765528583
 10
134.90933922723266
 20
105.14944765528583
 10
134.96418441933494
 20
105.14944765528583
 10
135.0190296114372
 20
105.14944765528583
  0
LWPOLYLINE
  5
41
330
17
100
AcDbEntity
  8
HIDDEN
100
AcDbPolyline
 90
33
 70
0
 10
135.0190296114372
 20
105.14944765528583
 10
134.9641844193349
 20
105.14944765528583
 10
134.90933922723266
 20
105.14944765528583
 10
134.77810816565975
 20
105.14944765528583
 10
134.61632275629853
 20
105.14944765528583
 10
134.41218265210455
 20
105.14944765528583
 10
134.15156962146682
 20
105.14944765528583
 10
133.87870524858693
 20
105.14944765528583
 10
133.5323328222541
 20
105.14944765528583
 10
133.18596039592126
 20
105.14944765528583
 10
132.78096725309115
 20
105.14944765528583
 10
132.36620399084484
 20
105.14944765528583
 10
131.92424480057343
 20
105.14944765528583
 10
131.4618886642832
 20
105.14944765528583
 10
130.99255869749607
 20
105.14944765528583
 10
130.50579415446663
 20
105.14944765528583
 10
130.0190296114372
 20
105.14944765528583
 10
129.53226506840775
 20
105.14944765528583
 10
129.04550052537832
 20
105.14944765528583
 10
128.57617055859117
 20
105.14944765528583
 10
128.11381442230095
 20
105.14944765528583
 10
127.67185523202954
 20
105.14944765528583
 10
127.25709196978323
 20
105.14944765528583
 10
126.85209882695312
 20
105.14944765528583
 10
126.50572640062028
 20
105.14944765528583
 10
126.15935397428744
 20
105.14944765528583
 10
125.88648960140756
 20
105.14944765528583
 10
125.62587657076983
 20
105.14944765528583
 10
125.42173646657584
 20
105.14944765528583
 10
125.25995105721464
 20
105.14944765528583
 10
125.12871999564172
 20
105.14944765528583
 10
125.07387480353945
 20
105.14944765528583
 10
125.01902961143719
 20
105.14944765528583
  0
LWPOLYLINE
  5
42
330
17
100
AcDbEntity
  8
HIDDEN
100
AcDbPolyline
 90
33
 70
0
 10
141.0190296114372
 20
95.14944765528583
 10
141.07387480353947
 20
95.14944765528583
 10
141.12871999564172
 20
95.14944765528583
 10
141.25995105721464
 20
95.14944765528583
 10
141.42173646657585
 20
95.14944765528583
 10
141.62587657076983
 20
95.14944765528583
 10
141.88648960140756
 20
95.14944765528583
 10
142.15935397428746
 20
95.14944765528583
 10
142.5057264006203
 20
95.14944765528583
 10
142.85209882695312
 20
95.14944765528583
 10
143.25709196978323
 20
95.14944765528583
 10
143.67185523202954
 20
95.14944765528583
 10
144.11381442230095
 20
95.14944765528583
 10
144.57617055859117
 20
95.14944765528583
 10
145.04550052537832
 20
95.14944765528583
 10
145.53226506840775
 20
95.14944765528583
 10
146.0190296114372
 20
95.14944765528583
 10
146.50579415446663
 20
95.14944765528583
 10
146.99255869749607
 20
95.14944765528583
 10
147.4618886642832
 20
95.14944765528583
 10
147.92424480057343
 20
95.14944765528583
 10
148.36620399084484
 20
95.14944765528583
 10
148.78096725309115
 20
95.14944765528583
 10
149.18596039592126
 20
95.14944765528583
 10
149.5323328222541
 20
95.14944765528583
 10
149.87870524858693
 20
95.14944765528583
 10
150.15156962146682
 20
95.14944765528583
 10
150.41218265210455
 20
95.14944765528583
 10
150.61632275629853
 20
95.14944765528583
 10
150.77810816565975
 20
95.14944765528583
 10
150.90933922723266
 20
95.14944765528583
 10
150.9641844193349
 20
95.14944765528583
 10
151.0190296114372
 20
95.14944765528583
  0
LWPOLYLINE
  5
43
330
17
100
AcDbEntity
  8
HIDDEN
100
AcDbPolyline
 90
33
 70
0
 10
151.0190296114372
 20
95.14944765528583
 10
150.9641844193349
 20
95.14944765528583
 10
150.90933922723266
 20
95.14944765528583
 10
150.77810816565975
 20
95.14944765528583
 10
150.61632275629853
 20
95.14944765528583
 10
150.41218265210455
 20
95.14944765528583
 10
150.15156962146682
 20
95.14944765528583
 10
149.87870524858693
 20
95.14944765528583
 10
149.5323328222541
 20
95.14944765528583
 10
149.18596039592126
 20
95.14944765528583
 10
148.78096725309115
 20
95.14944765528583
 10
148.36620399084484
 20
95.14944765528583
 10
147.92424480057343
 20
95.14944765528583
 10
147.4618886642832
 20
95.14944765528583
 10
146.99255869749607
 20
95.14944765528583
 10
146.50579415446663
 20
95.14944765528583
 10
146.0190296114372
 20
95.14944765528583
 10
145.53226506840775
 20
95.14944765528583
 10
145.04550052537832
 20
95.14944765528583
 10
144.57617055859117
 20
95.14944765528583
 10
144.11381442230095
 20
95.14944765528583
 10
143.67185523202954
 20
95.14944765528583
 10
143.25709196978323
 20
95.14944765528583
 10
142.85209882695312
 20
95.14944765528583
 10
142.5057264006203
 20
95.14944765528583
 10
142.15935397428746
 20
95.14944765528583
 10
141.88648960140756
 20
95.14944765528583
 10
141.62587657076983
 20
95.14944765528583
 10
141.42173646657585
 20
95.14944765528583
 10
141.25995105721464
 20
95.14944765528583
 10
141.12871999564172
 20
95.14944765528583
 10
141.07387480353947
 20
95.14944765528583
 10
141.0190296114372
 20
95.14944765528583
  0
LWPOLYLINE
  5
44
330
17
100
AcDbEntity
  8
HIDDEN
100
AcDbPolyline
 90
33
 70
0
 10
141.0190296114372
 20
105.14944765528583
 10
141.07387480353947
 20
105.14944765528583
 10
141.12871999564172
 20
105.14944765528583
 10
141.25995105721464
 20
105.14944765528583
 10
141.42173646657585
 20
105.14944765528583
 10
141.62587657076983
 20
105.14944765528583
 10
141.88648960140756
 20
105.14944765528583
 10
142.15935397428746
 20
105.14944765528583
 10
142.5057264006203
 20
105.14944765528583
 10
142.85209882695312
 20
105.14944765528583
 10
143.25709196978323
 20
105.14944765528583
 10
143.67185523202954
 20
105.14944765528583
 10
144.11381442230095
 20
105.14944765528583
 10
144.57617055859117
 20
105.14944765528583
 10
145.04550052537832
 20
105.14944765528583
 10
145.53226506840775
 20
105.14944765528583
 10
146.0190296114372
 20
105.14944765528583
 10
146.50579415446663
 20
105.14944765528583
 10
146.99255869749607
 20
105.14944765528583
 10
147.4618886642832
 20
105.14944765528583
 10
147.92424480057343
 20
105.14944765528583
 10
148.36620399084484
 20
105.14944765528583
 10
148.78096725309115
 20
105.14944765528583
 10
149.18596039592126
 20
105.14944765528583
 10
149.5323328222541
 20
105.14944765528583
 10
149.87870524858693
 20
105.14944765528583
 10
150.15156962146682
 20
105.14944765528583
 10
150.41218265210455
 20
105.14944765528583
 10
150.61632275629853
 20
105.14944765528583
 10
150.77810816565975
 20
105.14944765528583
 10
150.90933922723266
 20
105.14944765528583
 10
150.9641844193349
 20
105.14944765528583
 10
151.0190296114372
 20
105.14944765528583
  0
LWPOLYLINE
  5
45
330
17
100
AcDbEntity
  8
HIDDEN
100
AcDbPolyline
 90
33
 70
0
 10
151.0190296114372
 20
105.14944765528583
 10
150.9641844193349
 20
105.14944765528583
 10
150.90933922723266
 20
105.14944765528583
 10
150.77810816565975
 20
105.14944765528583
 10
150.61632275629853
 20
105.14944765528583
 10
150.41218265210455
 20
105.14944765528583
 10
150.15156962146682
 20
105.14944765528583
 10
149.87870524858693
 20
105.14944765528583
 10
149.5323328222541
 20
105.14944765528583
 10
149.18596039592126
 20
105.14944765528583
 10
148.78096725309115
 20
105.14944765528583
 10
148.36620399084484
 20
105.14944765528583
 10
147.92424480057343
 20
105.14944765528583
 10
147.4618886642832
 20
105.14944765528583
 10
146.99255869749607
 20
105.14944765528583
 10
146.50579415446663
 20
105.14944765528583
 10
146.0190296114372
 20
105.14944765528583
 10
145.53226506840775
 20
105.14944765528583
 10
145.04550052537832
 20
105.14944765528583
 10
144.57617055859117
 20
105.14944765528583
 10
144.11381442230095
 20
105.14944765528583
 10
143.67185523202954
 20
105.14944765528583
 10
143.25709196978323
 20
105.14944765528583
 10
142.85209882695312
 20
105.14944765528583
 10
142.5057264006203
 20
105.14944765528583
 10
142.15935397428746
 20
105.14944765528583
 10
141.88648960140756
 20
105.14944765528583
 10
141.62587657076983
 20
105.14944765528583
 10
141.42173646657585
 20
105.14944765528583
 10
141.25995105721464
 20
105.14944765528583
 10
141.12871999564172
 20
105.14944765528583
 10
141.07387480353947
 20
105.14944765528583
 10
141.0190296114372
 20
105.14944765528583
  0
LINE
  5
46
330
17
100
AcDbEntity
  8
DIMENSION
100
AcDbLine
 10
118.01902961143719
 20
93.74944765528582
 30
0.0
 11
118.01902961143719
 21
82.54944765528583
 31
0.0
  0
LINE
  5
47
330
17
100
AcDbEntity
  8
DIMENSION
100
AcDbLine
 10
158.0190296114372
 20
93.74944765528582
 30
0.0
 11
158.0190296114372
 21
82.54944765528583
 31
0.0
  0
LINE
  5
48
330
17
100
AcDbEntity
  8
DIMENSION
100
AcDbLine
 10
118.01902961143719
 20
84.14944765528583
 30
0.0
 11
158.0190296114372
 21
84.14944765528583
 31
0.0
  0
SOLID
  5
49
330
17
100
AcDbEntity
  8
DIMENSION
100
AcDbTrace
 10
118.01902961143719
 20
84.14944765528583
 30
0.0
 11
121.4190296114372
 21
83.24944765528582
 31
0.0
 12
121.4190296114372
 22
85.04944765528583
 32
0.0
 13
121.4190296114372
 23
85.04944765528583
 33
0.0
  0
SOLID
  5
4A
330
17
100
AcDbEntity
  8
DIMENSION
100
AcDbTrace
 10
158.0190296114372
 20
84.14944765528583
 30
0.0
 11
154.61902961143718
 21
85.04944765528583
 31
0.0
 12
154.61902961143718
 22
83.24944765528582
 32
0.0
 13
154.61902961143718
 23
83.24944765528582
 33
0.0
  0
TEXT
  5
4B
330
17
100
AcDbEntity
  8
DIMENSION
100
AcDbText
 10
138.0190296114372
 20
81.94944765528584
 30
0.0
 40
3.2
  1
40.000
  7
LOFT_MONO
 72
1
 11
138.0190296114372
 21
81.94944765528584
 31
0.0
100
AcDbText
 73
2
  0
LINE
  5
4C
330
17
100
AcDbEntity
  8
DIMENSION
100
AcDbLine
 10
131.0190296114372
 20
95.14944765528583
 30
0.0
 11
130.90781280929673
 21
96.84628815414649
 31
0.0
  0
LINE
  5
4D
330
17
100
AcDbEntity
  8
DIMENSION
100
AcDbLine
 10
130.90781280929673
 20
96.84628815414649
 30
0.0
 11
130.57606535319508
 21
98.51409524161859
 31
0.0
  0
LINE
  5
4E
330
17
100
AcDbEntity
  8
DIMENSION
100
AcDbLine
 10
130.57606535319508
 20
98.51409524161859
 30
0.0
 11
130.02946353408393
 21
100.12433227603199
 31
0.0
  0
LINE
  5
4F
330
17
100
AcDbEntity
  8
DIMENSION
100
AcDbLine
 10
130.02946353408393
 20
100.12433227603199
 30
0.0
 11
129.2773598606349
 21
101.64944765528583
 31
0.0
  0
LINE
  5
50
330
17
100
AcDbEntity
  8
DIMENSION
100
AcDbLine
 10
129.2773598606349
 20
101.64944765528583
 30
0.0
 11
128.33262303522324
 21
103.0633462323992
 31
0.0
  0
LINE
  5
51
330
17
100
AcDbEntity
  8
DIMENSION
100
AcDbLine
 10
128.33262303522324
 20
103.0633462323992
 30
0.0
 11
127.21141776686231
 21
104.34183581071095
 31
0.0
  0
LINE
  5
52
330
17
100
AcDbEntity
  8
DIMENSION
100
AcDbLine
 10
127.21141776686231
 20
104.34183581071095
 30
0.0
 11
125.93292818855056
 21
105.46304107907189
 31
0.0
  0
LINE
  5
53
330
17
100
AcDbEntity
  8
DIMENSION
100
AcDbLine
 10
125.93292818855056
 20
105.46304107907189
 30
0.0
 11
124.51902961143719
 21
106.40777790448352
 31
0.0
  0
LINE
  5
54
330
17
100
AcDbEntity
  8
DIMENSION
100
AcDbLine
 10
124.51902961143719
 20
106.40777790448352
 30
0.0
 11
122.99391423218336
 21
107.15988157793255
 31
0.0
  0
LINE
  5
55
330
17
100
AcDbEntity
  8
DIMENSION
100
AcDbLine
 10
122.99391423218336
 20
107.15988157793255
 30
0.0
 11
121.38367719776996
 21
107.70648339704371
 31
0.0
  0
LINE
  5
56
330
17
100
AcDbEntity
  8
DIMENSION
100
AcDbLine
 10
121.38367719776996
 20
107.70648339704371
 30
0.0
 11
119.71587011029786
 21
108.03823085314536
 31
0.0
  0
LINE
  5
57
330
17
100
AcDbEntity
  8
DIMENSION
100
AcDbLine
 10
119.71587011029786
 20
108.03823085314536
 30
0.0
 11
118.01902961143719
 21
108.14944765528583
 31
0.0
  0
LINE
  5
58
330
17
100
AcDbEntity
  8
DIMENSION
100
AcDbLine
 10
119.4190296114372
 20
95.14944765528583
 30
0.0
 11
132.61902961143718
 21
95.14944765528583
 31
0.0
  0
LINE
  5
59
330
17
100
AcDbEntity
  8
DIMENSION
100
AcDbLine
 10
118.01902961143719
 20
96.54944765528583
 30
0.0
 11
118.01902961143719
 21
109.74944765528582
 31
0.0
  0
SOLID
  5
5A
330
17
100
AcDbEntity
  8
DIMENSION
100
AcDbTrace
 10
131.0190296114372
 20
95.14944765528583
 30
0.0
 11
130.1457606325785
 21
91.7424840084937
 31
0.0
 12
131.9457051163391
 22
91.75662103009338
 32
0.0
 13
131.9457051163391
 23
91.75662103009338
 33
0.0
  0
SOLID
  5
5B
330
17
100
AcDbEntity
  8
DIMENSION
100
AcDbTrace
 10
118.01902961143719
 20
108.14944765528583
 30
0.0
 11
114.62620298624475
 21
109.07612316018775
 31
0.0
 12
114.61206596464507
 22
107.27617867642712
 32
0.0
 13
114.61206596464507
 23
107.27617867642712
 33
0.0
  0
TEXT
  5
5C
330
17
100
AcDbEntity
  8
DIMENSION
100
AcDbText
 10
130.06812916285597
 20
107.19854720670459
 30
0.0
 40
3.2
  1
90.0°
  7
LOFT_MONO
 72
1
 11
130.06812916285597
 21
107.19854720670459
 31
0.0
100
AcDbText
 73
2
  0
TEXT
  5
5D
330
17
100
AcDbEntity
  8
TITLE
100
AcDbText
 10
138.0190296114372
 20
87.14944765528583
 30
0.0
 40
3.4
  1
FRONT
  7
LOFT_MONO
 72
1
 11
138.0190296114372
 21
87.14944765528583
 31
0.0
100
AcDbText
 73
2
  0
LINE
  5
5E
330
17
100
AcDbEntity
  8
VISIBLE
100
AcDbLine
 10
118.01902961143719
 20
46.149447655285826
 30
0.0
 11
118.01902961143719
 21
71.14944765528583
 31
0.0
  0
LINE
  5
5F
330
17
100
AcDbEntity
  8
VISIBLE
100
AcDbLine
 10
118.01902961143719
 20
46.149447655285826
 30
0.0
 11
158.0190296114372
 21
46.149447655285826
 31
0.0
  0
LINE
  5
60
330
17
100
AcDbEntity
  8
VISIBLE
100
AcDbLine
 10
118.01902961143719
 20
71.14944765528583
 30
0.0
 11
158.0190296114372
 21
71.14944765528583
 31
0.0
  0
LINE
  5
61
330
17
100
AcDbEntity
  8
VISIBLE
100
AcDbLine
 10
158.0190296114372
 20
46.149447655285826
 30
0.0
 11
158.0190296114372
 21
71.14944765528583
 31
0.0
  0
CIRCLE
  5
62
330
17
100
AcDbEntity
  8
VISIBLE
100
AcDbCircle
 10
130.0190296114372
 20
58.649447655285826
 30
0.0
 40
5.0
  0
CIRCLE
  5
63
330
17
100
AcDbEntity
  8
VISIBLE
100
AcDbCircle
 10
146.0190296114372
 20
58.649447655285826
 30
0.0
 40
5.0
  0
LINE
  5
64
330
17
100
AcDbEntity
  8
DIMENSION
100
AcDbLine
 10
125.01902961143719
 20
58.649447655285826
 30
0.0
 11
135.0190296114372
 21
58.649447655285826
 31
0.0
  0
SOLID
  5
65
330
17
100
AcDbEntity
  8
DIMENSION
100
AcDbTrace
 10
125.01902961143719
 20
58.649447655285826
 30
0.0
 11
128.4190296114372
 21
57.74944765528582
 31
0.0
 12
128.4190296114372
 22
59.54944765528583
 32
0.0
 13
128.4190296114372
 23
59.54944765528583
 33
0.0
  0
SOLID
  5
66
330
17
100
AcDbEntity
  8
DIMENSION
100
AcDbTrace
 10
135.0190296114372
 20
58.649447655285826
 30
0.0
 11
131.61902961143718
 21
59.54944765528583
 31
0.0
 12
131.61902961143718
 22
57.74944765528582
 32
0.0
 13
131.61902961143718
 23
57.74944765528582
 33
0.0
  0
TEXT
  5
67
330
17
100
AcDbEntity
  8
DIMENSION
100
AcDbText
 10
115.77502961143719
 20
58.649447655285826
 30
0.0
 40
3.2
  1
Ø10.000
  7
LOFT_MONO
 72
1
 11
115.77502961143719
 21
58.649447655285826
 31
0.0
100
AcDbText
 73
2
  0
LINE
  5
68
330
17
100
AcDbEntity
  8
DIMENSION
100
AcDbLine
 10
130.0190296114372
 20
58.649447655285826
 30
0.0
 11
133.55456351736993
 21
62.184981561218564
 31
0.0
  0
SOLID
  5
69
330
17
100
AcDbEntity
  8
DIMENSION
100
AcDbTrace
 10
133.55456351736993
 20
62.184981561218564
 30
0.0
 11
130.51400435826778
 21
60.41721460825221
 31
0.0
 12
131.78679656440357
 22
59.14442240211642
 32
0.0
 13
131.78679656440357
 23
59.14442240211642
 33
0.0
  0
TEXT
  5
6A
330
17
100
AcDbEntity
  8
DIMENSION
100
AcDbText
 10
140.09671545690787
 20
68.72713350075651
 30
0.0
 40
3.2
  1
R5.000
  7
LOFT_MONO
 72
1
 11
140.09671545690787
 21
68.72713350075651
 31
0.0
100
AcDbText
 73
2
  0
TEXT
  5
6B
330
17
100
AcDbEntity
  8
TITLE
100
AcDbText
 10
138.0190296114372
 20
38.149447655285826
 30
0.0
 40
3.4
  1
TOP
  7
LOFT_MONO
 72
1
 11
138.0190296114372
 21
38.149447655285826
 31
0.0
100
AcDbText
 73
2
  0
LINE
  5
6C
330
17
100
AcDbEntity
  8
VISIBLE
100
AcDbLine
 10
69.01902961143719
 20
95.14944765528583
 30
0.0
 11
69.01902961143719
 21
105.14944765528583
 31
0.0
  0
LINE
  5
6D
330
17
100
AcDbEntity
  8
VISIBLE
100
AcDbLine
 10
69.01902961143719
 20
95.14944765528583
 30
0.0
 11
94.01902961143719
 21
95.14944765528583
 31
0.0
  0
LINE
  5
6E
330
17
100
AcDbEntity
  8
VISIBLE
100
AcDbLine
 10
69.01902961143719
 20
105.14944765528583
 30
0.0
 11
94.01902961143719
 21
105.14944765528583
 31
0.0
  0
LINE
  5
6F
330
17
100
AcDbEntity
  8
HIDDEN
100
AcDbLine
 10
76.51902961143719
 20
95.14944765528583
 30
0.0
 11
76.51902961143719
 21
105.14944765528583
 31
0.0
  0
LINE
  5
70
330
17
100
AcDbEntity
  8
HIDDEN
100
AcDbLine
 10
86.51902961143719
 20
95.14944765528583
 30
0.0
 11
86.51902961143719
 21
105.14944765528583
 31
0.0
  0
LINE
  5
71
330
17
100
AcDbEntity
  8
VISIBLE
100
AcDbLine
 10
94.01902961143719
 20
95.14944765528583
 30
0.0
 11
94.01902961143719
 21
105.14944765528583
 31
0.0
  0
LWPOLYLINE
  5
72
330
17
100
AcDbEntity
  8
HIDDEN
100
AcDbPolyline
 90
33
 70
0
 10
76.51902961143719
 20
95.14944765528583
 10
76.53278415229572
 20
95.14944765528583
 10
76.54653869315425
 20
95.14944765528583
 10
76.57981902714506
 20
95.14944765528583
 10
76.6209096783888
 20
95.14944765528583
 10
76.67349434603443
 20
95.14944765528583
 10
76.74140436888263
 20
95.14944765528583
 10
76.81302372939722
 20
95.14944765528583
 10
76.90689911591022
 20
95.14944765528583
 10
77.00077450242324
 20
95.14944765528583
 10
77.1158940256891
 20
95.14944765528583
 10
77.23455423841376
 20
95.14944765528583
 10
77.36652451124608
 20
95.14944765528583
 10
77.50847732915915
 20
95.14944765528583
 10
77.65657513739797
 20
95.14944765528583
 10
77.82003542145121
 20
95.14944765528583
 10
77.98349570550445
 20
95.14944765528583
 10
78.16640784778404
 20
95.14944765528583
 10
78.34931999006363
 20
95.14944765528583
 10
78.54448329799258
 20
95.14944765528583
 10
78.74454707218126
 20
95.14944765528583
 10
78.95088329517093
 20
95.14944765528583
 10
79.16558278322856
 20
95.14944765528583
 10
79.38198737746265
 20
95.14944765528583
 10
79.60862260875537
 20
95.14944765528583
 10
79.83525784004811
 20
95.14944765528583
 10
80.06968079165921
 20
95.14944765528583
 10
80.30540169665669
 20
95.14944765528583
 10
80.54462051397188
 20
95.14944765528583
 10
80.78646276552533
 20
95.14944765528583
 10
81.02918502848522
 20
95.14944765528583
 10
81.2741073199612
 20
95.14944765528583
 10
81.51902961143719
 20
95.14944765528583
  0
LWPOLYLINE
  5
73
330
17
100
AcDbEntity
  8
HIDDEN
100
AcDbPolyline
 90
33
 70
0
 10
86.51902961143719
 20
95.14944765528583
 10
86.46418441933493
 20
95.14944765528583
 10
86.40933922723266
 20
95.14944765528583
 10
86.27810816565975
 20
95.14944765528583
 10
86.11632275629854
 20
95.14944765528583
 10
85.91218265210455
 20
95.14944765528583
 10
85.65156962146682
 20
95.14944765528583
 10
85.37870524858694
 20
95.14944765528583
 10
85.03233282225409
 20
95.14944765528583
 10
84.68596039592126
 20
95.14944765528583
 10
84.28096725309115
 20
95.14944765528583
 10
83.86620399084484
 20
95.14944765528583
 10
83.42424480057343
 20
95.14944765528583
 10
82.96188866428321
 20
95.14944765528583
 10
82.49255869749607
 20
95.14944765528583
 10
82.00579415446663
 20
95.14944765528583
 10
81.51902961143719
 20
95.14944765528583
 10
81.03226506840775
 20
95.14944765528583
 10
80.54550052537832
 20
95.14944765528583
 10
80.07617055859117
 20
95.14944765528583
 10
79.61381442230095
 20
95.14944765528583
 10
79.17185523202954
 20
95.14944765528583
 10
78.75709196978323
 20
95.14944765528583
 10
78.35209882695312
 20
95.14944765528583
 10
78.00572640062029
 20
95.14944765528583
 10
77.65935397428744
 20
95.14944765528583
 10
77.38648960140756
 20
95.14944765528583
 10
77.12587657076983
 20
95.14944765528583
 10
76.92173646657584
 20
95.14944765528583
 10
76.75995105721464
 20
95.14944765528583
 10
76.62871999564172
 20
95.14944765528583
 10
76.57387480353945
 20
95.14944765528583
 10
76.51902961143719
 20
95.14944765528583
  0
LWPOLYLINE
  5
74
330
17
100
AcDbEntity
  8
HIDDEN
100
AcDbPolyline
 90
33
 70
0
 10
76.51902961143719
 20
105.14944765528583
 10
76.53278415229572
 20
105.14944765528583
 10
76.54653869315425
 20
105.14944765528583
 10
76.57981902714506
 20
105.14944765528583
 10
76.6209096783888
 20
105.14944765528583
 10
76.67349434603443
 20
105.14944765528583
 10
76.74140436888263
 20
105.14944765528583
 10
76.81302372939722
 20
105.14944765528583
 10
76.90689911591022
 20
105.14944765528583
 10
77.00077450242324
 20
105.14944765528583
 10
77.1158940256891
 20
105.14944765528583
 10
77.23455423841376
 20
105.14944765528583
 10
77.36652451124608
 20
105.14944765528583
 10
77.50847732915915
 20
105.14944765528583
 10
77.65657513739797
 20
105.14944765528583
 10
77.82003542145121
 20
105.14944765528583
 10
77.98349570550445
 20
105.14944765528583
 10
78.16640784778404
 20
105.14944765528583
 10
78.34931999006363
 20
105.14944765528583
 10
78.54448329799258
 20
105.14944765528583
 10
78.74454707218126
 20
105.14944765528583
 10
78.95088329517093
 20
105.14944765528583
 10
79.16558278322856
 20
105.14944765528583
 10
79.38198737746265
 20
105.14944765528583
 10
79.60862260875537
 20
105.14944765528583
 10
79.83525784004811
 20
105.14944765528583
 10
80.06968079165921
 20
105.14944765528583
 10
80.30540169665669
 20
105.14944765528583
 10
80.54462051397188
 20
105.14944765528583
 10
80.78646276552533
 20
105.14944765528583
 10
81.02918502848522
 20
105.14944765528583
 10
81.2741073199612
 20
105.14944765528583
 10
81.51902961143719
 20
105.14944765528583
  0
LWPOLYLINE
  5
75
330
17
100
AcDbEntity
  8
HIDDEN
100
AcDbPolyline
 90
33
 70
0
 10
86.51902961143719
 20
105.14944765528583
 10
86.46418441933493
 20
105.14944765528583
 10
86.40933922723266
 20
105.14944765528583
 10
86.27810816565975
 20
105.14944765528583
 10
86.11632275629854
 20
105.14944765528583
 10
85.91218265210455
 20
105.14944765528583
 10
85.65156962146682
 20
105.14944765528583
 10
85.37870524858694
 20
105.14944765528583
 10
85.03233282225409
 20
105.14944765528583
 10
84.68596039592126
 20
105.14944765528583
 10
84.28096725309115
 20
105.14944765528583
 10
83.86620399084484
 20
105.14944765528583
 10
83.42424480057343
 20
105.14944765528583
 10
82.96188866428321
 20
105.14944765528583
 10
82.49255869749607
 20
105.14944765528583
 10
82.00579415446663
 20
105.14944765528583
 10
81.51902961143719
 20
105.14944765528583
 10
81.03226506840775
 20
105.14944765528583
 10
80.54550052537832
 20
105.14944765528583
 10
80.07617055859117
 20
105.14944765528583
 10
79.61381442230095
 20
105.14944765528583
 10
79.17185523202954
 20
105.14944765528583
 10
78.75709196978323
 20
105.14944765528583
 10
78.35209882695312
 20
105.14944765528583
 10
78.00572640062029
 20
105.14944765528583
 10
77.65935397428744
 20
105.14944765528583
 10
77.38648960140756
 20
105.14944765528583
 10
77.12587657076983
 20
105.14944765528583
 10
76.92173646657584
 20
105.14944765528583
 10
76.75995105721464
 20
105.14944765528583
 10
76.62871999564172
 20
105.14944765528583
 10
76.57387480353945
 20
105.14944765528583
 10
76.51902961143719
 20
105.14944765528583
  0
LWPOLYLINE
  5
76
330
17
100
AcDbEntity
  8
HIDDEN
100
AcDbPolyline
 90
33
 70
0
 10
81.51902961143719
 20
95.14944765528583
 10
81.76395190291318
 20
95.14944765528583
 10
82.00887419438916
 20
95.14944765528583
 10
82.25159645734905
 20
95.14944765528583
 10
82.4934387089025
 20
95.14944765528583
 10
82.73265752621768
 20
95.14944765528583
 10
82.96837843121517
 20
95.14944765528583
 10
83.20280138282627
 20
95.14944765528583
 10
83.429436614119
 20
95.14944765528583
 10
83.65607184541173
 20
95.14944765528583
 10
83.87247643964582
 20
95.14944765528583
 10
84.08717592770346
 20
95.14944765528583
 10
84.29351215069312
 20
95.14944765528583
 10
84.4935759248818
 20
95.14944765528583
 10
84.68873923281075
 20
95.14944765528583
 10
84.87165137509034
 20
95.14944765528583
 10
85.05456351736993
 20
95.14944765528583
 10
85.21802380142317
 20
95.14944765528583
 10
85.38148408547642
 20
95.14944765528583
 10
85.52958189371523
 20
95.14944765528583
 10
85.6715347116283
 20
95.14944765528583
 10
85.80350498446062
 20
95.14944765528583
 10
85.92216519718528
 20
95.14944765528583
 10
86.03728472045114
 20
95.14944765528583
 10
86.13116010696416
 20
95.14944765528583
 10
86.22503549347717
 20
95.14944765528583
 10
86.29665485399175
 20
95.14944765528583
 10
86.36456487683995
 20
95.14944765528583
 10
86.41714954448558
 20
95.14944765528583
 10
86.4582401957293
 20
95.14944765528583
 10
86.49152052972013
 20
95.14944765528583
 10
86.50527507057866
 20
95.14944765528583
 10
86.51902961143719
 20
95.14944765528583
  0
LWPOLYLINE
  5
77
330
17
100
AcDbEntity
  8
HIDDEN
100
AcDbPolyline
 90
33
 70
0
 10
81.51902961143719
 20
105.14944765528583
 10
81.76395190291318
 20
105.14944765528583
 10
82.00887419438916
 20
105.14944765528583
 10
82.25159645734905
 20
105.14944765528583
 10
82.4934387089025
 20
105.14944765528583
 10
82.73265752621768
 20
105.14944765528583
 10
82.96837843121517
 20
105.14944765528583
 10
83.20280138282627
 20
105.14944765528583
 10
83.429436614119
 20
105.14944765528583
 10
83.65607184541173
 20
105.14944765528583
 10
83.87247643964582
 20
105.14944765528583
 10
84.08717592770346
 20
105.14944765528583
 10
84.29351215069312
 20
105.14944765528583
 10
84.4935759248818
 20
105.14944765528583
 10
84.68873923281075
 20
105.14944765528583
 10
84.87165137509034
 20
105.14944765528583
 10
85.05456351736993
 20
105.14944765528583
 10
85.21802380142317
 20
105.14944765528583
 10
85.38148408547642
 20
105.14944765528583
 10
85.52958189371523
 20
105.14944765528583
 10
85.6715347116283
 20
105.14944765528583
 10
85.80350498446062
 20
105.14944765528583
 10
85.92216519718528
 20
105.14944765528583
 10
86.03728472045114
 20
105.14944765528583
 10
86.13116010696416
 20
105.14944765528583
 10
86.22503549347717
 20
105.14944765528583
 10
86.29665485399175
 20
105.14944765528583
 10
86.36456487683995
 20
105.14944765528583
 10
86.41714954448558
 20
105.14944765528583
 10
86.4582401957293
 20
105.14944765528583
 10
86.49152052972013
 20
105.14944765528583
 10
86.50527507057866
 20
105.14944765528583
 10
86.51902961143719
 20
105.14944765528583
  0
TEXT
  5
78
330
17
100
AcDbEntity
  8
TITLE
100
AcDbText
 10
81.51902961143719
 20
87.14944765528583
 30
0.0
 40
3.4
  1
RIGHT
  7
LOFT_MONO
 72
1
 11
81.51902961143719
 21
87.14944765528583
 31
0.0
100
AcDbText
 73
2
  0
LINE
  5
79
330
17
100
AcDbEntity
  8
VISIBLE
100
AcDbLine
 10
182.0190296114372
 20
139.3556549168824
 30
0.0
 11
182.0190296114372
 21
147.52062072615965
 31
0.0
  0
LINE
  5
7A
330
17
100
AcDbEntity
  8
VISIBLE
100
AcDbLine
 10
182.0190296114372
 20
139.3556549168824
 30
0.0
 11
199.6966991411009
 21
129.14944765528583
 31
0.0
  0
LINE
  5
7B
330
17
100
AcDbEntity
  8
HIDDEN
100
AcDbLine
 10
182.0190296114372
 20
139.3556549168824
 30
0.0
 11
210.3033008588991
 21
155.68558653543693
 31
0.0
  0
LINE
  5
7C
330
17
100
AcDbEntity
  8
VISIBLE
100
AcDbLine
 10
182.0190296114372
 20
147.52062072615965
 30
0.0
 11
199.6966991411009
 21
137.31441346456307
 31
0.0
  0
LINE
  5
7D
330
17
100
AcDbEntity
  8
VISIBLE
100
AcDbLine
 10
182.0190296114372
 20
147.52062072615965
 30
0.0
 11
210.3033008588991
 21
163.85055234471417
 31
0.0
  0
LINE
  5
7E
330
17
100
AcDbEntity
  8
HIDDEN
100
AcDbLine
 10
194.34314575050763
 20
139.15153077165047
 30
0.0
 11
194.34314575050763
 21
147.31649658092772
 31
0.0
  0
LINE
  5
7F
330
17
100
AcDbEntity
  8
VISIBLE
100
AcDbLine
 10
199.6966991411009
 20
129.14944765528583
 30
0.0
 11
199.6966991411009
 21
137.31441346456307
 31
0.0
  0
LINE
  5
80
330
17
100
AcDbEntity
  8
VISIBLE
100
AcDbLine
 10
199.6966991411009
 20
129.14944765528583
 30
0.0
 11
227.9809703885628
 21
145.47937927384035
 31
0.0
  0
LINE
  5
81
330
17
100
AcDbEntity
  8
VISIBLE
100
AcDbLine
 10
199.6966991411009
 20
137.31441346456307
 30
0.0
 11
227.9809703885628
 21
153.6443450831176
 31
0.0
  0
LINE
  5
82
330
17
100
AcDbEntity
  8
HIDDEN
100
AcDbLine
 10
204.34314575050763
 20
139.15153077165047
 30
0.0
 11
204.34314575050763
 21
147.31649658092772
 31
0.0
  0
LINE
  5
83
330
17
100
AcDbEntity
  8
HIDDEN
100
AcDbLine
 10
205.65685424949237
 20
145.68350341907228
 30
0.0
 11
205.65685424949237
 21
153.84846922834953
 31
0.0
  0
LINE
  5
84
330
17
100
AcDbEntity
  8
HIDDEN
100
AcDbLine
 10
210.3033008588991
 20
155.68558653543693
 30
0.0
 11
210.3033008588991
 21
163.85055234471417
 31
0.0
  0
LINE
  5
85
330
17
100
AcDbEntity
  8
HIDDEN
100
AcDbLine
 10
210.3033008588991
 20
155.68558653543693
 30
0.0
 11
227.9809703885628
 21
145.47937927384032
 31
0.0
  0
LINE
  5
86
330
17
100
AcDbEntity
  8
VISIBLE
100
AcDbLine
 10
210.3033008588991
 20
163.85055234471417
 30
0.0
 11
227.9809703885628
 21
153.6443450831176
 31
0.0
  0
LINE
  5
87
330
17
100
AcDbEntity
  8
HIDDEN
100
AcDbLine
 10
215.65685424949237
 20
145.68350341907228
 30
0.0
 11
215.65685424949237
 21
153.84846922834953
 31
0.0
  0
LINE
  5
88
330
17
100
AcDbEntity
  8
VISIBLE
100
AcDbLine
 10
227.9809703885628
 20
145.47937927384032
 30
0.0
 11
227.9809703885628
 21
153.6443450831176
 31
0.0
  0
LWPOLYLINE
  5
89
330
17
100
AcDbEntity
  8
HIDDEN
100
AcDbPolyline
 90
33
 70
0
 10
202.87867965644037
 20
141.19277222396977
 10
202.6090099652765
 20
141.33740442846687
 10
202.3216422729698
 20
141.47019119422788
 10
202.0181338499431
 20
141.59041293826414
 10
201.7001294346376
 20
141.69741816852837
 10
201.36935232053256
 20
141.79062701440654
 10
201.0275950174687
 20
141.86953436908703
 10
200.67670953788212
 20
141.93371262677806
 10
200.31859736058826
 20
141.98281399994062
 10
199.95519912650371
 20
142.01657240397927
 10
199.5884841221447
 20
142.03480489917763
 10
199.22043960789307
 20
142.03741268206448
 10
198.85306004885982
 20
142.02438162083845
 10
198.48833630670612
 20
141.99578233194933
 10
198.1282448509913
 20
141.95176979742155
 10
197.77473704851317
 20
141.8925825249931
 10
197.42972858868217
 20
141.81854125562137
 10
197.0950891022346
 20
141.73004722536018
 10
196.7726320295415
 20
141.62757999102695
 10
196.4641047934184
 20
141.51169483144255
 10
196.17117932968938
 20
141.38301973832733
 10
195.89544302682228
 20
141.2422520131596
 10
195.63839012373282
 20
141.0901544884386
 10
195.4014136123746
 20
140.92755139382888
 10
195.18579768899488
 20
140.7553238895885
 10
194.99271079496407
 20
140.5744052914852
 10
194.8231992848904
 20
140.3857760130773
 10
194.6781817563339
 20
140.19045825276788
 10
194.55844407184657
 20
139.98951045442288
 10
194.46463510031498
 20
139.78402157157223
 10
194.3972632006837
 20
139.5751051662761
 10
194.35669346711416
 20
139.3638933746359
 10
194.34314575050763
 20
139.15153077165047
  0
LWPOLYLINE
  5
8A
330
17
100
AcDbEntity
  8
HIDDEN
100
AcDbPolyline
 90
33
 70
0
 10
194.34314575050763
 20
139.15153077165047
 10
194.36722211714664
 20
138.86857965987812
 10
194.43921934849146
 20
138.58835352198895
 10
194.55844407184657
 20
138.31355108887803
 10
194.72374808795118
 20
138.0468188581985
 10
194.93353942876584
 20
137.79072560714246
 10
195.18579768899488
 20
137.54773765371243
 10
195.47809348369393
 20
137.3201951047306
 10
195.8076118445749
 20
137.11028931933114
 10
196.17117932968938
 20
136.9200418049736
 10
196.56529458540962
 20
136.75128474922113
 10
196.98616206637763
 20
136.60564337477257
 10
197.42972858868217
 20
136.48452028767957
 10
197.8917223642353
 20
136.38908196948347
 10
198.36769414042698
 20
136.32024754336032
 10
198.85306004885982
 20
136.27867992246246
 10
199.34314575050763
 20
136.26477942570233
 10
199.83323145215542
 20
136.27867992246246
 10
200.31859736058826
 20
136.32024754336032
 10
200.79456913677993
 20
136.38908196948347
 10
201.25656291233307
 20
136.48452028767957
 10
201.7001294346376
 20
136.60564337477257
 10
202.12099691560562
 20
136.75128474922113
 10
202.51511217132585
 20
136.9200418049736
 10
202.87867965644037
 20
137.11028931933114
 10
203.2081980173213
 20
137.3201951047306
 10
203.50049381202035
 20
137.54773765371243
 10
203.7527520722494
 20
137.79072560714246
 10
203.96254341306405
 20
138.0468188581985
 10
204.12784742916867
 20
138.31355108887803
 10
204.24707215252377
 20
138.58835352198895
 10
204.3190693838686
 20
138.86857965987812
 10
204.34314575050763
 20
139.15153077165047
  0
LWPOLYLINE
  5
8B
330
17
100
AcDbEntity
  8
VISIBLE
100
AcDbPolyline
 90
33
 70
0
 10
202.87867965644037
 20
149.35773803324705
 10
202.6090099652765
 20
149.50237023774415
 10
202.3216422729698
 20
149.63515700350516
 10
202.0181338499431
 20
149.75537874754139
 10
201.7001294346376
 20
149.86238397780562
 10
201.36935232053256
 20
149.9555928236838
 10
201.0275950174687
 20
150.03450017836428
 10
200.67670953788212
 20
150.0986784360553
 10
200.31859736058826
 20
150.14777980921787
 10
199.95519912650371
 20
150.18153821325652
 10
199.5884841221447
 20
150.19977070845488
 10
199.22043960789307
 20
150.20237849134173
 10
198.85306004885982
 20
150.1893474301157
 10
198.48833630670612
 20
150.1607481412266
 10
198.1282448509913
 20
150.11673560669882
 10
197.77473704851317
 20
150.05754833427034
 10
197.42972858868217
 20
149.98350706489862
 10
197.0950891022346
 20
149.89501303463746
 10
196.7726320295415
 20
149.79254580030423
 10
196.4641047934184
 20
149.6766606407198
 10
196.17117932968938
 20
149.54798554760458
 10
195.89544302682228
 20
149.40721782243688
 10
195.63839012373282
 20
149.25512029771588
 10
195.4014136123746
 20
149.09251720310615
 10
195.18579768899488
 20
148.9202896988658
 10
194.99271079496407
 20
148.73937110076247
 10
194.8231992848904
 20
148.55074182235455
 10
194.6781817563339
 20
148.35542406204516
 10
194.55844407184657
 20
148.15447626370016
 10
194.46463510031498
 20
147.94898738084947
 10
194.3972632006837
 20
147.74007097555335
 10
194.35669346711416
 20
147.52885918391314
 10
194.34314575050763
 20
147.31649658092772
  0
LWPOLYLINE
  5
8C
330
17
100
AcDbEntity
  8
VISIBLE
100
AcDbPolyline
 90
33
 70
0
 10
194.34314575050763
 20
147.31649658092772
 10
194.36722211714664
 20
147.0335454691554
 10
194.43921934849146
 20
146.7533193312662
 10
194.55844407184657
 20
146.4785168981553
 10
194.72374808795118
 20
146.21178466747574
 10
194.93353942876584
 20
145.9556914164197
 10
195.18579768899488
 20
145.71270346298968
 10
195.47809348369393
 20
145.48516091400788
 10
195.8076118445749
 20
145.27525512860842
 10
196.17117932968938
 20
145.08500761425086
 10
196.56529458540962
 20
144.9162505584984
 10
196.98616206637763
 20
144.77060918404982
 10
197.42972858868217
 20
144.64948609695685
 10
197.8917223642353
 20
144.55404777876072
 10
198.36769414042698
 20
144.48521335263757
 10
198.85306004885982
 20
144.44364573173974
 10
199.34314575050763
 20
144.42974523497958
 10
199.83323145215542
 20
144.44364573173974
 10
200.31859736058826
 20
144.48521335263757
 10
200.79456913677993
 20
144.55404777876072
 10
201.25656291233307
 20
144.64948609695685
 10
201.7001294346376
 20
144.77060918404982
 10
202.12099691560562
 20
144.91625055849838
 10
202.51511217132585
 20
145.08500761425086
 10
202.87867965644037
 20
145.27525512860842
 10
203.2081980173213
 20
145.48516091400788
 10
203.50049381202035
 20
145.71270346298968
 10
203.7527520722494
 20
145.9556914164197
 10
203.96254341306405
 20
146.21178466747574
 10
204.12784742916867
 20
146.4785168981553
 10
204.24707215252377
 20
146.7533193312662
 10
204.3190693838686
 20
147.0335454691554
 10
204.34314575050763
 20
147.31649658092772
  0
LWPOLYLINE
  5
8D
330
17
100
AcDbEntity
  8
HIDDEN
100
AcDbPolyline
 90
33
 70
0
 10
204.34314575050763
 20
139.15153077165047
 10
204.34163984398864
 20
139.2223751961202
 10
204.33712303153348
 20
139.29317694655768
 10
204.32959803390108
 20
139.3638933746359
 10
204.3190693838686
 20
139.4344818834228
 10
204.30554342350118
 20
139.50489995304022
 10
204.28902830033152
 20
139.5751051662761
 10
204.26953396245233
 20
139.6450552341351
 10
204.24707215252377
 20
139.714708021312
 10
204.22165640070025
 20
139.78402157157223
 10
204.19330201648035
 20
139.85295413302492
 10
204.16202607948483
 20
139.92146418327266
 10
204.12784742916867
 20
139.98951045442288
 10
204.0907866534728
 20
140.05705195794633
 10
204.05086607642272
 20
140.12404800936673
 10
204.00810974468132
 20
140.19045825276788
 10
203.96254341306405
 20
140.25624268510245
 10
203.91419452902528
 20
140.32136168028816
 10
203.86309221612484
 20
140.3857760130773
 10
203.80926725648519
 20
140.4494468826844
 10
203.7527520722494
 20
140.51233593615848
 10
203.69358070605116
 20
140.5744052914852
 10
203.63178880050899
 20
140.63561756040588
 10
203.56741357675617
 20
140.69593587093857
 10
203.50049381202035
 20
140.7553238895885
 10
203.43106981626553
 20
140.8137458432339
 10
203.35918340791085
 20
140.87116654067435
 10
203.28487788864066
 20
140.92755139382888
 10
203.2081980173213
 20
140.98286643857034
 10
203.12918998304005
 20
141.03707835518406
 10
203.04790137728241
 20
141.0901544884386
 10
202.96438116526497
 20
141.14206286725602
 10
202.87867965644037
 20
141.19277222396977
  0
LWPOLYLINE
  5
8E
330
17
100
AcDbEntity
  8
VISIBLE
100
AcDbPolyline
 90
33
 70
0
 10
204.34314575050763
 20
147.31649658092772
 10
204.34163984398864
 20
147.38734100539745
 10
204.33712303153348
 20
147.45814275583496
 10
204.32959803390108
 20
147.52885918391314
 10
204.3190693838686
 20
147.59944769270007
 10
204.30554342350118
 20
147.6698657623175
 10
204.28902830033152
 20
147.74007097555335
 10
204.26953396245233
 20
147.81002104341235
 10
204.24707215252377
 20
147.87967383058924
 10
204.22165640070025
 20
147.94898738084947
 10
204.19330201648035
 20
148.0179199423022
 10
204.16202607948483
 20
148.08642999254994
 10
204.12784742916867
 20
148.15447626370016
 10
204.0907866534728
 20
148.22201776722358
 10
204.05086607642272
 20
148.28901381864398
 10
204.00810974468132
 20
148.35542406204516
 10
203.96254341306405
 20
148.4212084943797
 10
203.91419452902528
 20
148.4863274895654
 10
203.86309221612484
 20
148.55074182235455
 10
203.80926725648519
 20
148.6144126919617
 10
203.7527520722494
 20
148.67730174543573
 10
203.69358070605116
 20
148.73937110076247
 10
203.63178880050899
 20
148.80058336968312
 10
203.56741357675617
 20
148.86090168021585
 10
203.50049381202035
 20
148.9202896988658
 10
203.43106981626553
 20
148.97871165251115
 10
203.35918340791085
 20
149.03613234995163
 10
203.28487788864066
 20
149.09251720310615
 10
203.2081980173213
 20
149.1478322478476
 10
203.12918998304005
 20
149.2020441644613
 10
203.04790137728241
 20
149.25512029771588
 10
202.96438116526497
 20
149.30702867653326
 10
202.87867965644037
 20
149.35773803324705
  0
LWPOLYLINE
  5
8F
330
17
100
AcDbEntity
  8
HIDDEN
100
AcDbPolyline
 90
33
 70
0
 10
214.1923881554251
 20
147.72474487139158
 10
213.92271846426127
 20
147.8693770758887
 10
213.63535077195453
 20
148.0021638416497
 10
213.33184234892786
 20
148.12238558568595
 10
213.01383793362237
 20
148.22939081595015
 10
212.68306081951732
 20
148.32259966182835
 10
212.34130351645348
 20
148.40150701650884
 10
211.99041803686688
 20
148.46568527419987
 10
211.63230585957302
 20
148.51478664736243
 10
211.26890762548845
 20
148.54854505140108
 10
210.90219262112947
 20
148.56677754659944
 10
210.5341481068778
 20
148.5693853294863
 10
210.16676854784458
 20
148.55635426826026
 10
209.80204480569088
 20
148.52775497937114
 10
209.44195334997607
 20
148.48374244484336
 10
209.0884455474979
 20
148.4245551724149
 10
208.74343708766693
 20
148.35051390304315
 10
208.40879760121933
 20
148.262019872782
 10
208.08634052852628
 20
148.15955263844876
 10
207.77781329240315
 20
148.04366747886436
 10
207.48488782867415
 20
147.91499238574914
 10
207.20915152580704
 20
147.7742246605814
 10
206.95209862271759
 20
147.6221271358604
 10
206.71512211135934
 20
147.4595240412507
 10
206.49950618797965
 20
147.28729653701032
 10
206.30641929394884
 20
147.106377938907
 10
206.13690778387516
 20
146.91774866049911
 10
205.99189025531868
 20
146.7224309001897
 10
205.87215257083133
 20
146.5214831018447
 10
205.77834359929975
 20
146.31599421899404
 10
205.71097169966848
 20
146.1070778136979
 10
205.67040196609892
 20
145.8958660220577
 10
205.65685424949237
 20
145.68350341907228
  0
LWPOLYLINE
  5
90
330
17
100
AcDbEntity
  8
HIDDEN
100
AcDbPolyline
 90
33
 70
0
 10
205.65685424949237
 20
145.68350341907228
 10
205.6809306161314
 20
145.40055230729993
 10
205.75292784747623
 20
145.12032616941076
 10
205.87215257083133
 20
144.84552373629984
 10
206.03745658693595
 20
144.5787915056203
 10
206.2472479277506
 20
144.32269825456427
 10
206.49950618797965
 20
144.07971030113424
 10
206.7918019826787
 20
143.8521677521524
 10
207.12132034355963
 20
143.64226196675295
 10
207.48488782867415
 20
143.45201445239542
 10
207.87900308439436
 20
143.28325739664294
 10
208.2998705653624
 20
143.13761602219438
 10
208.74343708766693
 20
143.01649293510138
 10
209.20543086322007
 20
142.92105461690528
 10
209.68140263941174
 20
142.85222019078213
 10
210.16676854784458
 20
142.81065256988427
 10
210.65685424949237
 20
142.79675207312414
 10
211.14693995114018
 20
142.81065256988427
 10
211.63230585957302
 20
142.85222019078213
 10
212.1082776357647
 20
142.92105461690528
 10
212.57027141131783
 20
143.01649293510138
 10
213.01383793362237
 20
143.13761602219438
 10
213.43470541459038
 20
143.28325739664294
 10
213.8288206703106
 20
143.45201445239542
 10
214.1923881554251
 20
143.64226196675295
 10
214.52190651630607
 20
143.8521677521524
 10
214.81420231100512
 20
144.07971030113424
 10
215.06646057123416
 20
144.32269825456427
 10
215.27625191204882
 20
144.5787915056203
 10
215.44155592815343
 20
144.84552373629984
 10
215.56078065150854
 20
145.12032616941076
 10
215.63277788285336
 20
145.40055230729993
 10
215.65685424949237
 20
145.68350341907228
  0
LWPOLYLINE
  5
91
330
17
100
AcDbEntity
  8
VISIBLE
100
AcDbPolyline
 90
33
 70
0
 10
214.1923881554251
 20
155.88971068066886
 10
213.92271846426127
 20
156.03434288516596
 10
213.63535077195453
 20
156.16712965092697
 10
213.33184234892786
 20
156.2873513949632
 10
213.01383793362237
 20
156.39435662522743
 10
212.68306081951732
 20
156.4875654711056
 10
212.34130351645348
 20
156.5664728257861
 10
211.99041803686688
 20
156.63065108347712
 10
211.63230585957302
 20
156.67975245663968
 10
211.26890762548845
 20
156.71351086067833
 10
210.90219262112947
 20
156.7317433558767
 10
210.5341481068778
 20
156.73435113876354
 10
210.16676854784458
 20
156.7213200775375
 10
209.80204480569088
 20
156.69272078864842
 10
209.44195334997607
 20
156.64870825412063
 10
209.0884455474979
 20
156.58952098169215
 10
208.74343708766693
 20
156.51547971232043
 10
208.40879760121933
 20
156.42698568205927
 10
208.08634052852628
 20
156.32451844772604
 10
207.77781329240315
 20
156.2086332881416
 10
207.48488782867415
 20
156.0799581950264
 10
207.20915152580704
 20
155.9391904698587
 10
206.95209862271759
 20
155.7870929451377
 10
206.71512211135934
 20
155.62448985052797
 10
206.49950618797965
 20
155.4522623462876
 10
206.30641929394884
 20
155.27134374818428
 10
206.13690778387516
 20
155.08271446977636
 10
205.99189025531868
 20
154.88739670946697
 10
205.87215257083133
 20
154.68644891112197
 10
205.77834359929975
 20
154.48096002827128
 10
205.71097169966848
 20
154.27204362297516
 10
205.67040196609892
 20
154.06083183133495
 10
205.65685424949237
 20
153.84846922834953
  0
LWPOLYLINE
  5
92
330
17
100
AcDbEntity
  8
VISIBLE
100
AcDbPolyline
 90
33
 70
0
 10
205.65685424949237
 20
153.84846922834953
 10
205.6809306161314
 20
153.5655181165772
 10
205.75292784747623
 20
153.285291978688
 10
205.87215257083133
 20
153.01048954557712
 10
206.03745658693595
 20
152.74375731489755
 10
206.2472479277506
 20
152.48766406384152
 10
206.49950618797965
 20
152.2446761104115
 10
206.7918019826787
 20
152.0171335614297
 10
207.12132034355963
 20
151.80722777603023
 10
207.48488782867415
 20
151.61698026167267
 10
207.87900308439436
 20
151.4482232059202
 10
208.2998705653624
 20
151.30258183147166
 10
208.74343708766693
 20
151.18145874437866
 10
209.20543086322007
 20
151.08602042618253
 10
209.68140263941174
 20
151.01718600005938
 10
210.16676854784458
 20
150.97561837916155
 10
210.65685424949237
 20
150.96171788240142
 10
211.14693995114018
 20
150.97561837916155
 10
211.63230585957302
 20
151.01718600005938
 10
212.1082776357647
 20
151.08602042618253
 10
212.57027141131783
 20
151.18145874437866
 10
213.01383793362237
 20
151.30258183147163
 10
213.43470541459038
 20
151.4482232059202
 10
213.8288206703106
 20
151.61698026167267
 10
214.1923881554251
 20
151.80722777603023
 10
214.52190651630607
 20
152.0171335614297
 10
214.81420231100512
 20
152.2446761104115
 10
215.06646057123416
 20
152.48766406384152
 10
215.27625191204882
 20
152.74375731489755
 10
215.44155592815343
 20
153.01048954557712
 10
215.56078065150854
 20
153.285291978688
 10
215.63277788285336
 20
153.5655181165772
 10
215.65685424949237
 20
153.84846922834953
  0
LWPOLYLINE
  5
93
330
17
100
AcDbEntity
  8
HIDDEN
100
AcDbPolyline
 90
33
 70
0
 10
215.65685424949237
 20
145.68350341907228
 10
215.6553483429734
 20
145.754347843542
 10
215.65083153051825
 20
145.8251495939795
 10
215.64330653288584
 20
145.8958660220577
 10
215.63277788285336
 20
145.9664545308446
 10
215.61925192248594
 20
146.03687260046203
 10
215.6027367993163
 20
146.1070778136979
 10
215.5832424614371
 20
146.1770278815569
 10
215.56078065150854
 20
146.2466806687338
 10
215.53536489968502
 20
146.31599421899404
 10
215.5070105154651
 20
146.38492678044673
 10
215.47573457846957
 20
146.45343683069447
 10
215.44155592815343
 20
146.5214831018447
 10
215.40449515245757
 20
146.58902460536814
 10
215.3645745754075
 20
146.65602065678854
 10
215.3218182436661
 20
146.7224309001897
 10
215.27625191204882
 20
146.78821533252426
 10
215.22790302801002
 20
146.85333432770997
 10
215.1768007151096
 20
146.91774866049911
 10
215.12297575546995
 20
146.98141953010622
 10
215.06646057123416
 20
147.0443085835803
 10
215.00728920503593
 20
147.106377938907
 10
214.94549729949375
 20
147.1675902078277
 10
214.8811220757409
 20
147.22790851836038
 10
214.81420231100512
 20
147.28729653701032
 10
214.7447783152503
 20
147.3457184906557
 10
214.67289190689561
 20
147.40313918809616
 10
214.5985863876254
 20
147.4595240412507
 10
214.52190651630607
 20
147.51483908599215
 10
214.44289848202482
 20
147.56905100260585
 10
214.36160987626718
 20
147.6221271358604
 10
214.2780896642497
 20
147.67403551467783
 10
214.1923881554251
 20
147.72474487139158
  0
LWPOLYLINE
  5
94
330
17
100
AcDbEntity
  8
VISIBLE
100
AcDbPolyline
 90
33
 70
0
 10
215.65685424949237
 20
153.84846922834953
 10
215.6553483429734
 20
153.91931365281926
 10
215.65083153051825
 20
153.99011540325677
 10
215.64330653288584
 20
154.06083183133495
 10
215.63277788285336
 20
154.13142034012188
 10
215.61925192248594
 20
154.2018384097393
 10
215.6027367993163
 20
154.27204362297516
 10
215.5832424614371
 20
154.34199369083416
 10
215.56078065150854
 20
154.41164647801105
 10
215.53536489968502
 20
154.48096002827128
 10
215.5070105154651
 20
154.549892589724
 10
215.47573457846957
 20
154.61840263997175
 10
215.44155592815343
 20
154.68644891112197
 10
215.40449515245757
 20
154.7539904146454
 10
215.3645745754075
 20
154.8209864660658
 10
215.3218182436661
 20
154.88739670946697
 10
215.27625191204882
 20
154.9531811418015
 10
215.22790302801002
 20
155.01830013698722
 10
215.1768007151096
 20
155.08271446977636
 10
215.12297575546995
 20
155.1463853393835
 10
215.06646057123416
 20
155.20927439285754
 10
215.00728920503593
 20
155.27134374818428
 10
214.94549729949375
 20
155.33255601710493
 10
214.8811220757409
 20
155.39287432763766
 10
214.81420231100512
 20
155.4522623462876
 10
214.7447783152503
 20
155.51068429993296
 10
214.67289190689561
 20
155.56810499737344
 10
214.5985863876254
 20
155.62448985052797
 10
214.52190651630607
 20
155.6798048952694
 10
214.44289848202482
 20
155.73401681188312
 10
214.36160987626718
 20
155.7870929451377
 10
214.2780896642497
 20
155.83900132395507
 10
214.1923881554251
 20
155.88971068066886
  0
TEXT
  5
95
330
17
100
AcDbEntity
  8
TITLE
100
AcDbText
 10
205.0
 20
121.14944765528583
 30
0.0
 40
3.4
  1
ISOMETRIC
  7
LOFT_MONO
 72
1
 11
205.0
 21
121.14944765528583
 31
0.0
100
AcDbText
 73
2
  0
LWPOLYLINE
  5
96
330
17
100
AcDbEntity
  8
TITLE
100
AcDbPolyline
 90
4
 70
1
 10
191.0
 20
44.0
 10
287.0
 20
44.0
 10
287.0
 20
10.0
 10
191.0
 20
10.0
  0
LINE
  5
97
330
17
100
AcDbEntity
  8
TITLE
100
AcDbLine
 10
248.6
 20
44.0
 30
0.0
 11
248.6
 21
10.0
 31
0.0
  0
LINE
  5
98
330
17
100
AcDbEntity
  8
TITLE
100
AcDbLine
 10
248.6
 20
27.0
 30
0.0
 11
287.0
 21
27.0
 31
0.0
  0
TEXT
  5
99
330
17
100
AcDbEntity
  8
TITLE
100
AcDbText
 10
195.0
 20
36.0
 30
0.0
 40
2.3
  1
TITLE
  7
LOFT_MONO
 11
195.0
 21
36.0
 31
0.0
100
AcDbText
  0
TEXT
  5
9A
330
17
100
AcDbEntity
  8
TITLE
100
AcDbText
 10
195.0
 20
26.0
 30
0.0
 40
3.4
  1
Plate — First-Angle G…
  7
LOFT_MONO
 11
195.0
 21
26.0
 31
0.0
100
AcDbText
  0
TEXT
  5
9B
330
17
100
AcDbEntity
  8
TITLE
100
AcDbText
 10
195.0
 20
14.0
 30
0.0
 40
2.3
  1
LOFT · PART DRAWING
  7
LOFT_MONO
 11
195.0
 21
14.0
 31
0.0
100
AcDbText
  0
TEXT
  5
9C
330
17
100
AcDbEntity
  8
TITLE
100
AcDbText
 10
252.6
 20
36.0
 30
0.0
 40
2.3
  1
SCALE
  7
LOFT_MONO
 11
252.6
 21
36.0
 31
0.0
100
AcDbText
  0
TEXT
  5
9D
330
17
100
AcDbEntity
  8
TITLE
100
AcDbText
 10
252.6
 20
30.0
 30
0.0
 40
3.4
  1
1:1
  7
LOFT_MONO
 11
252.6
 21
30.0
 31
0.0
100
AcDbText
  0
TEXT
  5
9E
330
17
100
AcDbEntity
  8
TITLE
100
AcDbText
 10
252.6
 20
19.0
 30
0.0
 40
2.3
  1
SIZE
  7
LOFT_MONO
 11
252.6
 21
19.0
 31
0.0
100
AcDbText
  0
TEXT
  5
9F
330
17
100
AcDbEntity
  8
TITLE
100
AcDbText
 10
252.6
 20
14.0
 30
0.0
 40
3.4
  1
A4
  7
LOFT_MONO
 11
252.6
 21
14.0
 31
0.0
100
AcDbText
  0
ENDSEC
  0
SECTION
  2
OBJECTS
  0
DICTIONARY
  5
A
330
0
100
AcDbDictionary
281
1
  3
ACAD_COLOR
350
B
  3
ACAD_GROUP
350
C
  3
ACAD_LAYOUT
350
D
  3
ACAD_MATERIAL
350
E
  3
ACAD_MLEADERSTYLE
350
F
  3
ACAD_MLINESTYLE
350
10
  3
ACAD_PLOTSETTINGS
350
11
  3
ACAD_PLOTSTYLENAME
350
12
  3
ACAD_SCALELIST
350
14
  3
ACAD_TABLESTYLE
350
15
  3
ACAD_VISUALSTYLE
350
16
  3
EZDXF_META
350
2D
  0
DICTIONARY
  5
B
330
A
100
AcDbDictionary
281
1
  0
DICTIONARY
  5
C
330
A
100
AcDbDictionary
281
1
  0
DICTIONARY
  5
D
330
A
100
AcDbDictionary
281
1
  3
Model
350
1A
  3
Layout1
350
1E
  0
DICTIONARY
  5
E
330
A
100
AcDbDictionary
281
1
  3
ByBlock
350
1F
  3
ByLayer
350
20
  3
Global
350
21
  0
DICTIONARY
  5
F
330
A
100
AcDbDictionary
281
1
  3
Standard
350
2C
  0
DICTIONARY
  5
10
330
A
100
AcDbDictionary
281
1
  3
Standard
350
22
  0
DICTIONARY
  5
11
330
A
100
AcDbDictionary
281
1
  0
ACDBDICTIONARYWDFLT
  5
12
330
A
100
AcDbDictionary
281
1
  3
Normal
350
13
100
AcDbDictionaryWithDefault
340
13
  0
ACDBPLACEHOLDER
  5
13
330
12
  0
DICTIONARY
  5
14
330
A
100
AcDbDictionary
281
1
  0
DICTIONARY
  5
15
330
A
100
AcDbDictionary
281
1
  0
DICTIONARY
  5
16
330
A
100
AcDbDictionary
281
1
  0
LAYOUT
  5
1A
330
D
100
AcDbPlotSettings
  1

  4
A3
  6

 40
7.5
 41
20.0
 42
7.5
 43
20.0
 44
420.0
 45
297.0
 46
0.0
 47
0.0
 48
0.0
 49
0.0
140
0.0
141
0.0
142
1.0
143
1.0
 70
1024
 72
1
 73
0
 74
5
  7

 75
16
 76
0
 77
2
 78
300
147
1.0
148
0.0
149
0.0
100
AcDbLayout
  1
Model
 70
1
 71
0
 10
0.0
 20
0.0
 11
420.0
 21
297.0
 12
0.0
 22
0.0
 32
0.0
 14
1e+20
 24
1e+20
 34
1e+20
 15
-1e+20
 25
-1e+20
 35
-1e+20
146
0.0
 13
0.0
 23
0.0
 33
0.0
 16
1.0
 26
0.0
 36
0.0
 17
0.0
 27
1.0
 37
0.0
 76
1
330
17
  0
LAYOUT
  5
1E
330
D
100
AcDbPlotSettings
  1

  4
A3
  6

 40
7.5
 41
20.0
 42
7.5
 43
20.0
 44
420.0
 45
297.0
 46
0.0
 47
0.0
 48
0.0
 49
0.0
140
0.0
141
0.0
142
1.0
143
1.0
 70
0
 72
1
 73
0
 74
5
  7

 75
16
 76
0
 77
2
 78
300
147
1.0
148
0.0
149
0.0
100
AcDbLayout
  1
Layout1
 70
1
 71
1
 10
0.0
 20
0.0
 11
420.0
 21
297.0
 12
0.0
 22
0.0
 32
0.0
 14
1e+20
 24
1e+20
 34
1e+20
 15
-1e+20
 25
-1e+20
 35
-1e+20
146
0.0
 13
0.0
 23
0.0
 33
0.0
 16
1.0
 26
0.0
 36
0.0
 17
0.0
 27
1.0
 37
0.0
 76
1
330
1B
  0
MATERIAL
  5
1F
102
{ACAD_REACTORS
330
E
102
}
330
E
100
AcDbMaterial
  1
ByBlock
  2

 70
0
 40
1.0
 71
1
 41
1.0
 91
-1023410177
 42
1.0
 72
1
  3

 73
1
 74
1
 75
1
 44
0.5
 73
0
 45
1.0
 46
1.0
 77
1
  4

 78
1
 79
1
170
1
 48
1.0
171
1
  6

172
1
173
1
174
1
140
1.0
141
1.0
175
1
  7

176
1
177
1
178
1
143
1.0
179
1
  8

270
1
271
1
272
1
145
1.0
146
1.0
273
1
  9

274
1
275
1
276
1
 42
1.0
 72
1
  3

 73
1
 74
1
 75
1
 94
63
  0
MATERIAL
  5
20
102
{ACAD_REACTORS
330
E
102
}
330
E
100
AcDbMaterial
  1
ByLayer
  2

 70
0
 40
1.0
 71
1
 41
1.0
 91
-1023410177
 42
1.0
 72
1
  3

 73
1
 74
1
 75
1
 44
0.5
 73
0
 45
1.0
 46
1.0
 77
1
  4

 78
1
 79
1
170
1
 48
1.0
171
1
  6

172
1
173
1
174
1
140
1.0
141
1.0
175
1
  7

176
1
177
1
178
1
143
1.0
179
1
  8

270
1
271
1
272
1
145
1.0
146
1.0
273
1
  9

274
1
275
1
276
1
 42
1.0
 72
1
  3

 73
1
 74
1
 75
1
 94
63
  0
MATERIAL
  5
21
102
{ACAD_REACTORS
330
E
102
}
330
E
100
AcDbMaterial
  1
Global
  2

 70
0
 40
1.0
 71
1
 41
1.0
 91
-1023410177
 42
1.0
 72
1
  3

 73
1
 74
1
 75
1
 44
0.5
 73
0
 45
1.0
 46
1.0
 77
1
  4

 78
1
 79
1
170
1
 48
1.0
171
1
  6

172
1
173
1
174
1
140
1.0
141
1.0
175
1
  7

176
1
177
1
178
1
143
1.0
179
1
  8

270
1
271
1
272
1
145
1.0
146
1.0
273
1
  9

274
1
275
1
276
1
 42
1.0
 72
1
  3

 73
1
 74
1
 75
1
 94
63
  0
MLINESTYLE
  5
22
102
{ACAD_REACTORS
330
10
102
}
330
10
100
AcDbMlineStyle
  2
Standard
 70
0
  3

 62
256
 51
90.0
 52
90.0
 71
2
 49
0.5
 62
256
  6
BYLAYER
 49
-0.5
 62
256
  6
BYLAYER
  0
MLEADERSTYLE
  5
2C
102
{ACAD_REACTORS
330
F
102
}
330
F
100
AcDbMLeaderStyle
179
2
170
2
171
1
172
0
 90
2
 40
0.0
 41
0.0
173
1
 91
-1056964608
 92
-2
290
1
 42
2.0
291
1
 43
8.0
  3
Standard
 44
4.0
300

342
29
174
1
175
1
176
0
178
1
 93
-1056964608
 45
4.0
292
0
297
0
 46
4.0
 94
-1056964608
 47
1.0
 49
1.0
140
1.0
294
1
141
0.0
177
0
142
1.0
295
0
296
0
143
3.75
271
0
272
9
273
9
  0
DICTIONARY
  5
2D
330
A
100
AcDbDictionary
280
1
281
1
  3
CREATED_BY_EZDXF
350
2E
  3
WRITTEN_BY_EZDXF
350
A2
  0
DICTIONARYVAR
  5
2E
330
2D
100
DictionaryVariables
280
0
  1
0.0 @ 2000-01-01T00:00:00.000000+00:00
  0
DICTIONARYVAR
  5
A2
330
2D
100
DictionaryVariables
280
0
  1
0.0 @ 2000-01-01T00:00:00.000000+00:00
  0
ENDSEC
  0
EOF
