  0
SECTION
  2
HEADER
  9
$ACADVER
  1
AC1015
  9
$ACADMAINTVER
 70
6
  9
$DWGCODEPAGE
  3
ANSI_1252
  9
$INSBASE
 10
0.0
 20
0.0
 30
0.0
  9
$EXTMIN
 10
1e+20
 20
1e+20
 30
1e+20
  9
$EXTMAX
 10
-1e+20
 20
-1e+20
 30
-1e+20
  9
$LIMMIN
 10
0.0
 20
0.0
  9
$LIMMAX
 10
420.0
 20
297.0
  9
$ORTHOMODE
 70
0
  9
$REGENMODE
 70
1
  9
$FILLMODE
 70
1
  9
$QTEXTMODE
 70
0
  9
$MIRRTEXT
 70
1
  9
$LTSCALE
 40
1.0
  9
$ATTMODE
 70
1
  9
$TEXTSIZE
 40
2.5
  9
$TRACEWID
 40
1.0
  9
$TEXTSTYLE
  7
Standard
  9
$CLAYER
  8
0
  9
$CELTYPE
  6
ByLayer
  9
$CECOLOR
 62
256
  9
$CELTSCALE
 40
1.0
  9
$DISPSILH
 70
0
  9
$DIMSCALE
 40
1.0
  9
$DIMASZ
 40
2.5
  9
$DIMEXO
 40
0.625
  9
$DIMDLI
 40
3.75
  9
$DIMRND
 40
0.0
  9
$DIMDLE
 40
0.0
  9
$DIMEXE
 40
1.25
  9
$DIMTP
 40
0.0
  9
$DIMTM
 40
0.0
  9
$DIMTXT
 40
2.5
  9
$DIMCEN
 40
2.5
  9
$DIMTSZ
 40
0.0
  9
$DIMTOL
 70
0
  9
$DIMLIM
 70
0
  9
$DIMTIH
 70
0
  9
$DIMTOH
 70
0
  9
$DIMSE1
 70
0
  9
$DIMSE2
 70
0
  9
$DIMTAD
 70
1
  9
$DIMZIN
 70
8
  9
$DIMBLK
  1

  9
$DIMASO
 70
1
  9
$DIMSHO
 70
1
  9
$DIMPOST
  1

  9
$DIMAPOST
  1

  9
$DIMALT
 70
0
  9
$DIMALTD
 70
3
  9
$DIMALTF
 40
0.03937007874
  9
$DIMLFAC
 40
1.0
  9
$DIMTOFL
 70
1
  9
$DIMTVP
 40
0.0
  9
$DIMTIX
 70
0
  9
$DIMSOXD
 70
0
  9
$DIMSAH
 70
0
  9
$DIMBLK1
  1

  9
$DIMBLK2
  1

  9
$DIMSTYLE
  2
ISO-25
  9
$DIMCLRD
 70
0
  9
$DIMCLRE
 70
0
  9
$DIMCLRT
 70
0
  9
$DIMTFAC
 40
1.0
  9
$DIMGAP
 40
0.625
  9
$DIMJUST
 70
0
  9
$DIMSD1
 70
0
  9
$DIMSD2
 70
0
  9
$DIMTOLJ
 70
0
  9
$DIMTZIN
 70
8
  9
$DIMALTZ
 70
0
  9
$DIMALTTZ
 70
0
  9
$DIMUPT
 70
0
  9
$DIMDEC
 70
2
  9
$DIMTDEC
 70
2
  9
$DIMALTU
 70
2
  9
$DIMALTTD
 70
3
  9
$DIMTXSTY
  7
Standard
  9
$DIMAUNIT
 70
0
  9
$DIMADEC
 70
0
  9
$DIMALTRND
 40
0.0
  9
$DIMAZIN
 70
0
  9
$DIMDSEP
 70
44
  9
$DIMATFIT
 70
3
  9
$DIMFRAC
 70
0
  9
$DIMLDRBLK
  1

  9
$DIMLUNIT
 70
2
  9
$DIMLWD
 70
-2
  9
$DIMLWE
 70
-2
  9
$DIMTMOVE
 70
0
  9
$LUNITS
 70
2
  9
$LUPREC
 70
4
  9
$SKETCHINC
 40
1.0
  9
$FILLETRAD
 40
10.0
  9
$AUNITS
 70
0
  9
$AUPREC
 70
2
  9
$MENU
  1
.
  9
$ELEVATION
 40
0.0
  9
$PELEVATION
 40
0.0
  9
$THICKNESS
 40
0.0
  9
$LIMCHECK
 70
0
  9
$CHAMFERA
 40
0.0
  9
$CHAMFERB
 40
0.0
  9
$CHAMFERC
 40
0.0
  9
$CHAMFERD
 40
0.0
  9
$SKPOLY
 70
0
  9
$TDCREATE
 40
2451545.0
  9
$TDUCREATE
 40
2451545.0
  9
$TDUPDATE
 40
2451545.0
  9
$TDUUPDATE
 40
2451545.0
  9
$TDINDWG
 40
0.0
  9
$TDUSRTIMER
 40
0.0
  9
$USRTIMER
 70
1
  9
$ANGBASE
 50
0.0
  9
$ANGDIR
 70
0
  9
$PDMODE
 70
0
  9
$PDSIZE
 40
0.0
  9
$PLINEWID
 40
0.0
  9
$SPLFRAME
 70
0
  9
$SPLINETYPE
 70
6
  9
$SPLINESEGS
 70
8
  9
$HANDSEED
  5
A3
  9
$SURFTAB1
 70
6
  9
$SURFTAB2
 70
6
  9
$SURFTYPE
 70
6
  9
$SURFU
 70
6
  9
$SURFV
 70
6
  9
$UCSBASE
  2

  9
$UCSNAME
  2

  9
$UCSORG
 10
0.0
 20
0.0
 30
0.0
  9
$UCSXDIR
 10
1.0
 20
0.0
 30
0.0
  9
$UCSYDIR
 10
0.0
 20
1.0
 30
0.0
  9
$UCSORTHOREF
  2

  9
$UCSORTHOVIEW
 70
0
  9
$UCSORGTOP
 10
0.0
 20
0.0
 30
0.0
  9
$UCSORGBOTTOM
 10
0.0
 20
0.0
 30
0.0
  9
$UCSORGLEFT
 10
0.0
 20
0.0
 30
0.0
  9
$UCSORGRIGHT
 10
0.0
 20
0.0
 30
0.0
  9
$UCSORGFRONT
 10
0.0
 20
0.0
 30
0.0
  9
$UCSORGBACK
 10
0.0
 20
0.0
 30
0.0
  9
$PUCSBASE
  2

  9
$PUCSNAME
  2

  9
$PUCSORG
 10
0.0
 20
0.0
 30
0.0
  9
$PUCSXDIR
 10
1.0
 20
0.0
 30
0.0
  9
$PUCSYDIR
 10
0.0
 20
1.0
 30
0.0
  9
$PUCSORTHOREF
  2

  9
$PUCSORTHOVIEW
 70
0
  9
$PUCSORGTOP
 10
0.0
 20
0.0
 30
0.0
  9
$PUCSORGBOTTOM
 10
0.0
 20
0.0
 30
0.0
  9
$PUCSORGLEFT
 10
0.0
 20
0.0
 30
0.0
  9
$PUCSORGRIGHT
 10
0.0
 20
0.0
 30
0.0
  9
$PUCSORGFRONT
 10
0.0
 20
0.0
 30
0.0
  9
$PUCSORGBACK
 10
0.0
 20
0.0
 30
0.0
  9
$USERI1
 70
0
  9
$USERI2
 70
0
  9
$USERI3
 70
0
  9
$USERI4
 70
0
  9
$USERI5
 70
0
  9
$USERR1
 40
0.0
  9
$USERR2
 40
0.0
  9
$USERR3
 40
0.0
  9
$USERR4
 40
0.0
  9
$USERR5
 40
0.0
  9
$WORLDVIEW
 70
1
  9
$SHADEDGE
 70
3
  9
$SHADEDIF
 70
70
  9
$TILEMODE
 70
1
  9
$MAXACTVP
 70
64
  9
$PINSBASE
 10
0.0
 20
0.0
 30
0.0
  9
$PLIMCHECK
 70
0
  9
$PEXTMIN
 10
1e+20
 20
1e+20
 30
1e+20
  9
$PEXTMAX
 10
-1e+20
 20
-1e+20
 30
-1e+20
  9
$PLIMMIN
 10
0.0
 20
0.0
  9
$PLIMMAX
 10
420.0
 20
297.0
  9
$UNITMODE
 70
0
  9
$VISRETAIN
 70
1
  9
$PLINEGEN
 70
0
  9
$PSLTSCALE
 70
1
  9
$TREEDEPTH
 70
3020
  9
$CMLSTYLE
  2
Standard
  9
$CMLJUST
 70
0
  9
$CMLSCALE
 40
20.0
  9
$PROXYGRAPHICS
 70
1
  9
$MEASUREMENT
 70
1
  9
$CELWEIGHT
370
-1
  9
$ENDCAPS
280
0
  9
$JOINSTYLE
280
0
  9
$LWDISPLAY
290
0
  9
$INSUNITS
 70
6
  9
$HYPERLINKBASE
  1

  9
$STYLESHEET
  1

  9
$XEDIT
290
1
  9
$CEPSNTYPE
380
0
  9
$PSTYLEMODE
290
1
  9
$FINGERPRINTGUID
  2
{00000000-0000-0000-0000-000000000000}
  9
$VERSIONGUID
  2
{00000000-0000-0000-0000-000000000000}
  9
$EXTNAMES
290
1
  9
$PSVPSCALE
 40
0.0
  9
$OLESTARTUP
290
0
  0
ENDSEC
  0
SECTION
  2
CLASSES
  0
CLASS
  1
ACDBDICTIONARYWDFLT
  2
AcDbDictionaryWithDefault
  3
ObjectDBX Classes
 90
0
280
0
281
0
  0
CLASS
  1
SUN
  2
AcDbSun
  3
SCENEOE
 90
1153
280
0
281
0
  0
CLASS
  1
VISUALSTYLE
  2
AcDbVisualStyle
  3
ObjectDBX Classes
 90
4095
280
0
281
0
  0
CLASS
  1
MATERIAL
  2
AcDbMaterial
  3
ObjectDBX Classes
 90
1153
280
0
281
0
  0
CLASS
  1
SCALE
  2
AcDbScale
  3
ObjectDBX Classes
 90
1153
280
0
281
0
  0
CLASS
  1
TABLESTYLE
  2
AcDbTableStyle
  3
ObjectDBX Classes
 90
4095
280
0
281
0
  0
CLASS
  1
MLEADERSTYLE
  2
AcDbMLeaderStyle
  3
ACDB_MLEADERSTYLE_CLASS
 90
4095
280
0
281
0
  0
CLASS
  1
DICTIONARYVAR
  2
AcDbDictionaryVar
  3
ObjectDBX Classes
 90
0
280
0
281
0
  0
CLASS
  1
CELLSTYLEMAP
  2
AcDbCellStyleMap
  3
ObjectDBX Classes
 90
1152
280
0
281
0
  0
CLASS
  1
MENTALRAYRENDERSETTINGS
  2
AcDbMentalRayRenderSettings
  3
SCENEOE
 90
1024
280
0
281
0
  0
CLASS
  1
ACDBDETAILVIEWSTYLE
  2
AcDbDetailViewStyle
  3
ObjectDBX Classes
 90
1025
280
0
281
0
  0
CLASS
  1
ACDBSECTIONVIEWSTYLE
  2
AcDbSectionViewStyle
  3
ObjectDBX Classes
 90
1025
280
0
281
0
  0
CLASS
  1
RASTERVARIABLES
  2
AcDbRasterVariables
  3
ISM
 90
0
280
0
281
0
  0
CLASS
  1
ACDBPLACEHOLDER
  2
AcDbPlaceHolder
  3
ObjectDBX Classes
 90
0
280
0
281
0
  0
CLASS
  1
LAYOUT
  2
AcDbLayout
  3
ObjectDBX Classes
 90
0
280
0
281
0
  0
ENDSEC
  0
SECTION
  2
TABLES
  0
TABLE
  2
VPORT
  5
8
330
0
100
AcDbSymbolTable
 70
1
  0
VPORT
  5
23
330
8
100
AcDbSymbolTableRecord
100
AcDbViewportTableRecord
  2
*Active
 70
0
 10
0.0
 20
0.0
 11
1.0
 21
1.0
 12
0.0
 22
0.0
 13
0.0
 23
0.0
 14
0.5
 24
0.5
 15
0.5
 25
0.5
 16
0.0
 26
0.0
 36
1.0
 17
0.0
 27
0.0
 37
0.0
 40
1000.0
 41
1.34
 42
50.0
 43
0.0
 44
0.0
 50
0.0
 51
0.0
 71
0
 72
1000
 73
1
 74
3
 75
0
 76
0
 77
0
 78
0
281
0
 65
0
146
0.0
  0
ENDTAB
  0
TABLE
  2
LTYPE
  5
2
330
0
100
AcDbSymbolTable
 70
4
  0
LTYPE
  5
24
330
2
100
AcDbSymbolTableRecord
100
AcDbLinetypeTableRecord
  2
ByBlock
 70
0
  3

 72
65
 73
0
 40
0.0
  0
LTYPE
  5
25
330
2
100
AcDbSymbolTableRecord
100
AcDbLinetypeTableRecord
  2
ByLayer
 70
0
  3

 72
65
 73
0
 40
0.0
  0
LTYPE
  5
26
330
2
100
AcDbSymbolTableRecord
100
AcDbLinetypeTableRecord
  2
Continuous
 70
0
  3

 72
65
 73
0
 40
0.0
  0
LTYPE
  5
2F
330
2
100
AcDbSymbolTableRecord
100
AcDbLinetypeTableRecord
  2
DASHED
 70
0
  3
Loft hidden edge — 2/1.4
 72
65
 73
2
 40
0.0
 49
2.0
 74
0
 49
-1.4
 74
0
  0
ENDTAB
  0
TABLE
  2
LAYER
  5
1
330
0
100
AcDbSymbolTable
 70
6
  0
LAYER
  5
27
330
1
100
AcDbSymbolTableRecord
100
AcDbLayerTableRecord
  2
0
 70
0
 62
7
  6
Continuous
370
-3
390
13
  0
LAYER
  5
28
330
1
100
AcDbSymbolTableRecord
100
AcDbLayerTableRecord
  2
Defpoints
 70
0
 62
7
  6
Continuous
290
0
370
-3
390
13
  0
LAYER
  5
30
330
1
100
AcDbSymbolTableRecord
100
AcDbLayerTableRecord
  2
VISIBLE
 70
0
 62
7
  6
Continuous
370
-3
390
13
  0
LAYER
  5
31
330
1
100
AcDbSymbolTableRecord
100
AcDbLayerTableRecord
  2
HIDDEN
 70
0
 62
8
  6
DASHED
370
-3
390
13
  0
LAYER
  5
32
330
1
100
AcDbSymbolTableRecord
100
AcDbLayerTableRecord
  2
DIMENSION
 70
0
 62
1
  6
Continuous
370
-3
390
13
  0
LAYER
  5
33
330
1
100
AcDbSymbolTableRecord
100
AcDbLayerTableRecord
  2
TITLE
 70
0
 62
5
  6
Continuous
370
-3
390
13
  0
ENDTAB
  0
TABLE
  2
STYLE
  5
5
330
0
100
AcDbSymbolTable
 70
2
  0
STYLE
  5
29
330
5
100
AcDbSymbolTableRecord
100
AcDbTextStyleTableRecord
  2
Standard
 70
0
 40
0.0
 41
1.0
 50
0.0
 71
0
 42
2.5
  3
txt
  4

  0
STYLE
  5
34
330
5
100
AcDbSymbolTableRecord
100
AcDbTextStyleTableRecord
  2
LOFT_MONO
 70
0
 40
0.0
 41
1.0
 50
0.0
 71
0
 42
2.5
  3
cour.ttf
  4

  0
ENDTAB
  0
TABLE
  2
VIEW
  5
7
330
0
100
AcDbSymbolTable
 70
0
  0
ENDTAB
  0
TABLE
  2
UCS
  5
6
330
0
100
AcDbSymbolTable
 70
0
  0
ENDTAB
  0
TABLE
  2
APPID
  5
3
330
0
100
AcDbSymbolTable
 70
3
  0
APPID
  5
2A
330
3
100
AcDbSymbolTableRecord
100
AcDbRegAppTableRecord
  2
ACAD
 70
0
  0
APPID
  5
A0
330
3
100
AcDbSymbolTableRecord
100
AcDbRegAppTableRecord
  2
HATCHBACKGROUNDCOLOR
 70
0
  0
APPID
  5
A1
330
3
100
AcDbSymbolTableRecord
100
AcDbRegAppTableRecord
  2
EZDXF
 70
0
  0
ENDTAB
  0
TABLE
  2
DIMSTYLE
  5
4
330
0
100
AcDbSymbolTable
 70
1
100
AcDbDimStyleTable
  0
DIMSTYLE
105
2B
330
4
100
AcDbSymbolTableRecord
100
AcDbDimStyleTableRecord
  2
Standard
 70
0
  3

  4

 40
1.0
 41
2.5
 42
0.625
 43
3.75
 44
1.25
 45
0.0
 46
0.0
 47
0.0
 48
0.0
140
2.5
141
2.5
142
0.0
143
0.03937007874
144
1.0
145
0.0
146
1.0
147
0.625
148
0.0
 71
0
 72
0
 73
0
 74
0
 75
0
 76
0
 77
1
 78
8
 79
3
170
0
171
3
172
1
173
0
174
0
175
0
176
0
177
0
178
0
179
2
271
2
272
2
273
2
274
3
275
0
276
0
277
2
278
44
279
0
280
0
281
0
282
0
283
0
284
8
285
0
286
0
288
0
289
3
371
-2
372
-2
  0
ENDTAB
  0
TABLE
  2
BLOCK_RECORD
  5
9
330
0
100
AcDbSymbolTable
 70
2
  0
BLOCK_RECORD
  5
17
330
9
100
AcDbSymbolTableRecord
100
AcDbBlockTableRecord
  2
*Model_Space
340
1A
  0
BLOCK_RECORD
  5
1B
330
9
100
AcDbSymbolTableRecord
100
AcDbBlockTableRecord
  2
*Paper_Space
340
1E
  0
ENDTAB
  0
ENDSEC
  0
SECTION
  2
BLOCKS
  0
BLOCK
  5
18
330
17
100
AcDbEntity
  8
0
100
AcDbBlockBegin
  2
*Model_Space
 70
0
 10
0.0
 20
0.0
 30
0.0
  3
*Model_Space
  1

  0
ENDBLK
  5
19
330
17
100
AcDbEntity
  8
0
100
AcDbBlockEnd
  0
BLOCK
  5
1C
330
1B
100
AcDbEntity
  8
0
100
AcDbBlockBegin
  2
*Paper_Space
 70
0
 10
0.0
 20
0.0
 30
0.0
  3
*Paper_Space
  1

  0
ENDBLK
  5
1D
330
1B
100
AcDbEntity
  8
0
100
AcDbBlockEnd
  0
ENDSEC
  0
SECTION
  2
ENTITIES
  0
LWPOLYLINE
  5
35
330
17
100
AcDbEntity
  8
TITLE
100
AcDbPolyline
 90
4
 70
1
 10
10.0
 20
200.0
 10
287.0
 20
200.0
 10
287.0
 20
10.0
 10
10.0
 20
10.0
  0
LINE
  5
36
330
17
100
AcDbEntity
  8
VISIBLE
100
AcDbLine
 10
123.2595148057186
 20
97.57472382764291
 30
0.0
 11
123.2595148057186
 21
107.57472382764291
 31
0.0
  0
LINE
  5
37
330
17
100
AcDbEntity
  8
VISIBLE
100
AcDbLine
 10
123.2595148057186
 20
97.57472382764291
 30
0.0
 11
163.2595148057186
 21
97.57472382764291
 31
0.0
  0
LINE
  5
38
330
17
100
AcDbEntity
  8
VISIBLE
100
AcDbLine
 10
123.2595148057186
 20
107.57472382764291
 30
0.0
 11
163.2595148057186
 21
107.57472382764291
 31
0.0
  0
LINE
  5
39
330
17
100
AcDbEntity
  8
HIDDEN
100
AcDbLine
 10
130.2595148057186
 20
97.57472382764291
 30
0.0
 11
130.2595148057186
 21
107.57472382764291
 31
0.0
  0
LINE
  5
3A
330
17
100
AcDbEntity
  8
HIDDEN
100
AcDbLine
 10
140.2595148057186
 20
97.57472382764291
 30
0.0
 11
140.2595148057186
 21
107.57472382764291
 31
0.0
  0
LINE
  5
3B
330
17
100
AcDbEntity
  8
HIDDEN
100
AcDbLine
 10
146.2595148057186
 20
97.57472382764291
 30
0.0
 11
146.2595148057186
 21
107.57472382764291
 31
0.0
  0
LINE
  5
3C
330
17
100
AcDbEntity
  8
HIDDEN
100
AcDbLine
 10
156.2595148057186
 20
97.57472382764291
 30
0.0
 11
156.2595148057186
 21
107.57472382764291
 31
0.0
  0
LINE
  5
3D
330
17
100
AcDbEntity
  8
VISIBLE
100
AcDbLine
 10
163.2595148057186
 20
97.57472382764291
 30
0.0
 11
163.2595148057186
 21
107.57472382764291
 31
0.0
  0
LWPOLYLINE
  5
3E
330
17
100
AcDbEntity
  8
HIDDEN
100
AcDbPolyline
 90
33
 70
0
 10
130.2595148057186
 20
97.57472382764291
 10
130.31435999782084
 20
97.57472382764291
 10
130.36920518992312
 20
97.57472382764291
 10
130.50043625149604
 20
97.57472382764291
 10
130.66222166085726
 20
97.57472382764291
 10
130.86636176505124
 20
97.57472382764291
 10
131.12697479568897
 20
97.57472382764291
 10
131.39983916856886
 20
97.57472382764291
 10
131.7462115949017
 20
97.57472382764291
 10
132.09258402123453
 20
97.57472382764291
 10
132.49757716406464
 20
97.57472382764291
 10
132.91234042631095
 20
97.57472382764291
 10
133.35429961658235
 20
97.57472382764291
 10
133.81665575287258
 20
97.57472382764291
 10
134.28598571965972
 20
97.57472382764291
 10
134.77275026268916
 20
97.57472382764291
 10
135.2595148057186
 20
97.57472382764291
 10
135.74627934874803
 20
97.57472382764291
 10
136.23304389177747
 20
97.57472382764291
 10
136.7023738585646
 20
97.57472382764291
 10
137.16472999485484
 20
97.57472382764291
 10
137.60668918512624
 20
97.57472382764291
 10
138.02145244737255
 20
97.57472382764291
 10
138.42644559020266
 20
97.57472382764291
 10
138.7728180165355
 20
97.57472382764291
 10
139.11919044286833
 20
97.57472382764291
 10
139.39205481574822
 20
97.57472382764291
 10
139.65266784638595
 20
97.57472382764291
 10
139.85680795057993
 20
97.57472382764291
 10
140.01859335994115
 20
97.57472382764291
 10
140.14982442151407
 20
97.57472382764291
 10
140.20466961361635
 20
97.57472382764291
 10
140.2595148057186
 20
97.57472382764291
  0
LWPOLYLINE
  5
3F
330
17
100
AcDbEntity
  8
HIDDEN
100
AcDbPolyline
 90
33
 70
0
 10
140.2595148057186
 20
97.57472382764291
 10
140.20466961361632
 20
97.57472382764291
 10
140.14982442151407
 20
97.57472382764291
 10
140.01859335994115
 20
97.57472382764291
 10
139.85680795057993
 20
97.57472382764291
 10
139.65266784638595
 20
97.57472382764291
 10
139.39205481574822
 20
97.57472382764291
 10
139.11919044286833
 20
97.57472382764291
 10
138.7728180165355
 20
97.57472382764291
 10
138.42644559020266
 20
97.57472382764291
 10
138.02145244737255
 20
97.57472382764291
 10
137.60668918512624
 20
97.57472382764291
 10
137.16472999485484
 20
97.57472382764291
 10
136.7023738585646
 20
97.57472382764291
 10
136.23304389177747
 20
97.57472382764291
 10
135.74627934874803
 20
97.57472382764291
 10
135.2595148057186
 20
97.57472382764291
 10
134.77275026268916
 20
97.57472382764291
 10
134.28598571965972
 20
97.57472382764291
 10
133.81665575287258
 20
97.57472382764291
 10
133.35429961658235
 20
97.57472382764291
 10
132.91234042631095
 20
97.57472382764291
 10
132.49757716406464
 20
97.57472382764291
 10
132.09258402123453
 20
97.57472382764291
 10
131.7462115949017
 20
97.57472382764291
 10
131.39983916856886
 20
97.57472382764291
 10
131.12697479568897
 20
97.57472382764291
 10
130.86636176505124
 20
97.57472382764291
 10
130.66222166085726
 20
97.57472382764291
 10
130.50043625149604
 20
97.57472382764291
 10
130.36920518992312
 20
97.57472382764291
 10
130.31435999782084
 20
97.57472382764291
 10
130.2595148057186
 20
97.57472382764291
  0
LWPOLYLINE
  5
40
330
17
100
AcDbEntity
  8
HIDDEN
100
AcDbPolyline
 90
33
 70
0
 10
130.2595148057186
 20
107.57472382764291
 10
130.31435999782084
 20
107.57472382764291
 10
130.36920518992312
 20
107.57472382764291
 10
130.50043625149604
 20
107.57472382764291
 10
130.66222166085726
 20
107.57472382764291
 10
130.86636176505124
 20
107.57472382764291
 10
131.12697479568897
 20
107.57472382764291
 10
131.39983916856886
 20
107.57472382764291
 10
131.7462115949017
 20
107.57472382764291
 10
132.09258402123453
 20
107.57472382764291
 10
132.49757716406464
 20
107.57472382764291
 10
132.91234042631095
 20
107.57472382764291
 10
133.35429961658235
 20
107.57472382764291
 10
133.81665575287258
 20
107.57472382764291
 10
134.28598571965972
 20
107.57472382764291
 10
134.77275026268916
 20
107.57472382764291
 10
135.2595148057186
 20
107.57472382764291
 10
135.74627934874803
 20
107.57472382764291
 10
136.23304389177747
 20
107.57472382764291
 10
136.7023738585646
 20
107.57472382764291
 10
137.16472999485484
 20
107.57472382764291
 10
137.60668918512624
 20
107.57472382764291
 10
138.02145244737255
 20
107.57472382764291
 10
138.42644559020266
 20
107.57472382764291
 10
138.7728180165355
 20
107.57472382764291
 10
139.11919044286833
 20
107.57472382764291
 10
139.39205481574822
 20
107.57472382764291
 10
139.65266784638595
 20
107.57472382764291
 10
139.85680795057993
 20
107.57472382764291
 10
140.01859335994115
 20
107.57472382764291
 10
140.14982442151407
 20
107.57472382764291
 10
140.20466961361635
 20
107.57472382764291
 10
140.2595148057186
 20
107.57472382764291
  0
LWPOLYLINE
  5
41
330
17
100
AcDbEntity
  8
HIDDEN
100
AcDbPolyline
 90
33
 70
0
 10
140.2595148057186
 20
107.57472382764291
 10
140.20466961361632
 20
107.57472382764291
 10
140.14982442151407
 20
107.57472382764291
 10
140.01859335994115
 20
107.57472382764291
 10
139.85680795057993
 20
107.57472382764291
 10
139.65266784638595
 20
107.57472382764291
 10
139.39205481574822
 20
107.57472382764291
 10
139.11919044286833
 20
107.57472382764291
 10
138.7728180165355
 20
107.57472382764291
 10
138.42644559020266
 20
107.57472382764291
 10
138.02145244737255
 20
107.57472382764291
 10
137.60668918512624
 20
107.57472382764291
 10
137.16472999485484
 20
107.57472382764291
 10
136.7023738585646
 20
107.57472382764291
 10
136.23304389177747
 20
107.57472382764291
 10
135.74627934874803
 20
107.57472382764291
 10
135.2595148057186
 20
107.57472382764291
 10
134.77275026268916
 20
107.57472382764291
 10
134.28598571965972
 20
107.57472382764291
 10
133.81665575287258
 20
107.57472382764291
 10
133.35429961658235
 20
107.57472382764291
 10
132.91234042631095
 20
107.57472382764291
 10
132.49757716406464
 20
107.57472382764291
 10
132.09258402123453
 20
107.57472382764291
 10
131.7462115949017
 20
107.57472382764291
 10
131.39983916856886
 20
107.57472382764291
 10
131.12697479568897
 20
107.57472382764291
 10
130.86636176505124
 20
107.57472382764291
 10
130.66222166085726
 20
107.57472382764291
 10
130.50043625149604
 20
107.57472382764291
 10
130.36920518992312
 20
107.57472382764291
 10
130.31435999782084
 20
107.57472382764291
 10
130.2595148057186
 20
107.57472382764291
  0
LWPOLYLINE
  5
42
330
17
100
AcDbEntity
  8
HIDDEN
100
AcDbPolyline
 90
33
 70
0
 10
146.2595148057186
 20
97.57472382764291
 10
146.31435999782087
 20
97.57472382764291
 10
146.36920518992312
 20
97.57472382764291
 10
146.50043625149604
 20
97.57472382764291
 10
146.66222166085726
 20
97.57472382764291
 10
146.86636176505124
 20
97.57472382764291
 10
147.12697479568897
 20
97.57472382764291
 10
147.39983916856886
 20
97.57472382764291
 10
147.7462115949017
 20
97.57472382764291
 10
148.09258402123453
 20
97.57472382764291
 10
148.49757716406464
 20
97.57472382764291
 10
148.91234042631095
 20
97.57472382764291
 10
149.35429961658235
 20
97.57472382764291
 10
149.81665575287258
 20
97.57472382764291
 10
150.28598571965972
 20
97.57472382764291
 10
150.77275026268916
 20
97.57472382764291
 10
151.2595148057186
 20
97.57472382764291
 10
151.74627934874803
 20
97.57472382764291
 10
152.23304389177747
 20
97.57472382764291
 10
152.7023738585646
 20
97.57472382764291
 10
153.16472999485484
 20
97.57472382764291
 10
153.60668918512624
 20
97.57472382764291
 10
154.02145244737255
 20
97.57472382764291
 10
154.42644559020266
 20
97.57472382764291
 10
154.7728180165355
 20
97.57472382764291
 10
155.11919044286833
 20
97.57472382764291
 10
155.39205481574822
 20
97.57472382764291
 10
155.65266784638595
 20
97.57472382764291
 10
155.85680795057993
 20
97.57472382764291
 10
156.01859335994115
 20
97.57472382764291
 10
156.14982442151407
 20
97.57472382764291
 10
156.20466961361632
 20
97.57472382764291
 10
156.2595148057186
 20
97.57472382764291
  0
LWPOLYLINE
  5
43
330
17
100
AcDbEntity
  8
HIDDEN
100
AcDbPolyline
 90
33
 70
0
 10
156.2595148057186
 20
97.57472382764291
 10
156.20466961361632
 20
97.57472382764291
 10
156.14982442151407
 20
97.57472382764291
 10
156.01859335994115
 20
97.57472382764291
 10
155.85680795057993
 20
97.57472382764291
 10
155.65266784638595
 20
97.57472382764291
 10
155.39205481574822
 20
97.57472382764291
 10
155.11919044286833
 20
97.57472382764291
 10
154.7728180165355
 20
97.57472382764291
 10
154.42644559020266
 20
97.57472382764291
 10
154.02145244737255
 20
97.57472382764291
 10
153.60668918512624
 20
97.57472382764291
 10
153.16472999485484
 20
97.57472382764291
 10
152.7023738585646
 20
97.57472382764291
 10
152.23304389177747
 20
97.57472382764291
 10
151.74627934874803
 20
97.57472382764291
 10
151.2595148057186
 20
97.57472382764291
 10
150.77275026268916
 20
97.57472382764291
 10
150.28598571965972
 20
97.57472382764291
 10
149.81665575287258
 20
97.57472382764291
 10
149.35429961658235
 20
97.57472382764291
 10
148.91234042631095
 20
97.57472382764291
 10
148.49757716406464
 20
97.57472382764291
 10
148.09258402123453
 20
97.57472382764291
 10
147.7462115949017
 20
97.57472382764291
 10
147.39983916856886
 20
97.57472382764291
 10
147.12697479568897
 20
97.57472382764291
 10
146.86636176505124
 20
97.57472382764291
 10
146.66222166085726
 20
97.57472382764291
 10
146.50043625149604
 20
97.57472382764291
 10
146.36920518992312
 20
97.57472382764291
 10
146.31435999782087
 20
97.57472382764291
 10
146.2595148057186
 20
97.57472382764291
  0
LWPOLYLINE
  5
44
330
17
100
AcDbEntity
  8
HIDDEN
100
AcDbPolyline
 90
33
 70
0
 10
146.2595148057186
 20
107.57472382764291
 10
146.31435999782087
 20
107.57472382764291
 10
146.36920518992312
 20
107.57472382764291
 10
146.50043625149604
 20
107.57472382764291
 10
146.66222166085726
 20
107.57472382764291
 10
146.86636176505124
 20
107.57472382764291
 10
147.12697479568897
 20
107.57472382764291
 10
147.39983916856886
 20
107.57472382764291
 10
147.7462115949017
 20
107.57472382764291
 10
148.09258402123453
 20
107.57472382764291
 10
148.49757716406464
 20
107.57472382764291
 10
148.91234042631095
 20
107.57472382764291
 10
149.35429961658235
 20
107.57472382764291
 10
149.81665575287258
 20
107.57472382764291
 10
150.28598571965972
 20
107.57472382764291
 10
150.77275026268916
 20
107.57472382764291
 10
151.2595148057186
 20
107.57472382764291
 10
151.74627934874803
 20
107.57472382764291
 10
152.23304389177747
 20
107.57472382764291
 10
152.7023738585646
 20
107.57472382764291
 10
153.16472999485484
 20
107.57472382764291
 10
153.60668918512624
 20
107.57472382764291
 10
154.02145244737255
 20
107.57472382764291
 10
154.42644559020266
 20
107.57472382764291
 10
154.7728180165355
 20
107.57472382764291
 10
155.11919044286833
 20
107.57472382764291
 10
155.39205481574822
 20
107.57472382764291
 10
155.65266784638595
 20
107.57472382764291
 10
155.85680795057993
 20
107.57472382764291
 10
156.01859335994115
 20
107.57472382764291
 10
156.14982442151407
 20
107.57472382764291
 10
156.20466961361632
 20
107.57472382764291
 10
156.2595148057186
 20
107.57472382764291
  0
LWPOLYLINE
  5
45
330
17
100
AcDbEntity
  8
HIDDEN
100
AcDbPolyline
 90
33
 70
0
 10
156.2595148057186
 20
107.57472382764291
 10
156.20466961361632
 20
107.57472382764291
 10
156.14982442151407
 20
107.57472382764291
 10
156.01859335994115
 20
107.57472382764291
 10
155.85680795057993
 20
107.57472382764291
 10
155.65266784638595
 20
107.57472382764291
 10
155.39205481574822
 20
107.57472382764291
 10
155.11919044286833
 20
107.57472382764291
 10
154.7728180165355
 20
107.57472382764291
 10
154.42644559020266
 20
107.57472382764291
 10
154.02145244737255
 20
107.57472382764291
 10
153.60668918512624
 20
107.57472382764291
 10
153.16472999485484
 20
107.57472382764291
 10
152.7023738585646
 20
107.57472382764291
 10
152.23304389177747
 20
107.57472382764291
 10
151.74627934874803
 20
107.57472382764291
 10
151.2595148057186
 20
107.57472382764291
 10
150.77275026268916
 20
107.57472382764291
 10
150.28598571965972
 20
107.57472382764291
 10
149.81665575287258
 20
107.57472382764291
 10
149.35429961658235
 20
107.57472382764291
 10
148.91234042631095
 20
107.57472382764291
 10
148.49757716406464
 20
107.57472382764291
 10
148.09258402123453
 20
107.57472382764291
 10
147.7462115949017
 20
107.57472382764291
 10
147.39983916856886
 20
107.57472382764291
 10
147.12697479568897
 20
107.57472382764291
 10
146.86636176505124
 20
107.57472382764291
 10
146.66222166085726
 20
107.57472382764291
 10
146.50043625149604
 20
107.57472382764291
 10
146.36920518992312
 20
107.57472382764291
 10
146.31435999782087
 20
107.57472382764291
 10
146.2595148057186
 20
107.57472382764291
  0
LINE
  5
46
330
17
100
AcDbEntity
  8
DIMENSION
100
AcDbLine
 10
123.2595148057186
 20
96.17472382764291
 30
0.0
 11
123.2595148057186
 21
84.97472382764292
 31
0.0
  0
LINE
  5
47
330
17
100
AcDbEntity
  8
DIMENSION
100
AcDbLine
 10
163.2595148057186
 20
96.17472382764291
 30
0.0
 11
163.2595148057186
 21
84.97472382764292
 31
0.0
  0
LINE
  5
48
330
17
100
AcDbEntity
  8
DIMENSION
100
AcDbLine
 10
123.2595148057186
 20
86.57472382764291
 30
0.0
 11
163.2595148057186
 21
86.57472382764291
 31
0.0
  0
SOLID
  5
49
330
17
100
AcDbEntity
  8
DIMENSION
100
AcDbTrace
 10
123.2595148057186
 20
86.57472382764291
 30
0.0
 11
126.6595148057186
 21
85.67472382764291
 31
0.0
 12
126.6595148057186
 22
87.47472382764292
 32
0.0
 13
126.6595148057186
 23
87.47472382764292
 33
0.0
  0
SOLID
  5
4A
330
17
100
AcDbEntity
  8
DIMENSION
100
AcDbTrace
 10
163.2595148057186
 20
86.57472382764291
 30
0.0
 11
159.8595148057186
 21
87.47472382764292
 31
0.0
 12
159.8595148057186
 22
85.67472382764291
 32
0.0
 13
159.8595148057186
 23
85.67472382764291
 33
0.0
  0
TEXT
  5
4B
330
17
100
AcDbEntity
  8
DIMENSION
100
AcDbText
 10
143.2595148057186
 20
84.37472382764291
 30
0.0
 40
3.2
  1
40.000
  7
LOFT_MONO
 72
1
 11
143.2595148057186
 21
84.37472382764291
 31
0.0
100
AcDbText
 73
2
  0
LINE
  5
4C
330
17
100
AcDbEntity
  8
DIMENSION
100
AcDbLine
 10
136.2595148057186
 20
97.57472382764291
 30
0.0
 11
136.14829800357813
 21
99.27156432650358
 31
0.0
  0
LINE
  5
4D
330
17
100
AcDbEntity
  8
DIMENSION
100
AcDbLine
 10
136.14829800357813
 20
99.27156432650358
 30
0.0
 11
135.81655054747648
 21
100.93937141397568
 31
0.0
  0
LINE
  5
4E
330
17
100
AcDbEntity
  8
DIMENSION
100
AcDbLine
 10
135.81655054747648
 20
100.93937141397568
 30
0.0
 11
135.26994872836534
 21
102.54960844838908
 31
0.0
  0
LINE
  5
4F
330
17
100
AcDbEntity
  8
DIMENSION
100
AcDbLine
 10
135.26994872836534
 20
102.54960844838908
 30
0.0
 11
134.5178450549163
 21
104.07472382764291
 31
0.0
  0
LINE
  5
50
330
17
100
AcDbEntity
  8
DIMENSION
100
AcDbLine
 10
134.5178450549163
 20
104.07472382764291
 30
0.0
 11
133.57310822950464
 21
105.48862240475628
 31
0.0
  0
LINE
  5
51
330
17
100
AcDbEntity
  8
DIMENSION
100
AcDbLine
 10
133.57310822950464
 20
105.48862240475628
 30
0.0
 11
132.4519029611437
 21
106.76711198306803
 31
0.0
  0
LINE
  5
52
330
17
100
AcDbEntity
  8
DIMENSION
100
AcDbLine
 10
132.4519029611437
 20
106.76711198306803
 30
0.0
 11
131.17341338283197
 21
107.88831725142897
 31
0.0
  0
LINE
  5
53
330
17
100
AcDbEntity
  8
DIMENSION
100
AcDbLine
 10
131.17341338283197
 20
107.88831725142897
 30
0.0
 11
129.7595148057186
 21
108.83305407684061
 31
0.0
  0
LINE
  5
54
330
17
100
AcDbEntity
  8
DIMENSION
100
AcDbLine
 10
129.7595148057186
 20
108.83305407684061
 30
0.0
 11
128.23439942646476
 21
109.58515775028964
 31
0.0
  0
LINE
  5
55
330
17
100
AcDbEntity
  8
DIMENSION
100
AcDbLine
 10
128.23439942646476
 20
109.58515775028964
 30
0.0
 11
126.62416239205136
 21
110.1317595694008
 31
0.0
  0
LINE
  5
56
330
17
100
AcDbEntity
  8
DIMENSION
100
AcDbLine
 10
126.62416239205136
 20
110.1317595694008
 30
0.0
 11
124.95635530457926
 21
110.46350702550245
 31
0.0
  0
LINE
  5
57
330
17
100
AcDbEntity
  8
DIMENSION
100
AcDbLine
 10
124.95635530457926
 20
110.46350702550245
 30
0.0
 11
123.2595148057186
 21
110.57472382764291
 31
0.0
  0
LINE
  5
58
330
17
100
AcDbEntity
  8
DIMENSION
100
AcDbLine
 10
124.6595148057186
 20
97.57472382764291
 30
0.0
 11
137.8595148057186
 21
97.57472382764291
 31
0.0
  0
LINE
  5
59
330
17
100
AcDbEntity
  8
DIMENSION
100
AcDbLine
 10
123.2595148057186
 20
98.97472382764292
 30
0.0
 11
123.2595148057186
 21
112.17472382764291
 31
0.0
  0
SOLID
  5
5A
330
17
100
AcDbEntity
  8
DIMENSION
100
AcDbTrace
 10
136.2595148057186
 20
97.57472382764291
 30
0.0
 11
135.3862458268599
 21
94.16776018085079
 31
0.0
 12
137.1861903106205
 22
94.18189720245047
 32
0.0
 13
137.1861903106205
 23
94.18189720245047
 33
0.0
  0
SOLID
  5
5B
330
17
100
AcDbEntity
  8
DIMENSION
100
AcDbTrace
 10
123.2595148057186
 20
110.57472382764291
 30
0.0
 11
119.86668818052615
 21
111.50139933254484
 31
0.0
 12
119.85255115892647
 22
109.70145484878421
 32
0.0
 13
119.85255115892647
 23
109.70145484878421
 33
0.0
  0
TEXT
  5
5C
330
17
100
AcDbEntity
  8
DIMENSION
100
AcDbText
 10
135.30861435713737
 20
109.62382337906168
 30
0.0
 40
3.2
  1
90.0°
  7
LOFT_MONO
 72
1
 11
135.30861435713737
 21
109.62382337906168
 31
0.0
100
AcDbText
 73
2
  0
TEXT
  5
5D
330
17
100
AcDbEntity
  8
TITLE
100
AcDbText
 10
143.2595148057186
 20
89.57472382764291
 30
0.0
 40
3.4
  1
FRONT
  7
LOFT_MONO
 72
1
 11
143.2595148057186
 21
89.57472382764291
 31
0.0
100
AcDbText
 73
2
  0
LINE
  5
5E
330
17
100
AcDbEntity
  8
VISIBLE
100
AcDbLine
 10
123.2595148057186
 20
48.57472382764291
 30
0.0
 11
123.2595148057186
 21
73.57472382764291
 31
0.0
  0
LINE
  5
5F
330
17
100
AcDbEntity
  8
VISIBLE
100
AcDbLine
 10
123.2595148057186
 20
48.57472382764291
 30
0.0
 11
163.2595148057186
 21
48.57472382764291
 31
0.0
  0
LINE
  5
60
330
17
100
AcDbEntity
  8
VISIBLE
100
AcDbLine
 10
123.2595148057186
 20
73.57472382764291
 30
0.0
 11
163.2595148057186
 21
73.57472382764291
 31
0.0
  0
LINE
  5
61
330
17
100
AcDbEntity
  8
VISIBLE
100
AcDbLine
 10
163.2595148057186
 20
48.57472382764291
 30
0.0
 11
163.2595148057186
 21
73.57472382764291
 31
0.0
  0
CIRCLE
  5
62
330
17
100
AcDbEntity
  8
VISIBLE
100
AcDbCircle
 10
135.2595148057186
 20
61.07472382764291
 30
0.0
 40
5.0
  0
CIRCLE
  5
63
330
17
100
AcDbEntity
  8
VISIBLE
100
AcDbCircle
 10
151.2595148057186
 20
61.07472382764291
 30
0.0
 40
5.0
  0
LINE
  5
64
330
17
100
AcDbEntity
  8
DIMENSION
100
AcDbLine
 10
130.2595148057186
 20
61.07472382764291
 30
0.0
 11
140.2595148057186
 21
61.07472382764291
 31
0.0
  0
SOLID
  5
65
330
17
100
AcDbEntity
  8
DIMENSION
100
AcDbTrace
 10
130.2595148057186
 20
61.07472382764291
 30
0.0
 11
133.6595148057186
 21
60.17472382764291
 31
0.0
 12
133.6595148057186
 22
61.97472382764292
 32
0.0
 13
133.6595148057186
 23
61.97472382764292
 33
0.0
  0
SOLID
  5
66
330
17
100
AcDbEntity
  8
DIMENSION
100
AcDbTrace
 10
140.2595148057186
 20
61.07472382764291
 30
0.0
 11
136.8595148057186
 21
61.97472382764292
 31
0.0
 12
136.8595148057186
 22
60.17472382764291
 32
0.0
 13
136.8595148057186
 23
60.17472382764291
 33
0.0
  0
TEXT
  5
67
330
17
100
AcDbEntity
  8
DIMENSION
100
AcDbText
 10
121.0155148057186
 20
61.07472382764291
 30
0.0
 40
3.2
  1
Ø10.000
  7
LOFT_MONO
 72
1
 11
121.0155148057186
 21
61.07472382764291
 31
0.0
100
AcDbText
 73
2
  0
LINE
  5
68
330
17
100
AcDbEntity
  8
DIMENSION
100
AcDbLine
 10
135.2595148057186
 20
61.07472382764291
 30
0.0
 11
138.79504871165133
 21
64.61025773357565
 31
0.0
  0
SOLID
  5
69
330
17
100
AcDbEntity
  8
DIMENSION
100
AcDbTrace
 10
138.79504871165133
 20
64.61025773357565
 30
0.0
 11
135.7544895525492
 21
62.842490780609296
 31
0.0
 12
137.02728175868498
 22
61.569698574473506
 32
0.0
 13
137.02728175868498
 23
61.569698574473506
 33
0.0
  0
TEXT
  5
6A
330
17
100
AcDbEntity
  8
DIMENSION
100
AcDbText
 10
145.33720065118928
 20
71.1524096731136
 30
0.0
 40
3.2
  1
R5.000
  7
LOFT_MONO
 72
1
 11
145.33720065118928
 21
71.1524096731136
 31
0.0
100
AcDbText
 73
2
  0
TEXT
  5
6B
330
17
100
AcDbEntity
  8
TITLE
100
AcDbText
 10
143.2595148057186
 20
40.57472382764291
 30
0.0
 40
3.4
  1
TOP
  7
LOFT_MONO
 72
1
 11
143.2595148057186
 21
40.57472382764291
 31
0.0
100
AcDbText
 73
2
  0
LINE
  5
6C
330
17
100
AcDbEntity
  8
VISIBLE
100
AcDbLine
 10
74.2595148057186
 20
97.57472382764291
 30
0.0
 11
74.2595148057186
 21
107.57472382764291
 31
0.0
  0
LINE
  5
6D
330
17
100
AcDbEntity
  8
VISIBLE
100
AcDbLine
 10
74.2595148057186
 20
97.57472382764291
 30
0.0
 11
99.2595148057186
 21
97.57472382764291
 31
0.0
  0
LINE
  5
6E
330
17
100
AcDbEntity
  8
VISIBLE
100
AcDbLine
 10
74.2595148057186
 20
107.57472382764291
 30
0.0
 11
99.2595148057186
 21
107.57472382764291
 31
0.0
  0
LINE
  5
6F
330
17
100
AcDbEntity
  8
HIDDEN
100
AcDbLine
 10
81.7595148057186
 20
97.57472382764291
 30
0.0
 11
81.7595148057186
 21
107.57472382764291
 31
0.0
  0
LINE
  5
70
330
17
100
AcDbEntity
  8
HIDDEN
100
AcDbLine
 10
91.7595148057186
 20
97.57472382764291
 30
0.0
 11
91.7595148057186
 21
107.57472382764291
 31
0.0
  0
LINE
  5
71
330
17
100
AcDbEntity
  8
VISIBLE
100
AcDbLine
 10
99.2595148057186
 20
97.57472382764291
 30
0.0
 11
99.2595148057186
 21
107.57472382764291
 31
0.0
  0
LWPOLYLINE
  5
72
330
17
100
AcDbEntity
  8
HIDDEN
100
AcDbPolyline
 90
33
 70
0
 10
81.7595148057186
 20
97.57472382764291
 10
81.77326934657712
 20
97.57472382764291
 10
81.78702388743565
 20
97.57472382764291
 10
81.82030422142647
 20
97.57472382764291
 10
81.8613948726702
 20
97.57472382764291
 10
81.91397954031584
 20
97.57472382764291
 10
81.98188956316403
 20
97.57472382764291
 10
82.05350892367862
 20
97.57472382764291
 10
82.14738431019163
 20
97.57472382764291
 10
82.24125969670465
 20
97.57472382764291
 10
82.3563792199705
 20
97.57472382764291
 10
82.47503943269517
 20
97.57472382764291
 10
82.60700970552749
 20
97.57472382764291
 10
82.74896252344055
 20
97.57472382764291
 10
82.89706033167937
 20
97.57472382764291
 10
83.06052061573261
 20
97.57472382764291
 10
83.22398089978586
 20
97.57472382764291
 10
83.40689304206545
 20
97.57472382764291
 10
83.58980518434504
 20
97.57472382764291
 10
83.78496849227399
 20
97.57472382764291
 10
83.98503226646267
 20
97.57472382764291
 10
84.19136848945233
 20
97.57472382764291
 10
84.40606797750996
 20
97.57472382764291
 10
84.62247257174405
 20
97.57472382764291
 10
84.84910780303677
 20
97.57472382764291
 10
85.07574303432952
 20
97.57472382764291
 10
85.31016598594061
 20
97.57472382764291
 10
85.54588689093809
 20
97.57472382764291
 10
85.78510570825328
 20
97.57472382764291
 10
86.02694795980673
 20
97.57472382764291
 10
86.26967022276662
 20
97.57472382764291
 10
86.51459251424261
 20
97.57472382764291
 10
86.7595148057186
 20
97.57472382764291
  0
LWPOLYLINE
  5
73
330
17
100
AcDbEntity
  8
HIDDEN
100
AcDbPolyline
 90
33
 70
0
 10
91.7595148057186
 20
97.57472382764291
 10
91.70466961361633
 20
97.57472382764291
 10
91.64982442151407
 20
97.57472382764291
 10
91.51859335994115
 20
97.57472382764291
 10
91.35680795057995
 20
97.57472382764291
 10
91.15266784638595
 20
97.57472382764291
 10
90.89205481574822
 20
97.57472382764291
 10
90.61919044286834
 20
97.57472382764291
 10
90.2728180165355
 20
97.57472382764291
 10
89.92644559020266
 20
97.57472382764291
 10
89.52145244737255
 20
97.57472382764291
 10
89.10668918512624
 20
97.57472382764291
 10
88.66472999485484
 20
97.57472382764291
 10
88.20237385856461
 20
97.57472382764291
 10
87.73304389177747
 20
97.57472382764291
 10
87.24627934874803
 20
97.57472382764291
 10
86.7595148057186
 20
97.57472382764291
 10
86.27275026268916
 20
97.57472382764291
 10
85.78598571965972
 20
97.57472382764291
 10
85.31665575287258
 20
97.57472382764291
 10
84.85429961658235
 20
97.57472382764291
 10
84.41234042631095
 20
97.57472382764291
 10
83.99757716406464
 20
97.57472382764291
 10
83.59258402123453
 20
97.57472382764291
 10
83.2462115949017
 20
97.57472382764291
 10
82.89983916856885
 20
97.57472382764291
 10
82.62697479568897
 20
97.57472382764291
 10
82.36636176505124
 20
97.57472382764291
 10
82.16222166085724
 20
97.57472382764291
 10
82.00043625149604
 20
97.57472382764291
 10
81.86920518992312
 20
97.57472382764291
 10
81.81435999782086
 20
97.57472382764291
 10
81.7595148057186
 20
97.57472382764291
  0
LWPOLYLINE
  5
74
330
17
100
AcDbEntity
  8
HIDDEN
100
AcDbPolyline
 90
33
 70
0
 10
81.7595148057186
 20
107.57472382764291
 10
81.77326934657712
 20
107.57472382764291
 10
81.78702388743565
 20
107.57472382764291
 10
81.82030422142647
 20
107.57472382764291
 10
81.8613948726702
 20
107.57472382764291
 10
81.91397954031584
 20
107.57472382764291
 10
81.98188956316403
 20
107.57472382764291
 10
82.05350892367862
 20
107.57472382764291
 10
82.14738431019163
 20
107.57472382764291
 10
82.24125969670465
 20
107.57472382764291
 10
82.3563792199705
 20
107.57472382764291
 10
82.47503943269517
 20
107.57472382764291
 10
82.60700970552749
 20
107.57472382764291
 10
82.74896252344055
 20
107.57472382764291
 10
82.89706033167937
 20
107.57472382764291
 10
83.06052061573261
 20
107.57472382764291
 10
83.22398089978586
 20
107.57472382764291
 10
83.40689304206545
 20
107.57472382764291
 10
83.58980518434504
 20
107.57472382764291
 10
83.78496849227399
 20
107.57472382764291
 10
83.98503226646267
 20
107.57472382764291
 10
84.19136848945233
 20
107.57472382764291
 10
84.40606797750996
 20
107.57472382764291
 10
84.62247257174405
 20
107.57472382764291
 10
84.84910780303677
 20
107.57472382764291
 10
85.07574303432952
 20
107.57472382764291
 10
85.31016598594061
 20
107.57472382764291
 10
85.54588689093809
 20
107.57472382764291
 10
85.78510570825328
 20
107.57472382764291
 10
86.02694795980673
 20
107.57472382764291
 10
86.26967022276662
 20
107.57472382764291
 10
86.51459251424261
 20
107.57472382764291
 10
86.7595148057186
 20
107.57472382764291
  0
LWPOLYLINE
  5
75
330
17
100
AcDbEntity
  8
HIDDEN
100
AcDbPolyline
 90
33
 70
0
 10
91.7595148057186
 20
107.57472382764291
 10
91.70466961361633
 20
107.57472382764291
 10
91.64982442151407
 20
107.57472382764291
 10
91.51859335994115
 20
107.57472382764291
 10
91.35680795057995
 20
107.57472382764291
 10
91.15266784638595
 20
107.57472382764291
 10
90.89205481574822
 20
107.57472382764291
 10
90.61919044286834
 20
107.57472382764291
 10
90.2728180165355
 20
107.57472382764291
 10
89.92644559020266
 20
107.57472382764291
 10
89.52145244737255
 20
107.57472382764291
 10
89.10668918512624
 20
107.57472382764291
 10
88.66472999485484
 20
107.57472382764291
 10
88.20237385856461
 20
107.57472382764291
 10
87.73304389177747
 20
107.57472382764291
 10
87.24627934874803
 20
107.57472382764291
 10
86.7595148057186
 20
107.57472382764291
 10
86.27275026268916
 20
107.57472382764291
 10
85.78598571965972
 20
107.57472382764291
 10
85.31665575287258
 20
107.57472382764291
 10
84.85429961658235
 20
107.57472382764291
 10
84.41234042631095
 20
107.57472382764291
 10
83.99757716406464
 20
107.57472382764291
 10
83.59258402123453
 20
107.57472382764291
 10
83.2462115949017
 20
107.57472382764291
 10
82.89983916856885
 20
107.57472382764291
 10
82.62697479568897
 20
107.57472382764291
 10
82.36636176505124
 20
107.57472382764291
 10
82.16222166085724
 20
107.57472382764291
 10
82.00043625149604
 20
107.57472382764291
 10
81.86920518992312
 20
107.57472382764291
 10
81.81435999782086
 20
107.57472382764291
 10
81.7595148057186
 20
107.57472382764291
  0
LWPOLYLINE
  5
76
330
17
100
AcDbEntity
  8
HIDDEN
100
AcDbPolyline
 90
33
 70
0
 10
86.7595148057186
 20
97.57472382764291
 10
87.00443709719458
 20
97.57472382764291
 10
87.24935938867057
 20
97.57472382764291
 10
87.49208165163046
 20
97.57472382764291
 10
87.7339239031839
 20
97.57472382764291
 10
87.97314272049908
 20
97.57472382764291
 10
88.20886362549658
 20
97.57472382764291
 10
88.44328657710767
 20
97.57472382764291
 10
88.6699218084004
 20
97.57472382764291
 10
88.89655703969314
 20
97.57472382764291
 10
89.11296163392723
 20
97.57472382764291
 10
89.32766112198486
 20
97.57472382764291
 10
89.53399734497452
 20
97.57472382764291
 10
89.7340611191632
 20
97.57472382764291
 10
89.92922442709215
 20
97.57472382764291
 10
90.11213656937174
 20
97.57472382764291
 10
90.29504871165133
 20
97.57472382764291
 10
90.45850899570458
 20
97.57472382764291
 10
90.62196927975782
 20
97.57472382764291
 10
90.77006708799664
 20
97.57472382764291
 10
90.9120199059097
 20
97.57472382764291
 10
91.04399017874202
 20
97.57472382764291
 10
91.16265039146668
 20
97.57472382764291
 10
91.27776991473254
 20
97.57472382764291
 10
91.37164530124556
 20
97.57472382764291
 10
91.46552068775857
 20
97.57472382764291
 10
91.53714004827316
 20
97.57472382764291
 10
91.60505007112135
 20
97.57472382764291
 10
91.65763473876699
 20
97.57472382764291
 10
91.69872539001071
 20
97.57472382764291
 10
91.73200572400154
 20
97.57472382764291
 10
91.74576026486007
 20
97.57472382764291
 10
91.7595148057186
 20
97.57472382764291
  0
LWPOLYLINE
  5
77
330
17
100
AcDbEntity
  8
HIDDEN
100
AcDbPolyline
 90
33
 70
0
 10
86.7595148057186
 20
107.57472382764291
 10
87.00443709719458
 20
107.57472382764291
 10
87.24935938867057
 20
107.57472382764291
 10
87.49208165163046
 20
107.57472382764291
 10
87.7339239031839
 20
107.57472382764291
 10
87.97314272049908
 20
107.57472382764291
 10
88.20886362549658
 20
107.57472382764291
 10
88.44328657710767
 20
107.57472382764291
 10
88.6699218084004
 20
107.57472382764291
 10
88.89655703969314
 20
107.57472382764291
 10
89.11296163392723
 20
107.57472382764291
 10
89.32766112198486
 20
107.57472382764291
 10
89.53399734497452
 20
107.57472382764291
 10
89.7340611191632
 20
107.57472382764291
 10
89.92922442709215
 20
107.57472382764291
 10
90.11213656937174
 20
107.57472382764291
 10
90.29504871165133
 20
107.57472382764291
 10
90.45850899570458
 20
107.57472382764291
 10
90.62196927975782
 20
107.57472382764291
 10
90.77006708799664
 20
107.57472382764291
 10
90.9120199059097
 20
107.57472382764291
 10
91.04399017874202
 20
107.57472382764291
 10
91.16265039146668
 20
107.57472382764291
 10
91.27776991473254
 20
107.57472382764291
 10
91.37164530124556
 20
107.57472382764291
 10
91.46552068775857
 20
107.57472382764291
 10
91.53714004827316
 20
107.57472382764291
 10
91.60505007112135
 20
107.57472382764291
 10
91.65763473876699
 20
107.57472382764291
 10
91.69872539001071
 20
107.57472382764291
 10
91.73200572400154
 20
107.57472382764291
 10
91.74576026486007
 20
107.57472382764291
 10
91.7595148057186
 20
107.57472382764291
  0
TEXT
  5
78
330
17
100
AcDbEntity
  8
TITLE
100
AcDbText
 10
86.7595148057186
 20
89.57472382764291
 30
0.0
 40
3.4
  1
RIGHT
  7
LOFT_MONO
 72
1
 11
86.7595148057186
 21
89.57472382764291
 31
0.0
100
AcDbText
 73
2
  0
LINE
  5
79
330
17
100
AcDbEntity
  8
VISIBLE
100
AcDbLine
 10
176.77854441715579
 20
136.9303787445253
 30
0.0
 11
176.77854441715579
 21
145.09534455380256
 31
0.0
  0
LINE
  5
7A
330
17
100
AcDbEntity
  8
VISIBLE
100
AcDbLine
 10
176.77854441715579
 20
136.9303787445253
 30
0.0
 11
194.4562139468195
 21
126.72417148292874
 31
0.0
  0
LINE
  5
7B
330
17
100
AcDbEntity
  8
HIDDEN
100
AcDbLine
 10
176.77854441715579
 20
136.9303787445253
 30
0.0
 11
205.0628156646177
 21
153.26031036307984
 31
0.0
  0
LINE
  5
7C
330
17
100
AcDbEntity
  8
VISIBLE
100
AcDbLine
 10
176.77854441715579
 20
145.09534455380256
 30
0.0
 11
194.4562139468195
 21
134.889137292206
 31
0.0
  0
LINE
  5
7D
330
17
100
AcDbEntity
  8
VISIBLE
100
AcDbLine
 10
176.77854441715579
 20
145.09534455380256
 30
0.0
 11
205.0628156646177
 21
161.4252761723571
 31
0.0
  0
LINE
  5
7E
330
17
100
AcDbEntity
  8
HIDDEN
100
AcDbLine
 10
189.10266055622623
 20
136.72625459929338
 30
0.0
 11
189.10266055622623
 21
144.89122040857063
 31
0.0
  0
LINE
  5
7F
330
17
100
AcDbEntity
  8
VISIBLE
100
AcDbLine
 10
194.4562139468195
 20
126.72417148292874
 30
0.0
 11
194.4562139468195
 21
134.889137292206
 31
0.0
  0
LINE
  5
80
330
17
100
AcDbEntity
  8
VISIBLE
100
AcDbLine
 10
194.4562139468195
 20
126.72417148292874
 30
0.0
 11
222.7404851942814
 21
143.05410310148326
 31
0.0
  0
LINE
  5
81
330
17
100
AcDbEntity
  8
VISIBLE
100
AcDbLine
 10
194.4562139468195
 20
134.889137292206
 30
0.0
 11
222.7404851942814
 21
151.2190689107605
 31
0.0
  0
LINE
  5
82
330
17
100
AcDbEntity
  8
HIDDEN
100
AcDbLine
 10
199.10266055622623
 20
136.72625459929338
 30
0.0
 11
199.10266055622623
 21
144.89122040857063
 31
0.0
  0
LINE
  5
83
330
17
100
AcDbEntity
  8
HIDDEN
100
AcDbLine
 10
200.41636905521096
 20
143.2582272467152
 30
0.0
 11
200.41636905521096
 21
151.42319305599244
 31
0.0
  0
LINE
  5
84
330
17
100
AcDbEntity
  8
HIDDEN
100
AcDbLine
 10
205.0628156646177
 20
153.26031036307984
 30
0.0
 11
205.0628156646177
 21
161.4252761723571
 31
0.0
  0
LINE
  5
85
330
17
100
AcDbEntity
  8
HIDDEN
100
AcDbLine
 10
205.0628156646177
 20
153.26031036307984
 30
0.0
 11
222.7404851942814
 21
143.05410310148324
 31
0.0
  0
LINE
  5
86
330
17
100
AcDbEntity
  8
VISIBLE
100
AcDbLine
 10
205.0628156646177
 20
161.4252761723571
 30
0.0
 11
222.7404851942814
 21
151.2190689107605
 31
0.0
  0
LINE
  5
87
330
17
100
AcDbEntity
  8
HIDDEN
100
AcDbLine
 10
210.41636905521096
 20
143.2582272467152
 30
0.0
 11
210.41636905521096
 21
151.42319305599244
 31
0.0
  0
LINE
  5
88
330
17
100
AcDbEntity
  8
VISIBLE
100
AcDbLine
 10
222.7404851942814
 20
143.05410310148324
 30
0.0
 11
222.7404851942814
 21
151.2190689107605
 31
0.0
  0
LWPOLYLINE
  5
89
330
17
100
AcDbEntity
  8
HIDDEN
100
AcDbPolyline
 90
33
 70
0
 10
197.63819446215896
 20
138.76749605161268
 10
197.3685247709951
 20
138.91212825610978
 10
197.0811570786884
 20
139.0449150218708
 10
196.7776486556617
 20
139.16513676590705
 10
196.4596442403562
 20
139.27214199617129
 10
196.12886712625115
 20
139.36535084204945
 10
195.7871098231873
 20
139.44425819672995
 10
195.4362243436007
 20
139.50843645442097
 10
195.07811216630685
 20
139.55753782758353
 10
194.7147139322223
 20
139.59129623162218
 10
194.3479989278633
 20
139.60952872682054
 10
193.97995441361167
 20
139.6121365097074
 10
193.6125748545784
 20
139.59910544848137
 10
193.2478511124247
 20
139.57050615959224
 10
192.8877596567099
 20
139.52649362506446
 10
192.53425185423177
 20
139.467306352636
 10
192.18924339440076
 20
139.39326508326428
 10
191.8546039079532
 20
139.3047710530031
 10
191.5321468352601
 20
139.20230381866986
 10
191.22361959913698
 20
139.08641865908547
 10
190.93069413540798
 20
138.95774356597025
 10
190.65495783254087
 20
138.8169758408025
 10
190.3979049294514
 20
138.6648783160815
 10
190.1609284180932
 20
138.5022752214718
 10
189.94531249471348
 20
138.33004771723142
 10
189.75222560068266
 20
138.1491291191281
 10
189.582714090609
 20
137.96049984072022
 10
189.4376965620525
 20
137.7651820804108
 10
189.31795887756516
 20
137.5642342820658
 10
189.22414990603357
 20
137.35874539921514
 10
189.1567780064023
 20
137.14982899391902
 10
189.11620827283275
 20
136.9386172022788
 10
189.10266055622623
 20
136.72625459929338
  0
LWPOLYLINE
  5
8A
330
17
100
AcDbEntity
  8
HIDDEN
100
AcDbPolyline
 90
33
 70
0
 10
189.10266055622623
 20
136.72625459929338
 10
189.12673692286523
 20
136.44330348752104
 10
189.19873415421006
 20
136.16307734963186
 10
189.31795887756516
 20
135.88827491652094
 10
189.48326289366977
 20
135.6215426858414
 10
189.69305423448444
 20
135.36544943478538
 10
189.94531249471348
 20
135.12246148135534
 10
190.23760828941252
 20
134.8949189323735
 10
190.5671266502935
 20
134.68501314697406
 10
190.93069413540798
 20
134.49476563261652
 10
191.3248093911282
 20
134.32600857686404
 10
191.74567687209623
 20
134.18036720241548
 10
192.18924339440076
 20
134.05924411532249
 10
192.6512371699539
 20
133.96380579712638
 10
193.12720894614557
 20
133.89497137100324
 10
193.6125748545784
 20
133.85340375010537
 10
194.10266055622623
 20
133.83950325334524
 10
194.592746257874
 20
133.85340375010537
 10
195.07811216630685
 20
133.89497137100324
 10
195.55408394249852
 20
133.96380579712638
 10
196.01607771805166
 20
134.05924411532249
 10
196.4596442403562
 20
134.18036720241548
 10
196.8805117213242
 20
134.32600857686404
 10
197.27462697704445
 20
134.49476563261652
 10
197.63819446215896
 20
134.68501314697406
 10
197.9677128230399
 20
134.8949189323735
 10
198.26000861773895
 20
135.12246148135534
 10
198.512266877968
 20
135.36544943478538
 10
198.72205821878265
 20
135.6215426858414
 10
198.88736223488726
 20
135.88827491652094
 10
199.00658695824237
 20
136.16307734963186
 10
199.0785841895872
 20
136.44330348752104
 10
199.10266055622623
 20
136.72625459929338
  0
LWPOLYLINE
  5
8B
330
17
100
AcDbEntity
  8
VISIBLE
100
AcDbPolyline
 90
33
 70
0
 10
197.63819446215896
 20
146.93246186088996
 10
197.3685247709951
 20
147.07709406538706
 10
197.0811570786884
 20
147.20988083114807
 10
196.7776486556617
 20
147.3301025751843
 10
196.4596442403562
 20
147.43710780544853
 10
196.12886712625115
 20
147.5303166513267
 10
195.7871098231873
 20
147.6092240060072
 10
195.4362243436007
 20
147.67340226369822
 10
195.07811216630685
 20
147.72250363686078
 10
194.7147139322223
 20
147.75626204089943
 10
194.3479989278633
 20
147.7744945360978
 10
193.97995441361167
 20
147.77710231898465
 10
193.6125748545784
 20
147.76407125775862
 10
193.2478511124247
 20
147.73547196886952
 10
192.8877596567099
 20
147.69145943434174
 10
192.53425185423177
 20
147.63227216191325
 10
192.18924339440076
 20
147.55823089254153
 10
191.8546039079532
 20
147.46973686228037
 10
191.5321468352601
 20
147.36726962794714
 10
191.22361959913698
 20
147.25138446836272
 10
190.93069413540798
 20
147.1227093752475
 10
190.65495783254087
 20
146.9819416500798
 10
190.3979049294514
 20
146.8298441253588
 10
190.1609284180932
 20
146.66724103074907
 10
189.94531249471348
 20
146.4950135265087
 10
189.75222560068266
 20
146.31409492840538
 10
189.582714090609
 20
146.12546564999747
 10
189.4376965620525
 20
145.93014788968807
 10
189.31795887756516
 20
145.72920009134307
 10
189.22414990603357
 20
145.5237112084924
 10
189.1567780064023
 20
145.31479480319626
 10
189.11620827283275
 20
145.10358301155605
 10
189.10266055622623
 20
144.89122040857063
  0
LWPOLYLINE
  5
8C
330
17
100
AcDbEntity
  8
VISIBLE
100
AcDbPolyline
 90
33
 70
0
 10
189.10266055622623
 20
144.89122040857063
 10
189.12673692286523
 20
144.6082692967983
 10
189.19873415421006
 20
144.3280431589091
 10
189.31795887756516
 20
144.05324072579822
 10
189.48326289366977
 20
143.78650849511865
 10
189.69305423448444
 20
143.53041524406262
 10
189.94531249471348
 20
143.2874272906326
 10
190.23760828941252
 20
143.0598847416508
 10
190.5671266502935
 20
142.84997895625133
 10
190.93069413540798
 20
142.65973144189377
 10
191.3248093911282
 20
142.49097438614132
 10
191.74567687209623
 20
142.34533301169273
 10
192.18924339440076
 20
142.22420992459976
 10
192.6512371699539
 20
142.12877160640363
 10
193.12720894614557
 20
142.05993718028049
 10
193.6125748545784
 20
142.01836955938265
 10
194.10266055622623
 20
142.0044690626225
 10
194.592746257874
 20
142.01836955938265
 10
195.07811216630685
 20
142.05993718028049
 10
195.55408394249852
 20
142.12877160640363
 10
196.01607771805166
 20
142.22420992459976
 10
196.4596442403562
 20
142.34533301169273
 10
196.8805117213242
 20
142.4909743861413
 10
197.27462697704445
 20
142.65973144189377
 10
197.63819446215896
 20
142.84997895625133
 10
197.9677128230399
 20
143.0598847416508
 10
198.26000861773895
 20
143.2874272906326
 10
198.512266877968
 20
143.53041524406262
 10
198.72205821878265
 20
143.78650849511865
 10
198.88736223488726
 20
144.05324072579822
 10
199.00658695824237
 20
144.3280431589091
 10
199.0785841895872
 20
144.6082692967983
 10
199.10266055622623
 20
144.89122040857063
  0
LWPOLYLINE
  5
8D
330
17
100
AcDbEntity
  8
HIDDEN
100
AcDbPolyline
 90
33
 70
0
 10
199.10266055622623
 20
136.72625459929338
 10
199.10115464970724
 20
136.7970990237631
 10
199.09663783725208
 20
136.8679007742006
 10
199.08911283961967
 20
136.9386172022788
 10
199.0785841895872
 20
137.0092057110657
 10
199.06505822921977
 20
137.07962378068314
 10
199.04854310605012
 20
137.14982899391902
 10
199.02904876817092
 20
137.219779061778
 10
199.00658695824237
 20
137.2894318489549
 10
198.98117120641885
 20
137.35874539921514
 10
198.95281682219894
 20
137.42767796066784
 10
198.92154088520343
 20
137.49618801091557
 10
198.88736223488726
 20
137.5642342820658
 10
198.8503014591914
 20
137.63177578558924
 10
198.81038088214132
 20
137.69877183700964
 10
198.76762455039992
 20
137.7651820804108
 10
198.72205821878265
 20
137.83096651274536
 10
198.67370933474388
 20
137.89608550793108
 10
198.62260702184344
 20
137.96049984072022
 10
198.56878206220378
 20
138.02417071032733
 10
198.512266877968
 20
138.0870597638014
 10
198.45309551176976
 20
138.1491291191281
 10
198.39130360622758
 20
138.2103413880488
 10
198.32692838247476
 20
138.27065969858148
 10
198.26000861773895
 20
138.33004771723142
 10
198.19058462198413
 20
138.38846967087682
 10
198.11869821362944
 20
138.44589036831727
 10
198.04439269435926
 20
138.5022752214718
 10
197.9677128230399
 20
138.55759026621325
 10
197.88870478875864
 20
138.61180218282698
 10
197.807416183001
 20
138.6648783160815
 10
197.72389597098356
 20
138.71678669489893
 10
197.63819446215896
 20
138.76749605161268
  0
LWPOLYLINE
  5
8E
330
17
100
AcDbEntity
  8
VISIBLE
100
AcDbPolyline
 90
33
 70
0
 10
199.10266055622623
 20
144.89122040857063
 10
199.10115464970724
 20
144.96206483304036
 10
199.09663783725208
 20
145.03286658347787
 10
199.08911283961967
 20
145.10358301155605
 10
199.0785841895872
 20
145.17417152034298
 10
199.06505822921977
 20
145.2445895899604
 10
199.04854310605012
 20
145.31479480319626
 10
199.02904876817092
 20
145.38474487105526
 10
199.00658695824237
 20
145.45439765823215
 10
198.98117120641885
 20
145.5237112084924
 10
198.95281682219894
 20
145.5926437699451
 10
198.92154088520343
 20
145.66115382019285
 10
198.88736223488726
 20
145.72920009134307
 10
198.8503014591914
 20
145.7967415948665
 10
198.81038088214132
 20
145.8637376462869
 10
198.76762455039992
 20
145.93014788968807
 10
198.72205821878265
 20
145.9959323220226
 10
198.67370933474388
 20
146.06105131720832
 10
198.62260702184344
 20
146.12546564999747
 10
198.56878206220378
 20
146.1891365196046
 10
198.512266877968
 20
146.25202557307864
 10
198.45309551176976
 20
146.31409492840538
 10
198.39130360622758
 20
146.37530719732604
 10
198.32692838247476
 20
146.43562550785876
 10
198.26000861773895
 20
146.4950135265087
 10
198.19058462198413
 20
146.55343548015406
 10
198.11869821362944
 20
146.61085617759454
 10
198.04439269435926
 20
146.66724103074907
 10
197.9677128230399
 20
146.7225560754905
 10
197.88870478875864
 20
146.77676799210423
 10
197.807416183001
 20
146.8298441253588
 10
197.72389597098356
 20
146.88175250417618
 10
197.63819446215896
 20
146.93246186088996
  0
LWPOLYLINE
  5
8F
330
17
100
AcDbEntity
  8
HIDDEN
100
AcDbPolyline
 90
33
 70
0
 10
208.9519029611437
 20
145.2994686990345
 10
208.68223326997986
 20
145.44410090353162
 10
208.39486557767313
 20
145.5768876692926
 10
208.09135715464646
 20
145.69710941332886
 10
207.77335273934096
 20
145.80411464359307
 10
207.44257562523592
 20
145.89732348947126
 10
207.10081832217207
 20
145.97623084415176
 10
206.74993284258548
 20
146.04040910184278
 10
206.39182066529162
 20
146.08951047500534
 10
206.02842243120705
 20
146.123268879044
 10
205.66170742684807
 20
146.14150137424235
 10
205.2936629125964
 20
146.1441091571292
 10
204.92628335356318
 20
146.13107809590318
 10
204.56155961140948
 20
146.10247880701405
 10
204.20146815569467
 20
146.05846627248627
 10
203.8479603532165
 20
145.9992790000578
 10
203.50295189338553
 20
145.92523773068606
 10
203.16831240693793
 20
145.8367437004249
 10
202.84585533424487
 20
145.73427646609167
 10
202.53732809812175
 20
145.61839130650728
 10
202.24440263439274
 20
145.48971621339206
 10
201.96866633152564
 20
145.34894848822432
 10
201.71161342843618
 20
145.19685096350332
 10
201.47463691707793
 20
145.0342478688936
 10
201.25902099369824
 20
144.86202036465323
 10
201.06593409966743
 20
144.68110176654992
 10
200.89642258959375
 20
144.49247248814203
 10
200.75140506103727
 20
144.2971547278326
 10
200.63166737654993
 20
144.0962069294876
 10
200.53785840501834
 20
143.89071804663695
 10
200.47048650538707
 20
143.68180164134083
 10
200.42991677181752
 20
143.47058984970062
 10
200.41636905521096
 20
143.2582272467152
  0
LWPOLYLINE
  5
90
330
17
100
AcDbEntity
  8
HIDDEN
100
AcDbPolyline
 90
33
 70
0
 10
200.41636905521096
 20
143.2582272467152
 10
200.44044542185
 20
142.97527613494285
 10
200.51244265319482
 20
142.69504999705367
 10
200.63166737654993
 20
142.42024756394275
 10
200.79697139265454
 20
142.15351533326321
 10
201.0067627334692
 20
141.89742208220719
 10
201.25902099369824
 20
141.65443412877715
 10
201.5513167883973
 20
141.42689157979532
 10
201.88083514927823
 20
141.21698579439587
 10
202.24440263439274
 20
141.02673828003833
 10
202.63851789011295
 20
140.85798122428585
 10
203.059385371081
 20
140.7123398498373
 10
203.50295189338553
 20
140.5912167627443
 10
203.96494566893867
 20
140.4957784445482
 10
204.44091744513034
 20
140.42694401842505
 10
204.92628335356318
 20
140.38537639752718
 10
205.41636905521096
 20
140.37147590076705
 10
205.90645475685878
 20
140.38537639752718
 10
206.39182066529162
 20
140.42694401842505
 10
206.8677924414833
 20
140.4957784445482
 10
207.32978621703643
 20
140.5912167627443
 10
207.77335273934096
 20
140.7123398498373
 10
208.19422022030898
 20
140.85798122428585
 10
208.5883354760292
 20
141.02673828003833
 10
208.9519029611437
 20
141.21698579439587
 10
209.28142132202467
 20
141.42689157979532
 10
209.5737171167237
 20
141.65443412877715
 10
209.82597537695275
 20
141.89742208220719
 10
210.03576671776742
 20
142.15351533326321
 10
210.20107073387203
 20
142.42024756394275
 10
210.32029545722713
 20
142.69504999705367
 10
210.39229268857196
 20
142.97527613494285
 10
210.41636905521096
 20
143.2582272467152
  0
LWPOLYLINE
  5
91
330
17
100
AcDbEntity
  8
VISIBLE
100
AcDbPolyline
 90
33
 70
0
 10
208.9519029611437
 20
153.46443450831177
 10
208.68223326997986
 20
153.60906671280887
 10
208.39486557767313
 20
153.74185347856988
 10
208.09135715464646
 20
153.8620752226061
 10
207.77335273934096
 20
153.96908045287034
 10
207.44257562523592
 20
154.0622892987485
 10
207.10081832217207
 20
154.141196653429
 10
206.74993284258548
 20
154.20537491112003
 10
206.39182066529162
 20
154.2544762842826
 10
206.02842243120705
 20
154.28823468832124
 10
205.66170742684807
 20
154.3064671835196
 10
205.2936629125964
 20
154.30907496640646
 10
204.92628335356318
 20
154.29604390518043
 10
204.56155961140948
 20
154.26744461629133
 10
204.20146815569467
 20
154.22343208176355
 10
203.8479603532165
 20
154.16424480933506
 10
203.50295189338553
 20
154.09020353996334
 10
203.16831240693793
 20
154.00170950970218
 10
202.84585533424487
 20
153.89924227536895
 10
202.53732809812175
 20
153.78335711578453
 10
202.24440263439274
 20
153.6546820226693
 10
201.96866633152564
 20
153.5139142975016
 10
201.71161342843618
 20
153.3618167727806
 10
201.47463691707793
 20
153.19921367817088
 10
201.25902099369824
 20
153.0269861739305
 10
201.06593409966743
 20
152.8460675758272
 10
200.89642258959375
 20
152.65743829741928
 10
200.75140506103727
 20
152.46212053710988
 10
200.63166737654993
 20
152.26117273876488
 10
200.53785840501834
 20
152.0556838559142
 10
200.47048650538707
 20
151.84676745061807
 10
200.42991677181752
 20
151.63555565897786
 10
200.41636905521096
 20
151.42319305599244
  0
LWPOLYLINE
  5
92
330
17
100
AcDbEntity
  8
VISIBLE
100
AcDbPolyline
 90
33
 70
0
 10
200.41636905521096
 20
151.42319305599244
 10
200.44044542185
 20
151.14024194422012
 10
200.51244265319482
 20
150.86001580633092
 10
200.63166737654993
 20
150.58521337322003
 10
200.79697139265454
 20
150.31848114254046
 10
201.0067627334692
 20
150.06238789148443
 10
201.25902099369824
 20
149.8193999380544
 10
201.5513167883973
 20
149.5918573890726
 10
201.88083514927823
 20
149.38195160367314
 10
202.24440263439274
 20
149.19170408931558
 10
202.63851789011295
 20
149.0229470335631
 10
203.059385371081
 20
148.87730565911457
 10
203.50295189338553
 20
148.75618257202157
 10
203.96494566893867
 20
148.66074425382544
 10
204.44091744513034
 20
148.5919098277023
 10
204.92628335356318
 20
148.55034220680446
 10
205.41636905521096
 20
148.53644171004433
 10
205.90645475685878
 20
148.55034220680446
 10
206.39182066529162
 20
148.5919098277023
 10
206.8677924414833
 20
148.66074425382544
 10
207.32978621703643
 20
148.75618257202157
 10
207.77335273934096
 20
148.87730565911454
 10
208.19422022030898
 20
149.0229470335631
 10
208.5883354760292
 20
149.19170408931558
 10
208.9519029611437
 20
149.38195160367314
 10
209.28142132202467
 20
149.5918573890726
 10
209.5737171167237
 20
149.8193999380544
 10
209.82597537695275
 20
150.06238789148443
 10
210.03576671776742
 20
150.31848114254046
 10
210.20107073387203
 20
150.58521337322003
 10
210.32029545722713
 20
150.86001580633092
 10
210.39229268857196
 20
151.14024194422012
 10
210.41636905521096
 20
151.42319305599244
  0
LWPOLYLINE
  5
93
330
17
100
AcDbEntity
  8
HIDDEN
100
AcDbPolyline
 90
33
 70
0
 10
210.41636905521096
 20
143.2582272467152
 10
210.414863148692
 20
143.32907167118492
 10
210.41034633623684
 20
143.3998734216224
 10
210.40282133860444
 20
143.47058984970062
 10
210.39229268857196
 20
143.5411783584875
 10
210.37876672820454
 20
143.61159642810495
 10
210.36225160503488
 20
143.68180164134083
 10
210.3427572671557
 20
143.75175170919982
 10
210.32029545722713
 20
143.82140449637672
 10
210.29487970540362
 20
143.89071804663695
 10
210.2665253211837
 20
143.95965060808965
 10
210.23524938418817
 20
144.02816065833738
 10
210.20107073387203
 20
144.0962069294876
 10
210.16400995817617
 20
144.16374843301105
 10
210.12408938112608
 20
144.23074448443145
 10
210.08133304938468
 20
144.2971547278326
 10
210.03576671776742
 20
144.36293916016717
 10
209.9874178337286
 20
144.4280581553529
 10
209.9363155208282
 20
144.49247248814203
 10
209.88249056118855
 20
144.55614335774914
 10
209.82597537695275
 20
144.6190324112232
 10
209.76680401075453
 20
144.68110176654992
 10
209.70501210521235
 20
144.7423140354706
 10
209.6406368814595
 20
144.8026323460033
 10
209.5737171167237
 20
144.86202036465323
 10
209.5042931209689
 20
144.92044231829863
 10
209.4324067126142
 20
144.97786301573908
 10
209.358101193344
 20
145.0342478688936
 10
209.28142132202467
 20
145.08956291363506
 10
209.2024132877434
 20
145.14377483024876
 10
209.12112468198578
 20
145.19685096350332
 10
209.0376044699683
 20
145.24875934232074
 10
208.9519029611437
 20
145.2994686990345
  0
LWPOLYLINE
  5
94
330
17
100
AcDbEntity
  8
VISIBLE
100
AcDbPolyline
 90
33
 70
0
 10
210.41636905521096
 20
151.42319305599244
 10
210.414863148692
 20
151.49403748046217
 10
210.41034633623684
 20
151.56483923089968
 10
210.40282133860444
 20
151.63555565897786
 10
210.39229268857196
 20
151.7061441677648
 10
210.37876672820454
 20
151.77656223738222
 10
210.36225160503488
 20
151.84676745061807
 10
210.3427572671557
 20
151.91671751847707
 10
210.32029545722713
 20
151.98637030565396
 10
210.29487970540362
 20
152.0556838559142
 10
210.2665253211837
 20
152.12461641736692
 10
210.23524938418817
 20
152.19312646761466
 10
210.20107073387203
 20
152.26117273876488
 10
210.16400995817617
 20
152.3287142422883
 10
210.12408938112608
 20
152.3957102937087
 10
210.08133304938468
 20
152.46212053710988
 10
210.03576671776742
 20
152.52790496944442
 10
209.9874178337286
 20
152.59302396463013
 10
209.9363155208282
 20
152.65743829741928
 10
209.88249056118855
 20
152.7211091670264
 10
209.82597537695275
 20
152.78399822050045
 10
209.76680401075453
 20
152.8460675758272
 10
209.70501210521235
 20
152.90727984474785
 10
209.6406368814595
 20
152.96759815528057
 10
209.5737171167237
 20
153.0269861739305
 10
209.5042931209689
 20
153.08540812757587
 10
209.4324067126142
 20
153.14282882501635
 10
209.358101193344
 20
153.19921367817088
 10
209.28142132202467
 20
153.2545287229123
 10
209.2024132877434
 20
153.30874063952604
 10
209.12112468198578
 20
153.3618167727806
 10
209.0376044699683
 20
153.413725151598
 10
208.9519029611437
 20
153.46443450831177
  0
TEXT
  5
95
330
17
100
AcDbEntity
  8
TITLE
100
AcDbText
 10
199.7595148057186
 20
118.72417148292874
 30
0.0
 40
3.4
  1
ISOMETRIC
  7
LOFT_MONO
 72
1
 11
199.7595148057186
 21
118.72417148292874
 31
0.0
100
AcDbText
 73
2
  0
LWPOLYLINE
  5
96
330
17
100
AcDbEntity
  8
TITLE
100
AcDbPolyline
 90
4
 70
1
 10
191.0
 20
44.0
 10
287.0
 20
44.0
 10
287.0
 20
10.0
 10
191.0
 20
10.0
  0
LINE
  5
97
330
17
100
AcDbEntity
  8
TITLE
100
AcDbLine
 10
248.6
 20
44.0
 30
0.0
 11
248.6
 21
10.0
 31
0.0
  0
LINE
  5
98
330
17
100
AcDbEntity
  8
TITLE
100
AcDbLine
 10
248.6
 20
27.0
 30
0.0
 11
287.0
 21
27.0
 31
0.0
  0
TEXT
  5
99
330
17
100
AcDbEntity
  8
TITLE
100
AcDbText
 10
195.0
 20
36.0
 30
0.0
 40
2.3
  1
TITLE
  7
LOFT_MONO
 11
195.0
 21
36.0
 31
0.0
100
AcDbText
  0
TEXT
  5
9A
330
17
100
AcDbEntity
  8
TITLE
100
AcDbText
 10
195.0
 20
26.0
 30
0.0
 40
3.4
  1
Plate — First-Angle G…
  7
LOFT_MONO
 11
195.0
 21
26.0
 31
0.0
100
AcDbText
  0
TEXT
  5
9B
330
17
100
AcDbEntity
  8
TITLE
100
AcDbText
 10
195.0
 20
14.0
 30
0.0
 40
2.3
  1
LOFT · PART DRAWING
  7
LOFT_MONO
 11
195.0
 21
14.0
 31
0.0
100
AcDbText
  0
TEXT
  5
9C
330
17
100
AcDbEntity
  8
TITLE
100
AcDbText
 10
252.6
 20
36.0
 30
0.0
 40
2.3
  1
SCALE
  7
LOFT_MONO
 11
252.6
 21
36.0
 31
0.0
100
AcDbText
  0
TEXT
  5
9D
330
17
100
AcDbEntity
  8
TITLE
100
AcDbText
 10
252.6
 20
30.0
 30
0.0
 40
3.4
  1
1:1
  7
LOFT_MONO
 11
252.6
 21
30.0
 31
0.0
100
AcDbText
  0
TEXT
  5
9E
330
17
100
AcDbEntity
  8
TITLE
100
AcDbText
 10
252.6
 20
19.0
 30
0.0
 40
2.3
  1
SIZE
  7
LOFT_MONO
 11
252.6
 21
19.0
 31
0.0
100
AcDbText
  0
TEXT
  5
9F
330
17
100
AcDbEntity
  8
TITLE
100
AcDbText
 10
252.6
 20
14.0
 30
0.0
 40
3.4
  1
A4
  7
LOFT_MONO
 11
252.6
 21
14.0
 31
0.0
100
AcDbText
  0
ENDSEC
  0
SECTION
  2
OBJECTS
  0
DICTIONARY
  5
A
330
0
100
AcDbDictionary
281
1
  3
ACAD_COLOR
350
B
  3
ACAD_GROUP
350
C
  3
ACAD_LAYOUT
350
D
  3
ACAD_MATERIAL
350
E
  3
ACAD_MLEADERSTYLE
350
F
  3
ACAD_MLINESTYLE
350
10
  3
ACAD_PLOTSETTINGS
350
11
  3
ACAD_PLOTSTYLENAME
350
12
  3
ACAD_SCALELIST
350
14
  3
ACAD_TABLESTYLE
350
15
  3
ACAD_VISUALSTYLE
350
16
  3
EZDXF_META
350
2D
  0
DICTIONARY
  5
B
330
A
100
AcDbDictionary
281
1
  0
DICTIONARY
  5
C
330
A
100
AcDbDictionary
281
1
  0
DICTIONARY
  5
D
330
A
100
AcDbDictionary
281
1
  3
Model
350
1A
  3
Layout1
350
1E
  0
DICTIONARY
  5
E
330
A
100
AcDbDictionary
281
1
  3
ByBlock
350
1F
  3
ByLayer
350
20
  3
Global
350
21
  0
DICTIONARY
  5
F
330
A
100
AcDbDictionary
281
1
  3
Standard
350
2C
  0
DICTIONARY
  5
10
330
A
100
AcDbDictionary
281
1
  3
Standard
350
22
  0
DICTIONARY
  5
11
330
A
100
AcDbDictionary
281
1
  0
ACDBDICTIONARYWDFLT
  5
12
330
A
100
AcDbDictionary
281
1
  3
Normal
350
13
100
AcDbDictionaryWithDefault
340
13
  0
ACDBPLACEHOLDER
  5
13
330
12
  0
DICTIONARY
  5
14
330
A
100
AcDbDictionary
281
1
  0
DICTIONARY
  5
15
330
A
100
AcDbDictionary
281
1
  0
DICTIONARY
  5
16
330
A
100
AcDbDictionary
281
1
  0
LAYOUT
  5
1A
330
D
100
AcDbPlotSettings
  1

  4
A3
  6

 40
7.5
 41
20.0
 42
7.5
 43
20.0
 44
420.0
 45
297.0
 46
0.0
 47
0.0
 48
0.0
 49
0.0
140
0.0
141
0.0
142
1.0
143
1.0
 70
1024
 72
1
 73
0
 74
5
  7

 75
16
 76
0
 77
2
 78
300
147
1.0
148
0.0
149
0.0
100
AcDbLayout
  1
Model
 70
1
 71
0
 10
0.0
 20
0.0
 11
420.0
 21
297.0
 12
0.0
 22
0.0
 32
0.0
 14
1e+20
 24
1e+20
 34
1e+20
 15
-1e+20
 25
-1e+20
 35
-1e+20
146
0.0
 13
0.0
 23
0.0
 33
0.0
 16
1.0
 26
0.0
 36
0.0
 17
0.0
 27
1.0
 37
0.0
 76
1
330
17
  0
LAYOUT
  5
1E
330
D
100
AcDbPlotSettings
  1

  4
A3
  6

 40
7.5
 41
20.0
 42
7.5
 43
20.0
 44
420.0
 45
297.0
 46
0.0
 47
0.0
 48
0.0
 49
0.0
140
0.0
141
0.0
142
1.0
143
1.0
 70
0
 72
1
 73
0
 74
5
  7

 75
16
 76
0
 77
2
 78
300
147
1.0
148
0.0
149
0.0
100
AcDbLayout
  1
Layout1
 70
1
 71
1
 10
0.0
 20
0.0
 11
420.0
 21
297.0
 12
0.0
 22
0.0
 32
0.0
 14
1e+20
 24
1e+20
 34
1e+20
 15
-1e+20
 25
-1e+20
 35
-1e+20
146
0.0
 13
0.0
 23
0.0
 33
0.0
 16
1.0
 26
0.0
 36
0.0
 17
0.0
 27
1.0
 37
0.0
 76
1
330
1B
  0
MATERIAL
  5
1F
102
{ACAD_REACTORS
330
E
102
}
330
E
100
AcDbMaterial
  1
ByBlock
  2

 70
0
 40
1.0
 71
1
 41
1.0
 91
-1023410177
 42
1.0
 72
1
  3

 73
1
 74
1
 75
1
 44
0.5
 73
0
 45
1.0
 46
1.0
 77
1
  4

 78
1
 79
1
170
1
 48
1.0
171
1
  6

172
1
173
1
174
1
140
1.0
141
1.0
175
1
  7

176
1
177
1
178
1
143
1.0
179
1
  8

270
1
271
1
272
1
145
1.0
146
1.0
273
1
  9

274
1
275
1
276
1
 42
1.0
 72
1
  3

 73
1
 74
1
 75
1
 94
63
  0
MATERIAL
  5
20
102
{ACAD_REACTORS
330
E
102
}
330
E
100
AcDbMaterial
  1
ByLayer
  2

 70
0
 40
1.0
 71
1
 41
1.0
 91
-1023410177
 42
1.0
 72
1
  3

 73
1
 74
1
 75
1
 44
0.5
 73
0
 45
1.0
 46
1.0
 77
1
  4

 78
1
 79
1
170
1
 48
1.0
171
1
  6

172
1
173
1
174
1
140
1.0
141
1.0
175
1
  7

176
1
177
1
178
1
143
1.0
179
1
  8

270
1
271
1
272
1
145
1.0
146
1.0
273
1
  9

274
1
275
1
276
1
 42
1.0
 72
1
  3

 73
1
 74
1
 75
1
 94
63
  0
MATERIAL
  5
21
102
{ACAD_REACTORS
330
E
102
}
330
E
100
AcDbMaterial
  1
Global
  2

 70
0
 40
1.0
 71
1
 41
1.0
 91
-1023410177
 42
1.0
 72
1
  3

 73
1
 74
1
 75
1
 44
0.5
 73
0
 45
1.0
 46
1.0
 77
1
  4

 78
1
 79
1
170
1
 48
1.0
171
1
  6

172
1
173
1
174
1
140
1.0
141
1.0
175
1
  7

176
1
177
1
178
1
143
1.0
179
1
  8

270
1
271
1
272
1
145
1.0
146
1.0
273
1
  9

274
1
275
1
276
1
 42
1.0
 72
1
  3

 73
1
 74
1
 75
1
 94
63
  0
MLINESTYLE
  5
22
102
{ACAD_REACTORS
330
10
102
}
330
10
100
AcDbMlineStyle
  2
Standard
 70
0
  3

 62
256
 51
90.0
 52
90.0
 71
2
 49
0.5
 62
256
  6
BYLAYER
 49
-0.5
 62
256
  6
BYLAYER
  0
MLEADERSTYLE
  5
2C
102
{ACAD_REACTORS
330
F
102
}
330
F
100
AcDbMLeaderStyle
179
2
170
2
171
1
172
0
 90
2
 40
0.0
 41
0.0
173
1
 91
-1056964608
 92
-2
290
1
 42
2.0
291
1
 43
8.0
  3
Standard
 44
4.0
300

342
29
174
1
175
1
176
0
178
1
 93
-1056964608
 45
4.0
292
0
297
0
 46
4.0
 94
-1056964608
 47
1.0
 49
1.0
140
1.0
294
1
141
0.0
177
0
142
1.0
295
0
296
0
143
3.75
271
0
272
9
273
9
  0
DICTIONARY
  5
2D
330
A
100
AcDbDictionary
280
1
281
1
  3
CREATED_BY_EZDXF
350
2E
  3
WRITTEN_BY_EZDXF
350
A2
  0
DICTIONARYVAR
  5
2E
330
2D
100
DictionaryVariables
280
0
  1
0.0 @ 2000-01-01T00:00:00.000000+00:00
  0
DICTIONARYVAR
  5
A2
330
2D
100
DictionaryVariables
280
0
  1
0.0 @ 2000-01-01T00:00:00.000000+00:00
  0
ENDSEC
  0
EOF
