  0
SECTION
  2
HEADER
  9
$ACADVER
  1
AC1015
  9
$ACADMAINTVER
 70
6
  9
$DWGCODEPAGE
  3
ANSI_1252
  9
$INSBASE
 10
0.0
 20
0.0
 30
0.0
  9
$EXTMIN
 10
1e+20
 20
1e+20
 30
1e+20
  9
$EXTMAX
 10
-1e+20
 20
-1e+20
 30
-1e+20
  9
$LIMMIN
 10
0.0
 20
0.0
  9
$LIMMAX
 10
420.0
 20
297.0
  9
$ORTHOMODE
 70
0
  9
$REGENMODE
 70
1
  9
$FILLMODE
 70
1
  9
$QTEXTMODE
 70
0
  9
$MIRRTEXT
 70
1
  9
$LTSCALE
 40
1.0
  9
$ATTMODE
 70
1
  9
$TEXTSIZE
 40
2.5
  9
$TRACEWID
 40
1.0
  9
$TEXTSTYLE
  7
Standard
  9
$CLAYER
  8
0
  9
$CELTYPE
  6
ByLayer
  9
$CECOLOR
 62
256
  9
$CELTSCALE
 40
1.0
  9
$DISPSILH
 70
0
  9
$DIMSCALE
 40
1.0
  9
$DIMASZ
 40
2.5
  9
$DIMEXO
 40
0.625
  9
$DIMDLI
 40
3.75
  9
$DIMRND
 40
0.0
  9
$DIMDLE
 40
0.0
  9
$DIMEXE
 40
1.25
  9
$DIMTP
 40
0.0
  9
$DIMTM
 40
0.0
  9
$DIMTXT
 40
2.5
  9
$DIMCEN
 40
2.5
  9
$DIMTSZ
 40
0.0
  9
$DIMTOL
 70
0
  9
$DIMLIM
 70
0
  9
$DIMTIH
 70
0
  9
$DIMTOH
 70
0
  9
$DIMSE1
 70
0
  9
$DIMSE2
 70
0
  9
$DIMTAD
 70
1
  9
$DIMZIN
 70
8
  9
$DIMBLK
  1

  9
$DIMASO
 70
1
  9
$DIMSHO
 70
1
  9
$DIMPOST
  1

  9
$DIMAPOST
  1

  9
$DIMALT
 70
0
  9
$DIMALTD
 70
3
  9
$DIMALTF
 40
0.03937007874
  9
$DIMLFAC
 40
1.0
  9
$DIMTOFL
 70
1
  9
$DIMTVP
 40
0.0
  9
$DIMTIX
 70
0
  9
$DIMSOXD
 70
0
  9
$DIMSAH
 70
0
  9
$DIMBLK1
  1

  9
$DIMBLK2
  1

  9
$DIMSTYLE
  2
ISO-25
  9
$DIMCLRD
 70
0
  9
$DIMCLRE
 70
0
  9
$DIMCLRT
 70
0
  9
$DIMTFAC
 40
1.0
  9
$DIMGAP
 40
0.625
  9
$DIMJUST
 70
0
  9
$DIMSD1
 70
0
  9
$DIMSD2
 70
0
  9
$DIMTOLJ
 70
0
  9
$DIMTZIN
 70
8
  9
$DIMALTZ
 70
0
  9
$DIMALTTZ
 70
0
  9
$DIMUPT
 70
0
  9
$DIMDEC
 70
2
  9
$DIMTDEC
 70
2
  9
$DIMALTU
 70
2
  9
$DIMALTTD
 70
3
  9
$DIMTXSTY
  7
Standard
  9
$DIMAUNIT
 70
0
  9
$DIMADEC
 70
0
  9
$DIMALTRND
 40
0.0
  9
$DIMAZIN
 70
0
  9
$DIMDSEP
 70
44
  9
$DIMATFIT
 70
3
  9
$DIMFRAC
 70
0
  9
$DIMLDRBLK
  1

  9
$DIMLUNIT
 70
2
  9
$DIMLWD
 70
-2
  9
$DIMLWE
 70
-2
  9
$DIMTMOVE
 70
0
  9
$LUNITS
 70
2
  9
$LUPREC
 70
4
  9
$SKETCHINC
 40
1.0
  9
$FILLETRAD
 40
10.0
  9
$AUNITS
 70
0
  9
$AUPREC
 70
2
  9
$MENU
  1
.
  9
$ELEVATION
 40
0.0
  9
$PELEVATION
 40
0.0
  9
$THICKNESS
 40
0.0
  9
$LIMCHECK
 70
0
  9
$CHAMFERA
 40
0.0
  9
$CHAMFERB
 40
0.0
  9
$CHAMFERC
 40
0.0
  9
$CHAMFERD
 40
0.0
  9
$SKPOLY
 70
0
  9
$TDCREATE
 40
2451545.0
  9
$TDUCREATE
 40
2451545.0
  9
$TDUPDATE
 40
2451545.0
  9
$TDUUPDATE
 40
2451545.0
  9
$TDINDWG
 40
0.0
  9
$TDUSRTIMER
 40
0.0
  9
$USRTIMER
 70
1
  9
$ANGBASE
 50
0.0
  9
$ANGDIR
 70
0
  9
$PDMODE
 70
0
  9
$PDSIZE
 40
0.0
  9
$PLINEWID
 40
0.0
  9
$SPLFRAME
 70
0
  9
$SPLINETYPE
 70
6
  9
$SPLINESEGS
 70
8
  9
$HANDSEED
  5
1D6
  9
$SURFTAB1
 70
6
  9
$SURFTAB2
 70
6
  9
$SURFTYPE
 70
6
  9
$SURFU
 70
6
  9
$SURFV
 70
6
  9
$UCSBASE
  2

  9
$UCSNAME
  2

  9
$UCSORG
 10
0.0
 20
0.0
 30
0.0
  9
$UCSXDIR
 10
1.0
 20
0.0
 30
0.0
  9
$UCSYDIR
 10
0.0
 20
1.0
 30
0.0
  9
$UCSORTHOREF
  2

  9
$UCSORTHOVIEW
 70
0
  9
$UCSORGTOP
 10
0.0
 20
0.0
 30
0.0
  9
$UCSORGBOTTOM
 10
0.0
 20
0.0
 30
0.0
  9
$UCSORGLEFT
 10
0.0
 20
0.0
 30
0.0
  9
$UCSORGRIGHT
 10
0.0
 20
0.0
 30
0.0
  9
$UCSORGFRONT
 10
0.0
 20
0.0
 30
0.0
  9
$UCSORGBACK
 10
0.0
 20
0.0
 30
0.0
  9
$PUCSBASE
  2

  9
$PUCSNAME
  2

  9
$PUCSORG
 10
0.0
 20
0.0
 30
0.0
  9
$PUCSXDIR
 10
1.0
 20
0.0
 30
0.0
  9
$PUCSYDIR
 10
0.0
 20
1.0
 30
0.0
  9
$PUCSORTHOREF
  2

  9
$PUCSORTHOVIEW
 70
0
  9
$PUCSORGTOP
 10
0.0
 20
0.0
 30
0.0
  9
$PUCSORGBOTTOM
 10
0.0
 20
0.0
 30
0.0
  9
$PUCSORGLEFT
 10
0.0
 20
0.0
 30
0.0
  9
$PUCSORGRIGHT
 10
0.0
 20
0.0
 30
0.0
  9
$PUCSORGFRONT
 10
0.0
 20
0.0
 30
0.0
  9
$PUCSORGBACK
 10
0.0
 20
0.0
 30
0.0
  9
$USERI1
 70
0
  9
$USERI2
 70
0
  9
$USERI3
 70
0
  9
$USERI4
 70
0
  9
$USERI5
 70
0
  9
$USERR1
 40
0.0
  9
$USERR2
 40
0.0
  9
$USERR3
 40
0.0
  9
$USERR4
 40
0.0
  9
$USERR5
 40
0.0
  9
$WORLDVIEW
 70
1
  9
$SHADEDGE
 70
3
  9
$SHADEDIF
 70
70
  9
$TILEMODE
 70
1
  9
$MAXACTVP
 70
64
  9
$PINSBASE
 10
0.0
 20
0.0
 30
0.0
  9
$PLIMCHECK
 70
0
  9
$PEXTMIN
 10
1e+20
 20
1e+20
 30
1e+20
  9
$PEXTMAX
 10
-1e+20
 20
-1e+20
 30
-1e+20
  9
$PLIMMIN
 10
0.0
 20
0.0
  9
$PLIMMAX
 10
420.0
 20
297.0
  9
$UNITMODE
 70
0
  9
$VISRETAIN
 70
1
  9
$PLINEGEN
 70
0
  9
$PSLTSCALE
 70
1
  9
$TREEDEPTH
 70
3020
  9
$CMLSTYLE
  2
Standard
  9
$CMLJUST
 70
0
  9
$CMLSCALE
 40
20.0
  9
$PROXYGRAPHICS
 70
1
  9
$MEASUREMENT
 70
1
  9
$CELWEIGHT
370
-1
  9
$ENDCAPS
280
0
  9
$JOINSTYLE
280
0
  9
$LWDISPLAY
290
0
  9
$INSUNITS
 70
4
  9
$HYPERLINKBASE
  1

  9
$STYLESHEET
  1

  9
$XEDIT
290
1
  9
$CEPSNTYPE
380
0
  9
$PSTYLEMODE
290
1
  9
$FINGERPRINTGUID
  2
{00000000-0000-0000-0000-000000000000}
  9
$VERSIONGUID
  2
{00000000-0000-0000-0000-000000000000}
  9
$EXTNAMES
290
1
  9
$PSVPSCALE
 40
0.0
  9
$OLESTARTUP
290
0
  0
ENDSEC
  0
SECTION
  2
CLASSES
  0
CLASS
  1
ACDBDICTIONARYWDFLT
  2
AcDbDictionaryWithDefault
  3
ObjectDBX Classes
 90
0
280
0
281
0
  0
CLASS
  1
SUN
  2
AcDbSun
  3
SCENEOE
 90
1153
280
0
281
0
  0
CLASS
  1
VISUALSTYLE
  2
AcDbVisualStyle
  3
ObjectDBX Classes
 90
4095
280
0
281
0
  0
CLASS
  1
MATERIAL
  2
AcDbMaterial
  3
ObjectDBX Classes
 90
1153
280
0
281
0
  0
CLASS
  1
SCALE
  2
AcDbScale
  3
ObjectDBX Classes
 90
1153
280
0
281
0
  0
CLASS
  1
TABLESTYLE
  2
AcDbTableStyle
  3
ObjectDBX Classes
 90
4095
280
0
281
0
  0
CLASS
  1
MLEADERSTYLE
  2
AcDbMLeaderStyle
  3
ACDB_MLEADERSTYLE_CLASS
 90
4095
280
0
281
0
  0
CLASS
  1
DICTIONARYVAR
  2
AcDbDictionaryVar
  3
ObjectDBX Classes
 90
0
280
0
281
0
  0
CLASS
  1
CELLSTYLEMAP
  2
AcDbCellStyleMap
  3
ObjectDBX Classes
 90
1152
280
0
281
0
  0
CLASS
  1
MENTALRAYRENDERSETTINGS
  2
AcDbMentalRayRenderSettings
  3
SCENEOE
 90
1024
280
0
281
0
  0
CLASS
  1
ACDBDETAILVIEWSTYLE
  2
AcDbDetailViewStyle
  3
ObjectDBX Classes
 90
1025
280
0
281
0
  0
CLASS
  1
ACDBSECTIONVIEWSTYLE
  2
AcDbSectionViewStyle
  3
ObjectDBX Classes
 90
1025
280
0
281
0
  0
CLASS
  1
RASTERVARIABLES
  2
AcDbRasterVariables
  3
ISM
 90
0
280
0
281
0
  0
CLASS
  1
ACDBPLACEHOLDER
  2
AcDbPlaceHolder
  3
ObjectDBX Classes
 90
0
280
0
281
0
  0
CLASS
  1
LAYOUT
  2
AcDbLayout
  3
ObjectDBX Classes
 90
0
280
0
281
0
  0
ENDSEC
  0
SECTION
  2
TABLES
  0
TABLE
  2
VPORT
  5
8
330
0
100
AcDbSymbolTable
 70
1
  0
VPORT
  5
23
330
8
100
AcDbSymbolTableRecord
100
AcDbViewportTableRecord
  2
*Active
 70
0
 10
0.0
 20
0.0
 11
1.0
 21
1.0
 12
0.0
 22
0.0
 13
0.0
 23
0.0
 14
0.5
 24
0.5
 15
0.5
 25
0.5
 16
0.0
 26
0.0
 36
1.0
 17
0.0
 27
0.0
 37
0.0
 40
1000.0
 41
1.34
 42
50.0
 43
0.0
 44
0.0
 50
0.0
 51
0.0
 71
0
 72
1000
 73
1
 74
3
 75
0
 76
0
 77
0
 78
0
281
0
 65
0
146
0.0
  0
ENDTAB
  0
TABLE
  2
LTYPE
  5
2
330
0
100
AcDbSymbolTable
 70
4
  0
LTYPE
  5
24
330
2
100
AcDbSymbolTableRecord
100
AcDbLinetypeTableRecord
  2
ByBlock
 70
0
  3

 72
65
 73
0
 40
0.0
  0
LTYPE
  5
25
330
2
100
AcDbSymbolTableRecord
100
AcDbLinetypeTableRecord
  2
ByLayer
 70
0
  3

 72
65
 73
0
 40
0.0
  0
LTYPE
  5
26
330
2
100
AcDbSymbolTableRecord
100
AcDbLinetypeTableRecord
  2
Continuous
 70
0
  3

 72
65
 73
0
 40
0.0
  0
LTYPE
  5
2F
330
2
100
AcDbSymbolTableRecord
100
AcDbLinetypeTableRecord
  2
DASHED
 70
0
  3
Loft hidden edge — 2/1.4
 72
65
 73
2
 40
0.0
 49
2.0
 74
0
 49
-1.4
 74
0
  0
ENDTAB
  0
TABLE
  2
LAYER
  5
1
330
0
100
AcDbSymbolTable
 70
6
  0
LAYER
  5
27
330
1
100
AcDbSymbolTableRecord
100
AcDbLayerTableRecord
  2
0
 70
0
 62
7
  6
Continuous
370
-3
390
13
  0
LAYER
  5
28
330
1
100
AcDbSymbolTableRecord
100
AcDbLayerTableRecord
  2
Defpoints
 70
0
 62
7
  6
Continuous
290
0
370
-3
390
13
  0
LAYER
  5
30
330
1
100
AcDbSymbolTableRecord
100
AcDbLayerTableRecord
  2
VISIBLE
 70
0
 62
7
  6
Continuous
370
-3
390
13
  0
LAYER
  5
31
330
1
100
AcDbSymbolTableRecord
100
AcDbLayerTableRecord
  2
HIDDEN
 70
0
 62
8
  6
DASHED
370
-3
390
13
  0
LAYER
  5
32
330
1
100
AcDbSymbolTableRecord
100
AcDbLayerTableRecord
  2
DIMENSION
 70
0
 62
1
  6
Continuous
370
-3
390
13
  0
LAYER
  5
33
330
1
100
AcDbSymbolTableRecord
100
AcDbLayerTableRecord
  2
TITLE
 70
0
 62
5
  6
Continuous
370
-3
390
13
  0
ENDTAB
  0
TABLE
  2
STYLE
  5
5
330
0
100
AcDbSymbolTable
 70
2
  0
STYLE
  5
29
330
5
100
AcDbSymbolTableRecord
100
AcDbTextStyleTableRecord
  2
Standard
 70
0
 40
0.0
 41
1.0
 50
0.0
 71
0
 42
2.5
  3
txt
  4

  0
STYLE
  5
34
330
5
100
AcDbSymbolTableRecord
100
AcDbTextStyleTableRecord
  2
LOFT_MONO
 70
0
 40
0.0
 41
1.0
 50
0.0
 71
0
 42
2.5
  3
cour.ttf
  4

  0
ENDTAB
  0
TABLE
  2
VIEW
  5
7
330
0
100
AcDbSymbolTable
 70
0
  0
ENDTAB
  0
TABLE
  2
UCS
  5
6
330
0
100
AcDbSymbolTable
 70
0
  0
ENDTAB
  0
TABLE
  2
APPID
  5
3
330
0
100
AcDbSymbolTable
 70
3
  0
APPID
  5
2A
330
3
100
AcDbSymbolTableRecord
100
AcDbRegAppTableRecord
  2
ACAD
 70
0
  0
APPID
  5
1D3
330
3
100
AcDbSymbolTableRecord
100
AcDbRegAppTableRecord
  2
HATCHBACKGROUNDCOLOR
 70
0
  0
APPID
  5
1D4
330
3
100
AcDbSymbolTableRecord
100
AcDbRegAppTableRecord
  2
EZDXF
 70
0
  0
ENDTAB
  0
TABLE
  2
DIMSTYLE
  5
4
330
0
100
AcDbSymbolTable
 70
1
100
AcDbDimStyleTable
  0
DIMSTYLE
105
2B
330
4
100
AcDbSymbolTableRecord
100
AcDbDimStyleTableRecord
  2
Standard
 70
0
  3

  4

 40
1.0
 41
2.5
 42
0.625
 43
3.75
 44
1.25
 45
0.0
 46
0.0
 47
0.0
 48
0.0
140
2.5
141
2.5
142
0.0
143
0.03937007874
144
1.0
145
0.0
146
1.0
147
0.625
148
0.0
 71
0
 72
0
 73
0
 74
0
 75
0
 76
0
 77
1
 78
8
 79
3
170
0
171
3
172
1
173
0
174
0
175
0
176
0
177
0
178
0
179
2
271
2
272
2
273
2
274
3
275
0
276
0
277
2
278
44
279
0
280
0
281
0
282
0
283
0
284
8
285
0
286
0
288
0
289
3
371
-2
372
-2
  0
ENDTAB
  0
TABLE
  2
BLOCK_RECORD
  5
9
330
0
100
AcDbSymbolTable
 70
2
  0
BLOCK_RECORD
  5
17
330
9
100
AcDbSymbolTableRecord
100
AcDbBlockTableRecord
  2
*Model_Space
340
1A
  0
BLOCK_RECORD
  5
1B
330
9
100
AcDbSymbolTableRecord
100
AcDbBlockTableRecord
  2
*Paper_Space
340
1E
  0
ENDTAB
  0
ENDSEC
  0
SECTION
  2
BLOCKS
  0
BLOCK
  5
18
330
17
100
AcDbEntity
  8
0
100
AcDbBlockBegin
  2
*Model_Space
 70
0
 10
0.0
 20
0.0
 30
0.0
  3
*Model_Space
  1

  0
ENDBLK
  5
19
330
17
100
AcDbEntity
  8
0
100
AcDbBlockEnd
  0
BLOCK
  5
1C
330
1B
100
AcDbEntity
  8
0
100
AcDbBlockBegin
  2
*Paper_Space
 70
0
 10
0.0
 20
0.0
 30
0.0
  3
*Paper_Space
  1

  0
ENDBLK
  5
1D
330
1B
100
AcDbEntity
  8
0
100
AcDbBlockEnd
  0
ENDSEC
  0
SECTION
  2
ENTITIES
  0
LWPOLYLINE
  5
35
330
17
100
AcDbEntity
  8
TITLE
100
AcDbPolyline
 90
4
 70
1
 10
10.0
 20
584.0
 10
831.0
 20
584.0
 10
831.0
 20
10.0
 10
10.0
 20
10.0
  0
LINE
  5
36
330
17
100
AcDbEntity
  8
VISIBLE
100
AcDbLine
 10
170.384718730759
 20
172.54356038221385
 30
0.0
 11
170.384718730759
 21
194.1256515957773
 31
0.0
  0
LINE
  5
37
330
17
100
AcDbEntity
  8
VISIBLE
100
AcDbLine
 10
170.384718730759
 20
172.54356038221385
 30
0.0
 11
193.40346873075902
 21
172.54356038221385
 31
0.0
  0
LINE
  5
38
330
17
100
AcDbEntity
  8
VISIBLE
100
AcDbLine
 10
170.384718730759
 20
194.1256515957773
 30
0.0
 11
170.384718730759
 21
199.64777895984633
 31
0.0
  0
LINE
  5
39
330
17
100
AcDbEntity
  8
VISIBLE
100
AcDbLine
 10
170.384718730759
 20
194.1256515957773
 30
0.0
 11
193.40346873075902
 21
194.1256515957773
 31
0.0
  0
LINE
  5
3A
330
17
100
AcDbEntity
  8
HIDDEN
100
AcDbLine
 10
170.384718730759
 20
195.76049422419112
 30
0.0
 11
398.984718730759
 21
195.76049422419112
 31
0.0
  0
LINE
  5
3B
330
17
100
AcDbEntity
  8
HIDDEN
100
AcDbLine
 10
170.384718730759
 20
197.09919176699572
 30
0.0
 11
398.984718730759
 21
197.09919176699572
 31
0.0
  0
LINE
  5
3C
330
17
100
AcDbEntity
  8
HIDDEN
100
AcDbLine
 10
170.384718730759
 20
198.14174422419114
 30
0.0
 11
398.984718730759
 21
198.14174422419114
 31
0.0
  0
LINE
  5
3D
330
17
100
AcDbEntity
  8
VISIBLE
100
AcDbLine
 10
170.384718730759
 20
199.64777895984633
 30
0.0
 11
170.384718730759
 21
203.66387158826018
 31
0.0
  0
LINE
  5
3E
330
17
100
AcDbEntity
  8
VISIBLE
100
AcDbLine
 10
170.384718730759
 20
199.64777895984633
 30
0.0
 11
193.40346873075902
 21
199.64777895984633
 31
0.0
  0
LINE
  5
3F
330
17
100
AcDbEntity
  8
VISIBLE
100
AcDbLine
 10
170.384718730759
 20
203.66387158826018
 30
0.0
 11
170.384718730759
 21
204.9849424744209
 31
0.0
  0
LINE
  5
40
330
17
100
AcDbEntity
  8
VISIBLE
100
AcDbLine
 10
170.384718730759
 20
203.66387158826018
 30
0.0
 11
193.40346873075902
 21
203.66387158826018
 31
0.0
  0
LINE
  5
41
330
17
100
AcDbEntity
  8
VISIBLE
100
AcDbLine
 10
170.384718730759
 20
204.9849424744209
 30
0.0
 11
170.384718730759
 21
210.50706983848994
 31
0.0
  0
LINE
  5
42
330
17
100
AcDbEntity
  8
VISIBLE
100
AcDbLine
 10
170.384718730759
 20
204.9849424744209
 30
0.0
 11
193.40346873075902
 21
204.9849424744209
 31
0.0
  0
LINE
  5
43
330
17
100
AcDbEntity
  8
HIDDEN
100
AcDbLine
 10
170.384718730759
 20
209.0010351028348
 30
0.0
 11
398.984718730759
 21
209.0010351028348
 31
0.0
  0
LINE
  5
44
330
17
100
AcDbEntity
  8
VISIBLE
100
AcDbLine
 10
170.384718730759
 20
210.50706983848994
 30
0.0
 11
170.384718730759
 21
214.52316246690384
 31
0.0
  0
LINE
  5
45
330
17
100
AcDbEntity
  8
VISIBLE
100
AcDbLine
 10
170.384718730759
 20
210.50706983848994
 30
0.0
 11
193.40346873075902
 21
210.50706983848994
 31
0.0
  0
LINE
  5
46
330
17
100
AcDbEntity
  8
VISIBLE
100
AcDbLine
 10
170.384718730759
 20
214.52316246690384
 30
0.0
 11
170.384718730759
 21
215.84423335306457
 31
0.0
  0
LINE
  5
47
330
17
100
AcDbEntity
  8
VISIBLE
100
AcDbLine
 10
170.384718730759
 20
214.52316246690384
 30
0.0
 11
193.40346873075902
 21
214.52316246690384
 31
0.0
  0
LINE
  5
48
330
17
100
AcDbEntity
  8
VISIBLE
100
AcDbLine
 10
170.384718730759
 20
215.84423335306457
 30
0.0
 11
170.384718730759
 21
221.3663607171336
 31
0.0
  0
LINE
  5
49
330
17
100
AcDbEntity
  8
VISIBLE
100
AcDbLine
 10
170.384718730759
 20
215.84423335306457
 30
0.0
 11
193.40346873075902
 21
215.84423335306457
 31
0.0
  0
LINE
  5
4A
330
17
100
AcDbEntity
  8
HIDDEN
100
AcDbLine
 10
170.384718730759
 20
219.8603259814784
 30
0.0
 11
398.984718730759
 21
219.8603259814784
 31
0.0
  0
LINE
  5
4B
330
17
100
AcDbEntity
  8
VISIBLE
100
AcDbLine
 10
170.384718730759
 20
221.3663607171336
 30
0.0
 11
170.384718730759
 21
225.38245334554745
 31
0.0
  0
LINE
  5
4C
330
17
100
AcDbEntity
  8
VISIBLE
100
AcDbLine
 10
170.384718730759
 20
221.3663607171336
 30
0.0
 11
193.40346873075902
 21
221.3663607171336
 31
0.0
  0
LINE
  5
4D
330
17
100
AcDbEntity
  8
VISIBLE
100
AcDbLine
 10
170.384718730759
 20
225.38245334554745
 30
0.0
 11
170.384718730759
 21
226.70352423170823
 31
0.0
  0
LINE
  5
4E
330
17
100
AcDbEntity
  8
VISIBLE
100
AcDbLine
 10
170.384718730759
 20
225.38245334554745
 30
0.0
 11
193.40346873075902
 21
225.38245334554745
 31
0.0
  0
LINE
  5
4F
330
17
100
AcDbEntity
  8
VISIBLE
100
AcDbLine
 10
170.384718730759
 20
226.70352423170823
 30
0.0
 11
170.384718730759
 21
232.22565159577726
 31
0.0
  0
LINE
  5
50
330
17
100
AcDbEntity
  8
VISIBLE
100
AcDbLine
 10
170.384718730759
 20
226.70352423170823
 30
0.0
 11
193.40346873075902
 21
226.70352423170823
 31
0.0
  0
LINE
  5
51
330
17
100
AcDbEntity
  8
HIDDEN
100
AcDbLine
 10
170.384718730759
 20
230.71961686012207
 30
0.0
 11
398.984718730759
 21
230.71961686012207
 31
0.0
  0
LINE
  5
52
330
17
100
AcDbEntity
  8
VISIBLE
100
AcDbLine
 10
170.384718730759
 20
232.22565159577726
 30
0.0
 11
170.384718730759
 21
236.2417442241911
 31
0.0
  0
LINE
  5
53
330
17
100
AcDbEntity
  8
VISIBLE
100
AcDbLine
 10
170.384718730759
 20
232.22565159577726
 30
0.0
 11
398.984718730759
 21
232.22565159577726
 31
0.0
  0
LINE
  5
54
330
17
100
AcDbEntity
  8
HIDDEN
100
AcDbLine
 10
170.384718730759
 20
232.727663174329
 30
0.0
 11
398.984718730759
 21
232.727663174329
 31
0.0
  0
LINE
  5
55
330
17
100
AcDbEntity
  8
HIDDEN
100
AcDbLine
 10
170.384718730759
 20
232.886413174329
 30
0.0
 11
398.984718730759
 21
232.886413174329
 31
0.0
  0
LINE
  5
56
330
17
100
AcDbEntity
  8
VISIBLE
100
AcDbLine
 10
170.384718730759
 20
236.2417442241911
 30
0.0
 11
170.384718730759
 21
237.5804417669957
 31
0.0
  0
LINE
  5
57
330
17
100
AcDbEntity
  8
VISIBLE
100
AcDbLine
 10
170.384718730759
 20
236.2417442241911
 30
0.0
 11
398.984718730759
 21
236.2417442241911
 31
0.0
  0
LINE
  5
58
330
17
100
AcDbEntity
  8
VISIBLE
100
AcDbLine
 10
170.384718730759
 20
237.5804417669957
 30
0.0
 11
170.384718730759
 21
238.24979053839803
 31
0.0
  0
LINE
  5
59
330
17
100
AcDbEntity
  8
VISIBLE
100
AcDbLine
 10
170.384718730759
 20
237.5804417669957
 30
0.0
 11
398.984718730759
 21
237.5804417669957
 31
0.0
  0
LINE
  5
5A
330
17
100
AcDbEntity
  8
VISIBLE
100
AcDbLine
 10
170.384718730759
 20
238.24979053839803
 30
0.0
 11
170.384718730759
 21
257.29979053839804
 31
0.0
  0
LINE
  5
5B
330
17
100
AcDbEntity
  8
VISIBLE
100
AcDbLine
 10
170.384718730759
 20
238.24979053839803
 30
0.0
 11
398.984718730759
 21
238.24979053839803
 31
0.0
  0
LINE
  5
5C
330
17
100
AcDbEntity
  8
HIDDEN
100
AcDbLine
 10
170.384718730759
 20
238.40854053839803
 30
0.0
 11
398.984718730759
 21
238.40854053839803
 31
0.0
  0
LINE
  5
5D
330
17
100
AcDbEntity
  8
VISIBLE
100
AcDbLine
 10
170.384718730759
 20
257.29979053839804
 30
0.0
 11
398.984718730759
 21
257.29979053839804
 31
0.0
  0
LINE
  5
5E
330
17
100
AcDbEntity
  8
VISIBLE
100
AcDbLine
 10
193.40346873075902
 20
99.51856038221388
 30
0.0
 11
193.40346873075902
 21
213.81856038221383
 31
0.0
  0
LINE
  5
5F
330
17
100
AcDbEntity
  8
VISIBLE
100
AcDbLine
 10
193.40346873075902
 20
99.51856038221388
 30
0.0
 11
204.51596873075903
 21
99.51856038221388
 31
0.0
  0
LINE
  5
60
330
17
100
AcDbEntity
  8
HIDDEN
100
AcDbLine
 10
193.40346873075902
 20
105.86856038221384
 30
0.0
 11
204.51596873075903
 21
105.86856038221384
 31
0.0
  0
LINE
  5
61
330
17
100
AcDbEntity
  8
HIDDEN
100
AcDbLine
 10
193.40346873075902
 20
117.97875211864653
 30
0.0
 11
204.51596873075903
 21
117.97875211864653
 31
0.0
  0
LINE
  5
62
330
17
100
AcDbEntity
  8
HIDDEN
100
AcDbLine
 10
193.40346873075902
 20
172.54356038221385
 30
0.0
 11
204.51596873075903
 21
172.54356038221385
 31
0.0
  0
LINE
  5
63
330
17
100
AcDbEntity
  8
HIDDEN
100
AcDbLine
 10
193.40346873075902
 20
175.71856038221387
 30
0.0
 11
204.51596873075903
 21
175.71856038221387
 31
0.0
  0
LINE
  5
64
330
17
100
AcDbEntity
  8
HIDDEN
100
AcDbLine
 10
193.40346873075902
 20
188.9477270488805
 30
0.0
 11
204.51596873075903
 21
188.9477270488805
 31
0.0
  0
LINE
  5
65
330
17
100
AcDbEntity
  8
HIDDEN
100
AcDbLine
 10
193.40346873075902
 20
192.54444718157373
 30
0.0
 11
204.51596873075903
 21
192.54444718157373
 31
0.0
  0
LINE
  5
66
330
17
100
AcDbEntity
  8
HIDDEN
100
AcDbLine
 10
193.40346873075902
 20
194.1256515957773
 30
0.0
 11
204.51596873075903
 21
194.1256515957773
 31
0.0
  0
LINE
  5
67
330
17
100
AcDbEntity
  8
HIDDEN
100
AcDbLine
 10
193.40346873075902
 20
199.64777895984633
 30
0.0
 11
204.51596873075903
 21
199.64777895984633
 31
0.0
  0
LINE
  5
68
330
17
100
AcDbEntity
  8
HIDDEN
100
AcDbLine
 10
193.40346873075902
 20
203.66387158826018
 30
0.0
 11
204.51596873075903
 21
203.66387158826018
 31
0.0
  0
LINE
  5
69
330
17
100
AcDbEntity
  8
HIDDEN
100
AcDbLine
 10
193.40346873075902
 20
204.9849424744209
 30
0.0
 11
204.51596873075903
 21
204.9849424744209
 31
0.0
  0
LINE
  5
6A
330
17
100
AcDbEntity
  8
HIDDEN
100
AcDbLine
 10
193.40346873075902
 20
210.50706983848994
 30
0.0
 11
204.51596873075903
 21
210.50706983848994
 31
0.0
  0
LINE
  5
6B
330
17
100
AcDbEntity
  8
VISIBLE
100
AcDbLine
 10
193.40346873075902
 20
213.81856038221383
 30
0.0
 11
193.40346873075902
 21
232.22565159577726
 31
0.0
  0
LINE
  5
6C
330
17
100
AcDbEntity
  8
VISIBLE
100
AcDbLine
 10
193.40346873075902
 20
213.81856038221383
 30
0.0
 11
204.51596873075903
 21
213.81856038221383
 31
0.0
  0
LINE
  5
6D
330
17
100
AcDbEntity
  8
HIDDEN
100
AcDbLine
 10
193.40346873075902
 20
214.52316246690384
 30
0.0
 11
204.51596873075903
 21
214.52316246690384
 31
0.0
  0
LINE
  5
6E
330
17
100
AcDbEntity
  8
HIDDEN
100
AcDbLine
 10
193.40346873075902
 20
215.84423335306457
 30
0.0
 11
204.51596873075903
 21
215.84423335306457
 31
0.0
  0
LINE
  5
6F
330
17
100
AcDbEntity
  8
HIDDEN
100
AcDbLine
 10
193.40346873075902
 20
221.3663607171336
 30
0.0
 11
204.51596873075903
 21
221.3663607171336
 31
0.0
  0
LINE
  5
70
330
17
100
AcDbEntity
  8
HIDDEN
100
AcDbLine
 10
193.40346873075902
 20
225.38245334554745
 30
0.0
 11
204.51596873075903
 21
225.38245334554745
 31
0.0
  0
LINE
  5
71
330
17
100
AcDbEntity
  8
HIDDEN
100
AcDbLine
 10
193.40346873075902
 20
226.70352423170823
 30
0.0
 11
204.51596873075903
 21
226.70352423170823
 31
0.0
  0
LINE
  5
72
330
17
100
AcDbEntity
  8
VISIBLE
100
AcDbLine
 10
193.40346873075902
 20
232.22565159577726
 30
0.0
 11
204.51596873075903
 21
232.22565159577726
 31
0.0
  0
LINE
  5
73
330
17
100
AcDbEntity
  8
VISIBLE
100
AcDbLine
 10
204.51596873075903
 20
99.51856038221388
 30
0.0
 11
204.51596873075903
 21
213.81856038221383
 31
0.0
  0
LINE
  5
74
330
17
100
AcDbEntity
  8
VISIBLE
100
AcDbLine
 10
204.51596873075903
 20
172.54356038221385
 30
0.0
 11
364.853468730759
 21
172.54356038221385
 31
0.0
  0
LINE
  5
75
330
17
100
AcDbEntity
  8
VISIBLE
100
AcDbLine
 10
204.51596873075903
 20
194.1256515957773
 30
0.0
 11
364.853468730759
 21
194.1256515957773
 31
0.0
  0
LINE
  5
76
330
17
100
AcDbEntity
  8
VISIBLE
100
AcDbLine
 10
204.51596873075903
 20
199.64777895984633
 30
0.0
 11
364.853468730759
 21
199.64777895984633
 31
0.0
  0
LINE
  5
77
330
17
100
AcDbEntity
  8
VISIBLE
100
AcDbLine
 10
204.51596873075903
 20
203.66387158826018
 30
0.0
 11
364.853468730759
 21
203.66387158826018
 31
0.0
  0
LINE
  5
78
330
17
100
AcDbEntity
  8
VISIBLE
100
AcDbLine
 10
204.51596873075903
 20
204.9849424744209
 30
0.0
 11
364.853468730759
 21
204.9849424744209
 31
0.0
  0
LINE
  5
79
330
17
100
AcDbEntity
  8
VISIBLE
100
AcDbLine
 10
204.51596873075903
 20
210.50706983848994
 30
0.0
 11
364.853468730759
 21
210.50706983848994
 31
0.0
  0
LINE
  5
7A
330
17
100
AcDbEntity
  8
VISIBLE
100
AcDbLine
 10
204.51596873075903
 20
213.81856038221383
 30
0.0
 11
204.51596873075903
 21
232.22565159577726
 31
0.0
  0
LINE
  5
7B
330
17
100
AcDbEntity
  8
VISIBLE
100
AcDbLine
 10
204.51596873075903
 20
214.52316246690384
 30
0.0
 11
364.853468730759
 21
214.52316246690384
 31
0.0
  0
LINE
  5
7C
330
17
100
AcDbEntity
  8
VISIBLE
100
AcDbLine
 10
204.51596873075903
 20
215.84423335306457
 30
0.0
 11
364.853468730759
 21
215.84423335306457
 31
0.0
  0
LINE
  5
7D
330
17
100
AcDbEntity
  8
VISIBLE
100
AcDbLine
 10
204.51596873075903
 20
221.3663607171336
 30
0.0
 11
364.853468730759
 21
221.3663607171336
 31
0.0
  0
LINE
  5
7E
330
17
100
AcDbEntity
  8
VISIBLE
100
AcDbLine
 10
204.51596873075903
 20
225.38245334554745
 30
0.0
 11
364.853468730759
 21
225.38245334554745
 31
0.0
  0
LINE
  5
7F
330
17
100
AcDbEntity
  8
VISIBLE
100
AcDbLine
 10
204.51596873075903
 20
226.70352423170823
 30
0.0
 11
364.853468730759
 21
226.70352423170823
 31
0.0
  0
LINE
  5
80
330
17
100
AcDbEntity
  8
VISIBLE
100
AcDbLine
 10
364.853468730759
 20
99.51856038221388
 30
0.0
 11
364.853468730759
 21
213.81856038221383
 31
0.0
  0
LINE
  5
81
330
17
100
AcDbEntity
  8
VISIBLE
100
AcDbLine
 10
364.853468730759
 20
99.51856038221388
 30
0.0
 11
375.965968730759
 21
99.51856038221388
 31
0.0
  0
LINE
  5
82
330
17
100
AcDbEntity
  8
HIDDEN
100
AcDbLine
 10
364.853468730759
 20
105.86856038221384
 30
0.0
 11
375.965968730759
 21
105.86856038221384
 31
0.0
  0
LINE
  5
83
330
17
100
AcDbEntity
  8
HIDDEN
100
AcDbLine
 10
364.853468730759
 20
117.97875211864653
 30
0.0
 11
375.965968730759
 21
117.97875211864653
 31
0.0
  0
LINE
  5
84
330
17
100
AcDbEntity
  8
HIDDEN
100
AcDbLine
 10
364.853468730759
 20
172.54356038221385
 30
0.0
 11
375.965968730759
 21
172.54356038221385
 31
0.0
  0
LINE
  5
85
330
17
100
AcDbEntity
  8
HIDDEN
100
AcDbLine
 10
364.853468730759
 20
175.71856038221387
 30
0.0
 11
375.965968730759
 21
175.71856038221387
 31
0.0
  0
LINE
  5
86
330
17
100
AcDbEntity
  8
HIDDEN
100
AcDbLine
 10
364.853468730759
 20
188.9477270488805
 30
0.0
 11
375.965968730759
 21
188.9477270488805
 31
0.0
  0
LINE
  5
87
330
17
100
AcDbEntity
  8
HIDDEN
100
AcDbLine
 10
364.853468730759
 20
192.54444718157373
 30
0.0
 11
375.965968730759
 21
192.54444718157373
 31
0.0
  0
LINE
  5
88
330
17
100
AcDbEntity
  8
HIDDEN
100
AcDbLine
 10
364.853468730759
 20
194.1256515957773
 30
0.0
 11
375.965968730759
 21
194.1256515957773
 31
0.0
  0
LINE
  5
89
330
17
100
AcDbEntity
  8
HIDDEN
100
AcDbLine
 10
364.853468730759
 20
199.64777895984633
 30
0.0
 11
375.965968730759
 21
199.64777895984633
 31
0.0
  0
LINE
  5
8A
330
17
100
AcDbEntity
  8
HIDDEN
100
AcDbLine
 10
364.853468730759
 20
203.66387158826018
 30
0.0
 11
375.965968730759
 21
203.66387158826018
 31
0.0
  0
LINE
  5
8B
330
17
100
AcDbEntity
  8
HIDDEN
100
AcDbLine
 10
364.853468730759
 20
204.9849424744209
 30
0.0
 11
375.965968730759
 21
204.9849424744209
 31
0.0
  0
LINE
  5
8C
330
17
100
AcDbEntity
  8
HIDDEN
100
AcDbLine
 10
364.853468730759
 20
210.50706983848994
 30
0.0
 11
375.965968730759
 21
210.50706983848994
 31
0.0
  0
LINE
  5
8D
330
17
100
AcDbEntity
  8
VISIBLE
100
AcDbLine
 10
364.853468730759
 20
213.81856038221383
 30
0.0
 11
364.853468730759
 21
232.22565159577726
 31
0.0
  0
LINE
  5
8E
330
17
100
AcDbEntity
  8
VISIBLE
100
AcDbLine
 10
364.853468730759
 20
213.81856038221383
 30
0.0
 11
375.965968730759
 21
213.81856038221383
 31
0.0
  0
LINE
  5
8F
330
17
100
AcDbEntity
  8
HIDDEN
100
AcDbLine
 10
364.853468730759
 20
214.52316246690384
 30
0.0
 11
375.965968730759
 21
214.52316246690384
 31
0.0
  0
LINE
  5
90
330
17
100
AcDbEntity
  8
HIDDEN
100
AcDbLine
 10
364.853468730759
 20
215.84423335306457
 30
0.0
 11
375.965968730759
 21
215.84423335306457
 31
0.0
  0
LINE
  5
91
330
17
100
AcDbEntity
  8
HIDDEN
100
AcDbLine
 10
364.853468730759
 20
221.3663607171336
 30
0.0
 11
375.965968730759
 21
221.3663607171336
 31
0.0
  0
LINE
  5
92
330
17
100
AcDbEntity
  8
HIDDEN
100
AcDbLine
 10
364.853468730759
 20
225.38245334554745
 30
0.0
 11
375.965968730759
 21
225.38245334554745
 31
0.0
  0
LINE
  5
93
330
17
100
AcDbEntity
  8
HIDDEN
100
AcDbLine
 10
364.853468730759
 20
226.70352423170823
 30
0.0
 11
375.965968730759
 21
226.70352423170823
 31
0.0
  0
LINE
  5
94
330
17
100
AcDbEntity
  8
VISIBLE
100
AcDbLine
 10
364.853468730759
 20
232.22565159577726
 30
0.0
 11
375.965968730759
 21
232.22565159577726
 31
0.0
  0
LINE
  5
95
330
17
100
AcDbEntity
  8
VISIBLE
100
AcDbLine
 10
375.965968730759
 20
99.51856038221388
 30
0.0
 11
375.965968730759
 21
213.81856038221383
 31
0.0
  0
LINE
  5
96
330
17
100
AcDbEntity
  8
VISIBLE
100
AcDbLine
 10
375.965968730759
 20
172.54356038221385
 30
0.0
 11
398.984718730759
 21
172.54356038221385
 31
0.0
  0
LINE
  5
97
330
17
100
AcDbEntity
  8
VISIBLE
100
AcDbLine
 10
375.965968730759
 20
194.1256515957773
 30
0.0
 11
398.984718730759
 21
194.1256515957773
 31
0.0
  0
LINE
  5
98
330
17
100
AcDbEntity
  8
VISIBLE
100
AcDbLine
 10
375.965968730759
 20
199.64777895984633
 30
0.0
 11
398.984718730759
 21
199.64777895984633
 31
0.0
  0
LINE
  5
99
330
17
100
AcDbEntity
  8
VISIBLE
100
AcDbLine
 10
375.965968730759
 20
203.66387158826018
 30
0.0
 11
398.984718730759
 21
203.66387158826018
 31
0.0
  0
LINE
  5
9A
330
17
100
AcDbEntity
  8
VISIBLE
100
AcDbLine
 10
375.965968730759
 20
204.9849424744209
 30
0.0
 11
398.984718730759
 21
204.9849424744209
 31
0.0
  0
LINE
  5
9B
330
17
100
AcDbEntity
  8
VISIBLE
100
AcDbLine
 10
375.965968730759
 20
210.50706983848994
 30
0.0
 11
398.984718730759
 21
210.50706983848994
 31
0.0
  0
LINE
  5
9C
330
17
100
AcDbEntity
  8
VISIBLE
100
AcDbLine
 10
375.965968730759
 20
213.81856038221383
 30
0.0
 11
375.965968730759
 21
232.22565159577726
 31
0.0
  0
LINE
  5
9D
330
17
100
AcDbEntity
  8
VISIBLE
100
AcDbLine
 10
375.965968730759
 20
214.52316246690384
 30
0.0
 11
398.984718730759
 21
214.52316246690384
 31
0.0
  0
LINE
  5
9E
330
17
100
AcDbEntity
  8
VISIBLE
100
AcDbLine
 10
375.965968730759
 20
215.84423335306457
 30
0.0
 11
398.984718730759
 21
215.84423335306457
 31
0.0
  0
LINE
  5
9F
330
17
100
AcDbEntity
  8
VISIBLE
100
AcDbLine
 10
375.965968730759
 20
221.3663607171336
 30
0.0
 11
398.984718730759
 21
221.3663607171336
 31
0.0
  0
LINE
  5
A0
330
17
100
AcDbEntity
  8
VISIBLE
100
AcDbLine
 10
375.965968730759
 20
225.38245334554745
 30
0.0
 11
398.984718730759
 21
225.38245334554745
 31
0.0
  0
LINE
  5
A1
330
17
100
AcDbEntity
  8
VISIBLE
100
AcDbLine
 10
375.965968730759
 20
226.70352423170823
 30
0.0
 11
398.984718730759
 21
226.70352423170823
 31
0.0
  0
LINE
  5
A2
330
17
100
AcDbEntity
  8
VISIBLE
100
AcDbLine
 10
398.984718730759
 20
172.54356038221385
 30
0.0
 11
398.984718730759
 21
194.1256515957773
 31
0.0
  0
LINE
  5
A3
330
17
100
AcDbEntity
  8
VISIBLE
100
AcDbLine
 10
398.984718730759
 20
194.1256515957773
 30
0.0
 11
398.984718730759
 21
199.64777895984633
 31
0.0
  0
LINE
  5
A4
330
17
100
AcDbEntity
  8
VISIBLE
100
AcDbLine
 10
398.984718730759
 20
199.64777895984633
 30
0.0
 11
398.984718730759
 21
203.66387158826018
 31
0.0
  0
LINE
  5
A5
330
17
100
AcDbEntity
  8
VISIBLE
100
AcDbLine
 10
398.984718730759
 20
203.66387158826018
 30
0.0
 11
398.984718730759
 21
204.9849424744209
 31
0.0
  0
LINE
  5
A6
330
17
100
AcDbEntity
  8
VISIBLE
100
AcDbLine
 10
398.984718730759
 20
204.9849424744209
 30
0.0
 11
398.984718730759
 21
210.50706983848994
 31
0.0
  0
LINE
  5
A7
330
17
100
AcDbEntity
  8
VISIBLE
100
AcDbLine
 10
398.984718730759
 20
210.50706983848994
 30
0.0
 11
398.984718730759
 21
214.52316246690384
 31
0.0
  0
LINE
  5
A8
330
17
100
AcDbEntity
  8
VISIBLE
100
AcDbLine
 10
398.984718730759
 20
214.52316246690384
 30
0.0
 11
398.984718730759
 21
215.84423335306457
 31
0.0
  0
LINE
  5
A9
330
17
100
AcDbEntity
  8
VISIBLE
100
AcDbLine
 10
398.984718730759
 20
215.84423335306457
 30
0.0
 11
398.984718730759
 21
221.3663607171336
 31
0.0
  0
LINE
  5
AA
330
17
100
AcDbEntity
  8
VISIBLE
100
AcDbLine
 10
398.984718730759
 20
221.3663607171336
 30
0.0
 11
398.984718730759
 21
225.38245334554745
 31
0.0
  0
LINE
  5
AB
330
17
100
AcDbEntity
  8
VISIBLE
100
AcDbLine
 10
398.984718730759
 20
225.38245334554745
 30
0.0
 11
398.984718730759
 21
226.70352423170823
 31
0.0
  0
LINE
  5
AC
330
17
100
AcDbEntity
  8
VISIBLE
100
AcDbLine
 10
398.984718730759
 20
226.70352423170823
 30
0.0
 11
398.984718730759
 21
232.22565159577726
 31
0.0
  0
LINE
  5
AD
330
17
100
AcDbEntity
  8
VISIBLE
100
AcDbLine
 10
398.984718730759
 20
232.22565159577726
 30
0.0
 11
398.984718730759
 21
236.2417442241911
 31
0.0
  0
LINE
  5
AE
330
17
100
AcDbEntity
  8
VISIBLE
100
AcDbLine
 10
398.984718730759
 20
236.2417442241911
 30
0.0
 11
398.984718730759
 21
237.5804417669957
 31
0.0
  0
LINE
  5
AF
330
17
100
AcDbEntity
  8
VISIBLE
100
AcDbLine
 10
398.984718730759
 20
237.5804417669957
 30
0.0
 11
398.984718730759
 21
238.24979053839803
 31
0.0
  0
LINE
  5
B0
330
17
100
AcDbEntity
  8
VISIBLE
100
AcDbLine
 10
398.984718730759
 20
238.24979053839803
 30
0.0
 11
398.984718730759
 21
257.29979053839804
 31
0.0
  0
LWPOLYLINE
  5
B1
330
17
100
AcDbEntity
  8
HIDDEN
100
AcDbPolyline
 90
33
 70
0
 10
193.40346873075902
 20
105.86856038221384
 10
193.40346873075902
 20
107.27475640228556
 10
193.40346873075902
 20
108.68095242235722
 10
193.40346873075902
 20
110.25421793657051
 10
193.40346873075902
 20
111.89431124844054
 10
193.40346873075902
 20
113.63056521058547
 10
193.40346873075902
 20
115.49503337309727
 10
193.40346873075902
 20
117.39000863289164
 10
193.40346873075902
 20
119.46802647638117
 10
193.40346873075902
 20
121.5460443198707
 10
193.40346873075902
 20
123.79676327833192
 10
193.40346873075902
 20
126.07626575595498
 10
193.40346873075902
 20
128.46333952512532
 10
193.40346873075902
 20
130.93109176295604
 10
193.40346873075902
 20
133.44853597260317
 10
193.40346873075902
 20
136.09021011179135
 10
193.40346873075902
 20
138.73188425097953
 10
193.40346873075902
 20
141.532142635818
 10
193.40346873075902
 20
144.33240102065645
 10
193.40346873075902
 20
147.23432072268827
 10
193.40346873075902
 20
150.17690495159724
 10
193.40346873075902
 20
153.17316393485766
 10
193.40346873075902
 20
156.24098925725315
 10
193.40346873075902
 20
159.32416160658858
 10
193.40346873075902
 20
162.49941611756287
 10
193.40346873075902
 20
165.67467062853706
 10
193.40346873075902
 20
168.92620532172168
 10
193.40346873075902
 20
172.19045337860797
 10
193.40346873075902
 20
175.49472498034868
 10
193.40346873075902
 20
178.82901424073026
 10
193.40346873075902
 20
182.17778412948758
 10
193.40346873075902
 20
185.562755589184
 10
193.40346873075902
 20
188.9477270488805
  0
LWPOLYLINE
  5
B2
330
17
100
AcDbEntity
  8
HIDDEN
100
AcDbPolyline
 90
33
 70
0
 10
193.40346873075902
 20
117.97875211864653
 10
193.40346873075902
 20
119.33516212728722
 10
193.40346873075902
 20
120.69157213592791
 10
193.40346873075902
 20
122.18666246468081
 10
193.40346873075902
 20
123.73722492147868
 10
193.40346873075902
 20
125.36731316763792
 10
193.40346873075902
 20
127.10343579961227
 10
193.40346873075902
 20
128.86469266597157
 10
193.40346873075902
 20
130.7767549386407
 10
193.40346873075902
 20
132.68881721130975
 10
193.40346873075902
 20
134.74260304614097
 10
193.40346873075902
 20
136.82000947466594
 10
193.40346873075902
 20
138.98532015141097
 10
193.40346873075902
 20
141.2165590143211
 10
193.40346873075902
 20
143.48821738215497
 10
193.40346873075902
 20
145.86092451229842
 10
193.40346873075902
 20
148.23363164244194
 10
193.40346873075902
 20
150.73465894167157
 10
193.40346873075902
 20
153.23568624090126
 10
193.40346873075902
 20
155.81847139634345
 10
193.40346873075902
 20
158.4339596942707
 10
193.40346873075902
 20
161.09229123011966
 10
193.40346873075902
 20
163.80774708319763
 10
193.40346873075902
 20
166.53533438660196
 10
193.40346873075902
 20
169.3357103919646
 10
193.40346873075902
 20
172.13608639732718
 10
193.40346873075902
 20
174.99594998009843
 10
193.40346873075902
 20
177.86572815910444
 10
193.40346873075902
 20
180.76607754406223
 10
193.40346873075902
 20
183.6893553334839
 10
193.40346873075902
 20
186.6232904328836
 10
193.40346873075902
 20
189.58386880722867
 10
193.40346873075902
 20
192.54444718157367
  0
LWPOLYLINE
  5
B3
330
17
100
AcDbEntity
  8
HIDDEN
100
AcDbPolyline
 90
33
 70
0
 10
204.51596873075903
 20
105.86856038221384
 10
204.51596873075903
 20
107.27475640228556
 10
204.51596873075903
 20
108.68095242235722
 10
204.51596873075903
 20
110.25421793657051
 10
204.51596873075903
 20
111.89431124844054
 10
204.51596873075903
 20
113.63056521058547
 10
204.51596873075903
 20
115.49503337309727
 10
204.51596873075903
 20
117.39000863289164
 10
204.51596873075903
 20
119.46802647638117
 10
204.51596873075903
 20
121.5460443198707
 10
204.51596873075903
 20
123.79676327833192
 10
204.51596873075903
 20
126.07626575595498
 10
204.51596873075903
 20
128.46333952512532
 10
204.51596873075903
 20
130.93109176295604
 10
204.51596873075903
 20
133.44853597260317
 10
204.51596873075903
 20
136.09021011179135
 10
204.51596873075903
 20
138.73188425097953
 10
204.51596873075903
 20
141.532142635818
 10
204.51596873075903
 20
144.33240102065645
 10
204.51596873075903
 20
147.23432072268827
 10
204.51596873075903
 20
150.17690495159724
 10
204.51596873075903
 20
153.17316393485766
 10
204.51596873075903
 20
156.24098925725315
 10
204.51596873075903
 20
159.32416160658858
 10
204.51596873075903
 20
162.49941611756287
 10
204.51596873075903
 20
165.67467062853706
 10
204.51596873075903
 20
168.92620532172168
 10
204.51596873075903
 20
172.19045337860797
 10
204.51596873075903
 20
175.49472498034868
 10
204.51596873075903
 20
178.82901424073026
 10
204.51596873075903
 20
182.17778412948758
 10
204.51596873075903
 20
185.562755589184
 10
204.51596873075903
 20
188.9477270488805
  0
LWPOLYLINE
  5
B4
330
17
100
AcDbEntity
  8
HIDDEN
100
AcDbPolyline
 90
33
 70
0
 10
204.51596873075903
 20
117.97875211864653
 10
204.51596873075903
 20
119.33516212728722
 10
204.51596873075903
 20
120.69157213592791
 10
204.51596873075903
 20
122.18666246468081
 10
204.51596873075903
 20
123.73722492147868
 10
204.51596873075903
 20
125.36731316763792
 10
204.51596873075903
 20
127.10343579961227
 10
204.51596873075903
 20
128.86469266597157
 10
204.51596873075903
 20
130.7767549386407
 10
204.51596873075903
 20
132.68881721130975
 10
204.51596873075903
 20
134.74260304614097
 10
204.51596873075903
 20
136.82000947466594
 10
204.51596873075903
 20
138.98532015141097
 10
204.51596873075903
 20
141.2165590143211
 10
204.51596873075903
 20
143.48821738215497
 10
204.51596873075903
 20
145.86092451229842
 10
204.51596873075903
 20
148.23363164244194
 10
204.51596873075903
 20
150.73465894167157
 10
204.51596873075903
 20
153.23568624090126
 10
204.51596873075903
 20
155.81847139634345
 10
204.51596873075903
 20
158.4339596942707
 10
204.51596873075903
 20
161.09229123011966
 10
204.51596873075903
 20
163.80774708319763
 10
204.51596873075903
 20
166.53533438660196
 10
204.51596873075903
 20
169.3357103919646
 10
204.51596873075903
 20
172.13608639732718
 10
204.51596873075903
 20
174.99594998009843
 10
204.51596873075903
 20
177.86572815910444
 10
204.51596873075903
 20
180.76607754406223
 10
204.51596873075903
 20
183.6893553334839
 10
204.51596873075903
 20
186.6232904328836
 10
204.51596873075903
 20
189.58386880722867
 10
204.51596873075903
 20
192.54444718157367
  0
LWPOLYLINE
  5
B5
330
17
100
AcDbEntity
  8
HIDDEN
100
AcDbPolyline
 90
33
 70
0
 10
364.853468730759
 20
105.86856038221384
 10
364.853468730759
 20
107.27475640228556
 10
364.853468730759
 20
108.68095242235722
 10
364.853468730759
 20
110.25421793657051
 10
364.853468730759
 20
111.89431124844054
 10
364.853468730759
 20
113.63056521058547
 10
364.853468730759
 20
115.49503337309727
 10
364.853468730759
 20
117.39000863289164
 10
364.853468730759
 20
119.46802647638117
 10
364.853468730759
 20
121.5460443198707
 10
364.853468730759
 20
123.79676327833192
 10
364.853468730759
 20
126.07626575595498
 10
364.853468730759
 20
128.46333952512532
 10
364.853468730759
 20
130.93109176295604
 10
364.853468730759
 20
133.44853597260317
 10
364.853468730759
 20
136.09021011179135
 10
364.853468730759
 20
138.73188425097953
 10
364.853468730759
 20
141.532142635818
 10
364.853468730759
 20
144.33240102065645
 10
364.853468730759
 20
147.23432072268827
 10
364.853468730759
 20
150.17690495159724
 10
364.853468730759
 20
153.17316393485766
 10
364.853468730759
 20
156.24098925725315
 10
364.853468730759
 20
159.32416160658858
 10
364.853468730759
 20
162.49941611756287
 10
364.853468730759
 20
165.67467062853706
 10
364.853468730759
 20
168.92620532172168
 10
364.853468730759
 20
172.19045337860797
 10
364.853468730759
 20
175.49472498034868
 10
364.853468730759
 20
178.82901424073026
 10
364.853468730759
 20
182.17778412948758
 10
364.853468730759
 20
185.562755589184
 10
364.853468730759
 20
188.9477270488805
  0
LWPOLYLINE
  5
B6
330
17
100
AcDbEntity
  8
HIDDEN
100
AcDbPolyline
 90
33
 70
0
 10
364.853468730759
 20
117.97875211864653
 10
364.853468730759
 20
119.33516212728722
 10
364.853468730759
 20
120.69157213592791
 10
364.853468730759
 20
122.18666246468081
 10
364.853468730759
 20
123.73722492147868
 10
364.853468730759
 20
125.36731316763792
 10
364.853468730759
 20
127.10343579961227
 10
364.853468730759
 20
128.86469266597157
 10
364.853468730759
 20
130.7767549386407
 10
364.853468730759
 20
132.68881721130975
 10
364.853468730759
 20
134.74260304614097
 10
364.853468730759
 20
136.82000947466594
 10
364.853468730759
 20
138.98532015141097
 10
364.853468730759
 20
141.2165590143211
 10
364.853468730759
 20
143.48821738215497
 10
364.853468730759
 20
145.86092451229842
 10
364.853468730759
 20
148.23363164244194
 10
364.853468730759
 20
150.73465894167157
 10
364.853468730759
 20
153.23568624090126
 10
364.853468730759
 20
155.81847139634345
 10
364.853468730759
 20
158.4339596942707
 10
364.853468730759
 20
161.09229123011966
 10
364.853468730759
 20
163.80774708319763
 10
364.853468730759
 20
166.53533438660196
 10
364.853468730759
 20
169.3357103919646
 10
364.853468730759
 20
172.13608639732718
 10
364.853468730759
 20
174.99594998009843
 10
364.853468730759
 20
177.86572815910444
 10
364.853468730759
 20
180.76607754406223
 10
364.853468730759
 20
183.6893553334839
 10
364.853468730759
 20
186.6232904328836
 10
364.853468730759
 20
189.58386880722867
 10
364.853468730759
 20
192.54444718157367
  0
LWPOLYLINE
  5
B7
330
17
100
AcDbEntity
  8
HIDDEN
100
AcDbPolyline
 90
33
 70
0
 10
375.965968730759
 20
105.86856038221384
 10
375.965968730759
 20
107.27475640228556
 10
375.965968730759
 20
108.68095242235722
 10
375.965968730759
 20
110.25421793657051
 10
375.965968730759
 20
111.89431124844054
 10
375.965968730759
 20
113.63056521058547
 10
375.965968730759
 20
115.49503337309727
 10
375.965968730759
 20
117.39000863289164
 10
375.965968730759
 20
119.46802647638117
 10
375.965968730759
 20
121.5460443198707
 10
375.965968730759
 20
123.79676327833192
 10
375.965968730759
 20
126.07626575595498
 10
375.965968730759
 20
128.46333952512532
 10
375.965968730759
 20
130.93109176295604
 10
375.965968730759
 20
133.44853597260317
 10
375.965968730759
 20
136.09021011179135
 10
375.965968730759
 20
138.73188425097953
 10
375.965968730759
 20
141.532142635818
 10
375.965968730759
 20
144.33240102065645
 10
375.965968730759
 20
147.23432072268827
 10
375.965968730759
 20
150.17690495159724
 10
375.965968730759
 20
153.17316393485766
 10
375.965968730759
 20
156.24098925725315
 10
375.965968730759
 20
159.32416160658858
 10
375.965968730759
 20
162.49941611756287
 10
375.965968730759
 20
165.67467062853706
 10
375.965968730759
 20
168.92620532172168
 10
375.965968730759
 20
172.19045337860797
 10
375.965968730759
 20
175.49472498034868
 10
375.965968730759
 20
178.82901424073026
 10
375.965968730759
 20
182.17778412948758
 10
375.965968730759
 20
185.562755589184
 10
375.965968730759
 20
188.9477270488805
  0
LWPOLYLINE
  5
B8
330
17
100
AcDbEntity
  8
HIDDEN
100
AcDbPolyline
 90
33
 70
0
 10
375.965968730759
 20
117.97875211864653
 10
375.965968730759
 20
119.33516212728722
 10
375.965968730759
 20
120.69157213592791
 10
375.965968730759
 20
122.18666246468081
 10
375.965968730759
 20
123.73722492147868
 10
375.965968730759
 20
125.36731316763792
 10
375.965968730759
 20
127.10343579961227
 10
375.965968730759
 20
128.86469266597157
 10
375.965968730759
 20
130.7767549386407
 10
375.965968730759
 20
132.68881721130975
 10
375.965968730759
 20
134.74260304614097
 10
375.965968730759
 20
136.82000947466594
 10
375.965968730759
 20
138.98532015141097
 10
375.965968730759
 20
141.2165590143211
 10
375.965968730759
 20
143.48821738215497
 10
375.965968730759
 20
145.86092451229842
 10
375.965968730759
 20
148.23363164244194
 10
375.965968730759
 20
150.73465894167157
 10
375.965968730759
 20
153.23568624090126
 10
375.965968730759
 20
155.81847139634345
 10
375.965968730759
 20
158.4339596942707
 10
375.965968730759
 20
161.09229123011966
 10
375.965968730759
 20
163.80774708319763
 10
375.965968730759
 20
166.53533438660196
 10
375.965968730759
 20
169.3357103919646
 10
375.965968730759
 20
172.13608639732718
 10
375.965968730759
 20
174.99594998009843
 10
375.965968730759
 20
177.86572815910444
 10
375.965968730759
 20
180.76607754406223
 10
375.965968730759
 20
183.6893553334839
 10
375.965968730759
 20
186.6232904328836
 10
375.965968730759
 20
189.58386880722867
 10
375.965968730759
 20
192.54444718157367
  0
TEXT
  5
B9
330
17
100
AcDbEntity
  8
TITLE
100
AcDbText
 10
284.684718730759
 20
91.51856038221388
 30
0.0
 40
3.4
  1
FRONT
  7
LOFT_MONO
 72
1
 11
284.684718730759
 21
91.51856038221388
 31
0.0
100
AcDbText
 73
2
  0
LINE
  5
BA
330
17
100
AcDbEntity
  8
VISIBLE
100
AcDbLine
 10
170.384718730759
 20
281.29979053839804
 30
0.0
 11
170.384718730759
 21
281.45854053839804
 31
0.0
  0
LINE
  5
BB
330
17
100
AcDbEntity
  8
VISIBLE
100
AcDbLine
 10
170.384718730759
 20
281.29979053839804
 30
0.0
 11
398.984718730759
 21
281.29979053839804
 31
0.0
  0
LINE
  5
BC
330
17
100
AcDbEntity
  8
VISIBLE
100
AcDbLine
 10
170.384718730759
 20
281.45854053839804
 30
0.0
 11
170.384718730759
 21
298.02492263060515
 31
0.0
  0
LINE
  5
BD
330
17
100
AcDbEntity
  8
VISIBLE
100
AcDbLine
 10
170.384718730759
 20
281.45854053839804
 30
0.0
 11
398.984718730759
 21
281.45854053839804
 31
0.0
  0
LINE
  5
BE
330
17
100
AcDbEntity
  8
VISIBLE
100
AcDbLine
 10
170.384718730759
 20
298.02492263060515
 30
0.0
 11
170.384718730759
 21
402.902290538398
 31
0.0
  0
LINE
  5
BF
330
17
100
AcDbEntity
  8
VISIBLE
100
AcDbLine
 10
170.384718730759
 20
298.02492263060515
 30
0.0
 11
398.984718730759
 21
298.02492263060515
 31
0.0
  0
LINE
  5
C0
330
17
100
AcDbEntity
  8
HIDDEN
100
AcDbLine
 10
170.384718730759
 20
314.03641317432897
 30
0.0
 11
398.984718730759
 21
314.03641317432897
 31
0.0
  0
LINE
  5
C1
330
17
100
AcDbEntity
  8
HIDDEN
100
AcDbLine
 10
170.384718730759
 20
330.6027952665361
 30
0.0
 11
398.984718730759
 21
330.6027952665361
 31
0.0
  0
LINE
  5
C2
330
17
100
AcDbEntity
  8
HIDDEN
100
AcDbLine
 10
170.384718730759
 20
346.61428581025996
 30
0.0
 11
398.984718730759
 21
346.61428581025996
 31
0.0
  0
LINE
  5
C3
330
17
100
AcDbEntity
  8
HIDDEN
100
AcDbLine
 10
170.384718730759
 20
363.18066790246706
 30
0.0
 11
398.984718730759
 21
363.18066790246706
 31
0.0
  0
LINE
  5
C4
330
17
100
AcDbEntity
  8
HIDDEN
100
AcDbLine
 10
170.384718730759
 20
379.1921584461909
 30
0.0
 11
398.984718730759
 21
379.1921584461909
 31
0.0
  0
LINE
  5
C5
330
17
100
AcDbEntity
  8
HIDDEN
100
AcDbLine
 10
170.384718730759
 20
395.75854053839805
 30
0.0
 11
398.984718730759
 21
395.75854053839805
 31
0.0
  0
LINE
  5
C6
330
17
100
AcDbEntity
  8
HIDDEN
100
AcDbLine
 10
170.384718730759
 20
398.139790538398
 30
0.0
 11
398.984718730759
 21
398.139790538398
 31
0.0
  0
LINE
  5
C7
330
17
100
AcDbEntity
  8
VISIBLE
100
AcDbLine
 10
170.384718730759
 20
402.902290538398
 30
0.0
 11
398.984718730759
 21
402.902290538398
 31
0.0
  0
LINE
  5
C8
330
17
100
AcDbEntity
  8
HIDDEN
100
AcDbLine
 10
193.40346873075902
 20
281.45854053839804
 30
0.0
 11
193.40346873075902
 21
292.57104053839805
 31
0.0
  0
LINE
  5
C9
330
17
100
AcDbEntity
  8
HIDDEN
100
AcDbLine
 10
193.40346873075902
 20
281.45854053839804
 30
0.0
 11
193.40346873075902
 21
395.75854053839805
 31
0.0
  0
LINE
  5
CA
330
17
100
AcDbEntity
  8
HIDDEN
100
AcDbLine
 10
193.40346873075902
 20
292.57104053839805
 30
0.0
 11
204.51596873075903
 21
292.57104053839805
 31
0.0
  0
LINE
  5
CB
330
17
100
AcDbEntity
  8
HIDDEN
100
AcDbLine
 10
193.40346873075902
 20
345.2808801403185
 30
0.0
 11
193.40346873075902
 21
356.07104053839805
 31
0.0
  0
LINE
  5
CC
330
17
100
AcDbEntity
  8
HIDDEN
100
AcDbLine
 10
193.40346873075902
 20
345.28088014031846
 30
0.0
 11
204.51596873075903
 21
345.28088014031846
 31
0.0
  0
LINE
  5
CD
330
17
100
AcDbEntity
  8
HIDDEN
100
AcDbLine
 10
193.40346873075902
 20
356.071040538398
 30
0.0
 11
204.51596873075903
 21
356.071040538398
 31
0.0
  0
LINE
  5
CE
330
17
100
AcDbEntity
  8
HIDDEN
100
AcDbLine
 10
193.40346873075902
 20
395.75854053839805
 30
0.0
 11
204.51596873075903
 21
395.75854053839805
 31
0.0
  0
LINE
  5
CF
330
17
100
AcDbEntity
  8
HIDDEN
100
AcDbLine
 10
204.51596873075903
 20
281.45854053839804
 30
0.0
 11
204.51596873075903
 21
292.57104053839805
 31
0.0
  0
LINE
  5
D0
330
17
100
AcDbEntity
  8
HIDDEN
100
AcDbLine
 10
204.51596873075903
 20
281.45854053839804
 30
0.0
 11
204.51596873075903
 21
395.75854053839805
 31
0.0
  0
LINE
  5
D1
330
17
100
AcDbEntity
  8
HIDDEN
100
AcDbLine
 10
204.51596873075903
 20
345.2808801403185
 30
0.0
 11
204.51596873075903
 21
356.07104053839805
 31
0.0
  0
LINE
  5
D2
330
17
100
AcDbEntity
  8
HIDDEN
100
AcDbLine
 10
364.853468730759
 20
281.45854053839804
 30
0.0
 11
364.853468730759
 21
292.57104053839805
 31
0.0
  0
LINE
  5
D3
330
17
100
AcDbEntity
  8
HIDDEN
100
AcDbLine
 10
364.853468730759
 20
281.45854053839804
 30
0.0
 11
364.853468730759
 21
395.75854053839805
 31
0.0
  0
LINE
  5
D4
330
17
100
AcDbEntity
  8
HIDDEN
100
AcDbLine
 10
364.853468730759
 20
292.57104053839805
 30
0.0
 11
375.965968730759
 21
292.57104053839805
 31
0.0
  0
LINE
  5
D5
330
17
100
AcDbEntity
  8
HIDDEN
100
AcDbLine
 10
364.853468730759
 20
345.2808801403185
 30
0.0
 11
364.853468730759
 21
356.07104053839805
 31
0.0
  0
LINE
  5
D6
330
17
100
AcDbEntity
  8
HIDDEN
100
AcDbLine
 10
364.853468730759
 20
345.28088014031846
 30
0.0
 11
375.965968730759
 21
345.28088014031846
 31
0.0
  0
LINE
  5
D7
330
17
100
AcDbEntity
  8
HIDDEN
100
AcDbLine
 10
364.853468730759
 20
356.071040538398
 30
0.0
 11
375.965968730759
 21
356.071040538398
 31
0.0
  0
LINE
  5
D8
330
17
100
AcDbEntity
  8
HIDDEN
100
AcDbLine
 10
364.853468730759
 20
395.75854053839805
 30
0.0
 11
375.965968730759
 21
395.75854053839805
 31
0.0
  0
LINE
  5
D9
330
17
100
AcDbEntity
  8
HIDDEN
100
AcDbLine
 10
375.965968730759
 20
281.45854053839804
 30
0.0
 11
375.965968730759
 21
292.57104053839805
 31
0.0
  0
LINE
  5
DA
330
17
100
AcDbEntity
  8
HIDDEN
100
AcDbLine
 10
375.965968730759
 20
281.45854053839804
 30
0.0
 11
375.965968730759
 21
395.75854053839805
 31
0.0
  0
LINE
  5
DB
330
17
100
AcDbEntity
  8
HIDDEN
100
AcDbLine
 10
375.965968730759
 20
345.2808801403185
 30
0.0
 11
375.965968730759
 21
356.07104053839805
 31
0.0
  0
LINE
  5
DC
330
17
100
AcDbEntity
  8
VISIBLE
100
AcDbLine
 10
398.984718730759
 20
281.29979053839804
 30
0.0
 11
398.984718730759
 21
281.45854053839804
 31
0.0
  0
LINE
  5
DD
330
17
100
AcDbEntity
  8
VISIBLE
100
AcDbLine
 10
398.984718730759
 20
281.45854053839804
 30
0.0
 11
398.984718730759
 21
298.02492263060515
 31
0.0
  0
LINE
  5
DE
330
17
100
AcDbEntity
  8
VISIBLE
100
AcDbLine
 10
398.984718730759
 20
298.02492263060515
 30
0.0
 11
398.984718730759
 21
402.902290538398
 31
0.0
  0
LWPOLYLINE
  5
DF
330
17
100
AcDbEntity
  8
HIDDEN
100
AcDbPolyline
 90
33
 70
0
 10
193.40346873075902
 20
292.57104053839794
 10
193.40346873075902
 20
295.23152539523795
 10
193.40346873075902
 20
297.8920102520779
 10
193.40346873075902
 20
300.4751570405283
 10
193.40346873075902
 20
303.0273686016228
 10
193.40346873075902
 20
305.52711612065445
 10
193.40346873075902
 20
307.9569115836023
 10
193.40346873075902
 20
310.3672955401112
 10
193.40346873075902
 20
312.6612104579865
 10
193.40346873075902
 20
314.9551253758618
 10
193.40346873075902
 20
317.1216757010885
 10
193.40346873075902
 20
319.2669985942071
 10
193.40346873075902
 20
321.320618574229
 10
193.40346873075902
 20
323.3054613694285
 10
193.40346873075902
 20
325.2413101966002
 10
193.40346873075902
 20
327.0546741037026
 10
193.40346873075902
 20
328.86803801080504
 10
193.40346873075902
 20
330.49987447121504
 10
193.40346873075902
 20
332.131710931625
 10
193.40346873075902
 20
333.6274258986689
 10
193.40346873075902
 20
335.0686922683664
 10
193.40346873075902
 20
336.4248629046368
 10
193.40346873075902
 20
337.6675725630044
 10
193.40346873075902
 20
338.8809332140067
 10
193.40346873075902
 20
339.91819982081745
 10
193.40346873075902
 20
340.95546642762827
 10
193.40346873075902
 20
341.8117122188776
 10
193.40346873075902
 20
342.63778787419994
 10
193.40346873075902
 20
343.3405672096576
 10
193.40346873075902
 20
343.9508743052166
 10
193.40346873075902
 20
344.49856696932875
 10
193.40346873075902
 20
344.8897235548236
 10
193.40346873075902
 20
345.28088014031846
  0
LWPOLYLINE
  5
E0
330
17
100
AcDbEntity
  8
HIDDEN
100
AcDbPolyline
 90
33
 70
0
 10
193.40346873075902
 20
292.571040538398
 10
193.40346873075902
 20
295.6965088908389
 10
193.40346873075902
 20
298.8219772432798
 10
193.40346873075902
 20
301.8644856597052
 10
193.40346873075902
 20
304.87381010172453
 10
193.40346873075902
 20
307.8258704764153
 10
193.40346873075902
 20
310.7015787613349
 10
193.40346873075902
 20
313.5558138143214
 10
193.40346873075902
 20
316.28120947570966
 10
193.40346873075902
 20
319.0066051370979
 10
193.40346873075902
 20
321.58959819611937
 10
193.40346873075902
 20
324.14885748807967
 10
193.40346873075902
 20
326.60469076772694
 10
193.40346873075902
 20
328.98295453813944
 10
193.40346873075902
 20
331.30556007794735
 10
193.40346873075902
 20
333.489020041244
 10
193.40346873075902
 20
335.6724800045406
 10
193.40346873075902
 20
337.6484589131115
 10
193.40346873075902
 20
339.62443782168236
 10
193.40346873075902
 20
341.44402125895385
 10
193.40346873075902
 20
343.2010465077055
 10
193.40346873075902
 20
344.8598624655849
 10
193.40346873075902
 20
346.3877327023012
 10
193.40346873075902
 20
347.8815992415956
 10
193.40346873075902
 20
349.1714435963581
 10
193.40346873075902
 20
350.46128795112054
 10
193.40346873075902
 20
351.5406910787548
 10
193.40346873075902
 20
352.5850206685344
 10
193.40346873075902
 20
353.48559129808746
 10
193.40346873075902
 20
354.27834270747064
 10
193.40346873075902
 20
354.9978995672011
 10
193.40346873075902
 20
355.5344700527995
 10
193.40346873075902
 20
356.071040538398
  0
LWPOLYLINE
  5
E1
330
17
100
AcDbEntity
  8
HIDDEN
100
AcDbPolyline
 90
33
 70
0
 10
204.51596873075903
 20
292.57104053839794
 10
204.51596873075903
 20
295.23152539523795
 10
204.51596873075903
 20
297.8920102520779
 10
204.51596873075903
 20
300.4751570405283
 10
204.51596873075903
 20
303.0273686016228
 10
204.51596873075903
 20
305.52711612065445
 10
204.51596873075903
 20
307.9569115836023
 10
204.51596873075903
 20
310.3672955401112
 10
204.51596873075903
 20
312.6612104579865
 10
204.51596873075903
 20
314.9551253758618
 10
204.51596873075903
 20
317.1216757010885
 10
204.51596873075903
 20
319.2669985942071
 10
204.51596873075903
 20
321.320618574229
 10
204.51596873075903
 20
323.3054613694285
 10
204.51596873075903
 20
325.2413101966002
 10
204.51596873075903
 20
327.0546741037026
 10
204.51596873075903
 20
328.86803801080504
 10
204.51596873075903
 20
330.49987447121504
 10
204.51596873075903
 20
332.131710931625
 10
204.51596873075903
 20
333.6274258986689
 10
204.51596873075903
 20
335.0686922683664
 10
204.51596873075903
 20
336.4248629046368
 10
204.51596873075903
 20
337.6675725630044
 10
204.51596873075903
 20
338.8809332140067
 10
204.51596873075903
 20
339.91819982081745
 10
204.51596873075903
 20
340.95546642762827
 10
204.51596873075903
 20
341.8117122188776
 10
204.51596873075903
 20
342.63778787419994
 10
204.51596873075903
 20
343.3405672096576
 10
204.51596873075903
 20
343.9508743052166
 10
204.51596873075903
 20
344.49856696932875
 10
204.51596873075903
 20
344.8897235548236
 10
204.51596873075903
 20
345.28088014031846
  0
LWPOLYLINE
  5
E2
330
17
100
AcDbEntity
  8
HIDDEN
100
AcDbPolyline
 90
33
 70
0
 10
204.51596873075903
 20
292.571040538398
 10
204.51596873075903
 20
295.6965088908389
 10
204.51596873075903
 20
298.8219772432798
 10
204.51596873075903
 20
301.8644856597052
 10
204.51596873075903
 20
304.87381010172453
 10
204.51596873075903
 20
307.8258704764153
 10
204.51596873075903
 20
310.7015787613349
 10
204.51596873075903
 20
313.5558138143214
 10
204.51596873075903
 20
316.28120947570966
 10
204.51596873075903
 20
319.0066051370979
 10
204.51596873075903
 20
321.58959819611937
 10
204.51596873075903
 20
324.14885748807967
 10
204.51596873075903
 20
326.60469076772694
 10
204.51596873075903
 20
328.98295453813944
 10
204.51596873075903
 20
331.30556007794735
 10
204.51596873075903
 20
333.489020041244
 10
204.51596873075903
 20
335.6724800045406
 10
204.51596873075903
 20
337.6484589131115
 10
204.51596873075903
 20
339.62443782168236
 10
204.51596873075903
 20
341.44402125895385
 10
204.51596873075903
 20
343.2010465077055
 10
204.51596873075903
 20
344.8598624655849
 10
204.51596873075903
 20
346.3877327023012
 10
204.51596873075903
 20
347.8815992415956
 10
204.51596873075903
 20
349.1714435963581
 10
204.51596873075903
 20
350.46128795112054
 10
204.51596873075903
 20
351.5406910787548
 10
204.51596873075903
 20
352.5850206685344
 10
204.51596873075903
 20
353.48559129808746
 10
204.51596873075903
 20
354.27834270747064
 10
204.51596873075903
 20
354.9978995672011
 10
204.51596873075903
 20
355.5344700527995
 10
204.51596873075903
 20
356.071040538398
  0
LWPOLYLINE
  5
E3
330
17
100
AcDbEntity
  8
HIDDEN
100
AcDbPolyline
 90
33
 70
0
 10
364.853468730759
 20
292.57104053839794
 10
364.853468730759
 20
295.23152539523795
 10
364.853468730759
 20
297.8920102520779
 10
364.853468730759
 20
300.4751570405283
 10
364.853468730759
 20
303.0273686016228
 10
364.853468730759
 20
305.52711612065445
 10
364.853468730759
 20
307.9569115836023
 10
364.853468730759
 20
310.3672955401112
 10
364.853468730759
 20
312.6612104579865
 10
364.853468730759
 20
314.9551253758618
 10
364.853468730759
 20
317.1216757010885
 10
364.853468730759
 20
319.2669985942071
 10
364.853468730759
 20
321.320618574229
 10
364.853468730759
 20
323.3054613694285
 10
364.853468730759
 20
325.2413101966002
 10
364.853468730759
 20
327.0546741037026
 10
364.853468730759
 20
328.86803801080504
 10
364.853468730759
 20
330.49987447121504
 10
364.853468730759
 20
332.131710931625
 10
364.853468730759
 20
333.6274258986689
 10
364.853468730759
 20
335.0686922683664
 10
364.853468730759
 20
336.4248629046368
 10
364.853468730759
 20
337.6675725630044
 10
364.853468730759
 20
338.8809332140067
 10
364.853468730759
 20
339.91819982081745
 10
364.853468730759
 20
340.95546642762827
 10
364.853468730759
 20
341.8117122188776
 10
364.853468730759
 20
342.63778787419994
 10
364.853468730759
 20
343.3405672096576
 10
364.853468730759
 20
343.9508743052166
 10
364.853468730759
 20
344.49856696932875
 10
364.853468730759
 20
344.8897235548236
 10
364.853468730759
 20
345.28088014031846
  0
LWPOLYLINE
  5
E4
330
17
100
AcDbEntity
  8
HIDDEN
100
AcDbPolyline
 90
33
 70
0
 10
364.853468730759
 20
292.571040538398
 10
364.853468730759
 20
295.6965088908389
 10
364.853468730759
 20
298.8219772432798
 10
364.853468730759
 20
301.8644856597052
 10
364.853468730759
 20
304.87381010172453
 10
364.853468730759
 20
307.8258704764153
 10
364.853468730759
 20
310.7015787613349
 10
364.853468730759
 20
313.5558138143214
 10
364.853468730759
 20
316.28120947570966
 10
364.853468730759
 20
319.0066051370979
 10
364.853468730759
 20
321.58959819611937
 10
364.853468730759
 20
324.14885748807967
 10
364.853468730759
 20
326.60469076772694
 10
364.853468730759
 20
328.98295453813944
 10
364.853468730759
 20
331.30556007794735
 10
364.853468730759
 20
333.489020041244
 10
364.853468730759
 20
335.6724800045406
 10
364.853468730759
 20
337.6484589131115
 10
364.853468730759
 20
339.62443782168236
 10
364.853468730759
 20
341.44402125895385
 10
364.853468730759
 20
343.2010465077055
 10
364.853468730759
 20
344.8598624655849
 10
364.853468730759
 20
346.3877327023012
 10
364.853468730759
 20
347.8815992415956
 10
364.853468730759
 20
349.1714435963581
 10
364.853468730759
 20
350.46128795112054
 10
364.853468730759
 20
351.5406910787548
 10
364.853468730759
 20
352.5850206685344
 10
364.853468730759
 20
353.48559129808746
 10
364.853468730759
 20
354.27834270747064
 10
364.853468730759
 20
354.9978995672011
 10
364.853468730759
 20
355.5344700527995
 10
364.853468730759
 20
356.071040538398
  0
LWPOLYLINE
  5
E5
330
17
100
AcDbEntity
  8
HIDDEN
100
AcDbPolyline
 90
33
 70
0
 10
375.965968730759
 20
292.57104053839794
 10
375.965968730759
 20
295.23152539523795
 10
375.965968730759
 20
297.8920102520779
 10
375.965968730759
 20
300.4751570405283
 10
375.965968730759
 20
303.0273686016228
 10
375.965968730759
 20
305.52711612065445
 10
375.965968730759
 20
307.9569115836023
 10
375.965968730759
 20
310.3672955401112
 10
375.965968730759
 20
312.6612104579865
 10
375.965968730759
 20
314.9551253758618
 10
375.965968730759
 20
317.1216757010885
 10
375.965968730759
 20
319.2669985942071
 10
375.965968730759
 20
321.320618574229
 10
375.965968730759
 20
323.3054613694285
 10
375.965968730759
 20
325.2413101966002
 10
375.965968730759
 20
327.0546741037026
 10
375.965968730759
 20
328.86803801080504
 10
375.965968730759
 20
330.49987447121504
 10
375.965968730759
 20
332.131710931625
 10
375.965968730759
 20
333.6274258986689
 10
375.965968730759
 20
335.0686922683664
 10
375.965968730759
 20
336.4248629046368
 10
375.965968730759
 20
337.6675725630044
 10
375.965968730759
 20
338.8809332140067
 10
375.965968730759
 20
339.91819982081745
 10
375.965968730759
 20
340.95546642762827
 10
375.965968730759
 20
341.8117122188776
 10
375.965968730759
 20
342.63778787419994
 10
375.965968730759
 20
343.3405672096576
 10
375.965968730759
 20
343.9508743052166
 10
375.965968730759
 20
344.49856696932875
 10
375.965968730759
 20
344.8897235548236
 10
375.965968730759
 20
345.28088014031846
  0
LWPOLYLINE
  5
E6
330
17
100
AcDbEntity
  8
HIDDEN
100
AcDbPolyline
 90
33
 70
0
 10
375.965968730759
 20
292.571040538398
 10
375.965968730759
 20
295.6965088908389
 10
375.965968730759
 20
298.8219772432798
 10
375.965968730759
 20
301.8644856597052
 10
375.965968730759
 20
304.87381010172453
 10
375.965968730759
 20
307.8258704764153
 10
375.965968730759
 20
310.7015787613349
 10
375.965968730759
 20
313.5558138143214
 10
375.965968730759
 20
316.28120947570966
 10
375.965968730759
 20
319.0066051370979
 10
375.965968730759
 20
321.58959819611937
 10
375.965968730759
 20
324.14885748807967
 10
375.965968730759
 20
326.60469076772694
 10
375.965968730759
 20
328.98295453813944
 10
375.965968730759
 20
331.30556007794735
 10
375.965968730759
 20
333.489020041244
 10
375.965968730759
 20
335.6724800045406
 10
375.965968730759
 20
337.6484589131115
 10
375.965968730759
 20
339.62443782168236
 10
375.965968730759
 20
341.44402125895385
 10
375.965968730759
 20
343.2010465077055
 10
375.965968730759
 20
344.8598624655849
 10
375.965968730759
 20
346.3877327023012
 10
375.965968730759
 20
347.8815992415956
 10
375.965968730759
 20
349.1714435963581
 10
375.965968730759
 20
350.46128795112054
 10
375.965968730759
 20
351.5406910787548
 10
375.965968730759
 20
352.5850206685344
 10
375.965968730759
 20
353.48559129808746
 10
375.965968730759
 20
354.27834270747064
 10
375.965968730759
 20
354.9978995672011
 10
375.965968730759
 20
355.5344700527995
 10
375.965968730759
 20
356.071040538398
  0
TEXT
  5
E7
330
17
100
AcDbEntity
  8
TITLE
100
AcDbText
 10
284.684718730759
 20
273.29979053839804
 30
0.0
 40
3.4
  1
TOP
  7
LOFT_MONO
 72
1
 11
284.684718730759
 21
273.29979053839804
 31
0.0
100
AcDbText
 73
2
  0
LINE
  5
E8
330
17
100
AcDbEntity
  8
VISIBLE
100
AcDbLine
 10
422.984718730759
 20
238.24979053839803
 30
0.0
 11
422.984718730759
 21
257.29979053839804
 31
0.0
  0
LINE
  5
E9
330
17
100
AcDbEntity
  8
VISIBLE
100
AcDbLine
 10
422.984718730759
 20
238.24979053839803
 30
0.0
 11
423.143468730759
 21
238.24979053839803
 31
0.0
  0
LINE
  5
EA
330
17
100
AcDbEntity
  8
VISIBLE
100
AcDbLine
 10
422.984718730759
 20
257.29979053839804
 30
0.0
 11
423.143468730759
 21
257.29979053839804
 31
0.0
  0
LINE
  5
EB
330
17
100
AcDbEntity
  8
VISIBLE
100
AcDbLine
 10
423.143468730759
 20
99.51856038221388
 30
0.0
 11
423.143468730759
 21
213.81856038221383
 31
0.0
  0
LINE
  5
EC
330
17
100
AcDbEntity
  8
VISIBLE
100
AcDbLine
 10
423.143468730759
 20
99.51856038221388
 30
0.0
 11
434.25596873075904
 21
99.51856038221388
 31
0.0
  0
LINE
  5
ED
330
17
100
AcDbEntity
  8
VISIBLE
100
AcDbLine
 10
423.143468730759
 20
213.81856038221383
 30
0.0
 11
423.143468730759
 21
232.22565159577726
 31
0.0
  0
LINE
  5
EE
330
17
100
AcDbEntity
  8
VISIBLE
100
AcDbLine
 10
423.143468730759
 20
213.81856038221383
 30
0.0
 11
434.25596873075904
 21
213.81856038221383
 31
0.0
  0
LINE
  5
EF
330
17
100
AcDbEntity
  8
VISIBLE
100
AcDbLine
 10
423.143468730759
 20
213.81856038221383
 30
0.0
 11
537.443468730759
 21
175.71856038221387
 31
0.0
  0
LINE
  5
F0
330
17
100
AcDbEntity
  8
VISIBLE
100
AcDbLine
 10
423.143468730759
 20
232.22565159577726
 30
0.0
 11
423.143468730759
 21
236.2417442241911
 31
0.0
  0
LINE
  5
F1
330
17
100
AcDbEntity
  8
VISIBLE
100
AcDbLine
 10
423.143468730759
 20
232.22565159577726
 30
0.0
 11
439.70985082296613
 21
226.70352423170823
 31
0.0
  0
LINE
  5
F2
330
17
100
AcDbEntity
  8
VISIBLE
100
AcDbLine
 10
423.143468730759
 20
236.2417442241911
 30
0.0
 11
423.143468730759
 21
237.5804417669957
 31
0.0
  0
LINE
  5
F3
330
17
100
AcDbEntity
  8
VISIBLE
100
AcDbLine
 10
423.143468730759
 20
236.2417442241911
 30
0.0
 11
439.70985082296613
 21
230.71961686012207
 31
0.0
  0
LINE
  5
F4
330
17
100
AcDbEntity
  8
VISIBLE
100
AcDbLine
 10
423.143468730759
 20
236.2417442241911
 30
0.0
 11
544.587218730759
 21
195.76049422419112
 31
0.0
  0
LINE
  5
F5
330
17
100
AcDbEntity
  8
VISIBLE
100
AcDbLine
 10
423.143468730759
 20
237.5804417669957
 30
0.0
 11
544.587218730759
 21
197.09919176699572
 31
0.0
  0
LINE
  5
F6
330
17
100
AcDbEntity
  8
VISIBLE
100
AcDbLine
 10
423.143468730759
 20
238.24979053839803
 30
0.0
 11
439.70985082296613
 21
232.727663174329
 31
0.0
  0
LINE
  5
F7
330
17
100
AcDbEntity
  8
VISIBLE
100
AcDbLine
 10
423.143468730759
 20
238.40854053839803
 30
0.0
 11
423.143468730759
 21
257.29979053839804
 31
0.0
  0
LINE
  5
F8
330
17
100
AcDbEntity
  8
VISIBLE
100
AcDbLine
 10
423.143468730759
 20
238.40854053839803
 30
0.0
 11
439.70985082296613
 21
232.886413174329
 31
0.0
  0
LINE
  5
F9
330
17
100
AcDbEntity
  8
VISIBLE
100
AcDbLine
 10
434.25596873075904
 20
99.51856038221388
 30
0.0
 11
434.25596873075904
 21
213.81856038221383
 31
0.0
  0
LINE
  5
FA
330
17
100
AcDbEntity
  8
VISIBLE
100
AcDbLine
 10
434.25596873075904
 20
105.86856038221384
 30
0.0
 11
434.25596873075904
 21
117.97875211864653
 31
0.0
  0
LINE
  5
FB
330
17
100
AcDbEntity
  8
VISIBLE
100
AcDbLine
 10
439.70985082296613
 20
226.70352423170823
 30
0.0
 11
439.70985082296613
 21
230.71961686012207
 31
0.0
  0
LINE
  5
FC
330
17
100
AcDbEntity
  8
VISIBLE
100
AcDbLine
 10
439.70985082296613
 20
226.70352423170823
 30
0.0
 11
455.72134136669
 21
221.3663607171336
 31
0.0
  0
LINE
  5
FD
330
17
100
AcDbEntity
  8
VISIBLE
100
AcDbLine
 10
439.70985082296613
 20
232.727663174329
 30
0.0
 11
439.70985082296613
 21
232.886413174329
 31
0.0
  0
LINE
  5
FE
330
17
100
AcDbEntity
  8
VISIBLE
100
AcDbLine
 10
455.72134136668996
 20
221.3663607171336
 30
0.0
 11
455.72134136668996
 21
225.38245334554745
 31
0.0
  0
LINE
  5
FF
330
17
100
AcDbEntity
  8
VISIBLE
100
AcDbLine
 10
455.72134136668996
 20
221.3663607171336
 30
0.0
 11
472.28772345889706
 21
215.84423335306457
 31
0.0
  0
LINE
  5
100
330
17
100
AcDbEntity
  8
VISIBLE
100
AcDbLine
 10
455.72134136668996
 20
225.38245334554745
 30
0.0
 11
472.28772345889706
 21
219.8603259814784
 31
0.0
  0
LINE
  5
101
330
17
100
AcDbEntity
  8
VISIBLE
100
AcDbLine
 10
472.28772345889706
 20
215.84423335306457
 30
0.0
 11
472.28772345889706
 21
219.8603259814784
 31
0.0
  0
LINE
  5
102
330
17
100
AcDbEntity
  8
VISIBLE
100
AcDbLine
 10
472.28772345889706
 20
215.84423335306462
 30
0.0
 11
488.29921400262094
 21
210.50706983849
 31
0.0
  0
LINE
  5
103
330
17
100
AcDbEntity
  8
VISIBLE
100
AcDbLine
 10
486.9658083326795
 20
192.54444718157373
 30
0.0
 11
497.75596873075904
 21
188.94772704888055
 31
0.0
  0
LINE
  5
104
330
17
100
AcDbEntity
  8
VISIBLE
100
AcDbLine
 10
488.29921400262094
 20
210.50706983848994
 30
0.0
 11
488.29921400262094
 21
214.52316246690384
 31
0.0
  0
LINE
  5
105
330
17
100
AcDbEntity
  8
VISIBLE
100
AcDbLine
 10
488.29921400262094
 20
210.50706983848994
 30
0.0
 11
504.86559609482805
 21
204.9849424744209
 31
0.0
  0
LINE
  5
106
330
17
100
AcDbEntity
  8
VISIBLE
100
AcDbLine
 10
488.29921400262094
 20
214.52316246690384
 30
0.0
 11
504.86559609482805
 21
209.0010351028348
 31
0.0
  0
LINE
  5
107
330
17
100
AcDbEntity
  8
VISIBLE
100
AcDbLine
 10
504.86559609482805
 20
204.9849424744209
 30
0.0
 11
504.86559609482805
 21
209.0010351028348
 31
0.0
  0
LINE
  5
108
330
17
100
AcDbEntity
  8
VISIBLE
100
AcDbLine
 10
504.86559609482805
 20
204.98494247442096
 30
0.0
 11
520.8770866385519
 21
199.64777895984633
 31
0.0
  0
LINE
  5
109
330
17
100
AcDbEntity
  8
VISIBLE
100
AcDbLine
 10
520.8770866385519
 20
199.64777895984633
 30
0.0
 11
520.8770866385519
 21
203.66387158826018
 31
0.0
  0
LINE
  5
10A
330
17
100
AcDbEntity
  8
VISIBLE
100
AcDbLine
 10
520.8770866385519
 20
199.64777895984633
 30
0.0
 11
537.443468730759
 21
194.1256515957773
 31
0.0
  0
LINE
  5
10B
330
17
100
AcDbEntity
  8
VISIBLE
100
AcDbLine
 10
520.8770866385519
 20
203.66387158826018
 30
0.0
 11
537.443468730759
 21
198.14174422419114
 31
0.0
  0
LINE
  5
10C
330
17
100
AcDbEntity
  8
VISIBLE
100
AcDbLine
 10
537.443468730759
 20
172.54356038221385
 30
0.0
 11
537.443468730759
 21
194.1256515957773
 31
0.0
  0
LINE
  5
10D
330
17
100
AcDbEntity
  8
VISIBLE
100
AcDbLine
 10
537.443468730759
 20
172.54356038221385
 30
0.0
 11
539.8247187307591
 21
172.54356038221385
 31
0.0
  0
LINE
  5
10E
330
17
100
AcDbEntity
  8
VISIBLE
100
AcDbLine
 10
537.443468730759
 20
194.1256515957773
 30
0.0
 11
537.443468730759
 21
198.14174422419114
 31
0.0
  0
LINE
  5
10F
330
17
100
AcDbEntity
  8
VISIBLE
100
AcDbLine
 10
537.443468730759
 20
194.1256515957773
 30
0.0
 11
539.8247187307591
 21
194.1256515957773
 31
0.0
  0
LINE
  5
110
330
17
100
AcDbEntity
  8
VISIBLE
100
AcDbLine
 10
539.8247187307591
 20
172.54356038221385
 30
0.0
 11
539.8247187307591
 21
194.1256515957773
 31
0.0
  0
LINE
  5
111
330
17
100
AcDbEntity
  8
VISIBLE
100
AcDbLine
 10
544.587218730759
 20
195.76049422419112
 30
0.0
 11
544.587218730759
 21
197.09919176699572
 31
0.0
  0
LWPOLYLINE
  5
112
330
17
100
AcDbEntity
  8
VISIBLE
100
AcDbPolyline
 90
9
 70
0
 10
434.25596873075904
 20
105.86856038221384
 10
446.5858388605654
 20
111.84532878343992
 10
458.01139394044526
 20
119.40867123611372
 10
468.32967910704514
 20
128.42423828209098
 10
477.35740819690164
 20
138.73188425097953
 10
484.93421950233284
 20
150.1485119659257
 10
490.9255243147465
 20
162.47132514249114
 10
495.22489765601154
 20
175.481430707482
 10
497.755968730759
 20
188.9477270488805
  0
LWPOLYLINE
  5
113
330
17
100
AcDbEntity
  8
VISIBLE
100
AcDbPolyline
 90
9
 70
0
 10
434.255968730759
 20
117.97875211864653
 10
444.7372912141451
 20
123.69665380920259
 10
454.386819861997
 20
130.7279493952156
 10
463.04095324383206
 20
138.95342787084292
 10
470.552966203166
 20
148.23363164244188
 10
476.7954974863252
 20
158.4112209406195
 10
481.6627090689845
 20
169.31364141284615
 10
485.07208057046586
 20
180.75604966934912
 10
486.96580833267944
 20
192.54444718157367
  0
TEXT
  5
114
330
17
100
AcDbEntity
  8
TITLE
100
AcDbText
 10
483.785968730759
 20
91.51856038221388
 30
0.0
 40
3.4
  1
RIGHT
  7
LOFT_MONO
 72
1
 11
483.785968730759
 21
91.51856038221388
 31
0.0
100
AcDbText
 73
2
  0
LINE
  5
115
330
17
100
AcDbEntity
  8
VISIBLE
100
AcDbLine
 10
422.984718730759
 20
400.0628384511507
 30
0.0
 11
422.984718730759
 21
401.15588041774697
 31
0.0
  0
LINE
  5
116
330
17
100
AcDbEntity
  8
VISIBLE
100
AcDbLine
 10
422.98471873075897
 20
400.0628384511507
 30
0.0
 11
508.8584178884828
 21
383.5364373428104
 31
0.0
  0
LINE
  5
117
330
17
100
AcDbEntity
  8
HIDDEN
100
AcDbLine
 10
422.984718730759
 20
400.0628384511507
 30
0.0
 11
584.6293289100038
 21
493.38839765118973
 31
0.0
  0
LINE
  5
118
330
17
100
AcDbEntity
  8
VISIBLE
100
AcDbLine
 10
422.984718730759
 20
401.15588041774697
 30
0.0
 11
508.8584178884828
 21
384.62947930940675
 31
0.0
  0
LINE
  5
119
330
17
100
AcDbEntity
  8
VISIBLE
100
AcDbLine
 10
422.984718730759
 20
401.15588041774697
 30
0.0
 11
584.6293289100038
 21
494.4814396177861
 31
0.0
  0
LINE
  5
11A
330
17
100
AcDbEntity
  8
VISIBLE
100
AcDbLine
 10
426.3523147761599
 20
379.16200886621687
 30
0.0
 11
426.3523147761599
 21
396.78371255136176
 31
0.0
  0
LINE
  5
11B
330
17
100
AcDbEntity
  8
VISIBLE
100
AcDbLine
 10
426.3523147761599
 20
379.16200886621687
 30
0.0
 11
428.03611279886036
 21
378.18986762454983
 31
0.0
  0
LINE
  5
11C
330
17
100
AcDbEntity
  8
HIDDEN
100
AcDbLine
 10
426.3523147761599
 20
379.16200886621687
 30
0.0
 11
587.9969249554047
 21
472.487568066256
 31
0.0
  0
LINE
  5
11D
330
17
100
AcDbEntity
  8
VISIBLE
100
AcDbLine
 10
426.3523147761599
 20
396.78371255136176
 30
0.0
 11
428.03611279886036
 21
395.81157130969467
 31
0.0
  0
LINE
  5
11E
330
17
100
AcDbEntity
  8
VISIBLE
100
AcDbLine
 10
426.3523147761599
 20
396.78371255136176
 30
0.0
 11
428.03611279886036
 21
397.7558537930288
 31
0.0
  0
LINE
  5
11F
330
17
100
AcDbEntity
  8
VISIBLE
100
AcDbLine
 10
428.03611279886036
 20
378.18986762454983
 30
0.0
 11
428.03611279886036
 21
395.81157130969467
 31
0.0
  0
LINE
  5
120
330
17
100
AcDbEntity
  8
VISIBLE
100
AcDbLine
 10
428.03611279886036
 20
378.18986762454983
 30
0.0
 11
447.68042306369915
 21
389.53151544399896
 31
0.0
  0
LINE
  5
121
330
17
100
AcDbEntity
  8
VISIBLE
100
AcDbLine
 10
428.03611279886036
 20
395.81157130969467
 30
0.0
 11
428.03611279886036
 21
399.0906972094836
 31
0.0
  0
LINE
  5
122
330
17
100
AcDbEntity
  8
VISIBLE
100
AcDbLine
 10
428.03611279886036
 20
395.81157130969467
 30
0.0
 11
439.7503139159874
 21
393.5571722535898
 31
0.0
  0
LINE
  5
123
330
17
100
AcDbEntity
  8
HIDDEN
100
AcDbLine
 10
428.03611279886036
 20
395.81157130969467
 30
0.0
 11
589.6807229781052
 21
489.13713050973377
 31
0.0
  0
LINE
  5
124
330
17
100
AcDbEntity
  8
HIDDEN
100
AcDbLine
 10
428.03611279886036
 20
397.7558537930288
 30
0.0
 11
587.9969249554047
 21
490.1092717514008
 31
0.0
  0
LINE
  5
125
330
17
100
AcDbEntity
  8
VISIBLE
100
AcDbLine
 10
428.03611279886036
 20
399.0906972094836
 30
0.0
 11
439.7503139159874
 21
396.8362981533787
 31
0.0
  0
LINE
  5
126
330
17
100
AcDbEntity
  8
HIDDEN
100
AcDbLine
 10
428.03611279886036
 20
399.0906972094836
 30
0.0
 11
589.6807229781052
 21
492.4162564095227
 31
0.0
  0
LINE
  5
127
330
17
100
AcDbEntity
  8
VISIBLE
100
AcDbLine
 10
439.7503139159874
 20
393.5571722535898
 30
0.0
 11
439.7503139159874
 21
396.8362981533787
 31
0.0
  0
LINE
  5
128
330
17
100
AcDbEntity
  8
VISIBLE
100
AcDbLine
 10
439.7503139159874
 20
393.5571722535898
 30
0.0
 11
444.0100234131245
 21
396.01651667843146
 31
0.0
  0
LINE
  5
129
330
17
100
AcDbEntity
  8
HIDDEN
100
AcDbLine
 10
439.7503139159874
 20
396.8362981533787
 30
0.0
 11
601.3949240952322
 21
490.16185735341776
 31
0.0
  0
LINE
  5
12A
330
17
100
AcDbEntity
  8
HIDDEN
100
AcDbLine
 10
444.0100234131245
 20
396.01651667843146
 30
0.0
 11
601.3949240952322
 21
486.8827314536288
 31
0.0
  0
LINE
  5
12B
330
17
100
AcDbEntity
  8
VISIBLE
100
AcDbLine
 10
444.3128270182982
 20
390.1796096051104
 30
0.0
 11
444.3128270182982
 21
395.95824209744524
 31
0.0
  0
LINE
  5
12C
330
17
100
AcDbEntity
  8
HIDDEN
100
AcDbLine
 10
444.3128270182982
 20
390.1796096051104
 30
0.0
 11
452.1705511242337
 21
394.71626873289006
 31
0.0
  0
LINE
  5
12D
330
17
100
AcDbEntity
  8
VISIBLE
100
AcDbLine
 10
444.3128270182982
 20
390.1796096051104
 30
0.0
 11
525.1351321079206
 21
374.6253497384372
 31
0.0
  0
LINE
  5
12E
330
17
100
AcDbEntity
  8
HIDDEN
100
AcDbLine
 10
444.3128270182982
 20
395.95824209744524
 30
0.0
 11
444.3128270182982
 21
405.2089366458097
 31
0.0
  0
LINE
  5
12F
330
17
100
AcDbEntity
  8
HIDDEN
100
AcDbLine
 10
444.3128270182982
 20
405.2089366458097
 30
0.0
 11
452.1705511242337
 21
409.74559577358934
 31
0.0
  0
LINE
  5
130
330
17
100
AcDbEntity
  8
HIDDEN
100
AcDbLine
 10
444.3128270182982
 20
405.2089366458097
 30
0.0
 11
525.1351321079206
 21
389.6546767791365
 31
0.0
  0
LINE
  5
131
330
17
100
AcDbEntity
  8
HIDDEN
100
AcDbLine
 10
447.68042306369915
 20
389.53151544399896
 30
0.0
 11
589.6807229781052
 21
471.51542682458887
 31
0.0
  0
LINE
  5
132
330
17
100
AcDbEntity
  8
VISIBLE
100
AcDbLine
 10
451.07214745635883
 20
391.37828437283855
 30
0.0
 11
451.07214745635883
 21
394.65741027262754
 31
0.0
  0
LINE
  5
133
330
17
100
AcDbEntity
  8
VISIBLE
100
AcDbLine
 10
451.07214745635883
 20
391.3782843728385
 30
0.0
 11
462.78634857348584
 21
389.1238853167336
 31
0.0
  0
LINE
  5
134
330
17
100
AcDbEntity
  8
HIDDEN
100
AcDbLine
 10
451.07214745635883
 20
391.37828437283855
 30
0.0
 11
612.7167576356036
 21
484.70384357287764
 31
0.0
  0
LINE
  5
135
330
17
100
AcDbEntity
  8
VISIBLE
100
AcDbLine
 10
451.07214745635883
 20
394.65741027262754
 30
0.0
 11
462.78634857348584
 21
392.40301121652266
 31
0.0
  0
LINE
  5
136
330
17
100
AcDbEntity
  8
HIDDEN
100
AcDbLine
 10
451.07214745635883
 20
394.65741027262754
 30
0.0
 11
612.7167576356036
 21
487.9829694726667
 31
0.0
  0
LINE
  5
137
330
17
100
AcDbEntity
  8
HIDDEN
100
AcDbLine
 10
452.1705511242337
 20
394.71626873289006
 30
0.0
 11
452.1705511242337
 21
409.74559577358934
 31
0.0
  0
LINE
  5
138
330
17
100
AcDbEntity
  8
HIDDEN
100
AcDbLine
 10
452.1705511242337
 20
394.71626873289006
 30
0.0
 11
532.9928562138562
 21
379.16200886621687
 31
0.0
  0
LINE
  5
139
330
17
100
AcDbEntity
  8
HIDDEN
100
AcDbLine
 10
452.1705511242337
 20
409.74559577358934
 30
0.0
 11
532.9928562138562
 21
394.19133590691615
 31
0.0
  0
LINE
  5
13A
330
17
100
AcDbEntity
  8
VISIBLE
100
AcDbLine
 10
462.78634857348584
 20
389.1238853167336
 30
0.0
 11
462.78634857348584
 21
392.4030112165226
 31
0.0
  0
LINE
  5
13B
330
17
100
AcDbEntity
  8
VISIBLE
100
AcDbLine
 10
462.78634857348584
 20
389.1238853167336
 30
0.0
 11
467.0460580706231
 21
391.58322974157534
 31
0.0
  0
LINE
  5
13C
330
17
100
AcDbEntity
  8
HIDDEN
100
AcDbLine
 10
462.78634857348584
 20
392.4030112165226
 30
0.0
 11
624.4309587527307
 21
485.72857041656175
 31
0.0
  0
LINE
  5
13D
330
17
100
AcDbEntity
  8
HIDDEN
100
AcDbLine
 10
467.0460580706231
 20
391.58322974157534
 30
0.0
 11
624.4309587527307
 21
482.4494445167727
 31
0.0
  0
LINE
  5
13E
330
17
100
AcDbEntity
  8
VISIBLE
100
AcDbLine
 10
472.3761273966394
 20
384.7788249291822
 30
0.0
 11
480.0059229842119
 21
383.31047008373326
 31
0.0
  0
LINE
  5
13F
330
17
100
AcDbEntity
  8
HIDDEN
100
AcDbLine
 10
472.3761273966394
 20
384.7788249291822
 30
0.0
 11
480.2338515025749
 21
389.31548405696185
 31
0.0
  0
LINE
  5
140
330
17
100
AcDbEntity
  8
VISIBLE
100
AcDbLine
 10
474.1081821138573
 20
386.9449974359825
 30
0.0
 11
474.1081821138573
 21
390.2241233357714
 31
0.0
  0
LINE
  5
141
330
17
100
AcDbEntity
  8
VISIBLE
100
AcDbLine
 10
474.1081821138573
 20
386.9449974359825
 30
0.0
 11
485.8223832309843
 21
384.69059837987754
 31
0.0
  0
LINE
  5
142
330
17
100
AcDbEntity
  8
HIDDEN
100
AcDbLine
 10
474.1081821138573
 20
386.9449974359825
 30
0.0
 11
635.7527922931021
 21
480.2705566360215
 31
0.0
  0
LINE
  5
143
330
17
100
AcDbEntity
  8
VISIBLE
100
AcDbLine
 10
474.1081821138573
 20
390.2241233357714
 30
0.0
 11
485.8223832309843
 21
387.9697242796665
 31
0.0
  0
LINE
  5
144
330
17
100
AcDbEntity
  8
HIDDEN
100
AcDbLine
 10
474.1081821138573
 20
390.2241233357714
 30
0.0
 11
635.7527922931021
 21
483.54968253581046
 31
0.0
  0
LINE
  5
145
330
17
100
AcDbEntity
  8
HIDDEN
100
AcDbLine
 10
480.0059229842119
 20
383.31047008373326
 30
0.0
 11
487.8636470901474
 21
387.84712921151294
 31
0.0
  0
LINE
  5
146
330
17
100
AcDbEntity
  8
HIDDEN
100
AcDbLine
 10
480.23385150257485
 20
389.3154840569619
 30
0.0
 11
487.8636470901474
 21
387.847129211513
 31
0.0
  0
LINE
  5
147
330
17
100
AcDbEntity
  8
VISIBLE
100
AcDbLine
 10
485.8223832309843
 20
384.69059837987754
 30
0.0
 11
485.8223832309843
 21
387.9697242796665
 31
0.0
  0
LINE
  5
148
330
17
100
AcDbEntity
  8
VISIBLE
100
AcDbLine
 10
485.8223832309843
 20
384.69059837987754
 30
0.0
 11
490.08209272812144
 21
387.1499428047193
 31
0.0
  0
LINE
  5
149
330
17
100
AcDbEntity
  8
HIDDEN
100
AcDbLine
 10
485.8223832309843
 20
387.9697242796665
 30
0.0
 11
647.4669934102291
 21
481.29528347970563
 31
0.0
  0
LINE
  5
14A
330
17
100
AcDbEntity
  8
HIDDEN
100
AcDbLine
 10
490.08209272812144
 20
387.1499428047193
 30
0.0
 11
647.4669934102291
 21
478.0161575799167
 31
0.0
  0
LINE
  5
14B
330
17
100
AcDbEntity
  8
VISIBLE
100
AcDbLine
 10
497.1442167713558
 20
382.51171049912637
 30
0.0
 11
497.1442167713558
 21
385.7908363989153
 31
0.0
  0
LINE
  5
14C
330
17
100
AcDbEntity
  8
VISIBLE
100
AcDbLine
 10
497.1442167713558
 20
382.51171049912637
 30
0.0
 11
508.8584178884828
 21
380.2573114430215
 31
0.0
  0
LINE
  5
14D
330
17
100
AcDbEntity
  8
HIDDEN
100
AcDbLine
 10
497.1442167713558
 20
382.51171049912637
 30
0.0
 11
658.7888269506005
 21
475.8372696991654
 31
0.0
  0
LINE
  5
14E
330
17
100
AcDbEntity
  8
VISIBLE
100
AcDbLine
 10
497.1442167713558
 20
385.7908363989153
 30
0.0
 11
508.8584178884828
 21
383.53643734281036
 31
0.0
  0
LINE
  5
14F
330
17
100
AcDbEntity
  8
HIDDEN
100
AcDbLine
 10
497.1442167713558
 20
385.7908363989153
 30
0.0
 11
658.7888269506005
 21
479.11639559895434
 31
0.0
  0
LINE
  5
150
330
17
100
AcDbEntity
  8
VISIBLE
100
AcDbLine
 10
497.1442167713558
 20
387.4303993488097
 30
0.0
 11
497.1442167713558
 21
387.560018181032
 31
0.0
  0
LINE
  5
151
330
17
100
AcDbEntity
  8
VISIBLE
100
AcDbLine
 10
497.1442167713558
 20
387.4303993488098
 30
0.0
 11
508.8584178884828
 21
385.1760002927049
 31
0.0
  0
LINE
  5
152
330
17
100
AcDbEntity
  8
HIDDEN
100
AcDbLine
 10
497.1442167713558
 20
387.4303993488097
 30
0.0
 11
658.7888269506005
 21
480.75595854884887
 31
0.0
  0
LINE
  5
153
330
17
100
AcDbEntity
  8
VISIBLE
100
AcDbLine
 10
497.1442167713558
 20
387.5600181810321
 30
0.0
 11
508.8584178884828
 21
385.30561912492715
 31
0.0
  0
LINE
  5
154
330
17
100
AcDbEntity
  8
VISIBLE
100
AcDbLine
 10
497.1442167713558
 20
387.5600181810321
 30
0.0
 11
508.8584178884828
 21
394.32321534934675
 31
0.0
  0
LINE
  5
155
330
17
100
AcDbEntity
  8
VISIBLE
100
AcDbLine
 10
508.8584178884828
 20
380.2573114430215
 30
0.0
 11
508.8584178884828
 21
383.5364373428104
 31
0.0
  0
LINE
  5
156
330
17
100
AcDbEntity
  8
VISIBLE
100
AcDbLine
 10
508.8584178884828
 20
380.2573114430215
 30
0.0
 11
670.5030280677275
 21
473.5828706430606
 31
0.0
  0
LINE
  5
157
330
17
100
AcDbEntity
  8
VISIBLE
100
AcDbLine
 10
508.8584178884828
 20
383.53643734281036
 30
0.0
 11
508.8584178884828
 21
384.6294793094067
 31
0.0
  0
LINE
  5
158
330
17
100
AcDbEntity
  8
VISIBLE
100
AcDbLine
 10
508.8584178884828
 20
383.5364373428104
 30
0.0
 11
670.5030280677275
 21
476.8619965428495
 31
0.0
  0
LINE
  5
159
330
17
100
AcDbEntity
  8
VISIBLE
100
AcDbLine
 10
508.8584178884828
 20
384.6294793094067
 30
0.0
 11
670.5030280677275
 21
477.9550385094458
 31
0.0
  0
LINE
  5
15A
330
17
100
AcDbEntity
  8
VISIBLE
100
AcDbLine
 10
508.8584178884828
 20
385.1760002927049
 30
0.0
 11
508.97067108999613
 21
385.11119087659375
 31
0.0
  0
LINE
  5
15B
330
17
100
AcDbEntity
  8
HIDDEN
100
AcDbLine
 10
508.8584178884828
 20
385.1760002927049
 30
0.0
 11
670.5030280677275
 21
478.50155949274404
 31
0.0
  0
LINE
  5
15C
330
17
100
AcDbEntity
  8
VISIBLE
100
AcDbLine
 10
508.8584178884828
 20
385.30561912492715
 30
0.0
 11
508.8584178884828
 21
400.7302601593781
 31
0.0
  0
LINE
  5
15D
330
17
100
AcDbEntity
  8
HIDDEN
100
AcDbLine
 10
508.8584178884828
 20
385.30561912492715
 30
0.0
 11
670.5030280677275
 21
478.6311783249663
 31
0.0
  0
LINE
  5
15E
330
17
100
AcDbEntity
  8
HIDDEN
100
AcDbLine
 10
508.8584178884828
 20
394.32321534934675
 30
0.0
 11
658.7888269506005
 21
480.88557738107113
 31
0.0
  0
LINE
  5
15F
330
17
100
AcDbEntity
  8
VISIBLE
100
AcDbLine
 10
508.8584178884828
 20
400.7302601593781
 30
0.0
 11
508.97067108999613
 21
400.66545074326694
 31
0.0
  0
LINE
  5
160
330
17
100
AcDbEntity
  8
VISIBLE
100
AcDbLine
 10
508.8584178884828
 20
400.7302601593781
 30
0.0
 11
670.5030280677275
 21
494.0558193594172
 31
0.0
  0
LINE
  5
161
330
17
100
AcDbEntity
  8
VISIBLE
100
AcDbLine
 10
508.97067108999613
 20
385.11119087659375
 30
0.0
 11
508.97067108999613
 21
400.66545074326694
 31
0.0
  0
LINE
  5
162
330
17
100
AcDbEntity
  8
VISIBLE
100
AcDbLine
 10
508.97067108999613
 20
385.11119087659375
 30
0.0
 11
670.615281269241
 21
478.43675007663285
 31
0.0
  0
LINE
  5
163
330
17
100
AcDbEntity
  8
VISIBLE
100
AcDbLine
 10
508.97067108999613
 20
400.66545074326694
 30
0.0
 11
670.615281269241
 21
493.99100994330604
 31
0.0
  0
LINE
  5
164
330
17
100
AcDbEntity
  8
VISIBLE
100
AcDbLine
 10
517.2774080019851
 20
285.83644966617777
 30
0.0
 11
517.2774080019851
 21
379.16200886621687
 31
0.0
  0
LINE
  5
165
330
17
100
AcDbEntity
  8
VISIBLE
100
AcDbLine
 10
517.2774080019851
 20
285.8364496661777
 30
0.0
 11
525.1351321079206
 21
281.29979053839804
 31
0.0
  0
LINE
  5
166
330
17
100
AcDbEntity
  8
HIDDEN
100
AcDbLine
 10
517.2774080019851
 20
285.83644966617777
 30
0.0
 11
525.1351321079206
 21
290.37310879395744
 31
0.0
  0
LINE
  5
167
330
17
100
AcDbEntity
  8
VISIBLE
100
AcDbLine
 10
517.2774080019851
 20
291.0212029550688
 30
0.0
 11
517.2774080019851
 21
300.90913310224533
 31
0.0
  0
LINE
  5
168
330
17
100
AcDbEntity
  8
HIDDEN
100
AcDbLine
 10
517.2774080019851
 20
291.0212029550688
 30
0.0
 11
525.1351321079206
 21
295.5578620828485
 31
0.0
  0
LINE
  5
169
330
17
100
AcDbEntity
  8
HIDDEN
100
AcDbLine
 10
517.2774080019851
 20
300.9091331022453
 30
0.0
 11
525.1351321079206
 21
305.44579223002495
 31
0.0
  0
LINE
  5
16A
330
17
100
AcDbEntity
  8
VISIBLE
100
AcDbLine
 10
517.2774080019851
 20
379.16200886621687
 30
0.0
 11
525.1351321079206
 21
374.6253497384372
 31
0.0
  0
LINE
  5
16B
330
17
100
AcDbEntity
  8
HIDDEN
100
AcDbLine
 10
517.2774080019851
 20
379.16200886621687
 30
0.0
 11
525.1351321079206
 21
383.69866799399654
 31
0.0
  0
LINE
  5
16C
330
17
100
AcDbEntity
  8
VISIBLE
100
AcDbLine
 10
525.1351321079206
 20
281.29979053839804
 30
0.0
 11
525.1351321079206
 21
374.6253497384372
 31
0.0
  0
LINE
  5
16D
330
17
100
AcDbEntity
  8
VISIBLE
100
AcDbLine
 10
525.1351321079206
 20
281.29979053839804
 30
0.0
 11
532.9928562138562
 21
285.8364496661777
 31
0.0
  0
LINE
  5
16E
330
17
100
AcDbEntity
  8
HIDDEN
100
AcDbLine
 10
525.1351321079206
 20
290.37310879395744
 30
0.0
 11
532.9928562138562
 21
285.83644966617777
 31
0.0
  0
LINE
  5
16F
330
17
100
AcDbEntity
  8
VISIBLE
100
AcDbLine
 10
525.1351321079206
 20
374.6253497384372
 30
0.0
 11
525.1351321079206
 21
389.6546767791365
 31
0.0
  0
LINE
  5
170
330
17
100
AcDbEntity
  8
VISIBLE
100
AcDbLine
 10
525.1351321079206
 20
374.6253497384372
 30
0.0
 11
532.9928562138562
 21
379.16200886621687
 31
0.0
  0
LINE
  5
171
330
17
100
AcDbEntity
  8
HIDDEN
100
AcDbLine
 10
525.1351321079206
 20
383.69866799399654
 30
0.0
 11
532.9928562138562
 21
379.16200886621687
 31
0.0
  0
LINE
  5
172
330
17
100
AcDbEntity
  8
VISIBLE
100
AcDbLine
 10
525.1351321079206
 20
389.6546767791365
 30
0.0
 11
532.9928562138562
 21
394.19133590691615
 31
0.0
  0
LINE
  5
173
330
17
100
AcDbEntity
  8
VISIBLE
100
AcDbLine
 10
532.9928562138562
 20
285.8364496661778
 30
0.0
 11
532.9928562138562
 21
379.16200886621687
 31
0.0
  0
LINE
  5
174
330
17
100
AcDbEntity
  8
VISIBLE
100
AcDbLine
 10
532.9928562138562
 20
379.16200886621687
 30
0.0
 11
532.9928562138562
 21
394.1913359069162
 31
0.0
  0
LINE
  5
175
330
17
100
AcDbEntity
  8
HIDDEN
100
AcDbLine
 10
565.5462846527319
 20
460.17377900513964
 30
0.0
 11
565.5462846527319
 21
475.20310604583904
 31
0.0
  0
LINE
  5
176
330
17
100
AcDbEntity
  8
HIDDEN
100
AcDbLine
 10
565.5462846527319
 20
460.17377900513964
 30
0.0
 11
573.4040087586674
 21
464.7104381329193
 31
0.0
  0
LINE
  5
177
330
17
100
AcDbEntity
  8
HIDDEN
100
AcDbLine
 10
565.5462846527319
 20
460.17377900513964
 30
0.0
 11
626.8449212138091
 21
448.37685089864135
 31
0.0
  0
LINE
  5
178
330
17
100
AcDbEntity
  8
HIDDEN
100
AcDbLine
 10
565.5462846527319
 20
475.20310604583904
 30
0.0
 11
573.4040087586674
 21
479.7397651736187
 31
0.0
  0
LINE
  5
179
330
17
100
AcDbEntity
  8
HIDDEN
100
AcDbLine
 10
565.5462846527319
 20
475.20310604583904
 30
0.0
 11
646.3685897423542
 21
459.64884617916584
 31
0.0
  0
LINE
  5
17A
330
17
100
AcDbEntity
  8
HIDDEN
100
AcDbLine
 10
573.4040087586674
 20
464.7104381329193
 30
0.0
 11
573.4040087586674
 21
479.7397651736187
 31
0.0
  0
LINE
  5
17B
330
17
100
AcDbEntity
  8
HIDDEN
100
AcDbLine
 10
573.4040087586674
 20
464.7104381329194
 30
0.0
 11
654.2263138482897
 21
449.15617826624623
 31
0.0
  0
LINE
  5
17C
330
17
100
AcDbEntity
  8
HIDDEN
100
AcDbLine
 10
573.4040087586674
 20
479.7397651736187
 30
0.0
 11
654.2263138482897
 21
464.1855053069455
 31
0.0
  0
LINE
  5
17D
330
17
100
AcDbEntity
  8
HIDDEN
100
AcDbLine
 10
584.6293289100038
 20
493.38839765118973
 30
0.0
 11
584.6293289100038
 21
494.481439617786
 31
0.0
  0
LINE
  5
17E
330
17
100
AcDbEntity
  8
HIDDEN
100
AcDbLine
 10
584.6293289100038
 20
493.38839765118985
 30
0.0
 11
670.5030280677275
 21
476.8619965428495
 31
0.0
  0
LINE
  5
17F
330
17
100
AcDbEntity
  8
VISIBLE
100
AcDbLine
 10
584.6293289100038
 20
494.4814396177861
 30
0.0
 11
649.5875002124658
 21
481.9802337219387
 31
0.0
  0
LINE
  5
180
330
17
100
AcDbEntity
  8
HIDDEN
100
AcDbLine
 10
587.9969249554047
 20
472.487568066256
 30
0.0
 11
587.9969249554047
 21
490.1092717514009
 31
0.0
  0
LINE
  5
181
330
17
100
AcDbEntity
  8
HIDDEN
100
AcDbLine
 10
587.9969249554047
 20
472.487568066256
 30
0.0
 11
589.6807229781052
 21
471.51542682458887
 31
0.0
  0
LINE
  5
182
330
17
100
AcDbEntity
  8
HIDDEN
100
AcDbLine
 10
587.9969249554047
 20
490.1092717514008
 30
0.0
 11
589.6807229781052
 21
489.13713050973377
 31
0.0
  0
LINE
  5
183
330
17
100
AcDbEntity
  8
HIDDEN
100
AcDbLine
 10
589.6807229781052
 20
471.51542682458887
 30
0.0
 11
589.6807229781052
 21
489.13713050973377
 31
0.0
  0
LINE
  5
184
330
17
100
AcDbEntity
  8
HIDDEN
100
AcDbLine
 10
589.6807229781052
 20
489.13713050973377
 30
0.0
 11
589.6807229781052
 21
492.4162564095227
 31
0.0
  0
LINE
  5
185
330
17
100
AcDbEntity
  8
HIDDEN
100
AcDbLine
 10
589.6807229781052
 20
489.13713050973377
 30
0.0
 11
601.3949240952322
 21
486.8827314536288
 31
0.0
  0
LINE
  5
186
330
17
100
AcDbEntity
  8
HIDDEN
100
AcDbLine
 10
589.6807229781052
 20
492.4162564095227
 30
0.0
 11
601.3949240952322
 21
490.1618573534179
 31
0.0
  0
LINE
  5
187
330
17
100
AcDbEntity
  8
HIDDEN
100
AcDbLine
 10
593.6095850310729
 20
454.77299432921154
 30
0.0
 11
601.2393806186454
 21
453.30463948376257
 31
0.0
  0
LINE
  5
188
330
17
100
AcDbEntity
  8
HIDDEN
100
AcDbLine
 10
593.6095850310729
 20
454.77299432921143
 30
0.0
 11
601.4673091370084
 21
459.3096534569911
 31
0.0
  0
LINE
  5
189
330
17
100
AcDbEntity
  8
HIDDEN
100
AcDbLine
 10
601.2393806186456
 20
453.30463948376257
 30
0.0
 11
609.0971047245811
 21
457.84129861154224
 31
0.0
  0
LINE
  5
18A
330
17
100
AcDbEntity
  8
HIDDEN
100
AcDbLine
 10
601.3949240952322
 20
486.8827314536288
 30
0.0
 11
601.3949240952322
 21
490.16185735341776
 31
0.0
  0
LINE
  5
18B
330
17
100
AcDbEntity
  8
HIDDEN
100
AcDbLine
 10
601.4673091370084
 20
459.3096534569912
 30
0.0
 11
609.097104724581
 21
457.84129861154224
 31
0.0
  0
LINE
  5
18C
330
17
100
AcDbEntity
  8
HIDDEN
100
AcDbLine
 10
612.7167576356037
 20
484.70384357287764
 30
0.0
 11
612.7167576356037
 21
487.9829694726667
 31
0.0
  0
LINE
  5
18D
330
17
100
AcDbEntity
  8
HIDDEN
100
AcDbLine
 10
612.7167576356036
 20
484.70384357287764
 30
0.0
 11
624.4309587527307
 21
482.4494445167727
 31
0.0
  0
LINE
  5
18E
330
17
100
AcDbEntity
  8
HIDDEN
100
AcDbLine
 10
612.7167576356037
 20
487.9829694726666
 30
0.0
 11
624.4309587527307
 21
485.72857041656175
 31
0.0
  0
LINE
  5
18F
330
17
100
AcDbEntity
  8
HIDDEN
100
AcDbLine
 10
624.4309587527307
 20
482.4494445167727
 30
0.0
 11
624.4309587527307
 21
485.72857041656175
 31
0.0
  0
LINE
  5
190
330
17
100
AcDbEntity
  8
VISIBLE
100
AcDbLine
 10
626.8449212138091
 20
448.37685089864135
 30
0.0
 11
646.3685897423542
 21
444.61951913846644
 31
0.0
  0
LINE
  5
191
330
17
100
AcDbEntity
  8
HIDDEN
100
AcDbLine
 10
635.7527922931021
 20
480.2705566360215
 30
0.0
 11
635.7527922931021
 21
483.54968253581046
 31
0.0
  0
LINE
  5
192
330
17
100
AcDbEntity
  8
HIDDEN
100
AcDbLine
 10
635.7527922931021
 20
480.2705566360215
 30
0.0
 11
647.4669934102291
 21
478.0161575799167
 31
0.0
  0
LINE
  5
193
330
17
100
AcDbEntity
  8
HIDDEN
100
AcDbLine
 10
635.7527922931021
 20
483.54968253581046
 30
0.0
 11
647.4669934102292
 21
481.29528347970563
 31
0.0
  0
LINE
  5
194
330
17
100
AcDbEntity
  8
VISIBLE
100
AcDbLine
 10
638.5108656364187
 20
355.8306190662071
 30
0.0
 11
638.5108656364187
 21
449.1561782662461
 31
0.0
  0
LINE
  5
195
330
17
100
AcDbEntity
  8
VISIBLE
100
AcDbLine
 10
638.5108656364187
 20
355.8306190662071
 30
0.0
 11
646.3685897423542
 21
351.2939599384274
 31
0.0
  0
LINE
  5
196
330
17
100
AcDbEntity
  8
HIDDEN
100
AcDbLine
 10
638.5108656364187
 20
355.8306190662071
 30
0.0
 11
646.3685897423542
 21
360.36727819398675
 31
0.0
  0
LINE
  5
197
330
17
100
AcDbEntity
  8
VISIBLE
100
AcDbLine
 10
638.5108656364187
 20
361.0153723550981
 30
0.0
 11
638.5108656364187
 21
370.90330250227464
 31
0.0
  0
LINE
  5
198
330
17
100
AcDbEntity
  8
HIDDEN
100
AcDbLine
 10
638.5108656364187
 20
361.0153723550981
 30
0.0
 11
646.3685897423542
 21
365.5520314828778
 31
0.0
  0
LINE
  5
199
330
17
100
AcDbEntity
  8
HIDDEN
100
AcDbLine
 10
638.5108656364187
 20
370.90330250227464
 30
0.0
 11
646.3685897423543
 21
375.4399616300543
 31
0.0
  0
LINE
  5
19A
330
17
100
AcDbEntity
  8
VISIBLE
100
AcDbLine
 10
638.5108656364187
 20
449.15617826624623
 30
0.0
 11
646.3685897423542
 21
444.61951913846656
 31
0.0
  0
LINE
  5
19B
330
17
100
AcDbEntity
  8
HIDDEN
100
AcDbLine
 10
638.5108656364187
 20
449.15617826624623
 30
0.0
 11
646.3685897423542
 21
453.6928373940259
 31
0.0
  0
LINE
  5
19C
330
17
100
AcDbEntity
  8
VISIBLE
100
AcDbLine
 10
646.3685897423542
 20
351.2939599384274
 30
0.0
 11
646.3685897423542
 21
444.61951913846644
 31
0.0
  0
LINE
  5
19D
330
17
100
AcDbEntity
  8
VISIBLE
100
AcDbLine
 10
646.3685897423542
 20
351.2939599384274
 30
0.0
 11
654.2263138482897
 21
355.8306190662071
 31
0.0
  0
LINE
  5
19E
330
17
100
AcDbEntity
  8
HIDDEN
100
AcDbLine
 10
646.3685897423542
 20
360.36727819398675
 30
0.0
 11
654.2263138482897
 21
355.8306190662071
 31
0.0
  0
LINE
  5
19F
330
17
100
AcDbEntity
  8
VISIBLE
100
AcDbLine
 10
646.3685897423542
 20
444.61951913846656
 30
0.0
 11
646.3685897423542
 21
459.64884617916584
 31
0.0
  0
LINE
  5
1A0
330
17
100
AcDbEntity
  8
VISIBLE
100
AcDbLine
 10
646.3685897423542
 20
444.61951913846644
 30
0.0
 11
654.2263138482897
 21
449.1561782662461
 31
0.0
  0
LINE
  5
1A1
330
17
100
AcDbEntity
  8
HIDDEN
100
AcDbLine
 10
646.3685897423542
 20
453.6928373940259
 30
0.0
 11
654.2263138482897
 21
449.15617826624623
 31
0.0
  0
LINE
  5
1A2
330
17
100
AcDbEntity
  8
VISIBLE
100
AcDbLine
 10
646.3685897423542
 20
459.64884617916584
 30
0.0
 11
654.2263138482897
 21
464.1855053069455
 31
0.0
  0
LINE
  5
1A3
330
17
100
AcDbEntity
  8
HIDDEN
100
AcDbLine
 10
647.4669934102291
 20
478.0161575799167
 30
0.0
 11
647.4669934102291
 21
481.29528347970563
 31
0.0
  0
LINE
  5
1A4
330
17
100
AcDbEntity
  8
HIDDEN
100
AcDbLine
 10
649.5875002124658
 20
481.9802337219387
 30
0.0
 11
669.9614562871415
 21
478.0592640472148
 31
0.0
  0
LINE
  5
1A5
330
17
100
AcDbEntity
  8
VISIBLE
100
AcDbLine
 10
654.2263138482897
 20
355.8306190662071
 30
0.0
 11
654.2263138482897
 21
449.15617826624623
 31
0.0
  0
LINE
  5
1A6
330
17
100
AcDbEntity
  8
VISIBLE
100
AcDbLine
 10
654.2263138482897
 20
449.15617826624623
 30
0.0
 11
654.2263138482897
 21
464.1855053069455
 31
0.0
  0
LINE
  5
1A7
330
17
100
AcDbEntity
  8
HIDDEN
100
AcDbLine
 10
658.7888269506005
 20
475.8372696991654
 30
0.0
 11
658.7888269506005
 21
479.11639559895434
 31
0.0
  0
LINE
  5
1A8
330
17
100
AcDbEntity
  8
HIDDEN
100
AcDbLine
 10
658.7888269506005
 20
475.8372696991655
 30
0.0
 11
670.5030280677275
 21
473.5828706430606
 31
0.0
  0
LINE
  5
1A9
330
17
100
AcDbEntity
  8
HIDDEN
100
AcDbLine
 10
658.7888269506005
 20
479.11639559895434
 30
0.0
 11
670.5030280677275
 21
476.8619965428495
 31
0.0
  0
LINE
  5
1AA
330
17
100
AcDbEntity
  8
HIDDEN
100
AcDbLine
 10
658.7888269506005
 20
480.75595854884887
 30
0.0
 11
658.7888269506005
 21
480.88557738107113
 31
0.0
  0
LINE
  5
1AB
330
17
100
AcDbEntity
  8
HIDDEN
100
AcDbLine
 10
658.7888269506005
 20
480.75595854884887
 30
0.0
 11
670.5030280677275
 21
478.5015594927439
 31
0.0
  0
LINE
  5
1AC
330
17
100
AcDbEntity
  8
HIDDEN
100
AcDbLine
 10
658.7888269506005
 20
480.88557738107113
 30
0.0
 11
670.5030280677275
 21
478.6311783249663
 31
0.0
  0
LINE
  5
1AD
330
17
100
AcDbEntity
  8
VISIBLE
100
AcDbLine
 10
669.9614562871415
 20
478.0592640472148
 30
0.0
 11
670.5030280677275
 21
477.9550385094458
 31
0.0
  0
LINE
  5
1AE
330
17
100
AcDbEntity
  8
VISIBLE
100
AcDbLine
 10
670.5030280677275
 20
473.5828706430606
 30
0.0
 11
670.5030280677275
 21
476.8619965428495
 31
0.0
  0
LINE
  5
1AF
330
17
100
AcDbEntity
  8
VISIBLE
100
AcDbLine
 10
670.5030280677275
 20
476.8619965428495
 30
0.0
 11
670.5030280677275
 21
477.9550385094458
 31
0.0
  0
LINE
  5
1B0
330
17
100
AcDbEntity
  8
HIDDEN
100
AcDbLine
 10
670.5030280677275
 20
478.5015594927439
 30
0.0
 11
670.615281269241
 21
478.43675007663285
 31
0.0
  0
LINE
  5
1B1
330
17
100
AcDbEntity
  8
HIDDEN
100
AcDbLine
 10
670.5030280677275
 20
478.6311783249662
 30
0.0
 11
670.5030280677275
 21
494.0558193594171
 31
0.0
  0
LINE
  5
1B2
330
17
100
AcDbEntity
  8
VISIBLE
100
AcDbLine
 10
670.5030280677275
 20
494.0558193594171
 30
0.0
 11
670.615281269241
 21
493.99100994330604
 31
0.0
  0
LINE
  5
1B3
330
17
100
AcDbEntity
  8
VISIBLE
100
AcDbLine
 10
670.615281269241
 20
478.43675007663285
 30
0.0
 11
670.615281269241
 21
493.99100994330604
 31
0.0
  0
LWPOLYLINE
  5
1B4
330
17
100
AcDbEntity
  8
VISIBLE
100
AcDbPolyline
 90
33
 70
0
 10
517.2774080019851
 20
291.0212029550688
 10
515.0461266620528
 20
293.4028399993384
 10
512.8476541877894
 20
295.8508217211107
 10
510.6844347237445
 20
298.36242658475
 10
508.55887322204956
 20
300.9348623218017
 10
506.47333276871996
 20
303.56526903528754
 10
504.4301319565021
 20
306.2507223791865
 10
502.43154230718557
 20
308.9882368095674
 10
500.4797857462461
 20
311.77476890375704
 10
498.5770321326273
 20
314.60722074385546
 10
496.72539684640725
 20
317.4824433608362
 10
494.9269384370313
 20
320.39724023540214
 10
493.1836563347268
 20
323.3483708517052
 10
491.49748862764295
 20
326.3325542999794
 10
489.8703099071879
 20
329.34647292408147
 10
488.3039291839575
 20
332.386776009884
 10
486.8000878765742
 20
335.450083510421
 10
485.3604578756701
 20
338.532989803644
 10
483.9866396851684
 20
341.63206747861125
 10
482.68016064292857
 20
344.74387114590036
 10
481.44247322273293
 20
347.8649412680088
 10
480.2749534195041
 20
350.99180800548334
 10
479.17889921954725
 20
354.12099507450284
 10
478.1555291575178
 20
357.2490236116249
 10
477.20598096171955
 20
360.3724160414014
 10
476.3313102892394
 20
363.4876999425611
 10
475.5324895523234
 20
366.5914119084631
 10
474.8104068373011
 20
369.6801013975272
 10
474.16586491725843
 20
372.75033456936256
 10
473.5995803595571
 20
375.79869810232856
 10
473.1121827291934
 20
378.8218029882835
 10
472.7042138888816
 20
381.8162883003034
 10
472.3761273966394
 20
384.7788249291822
  0
LWPOLYLINE
  5
1B5
330
17
100
AcDbEntity
  8
VISIBLE
100
AcDbPolyline
 90
33
 70
0
 10
517.2774080019851
 20
300.9091331022453
 10
515.376134658553
 20
303.0688066032166
 10
513.5058240038115
 20
305.281543487584
 10
511.6684605368854
 20
307.5449959237725
 10
509.8659937981798
 20
309.8567622683081
 10
508.10033630081443
 20
312.2143896140892
 10
506.37336150134536
 20
314.61537639305163
 10
504.68690181192795
 20
317.0571750304656
 10
503.0427466560298
 20
319.5371946480475
 10
501.44264056975754
 20
322.0528038130203
 10
499.8882813508109
 20
324.6013333302035
 10
498.3813182570293
 20
327.1800790741709
 10
496.92335025644144
 20
329.78630485847225
 10
495.51592433067486
 20
332.4172453388719
 10
494.1605338335266
 20
335.0701089475268
 10
492.858616906435
 20
337.74208085498833
 10
491.61155495253513
 20
340.4303259568858
 10
490.42067117091693
 20
343.13199188212366
 10
489.28722915263995
 20
345.84421201939836
 10
488.21243153999654
 20
348.564108558826
 10
487.1974187504441
 20
351.2887955454514
 10
486.2432677665617
 20
354.01538194140005
 10
485.35099099331387
 20
356.74097469342325
 10
484.52153518383545
 20
359.46268180258096
 10
483.75578043487604
 20
362.1776153928074
 10
483.05453925297036
 20
364.8828947751007
 10
482.41855569232575
 20
367.57564950408704
 10
481.84850456534093
 20
370.2530224237165
 10
481.3449907265944
 20
372.91217269885726
 10
480.90854843106115
 20
375.550278829573
 10
480.5396407672401
 20
378.1645416448842
 10
480.2386591657922
 20
380.7521872728379
 10
480.00592298421196
 20
383.3104700837332
  0
LWPOLYLINE
  5
1B6
330
17
100
AcDbEntity
  8
HIDDEN
100
AcDbPolyline
 90
33
 70
0
 10
525.1351321079206
 20
295.5578620828485
 10
522.9038507679883
 20
297.9394991271181
 10
520.705378293725
 20
300.3874808488904
 10
518.54215882968
 20
302.89908571252965
 10
516.4165973279851
 20
305.47152144958136
 10
514.3310568746555
 20
308.1019281630672
 10
512.2878560624376
 20
310.7873815069662
 10
510.2892664131211
 20
313.5248959373471
 10
508.3375098521816
 20
316.3114280315367
 10
506.43475623856284
 20
319.14387987163514
 10
504.58312095234277
 20
322.0191024886159
 10
502.78466254296677
 20
324.9338993631818
 10
501.0413804406623
 20
327.8850299794849
 10
499.35521273357847
 20
330.86921342775906
 10
497.7280340131234
 20
333.88313205186114
 10
496.161653289893
 20
336.92343513766366
 10
494.65781198250966
 20
339.98674263820067
 10
493.2181819816056
 20
343.06964893142367
 10
491.84436379110394
 20
346.1687266063909
 10
490.5378847488641
 20
349.28053027368003
 10
489.3001973286684
 20
352.4016003957885
 10
488.1326775254396
 20
355.528467133263
 10
487.03662332548276
 20
358.6576542022825
 10
486.0132532634533
 20
361.7856827394046
 10
485.06370506765506
 20
364.90907516918105
 10
484.18903439517493
 20
368.0243590703408
 10
483.3902136582589
 20
371.1280710362428
 10
482.66813094323663
 20
374.2167605253069
 10
482.0235890231939
 20
377.28699369714224
 10
481.45730446549254
 20
380.33535723010823
 10
480.96990683512894
 20
383.35846211606315
 10
480.56193799481713
 20
386.3529474280831
 10
480.23385150257485
 20
389.31548405696185
  0
LWPOLYLINE
  5
1B7
330
17
100
AcDbEntity
  8
HIDDEN
100
AcDbPolyline
 90
33
 70
0
 10
488.5353491964945
 20
381.6689812438351
 10
488.5084437375959
 20
381.8644634795036
 10
488.48191846302575
 20
382.0598014567944
 10
488.45577353058474
 20
382.2549940136279
 10
488.430009095811
 20
382.45003998878985
 10
488.4046253119789
 20
382.6449382219379
 10
488.37962233009847
 20
382.8396875536084
 10
488.3550002989142
 20
383.03428682522406
 10
488.3307593649042
 20
383.2287348790999
 10
488.30689967227966
 20
383.42303055845065
 10
488.2834213629835
 20
383.6171727073975
 10
488.2603245766898
 20
383.8111601709751
 10
488.23760945080306
 20
384.00499179513815
 10
488.21527612045713
 20
384.1986664267688
 10
488.19332471851465
 20
384.39218291368263
 10
488.17175537556597
 20
384.58554010463655
 10
488.1505682199287
 20
384.7787368493349
 10
488.12976337764667
 20
384.97177199843645
 10
488.10934097248946
 20
385.1646444035614
 10
488.0893011259513
 20
385.3573529172982
 10
488.0696439572508
 20
385.54989639321025
 10
488.05036958332965
 20
385.74227368584275
 10
488.03147811885265
 20
385.93448365072936
 10
488.01296967620635
 20
386.12652514439964
 10
487.99484436549886
 20
386.3183970243849
 10
487.9771022945589
 20
386.51009814922594
 10
487.9597435689354
 20
386.701627378479
 10
487.94276829189647
 20
386.89298357272304
 10
487.92617656442934
 20
387.0841655935667
 10
487.9099684852394
 20
387.2751723036545
 10
487.89414415074964
 20
387.4660025666738
 10
487.8787036551001
 20
387.6566552473621
 10
487.8636470901475
 20
387.8471292115129
  0
LWPOLYLINE
  5
1B8
330
17
100
AcDbEntity
  8
VISIBLE
100
AcDbPolyline
 90
33
 70
0
 10
517.2774080019851
 20
314.98043773343556
 10
515.8828855881438
 20
316.85356140530007
 10
514.5126959808122
 20
318.753835312732
 10
513.1677518182632
 20
320.6799937457241
 10
511.8489489236094
 20
322.6307537534375
 10
510.55716570812297
 20
324.6048159987323
 10
509.2932625861563
 20
326.6008656236143
 10
508.0580814020472
 20
328.6175731250181
 10
506.85244486939473
 20
330.6535952403455
 10
505.6771560230763
 20
332.70757584216875
 10
504.5329976843728
 20
334.77814684150223
 10
503.42073193955673
 20
336.8639290990419
 10
502.34109963229207
 20
338.9635333437642
 10
501.2948198701821
 20
341.0755610982743
 10
500.28258954579593
 20
343.19860561028565
 10
499.3050828724909
 20
345.33125278961165
 10
498.36295093534153
 20
347.4720821500443
 10
497.4568212574729
 20
349.61966775549377
 10
496.5872973820882
 20
351.7725791697576
 10
495.75495847046847
 20
353.92938240928675
 10
494.9603589162123
 20
356.0886408983156
 10
494.20402797597234
 20
358.24891642571714
 10
493.4864694169351
 20
360.4087701029489
 10
492.80816118127797
 20
362.56676332244865
 10
492.1695550678277
 20
364.72145871584416
 10
491.5710764311318
 20
366.87142111133653
 10
491.0131238981445
 20
369.0152184896216
 10
490.4960691027138
 20
371.1514229377102
 10
490.02025643804865
 20
373.27861160001464
 10
489.58600282732976
 20
375.3953676260661
 10
489.1935975126179
 20
377.5002811142315
 10
488.84330186219876
 20
379.59195005080346
 10
488.5353491964945
 20
381.6689812438351
  0
LWPOLYLINE
  5
1B9
330
17
100
AcDbEntity
  8
HIDDEN
100
AcDbPolyline
 90
33
 70
0
 10
525.1351321079206
 20
305.44579223002495
 10
524.8808620416713
 20
305.7295370414423
 10
524.6271075378646
 20
306.0142533937528
 10
524.3738733479306
 20
306.2999359557805
 10
524.1211642135571
 20
306.5865793782576
 10
523.8689848666005
 20
306.87417829392484
 10
523.6173400289969
 20
307.16272731763155
 10
523.3662344126741
 20
307.4522210464369
 10
523.1156727194633
 20
307.74265405971084
 10
522.8656596410111
 20
308.03402091923584
 10
522.6161998586914
 20
308.32631616930837
 10
522.3672980435178
 20
308.6195343368412
 10
522.1189588560565
 20
308.91366993146613
 10
521.8711869463385
 20
309.20871744563647
 10
521.623986953773
 20
309.50467135473014
 10
521.3773635070603
 20
309.80152611715346
 10
521.131321224105
 20
310.09927617444475
 10
520.8858647119299
 20
310.3979159513781
 10
520.6409985665895
 20
310.6974398560682
 10
520.3967273730836
 20
310.9978422800748
 10
520.1530557052725
 20
311.299117598508
 10
519.90998812579
 20
311.6012601701332
 10
519.6675291859591
 20
311.9042643374768
 10
519.425683425706
 20
312.2081244269325
 10
519.1844553734757
 20
312.51283474886714
 10
518.9438495461466
 20
312.8183895977273
 10
518.7038704489464
 20
313.12478325214624
 10
518.4645225753677
 20
313.4320099750512
 10
518.2258104070836
 20
313.7400640137703
 10
517.987738413864
 20
314.04893960014067
 10
517.7503110534917
 20
314.35863095061654
 10
517.5135327716791
 20
314.6691322663771
 10
517.2774080019851
 20
314.98043773343556
  0
LWPOLYLINE
  5
1BA
330
17
100
AcDbEntity
  8
HIDDEN
100
AcDbPolyline
 90
33
 70
0
 10
598.0426626959634
 20
431.7478591900938
 10
597.8371823898793
 20
432.48344174534145
 10
597.6359156971535
 20
433.21844078953563
 10
597.4388750977909
 20
433.95281074736647
 10
597.2460728097482
 20
434.686506082532
 10
597.0575207881756
 20
435.419481300562
 10
596.8732307246759
 20
436.15169095163844
 10
596.6932140465791
 20
436.8830896334142
 10
596.5174819162345
 20
437.61363199382845
 10
596.3460452303176
 20
438.34327273391807
 10
596.1789146191554
 20
439.0719666106272
 10
596.0161004460666
 20
439.79966843961245
 10
595.8576128067194
 20
440.5263330980448
 10
595.7034615285053
 20
441.2519155274068
 10
595.5536561699292
 20
441.9763707362879
 10
595.4082060200179
 20
442.69965380317285
 10
595.2671200977433
 20
443.421719879228
 10
595.1304071514629
 20
444.1425241910821
 10
594.9980756583784
 20
444.8620220436021
 10
594.8701338240088
 20
445.58016882266554
 10
594.7465895816825
 20
446.296919997926
 10
594.6274505920451
 20
447.0122311255749
 10
594.5127242425841
 20
447.7260578510969
 10
594.4024176471714
 20
448.4383559120206
 10
594.2965376456216
 20
449.14908114066293
 10
594.1950908032682
 20
449.858189466868
 10
594.0980834105565
 20
450.5656369207394
 10
594.0055214826535
 20
451.27137963536734
 10
593.917410759075
 20
451.9753738495481
 10
593.8337567033294
 20
452.6775759104976
 10
593.7545645025792
 20
453.37794227655866
 10
593.6798390673194
 20
454.07642951990044
 10
593.6095850310729
 20
454.77299432921143
  0
LWPOLYLINE
  5
1BB
330
17
100
AcDbEntity
  8
VISIBLE
100
AcDbPolyline
 90
33
 70
0
 10
638.5108656364187
 20
361.0153723550982
 10
636.8036478767003
 20
362.8284873745172
 10
635.1152334750884
 20
364.680681959235
 10
633.4467176750879
 20
366.57075462454065
 10
631.7991828123459
 20
368.49747931490583
 10
630.1736976125591
 20
370.45960619930474
 10
628.5713164982117
 20
372.45586248195684
 10
626.993078904591
 20
374.48495322796555
 10
625.4400086055243
 20
376.54556220331926
 10
623.9131130492759
 20
378.6363527287082
 10
622.4133827050335
 20
380.75596854660364
 10
620.9417904204096
 20
382.90303470103765
 10
619.499290790372
 20
385.07615842951134
 10
618.086819538017
 20
387.2739300664549
 10
616.7052929075817
 20
389.4949239576515
 10
615.3556070700936
 20
391.73769938503347
 10
614.0386375420409
 20
394.00080150124904
 10
612.7552386174409
 20
396.282762273396
 10
611.5062428136755
 20
398.5821014353071
 10
610.2924603314518
 20
400.89732744777194
 10
609.1146785292398
 20
403.22693846607126
 10
607.973661412528
 20
405.56942331419555
 10
606.8701491382266
 20
407.9232624651181
 10
605.8048575345408
 20
410.28692902648345
 10
604.7784776366274
 20
412.6588897310752
 10
603.7916752383315
 20
415.03760593141794
 10
602.8450904602994
 20
417.42153459787016
 10
601.9393373347433
 20
419.8091293195587
 10
601.0750034071301
 20
422.1988413075077
 10
600.2526493550517
 20
424.5891203993092
 10
599.4728086245233
 20
426.9784160646858
 10
598.7359870839468
 20
429.36517841129046
 10
598.0426626959634
 20
431.7478591900938
  0
LWPOLYLINE
  5
1BC
330
17
100
AcDbEntity
  8
HIDDEN
100
AcDbPolyline
 90
33
 70
0
 10
604.1853678007964
 20
435.29435163592154
 10
604.0459720853698
 20
435.87109801665883
 10
603.9095746120723
 20
436.4472229425162
 10
603.7761820041866
 20
437.02269843762303
 10
603.6458007390823
 20
437.59749655764404
 10
603.5184371479031
 20
438.1715893911361
 10
603.3940974152576
 20
438.7449490609042
 10
603.2727875789204
 20
439.31754772535476
 10
603.154513529538
 20
439.88935757984757
 10
603.0392810103432
 20
440.4603508580458
 10
602.9270956168758
 20
441.0304998332649
 10
602.8179627967115
 20
441.5997768198182
 10
602.7118878491971
 20
442.1681541743619
 10
602.6088759251926
 20
442.73560429723705
 10
602.5089320268222
 20
443.3020996338097
 10
602.4120610072304
 20
443.86761267580937
 10
602.318267570347
 20
444.4321159626644
 10
602.2275562706582
 20
444.9955820828353
 10
602.1399315129856
 20
445.5579836751465
 10
602.0553975522729
 20
446.119293430114
 10
601.9739584933781
 20
446.67948409127223
 10
601.8956182908751
 20
447.23852845649753
 10
601.8203807488615
 20
447.7963993793285
 10
601.7482495207736
 20
448.3530697702847
 10
601.6792281092092
 20
448.90851259818214
 10
601.6133198657577
 20
449.4627008914455
 10
601.5505279908368
 20
450.0156077394179
 10
601.4908555335377
 20
450.56720629366794
 10
601.4343053914765
 20
451.1174697692933
 10
601.3808803106542
 20
451.6663714462212
 10
601.3305828853225
 20
452.2138846705061
 10
601.2834155578585
 20
452.7599828556238
 10
601.2393806186456
 20
453.30463948376257
  0
LWPOLYLINE
  5
1BD
330
17
100
AcDbEntity
  8
HIDDEN
100
AcDbPolyline
 90
33
 70
0
 10
646.3685897423542
 20
365.55203148287785
 10
644.1373084024219
 20
367.93366852714735
 10
641.9388359281585
 20
370.38165024891964
 10
639.7756164641136
 20
372.893255112559
 10
637.6500549624186
 20
375.4656908496107
 10
635.564514509089
 20
378.09609756309646
 10
633.5213136968712
 20
380.7815509069955
 10
631.5227240475547
 20
383.51906533737645
 10
629.5709674866151
 20
386.305597431566
 10
627.6682138729964
 20
389.13804927166444
 10
625.8165785867764
 20
392.0132718886452
 10
624.0181201774003
 20
394.9280687632111
 10
622.2748380750959
 20
397.87919937951415
 10
620.5886703680121
 20
400.8633828277884
 10
618.961491647557
 20
403.8773014518905
 10
617.3951109243266
 20
406.9176045376929
 10
615.8912696169432
 20
409.9809120382299
 10
614.4516396160392
 20
413.0638183314529
 10
613.0778214255375
 20
416.16289600642017
 10
611.7713423832977
 20
419.2746996737093
 10
610.533654963102
 20
422.3957697958177
 10
609.3661351598732
 20
425.52263653329237
 10
608.2700809599163
 20
428.65182360231177
 10
607.2467108978868
 20
431.77985213943384
 10
606.2971627020887
 20
434.9032445692104
 10
605.4224920296085
 20
438.01852847037014
 10
604.6236712926925
 20
441.122240436272
 10
603.9015885776702
 20
444.21092992533613
 10
603.2570466576275
 20
447.28116309717154
 10
602.6907620999261
 20
450.3295266301375
 10
602.2033644695625
 20
453.3526315160924
 10
601.7953956292507
 20
456.34711682811246
 10
601.4673091370084
 20
459.3096534569911
  0
LWPOLYLINE
  5
1BE
330
17
100
AcDbEntity
  8
VISIBLE
100
AcDbPolyline
 90
33
 70
0
 10
638.5108656364187
 20
370.90330250227464
 10
637.0137730258906
 20
372.59644345685626
 10
635.5355486858904
 20
374.32268063025253
 10
634.0771618496663
 20
376.08088217365173
 10
632.6395687435311
 20
377.8698952800362
 10
631.2237119598897
 20
379.6885469400481
 10
629.8305198392057
 20
381.53564471110093
 10
628.4609058613131
 20
383.4099774992329
 10
627.1157680464705
 20
385.31031635319005
 10
625.7959883665535
 20
387.2354152702177
 10
624.5024321667678
 20
389.1840120130317
 10
623.2359475982656
 20
391.1548289374347
 10
621.9973650620348
 20
393.1465738300345
 10
620.787496664426
 20
395.15794075551435
 10
619.6071356846766
 20
397.18761091290105
 10
618.4570560547772
 20
399.2342535002682
 10
617.3380118520254
 20
401.2965265873088
 10
616.250736804596
 20
403.3730779952035
 10
615.1959438104558
 20
405.4625461832097
 10
614.1743244699333
 20
407.5635611413877
 10
613.1865486322558
 20
409.67474528888135
 10
612.2332639563459
 20
411.7947143771612
 10
611.315095486169
 20
413.9220783976408
 10
610.4326452409072
 20
416.05544249306934
 10
609.586491820232
 20
418.1934078721023
 10
608.7771900249314
 20
420.33457272645376
 10
608.0052704931408
 20
422.47753315002467
 10
607.2712393524179
 20
424.62088405940824
 10
606.5755778878881
 20
426.76322011516606
 10
605.9187422266781
 20
428.903136643273
 10
605.3011630388453
 20
431.0392305561252
 10
604.7232452549987
 20
433.1701012725082
 10
604.1853678007964
 20
435.29435163592154
  0
LWPOLYLINE
  5
1BF
330
17
100
AcDbEntity
  8
HIDDEN
100
AcDbPolyline
 90
33
 70
0
 10
612.0430919067319
 20
439.8310107637012
 10
611.9036961913052
 20
440.4077571444385
 10
611.7672987180079
 20
440.98388207029586
 10
611.6339061101221
 20
441.5593575654027
 10
611.5035248450179
 20
442.1341556854237
 10
611.3761612538385
 20
442.70824851891575
 10
611.2518215211932
 20
443.2816081886839
 10
611.130511684856
 20
443.85420685313443
 10
611.0122376354735
 20
444.42601670762724
 10
610.8970051162787
 20
444.99700998582546
 10
610.7848197228113
 20
445.5671589610446
 10
610.675686902647
 20
446.1364359475979
 10
610.5696119551326
 20
446.7048133021416
 10
610.4666000311281
 20
447.2722634250167
 10
610.3666561327577
 20
447.83875876158936
 10
610.2697851131659
 20
448.40427180358904
 10
610.1759916762825
 20
448.96877509044407
 10
610.0852803765937
 20
449.532241210615
 10
609.9976556189212
 20
450.09464280292616
 10
609.9131216582084
 20
450.65595255789367
 10
609.8316825993136
 20
451.2161432190519
 10
609.7533423968106
 20
451.7751875842772
 10
609.678104854797
 20
452.33305850710815
 10
609.6059736267091
 20
452.8897288980644
 10
609.5369522151448
 20
453.4451717259618
 10
609.4710439716932
 20
453.99936001922515
 10
609.4082520967723
 20
454.55226686719755
 10
609.3485796394732
 20
455.1038654214476
 10
609.292029497412
 20
455.65412889707295
 10
609.2386044165897
 20
456.2030305740009
 10
609.188306991258
 20
456.7505437982858
 10
609.1411396637939
 20
457.29664198340345
 10
609.0971047245811
 20
457.84129861154224
  0
LWPOLYLINE
  5
1C0
330
17
100
AcDbEntity
  8
VISIBLE
100
AcDbPolyline
 90
33
 70
0
 10
638.5108656364187
 20
384.9746071334648
 10
637.3593405694751
 20
386.5170071599787
 10
636.2242474159477
 20
388.07801423075375
 10
635.1061001530429
 20
389.6569215121252
 10
634.005405084763
 20
391.25301406510243
 10
632.9226606126484
 20
392.86556916909717
 10
631.8583570100986
 20
394.4938566491762
 10
630.8129762003731
 20
396.13713920668914
 10
629.7869915383736
 20
397.79467275312163
 10
628.7808675963063
 20
399.46570674702326
 10
627.7950599533201
 20
401.14948453385756
 10
626.8300149892183
 20
402.8452436886197
 10
625.8861696823344
 20
404.55221636106717
 10
624.963951411666
 20
406.26962962340735
 10
624.0637777633549
 20
407.996705820284
 10
623.1860563416012
 20
409.73266292090386
 10
622.3311845840981
 20
411.4767148731462
 10
621.4995495820691
 20
413.22807195949065
 10
620.6915279049913
 20
414.9859411546073
 10
619.9074854300818
 20
416.749526484443
 10
619.1477771766266
 20
418.5180293866433
 10
618.4127471452259
 20
420.29064907214683
 10
617.7027281620276
 20
422.0665828877869
 10
617.0180417280227
 20
423.84502667973845
 10
616.3589978734668
 20
425.6251751576433
 10
615.7258950174969
 20
427.4062222592514
 10
615.1190198330052
 20
429.18736151540986
 10
614.538647116832
 20
430.9677864152379
 10
613.9850396653358
 20
432.74669077131955
 10
613.4584481553975
 20
434.5232690847506
 10
612.9591110309126
 20
436.29671690987334
 10
612.4872543948222
 20
438.0662312185344
 10
612.0430919067319
 20
439.8310107637012
  0
LWPOLYLINE
  5
1C1
330
17
100
AcDbEntity
  8
HIDDEN
100
AcDbPolyline
 90
33
 70
0
 10
646.3685897423543
 20
375.4399616300543
 10
646.114319676105
 20
375.7237064414717
 10
645.8605651722982
 20
376.00842279378213
 10
645.6073309823641
 20
376.29410535580985
 10
645.3546218479908
 20
376.580748778287
 10
645.102442501034
 20
376.8683476939542
 10
644.8507976634304
 20
377.15689671766086
 10
644.5996920471076
 20
377.44639044646624
 10
644.349130353897
 20
377.7368234597402
 10
644.0991172754448
 20
378.02819031926515
 10
643.8496574931249
 20
378.3204855693376
 10
643.6007556779514
 20
378.61370373687055
 10
643.35241649049
 20
378.90783933149544
 10
643.1046445807721
 20
379.2028868456657
 10
642.8574445882066
 20
379.49884075475944
 10
642.6108211414938
 20
379.7956955171828
 10
642.3647788585386
 20
380.093445574474
 10
642.1193223463636
 20
380.39208535140733
 10
641.874456201023
 20
380.6916092560974
 10
641.6301850075173
 20
380.99201168010416
 10
641.3865133397061
 20
381.29328699853727
 10
641.1434457602236
 20
381.5954295701624
 10
640.9009868203927
 20
381.89843373750614
 10
640.6591410601396
 20
382.20229382696186
 10
640.4179130079092
 20
382.5070041488964
 10
640.1773071805801
 20
382.8125589977566
 10
639.93732808338
 20
383.1189526521756
 10
639.6979802098012
 20
383.4261793750805
 10
639.4592680415172
 20
383.73423341379953
 10
639.2211960482975
 20
384.04310900017003
 10
638.9837686879252
 20
384.35280035064585
 10
638.7469904061127
 20
384.6633016664064
 10
638.5108656364187
 20
384.9746071334648
  0
TEXT
  5
1C2
330
17
100
AcDbEntity
  8
TITLE
100
AcDbText
 10
546.8
 20
273.29979053839804
 30
0.0
 40
3.4
  1
ISOMETRIC
  7
LOFT_MONO
 72
1
 11
546.8
 21
273.29979053839804
 31
0.0
100
AcDbText
 73
2
  0
LWPOLYLINE
  5
1C3
330
17
100
AcDbEntity
  8
TITLE
100
AcDbPolyline
 90
4
 70
1
 10
735.0
 20
44.0
 10
831.0
 20
44.0
 10
831.0
 20
10.0
 10
735.0
 20
10.0
  0
LINE
  5
1C4
330
17
100
AcDbEntity
  8
TITLE
100
AcDbLine
 10
792.6
 20
44.0
 30
0.0
 11
792.6
 21
10.0
 31
0.0
  0
LINE
  5
1C5
330
17
100
AcDbEntity
  8
TITLE
100
AcDbLine
 10
792.6
 20
27.0
 30
0.0
 11
831.0
 21
27.0
 31
0.0
  0
TEXT
  5
1C6
330
17
100
AcDbEntity
  8
TITLE
100
AcDbText
 10
739.0
 20
36.0
 30
0.0
 40
2.3
  1
TITLE
  7
LOFT_MONO
 11
739.0
 21
36.0
 31
0.0
100
AcDbText
  0
TEXT
  5
1C7
330
17
100
AcDbEntity
  8
TITLE
100
AcDbText
 10
739.0
 20
26.0
 30
0.0
 40
3.4
  1
DOOR CANOPY - GENERAL…
  7
LOFT_MONO
 11
739.0
 21
26.0
 31
0.0
100
AcDbText
  0
TEXT
  5
1C8
330
17
100
AcDbEntity
  8
TITLE
100
AcDbText
 10
739.0
 20
14.0
 30
0.0
 40
2.3
  1
LOFT · PART DRAWING
  7
LOFT_MONO
 11
739.0
 21
14.0
 31
0.0
100
AcDbText
  0
TEXT
  5
1C9
330
17
100
AcDbEntity
  8
TITLE
100
AcDbText
 10
796.6
 20
36.0
 30
0.0
 40
2.3
  1
SCALE
  7
LOFT_MONO
 11
796.6
 21
36.0
 31
0.0
100
AcDbText
  0
TEXT
  5
1CA
330
17
100
AcDbEntity
  8
TITLE
100
AcDbText
 10
796.6
 20
30.0
 30
0.0
 40
3.4
  1
1:8
  7
LOFT_MONO
 11
796.6
 21
30.0
 31
0.0
100
AcDbText
  0
TEXT
  5
1CB
330
17
100
AcDbEntity
  8
TITLE
100
AcDbText
 10
796.6
 20
19.0
 30
0.0
 40
2.3
  1
SIZE
  7
LOFT_MONO
 11
796.6
 21
19.0
 31
0.0
100
AcDbText
  0
TEXT
  5
1CC
330
17
100
AcDbEntity
  8
TITLE
100
AcDbText
 10
796.6
 20
14.0
 30
0.0
 40
3.4
  1
A1
  7
LOFT_MONO
 11
796.6
 21
14.0
 31
0.0
100
AcDbText
  0
TEXT
  5
1CD
330
17
100
AcDbEntity
  8
TITLE
100
AcDbText
 10
739.0
 20
23.5
 30
0.0
 40
2.1
  1
DRAWN
  7
LOFT_MONO
 11
739.0
 21
23.5
 31
0.0
100
AcDbText
  0
TEXT
  5
1CE
330
17
100
AcDbEntity
  8
TITLE
100
AcDbText
 10
753.0
 20
23.5
 30
0.0
 40
2.4
  1
Loft parametric model - d…
  7
LOFT_MONO
 11
753.0
 21
23.5
 31
0.0
100
AcDbText
  0
TEXT
  5
1CF
330
17
100
AcDbEntity
  8
TITLE
100
AcDbText
 10
739.0
 20
20.5
 30
0.0
 40
2.1
  1
DATE
  7
LOFT_MONO
 11
739.0
 21
20.5
 31
0.0
100
AcDbText
  0
TEXT
  5
1D0
330
17
100
AcDbEntity
  8
TITLE
100
AcDbText
 10
753.0
 20
20.5
 30
0.0
 40
2.4
  1
scale 1:8   dimensions in…
  7
LOFT_MONO
 11
753.0
 21
20.5
 31
0.0
100
AcDbText
  0
TEXT
  5
1D1
330
17
100
AcDbEntity
  8
TITLE
100
AcDbText
 10
739.0
 20
17.5
 30
0.0
 40
2.1
  1
NOTES
  7
LOFT_MONO
 11
739.0
 21
17.5
 31
0.0
100
AcDbText
  0
TEXT
  5
1D2
330
17
100
AcDbEntity
  8
TITLE
100
AcDbText
 10
753.0
 20
17.5
 30
0.0
 40
2.4
  1
Cantilevered lean-to cano…
  7
LOFT_MONO
 11
753.0
 21
17.5
 31
0.0
100
AcDbText
  0
ENDSEC
  0
SECTION
  2
OBJECTS
  0
DICTIONARY
  5
A
330
0
100
AcDbDictionary
281
1
  3
ACAD_COLOR
350
B
  3
ACAD_GROUP
350
C
  3
ACAD_LAYOUT
350
D
  3
ACAD_MATERIAL
350
E
  3
ACAD_MLEADERSTYLE
350
F
  3
ACAD_MLINESTYLE
350
10
  3
ACAD_PLOTSETTINGS
350
11
  3
ACAD_PLOTSTYLENAME
350
12
  3
ACAD_SCALELIST
350
14
  3
ACAD_TABLESTYLE
350
15
  3
ACAD_VISUALSTYLE
350
16
  3
EZDXF_META
350
2D
  0
DICTIONARY
  5
B
330
A
100
AcDbDictionary
281
1
  0
DICTIONARY
  5
C
330
A
100
AcDbDictionary
281
1
  0
DICTIONARY
  5
D
330
A
100
AcDbDictionary
281
1
  3
Model
350
1A
  3
Layout1
350
1E
  0
DICTIONARY
  5
E
330
A
100
AcDbDictionary
281
1
  3
ByBlock
350
1F
  3
ByLayer
350
20
  3
Global
350
21
  0
DICTIONARY
  5
F
330
A
100
AcDbDictionary
281
1
  3
Standard
350
2C
  0
DICTIONARY
  5
10
330
A
100
AcDbDictionary
281
1
  3
Standard
350
22
  0
DICTIONARY
  5
11
330
A
100
AcDbDictionary
281
1
  0
ACDBDICTIONARYWDFLT
  5
12
330
A
100
AcDbDictionary
281
1
  3
Normal
350
13
100
AcDbDictionaryWithDefault
340
13
  0
ACDBPLACEHOLDER
  5
13
330
12
  0
DICTIONARY
  5
14
330
A
100
AcDbDictionary
281
1
  0
DICTIONARY
  5
15
330
A
100
AcDbDictionary
281
1
  0
DICTIONARY
  5
16
330
A
100
AcDbDictionary
281
1
  0
LAYOUT
  5
1A
330
D
100
AcDbPlotSettings
  1

  4
A3
  6

 40
7.5
 41
20.0
 42
7.5
 43
20.0
 44
420.0
 45
297.0
 46
0.0
 47
0.0
 48
0.0
 49
0.0
140
0.0
141
0.0
142
1.0
143
1.0
 70
1024
 72
1
 73
0
 74
5
  7

 75
16
 76
0
 77
2
 78
300
147
1.0
148
0.0
149
0.0
100
AcDbLayout
  1
Model
 70
1
 71
0
 10
0.0
 20
0.0
 11
420.0
 21
297.0
 12
0.0
 22
0.0
 32
0.0
 14
1e+20
 24
1e+20
 34
1e+20
 15
-1e+20
 25
-1e+20
 35
-1e+20
146
0.0
 13
0.0
 23
0.0
 33
0.0
 16
1.0
 26
0.0
 36
0.0
 17
0.0
 27
1.0
 37
0.0
 76
1
330
17
  0
LAYOUT
  5
1E
330
D
100
AcDbPlotSettings
  1

  4
A3
  6

 40
7.5
 41
20.0
 42
7.5
 43
20.0
 44
420.0
 45
297.0
 46
0.0
 47
0.0
 48
0.0
 49
0.0
140
0.0
141
0.0
142
1.0
143
1.0
 70
0
 72
1
 73
0
 74
5
  7

 75
16
 76
0
 77
2
 78
300
147
1.0
148
0.0
149
0.0
100
AcDbLayout
  1
Layout1
 70
1
 71
1
 10
0.0
 20
0.0
 11
420.0
 21
297.0
 12
0.0
 22
0.0
 32
0.0
 14
1e+20
 24
1e+20
 34
1e+20
 15
-1e+20
 25
-1e+20
 35
-1e+20
146
0.0
 13
0.0
 23
0.0
 33
0.0
 16
1.0
 26
0.0
 36
0.0
 17
0.0
 27
1.0
 37
0.0
 76
1
330
1B
  0
MATERIAL
  5
1F
102
{ACAD_REACTORS
330
E
102
}
330
E
100
AcDbMaterial
  1
ByBlock
  2

 70
0
 40
1.0
 71
1
 41
1.0
 91
-1023410177
 42
1.0
 72
1
  3

 73
1
 74
1
 75
1
 44
0.5
 73
0
 45
1.0
 46
1.0
 77
1
  4

 78
1
 79
1
170
1
 48
1.0
171
1
  6

172
1
173
1
174
1
140
1.0
141
1.0
175
1
  7

176
1
177
1
178
1
143
1.0
179
1
  8

270
1
271
1
272
1
145
1.0
146
1.0
273
1
  9

274
1
275
1
276
1
 42
1.0
 72
1
  3

 73
1
 74
1
 75
1
 94
63
  0
MATERIAL
  5
20
102
{ACAD_REACTORS
330
E
102
}
330
E
100
AcDbMaterial
  1
ByLayer
  2

 70
0
 40
1.0
 71
1
 41
1.0
 91
-1023410177
 42
1.0
 72
1
  3

 73
1
 74
1
 75
1
 44
0.5
 73
0
 45
1.0
 46
1.0
 77
1
  4

 78
1
 79
1
170
1
 48
1.0
171
1
  6

172
1
173
1
174
1
140
1.0
141
1.0
175
1
  7

176
1
177
1
178
1
143
1.0
179
1
  8

270
1
271
1
272
1
145
1.0
146
1.0
273
1
  9

274
1
275
1
276
1
 42
1.0
 72
1
  3

 73
1
 74
1
 75
1
 94
63
  0
MATERIAL
  5
21
102
{ACAD_REACTORS
330
E
102
}
330
E
100
AcDbMaterial
  1
Global
  2

 70
0
 40
1.0
 71
1
 41
1.0
 91
-1023410177
 42
1.0
 72
1
  3

 73
1
 74
1
 75
1
 44
0.5
 73
0
 45
1.0
 46
1.0
 77
1
  4

 78
1
 79
1
170
1
 48
1.0
171
1
  6

172
1
173
1
174
1
140
1.0
141
1.0
175
1
  7

176
1
177
1
178
1
143
1.0
179
1
  8

270
1
271
1
272
1
145
1.0
146
1.0
273
1
  9

274
1
275
1
276
1
 42
1.0
 72
1
  3

 73
1
 74
1
 75
1
 94
63
  0
MLINESTYLE
  5
22
102
{ACAD_REACTORS
330
10
102
}
330
10
100
AcDbMlineStyle
  2
Standard
 70
0
  3

 62
256
 51
90.0
 52
90.0
 71
2
 49
0.5
 62
256
  6
BYLAYER
 49
-0.5
 62
256
  6
BYLAYER
  0
MLEADERSTYLE
  5
2C
102
{ACAD_REACTORS
330
F
102
}
330
F
100
AcDbMLeaderStyle
179
2
170
2
171
1
172
0
 90
2
 40
0.0
 41
0.0
173
1
 91
-1056964608
 92
-2
290
1
 42
2.0
291
1
 43
8.0
  3
Standard
 44
4.0
300

342
29
174
1
175
1
176
0
178
1
 93
-1056964608
 45
4.0
292
0
297
0
 46
4.0
 94
-1056964608
 47
1.0
 49
1.0
140
1.0
294
1
141
0.0
177
0
142
1.0
295
0
296
0
143
3.75
271
0
272
9
273
9
  0
DICTIONARY
  5
2D
330
A
100
AcDbDictionary
280
1
281
1
  3
CREATED_BY_EZDXF
350
2E
  3
WRITTEN_BY_EZDXF
350
1D5
  0
DICTIONARYVAR
  5
2E
330
2D
100
DictionaryVariables
280
0
  1
0.0 @ 2000-01-01T00:00:00.000000+00:00
  0
DICTIONARYVAR
  5
1D5
330
2D
100
DictionaryVariables
280
0
  1
0.0 @ 2000-01-01T00:00:00.000000+00:00
  0
ENDSEC
  0
EOF
