  0
SECTION
  2
HEADER
  9
$ACADVER
  1
AC1015
  9
$ACADMAINTVER
 70
6
  9
$DWGCODEPAGE
  3
ANSI_1252
  9
$INSBASE
 10
0.0
 20
0.0
 30
0.0
  9
$EXTMIN
 10
1e+20
 20
1e+20
 30
1e+20
  9
$EXTMAX
 10
-1e+20
 20
-1e+20
 30
-1e+20
  9
$LIMMIN
 10
0.0
 20
0.0
  9
$LIMMAX
 10
420.0
 20
297.0
  9
$ORTHOMODE
 70
0
  9
$REGENMODE
 70
1
  9
$FILLMODE
 70
1
  9
$QTEXTMODE
 70
0
  9
$MIRRTEXT
 70
1
  9
$LTSCALE
 40
1.0
  9
$ATTMODE
 70
1
  9
$TEXTSIZE
 40
2.5
  9
$TRACEWID
 40
1.0
  9
$TEXTSTYLE
  7
Standard
  9
$CLAYER
  8
0
  9
$CELTYPE
  6
ByLayer
  9
$CECOLOR
 62
256
  9
$CELTSCALE
 40
1.0
  9
$DISPSILH
 70
0
  9
$DIMSCALE
 40
1.0
  9
$DIMASZ
 40
2.5
  9
$DIMEXO
 40
0.625
  9
$DIMDLI
 40
3.75
  9
$DIMRND
 40
0.0
  9
$DIMDLE
 40
0.0
  9
$DIMEXE
 40
1.25
  9
$DIMTP
 40
0.0
  9
$DIMTM
 40
0.0
  9
$DIMTXT
 40
2.5
  9
$DIMCEN
 40
2.5
  9
$DIMTSZ
 40
0.0
  9
$DIMTOL
 70
0
  9
$DIMLIM
 70
0
  9
$DIMTIH
 70
0
  9
$DIMTOH
 70
0
  9
$DIMSE1
 70
0
  9
$DIMSE2
 70
0
  9
$DIMTAD
 70
1
  9
$DIMZIN
 70
8
  9
$DIMBLK
  1

  9
$DIMASO
 70
1
  9
$DIMSHO
 70
1
  9
$DIMPOST
  1

  9
$DIMAPOST
  1

  9
$DIMALT
 70
0
  9
$DIMALTD
 70
3
  9
$DIMALTF
 40
0.03937007874
  9
$DIMLFAC
 40
1.0
  9
$DIMTOFL
 70
1
  9
$DIMTVP
 40
0.0
  9
$DIMTIX
 70
0
  9
$DIMSOXD
 70
0
  9
$DIMSAH
 70
0
  9
$DIMBLK1
  1

  9
$DIMBLK2
  1

  9
$DIMSTYLE
  2
ISO-25
  9
$DIMCLRD
 70
0
  9
$DIMCLRE
 70
0
  9
$DIMCLRT
 70
0
  9
$DIMTFAC
 40
1.0
  9
$DIMGAP
 40
0.625
  9
$DIMJUST
 70
0
  9
$DIMSD1
 70
0
  9
$DIMSD2
 70
0
  9
$DIMTOLJ
 70
0
  9
$DIMTZIN
 70
8
  9
$DIMALTZ
 70
0
  9
$DIMALTTZ
 70
0
  9
$DIMUPT
 70
0
  9
$DIMDEC
 70
2
  9
$DIMTDEC
 70
2
  9
$DIMALTU
 70
2
  9
$DIMALTTD
 70
3
  9
$DIMTXSTY
  7
Standard
  9
$DIMAUNIT
 70
0
  9
$DIMADEC
 70
0
  9
$DIMALTRND
 40
0.0
  9
$DIMAZIN
 70
0
  9
$DIMDSEP
 70
44
  9
$DIMATFIT
 70
3
  9
$DIMFRAC
 70
0
  9
$DIMLDRBLK
  1

  9
$DIMLUNIT
 70
2
  9
$DIMLWD
 70
-2
  9
$DIMLWE
 70
-2
  9
$DIMTMOVE
 70
0
  9
$LUNITS
 70
2
  9
$LUPREC
 70
4
  9
$SKETCHINC
 40
1.0
  9
$FILLETRAD
 40
10.0
  9
$AUNITS
 70
0
  9
$AUPREC
 70
2
  9
$MENU
  1
.
  9
$ELEVATION
 40
0.0
  9
$PELEVATION
 40
0.0
  9
$THICKNESS
 40
0.0
  9
$LIMCHECK
 70
0
  9
$CHAMFERA
 40
0.0
  9
$CHAMFERB
 40
0.0
  9
$CHAMFERC
 40
0.0
  9
$CHAMFERD
 40
0.0
  9
$SKPOLY
 70
0
  9
$TDCREATE
 40
2451545.0
  9
$TDUCREATE
 40
2451545.0
  9
$TDUPDATE
 40
2451545.0
  9
$TDUUPDATE
 40
2451545.0
  9
$TDINDWG
 40
0.0
  9
$TDUSRTIMER
 40
0.0
  9
$USRTIMER
 70
1
  9
$ANGBASE
 50
0.0
  9
$ANGDIR
 70
0
  9
$PDMODE
 70
0
  9
$PDSIZE
 40
0.0
  9
$PLINEWID
 40
0.0
  9
$SPLFRAME
 70
0
  9
$SPLINETYPE
 70
6
  9
$SPLINESEGS
 70
8
  9
$HANDSEED
  5
1D6
  9
$SURFTAB1
 70
6
  9
$SURFTAB2
 70
6
  9
$SURFTYPE
 70
6
  9
$SURFU
 70
6
  9
$SURFV
 70
6
  9
$UCSBASE
  2

  9
$UCSNAME
  2

  9
$UCSORG
 10
0.0
 20
0.0
 30
0.0
  9
$UCSXDIR
 10
1.0
 20
0.0
 30
0.0
  9
$UCSYDIR
 10
0.0
 20
1.0
 30
0.0
  9
$UCSORTHOREF
  2

  9
$UCSORTHOVIEW
 70
0
  9
$UCSORGTOP
 10
0.0
 20
0.0
 30
0.0
  9
$UCSORGBOTTOM
 10
0.0
 20
0.0
 30
0.0
  9
$UCSORGLEFT
 10
0.0
 20
0.0
 30
0.0
  9
$UCSORGRIGHT
 10
0.0
 20
0.0
 30
0.0
  9
$UCSORGFRONT
 10
0.0
 20
0.0
 30
0.0
  9
$UCSORGBACK
 10
0.0
 20
0.0
 30
0.0
  9
$PUCSBASE
  2

  9
$PUCSNAME
  2

  9
$PUCSORG
 10
0.0
 20
0.0
 30
0.0
  9
$PUCSXDIR
 10
1.0
 20
0.0
 30
0.0
  9
$PUCSYDIR
 10
0.0
 20
1.0
 30
0.0
  9
$PUCSORTHOREF
  2

  9
$PUCSORTHOVIEW
 70
0
  9
$PUCSORGTOP
 10
0.0
 20
0.0
 30
0.0
  9
$PUCSORGBOTTOM
 10
0.0
 20
0.0
 30
0.0
  9
$PUCSORGLEFT
 10
0.0
 20
0.0
 30
0.0
  9
$PUCSORGRIGHT
 10
0.0
 20
0.0
 30
0.0
  9
$PUCSORGFRONT
 10
0.0
 20
0.0
 30
0.0
  9
$PUCSORGBACK
 10
0.0
 20
0.0
 30
0.0
  9
$USERI1
 70
0
  9
$USERI2
 70
0
  9
$USERI3
 70
0
  9
$USERI4
 70
0
  9
$USERI5
 70
0
  9
$USERR1
 40
0.0
  9
$USERR2
 40
0.0
  9
$USERR3
 40
0.0
  9
$USERR4
 40
0.0
  9
$USERR5
 40
0.0
  9
$WORLDVIEW
 70
1
  9
$SHADEDGE
 70
3
  9
$SHADEDIF
 70
70
  9
$TILEMODE
 70
1
  9
$MAXACTVP
 70
64
  9
$PINSBASE
 10
0.0
 20
0.0
 30
0.0
  9
$PLIMCHECK
 70
0
  9
$PEXTMIN
 10
1e+20
 20
1e+20
 30
1e+20
  9
$PEXTMAX
 10
-1e+20
 20
-1e+20
 30
-1e+20
  9
$PLIMMIN
 10
0.0
 20
0.0
  9
$PLIMMAX
 10
420.0
 20
297.0
  9
$UNITMODE
 70
0
  9
$VISRETAIN
 70
1
  9
$PLINEGEN
 70
0
  9
$PSLTSCALE
 70
1
  9
$TREEDEPTH
 70
3020
  9
$CMLSTYLE
  2
Standard
  9
$CMLJUST
 70
0
  9
$CMLSCALE
 40
20.0
  9
$PROXYGRAPHICS
 70
1
  9
$MEASUREMENT
 70
1
  9
$CELWEIGHT
370
-1
  9
$ENDCAPS
280
0
  9
$JOINSTYLE
280
0
  9
$LWDISPLAY
290
0
  9
$INSUNITS
 70
4
  9
$HYPERLINKBASE
  1

  9
$STYLESHEET
  1

  9
$XEDIT
290
1
  9
$CEPSNTYPE
380
0
  9
$PSTYLEMODE
290
1
  9
$FINGERPRINTGUID
  2
{00000000-0000-0000-0000-000000000000}
  9
$VERSIONGUID
  2
{00000000-0000-0000-0000-000000000000}
  9
$EXTNAMES
290
1
  9
$PSVPSCALE
 40
0.0
  9
$OLESTARTUP
290
0
  0
ENDSEC
  0
SECTION
  2
CLASSES
  0
CLASS
  1
ACDBDICTIONARYWDFLT
  2
AcDbDictionaryWithDefault
  3
ObjectDBX Classes
 90
0
280
0
281
0
  0
CLASS
  1
SUN
  2
AcDbSun
  3
SCENEOE
 90
1153
280
0
281
0
  0
CLASS
  1
VISUALSTYLE
  2
AcDbVisualStyle
  3
ObjectDBX Classes
 90
4095
280
0
281
0
  0
CLASS
  1
MATERIAL
  2
AcDbMaterial
  3
ObjectDBX Classes
 90
1153
280
0
281
0
  0
CLASS
  1
SCALE
  2
AcDbScale
  3
ObjectDBX Classes
 90
1153
280
0
281
0
  0
CLASS
  1
TABLESTYLE
  2
AcDbTableStyle
  3
ObjectDBX Classes
 90
4095
280
0
281
0
  0
CLASS
  1
MLEADERSTYLE
  2
AcDbMLeaderStyle
  3
ACDB_MLEADERSTYLE_CLASS
 90
4095
280
0
281
0
  0
CLASS
  1
DICTIONARYVAR
  2
AcDbDictionaryVar
  3
ObjectDBX Classes
 90
0
280
0
281
0
  0
CLASS
  1
CELLSTYLEMAP
  2
AcDbCellStyleMap
  3
ObjectDBX Classes
 90
1152
280
0
281
0
  0
CLASS
  1
MENTALRAYRENDERSETTINGS
  2
AcDbMentalRayRenderSettings
  3
SCENEOE
 90
1024
280
0
281
0
  0
CLASS
  1
ACDBDETAILVIEWSTYLE
  2
AcDbDetailViewStyle
  3
ObjectDBX Classes
 90
1025
280
0
281
0
  0
CLASS
  1
ACDBSECTIONVIEWSTYLE
  2
AcDbSectionViewStyle
  3
ObjectDBX Classes
 90
1025
280
0
281
0
  0
CLASS
  1
RASTERVARIABLES
  2
AcDbRasterVariables
  3
ISM
 90
0
280
0
281
0
  0
CLASS
  1
ACDBPLACEHOLDER
  2
AcDbPlaceHolder
  3
ObjectDBX Classes
 90
0
280
0
281
0
  0
CLASS
  1
LAYOUT
  2
AcDbLayout
  3
ObjectDBX Classes
 90
0
280
0
281
0
  0
ENDSEC
  0
SECTION
  2
TABLES
  0
TABLE
  2
VPORT
  5
8
330
0
100
AcDbSymbolTable
 70
1
  0
VPORT
  5
23
330
8
100
AcDbSymbolTableRecord
100
AcDbViewportTableRecord
  2
*Active
 70
0
 10
0.0
 20
0.0
 11
1.0
 21
1.0
 12
0.0
 22
0.0
 13
0.0
 23
0.0
 14
0.5
 24
0.5
 15
0.5
 25
0.5
 16
0.0
 26
0.0
 36
1.0
 17
0.0
 27
0.0
 37
0.0
 40
1000.0
 41
1.34
 42
50.0
 43
0.0
 44
0.0
 50
0.0
 51
0.0
 71
0
 72
1000
 73
1
 74
3
 75
0
 76
0
 77
0
 78
0
281
0
 65
0
146
0.0
  0
ENDTAB
  0
TABLE
  2
LTYPE
  5
2
330
0
100
AcDbSymbolTable
 70
4
  0
LTYPE
  5
24
330
2
100
AcDbSymbolTableRecord
100
AcDbLinetypeTableRecord
  2
ByBlock
 70
0
  3

 72
65
 73
0
 40
0.0
  0
LTYPE
  5
25
330
2
100
AcDbSymbolTableRecord
100
AcDbLinetypeTableRecord
  2
ByLayer
 70
0
  3

 72
65
 73
0
 40
0.0
  0
LTYPE
  5
26
330
2
100
AcDbSymbolTableRecord
100
AcDbLinetypeTableRecord
  2
Continuous
 70
0
  3

 72
65
 73
0
 40
0.0
  0
LTYPE
  5
2F
330
2
100
AcDbSymbolTableRecord
100
AcDbLinetypeTableRecord
  2
DASHED
 70
0
  3
Loft hidden edge — 2/1.4
 72
65
 73
2
 40
0.0
 49
2.0
 74
0
 49
-1.4
 74
0
  0
ENDTAB
  0
TABLE
  2
LAYER
  5
1
330
0
100
AcDbSymbolTable
 70
6
  0
LAYER
  5
27
330
1
100
AcDbSymbolTableRecord
100
AcDbLayerTableRecord
  2
0
 70
0
 62
7
  6
Continuous
370
-3
390
13
  0
LAYER
  5
28
330
1
100
AcDbSymbolTableRecord
100
AcDbLayerTableRecord
  2
Defpoints
 70
0
 62
7
  6
Continuous
290
0
370
-3
390
13
  0
LAYER
  5
30
330
1
100
AcDbSymbolTableRecord
100
AcDbLayerTableRecord
  2
VISIBLE
 70
0
 62
7
  6
Continuous
370
-3
390
13
  0
LAYER
  5
31
330
1
100
AcDbSymbolTableRecord
100
AcDbLayerTableRecord
  2
HIDDEN
 70
0
 62
8
  6
DASHED
370
-3
390
13
  0
LAYER
  5
32
330
1
100
AcDbSymbolTableRecord
100
AcDbLayerTableRecord
  2
DIMENSION
 70
0
 62
1
  6
Continuous
370
-3
390
13
  0
LAYER
  5
33
330
1
100
AcDbSymbolTableRecord
100
AcDbLayerTableRecord
  2
TITLE
 70
0
 62
5
  6
Continuous
370
-3
390
13
  0
ENDTAB
  0
TABLE
  2
STYLE
  5
5
330
0
100
AcDbSymbolTable
 70
2
  0
STYLE
  5
29
330
5
100
AcDbSymbolTableRecord
100
AcDbTextStyleTableRecord
  2
Standard
 70
0
 40
0.0
 41
1.0
 50
0.0
 71
0
 42
2.5
  3
txt
  4

  0
STYLE
  5
34
330
5
100
AcDbSymbolTableRecord
100
AcDbTextStyleTableRecord
  2
LOFT_MONO
 70
0
 40
0.0
 41
1.0
 50
0.0
 71
0
 42
2.5
  3
cour.ttf
  4

  0
ENDTAB
  0
TABLE
  2
VIEW
  5
7
330
0
100
AcDbSymbolTable
 70
0
  0
ENDTAB
  0
TABLE
  2
UCS
  5
6
330
0
100
AcDbSymbolTable
 70
0
  0
ENDTAB
  0
TABLE
  2
APPID
  5
3
330
0
100
AcDbSymbolTable
 70
3
  0
APPID
  5
2A
330
3
100
AcDbSymbolTableRecord
100
AcDbRegAppTableRecord
  2
ACAD
 70
0
  0
APPID
  5
1D3
330
3
100
AcDbSymbolTableRecord
100
AcDbRegAppTableRecord
  2
HATCHBACKGROUNDCOLOR
 70
0
  0
APPID
  5
1D4
330
3
100
AcDbSymbolTableRecord
100
AcDbRegAppTableRecord
  2
EZDXF
 70
0
  0
ENDTAB
  0
TABLE
  2
DIMSTYLE
  5
4
330
0
100
AcDbSymbolTable
 70
1
100
AcDbDimStyleTable
  0
DIMSTYLE
105
2B
330
4
100
AcDbSymbolTableRecord
100
AcDbDimStyleTableRecord
  2
Standard
 70
0
  3

  4

 40
1.0
 41
2.5
 42
0.625
 43
3.75
 44
1.25
 45
0.0
 46
0.0
 47
0.0
 48
0.0
140
2.5
141
2.5
142
0.0
143
0.03937007874
144
1.0
145
0.0
146
1.0
147
0.625
148
0.0
 71
0
 72
0
 73
0
 74
0
 75
0
 76
0
 77
1
 78
8
 79
3
170
0
171
3
172
1
173
0
174
0
175
0
176
0
177
0
178
0
179
2
271
2
272
2
273
2
274
3
275
0
276
0
277
2
278
44
279
0
280
0
281
0
282
0
283
0
284
8
285
0
286
0
288
0
289
3
371
-2
372
-2
  0
ENDTAB
  0
TABLE
  2
BLOCK_RECORD
  5
9
330
0
100
AcDbSymbolTable
 70
2
  0
BLOCK_RECORD
  5
17
330
9
100
AcDbSymbolTableRecord
100
AcDbBlockTableRecord
  2
*Model_Space
340
1A
  0
BLOCK_RECORD
  5
1B
330
9
100
AcDbSymbolTableRecord
100
AcDbBlockTableRecord
  2
*Paper_Space
340
1E
  0
ENDTAB
  0
ENDSEC
  0
SECTION
  2
BLOCKS
  0
BLOCK
  5
18
330
17
100
AcDbEntity
  8
0
100
AcDbBlockBegin
  2
*Model_Space
 70
0
 10
0.0
 20
0.0
 30
0.0
  3
*Model_Space
  1

  0
ENDBLK
  5
19
330
17
100
AcDbEntity
  8
0
100
AcDbBlockEnd
  0
BLOCK
  5
1C
330
1B
100
AcDbEntity
  8
0
100
AcDbBlockBegin
  2
*Paper_Space
 70
0
 10
0.0
 20
0.0
 30
0.0
  3
*Paper_Space
  1

  0
ENDBLK
  5
1D
330
1B
100
AcDbEntity
  8
0
100
AcDbBlockEnd
  0
ENDSEC
  0
SECTION
  2
ENTITIES
  0
LWPOLYLINE
  5
35
330
17
100
AcDbEntity
  8
TITLE
100
AcDbPolyline
 90
4
 70
1
 10
10.0
 20
584.0
 10
831.0
 20
584.0
 10
831.0
 20
10.0
 10
10.0
 20
10.0
  0
LINE
  5
36
330
17
100
AcDbEntity
  8
VISIBLE
100
AcDbLine
 10
168.34074505057163
 20
172.54356038221385
 30
0.0
 11
168.34074505057163
 21
194.1256515957773
 31
0.0
  0
LINE
  5
37
330
17
100
AcDbEntity
  8
VISIBLE
100
AcDbLine
 10
168.34074505057163
 20
172.54356038221385
 30
0.0
 11
191.35949505057164
 21
172.54356038221385
 31
0.0
  0
LINE
  5
38
330
17
100
AcDbEntity
  8
VISIBLE
100
AcDbLine
 10
168.34074505057163
 20
194.1256515957773
 30
0.0
 11
168.34074505057163
 21
199.64777895984633
 31
0.0
  0
LINE
  5
39
330
17
100
AcDbEntity
  8
VISIBLE
100
AcDbLine
 10
168.34074505057163
 20
194.1256515957773
 30
0.0
 11
191.35949505057164
 21
194.1256515957773
 31
0.0
  0
LINE
  5
3A
330
17
100
AcDbEntity
  8
HIDDEN
100
AcDbLine
 10
168.34074505057163
 20
195.76049422419112
 30
0.0
 11
396.94074505057165
 21
195.76049422419112
 31
0.0
  0
LINE
  5
3B
330
17
100
AcDbEntity
  8
HIDDEN
100
AcDbLine
 10
168.34074505057163
 20
197.09919176699572
 30
0.0
 11
396.94074505057165
 21
197.09919176699572
 31
0.0
  0
LINE
  5
3C
330
17
100
AcDbEntity
  8
HIDDEN
100
AcDbLine
 10
168.34074505057163
 20
198.14174422419114
 30
0.0
 11
396.94074505057165
 21
198.14174422419114
 31
0.0
  0
LINE
  5
3D
330
17
100
AcDbEntity
  8
VISIBLE
100
AcDbLine
 10
168.34074505057163
 20
199.64777895984633
 30
0.0
 11
168.34074505057163
 21
203.66387158826018
 31
0.0
  0
LINE
  5
3E
330
17
100
AcDbEntity
  8
VISIBLE
100
AcDbLine
 10
168.34074505057163
 20
199.64777895984633
 30
0.0
 11
191.35949505057164
 21
199.64777895984633
 31
0.0
  0
LINE
  5
3F
330
17
100
AcDbEntity
  8
VISIBLE
100
AcDbLine
 10
168.34074505057163
 20
203.66387158826018
 30
0.0
 11
168.34074505057163
 21
204.9849424744209
 31
0.0
  0
LINE
  5
40
330
17
100
AcDbEntity
  8
VISIBLE
100
AcDbLine
 10
168.34074505057163
 20
203.66387158826018
 30
0.0
 11
191.35949505057164
 21
203.66387158826018
 31
0.0
  0
LINE
  5
41
330
17
100
AcDbEntity
  8
VISIBLE
100
AcDbLine
 10
168.34074505057163
 20
204.9849424744209
 30
0.0
 11
168.34074505057163
 21
210.50706983848994
 31
0.0
  0
LINE
  5
42
330
17
100
AcDbEntity
  8
VISIBLE
100
AcDbLine
 10
168.34074505057163
 20
204.9849424744209
 30
0.0
 11
191.35949505057164
 21
204.9849424744209
 31
0.0
  0
LINE
  5
43
330
17
100
AcDbEntity
  8
HIDDEN
100
AcDbLine
 10
168.34074505057163
 20
209.0010351028348
 30
0.0
 11
396.94074505057165
 21
209.0010351028348
 31
0.0
  0
LINE
  5
44
330
17
100
AcDbEntity
  8
VISIBLE
100
AcDbLine
 10
168.34074505057163
 20
210.50706983848994
 30
0.0
 11
168.34074505057163
 21
214.52316246690384
 31
0.0
  0
LINE
  5
45
330
17
100
AcDbEntity
  8
VISIBLE
100
AcDbLine
 10
168.34074505057163
 20
210.50706983848994
 30
0.0
 11
191.35949505057164
 21
210.50706983848994
 31
0.0
  0
LINE
  5
46
330
17
100
AcDbEntity
  8
VISIBLE
100
AcDbLine
 10
168.34074505057163
 20
214.52316246690384
 30
0.0
 11
168.34074505057163
 21
215.84423335306457
 31
0.0
  0
LINE
  5
47
330
17
100
AcDbEntity
  8
VISIBLE
100
AcDbLine
 10
168.34074505057163
 20
214.52316246690384
 30
0.0
 11
191.35949505057164
 21
214.52316246690384
 31
0.0
  0
LINE
  5
48
330
17
100
AcDbEntity
  8
VISIBLE
100
AcDbLine
 10
168.34074505057163
 20
215.84423335306457
 30
0.0
 11
168.34074505057163
 21
221.3663607171336
 31
0.0
  0
LINE
  5
49
330
17
100
AcDbEntity
  8
VISIBLE
100
AcDbLine
 10
168.34074505057163
 20
215.84423335306457
 30
0.0
 11
191.35949505057164
 21
215.84423335306457
 31
0.0
  0
LINE
  5
4A
330
17
100
AcDbEntity
  8
HIDDEN
100
AcDbLine
 10
168.34074505057163
 20
219.8603259814784
 30
0.0
 11
396.94074505057165
 21
219.8603259814784
 31
0.0
  0
LINE
  5
4B
330
17
100
AcDbEntity
  8
VISIBLE
100
AcDbLine
 10
168.34074505057163
 20
221.3663607171336
 30
0.0
 11
168.34074505057163
 21
225.38245334554745
 31
0.0
  0
LINE
  5
4C
330
17
100
AcDbEntity
  8
VISIBLE
100
AcDbLine
 10
168.34074505057163
 20
221.3663607171336
 30
0.0
 11
191.35949505057164
 21
221.3663607171336
 31
0.0
  0
LINE
  5
4D
330
17
100
AcDbEntity
  8
VISIBLE
100
AcDbLine
 10
168.34074505057163
 20
225.38245334554745
 30
0.0
 11
168.34074505057163
 21
226.70352423170823
 31
0.0
  0
LINE
  5
4E
330
17
100
AcDbEntity
  8
VISIBLE
100
AcDbLine
 10
168.34074505057163
 20
225.38245334554745
 30
0.0
 11
191.35949505057164
 21
225.38245334554745
 31
0.0
  0
LINE
  5
4F
330
17
100
AcDbEntity
  8
VISIBLE
100
AcDbLine
 10
168.34074505057163
 20
226.70352423170823
 30
0.0
 11
168.34074505057163
 21
232.22565159577726
 31
0.0
  0
LINE
  5
50
330
17
100
AcDbEntity
  8
VISIBLE
100
AcDbLine
 10
168.34074505057163
 20
226.70352423170823
 30
0.0
 11
191.35949505057164
 21
226.70352423170823
 31
0.0
  0
LINE
  5
51
330
17
100
AcDbEntity
  8
HIDDEN
100
AcDbLine
 10
168.34074505057163
 20
230.71961686012207
 30
0.0
 11
396.94074505057165
 21
230.71961686012207
 31
0.0
  0
LINE
  5
52
330
17
100
AcDbEntity
  8
VISIBLE
100
AcDbLine
 10
168.34074505057163
 20
232.22565159577726
 30
0.0
 11
168.34074505057163
 21
236.2417442241911
 31
0.0
  0
LINE
  5
53
330
17
100
AcDbEntity
  8
VISIBLE
100
AcDbLine
 10
168.34074505057163
 20
232.22565159577726
 30
0.0
 11
396.94074505057165
 21
232.22565159577726
 31
0.0
  0
LINE
  5
54
330
17
100
AcDbEntity
  8
HIDDEN
100
AcDbLine
 10
168.34074505057163
 20
232.727663174329
 30
0.0
 11
396.94074505057165
 21
232.727663174329
 31
0.0
  0
LINE
  5
55
330
17
100
AcDbEntity
  8
HIDDEN
100
AcDbLine
 10
168.34074505057163
 20
232.886413174329
 30
0.0
 11
396.94074505057165
 21
232.886413174329
 31
0.0
  0
LINE
  5
56
330
17
100
AcDbEntity
  8
VISIBLE
100
AcDbLine
 10
168.34074505057163
 20
236.2417442241911
 30
0.0
 11
168.34074505057163
 21
237.5804417669957
 31
0.0
  0
LINE
  5
57
330
17
100
AcDbEntity
  8
VISIBLE
100
AcDbLine
 10
168.34074505057163
 20
236.2417442241911
 30
0.0
 11
396.94074505057165
 21
236.2417442241911
 31
0.0
  0
LINE
  5
58
330
17
100
AcDbEntity
  8
VISIBLE
100
AcDbLine
 10
168.34074505057163
 20
237.5804417669957
 30
0.0
 11
168.34074505057163
 21
238.24979053839803
 31
0.0
  0
LINE
  5
59
330
17
100
AcDbEntity
  8
VISIBLE
100
AcDbLine
 10
168.34074505057163
 20
237.5804417669957
 30
0.0
 11
396.94074505057165
 21
237.5804417669957
 31
0.0
  0
LINE
  5
5A
330
17
100
AcDbEntity
  8
VISIBLE
100
AcDbLine
 10
168.34074505057163
 20
238.24979053839803
 30
0.0
 11
168.34074505057163
 21
257.29979053839804
 31
0.0
  0
LINE
  5
5B
330
17
100
AcDbEntity
  8
VISIBLE
100
AcDbLine
 10
168.34074505057163
 20
238.24979053839803
 30
0.0
 11
396.94074505057165
 21
238.24979053839803
 31
0.0
  0
LINE
  5
5C
330
17
100
AcDbEntity
  8
HIDDEN
100
AcDbLine
 10
168.34074505057163
 20
238.40854053839803
 30
0.0
 11
396.94074505057165
 21
238.40854053839803
 31
0.0
  0
LINE
  5
5D
330
17
100
AcDbEntity
  8
VISIBLE
100
AcDbLine
 10
168.34074505057163
 20
257.29979053839804
 30
0.0
 11
396.94074505057165
 21
257.29979053839804
 31
0.0
  0
LINE
  5
5E
330
17
100
AcDbEntity
  8
VISIBLE
100
AcDbLine
 10
191.35949505057164
 20
99.51856038221388
 30
0.0
 11
191.35949505057164
 21
213.81856038221383
 31
0.0
  0
LINE
  5
5F
330
17
100
AcDbEntity
  8
VISIBLE
100
AcDbLine
 10
191.35949505057164
 20
99.51856038221388
 30
0.0
 11
202.47199505057165
 21
99.51856038221388
 31
0.0
  0
LINE
  5
60
330
17
100
AcDbEntity
  8
HIDDEN
100
AcDbLine
 10
191.35949505057164
 20
105.86856038221384
 30
0.0
 11
202.47199505057165
 21
105.86856038221384
 31
0.0
  0
LINE
  5
61
330
17
100
AcDbEntity
  8
HIDDEN
100
AcDbLine
 10
191.35949505057164
 20
117.97875211864653
 30
0.0
 11
202.47199505057165
 21
117.97875211864653
 31
0.0
  0
LINE
  5
62
330
17
100
AcDbEntity
  8
HIDDEN
100
AcDbLine
 10
191.35949505057164
 20
172.54356038221385
 30
0.0
 11
202.47199505057165
 21
172.54356038221385
 31
0.0
  0
LINE
  5
63
330
17
100
AcDbEntity
  8
HIDDEN
100
AcDbLine
 10
191.35949505057164
 20
175.71856038221387
 30
0.0
 11
202.47199505057165
 21
175.71856038221387
 31
0.0
  0
LINE
  5
64
330
17
100
AcDbEntity
  8
HIDDEN
100
AcDbLine
 10
191.35949505057164
 20
188.9477270488805
 30
0.0
 11
202.47199505057165
 21
188.9477270488805
 31
0.0
  0
LINE
  5
65
330
17
100
AcDbEntity
  8
HIDDEN
100
AcDbLine
 10
191.35949505057164
 20
192.54444718157373
 30
0.0
 11
202.47199505057165
 21
192.54444718157373
 31
0.0
  0
LINE
  5
66
330
17
100
AcDbEntity
  8
HIDDEN
100
AcDbLine
 10
191.35949505057164
 20
194.1256515957773
 30
0.0
 11
202.47199505057165
 21
194.1256515957773
 31
0.0
  0
LINE
  5
67
330
17
100
AcDbEntity
  8
HIDDEN
100
AcDbLine
 10
191.35949505057164
 20
199.64777895984633
 30
0.0
 11
202.47199505057165
 21
199.64777895984633
 31
0.0
  0
LINE
  5
68
330
17
100
AcDbEntity
  8
HIDDEN
100
AcDbLine
 10
191.35949505057164
 20
203.66387158826018
 30
0.0
 11
202.47199505057165
 21
203.66387158826018
 31
0.0
  0
LINE
  5
69
330
17
100
AcDbEntity
  8
HIDDEN
100
AcDbLine
 10
191.35949505057164
 20
204.9849424744209
 30
0.0
 11
202.47199505057165
 21
204.9849424744209
 31
0.0
  0
LINE
  5
6A
330
17
100
AcDbEntity
  8
HIDDEN
100
AcDbLine
 10
191.35949505057164
 20
210.50706983848994
 30
0.0
 11
202.47199505057165
 21
210.50706983848994
 31
0.0
  0
LINE
  5
6B
330
17
100
AcDbEntity
  8
VISIBLE
100
AcDbLine
 10
191.35949505057164
 20
213.81856038221383
 30
0.0
 11
191.35949505057164
 21
232.22565159577726
 31
0.0
  0
LINE
  5
6C
330
17
100
AcDbEntity
  8
VISIBLE
100
AcDbLine
 10
191.35949505057164
 20
213.81856038221383
 30
0.0
 11
202.47199505057165
 21
213.81856038221383
 31
0.0
  0
LINE
  5
6D
330
17
100
AcDbEntity
  8
HIDDEN
100
AcDbLine
 10
191.35949505057164
 20
214.52316246690384
 30
0.0
 11
202.47199505057165
 21
214.52316246690384
 31
0.0
  0
LINE
  5
6E
330
17
100
AcDbEntity
  8
HIDDEN
100
AcDbLine
 10
191.35949505057164
 20
215.84423335306457
 30
0.0
 11
202.47199505057165
 21
215.84423335306457
 31
0.0
  0
LINE
  5
6F
330
17
100
AcDbEntity
  8
HIDDEN
100
AcDbLine
 10
191.35949505057164
 20
221.3663607171336
 30
0.0
 11
202.47199505057165
 21
221.3663607171336
 31
0.0
  0
LINE
  5
70
330
17
100
AcDbEntity
  8
HIDDEN
100
AcDbLine
 10
191.35949505057164
 20
225.38245334554745
 30
0.0
 11
202.47199505057165
 21
225.38245334554745
 31
0.0
  0
LINE
  5
71
330
17
100
AcDbEntity
  8
HIDDEN
100
AcDbLine
 10
191.35949505057164
 20
226.70352423170823
 30
0.0
 11
202.47199505057165
 21
226.70352423170823
 31
0.0
  0
LINE
  5
72
330
17
100
AcDbEntity
  8
VISIBLE
100
AcDbLine
 10
191.35949505057164
 20
232.22565159577726
 30
0.0
 11
202.47199505057165
 21
232.22565159577726
 31
0.0
  0
LINE
  5
73
330
17
100
AcDbEntity
  8
VISIBLE
100
AcDbLine
 10
202.47199505057165
 20
99.51856038221388
 30
0.0
 11
202.47199505057165
 21
213.81856038221383
 31
0.0
  0
LINE
  5
74
330
17
100
AcDbEntity
  8
VISIBLE
100
AcDbLine
 10
202.47199505057165
 20
172.54356038221385
 30
0.0
 11
362.8094950505716
 21
172.54356038221385
 31
0.0
  0
LINE
  5
75
330
17
100
AcDbEntity
  8
VISIBLE
100
AcDbLine
 10
202.47199505057165
 20
194.1256515957773
 30
0.0
 11
362.8094950505716
 21
194.1256515957773
 31
0.0
  0
LINE
  5
76
330
17
100
AcDbEntity
  8
VISIBLE
100
AcDbLine
 10
202.47199505057165
 20
199.64777895984633
 30
0.0
 11
362.8094950505716
 21
199.64777895984633
 31
0.0
  0
LINE
  5
77
330
17
100
AcDbEntity
  8
VISIBLE
100
AcDbLine
 10
202.47199505057165
 20
203.66387158826018
 30
0.0
 11
362.8094950505716
 21
203.66387158826018
 31
0.0
  0
LINE
  5
78
330
17
100
AcDbEntity
  8
VISIBLE
100
AcDbLine
 10
202.47199505057165
 20
204.9849424744209
 30
0.0
 11
362.8094950505716
 21
204.9849424744209
 31
0.0
  0
LINE
  5
79
330
17
100
AcDbEntity
  8
VISIBLE
100
AcDbLine
 10
202.47199505057165
 20
210.50706983848994
 30
0.0
 11
362.8094950505716
 21
210.50706983848994
 31
0.0
  0
LINE
  5
7A
330
17
100
AcDbEntity
  8
VISIBLE
100
AcDbLine
 10
202.47199505057165
 20
213.81856038221383
 30
0.0
 11
202.47199505057165
 21
232.22565159577726
 31
0.0
  0
LINE
  5
7B
330
17
100
AcDbEntity
  8
VISIBLE
100
AcDbLine
 10
202.47199505057165
 20
214.52316246690384
 30
0.0
 11
362.8094950505716
 21
214.52316246690384
 31
0.0
  0
LINE
  5
7C
330
17
100
AcDbEntity
  8
VISIBLE
100
AcDbLine
 10
202.47199505057165
 20
215.84423335306457
 30
0.0
 11
362.8094950505716
 21
215.84423335306457
 31
0.0
  0
LINE
  5
7D
330
17
100
AcDbEntity
  8
VISIBLE
100
AcDbLine
 10
202.47199505057165
 20
221.3663607171336
 30
0.0
 11
362.8094950505716
 21
221.3663607171336
 31
0.0
  0
LINE
  5
7E
330
17
100
AcDbEntity
  8
VISIBLE
100
AcDbLine
 10
202.47199505057165
 20
225.38245334554745
 30
0.0
 11
362.8094950505716
 21
225.38245334554745
 31
0.0
  0
LINE
  5
7F
330
17
100
AcDbEntity
  8
VISIBLE
100
AcDbLine
 10
202.47199505057165
 20
226.70352423170823
 30
0.0
 11
362.8094950505716
 21
226.70352423170823
 31
0.0
  0
LINE
  5
80
330
17
100
AcDbEntity
  8
VISIBLE
100
AcDbLine
 10
362.8094950505716
 20
99.51856038221388
 30
0.0
 11
362.8094950505716
 21
213.81856038221383
 31
0.0
  0
LINE
  5
81
330
17
100
AcDbEntity
  8
VISIBLE
100
AcDbLine
 10
362.8094950505716
 20
99.51856038221388
 30
0.0
 11
373.92199505057164
 21
99.51856038221388
 31
0.0
  0
LINE
  5
82
330
17
100
AcDbEntity
  8
HIDDEN
100
AcDbLine
 10
362.8094950505716
 20
105.86856038221384
 30
0.0
 11
373.92199505057164
 21
105.86856038221384
 31
0.0
  0
LINE
  5
83
330
17
100
AcDbEntity
  8
HIDDEN
100
AcDbLine
 10
362.8094950505716
 20
117.97875211864653
 30
0.0
 11
373.92199505057164
 21
117.97875211864653
 31
0.0
  0
LINE
  5
84
330
17
100
AcDbEntity
  8
HIDDEN
100
AcDbLine
 10
362.8094950505716
 20
172.54356038221385
 30
0.0
 11
373.92199505057164
 21
172.54356038221385
 31
0.0
  0
LINE
  5
85
330
17
100
AcDbEntity
  8
HIDDEN
100
AcDbLine
 10
362.8094950505716
 20
175.71856038221387
 30
0.0
 11
373.92199505057164
 21
175.71856038221387
 31
0.0
  0
LINE
  5
86
330
17
100
AcDbEntity
  8
HIDDEN
100
AcDbLine
 10
362.8094950505716
 20
188.9477270488805
 30
0.0
 11
373.92199505057164
 21
188.9477270488805
 31
0.0
  0
LINE
  5
87
330
17
100
AcDbEntity
  8
HIDDEN
100
AcDbLine
 10
362.8094950505716
 20
192.54444718157373
 30
0.0
 11
373.92199505057164
 21
192.54444718157373
 31
0.0
  0
LINE
  5
88
330
17
100
AcDbEntity
  8
HIDDEN
100
AcDbLine
 10
362.8094950505716
 20
194.1256515957773
 30
0.0
 11
373.92199505057164
 21
194.1256515957773
 31
0.0
  0
LINE
  5
89
330
17
100
AcDbEntity
  8
HIDDEN
100
AcDbLine
 10
362.8094950505716
 20
199.64777895984633
 30
0.0
 11
373.92199505057164
 21
199.64777895984633
 31
0.0
  0
LINE
  5
8A
330
17
100
AcDbEntity
  8
HIDDEN
100
AcDbLine
 10
362.8094950505716
 20
203.66387158826018
 30
0.0
 11
373.92199505057164
 21
203.66387158826018
 31
0.0
  0
LINE
  5
8B
330
17
100
AcDbEntity
  8
HIDDEN
100
AcDbLine
 10
362.8094950505716
 20
204.9849424744209
 30
0.0
 11
373.92199505057164
 21
204.9849424744209
 31
0.0
  0
LINE
  5
8C
330
17
100
AcDbEntity
  8
HIDDEN
100
AcDbLine
 10
362.8094950505716
 20
210.50706983848994
 30
0.0
 11
373.92199505057164
 21
210.50706983848994
 31
0.0
  0
LINE
  5
8D
330
17
100
AcDbEntity
  8
VISIBLE
100
AcDbLine
 10
362.8094950505716
 20
213.81856038221383
 30
0.0
 11
362.8094950505716
 21
232.22565159577726
 31
0.0
  0
LINE
  5
8E
330
17
100
AcDbEntity
  8
VISIBLE
100
AcDbLine
 10
362.8094950505716
 20
213.81856038221383
 30
0.0
 11
373.92199505057164
 21
213.81856038221383
 31
0.0
  0
LINE
  5
8F
330
17
100
AcDbEntity
  8
HIDDEN
100
AcDbLine
 10
362.8094950505716
 20
214.52316246690384
 30
0.0
 11
373.92199505057164
 21
214.52316246690384
 31
0.0
  0
LINE
  5
90
330
17
100
AcDbEntity
  8
HIDDEN
100
AcDbLine
 10
362.8094950505716
 20
215.84423335306457
 30
0.0
 11
373.92199505057164
 21
215.84423335306457
 31
0.0
  0
LINE
  5
91
330
17
100
AcDbEntity
  8
HIDDEN
100
AcDbLine
 10
362.8094950505716
 20
221.3663607171336
 30
0.0
 11
373.92199505057164
 21
221.3663607171336
 31
0.0
  0
LINE
  5
92
330
17
100
AcDbEntity
  8
HIDDEN
100
AcDbLine
 10
362.8094950505716
 20
225.38245334554745
 30
0.0
 11
373.92199505057164
 21
225.38245334554745
 31
0.0
  0
LINE
  5
93
330
17
100
AcDbEntity
  8
HIDDEN
100
AcDbLine
 10
362.8094950505716
 20
226.70352423170823
 30
0.0
 11
373.92199505057164
 21
226.70352423170823
 31
0.0
  0
LINE
  5
94
330
17
100
AcDbEntity
  8
VISIBLE
100
AcDbLine
 10
362.8094950505716
 20
232.22565159577726
 30
0.0
 11
373.92199505057164
 21
232.22565159577726
 31
0.0
  0
LINE
  5
95
330
17
100
AcDbEntity
  8
VISIBLE
100
AcDbLine
 10
373.92199505057164
 20
99.51856038221388
 30
0.0
 11
373.92199505057164
 21
213.81856038221383
 31
0.0
  0
LINE
  5
96
330
17
100
AcDbEntity
  8
VISIBLE
100
AcDbLine
 10
373.92199505057164
 20
172.54356038221385
 30
0.0
 11
396.94074505057165
 21
172.54356038221385
 31
0.0
  0
LINE
  5
97
330
17
100
AcDbEntity
  8
VISIBLE
100
AcDbLine
 10
373.92199505057164
 20
194.1256515957773
 30
0.0
 11
396.94074505057165
 21
194.1256515957773
 31
0.0
  0
LINE
  5
98
330
17
100
AcDbEntity
  8
VISIBLE
100
AcDbLine
 10
373.92199505057164
 20
199.64777895984633
 30
0.0
 11
396.94074505057165
 21
199.64777895984633
 31
0.0
  0
LINE
  5
99
330
17
100
AcDbEntity
  8
VISIBLE
100
AcDbLine
 10
373.92199505057164
 20
203.66387158826018
 30
0.0
 11
396.94074505057165
 21
203.66387158826018
 31
0.0
  0
LINE
  5
9A
330
17
100
AcDbEntity
  8
VISIBLE
100
AcDbLine
 10
373.92199505057164
 20
204.9849424744209
 30
0.0
 11
396.94074505057165
 21
204.9849424744209
 31
0.0
  0
LINE
  5
9B
330
17
100
AcDbEntity
  8
VISIBLE
100
AcDbLine
 10
373.92199505057164
 20
210.50706983848994
 30
0.0
 11
396.94074505057165
 21
210.50706983848994
 31
0.0
  0
LINE
  5
9C
330
17
100
AcDbEntity
  8
VISIBLE
100
AcDbLine
 10
373.92199505057164
 20
213.81856038221383
 30
0.0
 11
373.92199505057164
 21
232.22565159577726
 31
0.0
  0
LINE
  5
9D
330
17
100
AcDbEntity
  8
VISIBLE
100
AcDbLine
 10
373.92199505057164
 20
214.52316246690384
 30
0.0
 11
396.94074505057165
 21
214.52316246690384
 31
0.0
  0
LINE
  5
9E
330
17
100
AcDbEntity
  8
VISIBLE
100
AcDbLine
 10
373.92199505057164
 20
215.84423335306457
 30
0.0
 11
396.94074505057165
 21
215.84423335306457
 31
0.0
  0
LINE
  5
9F
330
17
100
AcDbEntity
  8
VISIBLE
100
AcDbLine
 10
373.92199505057164
 20
221.3663607171336
 30
0.0
 11
396.94074505057165
 21
221.3663607171336
 31
0.0
  0
LINE
  5
A0
330
17
100
AcDbEntity
  8
VISIBLE
100
AcDbLine
 10
373.92199505057164
 20
225.38245334554745
 30
0.0
 11
396.94074505057165
 21
225.38245334554745
 31
0.0
  0
LINE
  5
A1
330
17
100
AcDbEntity
  8
VISIBLE
100
AcDbLine
 10
373.92199505057164
 20
226.70352423170823
 30
0.0
 11
396.94074505057165
 21
226.70352423170823
 31
0.0
  0
LINE
  5
A2
330
17
100
AcDbEntity
  8
VISIBLE
100
AcDbLine
 10
396.94074505057165
 20
172.54356038221385
 30
0.0
 11
396.94074505057165
 21
194.1256515957773
 31
0.0
  0
LINE
  5
A3
330
17
100
AcDbEntity
  8
VISIBLE
100
AcDbLine
 10
396.94074505057165
 20
194.1256515957773
 30
0.0
 11
396.94074505057165
 21
199.64777895984633
 31
0.0
  0
LINE
  5
A4
330
17
100
AcDbEntity
  8
VISIBLE
100
AcDbLine
 10
396.94074505057165
 20
199.64777895984633
 30
0.0
 11
396.94074505057165
 21
203.66387158826018
 31
0.0
  0
LINE
  5
A5
330
17
100
AcDbEntity
  8
VISIBLE
100
AcDbLine
 10
396.94074505057165
 20
203.66387158826018
 30
0.0
 11
396.94074505057165
 21
204.9849424744209
 31
0.0
  0
LINE
  5
A6
330
17
100
AcDbEntity
  8
VISIBLE
100
AcDbLine
 10
396.94074505057165
 20
204.9849424744209
 30
0.0
 11
396.94074505057165
 21
210.50706983848994
 31
0.0
  0
LINE
  5
A7
330
17
100
AcDbEntity
  8
VISIBLE
100
AcDbLine
 10
396.94074505057165
 20
210.50706983848994
 30
0.0
 11
396.94074505057165
 21
214.52316246690384
 31
0.0
  0
LINE
  5
A8
330
17
100
AcDbEntity
  8
VISIBLE
100
AcDbLine
 10
396.94074505057165
 20
214.52316246690384
 30
0.0
 11
396.94074505057165
 21
215.84423335306457
 31
0.0
  0
LINE
  5
A9
330
17
100
AcDbEntity
  8
VISIBLE
100
AcDbLine
 10
396.94074505057165
 20
215.84423335306457
 30
0.0
 11
396.94074505057165
 21
221.3663607171336
 31
0.0
  0
LINE
  5
AA
330
17
100
AcDbEntity
  8
VISIBLE
100
AcDbLine
 10
396.94074505057165
 20
221.3663607171336
 30
0.0
 11
396.94074505057165
 21
225.38245334554745
 31
0.0
  0
LINE
  5
AB
330
17
100
AcDbEntity
  8
VISIBLE
100
AcDbLine
 10
396.94074505057165
 20
225.38245334554745
 30
0.0
 11
396.94074505057165
 21
226.70352423170823
 31
0.0
  0
LINE
  5
AC
330
17
100
AcDbEntity
  8
VISIBLE
100
AcDbLine
 10
396.94074505057165
 20
226.70352423170823
 30
0.0
 11
396.94074505057165
 21
232.22565159577726
 31
0.0
  0
LINE
  5
AD
330
17
100
AcDbEntity
  8
VISIBLE
100
AcDbLine
 10
396.94074505057165
 20
232.22565159577726
 30
0.0
 11
396.94074505057165
 21
236.2417442241911
 31
0.0
  0
LINE
  5
AE
330
17
100
AcDbEntity
  8
VISIBLE
100
AcDbLine
 10
396.94074505057165
 20
236.2417442241911
 30
0.0
 11
396.94074505057165
 21
237.5804417669957
 31
0.0
  0
LINE
  5
AF
330
17
100
AcDbEntity
  8
VISIBLE
100
AcDbLine
 10
396.94074505057165
 20
237.5804417669957
 30
0.0
 11
396.94074505057165
 21
238.24979053839803
 31
0.0
  0
LINE
  5
B0
330
17
100
AcDbEntity
  8
VISIBLE
100
AcDbLine
 10
396.94074505057165
 20
238.24979053839803
 30
0.0
 11
396.94074505057165
 21
257.29979053839804
 31
0.0
  0
LWPOLYLINE
  5
B1
330
17
100
AcDbEntity
  8
HIDDEN
100
AcDbPolyline
 90
33
 70
0
 10
191.35949505057164
 20
105.86856038221384
 10
191.35949505057164
 20
107.27475640228556
 10
191.35949505057164
 20
108.68095242235722
 10
191.35949505057164
 20
110.25421793657051
 10
191.35949505057164
 20
111.89431124844054
 10
191.35949505057164
 20
113.63056521058547
 10
191.35949505057164
 20
115.49503337309727
 10
191.35949505057164
 20
117.39000863289164
 10
191.35949505057164
 20
119.46802647638117
 10
191.35949505057164
 20
121.5460443198707
 10
191.35949505057164
 20
123.79676327833192
 10
191.35949505057164
 20
126.07626575595498
 10
191.35949505057164
 20
128.46333952512532
 10
191.35949505057164
 20
130.93109176295604
 10
191.35949505057164
 20
133.44853597260317
 10
191.35949505057164
 20
136.09021011179135
 10
191.35949505057164
 20
138.73188425097953
 10
191.35949505057164
 20
141.532142635818
 10
191.35949505057164
 20
144.33240102065645
 10
191.35949505057164
 20
147.23432072268827
 10
191.35949505057164
 20
150.17690495159724
 10
191.35949505057164
 20
153.17316393485766
 10
191.35949505057164
 20
156.24098925725315
 10
191.35949505057164
 20
159.32416160658858
 10
191.35949505057164
 20
162.49941611756287
 10
191.35949505057164
 20
165.67467062853706
 10
191.35949505057164
 20
168.92620532172168
 10
191.35949505057164
 20
172.19045337860797
 10
191.35949505057164
 20
175.49472498034868
 10
191.35949505057164
 20
178.82901424073026
 10
191.35949505057164
 20
182.17778412948758
 10
191.35949505057164
 20
185.562755589184
 10
191.35949505057164
 20
188.9477270488805
  0
LWPOLYLINE
  5
B2
330
17
100
AcDbEntity
  8
HIDDEN
100
AcDbPolyline
 90
33
 70
0
 10
191.35949505057164
 20
117.97875211864653
 10
191.35949505057164
 20
119.33516212728722
 10
191.35949505057164
 20
120.69157213592791
 10
191.35949505057164
 20
122.18666246468081
 10
191.35949505057164
 20
123.73722492147868
 10
191.35949505057164
 20
125.36731316763792
 10
191.35949505057164
 20
127.10343579961227
 10
191.35949505057164
 20
128.86469266597157
 10
191.35949505057164
 20
130.7767549386407
 10
191.35949505057164
 20
132.68881721130975
 10
191.35949505057164
 20
134.74260304614097
 10
191.35949505057164
 20
136.82000947466594
 10
191.35949505057164
 20
138.98532015141097
 10
191.35949505057164
 20
141.2165590143211
 10
191.35949505057164
 20
143.48821738215497
 10
191.35949505057164
 20
145.86092451229842
 10
191.35949505057164
 20
148.23363164244194
 10
191.35949505057164
 20
150.73465894167157
 10
191.35949505057164
 20
153.23568624090126
 10
191.35949505057164
 20
155.81847139634345
 10
191.35949505057164
 20
158.4339596942707
 10
191.35949505057164
 20
161.09229123011966
 10
191.35949505057164
 20
163.80774708319763
 10
191.35949505057164
 20
166.53533438660196
 10
191.35949505057164
 20
169.3357103919646
 10
191.35949505057164
 20
172.13608639732718
 10
191.35949505057164
 20
174.99594998009843
 10
191.35949505057164
 20
177.86572815910444
 10
191.35949505057164
 20
180.76607754406223
 10
191.35949505057164
 20
183.6893553334839
 10
191.35949505057164
 20
186.6232904328836
 10
191.35949505057164
 20
189.58386880722867
 10
191.35949505057164
 20
192.54444718157367
  0
LWPOLYLINE
  5
B3
330
17
100
AcDbEntity
  8
HIDDEN
100
AcDbPolyline
 90
33
 70
0
 10
202.47199505057165
 20
105.86856038221384
 10
202.47199505057165
 20
107.27475640228556
 10
202.47199505057165
 20
108.68095242235722
 10
202.47199505057165
 20
110.25421793657051
 10
202.47199505057165
 20
111.89431124844054
 10
202.47199505057165
 20
113.63056521058547
 10
202.47199505057165
 20
115.49503337309727
 10
202.47199505057165
 20
117.39000863289164
 10
202.47199505057165
 20
119.46802647638117
 10
202.47199505057165
 20
121.5460443198707
 10
202.47199505057165
 20
123.79676327833192
 10
202.47199505057165
 20
126.07626575595498
 10
202.47199505057165
 20
128.46333952512532
 10
202.47199505057165
 20
130.93109176295604
 10
202.47199505057165
 20
133.44853597260317
 10
202.47199505057165
 20
136.09021011179135
 10
202.47199505057165
 20
138.73188425097953
 10
202.47199505057165
 20
141.532142635818
 10
202.47199505057165
 20
144.33240102065645
 10
202.47199505057165
 20
147.23432072268827
 10
202.47199505057165
 20
150.17690495159724
 10
202.47199505057165
 20
153.17316393485766
 10
202.47199505057165
 20
156.24098925725315
 10
202.47199505057165
 20
159.32416160658858
 10
202.47199505057165
 20
162.49941611756287
 10
202.47199505057165
 20
165.67467062853706
 10
202.47199505057165
 20
168.92620532172168
 10
202.47199505057165
 20
172.19045337860797
 10
202.47199505057165
 20
175.49472498034868
 10
202.47199505057165
 20
178.82901424073026
 10
202.47199505057165
 20
182.17778412948758
 10
202.47199505057165
 20
185.562755589184
 10
202.47199505057165
 20
188.9477270488805
  0
LWPOLYLINE
  5
B4
330
17
100
AcDbEntity
  8
HIDDEN
100
AcDbPolyline
 90
33
 70
0
 10
202.47199505057165
 20
117.97875211864653
 10
202.47199505057165
 20
119.33516212728722
 10
202.47199505057165
 20
120.69157213592791
 10
202.47199505057165
 20
122.18666246468081
 10
202.47199505057165
 20
123.73722492147868
 10
202.47199505057165
 20
125.36731316763792
 10
202.47199505057165
 20
127.10343579961227
 10
202.47199505057165
 20
128.86469266597157
 10
202.47199505057165
 20
130.7767549386407
 10
202.47199505057165
 20
132.68881721130975
 10
202.47199505057165
 20
134.74260304614097
 10
202.47199505057165
 20
136.82000947466594
 10
202.47199505057165
 20
138.98532015141097
 10
202.47199505057165
 20
141.2165590143211
 10
202.47199505057165
 20
143.48821738215497
 10
202.47199505057165
 20
145.86092451229842
 10
202.47199505057165
 20
148.23363164244194
 10
202.47199505057165
 20
150.73465894167157
 10
202.47199505057165
 20
153.23568624090126
 10
202.47199505057165
 20
155.81847139634345
 10
202.47199505057165
 20
158.4339596942707
 10
202.47199505057165
 20
161.09229123011966
 10
202.47199505057165
 20
163.80774708319763
 10
202.47199505057165
 20
166.53533438660196
 10
202.47199505057165
 20
169.3357103919646
 10
202.47199505057165
 20
172.13608639732718
 10
202.47199505057165
 20
174.99594998009843
 10
202.47199505057165
 20
177.86572815910444
 10
202.47199505057165
 20
180.76607754406223
 10
202.47199505057165
 20
183.6893553334839
 10
202.47199505057165
 20
186.6232904328836
 10
202.47199505057165
 20
189.58386880722867
 10
202.47199505057165
 20
192.54444718157367
  0
LWPOLYLINE
  5
B5
330
17
100
AcDbEntity
  8
HIDDEN
100
AcDbPolyline
 90
33
 70
0
 10
362.8094950505716
 20
105.86856038221384
 10
362.8094950505716
 20
107.27475640228556
 10
362.8094950505716
 20
108.68095242235722
 10
362.8094950505716
 20
110.25421793657051
 10
362.8094950505716
 20
111.89431124844054
 10
362.8094950505716
 20
113.63056521058547
 10
362.8094950505716
 20
115.49503337309727
 10
362.8094950505716
 20
117.39000863289164
 10
362.8094950505716
 20
119.46802647638117
 10
362.8094950505716
 20
121.5460443198707
 10
362.8094950505716
 20
123.79676327833192
 10
362.8094950505716
 20
126.07626575595498
 10
362.8094950505716
 20
128.46333952512532
 10
362.8094950505716
 20
130.93109176295604
 10
362.8094950505716
 20
133.44853597260317
 10
362.8094950505716
 20
136.09021011179135
 10
362.8094950505716
 20
138.73188425097953
 10
362.8094950505716
 20
141.532142635818
 10
362.8094950505716
 20
144.33240102065645
 10
362.8094950505716
 20
147.23432072268827
 10
362.8094950505716
 20
150.17690495159724
 10
362.8094950505716
 20
153.17316393485766
 10
362.8094950505716
 20
156.24098925725315
 10
362.8094950505716
 20
159.32416160658858
 10
362.8094950505716
 20
162.49941611756287
 10
362.8094950505716
 20
165.67467062853706
 10
362.8094950505716
 20
168.92620532172168
 10
362.8094950505716
 20
172.19045337860797
 10
362.8094950505716
 20
175.49472498034868
 10
362.8094950505716
 20
178.82901424073026
 10
362.8094950505716
 20
182.17778412948758
 10
362.8094950505716
 20
185.562755589184
 10
362.8094950505716
 20
188.9477270488805
  0
LWPOLYLINE
  5
B6
330
17
100
AcDbEntity
  8
HIDDEN
100
AcDbPolyline
 90
33
 70
0
 10
362.8094950505716
 20
117.97875211864653
 10
362.8094950505716
 20
119.33516212728722
 10
362.8094950505716
 20
120.69157213592791
 10
362.8094950505716
 20
122.18666246468081
 10
362.8094950505716
 20
123.73722492147868
 10
362.8094950505716
 20
125.36731316763792
 10
362.8094950505716
 20
127.10343579961227
 10
362.8094950505716
 20
128.86469266597157
 10
362.8094950505716
 20
130.7767549386407
 10
362.8094950505716
 20
132.68881721130975
 10
362.8094950505716
 20
134.74260304614097
 10
362.8094950505716
 20
136.82000947466594
 10
362.8094950505716
 20
138.98532015141097
 10
362.8094950505716
 20
141.2165590143211
 10
362.8094950505716
 20
143.48821738215497
 10
362.8094950505716
 20
145.86092451229842
 10
362.8094950505716
 20
148.23363164244194
 10
362.8094950505716
 20
150.73465894167157
 10
362.8094950505716
 20
153.23568624090126
 10
362.8094950505716
 20
155.81847139634345
 10
362.8094950505716
 20
158.4339596942707
 10
362.8094950505716
 20
161.09229123011966
 10
362.8094950505716
 20
163.80774708319763
 10
362.8094950505716
 20
166.53533438660196
 10
362.8094950505716
 20
169.3357103919646
 10
362.8094950505716
 20
172.13608639732718
 10
362.8094950505716
 20
174.99594998009843
 10
362.8094950505716
 20
177.86572815910444
 10
362.8094950505716
 20
180.76607754406223
 10
362.8094950505716
 20
183.6893553334839
 10
362.8094950505716
 20
186.6232904328836
 10
362.8094950505716
 20
189.58386880722867
 10
362.8094950505716
 20
192.54444718157367
  0
LWPOLYLINE
  5
B7
330
17
100
AcDbEntity
  8
HIDDEN
100
AcDbPolyline
 90
33
 70
0
 10
373.92199505057164
 20
105.86856038221384
 10
373.92199505057164
 20
107.27475640228556
 10
373.92199505057164
 20
108.68095242235722
 10
373.92199505057164
 20
110.25421793657051
 10
373.92199505057164
 20
111.89431124844054
 10
373.92199505057164
 20
113.63056521058547
 10
373.92199505057164
 20
115.49503337309727
 10
373.92199505057164
 20
117.39000863289164
 10
373.92199505057164
 20
119.46802647638117
 10
373.92199505057164
 20
121.5460443198707
 10
373.92199505057164
 20
123.79676327833192
 10
373.92199505057164
 20
126.07626575595498
 10
373.92199505057164
 20
128.46333952512532
 10
373.92199505057164
 20
130.93109176295604
 10
373.92199505057164
 20
133.44853597260317
 10
373.92199505057164
 20
136.09021011179135
 10
373.92199505057164
 20
138.73188425097953
 10
373.92199505057164
 20
141.532142635818
 10
373.92199505057164
 20
144.33240102065645
 10
373.92199505057164
 20
147.23432072268827
 10
373.92199505057164
 20
150.17690495159724
 10
373.92199505057164
 20
153.17316393485766
 10
373.92199505057164
 20
156.24098925725315
 10
373.92199505057164
 20
159.32416160658858
 10
373.92199505057164
 20
162.49941611756287
 10
373.92199505057164
 20
165.67467062853706
 10
373.92199505057164
 20
168.92620532172168
 10
373.92199505057164
 20
172.19045337860797
 10
373.92199505057164
 20
175.49472498034868
 10
373.92199505057164
 20
178.82901424073026
 10
373.92199505057164
 20
182.17778412948758
 10
373.92199505057164
 20
185.562755589184
 10
373.92199505057164
 20
188.9477270488805
  0
LWPOLYLINE
  5
B8
330
17
100
AcDbEntity
  8
HIDDEN
100
AcDbPolyline
 90
33
 70
0
 10
373.92199505057164
 20
117.97875211864653
 10
373.92199505057164
 20
119.33516212728722
 10
373.92199505057164
 20
120.69157213592791
 10
373.92199505057164
 20
122.18666246468081
 10
373.92199505057164
 20
123.73722492147868
 10
373.92199505057164
 20
125.36731316763792
 10
373.92199505057164
 20
127.10343579961227
 10
373.92199505057164
 20
128.86469266597157
 10
373.92199505057164
 20
130.7767549386407
 10
373.92199505057164
 20
132.68881721130975
 10
373.92199505057164
 20
134.74260304614097
 10
373.92199505057164
 20
136.82000947466594
 10
373.92199505057164
 20
138.98532015141097
 10
373.92199505057164
 20
141.2165590143211
 10
373.92199505057164
 20
143.48821738215497
 10
373.92199505057164
 20
145.86092451229842
 10
373.92199505057164
 20
148.23363164244194
 10
373.92199505057164
 20
150.73465894167157
 10
373.92199505057164
 20
153.23568624090126
 10
373.92199505057164
 20
155.81847139634345
 10
373.92199505057164
 20
158.4339596942707
 10
373.92199505057164
 20
161.09229123011966
 10
373.92199505057164
 20
163.80774708319763
 10
373.92199505057164
 20
166.53533438660196
 10
373.92199505057164
 20
169.3357103919646
 10
373.92199505057164
 20
172.13608639732718
 10
373.92199505057164
 20
174.99594998009843
 10
373.92199505057164
 20
177.86572815910444
 10
373.92199505057164
 20
180.76607754406223
 10
373.92199505057164
 20
183.6893553334839
 10
373.92199505057164
 20
186.6232904328836
 10
373.92199505057164
 20
189.58386880722867
 10
373.92199505057164
 20
192.54444718157367
  0
TEXT
  5
B9
330
17
100
AcDbEntity
  8
TITLE
100
AcDbText
 10
282.64074505057164
 20
91.51856038221388
 30
0.0
 40
3.4
  1
FRONT
  7
LOFT_MONO
 72
1
 11
282.64074505057164
 21
91.51856038221388
 31
0.0
100
AcDbText
 73
2
  0
LINE
  5
BA
330
17
100
AcDbEntity
  8
VISIBLE
100
AcDbLine
 10
168.34074505057163
 20
281.2997905383981
 30
0.0
 11
168.34074505057163
 21
281.4585405383981
 31
0.0
  0
LINE
  5
BB
330
17
100
AcDbEntity
  8
VISIBLE
100
AcDbLine
 10
168.34074505057163
 20
281.2997905383981
 30
0.0
 11
396.94074505057165
 21
281.2997905383981
 31
0.0
  0
LINE
  5
BC
330
17
100
AcDbEntity
  8
VISIBLE
100
AcDbLine
 10
168.34074505057163
 20
281.4585405383981
 30
0.0
 11
168.34074505057163
 21
298.02492263060515
 31
0.0
  0
LINE
  5
BD
330
17
100
AcDbEntity
  8
VISIBLE
100
AcDbLine
 10
168.34074505057163
 20
281.4585405383981
 30
0.0
 11
396.94074505057165
 21
281.4585405383981
 31
0.0
  0
LINE
  5
BE
330
17
100
AcDbEntity
  8
VISIBLE
100
AcDbLine
 10
168.34074505057163
 20
298.02492263060515
 30
0.0
 11
168.34074505057163
 21
402.90229053839806
 31
0.0
  0
LINE
  5
BF
330
17
100
AcDbEntity
  8
VISIBLE
100
AcDbLine
 10
168.34074505057163
 20
298.02492263060515
 30
0.0
 11
396.94074505057165
 21
298.02492263060515
 31
0.0
  0
LINE
  5
C0
330
17
100
AcDbEntity
  8
HIDDEN
100
AcDbLine
 10
168.34074505057163
 20
314.036413174329
 30
0.0
 11
396.94074505057165
 21
314.036413174329
 31
0.0
  0
LINE
  5
C1
330
17
100
AcDbEntity
  8
HIDDEN
100
AcDbLine
 10
168.34074505057163
 20
330.60279526653613
 30
0.0
 11
396.94074505057165
 21
330.60279526653613
 31
0.0
  0
LINE
  5
C2
330
17
100
AcDbEntity
  8
HIDDEN
100
AcDbLine
 10
168.34074505057163
 20
346.61428581026
 30
0.0
 11
396.94074505057165
 21
346.61428581026
 31
0.0
  0
LINE
  5
C3
330
17
100
AcDbEntity
  8
HIDDEN
100
AcDbLine
 10
168.34074505057163
 20
363.1806679024671
 30
0.0
 11
396.94074505057165
 21
363.1806679024671
 31
0.0
  0
LINE
  5
C4
330
17
100
AcDbEntity
  8
HIDDEN
100
AcDbLine
 10
168.34074505057163
 20
379.192158446191
 30
0.0
 11
396.94074505057165
 21
379.192158446191
 31
0.0
  0
LINE
  5
C5
330
17
100
AcDbEntity
  8
HIDDEN
100
AcDbLine
 10
168.34074505057163
 20
395.75854053839805
 30
0.0
 11
396.94074505057165
 21
395.75854053839805
 31
0.0
  0
LINE
  5
C6
330
17
100
AcDbEntity
  8
HIDDEN
100
AcDbLine
 10
168.34074505057163
 20
398.1397905383981
 30
0.0
 11
396.94074505057165
 21
398.1397905383981
 31
0.0
  0
LINE
  5
C7
330
17
100
AcDbEntity
  8
VISIBLE
100
AcDbLine
 10
168.34074505057163
 20
402.90229053839806
 30
0.0
 11
396.94074505057165
 21
402.90229053839806
 31
0.0
  0
LINE
  5
C8
330
17
100
AcDbEntity
  8
HIDDEN
100
AcDbLine
 10
191.35949505057164
 20
281.4585405383981
 30
0.0
 11
191.35949505057164
 21
292.57104053839805
 31
0.0
  0
LINE
  5
C9
330
17
100
AcDbEntity
  8
HIDDEN
100
AcDbLine
 10
191.35949505057164
 20
281.4585405383981
 30
0.0
 11
191.35949505057164
 21
395.75854053839805
 31
0.0
  0
LINE
  5
CA
330
17
100
AcDbEntity
  8
HIDDEN
100
AcDbLine
 10
191.35949505057164
 20
292.57104053839805
 30
0.0
 11
202.47199505057165
 21
292.57104053839805
 31
0.0
  0
LINE
  5
CB
330
17
100
AcDbEntity
  8
HIDDEN
100
AcDbLine
 10
191.35949505057164
 20
345.2808801403186
 30
0.0
 11
191.35949505057164
 21
356.07104053839805
 31
0.0
  0
LINE
  5
CC
330
17
100
AcDbEntity
  8
HIDDEN
100
AcDbLine
 10
191.35949505057164
 20
345.2808801403185
 30
0.0
 11
202.47199505057165
 21
345.2808801403185
 31
0.0
  0
LINE
  5
CD
330
17
100
AcDbEntity
  8
HIDDEN
100
AcDbLine
 10
191.35949505057164
 20
356.07104053839805
 30
0.0
 11
202.47199505057165
 21
356.07104053839805
 31
0.0
  0
LINE
  5
CE
330
17
100
AcDbEntity
  8
HIDDEN
100
AcDbLine
 10
191.35949505057164
 20
395.75854053839805
 30
0.0
 11
202.47199505057165
 21
395.75854053839805
 31
0.0
  0
LINE
  5
CF
330
17
100
AcDbEntity
  8
HIDDEN
100
AcDbLine
 10
202.47199505057165
 20
281.4585405383981
 30
0.0
 11
202.47199505057165
 21
292.57104053839805
 31
0.0
  0
LINE
  5
D0
330
17
100
AcDbEntity
  8
HIDDEN
100
AcDbLine
 10
202.47199505057165
 20
281.4585405383981
 30
0.0
 11
202.47199505057165
 21
395.75854053839805
 31
0.0
  0
LINE
  5
D1
330
17
100
AcDbEntity
  8
HIDDEN
100
AcDbLine
 10
202.47199505057165
 20
345.2808801403186
 30
0.0
 11
202.47199505057165
 21
356.07104053839805
 31
0.0
  0
LINE
  5
D2
330
17
100
AcDbEntity
  8
HIDDEN
100
AcDbLine
 10
362.8094950505716
 20
281.4585405383981
 30
0.0
 11
362.8094950505716
 21
292.57104053839805
 31
0.0
  0
LINE
  5
D3
330
17
100
AcDbEntity
  8
HIDDEN
100
AcDbLine
 10
362.8094950505716
 20
281.4585405383981
 30
0.0
 11
362.8094950505716
 21
395.75854053839805
 31
0.0
  0
LINE
  5
D4
330
17
100
AcDbEntity
  8
HIDDEN
100
AcDbLine
 10
362.8094950505716
 20
292.57104053839805
 30
0.0
 11
373.92199505057164
 21
292.57104053839805
 31
0.0
  0
LINE
  5
D5
330
17
100
AcDbEntity
  8
HIDDEN
100
AcDbLine
 10
362.8094950505716
 20
345.2808801403186
 30
0.0
 11
362.8094950505716
 21
356.07104053839805
 31
0.0
  0
LINE
  5
D6
330
17
100
AcDbEntity
  8
HIDDEN
100
AcDbLine
 10
362.8094950505716
 20
345.2808801403185
 30
0.0
 11
373.92199505057164
 21
345.2808801403185
 31
0.0
  0
LINE
  5
D7
330
17
100
AcDbEntity
  8
HIDDEN
100
AcDbLine
 10
362.8094950505716
 20
356.07104053839805
 30
0.0
 11
373.92199505057164
 21
356.07104053839805
 31
0.0
  0
LINE
  5
D8
330
17
100
AcDbEntity
  8
HIDDEN
100
AcDbLine
 10
362.8094950505716
 20
395.75854053839805
 30
0.0
 11
373.92199505057164
 21
395.75854053839805
 31
0.0
  0
LINE
  5
D9
330
17
100
AcDbEntity
  8
HIDDEN
100
AcDbLine
 10
373.92199505057164
 20
281.4585405383981
 30
0.0
 11
373.92199505057164
 21
292.57104053839805
 31
0.0
  0
LINE
  5
DA
330
17
100
AcDbEntity
  8
HIDDEN
100
AcDbLine
 10
373.92199505057164
 20
281.4585405383981
 30
0.0
 11
373.92199505057164
 21
395.75854053839805
 31
0.0
  0
LINE
  5
DB
330
17
100
AcDbEntity
  8
HIDDEN
100
AcDbLine
 10
373.92199505057164
 20
345.2808801403186
 30
0.0
 11
373.92199505057164
 21
356.07104053839805
 31
0.0
  0
LINE
  5
DC
330
17
100
AcDbEntity
  8
VISIBLE
100
AcDbLine
 10
396.94074505057165
 20
281.2997905383981
 30
0.0
 11
396.94074505057165
 21
281.4585405383981
 31
0.0
  0
LINE
  5
DD
330
17
100
AcDbEntity
  8
VISIBLE
100
AcDbLine
 10
396.94074505057165
 20
281.4585405383981
 30
0.0
 11
396.94074505057165
 21
298.02492263060515
 31
0.0
  0
LINE
  5
DE
330
17
100
AcDbEntity
  8
VISIBLE
100
AcDbLine
 10
396.94074505057165
 20
298.02492263060515
 30
0.0
 11
396.94074505057165
 21
402.90229053839806
 31
0.0
  0
LWPOLYLINE
  5
DF
330
17
100
AcDbEntity
  8
HIDDEN
100
AcDbPolyline
 90
33
 70
0
 10
191.35949505057164
 20
292.57104053839805
 10
191.35949505057164
 20
295.231525395238
 10
191.35949505057164
 20
297.89201025207797
 10
191.35949505057164
 20
300.4751570405283
 10
191.35949505057164
 20
303.02736860162287
 10
191.35949505057164
 20
305.5271161206545
 10
191.35949505057164
 20
307.95691158360233
 10
191.35949505057164
 20
310.36729554011123
 10
191.35949505057164
 20
312.66121045798656
 10
191.35949505057164
 20
314.9551253758619
 10
191.35949505057164
 20
317.1216757010886
 10
191.35949505057164
 20
319.26699859420717
 10
191.35949505057164
 20
321.32061857422906
 10
191.35949505057164
 20
323.3054613694285
 10
191.35949505057164
 20
325.24131019660024
 10
191.35949505057164
 20
327.05467410370267
 10
191.35949505057164
 20
328.8680380108051
 10
191.35949505057164
 20
330.4998744712151
 10
191.35949505057164
 20
332.13171093162504
 10
191.35949505057164
 20
333.62742589866895
 10
191.35949505057164
 20
335.0686922683665
 10
191.35949505057164
 20
336.4248629046369
 10
191.35949505057164
 20
337.66757256300446
 10
191.35949505057164
 20
338.88093321400675
 10
191.35949505057164
 20
339.9181998208175
 10
191.35949505057164
 20
340.95546642762827
 10
191.35949505057164
 20
341.81171221887763
 10
191.35949505057164
 20
342.63778787420006
 10
191.35949505057164
 20
343.34056720965765
 10
191.35949505057164
 20
343.95087430521664
 10
191.35949505057164
 20
344.49856696932875
 10
191.35949505057164
 20
344.88972355482366
 10
191.35949505057164
 20
345.2808801403185
  0
LWPOLYLINE
  5
E0
330
17
100
AcDbEntity
  8
HIDDEN
100
AcDbPolyline
 90
33
 70
0
 10
191.35949505057164
 20
292.57104053839805
 10
191.35949505057164
 20
295.696508890839
 10
191.35949505057164
 20
298.82197724327983
 10
191.35949505057164
 20
301.8644856597053
 10
191.35949505057164
 20
304.8738101017246
 10
191.35949505057164
 20
307.82587047641533
 10
191.35949505057164
 20
310.70157876133493
 10
191.35949505057164
 20
313.5558138143215
 10
191.35949505057164
 20
316.2812094757097
 10
191.35949505057164
 20
319.00660513709795
 10
191.35949505057164
 20
321.5895981961194
 10
191.35949505057164
 20
324.1488574880797
 10
191.35949505057164
 20
326.604690767727
 10
191.35949505057164
 20
328.9829545381395
 10
191.35949505057164
 20
331.30556007794735
 10
191.35949505057164
 20
333.4890200412441
 10
191.35949505057164
 20
335.67248000454066
 10
191.35949505057164
 20
337.64845891311154
 10
191.35949505057164
 20
339.6244378216824
 10
191.35949505057164
 20
341.44402125895385
 10
191.35949505057164
 20
343.20104650770554
 10
191.35949505057164
 20
344.8598624655849
 10
191.35949505057164
 20
346.38773270230126
 10
191.35949505057164
 20
347.88159924159567
 10
191.35949505057164
 20
349.17144359635813
 10
191.35949505057164
 20
350.4612879511206
 10
191.35949505057164
 20
351.5406910787549
 10
191.35949505057164
 20
352.58502066853447
 10
191.35949505057164
 20
353.4855912980875
 10
191.35949505057164
 20
354.27834270747076
 10
191.35949505057164
 20
354.99789956720116
 10
191.35949505057164
 20
355.53447005279963
 10
191.35949505057164
 20
356.07104053839805
  0
LWPOLYLINE
  5
E1
330
17
100
AcDbEntity
  8
HIDDEN
100
AcDbPolyline
 90
33
 70
0
 10
202.47199505057165
 20
292.57104053839805
 10
202.47199505057165
 20
295.231525395238
 10
202.47199505057165
 20
297.89201025207797
 10
202.47199505057165
 20
300.4751570405283
 10
202.47199505057165
 20
303.02736860162287
 10
202.47199505057165
 20
305.5271161206545
 10
202.47199505057165
 20
307.95691158360233
 10
202.47199505057165
 20
310.36729554011123
 10
202.47199505057165
 20
312.66121045798656
 10
202.47199505057165
 20
314.9551253758619
 10
202.47199505057165
 20
317.1216757010886
 10
202.47199505057165
 20
319.26699859420717
 10
202.47199505057165
 20
321.32061857422906
 10
202.47199505057165
 20
323.3054613694285
 10
202.47199505057165
 20
325.24131019660024
 10
202.47199505057165
 20
327.05467410370267
 10
202.47199505057165
 20
328.8680380108051
 10
202.47199505057165
 20
330.4998744712151
 10
202.47199505057165
 20
332.13171093162504
 10
202.47199505057165
 20
333.62742589866895
 10
202.47199505057165
 20
335.0686922683665
 10
202.47199505057165
 20
336.4248629046369
 10
202.47199505057165
 20
337.66757256300446
 10
202.47199505057165
 20
338.88093321400675
 10
202.47199505057165
 20
339.9181998208175
 10
202.47199505057165
 20
340.95546642762827
 10
202.47199505057165
 20
341.81171221887763
 10
202.47199505057165
 20
342.63778787420006
 10
202.47199505057165
 20
343.34056720965765
 10
202.47199505057165
 20
343.95087430521664
 10
202.47199505057165
 20
344.49856696932875
 10
202.47199505057165
 20
344.88972355482366
 10
202.47199505057165
 20
345.2808801403185
  0
LWPOLYLINE
  5
E2
330
17
100
AcDbEntity
  8
HIDDEN
100
AcDbPolyline
 90
33
 70
0
 10
202.47199505057165
 20
292.57104053839805
 10
202.47199505057165
 20
295.696508890839
 10
202.47199505057165
 20
298.82197724327983
 10
202.47199505057165
 20
301.8644856597053
 10
202.47199505057165
 20
304.8738101017246
 10
202.47199505057165
 20
307.82587047641533
 10
202.47199505057165
 20
310.70157876133493
 10
202.47199505057165
 20
313.5558138143215
 10
202.47199505057165
 20
316.2812094757097
 10
202.47199505057165
 20
319.00660513709795
 10
202.47199505057165
 20
321.5895981961194
 10
202.47199505057165
 20
324.1488574880797
 10
202.47199505057165
 20
326.604690767727
 10
202.47199505057165
 20
328.9829545381395
 10
202.47199505057165
 20
331.30556007794735
 10
202.47199505057165
 20
333.4890200412441
 10
202.47199505057165
 20
335.67248000454066
 10
202.47199505057165
 20
337.64845891311154
 10
202.47199505057165
 20
339.6244378216824
 10
202.47199505057165
 20
341.44402125895385
 10
202.47199505057165
 20
343.20104650770554
 10
202.47199505057165
 20
344.8598624655849
 10
202.47199505057165
 20
346.38773270230126
 10
202.47199505057165
 20
347.88159924159567
 10
202.47199505057165
 20
349.17144359635813
 10
202.47199505057165
 20
350.4612879511206
 10
202.47199505057165
 20
351.5406910787549
 10
202.47199505057165
 20
352.58502066853447
 10
202.47199505057165
 20
353.4855912980875
 10
202.47199505057165
 20
354.27834270747076
 10
202.47199505057165
 20
354.99789956720116
 10
202.47199505057165
 20
355.53447005279963
 10
202.47199505057165
 20
356.07104053839805
  0
LWPOLYLINE
  5
E3
330
17
100
AcDbEntity
  8
HIDDEN
100
AcDbPolyline
 90
33
 70
0
 10
362.8094950505716
 20
292.57104053839805
 10
362.8094950505716
 20
295.231525395238
 10
362.8094950505716
 20
297.89201025207797
 10
362.8094950505716
 20
300.4751570405283
 10
362.8094950505716
 20
303.02736860162287
 10
362.8094950505716
 20
305.5271161206545
 10
362.8094950505716
 20
307.95691158360233
 10
362.8094950505716
 20
310.36729554011123
 10
362.8094950505716
 20
312.66121045798656
 10
362.8094950505716
 20
314.9551253758619
 10
362.8094950505716
 20
317.1216757010886
 10
362.8094950505716
 20
319.26699859420717
 10
362.8094950505716
 20
321.32061857422906
 10
362.8094950505716
 20
323.3054613694285
 10
362.8094950505716
 20
325.24131019660024
 10
362.8094950505716
 20
327.05467410370267
 10
362.8094950505716
 20
328.8680380108051
 10
362.8094950505716
 20
330.4998744712151
 10
362.8094950505716
 20
332.13171093162504
 10
362.8094950505716
 20
333.62742589866895
 10
362.8094950505716
 20
335.0686922683665
 10
362.8094950505716
 20
336.4248629046369
 10
362.8094950505716
 20
337.66757256300446
 10
362.8094950505716
 20
338.88093321400675
 10
362.8094950505716
 20
339.9181998208175
 10
362.8094950505716
 20
340.95546642762827
 10
362.8094950505716
 20
341.81171221887763
 10
362.8094950505716
 20
342.63778787420006
 10
362.8094950505716
 20
343.34056720965765
 10
362.8094950505716
 20
343.95087430521664
 10
362.8094950505716
 20
344.49856696932875
 10
362.8094950505716
 20
344.88972355482366
 10
362.8094950505716
 20
345.2808801403185
  0
LWPOLYLINE
  5
E4
330
17
100
AcDbEntity
  8
HIDDEN
100
AcDbPolyline
 90
33
 70
0
 10
362.8094950505716
 20
292.57104053839805
 10
362.8094950505716
 20
295.696508890839
 10
362.8094950505716
 20
298.82197724327983
 10
362.8094950505716
 20
301.8644856597053
 10
362.8094950505716
 20
304.8738101017246
 10
362.8094950505716
 20
307.82587047641533
 10
362.8094950505716
 20
310.70157876133493
 10
362.8094950505716
 20
313.5558138143215
 10
362.8094950505716
 20
316.2812094757097
 10
362.8094950505716
 20
319.00660513709795
 10
362.8094950505716
 20
321.5895981961194
 10
362.8094950505716
 20
324.1488574880797
 10
362.8094950505716
 20
326.604690767727
 10
362.8094950505716
 20
328.9829545381395
 10
362.8094950505716
 20
331.30556007794735
 10
362.8094950505716
 20
333.4890200412441
 10
362.8094950505716
 20
335.67248000454066
 10
362.8094950505716
 20
337.64845891311154
 10
362.8094950505716
 20
339.6244378216824
 10
362.8094950505716
 20
341.44402125895385
 10
362.8094950505716
 20
343.20104650770554
 10
362.8094950505716
 20
344.8598624655849
 10
362.8094950505716
 20
346.38773270230126
 10
362.8094950505716
 20
347.88159924159567
 10
362.8094950505716
 20
349.17144359635813
 10
362.8094950505716
 20
350.4612879511206
 10
362.8094950505716
 20
351.5406910787549
 10
362.8094950505716
 20
352.58502066853447
 10
362.8094950505716
 20
353.4855912980875
 10
362.8094950505716
 20
354.27834270747076
 10
362.8094950505716
 20
354.99789956720116
 10
362.8094950505716
 20
355.53447005279963
 10
362.8094950505716
 20
356.07104053839805
  0
LWPOLYLINE
  5
E5
330
17
100
AcDbEntity
  8
HIDDEN
100
AcDbPolyline
 90
33
 70
0
 10
373.92199505057164
 20
292.57104053839805
 10
373.92199505057164
 20
295.231525395238
 10
373.92199505057164
 20
297.89201025207797
 10
373.92199505057164
 20
300.4751570405283
 10
373.92199505057164
 20
303.02736860162287
 10
373.92199505057164
 20
305.5271161206545
 10
373.92199505057164
 20
307.95691158360233
 10
373.92199505057164
 20
310.36729554011123
 10
373.92199505057164
 20
312.66121045798656
 10
373.92199505057164
 20
314.9551253758619
 10
373.92199505057164
 20
317.1216757010886
 10
373.92199505057164
 20
319.26699859420717
 10
373.92199505057164
 20
321.32061857422906
 10
373.92199505057164
 20
323.3054613694285
 10
373.92199505057164
 20
325.24131019660024
 10
373.92199505057164
 20
327.05467410370267
 10
373.92199505057164
 20
328.8680380108051
 10
373.92199505057164
 20
330.4998744712151
 10
373.92199505057164
 20
332.13171093162504
 10
373.92199505057164
 20
333.62742589866895
 10
373.92199505057164
 20
335.0686922683665
 10
373.92199505057164
 20
336.4248629046369
 10
373.92199505057164
 20
337.66757256300446
 10
373.92199505057164
 20
338.88093321400675
 10
373.92199505057164
 20
339.9181998208175
 10
373.92199505057164
 20
340.95546642762827
 10
373.92199505057164
 20
341.81171221887763
 10
373.92199505057164
 20
342.63778787420006
 10
373.92199505057164
 20
343.34056720965765
 10
373.92199505057164
 20
343.95087430521664
 10
373.92199505057164
 20
344.49856696932875
 10
373.92199505057164
 20
344.88972355482366
 10
373.92199505057164
 20
345.2808801403185
  0
LWPOLYLINE
  5
E6
330
17
100
AcDbEntity
  8
HIDDEN
100
AcDbPolyline
 90
33
 70
0
 10
373.92199505057164
 20
292.57104053839805
 10
373.92199505057164
 20
295.696508890839
 10
373.92199505057164
 20
298.82197724327983
 10
373.92199505057164
 20
301.8644856597053
 10
373.92199505057164
 20
304.8738101017246
 10
373.92199505057164
 20
307.82587047641533
 10
373.92199505057164
 20
310.70157876133493
 10
373.92199505057164
 20
313.5558138143215
 10
373.92199505057164
 20
316.2812094757097
 10
373.92199505057164
 20
319.00660513709795
 10
373.92199505057164
 20
321.5895981961194
 10
373.92199505057164
 20
324.1488574880797
 10
373.92199505057164
 20
326.604690767727
 10
373.92199505057164
 20
328.9829545381395
 10
373.92199505057164
 20
331.30556007794735
 10
373.92199505057164
 20
333.4890200412441
 10
373.92199505057164
 20
335.67248000454066
 10
373.92199505057164
 20
337.64845891311154
 10
373.92199505057164
 20
339.6244378216824
 10
373.92199505057164
 20
341.44402125895385
 10
373.92199505057164
 20
343.20104650770554
 10
373.92199505057164
 20
344.8598624655849
 10
373.92199505057164
 20
346.38773270230126
 10
373.92199505057164
 20
347.88159924159567
 10
373.92199505057164
 20
349.17144359635813
 10
373.92199505057164
 20
350.4612879511206
 10
373.92199505057164
 20
351.5406910787549
 10
373.92199505057164
 20
352.58502066853447
 10
373.92199505057164
 20
353.4855912980875
 10
373.92199505057164
 20
354.27834270747076
 10
373.92199505057164
 20
354.99789956720116
 10
373.92199505057164
 20
355.53447005279963
 10
373.92199505057164
 20
356.07104053839805
  0
TEXT
  5
E7
330
17
100
AcDbEntity
  8
TITLE
100
AcDbText
 10
282.64074505057164
 20
273.2997905383981
 30
0.0
 40
3.4
  1
TOP
  7
LOFT_MONO
 72
1
 11
282.64074505057164
 21
273.2997905383981
 31
0.0
100
AcDbText
 73
2
  0
LINE
  5
E8
330
17
100
AcDbEntity
  8
VISIBLE
100
AcDbLine
 10
551.0567549494283
 20
215.49580115263177
 30
0.0
 11
551.0567549494283
 21
234.54580115263178
 31
0.0
  0
LINE
  5
E9
330
17
100
AcDbEntity
  8
VISIBLE
100
AcDbLine
 10
551.0567549494283
 20
215.49580115263177
 30
0.0
 11
551.2155049494284
 21
215.49580115263177
 31
0.0
  0
LINE
  5
EA
330
17
100
AcDbEntity
  8
VISIBLE
100
AcDbLine
 10
551.0567549494283
 20
234.54580115263178
 30
0.0
 11
551.2155049494284
 21
234.54580115263178
 31
0.0
  0
LINE
  5
EB
330
17
100
AcDbEntity
  8
VISIBLE
100
AcDbLine
 10
551.2155049494284
 20
76.76457099644756
 30
0.0
 11
551.2155049494284
 21
191.06457099644757
 31
0.0
  0
LINE
  5
EC
330
17
100
AcDbEntity
  8
VISIBLE
100
AcDbLine
 10
551.2155049494284
 20
76.76457099644756
 30
0.0
 11
562.3280049494283
 21
76.76457099644756
 31
0.0
  0
LINE
  5
ED
330
17
100
AcDbEntity
  8
VISIBLE
100
AcDbLine
 10
551.2155049494284
 20
191.06457099644757
 30
0.0
 11
551.2155049494284
 21
209.471662210011
 31
0.0
  0
LINE
  5
EE
330
17
100
AcDbEntity
  8
VISIBLE
100
AcDbLine
 10
551.2155049494284
 20
191.06457099644757
 30
0.0
 11
562.3280049494283
 21
191.06457099644757
 31
0.0
  0
LINE
  5
EF
330
17
100
AcDbEntity
  8
VISIBLE
100
AcDbLine
 10
551.2155049494284
 20
191.06457099644757
 30
0.0
 11
665.5155049494283
 21
152.9645709964476
 31
0.0
  0
LINE
  5
F0
330
17
100
AcDbEntity
  8
VISIBLE
100
AcDbLine
 10
551.2155049494284
 20
209.471662210011
 30
0.0
 11
551.2155049494284
 21
213.48775483842485
 31
0.0
  0
LINE
  5
F1
330
17
100
AcDbEntity
  8
VISIBLE
100
AcDbLine
 10
551.2155049494284
 20
209.471662210011
 30
0.0
 11
567.7818870416354
 21
203.94953484594197
 31
0.0
  0
LINE
  5
F2
330
17
100
AcDbEntity
  8
VISIBLE
100
AcDbLine
 10
551.2155049494284
 20
213.48775483842485
 30
0.0
 11
551.2155049494284
 21
214.82645238122944
 31
0.0
  0
LINE
  5
F3
330
17
100
AcDbEntity
  8
VISIBLE
100
AcDbLine
 10
551.2155049494284
 20
213.48775483842485
 30
0.0
 11
567.7818870416354
 21
207.9656274743558
 31
0.0
  0
LINE
  5
F4
330
17
100
AcDbEntity
  8
VISIBLE
100
AcDbLine
 10
551.2155049494284
 20
213.48775483842485
 30
0.0
 11
672.6592549494283
 21
173.00650483842486
 31
0.0
  0
LINE
  5
F5
330
17
100
AcDbEntity
  8
VISIBLE
100
AcDbLine
 10
551.2155049494284
 20
214.82645238122944
 30
0.0
 11
672.6592549494283
 21
174.34520238122946
 31
0.0
  0
LINE
  5
F6
330
17
100
AcDbEntity
  8
VISIBLE
100
AcDbLine
 10
551.2155049494284
 20
215.49580115263177
 30
0.0
 11
567.7818870416354
 21
209.97367378856273
 31
0.0
  0
LINE
  5
F7
330
17
100
AcDbEntity
  8
VISIBLE
100
AcDbLine
 10
551.2155049494284
 20
215.65455115263177
 30
0.0
 11
551.2155049494284
 21
234.54580115263178
 31
0.0
  0
LINE
  5
F8
330
17
100
AcDbEntity
  8
VISIBLE
100
AcDbLine
 10
551.2155049494284
 20
215.65455115263177
 30
0.0
 11
567.7818870416354
 21
210.13242378856273
 31
0.0
  0
LINE
  5
F9
330
17
100
AcDbEntity
  8
VISIBLE
100
AcDbLine
 10
562.3280049494283
 20
76.76457099644756
 30
0.0
 11
562.3280049494283
 21
191.06457099644757
 31
0.0
  0
LINE
  5
FA
330
17
100
AcDbEntity
  8
VISIBLE
100
AcDbLine
 10
562.3280049494283
 20
83.11457099644758
 30
0.0
 11
562.3280049494283
 21
95.22476273288032
 31
0.0
  0
LINE
  5
FB
330
17
100
AcDbEntity
  8
VISIBLE
100
AcDbLine
 10
567.7818870416354
 20
203.94953484594197
 30
0.0
 11
567.7818870416354
 21
207.9656274743558
 31
0.0
  0
LINE
  5
FC
330
17
100
AcDbEntity
  8
VISIBLE
100
AcDbLine
 10
567.7818870416354
 20
203.94953484594197
 30
0.0
 11
583.7933775853593
 21
198.61237133136734
 31
0.0
  0
LINE
  5
FD
330
17
100
AcDbEntity
  8
VISIBLE
100
AcDbLine
 10
567.7818870416354
 20
209.97367378856273
 30
0.0
 11
567.7818870416354
 21
210.13242378856273
 31
0.0
  0
LINE
  5
FE
330
17
100
AcDbEntity
  8
VISIBLE
100
AcDbLine
 10
583.7933775853593
 20
198.61237133136734
 30
0.0
 11
583.7933775853593
 21
202.6284639597812
 31
0.0
  0
LINE
  5
FF
330
17
100
AcDbEntity
  8
VISIBLE
100
AcDbLine
 10
583.7933775853593
 20
198.61237133136734
 30
0.0
 11
600.3597596775663
 21
193.0902439672983
 31
0.0
  0
LINE
  5
100
330
17
100
AcDbEntity
  8
VISIBLE
100
AcDbLine
 10
583.7933775853593
 20
202.6284639597812
 30
0.0
 11
600.3597596775663
 21
197.10633659571215
 31
0.0
  0
LINE
  5
101
330
17
100
AcDbEntity
  8
VISIBLE
100
AcDbLine
 10
600.3597596775663
 20
193.0902439672983
 30
0.0
 11
600.3597596775663
 21
197.10633659571215
 31
0.0
  0
LINE
  5
102
330
17
100
AcDbEntity
  8
VISIBLE
100
AcDbLine
 10
600.3597596775663
 20
193.09024396729836
 30
0.0
 11
616.3712502212902
 21
187.75308045272374
 31
0.0
  0
LINE
  5
103
330
17
100
AcDbEntity
  8
VISIBLE
100
AcDbLine
 10
615.0378445513488
 20
169.79045779580747
 30
0.0
 11
625.8280049494283
 21
166.1937376631143
 31
0.0
  0
LINE
  5
104
330
17
100
AcDbEntity
  8
VISIBLE
100
AcDbLine
 10
616.3712502212902
 20
187.75308045272368
 30
0.0
 11
616.3712502212902
 21
191.76917308113758
 31
0.0
  0
LINE
  5
105
330
17
100
AcDbEntity
  8
VISIBLE
100
AcDbLine
 10
616.3712502212902
 20
187.75308045272368
 30
0.0
 11
632.9376323134974
 21
182.23095308865464
 31
0.0
  0
LINE
  5
106
330
17
100
AcDbEntity
  8
VISIBLE
100
AcDbLine
 10
616.3712502212902
 20
191.76917308113758
 30
0.0
 11
632.9376323134974
 21
186.24704571706854
 31
0.0
  0
LINE
  5
107
330
17
100
AcDbEntity
  8
VISIBLE
100
AcDbLine
 10
632.9376323134974
 20
182.23095308865464
 30
0.0
 11
632.9376323134974
 21
186.24704571706854
 31
0.0
  0
LINE
  5
108
330
17
100
AcDbEntity
  8
VISIBLE
100
AcDbLine
 10
632.9376323134974
 20
182.2309530886547
 30
0.0
 11
648.9491228572213
 21
176.89378957408007
 31
0.0
  0
LINE
  5
109
330
17
100
AcDbEntity
  8
VISIBLE
100
AcDbLine
 10
648.9491228572213
 20
176.89378957408007
 30
0.0
 11
648.9491228572213
 21
180.90988220249392
 31
0.0
  0
LINE
  5
10A
330
17
100
AcDbEntity
  8
VISIBLE
100
AcDbLine
 10
648.9491228572213
 20
176.89378957408007
 30
0.0
 11
665.5155049494283
 21
171.37166221001104
 31
0.0
  0
LINE
  5
10B
330
17
100
AcDbEntity
  8
VISIBLE
100
AcDbLine
 10
648.9491228572213
 20
180.90988220249392
 30
0.0
 11
665.5155049494283
 21
175.38775483842488
 31
0.0
  0
LINE
  5
10C
330
17
100
AcDbEntity
  8
VISIBLE
100
AcDbLine
 10
665.5155049494283
 20
149.7895709964476
 30
0.0
 11
665.5155049494283
 21
171.37166221001104
 31
0.0
  0
LINE
  5
10D
330
17
100
AcDbEntity
  8
VISIBLE
100
AcDbLine
 10
665.5155049494283
 20
149.7895709964476
 30
0.0
 11
667.8967549494283
 21
149.7895709964476
 31
0.0
  0
LINE
  5
10E
330
17
100
AcDbEntity
  8
VISIBLE
100
AcDbLine
 10
665.5155049494283
 20
171.37166221001104
 30
0.0
 11
665.5155049494283
 21
175.38775483842488
 31
0.0
  0
LINE
  5
10F
330
17
100
AcDbEntity
  8
VISIBLE
100
AcDbLine
 10
665.5155049494283
 20
171.37166221001104
 30
0.0
 11
667.8967549494283
 21
171.37166221001104
 31
0.0
  0
LINE
  5
110
330
17
100
AcDbEntity
  8
VISIBLE
100
AcDbLine
 10
667.8967549494283
 20
149.7895709964476
 30
0.0
 11
667.8967549494283
 21
171.37166221001104
 31
0.0
  0
LINE
  5
111
330
17
100
AcDbEntity
  8
VISIBLE
100
AcDbLine
 10
672.6592549494283
 20
173.00650483842486
 30
0.0
 11
672.6592549494283
 21
174.34520238122946
 31
0.0
  0
LWPOLYLINE
  5
112
330
17
100
AcDbEntity
  8
VISIBLE
100
AcDbPolyline
 90
9
 70
0
 10
562.3280049494283
 20
83.11457099644758
 10
574.6578750792347
 20
89.09133939767366
 10
586.0834301591145
 20
96.6546818503474
 10
596.4017153257145
 20
105.67024889632472
 10
605.429444415571
 20
115.97789486521327
 10
613.0062557210022
 20
127.39452258015945
 10
618.9975605334158
 20
139.71733575672488
 10
623.2969338746809
 20
152.72744132171573
 10
625.8280049494283
 20
166.19373766311423
  0
LWPOLYLINE
  5
113
330
17
100
AcDbEntity
  8
VISIBLE
100
AcDbPolyline
 90
9
 70
0
 10
562.3280049494283
 20
95.22476273288027
 10
572.8093274328144
 20
100.94266442343633
 10
582.4588560806664
 20
107.97396000944934
 10
591.1129894625013
 20
116.19943848507671
 10
598.6250024218353
 20
125.47964225667562
 10
604.8675337049945
 20
135.65723155485324
 10
609.7347452876538
 20
146.5596520270799
 10
613.1441167891352
 20
158.00206028358286
 10
615.0378445513487
 20
169.7904577958074
  0
TEXT
  5
114
330
17
100
AcDbEntity
  8
TITLE
100
AcDbText
 10
546.8
 20
67.60140154055284
 30
0.0
 40
3.4
  1
RIGHT
  7
LOFT_MONO
 72
1
 11
546.8
 21
67.60140154055284
 31
0.0
100
AcDbText
 73
2
  0
LINE
  5
115
330
17
100
AcDbEntity
  8
VISIBLE
100
AcDbLine
 10
420.94074505057176
 20
423.97999729281173
 30
0.0
 11
420.94074505057176
 21
425.073039259408
 31
0.0
  0
LINE
  5
116
330
17
100
AcDbEntity
  8
VISIBLE
100
AcDbLine
 10
420.9407450505717
 20
423.97999729281173
 30
0.0
 11
506.8144442082955
 21
407.45359618447145
 31
0.0
  0
LINE
  5
117
330
17
100
AcDbEntity
  8
HIDDEN
100
AcDbLine
 10
420.94074505057176
 20
423.97999729281173
 30
0.0
 11
582.5853552298165
 21
517.3055564928508
 31
0.0
  0
LINE
  5
118
330
17
100
AcDbEntity
  8
VISIBLE
100
AcDbLine
 10
420.94074505057176
 20
425.073039259408
 30
0.0
 11
506.8144442082955
 21
408.5466381510678
 31
0.0
  0
LINE
  5
119
330
17
100
AcDbEntity
  8
VISIBLE
100
AcDbLine
 10
420.94074505057176
 20
425.073039259408
 30
0.0
 11
582.5853552298165
 21
518.3985984594472
 31
0.0
  0
LINE
  5
11A
330
17
100
AcDbEntity
  8
VISIBLE
100
AcDbLine
 10
424.30834109597265
 20
403.0791677078779
 30
0.0
 11
424.30834109597265
 21
420.7008713930228
 31
0.0
  0
LINE
  5
11B
330
17
100
AcDbEntity
  8
VISIBLE
100
AcDbLine
 10
424.30834109597265
 20
403.0791677078779
 30
0.0
 11
425.9921391186731
 21
402.10702646621087
 31
0.0
  0
LINE
  5
11C
330
17
100
AcDbEntity
  8
HIDDEN
100
AcDbLine
 10
424.30834109597265
 20
403.0791677078779
 30
0.0
 11
585.9529512752174
 21
496.40472690791705
 31
0.0
  0
LINE
  5
11D
330
17
100
AcDbEntity
  8
VISIBLE
100
AcDbLine
 10
424.30834109597265
 20
420.7008713930228
 30
0.0
 11
425.9921391186731
 21
419.7287301513557
 31
0.0
  0
LINE
  5
11E
330
17
100
AcDbEntity
  8
VISIBLE
100
AcDbLine
 10
424.30834109597265
 20
420.7008713930228
 30
0.0
 11
425.9921391186731
 21
421.6730126346898
 31
0.0
  0
LINE
  5
11F
330
17
100
AcDbEntity
  8
VISIBLE
100
AcDbLine
 10
425.9921391186731
 20
402.10702646621087
 30
0.0
 11
425.9921391186731
 21
419.7287301513557
 31
0.0
  0
LINE
  5
120
330
17
100
AcDbEntity
  8
VISIBLE
100
AcDbLine
 10
425.9921391186731
 20
402.10702646621087
 30
0.0
 11
445.6364493835119
 21
413.44867428566
 31
0.0
  0
LINE
  5
121
330
17
100
AcDbEntity
  8
VISIBLE
100
AcDbLine
 10
425.9921391186731
 20
419.7287301513557
 30
0.0
 11
425.9921391186731
 21
423.00785605114464
 31
0.0
  0
LINE
  5
122
330
17
100
AcDbEntity
  8
VISIBLE
100
AcDbLine
 10
425.9921391186731
 20
419.7287301513557
 30
0.0
 11
437.70634023580016
 21
417.4743310952508
 31
0.0
  0
LINE
  5
123
330
17
100
AcDbEntity
  8
HIDDEN
100
AcDbLine
 10
425.9921391186731
 20
419.7287301513557
 30
0.0
 11
587.636749297918
 21
513.0542893513948
 31
0.0
  0
LINE
  5
124
330
17
100
AcDbEntity
  8
HIDDEN
100
AcDbLine
 10
425.9921391186731
 20
421.6730126346898
 30
0.0
 11
585.9529512752174
 21
514.0264305930618
 31
0.0
  0
LINE
  5
125
330
17
100
AcDbEntity
  8
VISIBLE
100
AcDbLine
 10
425.9921391186731
 20
423.00785605114464
 30
0.0
 11
437.70634023580016
 21
420.75345699503976
 31
0.0
  0
LINE
  5
126
330
17
100
AcDbEntity
  8
HIDDEN
100
AcDbLine
 10
425.9921391186731
 20
423.00785605114464
 30
0.0
 11
587.636749297918
 21
516.3334152511837
 31
0.0
  0
LINE
  5
127
330
17
100
AcDbEntity
  8
VISIBLE
100
AcDbLine
 10
437.70634023580016
 20
417.4743310952508
 30
0.0
 11
437.70634023580016
 21
420.75345699503976
 31
0.0
  0
LINE
  5
128
330
17
100
AcDbEntity
  8
VISIBLE
100
AcDbLine
 10
437.70634023580016
 20
417.4743310952508
 30
0.0
 11
441.9660497329372
 21
419.9336755200925
 31
0.0
  0
LINE
  5
129
330
17
100
AcDbEntity
  8
HIDDEN
100
AcDbLine
 10
437.70634023580016
 20
420.75345699503976
 30
0.0
 11
599.350950415045
 21
514.0790161950788
 31
0.0
  0
LINE
  5
12A
330
17
100
AcDbEntity
  8
HIDDEN
100
AcDbLine
 10
441.9660497329372
 20
419.9336755200925
 30
0.0
 11
599.350950415045
 21
510.79989029528986
 31
0.0
  0
LINE
  5
12B
330
17
100
AcDbEntity
  8
VISIBLE
100
AcDbLine
 10
442.26885333811094
 20
414.0967684467714
 30
0.0
 11
442.26885333811094
 21
419.87540093910627
 31
0.0
  0
LINE
  5
12C
330
17
100
AcDbEntity
  8
HIDDEN
100
AcDbLine
 10
442.26885333811094
 20
414.0967684467714
 30
0.0
 11
450.12657744404646
 21
418.6334275745511
 31
0.0
  0
LINE
  5
12D
330
17
100
AcDbEntity
  8
VISIBLE
100
AcDbLine
 10
442.26885333811094
 20
414.0967684467714
 30
0.0
 11
523.0911584277334
 21
398.54250858009823
 31
0.0
  0
LINE
  5
12E
330
17
100
AcDbEntity
  8
HIDDEN
100
AcDbLine
 10
442.26885333811094
 20
419.87540093910627
 30
0.0
 11
442.26885333811094
 21
429.1260954874707
 31
0.0
  0
LINE
  5
12F
330
17
100
AcDbEntity
  8
HIDDEN
100
AcDbLine
 10
442.26885333811094
 20
429.1260954874707
 30
0.0
 11
450.12657744404646
 21
433.6627546152504
 31
0.0
  0
LINE
  5
130
330
17
100
AcDbEntity
  8
HIDDEN
100
AcDbLine
 10
442.26885333811094
 20
429.1260954874707
 30
0.0
 11
523.0911584277334
 21
413.5718356207975
 31
0.0
  0
LINE
  5
131
330
17
100
AcDbEntity
  8
HIDDEN
100
AcDbLine
 10
445.6364493835119
 20
413.44867428566
 30
0.0
 11
587.636749297918
 21
495.4325856662499
 31
0.0
  0
LINE
  5
132
330
17
100
AcDbEntity
  8
VISIBLE
100
AcDbLine
 10
449.02817377617157
 20
415.2954432144996
 30
0.0
 11
449.02817377617157
 21
418.5745691142886
 31
0.0
  0
LINE
  5
133
330
17
100
AcDbEntity
  8
VISIBLE
100
AcDbLine
 10
449.02817377617157
 20
415.2954432144995
 30
0.0
 11
460.7423748932986
 21
413.04104415839464
 31
0.0
  0
LINE
  5
134
330
17
100
AcDbEntity
  8
HIDDEN
100
AcDbLine
 10
449.02817377617157
 20
415.2954432144996
 30
0.0
 11
610.6727839554163
 21
508.6210024145387
 31
0.0
  0
LINE
  5
135
330
17
100
AcDbEntity
  8
VISIBLE
100
AcDbLine
 10
449.02817377617157
 20
418.5745691142886
 30
0.0
 11
460.7423748932986
 21
416.3201700581837
 31
0.0
  0
LINE
  5
136
330
17
100
AcDbEntity
  8
HIDDEN
100
AcDbLine
 10
449.02817377617157
 20
418.5745691142886
 30
0.0
 11
610.6727839554163
 21
511.90012831432773
 31
0.0
  0
LINE
  5
137
330
17
100
AcDbEntity
  8
HIDDEN
100
AcDbLine
 10
450.12657744404646
 20
418.6334275745511
 30
0.0
 11
450.12657744404646
 21
433.6627546152504
 31
0.0
  0
LINE
  5
138
330
17
100
AcDbEntity
  8
HIDDEN
100
AcDbLine
 10
450.12657744404646
 20
418.6334275745511
 30
0.0
 11
530.9488825336689
 21
403.0791677078779
 31
0.0
  0
LINE
  5
139
330
17
100
AcDbEntity
  8
HIDDEN
100
AcDbLine
 10
450.12657744404646
 20
433.6627546152504
 30
0.0
 11
530.9488825336689
 21
418.1084947485772
 31
0.0
  0
LINE
  5
13A
330
17
100
AcDbEntity
  8
VISIBLE
100
AcDbLine
 10
460.7423748932986
 20
413.04104415839464
 30
0.0
 11
460.7423748932986
 21
416.32017005818363
 31
0.0
  0
LINE
  5
13B
330
17
100
AcDbEntity
  8
VISIBLE
100
AcDbLine
 10
460.7423748932986
 20
413.04104415839464
 30
0.0
 11
465.0020843904358
 21
415.5003885832364
 31
0.0
  0
LINE
  5
13C
330
17
100
AcDbEntity
  8
HIDDEN
100
AcDbLine
 10
460.7423748932986
 20
416.32017005818363
 30
0.0
 11
622.3869850725434
 21
509.6457292582228
 31
0.0
  0
LINE
  5
13D
330
17
100
AcDbEntity
  8
HIDDEN
100
AcDbLine
 10
465.0020843904358
 20
415.5003885832364
 30
0.0
 11
622.3869850725434
 21
506.36660335843374
 31
0.0
  0
LINE
  5
13E
330
17
100
AcDbEntity
  8
VISIBLE
100
AcDbLine
 10
470.3321537164521
 20
408.6959837708432
 30
0.0
 11
477.96194930402464
 21
407.2276289253943
 31
0.0
  0
LINE
  5
13F
330
17
100
AcDbEntity
  8
HIDDEN
100
AcDbLine
 10
470.3321537164521
 20
408.6959837708432
 30
0.0
 11
478.18987782238764
 21
413.2326428986229
 31
0.0
  0
LINE
  5
140
330
17
100
AcDbEntity
  8
VISIBLE
100
AcDbLine
 10
472.06420843367005
 20
410.8621562776435
 30
0.0
 11
472.06420843367005
 21
414.14128217743246
 31
0.0
  0
LINE
  5
141
330
17
100
AcDbEntity
  8
VISIBLE
100
AcDbLine
 10
472.06420843367005
 20
410.8621562776435
 30
0.0
 11
483.77840955079705
 21
408.6077572215386
 31
0.0
  0
LINE
  5
142
330
17
100
AcDbEntity
  8
HIDDEN
100
AcDbLine
 10
472.06420843367005
 20
410.8621562776435
 30
0.0
 11
633.7088186129148
 21
504.18771547768256
 31
0.0
  0
LINE
  5
143
330
17
100
AcDbEntity
  8
VISIBLE
100
AcDbLine
 10
472.06420843367005
 20
414.14128217743246
 30
0.0
 11
483.77840955079705
 21
411.8868831213275
 31
0.0
  0
LINE
  5
144
330
17
100
AcDbEntity
  8
HIDDEN
100
AcDbLine
 10
472.06420843367005
 20
414.14128217743246
 30
0.0
 11
633.7088186129148
 21
507.4668413774715
 31
0.0
  0
LINE
  5
145
330
17
100
AcDbEntity
  8
HIDDEN
100
AcDbLine
 10
477.96194930402464
 20
407.2276289253943
 30
0.0
 11
485.81967340996016
 21
411.76428805317397
 31
0.0
  0
LINE
  5
146
330
17
100
AcDbEntity
  8
HIDDEN
100
AcDbLine
 10
478.1898778223876
 20
413.23264289862294
 30
0.0
 11
485.81967340996016
 21
411.764288053174
 31
0.0
  0
LINE
  5
147
330
17
100
AcDbEntity
  8
VISIBLE
100
AcDbLine
 10
483.77840955079705
 20
408.6077572215386
 30
0.0
 11
483.77840955079705
 21
411.8868831213275
 31
0.0
  0
LINE
  5
148
330
17
100
AcDbEntity
  8
VISIBLE
100
AcDbLine
 10
483.77840955079705
 20
408.6077572215386
 30
0.0
 11
488.0381190479342
 21
411.0671016463803
 31
0.0
  0
LINE
  5
149
330
17
100
AcDbEntity
  8
HIDDEN
100
AcDbLine
 10
483.77840955079705
 20
411.8868831213275
 30
0.0
 11
645.4230197300418
 21
505.21244232136667
 31
0.0
  0
LINE
  5
14A
330
17
100
AcDbEntity
  8
HIDDEN
100
AcDbLine
 10
488.0381190479342
 20
411.0671016463803
 30
0.0
 11
645.4230197300418
 21
501.93331642157773
 31
0.0
  0
LINE
  5
14B
330
17
100
AcDbEntity
  8
VISIBLE
100
AcDbLine
 10
495.1002430911685
 20
406.4288693407874
 30
0.0
 11
495.1002430911685
 21
409.70799524057634
 31
0.0
  0
LINE
  5
14C
330
17
100
AcDbEntity
  8
VISIBLE
100
AcDbLine
 10
495.1002430911685
 20
406.4288693407874
 30
0.0
 11
506.8144442082955
 21
404.1744702846825
 31
0.0
  0
LINE
  5
14D
330
17
100
AcDbEntity
  8
HIDDEN
100
AcDbLine
 10
495.1002430911685
 20
406.4288693407874
 30
0.0
 11
656.7448532704133
 21
499.75442854082644
 31
0.0
  0
LINE
  5
14E
330
17
100
AcDbEntity
  8
VISIBLE
100
AcDbLine
 10
495.1002430911685
 20
409.70799524057634
 30
0.0
 11
506.8144442082955
 21
407.4535961844714
 31
0.0
  0
LINE
  5
14F
330
17
100
AcDbEntity
  8
HIDDEN
100
AcDbLine
 10
495.1002430911685
 20
409.70799524057634
 30
0.0
 11
656.7448532704133
 21
503.0335544406154
 31
0.0
  0
LINE
  5
150
330
17
100
AcDbEntity
  8
VISIBLE
100
AcDbLine
 10
495.1002430911685
 20
411.34755819047075
 30
0.0
 11
495.1002430911685
 21
411.477177022693
 31
0.0
  0
LINE
  5
151
330
17
100
AcDbEntity
  8
VISIBLE
100
AcDbLine
 10
495.1002430911685
 20
411.3475581904708
 30
0.0
 11
506.8144442082955
 21
409.0931591343659
 31
0.0
  0
LINE
  5
152
330
17
100
AcDbEntity
  8
HIDDEN
100
AcDbLine
 10
495.1002430911685
 20
411.34755819047075
 30
0.0
 11
656.7448532704133
 21
504.6731173905099
 31
0.0
  0
LINE
  5
153
330
17
100
AcDbEntity
  8
VISIBLE
100
AcDbLine
 10
495.1002430911685
 20
411.4771770226931
 30
0.0
 11
506.8144442082955
 21
409.2227779665882
 31
0.0
  0
LINE
  5
154
330
17
100
AcDbEntity
  8
VISIBLE
100
AcDbLine
 10
495.1002430911685
 20
411.4771770226931
 30
0.0
 11
506.8144442082955
 21
418.2403741910078
 31
0.0
  0
LINE
  5
155
330
17
100
AcDbEntity
  8
VISIBLE
100
AcDbLine
 10
506.8144442082955
 20
404.1744702846825
 30
0.0
 11
506.8144442082955
 21
407.45359618447145
 31
0.0
  0
LINE
  5
156
330
17
100
AcDbEntity
  8
VISIBLE
100
AcDbLine
 10
506.8144442082955
 20
404.1744702846825
 30
0.0
 11
668.4590543875403
 21
497.5000294847216
 31
0.0
  0
LINE
  5
157
330
17
100
AcDbEntity
  8
VISIBLE
100
AcDbLine
 10
506.8144442082955
 20
407.4535961844714
 30
0.0
 11
506.8144442082955
 21
408.5466381510677
 31
0.0
  0
LINE
  5
158
330
17
100
AcDbEntity
  8
VISIBLE
100
AcDbLine
 10
506.8144442082955
 20
407.45359618447145
 30
0.0
 11
668.4590543875403
 21
500.77915538451055
 31
0.0
  0
LINE
  5
159
330
17
100
AcDbEntity
  8
VISIBLE
100
AcDbLine
 10
506.8144442082955
 20
408.5466381510677
 30
0.0
 11
668.4590543875403
 21
501.8721973511068
 31
0.0
  0
LINE
  5
15A
330
17
100
AcDbEntity
  8
VISIBLE
100
AcDbLine
 10
506.8144442082955
 20
409.0931591343659
 30
0.0
 11
506.92669740980887
 21
409.0283497182548
 31
0.0
  0
LINE
  5
15B
330
17
100
AcDbEntity
  8
HIDDEN
100
AcDbLine
 10
506.8144442082955
 20
409.0931591343659
 30
0.0
 11
668.4590543875403
 21
502.41871833440507
 31
0.0
  0
LINE
  5
15C
330
17
100
AcDbEntity
  8
VISIBLE
100
AcDbLine
 10
506.8144442082955
 20
409.2227779665882
 30
0.0
 11
506.8144442082955
 21
424.6474190010391
 31
0.0
  0
LINE
  5
15D
330
17
100
AcDbEntity
  8
HIDDEN
100
AcDbLine
 10
506.8144442082955
 20
409.2227779665882
 30
0.0
 11
668.4590543875403
 21
502.54833716662733
 31
0.0
  0
LINE
  5
15E
330
17
100
AcDbEntity
  8
HIDDEN
100
AcDbLine
 10
506.8144442082955
 20
418.2403741910078
 30
0.0
 11
656.7448532704133
 21
504.80273622273216
 31
0.0
  0
LINE
  5
15F
330
17
100
AcDbEntity
  8
VISIBLE
100
AcDbLine
 10
506.8144442082955
 20
424.6474190010391
 30
0.0
 11
506.92669740980887
 21
424.582609584928
 31
0.0
  0
LINE
  5
160
330
17
100
AcDbEntity
  8
VISIBLE
100
AcDbLine
 10
506.8144442082955
 20
424.6474190010391
 30
0.0
 11
668.4590543875403
 21
517.9729782010783
 31
0.0
  0
LINE
  5
161
330
17
100
AcDbEntity
  8
VISIBLE
100
AcDbLine
 10
506.92669740980887
 20
409.0283497182548
 30
0.0
 11
506.92669740980887
 21
424.582609584928
 31
0.0
  0
LINE
  5
162
330
17
100
AcDbEntity
  8
VISIBLE
100
AcDbLine
 10
506.92669740980887
 20
409.0283497182548
 30
0.0
 11
668.5713075890537
 21
502.3539089182939
 31
0.0
  0
LINE
  5
163
330
17
100
AcDbEntity
  8
VISIBLE
100
AcDbLine
 10
506.92669740980887
 20
424.582609584928
 30
0.0
 11
668.5713075890537
 21
517.9081687849671
 31
0.0
  0
LINE
  5
164
330
17
100
AcDbEntity
  8
VISIBLE
100
AcDbLine
 10
515.2334343217979
 20
309.7536085078388
 30
0.0
 11
515.2334343217979
 21
403.0791677078779
 31
0.0
  0
LINE
  5
165
330
17
100
AcDbEntity
  8
VISIBLE
100
AcDbLine
 10
515.2334343217979
 20
309.75360850783875
 30
0.0
 11
523.0911584277334
 21
305.2169493800591
 31
0.0
  0
LINE
  5
166
330
17
100
AcDbEntity
  8
HIDDEN
100
AcDbLine
 10
515.2334343217979
 20
309.7536085078388
 30
0.0
 11
523.0911584277334
 21
314.2902676356185
 31
0.0
  0
LINE
  5
167
330
17
100
AcDbEntity
  8
VISIBLE
100
AcDbLine
 10
515.2334343217979
 20
314.93836179672985
 30
0.0
 11
515.2334343217979
 21
324.82629194390637
 31
0.0
  0
LINE
  5
168
330
17
100
AcDbEntity
  8
HIDDEN
100
AcDbLine
 10
515.2334343217979
 20
314.93836179672985
 30
0.0
 11
523.0911584277334
 21
319.4750209245095
 31
0.0
  0
LINE
  5
169
330
17
100
AcDbEntity
  8
HIDDEN
100
AcDbLine
 10
515.2334343217979
 20
324.8262919439063
 30
0.0
 11
523.0911584277334
 21
329.362951071686
 31
0.0
  0
LINE
  5
16A
330
17
100
AcDbEntity
  8
VISIBLE
100
AcDbLine
 10
515.2334343217979
 20
403.0791677078779
 30
0.0
 11
523.0911584277334
 21
398.54250858009823
 31
0.0
  0
LINE
  5
16B
330
17
100
AcDbEntity
  8
HIDDEN
100
AcDbLine
 10
515.2334343217979
 20
403.0791677078779
 30
0.0
 11
523.0911584277334
 21
407.6158268356576
 31
0.0
  0
LINE
  5
16C
330
17
100
AcDbEntity
  8
VISIBLE
100
AcDbLine
 10
523.0911584277334
 20
305.2169493800591
 30
0.0
 11
523.0911584277334
 21
398.54250858009823
 31
0.0
  0
LINE
  5
16D
330
17
100
AcDbEntity
  8
VISIBLE
100
AcDbLine
 10
523.0911584277334
 20
305.2169493800591
 30
0.0
 11
530.9488825336689
 21
309.75360850783875
 31
0.0
  0
LINE
  5
16E
330
17
100
AcDbEntity
  8
HIDDEN
100
AcDbLine
 10
523.0911584277334
 20
314.2902676356185
 30
0.0
 11
530.9488825336689
 21
309.7536085078388
 31
0.0
  0
LINE
  5
16F
330
17
100
AcDbEntity
  8
VISIBLE
100
AcDbLine
 10
523.0911584277334
 20
398.54250858009823
 30
0.0
 11
523.0911584277334
 21
413.5718356207975
 31
0.0
  0
LINE
  5
170
330
17
100
AcDbEntity
  8
VISIBLE
100
AcDbLine
 10
523.0911584277334
 20
398.54250858009823
 30
0.0
 11
530.9488825336689
 21
403.0791677078779
 31
0.0
  0
LINE
  5
171
330
17
100
AcDbEntity
  8
HIDDEN
100
AcDbLine
 10
523.0911584277334
 20
407.6158268356576
 30
0.0
 11
530.9488825336689
 21
403.0791677078779
 31
0.0
  0
LINE
  5
172
330
17
100
AcDbEntity
  8
VISIBLE
100
AcDbLine
 10
523.0911584277334
 20
413.5718356207975
 30
0.0
 11
530.9488825336689
 21
418.1084947485772
 31
0.0
  0
LINE
  5
173
330
17
100
AcDbEntity
  8
VISIBLE
100
AcDbLine
 10
530.9488825336689
 20
309.75360850783886
 30
0.0
 11
530.9488825336689
 21
403.0791677078779
 31
0.0
  0
LINE
  5
174
330
17
100
AcDbEntity
  8
VISIBLE
100
AcDbLine
 10
530.9488825336689
 20
403.0791677078779
 30
0.0
 11
530.9488825336689
 21
418.10849474857724
 31
0.0
  0
LINE
  5
175
330
17
100
AcDbEntity
  8
HIDDEN
100
AcDbLine
 10
563.5023109725446
 20
484.09093784680067
 30
0.0
 11
563.5023109725446
 21
499.12026488750007
 31
0.0
  0
LINE
  5
176
330
17
100
AcDbEntity
  8
HIDDEN
100
AcDbLine
 10
563.5023109725446
 20
484.09093784680067
 30
0.0
 11
571.3600350784801
 21
488.62759697458034
 31
0.0
  0
LINE
  5
177
330
17
100
AcDbEntity
  8
HIDDEN
100
AcDbLine
 10
563.5023109725446
 20
484.09093784680067
 30
0.0
 11
624.8009475336219
 21
472.2940097403024
 31
0.0
  0
LINE
  5
178
330
17
100
AcDbEntity
  8
HIDDEN
100
AcDbLine
 10
563.5023109725446
 20
499.12026488750007
 30
0.0
 11
571.3600350784801
 21
503.65692401527974
 31
0.0
  0
LINE
  5
179
330
17
100
AcDbEntity
  8
HIDDEN
100
AcDbLine
 10
563.5023109725446
 20
499.12026488750007
 30
0.0
 11
644.3246160621669
 21
483.5660050208269
 31
0.0
  0
LINE
  5
17A
330
17
100
AcDbEntity
  8
HIDDEN
100
AcDbLine
 10
571.3600350784801
 20
488.62759697458034
 30
0.0
 11
571.3600350784801
 21
503.65692401527974
 31
0.0
  0
LINE
  5
17B
330
17
100
AcDbEntity
  8
HIDDEN
100
AcDbLine
 10
571.3600350784801
 20
488.62759697458046
 30
0.0
 11
652.1823401681024
 21
473.07333710790726
 31
0.0
  0
LINE
  5
17C
330
17
100
AcDbEntity
  8
HIDDEN
100
AcDbLine
 10
571.3600350784801
 20
503.65692401527974
 30
0.0
 11
652.1823401681024
 21
488.10266414860655
 31
0.0
  0
LINE
  5
17D
330
17
100
AcDbEntity
  8
HIDDEN
100
AcDbLine
 10
582.5853552298165
 20
517.3055564928508
 30
0.0
 11
582.5853552298165
 21
518.398598459447
 31
0.0
  0
LINE
  5
17E
330
17
100
AcDbEntity
  8
HIDDEN
100
AcDbLine
 10
582.5853552298165
 20
517.3055564928509
 30
0.0
 11
668.4590543875403
 21
500.77915538451055
 31
0.0
  0
LINE
  5
17F
330
17
100
AcDbEntity
  8
VISIBLE
100
AcDbLine
 10
582.5853552298165
 20
518.3985984594472
 30
0.0
 11
647.5435265322785
 21
505.89739256359974
 31
0.0
  0
LINE
  5
180
330
17
100
AcDbEntity
  8
HIDDEN
100
AcDbLine
 10
585.9529512752174
 20
496.40472690791705
 30
0.0
 11
585.9529512752174
 21
514.026430593062
 31
0.0
  0
LINE
  5
181
330
17
100
AcDbEntity
  8
HIDDEN
100
AcDbLine
 10
585.9529512752174
 20
496.40472690791705
 30
0.0
 11
587.636749297918
 21
495.4325856662499
 31
0.0
  0
LINE
  5
182
330
17
100
AcDbEntity
  8
HIDDEN
100
AcDbLine
 10
585.9529512752174
 20
514.0264305930618
 30
0.0
 11
587.636749297918
 21
513.0542893513948
 31
0.0
  0
LINE
  5
183
330
17
100
AcDbEntity
  8
HIDDEN
100
AcDbLine
 10
587.636749297918
 20
495.4325856662499
 30
0.0
 11
587.636749297918
 21
513.0542893513948
 31
0.0
  0
LINE
  5
184
330
17
100
AcDbEntity
  8
HIDDEN
100
AcDbLine
 10
587.636749297918
 20
513.0542893513948
 30
0.0
 11
587.636749297918
 21
516.3334152511837
 31
0.0
  0
LINE
  5
185
330
17
100
AcDbEntity
  8
HIDDEN
100
AcDbLine
 10
587.636749297918
 20
513.0542893513948
 30
0.0
 11
599.350950415045
 21
510.79989029528986
 31
0.0
  0
LINE
  5
186
330
17
100
AcDbEntity
  8
HIDDEN
100
AcDbLine
 10
587.636749297918
 20
516.3334152511837
 30
0.0
 11
599.350950415045
 21
514.0790161950789
 31
0.0
  0
LINE
  5
187
330
17
100
AcDbEntity
  8
HIDDEN
100
AcDbLine
 10
591.5656113508857
 20
478.6901531708726
 30
0.0
 11
599.1954069384582
 21
477.2217983254236
 31
0.0
  0
LINE
  5
188
330
17
100
AcDbEntity
  8
HIDDEN
100
AcDbLine
 10
591.5656113508857
 20
478.69015317087246
 30
0.0
 11
599.4233354568212
 21
483.22681229865213
 31
0.0
  0
LINE
  5
189
330
17
100
AcDbEntity
  8
HIDDEN
100
AcDbLine
 10
599.1954069384583
 20
477.2217983254236
 30
0.0
 11
607.0531310443938
 21
481.7584574532033
 31
0.0
  0
LINE
  5
18A
330
17
100
AcDbEntity
  8
HIDDEN
100
AcDbLine
 10
599.350950415045
 20
510.79989029528986
 30
0.0
 11
599.350950415045
 21
514.0790161950788
 31
0.0
  0
LINE
  5
18B
330
17
100
AcDbEntity
  8
HIDDEN
100
AcDbLine
 10
599.4233354568212
 20
483.22681229865225
 30
0.0
 11
607.0531310443937
 21
481.7584574532033
 31
0.0
  0
LINE
  5
18C
330
17
100
AcDbEntity
  8
HIDDEN
100
AcDbLine
 10
610.6727839554164
 20
508.6210024145387
 30
0.0
 11
610.6727839554164
 21
511.90012831432773
 31
0.0
  0
LINE
  5
18D
330
17
100
AcDbEntity
  8
HIDDEN
100
AcDbLine
 10
610.6727839554163
 20
508.6210024145387
 30
0.0
 11
622.3869850725434
 21
506.36660335843374
 31
0.0
  0
LINE
  5
18E
330
17
100
AcDbEntity
  8
HIDDEN
100
AcDbLine
 10
610.6727839554164
 20
511.9001283143276
 30
0.0
 11
622.3869850725434
 21
509.6457292582228
 31
0.0
  0
LINE
  5
18F
330
17
100
AcDbEntity
  8
HIDDEN
100
AcDbLine
 10
622.3869850725434
 20
506.36660335843374
 30
0.0
 11
622.3869850725434
 21
509.6457292582228
 31
0.0
  0
LINE
  5
190
330
17
100
AcDbEntity
  8
VISIBLE
100
AcDbLine
 10
624.8009475336219
 20
472.2940097403024
 30
0.0
 11
644.3246160621669
 21
468.5366779801275
 31
0.0
  0
LINE
  5
191
330
17
100
AcDbEntity
  8
HIDDEN
100
AcDbLine
 10
633.7088186129148
 20
504.18771547768256
 30
0.0
 11
633.7088186129148
 21
507.4668413774715
 31
0.0
  0
LINE
  5
192
330
17
100
AcDbEntity
  8
HIDDEN
100
AcDbLine
 10
633.7088186129148
 20
504.18771547768256
 30
0.0
 11
645.4230197300418
 21
501.93331642157773
 31
0.0
  0
LINE
  5
193
330
17
100
AcDbEntity
  8
HIDDEN
100
AcDbLine
 10
633.7088186129148
 20
507.4668413774715
 30
0.0
 11
645.4230197300419
 21
505.21244232136667
 31
0.0
  0
LINE
  5
194
330
17
100
AcDbEntity
  8
VISIBLE
100
AcDbLine
 10
636.4668919562314
 20
379.7477779078681
 30
0.0
 11
636.4668919562314
 21
473.07333710790715
 31
0.0
  0
LINE
  5
195
330
17
100
AcDbEntity
  8
VISIBLE
100
AcDbLine
 10
636.4668919562314
 20
379.7477779078681
 30
0.0
 11
644.3246160621669
 21
375.21111878008844
 31
0.0
  0
LINE
  5
196
330
17
100
AcDbEntity
  8
HIDDEN
100
AcDbLine
 10
636.4668919562314
 20
379.7477779078681
 30
0.0
 11
644.3246160621669
 21
384.2844370356478
 31
0.0
  0
LINE
  5
197
330
17
100
AcDbEntity
  8
VISIBLE
100
AcDbLine
 10
636.4668919562314
 20
384.93253119675916
 30
0.0
 11
636.4668919562314
 21
394.8204613439357
 31
0.0
  0
LINE
  5
198
330
17
100
AcDbEntity
  8
HIDDEN
100
AcDbLine
 10
636.4668919562314
 20
384.93253119675916
 30
0.0
 11
644.3246160621669
 21
389.46919032453883
 31
0.0
  0
LINE
  5
199
330
17
100
AcDbEntity
  8
HIDDEN
100
AcDbLine
 10
636.4668919562314
 20
394.8204613439357
 30
0.0
 11
644.324616062167
 21
399.35712047171535
 31
0.0
  0
LINE
  5
19A
330
17
100
AcDbEntity
  8
VISIBLE
100
AcDbLine
 10
636.4668919562314
 20
473.07333710790726
 30
0.0
 11
644.3246160621669
 21
468.5366779801276
 31
0.0
  0
LINE
  5
19B
330
17
100
AcDbEntity
  8
HIDDEN
100
AcDbLine
 10
636.4668919562314
 20
473.07333710790726
 30
0.0
 11
644.3246160621669
 21
477.60999623568694
 31
0.0
  0
LINE
  5
19C
330
17
100
AcDbEntity
  8
VISIBLE
100
AcDbLine
 10
644.3246160621669
 20
375.21111878008844
 30
0.0
 11
644.3246160621669
 21
468.5366779801275
 31
0.0
  0
LINE
  5
19D
330
17
100
AcDbEntity
  8
VISIBLE
100
AcDbLine
 10
644.3246160621669
 20
375.21111878008844
 30
0.0
 11
652.1823401681024
 21
379.7477779078681
 31
0.0
  0
LINE
  5
19E
330
17
100
AcDbEntity
  8
HIDDEN
100
AcDbLine
 10
644.3246160621669
 20
384.2844370356478
 30
0.0
 11
652.1823401681024
 21
379.7477779078681
 31
0.0
  0
LINE
  5
19F
330
17
100
AcDbEntity
  8
VISIBLE
100
AcDbLine
 10
644.3246160621669
 20
468.5366779801276
 30
0.0
 11
644.3246160621669
 21
483.5660050208269
 31
0.0
  0
LINE
  5
1A0
330
17
100
AcDbEntity
  8
VISIBLE
100
AcDbLine
 10
644.3246160621669
 20
468.5366779801275
 30
0.0
 11
652.1823401681024
 21
473.07333710790715
 31
0.0
  0
LINE
  5
1A1
330
17
100
AcDbEntity
  8
HIDDEN
100
AcDbLine
 10
644.3246160621669
 20
477.60999623568694
 30
0.0
 11
652.1823401681024
 21
473.07333710790726
 31
0.0
  0
LINE
  5
1A2
330
17
100
AcDbEntity
  8
VISIBLE
100
AcDbLine
 10
644.3246160621669
 20
483.5660050208269
 30
0.0
 11
652.1823401681024
 21
488.10266414860655
 31
0.0
  0
LINE
  5
1A3
330
17
100
AcDbEntity
  8
HIDDEN
100
AcDbLine
 10
645.4230197300418
 20
501.93331642157773
 30
0.0
 11
645.4230197300418
 21
505.21244232136667
 31
0.0
  0
LINE
  5
1A4
330
17
100
AcDbEntity
  8
HIDDEN
100
AcDbLine
 10
647.5435265322785
 20
505.89739256359974
 30
0.0
 11
667.9174826069542
 21
501.97642288887585
 31
0.0
  0
LINE
  5
1A5
330
17
100
AcDbEntity
  8
VISIBLE
100
AcDbLine
 10
652.1823401681024
 20
379.7477779078681
 30
0.0
 11
652.1823401681024
 21
473.07333710790726
 31
0.0
  0
LINE
  5
1A6
330
17
100
AcDbEntity
  8
VISIBLE
100
AcDbLine
 10
652.1823401681024
 20
473.07333710790726
 30
0.0
 11
652.1823401681024
 21
488.10266414860655
 31
0.0
  0
LINE
  5
1A7
330
17
100
AcDbEntity
  8
HIDDEN
100
AcDbLine
 10
656.7448532704133
 20
499.75442854082644
 30
0.0
 11
656.7448532704133
 21
503.0335544406154
 31
0.0
  0
LINE
  5
1A8
330
17
100
AcDbEntity
  8
HIDDEN
100
AcDbLine
 10
656.7448532704133
 20
499.75442854082655
 30
0.0
 11
668.4590543875403
 21
497.5000294847216
 31
0.0
  0
LINE
  5
1A9
330
17
100
AcDbEntity
  8
HIDDEN
100
AcDbLine
 10
656.7448532704133
 20
503.0335544406154
 30
0.0
 11
668.4590543875403
 21
500.77915538451055
 31
0.0
  0
LINE
  5
1AA
330
17
100
AcDbEntity
  8
HIDDEN
100
AcDbLine
 10
656.7448532704133
 20
504.6731173905099
 30
0.0
 11
656.7448532704133
 21
504.80273622273216
 31
0.0
  0
LINE
  5
1AB
330
17
100
AcDbEntity
  8
HIDDEN
100
AcDbLine
 10
656.7448532704133
 20
504.6731173905099
 30
0.0
 11
668.4590543875403
 21
502.41871833440496
 31
0.0
  0
LINE
  5
1AC
330
17
100
AcDbEntity
  8
HIDDEN
100
AcDbLine
 10
656.7448532704133
 20
504.80273622273216
 30
0.0
 11
668.4590543875403
 21
502.54833716662733
 31
0.0
  0
LINE
  5
1AD
330
17
100
AcDbEntity
  8
VISIBLE
100
AcDbLine
 10
667.9174826069542
 20
501.97642288887585
 30
0.0
 11
668.4590543875403
 21
501.8721973511068
 31
0.0
  0
LINE
  5
1AE
330
17
100
AcDbEntity
  8
VISIBLE
100
AcDbLine
 10
668.4590543875403
 20
497.5000294847216
 30
0.0
 11
668.4590543875403
 21
500.77915538451055
 31
0.0
  0
LINE
  5
1AF
330
17
100
AcDbEntity
  8
VISIBLE
100
AcDbLine
 10
668.4590543875403
 20
500.77915538451055
 30
0.0
 11
668.4590543875403
 21
501.8721973511068
 31
0.0
  0
LINE
  5
1B0
330
17
100
AcDbEntity
  8
HIDDEN
100
AcDbLine
 10
668.4590543875403
 20
502.41871833440496
 30
0.0
 11
668.5713075890537
 21
502.3539089182939
 31
0.0
  0
LINE
  5
1B1
330
17
100
AcDbEntity
  8
HIDDEN
100
AcDbLine
 10
668.4590543875403
 20
502.5483371666272
 30
0.0
 11
668.4590543875403
 21
517.9729782010781
 31
0.0
  0
LINE
  5
1B2
330
17
100
AcDbEntity
  8
VISIBLE
100
AcDbLine
 10
668.4590543875403
 20
517.9729782010781
 30
0.0
 11
668.5713075890537
 21
517.9081687849671
 31
0.0
  0
LINE
  5
1B3
330
17
100
AcDbEntity
  8
VISIBLE
100
AcDbLine
 10
668.5713075890537
 20
502.3539089182939
 30
0.0
 11
668.5713075890537
 21
517.9081687849671
 31
0.0
  0
LWPOLYLINE
  5
1B4
330
17
100
AcDbEntity
  8
VISIBLE
100
AcDbPolyline
 90
33
 70
0
 10
515.2334343217979
 20
314.93836179672985
 10
513.0021529818655
 20
317.31999884099946
 10
510.8036805076021
 20
319.76798056277175
 10
508.64046104355725
 20
322.279585426411
 10
506.5148995418623
 20
324.8520211634627
 10
504.4293590885327
 20
327.4824278769486
 10
502.38615827631486
 20
330.16788122084756
 10
500.3875686269983
 20
332.90539565122845
 10
498.4358120660588
 20
335.69192774541807
 10
496.53305845244006
 20
338.5243795855165
 10
494.68142316622
 20
341.39960220249725
 10
492.88296475684405
 20
344.3143990770632
 10
491.1396826545395
 20
347.26552969336626
 10
489.4535149474557
 20
350.2497131416404
 10
487.82633622700064
 20
353.2636317657425
 10
486.25995550377024
 20
356.303934851545
 10
484.75611419638693
 20
359.36724235208203
 10
483.3164841954828
 20
362.45014864530503
 10
481.94266600498116
 20
365.5492263202723
 10
480.6361869627413
 20
368.6610299875614
 10
479.39849954254566
 20
371.78210010966984
 10
478.2309797393168
 20
374.90896684714437
 10
477.13492553936
 20
378.0381539161639
 10
476.1115554773305
 20
381.16618245328596
 10
475.1620072815323
 20
384.2895748830624
 10
474.28733660905215
 20
387.40485878422214
 10
473.48851587213613
 20
390.50857075012414
 10
472.76643315711385
 20
393.59726023918824
 10
472.12189123707117
 20
396.6674934110236
 10
471.5556066793698
 20
399.7158569439896
 10
471.06820904900616
 20
402.7389618299445
 10
470.66024020869435
 20
405.73344714196446
 10
470.3321537164521
 20
408.6959837708432
  0
LWPOLYLINE
  5
1B5
330
17
100
AcDbEntity
  8
VISIBLE
100
AcDbPolyline
 90
33
 70
0
 10
515.2334343217979
 20
324.8262919439063
 10
513.3321609783658
 20
326.98596544487765
 10
511.46185032362433
 20
329.198702329245
 10
509.6244868566981
 20
331.4621547654335
 10
507.8220201179925
 20
333.77392110996914
 10
506.05636262062717
 20
336.13154845575025
 10
504.3293878211581
 20
338.53253523471267
 10
502.6429281317407
 20
340.97433387212664
 10
500.99877297584254
 20
343.4543534897085
 10
499.3986668895703
 20
345.96996265468135
 10
497.84430767062366
 20
348.5184921718645
 10
496.33734457684204
 20
351.09723791583195
 10
494.8793765762542
 20
353.7034637001333
 10
493.4719506504876
 20
356.33440418053294
 10
492.1165601533393
 20
358.98726778918785
 10
490.8146432262477
 20
361.65923969664937
 10
489.56758127234787
 20
364.3474847985468
 10
488.37669749072967
 20
367.0491507237847
 10
487.2432554724527
 20
369.7613708610594
 10
486.1684578598093
 20
372.481267400487
 10
485.15344507025685
 20
375.20595438711246
 10
484.19929408637444
 20
377.9325407830611
 10
483.3070173131266
 20
380.6581335350843
 10
482.4775615036482
 20
383.379840644242
 10
481.7118067546888
 20
386.09477423446845
 10
481.0105655727831
 20
388.8000536167617
 10
480.3745820121385
 20
391.4928083457481
 10
479.80453088515367
 20
394.17018126537755
 10
479.30101704640714
 20
396.8293315405183
 10
478.8645747508739
 20
399.46743767123405
 10
478.4956670870528
 20
402.08170048654523
 10
478.19468548560496
 20
404.6693461144989
 10
477.9619493040247
 20
407.22762892539424
  0
LWPOLYLINE
  5
1B6
330
17
100
AcDbEntity
  8
HIDDEN
100
AcDbPolyline
 90
33
 70
0
 10
523.0911584277334
 20
319.4750209245095
 10
520.859877087801
 20
321.85665796877913
 10
518.6614046135377
 20
324.3046396905514
 10
516.4981851494928
 20
326.8162445541907
 10
514.3726236477978
 20
329.3886802912424
 10
512.2870831944682
 20
332.01908700472825
 10
510.2438823822503
 20
334.70454034862723
 10
508.2452927329338
 20
337.4420547790081
 10
506.29353617199433
 20
340.22858687319774
 10
504.3907825583756
 20
343.06103871329617
 10
502.5391472721555
 20
345.9362613302769
 10
500.7406888627795
 20
348.85105820484284
 10
498.99740676047503
 20
351.80218882114593
 10
497.3112390533912
 20
354.7863722694201
 10
495.68406033293616
 20
357.8002908935222
 10
494.11767960970576
 20
360.8405939793247
 10
492.6138383023224
 20
363.9039014798617
 10
491.17420830141833
 20
366.9868077730847
 10
489.8003901109167
 20
370.08588544805195
 10
488.4939110686768
 20
373.19768911534106
 10
487.2562236484811
 20
376.3187592374495
 10
486.0887038452523
 20
379.44562597492404
 10
484.9926496452955
 20
382.57481304394355
 10
483.96927958326603
 20
385.7028415810656
 10
483.0197313874678
 20
388.8262340108421
 10
482.14506071498766
 20
391.9415179120018
 10
481.34623997807165
 20
395.0452298779038
 10
480.62415726304937
 20
398.1339193669679
 10
479.9796153430066
 20
401.20415253880327
 10
479.4133307853053
 20
404.25251607176926
 10
478.9259331549417
 20
407.2756209577242
 10
478.51796431462986
 20
410.27010626974413
 10
478.1898778223876
 20
413.2326428986229
  0
LWPOLYLINE
  5
1B7
330
17
100
AcDbEntity
  8
HIDDEN
100
AcDbPolyline
 90
33
 70
0
 10
486.49137551630724
 20
405.58614008549614
 10
486.4644700574086
 20
405.78162232116466
 10
486.4379447828385
 20
405.9769602984554
 10
486.4117998503975
 20
406.1721528552889
 10
486.3860354156237
 20
406.3671988304509
 10
486.36065163179165
 20
406.5620970635989
 10
486.3356486499112
 20
406.75684639526946
 10
486.31102661872694
 20
406.9514456668851
 10
486.28678568471696
 20
407.1458937207609
 10
486.2629259920924
 20
407.3401894001117
 10
486.23944768279625
 20
407.53433154905855
 10
486.21635089650255
 20
407.7283190126361
 10
486.1936357706158
 20
407.9221506367992
 10
486.17130244026987
 20
408.11582526842983
 10
486.1493510383274
 20
408.30934175534367
 10
486.1277816953787
 20
408.5026989462976
 10
486.1065945397414
 20
408.69589569099594
 10
486.0857896974594
 20
408.8889308400975
 10
486.0653672923022
 20
409.08180324522243
 10
486.04532744576403
 20
409.27451175895925
 10
486.0256702770635
 20
409.4670552348713
 10
486.0063959031424
 20
409.6594325275038
 10
485.9875044386654
 20
409.8516424923904
 10
485.9689959960191
 20
410.04368398606067
 10
485.9508706853116
 20
410.23555586604596
 10
485.93312861437164
 20
410.427256990887
 10
485.9157698887481
 20
410.61878622014
 10
485.8987946117092
 20
410.8101424143841
 10
485.8822028842421
 20
411.00132443522773
 10
485.86599480505214
 20
411.1923311453155
 10
485.8501704705624
 20
411.38316140833484
 10
485.8347299749128
 20
411.57381408902313
 10
485.8196734099602
 20
411.7642880531739
  0
LWPOLYLINE
  5
1B8
330
17
100
AcDbEntity
  8
VISIBLE
100
AcDbPolyline
 90
33
 70
0
 10
515.2334343217979
 20
338.8975965750966
 10
513.8389119079566
 20
340.7707202469611
 10
512.4687223006249
 20
342.67099415439304
 10
511.12377813807603
 20
344.59715258738515
 10
509.8049752434221
 20
346.5479125950985
 10
508.5131920279357
 20
348.52197484039334
 10
507.249288905969
 20
350.51802446527535
 10
506.01410772185994
 20
352.53473196667915
 10
504.80847118920747
 20
354.57075408200654
 10
503.63318234288903
 20
356.6247346838298
 10
502.4890240041855
 20
358.69530568316327
 10
501.37675825936947
 20
360.78108794070295
 10
500.2971259521048
 20
362.88069218542523
 10
499.25084618999483
 20
364.99271993993534
 10
498.23861586560866
 20
367.1157644519467
 10
497.26110919230365
 20
369.2484116312727
 10
496.31897725515427
 20
371.3892409917053
 10
495.4128475772856
 20
373.5368265971548
 10
494.54332370190093
 20
375.6897380114186
 10
493.7109847902812
 20
377.8465412509478
 10
492.916385236025
 20
380.0057997399766
 10
492.1600542957851
 20
382.1660752673782
 10
491.44249573674784
 20
384.3259289446099
 10
490.7641875010907
 20
386.4839221641097
 10
490.1255813876404
 20
388.6386175575052
 10
489.52710275094455
 20
390.78857995299757
 10
488.96915021795724
 20
392.9323773312826
 10
488.45209542252655
 20
395.06858177937124
 10
487.9762827578614
 20
397.1957704416757
 10
487.5420291471425
 20
399.31252646772714
 10
487.1496238324306
 20
401.4174399558925
 10
486.7993281820115
 20
403.5091088924645
 10
486.49137551630724
 20
405.58614008549614
  0
LWPOLYLINE
  5
1B9
330
17
100
AcDbEntity
  8
HIDDEN
100
AcDbPolyline
 90
33
 70
0
 10
523.0911584277334
 20
329.362951071686
 10
522.8368883614841
 20
329.64669588310335
 10
522.5831338576774
 20
329.93141223541386
 10
522.3298996677433
 20
330.2170947974415
 10
522.0771905333698
 20
330.50373821991866
 10
521.8250111864132
 20
330.7913371355859
 10
521.5733663488096
 20
331.0798861592926
 10
521.3222607324868
 20
331.3693798880979
 10
521.071699039276
 20
331.6598129013719
 10
520.8216859608239
 20
331.9511797608969
 10
520.5722261785041
 20
332.2434750109694
 10
520.3233243633306
 20
332.5366931785022
 10
520.0749851758692
 20
332.83082877312717
 10
519.8272132661513
 20
333.1258762872975
 10
519.5800132735858
 20
333.42183019639117
 10
519.333389826873
 20
333.7186849588145
 10
519.0873475439178
 20
334.0164350161058
 10
518.8418910317426
 20
334.3150747930391
 10
518.5970248864022
 20
334.6145986977292
 10
518.3527536928964
 20
334.9150011217358
 10
518.1090820250853
 20
335.21627644016905
 10
517.8660144456028
 20
335.5184190117942
 10
517.6235555057718
 20
335.8214231791378
 10
517.3817097455187
 20
336.12528326859353
 10
517.1404816932884
 20
336.42999359052817
 10
516.8998758659593
 20
336.7355484393883
 10
516.6598967687592
 20
337.0419420938073
 10
516.4205488951804
 20
337.3491688167122
 10
516.1818367268963
 20
337.6572228554313
 10
515.9437647336767
 20
337.9660984418017
 10
515.7063373733045
 20
338.2757897922776
 10
515.4695590914919
 20
338.58629110803815
 10
515.2334343217979
 20
338.8975965750966
  0
LWPOLYLINE
  5
1BA
330
17
100
AcDbEntity
  8
HIDDEN
100
AcDbPolyline
 90
33
 70
0
 10
595.9986890157761
 20
455.6650180317548
 10
595.7932087096921
 20
456.4006005870025
 10
595.5919420169662
 20
457.13559963119667
 10
595.3949014176036
 20
457.8699695890275
 10
595.2020991295609
 20
458.603664924193
 10
595.0135471079883
 20
459.336640142223
 10
594.8292570444886
 20
460.0688497932995
 10
594.6492403663918
 20
460.80024847507525
 10
594.4735082360472
 20
461.5307908354895
 10
594.3020715501303
 20
462.2604315755791
 10
594.1349409389682
 20
462.98912545228825
 10
593.9721267658794
 20
463.7168272812735
 10
593.8136391265322
 20
464.44349193970584
 10
593.659487848318
 20
465.16907436906786
 10
593.509682489742
 20
465.8935295779489
 10
593.3642323398307
 20
466.6168126448339
 10
593.223146417556
 20
467.33887872088906
 10
593.0864334712757
 20
468.0596830327431
 10
592.9541019781911
 20
468.77918088526314
 10
592.8261601438215
 20
469.4973276643266
 10
592.7026159014953
 20
470.21407883958705
 10
592.5834769118578
 20
470.9293899672359
 10
592.4687505623968
 20
471.64321669275796
 10
592.3584439669842
 20
472.35551475368163
 10
592.2525639654343
 20
473.06623998232396
 10
592.1511171230809
 20
473.77534830852903
 10
592.0541097303692
 20
474.48279576240043
 10
591.9615478024663
 20
475.1885384770284
 10
591.8734370788877
 20
475.8925326912091
 10
591.7897830231421
 20
476.5947347521586
 10
591.710590822392
 20
477.2951011182197
 10
591.6358653871322
 20
477.9935883615615
 10
591.5656113508857
 20
478.69015317087246
  0
LWPOLYLINE
  5
1BB
330
17
100
AcDbEntity
  8
VISIBLE
100
AcDbPolyline
 90
33
 70
0
 10
636.4668919562314
 20
384.9325311967592
 10
634.7596741965131
 20
386.7456462161782
 10
633.0712597949012
 20
388.59784080089605
 10
631.4027439949007
 20
390.4879134662017
 10
629.7552091321586
 20
392.41463815656687
 10
628.1297239323718
 20
394.3767650409658
 10
626.5273428180244
 20
396.3730213236179
 10
624.9491052244038
 20
398.4021120696266
 10
623.3960349253371
 20
400.4627210449803
 10
621.8691393690887
 20
402.5535115703692
 10
620.3694090248463
 20
404.6731273882647
 10
618.8978167402223
 20
406.8201935426987
 10
617.4553171101848
 20
408.9933172711724
 10
616.0428458578298
 20
411.19108890811594
 10
614.6613192273944
 20
413.41208279931254
 10
613.3116333899063
 20
415.6548582266945
 10
611.9946638618536
 20
417.9179603429101
 10
610.7112649372536
 20
420.199921115057
 10
609.4622691334882
 20
422.49926027696813
 10
608.2484866512646
 20
424.814486289433
 10
607.0707048490525
 20
427.1440973077323
 10
605.9296877323408
 20
429.4865821558566
 10
604.8261754580393
 20
431.84042130677915
 10
603.7608838543536
 20
434.2040878681445
 10
602.7345039564401
 20
436.5760485727362
 10
601.7477015581443
 20
438.954764773079
 10
600.8011167801121
 20
441.3386934395312
 10
599.895363654556
 20
443.7262881612197
 10
599.0310297269428
 20
446.1160001491687
 10
598.2086756748645
 20
448.50627924097023
 10
597.428834944336
 20
450.89557490634684
 10
596.6920134037596
 20
453.2823372529515
 10
595.9986890157761
 20
455.6650180317548
  0
LWPOLYLINE
  5
1BC
330
17
100
AcDbEntity
  8
HIDDEN
100
AcDbPolyline
 90
33
 70
0
 10
602.1413941206091
 20
459.2115104775826
 10
602.0019984051826
 20
459.78825685831987
 10
601.8656009318851
 20
460.3643817841772
 10
601.7322083239993
 20
460.93985727928407
 10
601.6018270588951
 20
461.51465539930507
 10
601.4744634677159
 20
462.0887482327971
 10
601.3501237350704
 20
462.66210790256525
 10
601.2288138987332
 20
463.2347065670158
 10
601.1105398493507
 20
463.8065164215086
 10
600.9953073301559
 20
464.3775096997068
 10
600.8831219366886
 20
464.94765867492595
 10
600.7739891165243
 20
465.51693566147924
 10
600.6679141690098
 20
466.08531301602295
 10
600.5649022450053
 20
466.6527631388981
 10
600.464958346635
 20
467.2192584754707
 10
600.3680873270431
 20
467.7847715174704
 10
600.2742938901597
 20
468.34927480432543
 10
600.1835825904709
 20
468.91274092449635
 10
600.0959578327984
 20
469.4751425168075
 10
600.0114238720856
 20
470.03645227177503
 10
599.9299848131908
 20
470.59664293293326
 10
599.8516446106878
 20
471.15568729815857
 10
599.7764070686742
 20
471.7135582209895
 10
599.7042758405863
 20
472.27022861194575
 10
599.635254429022
 20
472.8256714398432
 10
599.5693461855705
 20
473.3798597331065
 10
599.5065543106496
 20
473.9327665810789
 10
599.4468818533504
 20
474.48436513532897
 10
599.3903317112893
 20
475.0346286109543
 10
599.336906630467
 20
475.58353028788224
 10
599.2866092051353
 20
476.13104351216714
 10
599.2394418776712
 20
476.6771416972848
 10
599.1954069384583
 20
477.2217983254236
  0
LWPOLYLINE
  5
1BD
330
17
100
AcDbEntity
  8
HIDDEN
100
AcDbPolyline
 90
33
 70
0
 10
644.3246160621669
 20
389.4691903245389
 10
642.0933347222347
 20
391.8508273688084
 10
639.8948622479712
 20
394.2988090905807
 10
637.7316427839263
 20
396.81041395422005
 10
635.6060812822313
 20
399.38284969127176
 10
633.5205408289017
 20
402.0132564047575
 10
631.4773400166839
 20
404.69870974865654
 10
629.4787503673674
 20
407.4362241790375
 10
627.5269938064279
 20
410.22275627322705
 10
625.6242401928091
 20
413.0552081133255
 10
623.7726049065891
 20
415.9304307303062
 10
621.974146497213
 20
418.84522760487215
 10
620.2308643949086
 20
421.7963582211752
 10
618.5446966878249
 20
424.78054166944946
 10
616.9175179673697
 20
427.79446029355154
 10
615.3511372441393
 20
430.83476337935394
 10
613.8472959367559
 20
433.89807087989095
 10
612.4076659358519
 20
436.98097717311396
 10
611.0338477453503
 20
440.0800548480812
 10
609.7273687031104
 20
443.1918585153703
 10
608.4896812829147
 20
446.31292863747876
 10
607.322161479686
 20
449.4397953749534
 10
606.226107279729
 20
452.5689824439728
 10
605.2027372176996
 20
455.6970109810949
 10
604.2531890219014
 20
458.82040341087145
 10
603.3785183494213
 20
461.9356873120312
 10
602.5796976125052
 20
465.03939927793306
 10
601.8576148974829
 20
468.12808876699717
 10
601.2130729774402
 20
471.1983219388326
 10
600.6467884197389
 20
474.2466854717985
 10
600.1593907893753
 20
477.26979035775344
 10
599.7514219490635
 20
480.2642756697735
 10
599.4233354568212
 20
483.22681229865213
  0
LWPOLYLINE
  5
1BE
330
17
100
AcDbEntity
  8
VISIBLE
100
AcDbPolyline
 90
33
 70
0
 10
636.4668919562314
 20
394.8204613439357
 10
634.9697993457033
 20
396.5136022985173
 10
633.4915750057031
 20
398.23983947191357
 10
632.033188169479
 20
399.99804101531277
 10
630.5955950633438
 20
401.7870541216972
 10
629.1797382797024
 20
403.60570578170916
 10
627.7865461590185
 20
405.45280355276196
 10
626.4169321811258
 20
407.32713634089396
 10
625.0717943662833
 20
409.2274751948511
 10
623.7520146863662
 20
411.1525741118787
 10
622.4584584865805
 20
413.1011708546927
 10
621.1919739180784
 20
415.0719877790957
 10
619.9533913818475
 20
417.06373267169556
 10
618.7435229842388
 20
419.0750995971754
 10
617.5631620044893
 20
421.1047697545621
 10
616.41308237459
 20
423.15141234192924
 10
615.2940381718381
 20
425.2136854289698
 10
614.2067631244088
 20
427.29023683686455
 10
613.1519701302685
 20
429.37970502487076
 10
612.130350789746
 20
431.48071998304874
 10
611.1425749520686
 20
433.5919041305424
 10
610.1892902761587
 20
435.71187321882223
 10
609.2711218059817
 20
437.83923723930184
 10
608.3886715607199
 20
439.97260133473037
 10
607.5425181400448
 20
442.1105667137633
 10
606.7332163447442
 20
444.2517315681148
 10
605.9612968129535
 20
446.3946919916857
 10
605.2272656722306
 20
448.5380429010693
 10
604.5316042077009
 20
450.6803789568271
 10
603.8747685464908
 20
452.82029548493404
 10
603.257189358658
 20
454.9563893977862
 10
602.6792715748114
 20
457.0872601141692
 10
602.1413941206091
 20
459.2115104775826
  0
LWPOLYLINE
  5
1BF
330
17
100
AcDbEntity
  8
HIDDEN
100
AcDbPolyline
 90
33
 70
0
 10
609.9991182265446
 20
463.74816960536225
 10
609.859722511118
 20
464.32491598609954
 10
609.7233250378206
 20
464.9010409119569
 10
609.5899324299348
 20
465.47651640706374
 10
609.4595511648306
 20
466.05131452708474
 10
609.3321875736513
 20
466.6254073605768
 10
609.2078478410059
 20
467.1987670303449
 10
609.0865380046687
 20
467.77136569479546
 10
608.9682639552863
 20
468.3431755492883
 10
608.8530314360914
 20
468.9141688274865
 10
608.7408460426241
 20
469.4843178027056
 10
608.6317132224598
 20
470.0535947892589
 10
608.5256382749453
 20
470.6219721438026
 10
608.4226263509408
 20
471.18942226667775
 10
608.3226824525705
 20
471.7559176032504
 10
608.2258114329786
 20
472.3214306452501
 10
608.1320179960952
 20
472.8859339321051
 10
608.0413066964064
 20
473.449400052276
 10
607.9536819387339
 20
474.0118016445872
 10
607.8691479780211
 20
474.5731113995547
 10
607.7877089191263
 20
475.13330206071294
 10
607.7093687166233
 20
475.69234642593824
 10
607.6341311746097
 20
476.2502173487692
 10
607.5619999465218
 20
476.8068877397254
 10
607.4929785349575
 20
477.36233056762285
 10
607.427070291506
 20
477.9165188608862
 10
607.3642784165851
 20
478.4694257088586
 10
607.3046059592859
 20
479.02102426310864
 10
607.2480558172248
 20
479.571287738734
 10
607.1946307364025
 20
480.1201894156619
 10
607.1443333110707
 20
480.6677026399468
 10
607.0971659836066
 20
481.2138008250645
 10
607.0531310443938
 20
481.7584574532033
  0
LWPOLYLINE
  5
1C0
330
17
100
AcDbEntity
  8
VISIBLE
100
AcDbPolyline
 90
33
 70
0
 10
636.4668919562314
 20
408.89176597512585
 10
635.3153668892878
 20
410.4341660016397
 10
634.1802737357605
 20
411.9951730724148
 10
633.0621264728557
 20
413.57408035378626
 10
631.9614314045757
 20
415.17017290676347
 10
630.8786869324612
 20
416.7827280107582
 10
629.8143833299114
 20
418.41101549083726
 10
628.7690025201858
 20
420.0542980483502
 10
627.7430178581864
 20
421.71183159478267
 10
626.736893916119
 20
423.3828655886843
 10
625.7510862731328
 20
425.0666433755186
 10
624.786041309031
 20
426.7624025302807
 10
623.8421960021471
 20
428.4693752027282
 10
622.9199777314788
 20
430.1867884650684
 10
622.0198040831676
 20
431.913864661945
 10
621.142082661414
 20
433.6498217625649
 10
620.2872109039108
 20
435.3938737148072
 10
619.4555759018818
 20
437.1452308011517
 10
618.647554224804
 20
438.90309999626834
 10
617.8635117498945
 20
440.666685326104
 10
617.1038034964394
 20
442.43518822830436
 10
616.3687734650387
 20
444.20780791380787
 10
615.6587544818403
 20
445.98374172944796
 10
614.9740680478354
 20
447.7621855213995
 10
614.3150241932796
 20
449.54233399930433
 10
613.6819213373096
 20
451.32338110091246
 10
613.0750461528179
 20
453.1045203570709
 10
612.4946734366447
 20
454.88494525689896
 10
611.9410659851485
 20
456.6638496129806
 10
611.4144744752102
 20
458.44042792641164
 10
610.9151373507253
 20
460.2138757515344
 10
610.443280714635
 20
461.98339006019546
 10
609.9991182265446
 20
463.74816960536225
  0
LWPOLYLINE
  5
1C1
330
17
100
AcDbEntity
  8
HIDDEN
100
AcDbPolyline
 90
33
 70
0
 10
644.324616062167
 20
399.35712047171535
 10
644.0703459959177
 20
399.6408652831327
 10
643.8165914921109
 20
399.92558163544317
 10
643.5633573021769
 20
400.2112641974709
 10
643.3106481678035
 20
400.497907619948
 10
643.0584688208468
 20
400.78550653561524
 10
642.8068239832431
 20
401.0740555593219
 10
642.5557183669204
 20
401.3635492881273
 10
642.3051566737097
 20
401.65398230140124
 10
642.0551435952575
 20
401.9453491609262
 10
641.8056838129377
 20
402.23764441099866
 10
641.5567819977641
 20
402.5308625785316
 10
641.3084428103027
 20
402.8249981731565
 10
641.0606709005848
 20
403.12004568732675
 10
640.8134709080193
 20
403.4159995964205
 10
640.5668474613066
 20
403.71285435884386
 10
640.3208051783513
 20
404.01060441613504
 10
640.0753486661763
 20
404.30924419306837
 10
639.8304825208357
 20
404.60876809775846
 10
639.58621132733
 20
404.9091705217652
 10
639.3425396595188
 20
405.2104458401983
 10
639.0994720800363
 20
405.51258841182346
 10
638.8570131402055
 20
405.8155925791672
 10
638.6151673799524
 20
406.1194526686229
 10
638.3739393277219
 20
406.4241629905574
 10
638.1333335003928
 20
406.7297178394176
 10
637.8933544031927
 20
407.03611149383664
 10
637.654006529614
 20
407.34333821674153
 10
637.41529436133
 20
407.65139225546056
 10
637.1772223681103
 20
407.96026784183107
 10
636.939795007738
 20
408.2699591923069
 10
636.7030167259254
 20
408.58046050806746
 10
636.4668919562314
 20
408.89176597512585
  0
TEXT
  5
1C2
330
17
100
AcDbEntity
  8
TITLE
100
AcDbText
 10
544.7560263198127
 20
297.2169493800591
 30
0.0
 40
3.4
  1
ISOMETRIC
  7
LOFT_MONO
 72
1
 11
544.7560263198127
 21
297.2169493800591
 31
0.0
100
AcDbText
 73
2
  0
LWPOLYLINE
  5
1C3
330
17
100
AcDbEntity
  8
TITLE
100
AcDbPolyline
 90
4
 70
1
 10
735.0
 20
44.0
 10
831.0
 20
44.0
 10
831.0
 20
10.0
 10
735.0
 20
10.0
  0
LINE
  5
1C4
330
17
100
AcDbEntity
  8
TITLE
100
AcDbLine
 10
792.6
 20
44.0
 30
0.0
 11
792.6
 21
10.0
 31
0.0
  0
LINE
  5
1C5
330
17
100
AcDbEntity
  8
TITLE
100
AcDbLine
 10
792.6
 20
27.0
 30
0.0
 11
831.0
 21
27.0
 31
0.0
  0
TEXT
  5
1C6
330
17
100
AcDbEntity
  8
TITLE
100
AcDbText
 10
739.0
 20
36.0
 30
0.0
 40
2.3
  1
TITLE
  7
LOFT_MONO
 11
739.0
 21
36.0
 31
0.0
100
AcDbText
  0
TEXT
  5
1C7
330
17
100
AcDbEntity
  8
TITLE
100
AcDbText
 10
739.0
 20
26.0
 30
0.0
 40
3.4
  1
DOOR CANOPY - GENERAL…
  7
LOFT_MONO
 11
739.0
 21
26.0
 31
0.0
100
AcDbText
  0
TEXT
  5
1C8
330
17
100
AcDbEntity
  8
TITLE
100
AcDbText
 10
739.0
 20
14.0
 30
0.0
 40
2.3
  1
LOFT · PART DRAWING
  7
LOFT_MONO
 11
739.0
 21
14.0
 31
0.0
100
AcDbText
  0
TEXT
  5
1C9
330
17
100
AcDbEntity
  8
TITLE
100
AcDbText
 10
796.6
 20
36.0
 30
0.0
 40
2.3
  1
SCALE
  7
LOFT_MONO
 11
796.6
 21
36.0
 31
0.0
100
AcDbText
  0
TEXT
  5
1CA
330
17
100
AcDbEntity
  8
TITLE
100
AcDbText
 10
796.6
 20
30.0
 30
0.0
 40
3.4
  1
1:8
  7
LOFT_MONO
 11
796.6
 21
30.0
 31
0.0
100
AcDbText
  0
TEXT
  5
1CB
330
17
100
AcDbEntity
  8
TITLE
100
AcDbText
 10
796.6
 20
19.0
 30
0.0
 40
2.3
  1
SIZE
  7
LOFT_MONO
 11
796.6
 21
19.0
 31
0.0
100
AcDbText
  0
TEXT
  5
1CC
330
17
100
AcDbEntity
  8
TITLE
100
AcDbText
 10
796.6
 20
14.0
 30
0.0
 40
3.4
  1
A1
  7
LOFT_MONO
 11
796.6
 21
14.0
 31
0.0
100
AcDbText
  0
TEXT
  5
1CD
330
17
100
AcDbEntity
  8
TITLE
100
AcDbText
 10
739.0
 20
23.5
 30
0.0
 40
2.1
  1
DRAWN
  7
LOFT_MONO
 11
739.0
 21
23.5
 31
0.0
100
AcDbText
  0
TEXT
  5
1CE
330
17
100
AcDbEntity
  8
TITLE
100
AcDbText
 10
753.0
 20
23.5
 30
0.0
 40
2.4
  1
Loft parametric model - d…
  7
LOFT_MONO
 11
753.0
 21
23.5
 31
0.0
100
AcDbText
  0
TEXT
  5
1CF
330
17
100
AcDbEntity
  8
TITLE
100
AcDbText
 10
739.0
 20
20.5
 30
0.0
 40
2.1
  1
DATE
  7
LOFT_MONO
 11
739.0
 21
20.5
 31
0.0
100
AcDbText
  0
TEXT
  5
1D0
330
17
100
AcDbEntity
  8
TITLE
100
AcDbText
 10
753.0
 20
20.5
 30
0.0
 40
2.4
  1
scale 1:8   dimensions in…
  7
LOFT_MONO
 11
753.0
 21
20.5
 31
0.0
100
AcDbText
  0
TEXT
  5
1D1
330
17
100
AcDbEntity
  8
TITLE
100
AcDbText
 10
739.0
 20
17.5
 30
0.0
 40
2.1
  1
NOTES
  7
LOFT_MONO
 11
739.0
 21
17.5
 31
0.0
100
AcDbText
  0
TEXT
  5
1D2
330
17
100
AcDbEntity
  8
TITLE
100
AcDbText
 10
753.0
 20
17.5
 30
0.0
 40
2.4
  1
Cantilevered lean-to cano…
  7
LOFT_MONO
 11
753.0
 21
17.5
 31
0.0
100
AcDbText
  0
ENDSEC
  0
SECTION
  2
OBJECTS
  0
DICTIONARY
  5
A
330
0
100
AcDbDictionary
281
1
  3
ACAD_COLOR
350
B
  3
ACAD_GROUP
350
C
  3
ACAD_LAYOUT
350
D
  3
ACAD_MATERIAL
350
E
  3
ACAD_MLEADERSTYLE
350
F
  3
ACAD_MLINESTYLE
350
10
  3
ACAD_PLOTSETTINGS
350
11
  3
ACAD_PLOTSTYLENAME
350
12
  3
ACAD_SCALELIST
350
14
  3
ACAD_TABLESTYLE
350
15
  3
ACAD_VISUALSTYLE
350
16
  3
EZDXF_META
350
2D
  0
DICTIONARY
  5
B
330
A
100
AcDbDictionary
281
1
  0
DICTIONARY
  5
C
330
A
100
AcDbDictionary
281
1
  0
DICTIONARY
  5
D
330
A
100
AcDbDictionary
281
1
  3
Model
350
1A
  3
Layout1
350
1E
  0
DICTIONARY
  5
E
330
A
100
AcDbDictionary
281
1
  3
ByBlock
350
1F
  3
ByLayer
350
20
  3
Global
350
21
  0
DICTIONARY
  5
F
330
A
100
AcDbDictionary
281
1
  3
Standard
350
2C
  0
DICTIONARY
  5
10
330
A
100
AcDbDictionary
281
1
  3
Standard
350
22
  0
DICTIONARY
  5
11
330
A
100
AcDbDictionary
281
1
  0
ACDBDICTIONARYWDFLT
  5
12
330
A
100
AcDbDictionary
281
1
  3
Normal
350
13
100
AcDbDictionaryWithDefault
340
13
  0
ACDBPLACEHOLDER
  5
13
330
12
  0
DICTIONARY
  5
14
330
A
100
AcDbDictionary
281
1
  0
DICTIONARY
  5
15
330
A
100
AcDbDictionary
281
1
  0
DICTIONARY
  5
16
330
A
100
AcDbDictionary
281
1
  0
LAYOUT
  5
1A
330
D
100
AcDbPlotSettings
  1

  4
A3
  6

 40
7.5
 41
20.0
 42
7.5
 43
20.0
 44
420.0
 45
297.0
 46
0.0
 47
0.0
 48
0.0
 49
0.0
140
0.0
141
0.0
142
1.0
143
1.0
 70
1024
 72
1
 73
0
 74
5
  7

 75
16
 76
0
 77
2
 78
300
147
1.0
148
0.0
149
0.0
100
AcDbLayout
  1
Model
 70
1
 71
0
 10
0.0
 20
0.0
 11
420.0
 21
297.0
 12
0.0
 22
0.0
 32
0.0
 14
1e+20
 24
1e+20
 34
1e+20
 15
-1e+20
 25
-1e+20
 35
-1e+20
146
0.0
 13
0.0
 23
0.0
 33
0.0
 16
1.0
 26
0.0
 36
0.0
 17
0.0
 27
1.0
 37
0.0
 76
1
330
17
  0
LAYOUT
  5
1E
330
D
100
AcDbPlotSettings
  1

  4
A3
  6

 40
7.5
 41
20.0
 42
7.5
 43
20.0
 44
420.0
 45
297.0
 46
0.0
 47
0.0
 48
0.0
 49
0.0
140
0.0
141
0.0
142
1.0
143
1.0
 70
0
 72
1
 73
0
 74
5
  7

 75
16
 76
0
 77
2
 78
300
147
1.0
148
0.0
149
0.0
100
AcDbLayout
  1
Layout1
 70
1
 71
1
 10
0.0
 20
0.0
 11
420.0
 21
297.0
 12
0.0
 22
0.0
 32
0.0
 14
1e+20
 24
1e+20
 34
1e+20
 15
-1e+20
 25
-1e+20
 35
-1e+20
146
0.0
 13
0.0
 23
0.0
 33
0.0
 16
1.0
 26
0.0
 36
0.0
 17
0.0
 27
1.0
 37
0.0
 76
1
330
1B
  0
MATERIAL
  5
1F
102
{ACAD_REACTORS
330
E
102
}
330
E
100
AcDbMaterial
  1
ByBlock
  2

 70
0
 40
1.0
 71
1
 41
1.0
 91
-1023410177
 42
1.0
 72
1
  3

 73
1
 74
1
 75
1
 44
0.5
 73
0
 45
1.0
 46
1.0
 77
1
  4

 78
1
 79
1
170
1
 48
1.0
171
1
  6

172
1
173
1
174
1
140
1.0
141
1.0
175
1
  7

176
1
177
1
178
1
143
1.0
179
1
  8

270
1
271
1
272
1
145
1.0
146
1.0
273
1
  9

274
1
275
1
276
1
 42
1.0
 72
1
  3

 73
1
 74
1
 75
1
 94
63
  0
MATERIAL
  5
20
102
{ACAD_REACTORS
330
E
102
}
330
E
100
AcDbMaterial
  1
ByLayer
  2

 70
0
 40
1.0
 71
1
 41
1.0
 91
-1023410177
 42
1.0
 72
1
  3

 73
1
 74
1
 75
1
 44
0.5
 73
0
 45
1.0
 46
1.0
 77
1
  4

 78
1
 79
1
170
1
 48
1.0
171
1
  6

172
1
173
1
174
1
140
1.0
141
1.0
175
1
  7

176
1
177
1
178
1
143
1.0
179
1
  8

270
1
271
1
272
1
145
1.0
146
1.0
273
1
  9

274
1
275
1
276
1
 42
1.0
 72
1
  3

 73
1
 74
1
 75
1
 94
63
  0
MATERIAL
  5
21
102
{ACAD_REACTORS
330
E
102
}
330
E
100
AcDbMaterial
  1
Global
  2

 70
0
 40
1.0
 71
1
 41
1.0
 91
-1023410177
 42
1.0
 72
1
  3

 73
1
 74
1
 75
1
 44
0.5
 73
0
 45
1.0
 46
1.0
 77
1
  4

 78
1
 79
1
170
1
 48
1.0
171
1
  6

172
1
173
1
174
1
140
1.0
141
1.0
175
1
  7

176
1
177
1
178
1
143
1.0
179
1
  8

270
1
271
1
272
1
145
1.0
146
1.0
273
1
  9

274
1
275
1
276
1
 42
1.0
 72
1
  3

 73
1
 74
1
 75
1
 94
63
  0
MLINESTYLE
  5
22
102
{ACAD_REACTORS
330
10
102
}
330
10
100
AcDbMlineStyle
  2
Standard
 70
0
  3

 62
256
 51
90.0
 52
90.0
 71
2
 49
0.5
 62
256
  6
BYLAYER
 49
-0.5
 62
256
  6
BYLAYER
  0
MLEADERSTYLE
  5
2C
102
{ACAD_REACTORS
330
F
102
}
330
F
100
AcDbMLeaderStyle
179
2
170
2
171
1
172
0
 90
2
 40
0.0
 41
0.0
173
1
 91
-1056964608
 92
-2
290
1
 42
2.0
291
1
 43
8.0
  3
Standard
 44
4.0
300

342
29
174
1
175
1
176
0
178
1
 93
-1056964608
 45
4.0
292
0
297
0
 46
4.0
 94
-1056964608
 47
1.0
 49
1.0
140
1.0
294
1
141
0.0
177
0
142
1.0
295
0
296
0
143
3.75
271
0
272
9
273
9
  0
DICTIONARY
  5
2D
330
A
100
AcDbDictionary
280
1
281
1
  3
CREATED_BY_EZDXF
350
2E
  3
WRITTEN_BY_EZDXF
350
1D5
  0
DICTIONARYVAR
  5
2E
330
2D
100
DictionaryVariables
280
0
  1
0.0 @ 2000-01-01T00:00:00.000000+00:00
  0
DICTIONARYVAR
  5
1D5
330
2D
100
DictionaryVariables
280
0
  1
0.0 @ 2000-01-01T00:00:00.000000+00:00
  0
ENDSEC
  0
EOF
