  0
SECTION
  2
HEADER
  9
$ACADVER
  1
AC1015
  9
$ACADMAINTVER
 70
6
  9
$DWGCODEPAGE
  3
ANSI_1252
  9
$INSBASE
 10
0.0
 20
0.0
 30
0.0
  9
$EXTMIN
 10
1e+20
 20
1e+20
 30
1e+20
  9
$EXTMAX
 10
-1e+20
 20
-1e+20
 30
-1e+20
  9
$LIMMIN
 10
0.0
 20
0.0
  9
$LIMMAX
 10
420.0
 20
297.0
  9
$ORTHOMODE
 70
0
  9
$REGENMODE
 70
1
  9
$FILLMODE
 70
1
  9
$QTEXTMODE
 70
0
  9
$MIRRTEXT
 70
1
  9
$LTSCALE
 40
1.0
  9
$ATTMODE
 70
1
  9
$TEXTSIZE
 40
2.5
  9
$TRACEWID
 40
1.0
  9
$TEXTSTYLE
  7
Standard
  9
$CLAYER
  8
0
  9
$CELTYPE
  6
ByLayer
  9
$CECOLOR
 62
256
  9
$CELTSCALE
 40
1.0
  9
$DISPSILH
 70
0
  9
$DIMSCALE
 40
1.0
  9
$DIMASZ
 40
2.5
  9
$DIMEXO
 40
0.625
  9
$DIMDLI
 40
3.75
  9
$DIMRND
 40
0.0
  9
$DIMDLE
 40
0.0
  9
$DIMEXE
 40
1.25
  9
$DIMTP
 40
0.0
  9
$DIMTM
 40
0.0
  9
$DIMTXT
 40
2.5
  9
$DIMCEN
 40
2.5
  9
$DIMTSZ
 40
0.0
  9
$DIMTOL
 70
0
  9
$DIMLIM
 70
0
  9
$DIMTIH
 70
0
  9
$DIMTOH
 70
0
  9
$DIMSE1
 70
0
  9
$DIMSE2
 70
0
  9
$DIMTAD
 70
1
  9
$DIMZIN
 70
8
  9
$DIMBLK
  1

  9
$DIMASO
 70
1
  9
$DIMSHO
 70
1
  9
$DIMPOST
  1

  9
$DIMAPOST
  1

  9
$DIMALT
 70
0
  9
$DIMALTD
 70
3
  9
$DIMALTF
 40
0.03937007874
  9
$DIMLFAC
 40
1.0
  9
$DIMTOFL
 70
1
  9
$DIMTVP
 40
0.0
  9
$DIMTIX
 70
0
  9
$DIMSOXD
 70
0
  9
$DIMSAH
 70
0
  9
$DIMBLK1
  1

  9
$DIMBLK2
  1

  9
$DIMSTYLE
  2
ISO-25
  9
$DIMCLRD
 70
0
  9
$DIMCLRE
 70
0
  9
$DIMCLRT
 70
0
  9
$DIMTFAC
 40
1.0
  9
$DIMGAP
 40
0.625
  9
$DIMJUST
 70
0
  9
$DIMSD1
 70
0
  9
$DIMSD2
 70
0
  9
$DIMTOLJ
 70
0
  9
$DIMTZIN
 70
8
  9
$DIMALTZ
 70
0
  9
$DIMALTTZ
 70
0
  9
$DIMUPT
 70
0
  9
$DIMDEC
 70
2
  9
$DIMTDEC
 70
2
  9
$DIMALTU
 70
2
  9
$DIMALTTD
 70
3
  9
$DIMTXSTY
  7
Standard
  9
$DIMAUNIT
 70
0
  9
$DIMADEC
 70
0
  9
$DIMALTRND
 40
0.0
  9
$DIMAZIN
 70
0
  9
$DIMDSEP
 70
44
  9
$DIMATFIT
 70
3
  9
$DIMFRAC
 70
0
  9
$DIMLDRBLK
  1

  9
$DIMLUNIT
 70
2
  9
$DIMLWD
 70
-2
  9
$DIMLWE
 70
-2
  9
$DIMTMOVE
 70
0
  9
$LUNITS
 70
2
  9
$LUPREC
 70
4
  9
$SKETCHINC
 40
1.0
  9
$FILLETRAD
 40
10.0
  9
$AUNITS
 70
0
  9
$AUPREC
 70
2
  9
$MENU
  1
.
  9
$ELEVATION
 40
0.0
  9
$PELEVATION
 40
0.0
  9
$THICKNESS
 40
0.0
  9
$LIMCHECK
 70
0
  9
$CHAMFERA
 40
0.0
  9
$CHAMFERB
 40
0.0
  9
$CHAMFERC
 40
0.0
  9
$CHAMFERD
 40
0.0
  9
$SKPOLY
 70
0
  9
$TDCREATE
 40
2451545.0
  9
$TDUCREATE
 40
2451545.0
  9
$TDUPDATE
 40
2451545.0
  9
$TDUUPDATE
 40
2451545.0
  9
$TDINDWG
 40
0.0
  9
$TDUSRTIMER
 40
0.0
  9
$USRTIMER
 70
1
  9
$ANGBASE
 50
0.0
  9
$ANGDIR
 70
0
  9
$PDMODE
 70
0
  9
$PDSIZE
 40
0.0
  9
$PLINEWID
 40
0.0
  9
$SPLFRAME
 70
0
  9
$SPLINETYPE
 70
6
  9
$SPLINESEGS
 70
8
  9
$HANDSEED
  5
A3
  9
$SURFTAB1
 70
6
  9
$SURFTAB2
 70
6
  9
$SURFTYPE
 70
6
  9
$SURFU
 70
6
  9
$SURFV
 70
6
  9
$UCSBASE
  2

  9
$UCSNAME
  2

  9
$UCSORG
 10
0.0
 20
0.0
 30
0.0
  9
$UCSXDIR
 10
1.0
 20
0.0
 30
0.0
  9
$UCSYDIR
 10
0.0
 20
1.0
 30
0.0
  9
$UCSORTHOREF
  2

  9
$UCSORTHOVIEW
 70
0
  9
$UCSORGTOP
 10
0.0
 20
0.0
 30
0.0
  9
$UCSORGBOTTOM
 10
0.0
 20
0.0
 30
0.0
  9
$UCSORGLEFT
 10
0.0
 20
0.0
 30
0.0
  9
$UCSORGRIGHT
 10
0.0
 20
0.0
 30
0.0
  9
$UCSORGFRONT
 10
0.0
 20
0.0
 30
0.0
  9
$UCSORGBACK
 10
0.0
 20
0.0
 30
0.0
  9
$PUCSBASE
  2

  9
$PUCSNAME
  2

  9
$PUCSORG
 10
0.0
 20
0.0
 30
0.0
  9
$PUCSXDIR
 10
1.0
 20
0.0
 30
0.0
  9
$PUCSYDIR
 10
0.0
 20
1.0
 30
0.0
  9
$PUCSORTHOREF
  2

  9
$PUCSORTHOVIEW
 70
0
  9
$PUCSORGTOP
 10
0.0
 20
0.0
 30
0.0
  9
$PUCSORGBOTTOM
 10
0.0
 20
0.0
 30
0.0
  9
$PUCSORGLEFT
 10
0.0
 20
0.0
 30
0.0
  9
$PUCSORGRIGHT
 10
0.0
 20
0.0
 30
0.0
  9
$PUCSORGFRONT
 10
0.0
 20
0.0
 30
0.0
  9
$PUCSORGBACK
 10
0.0
 20
0.0
 30
0.0
  9
$USERI1
 70
0
  9
$USERI2
 70
0
  9
$USERI3
 70
0
  9
$USERI4
 70
0
  9
$USERI5
 70
0
  9
$USERR1
 40
0.0
  9
$USERR2
 40
0.0
  9
$USERR3
 40
0.0
  9
$USERR4
 40
0.0
  9
$USERR5
 40
0.0
  9
$WORLDVIEW
 70
1
  9
$SHADEDGE
 70
3
  9
$SHADEDIF
 70
70
  9
$TILEMODE
 70
1
  9
$MAXACTVP
 70
64
  9
$PINSBASE
 10
0.0
 20
0.0
 30
0.0
  9
$PLIMCHECK
 70
0
  9
$PEXTMIN
 10
1e+20
 20
1e+20
 30
1e+20
  9
$PEXTMAX
 10
-1e+20
 20
-1e+20
 30
-1e+20
  9
$PLIMMIN
 10
0.0
 20
0.0
  9
$PLIMMAX
 10
420.0
 20
297.0
  9
$UNITMODE
 70
0
  9
$VISRETAIN
 70
1
  9
$PLINEGEN
 70
0
  9
$PSLTSCALE
 70
1
  9
$TREEDEPTH
 70
3020
  9
$CMLSTYLE
  2
Standard
  9
$CMLJUST
 70
0
  9
$CMLSCALE
 40
20.0
  9
$PROXYGRAPHICS
 70
1
  9
$MEASUREMENT
 70
1
  9
$CELWEIGHT
370
-1
  9
$ENDCAPS
280
0
  9
$JOINSTYLE
280
0
  9
$LWDISPLAY
290
0
  9
$INSUNITS
 70
4
  9
$HYPERLINKBASE
  1

  9
$STYLESHEET
  1

  9
$XEDIT
290
1
  9
$CEPSNTYPE
380
0
  9
$PSTYLEMODE
290
1
  9
$FINGERPRINTGUID
  2
{00000000-0000-0000-0000-000000000000}
  9
$VERSIONGUID
  2
{00000000-0000-0000-0000-000000000000}
  9
$EXTNAMES
290
1
  9
$PSVPSCALE
 40
0.0
  9
$OLESTARTUP
290
0
  0
ENDSEC
  0
SECTION
  2
CLASSES
  0
CLASS
  1
ACDBDICTIONARYWDFLT
  2
AcDbDictionaryWithDefault
  3
ObjectDBX Classes
 90
0
280
0
281
0
  0
CLASS
  1
SUN
  2
AcDbSun
  3
SCENEOE
 90
1153
280
0
281
0
  0
CLASS
  1
VISUALSTYLE
  2
AcDbVisualStyle
  3
ObjectDBX Classes
 90
4095
280
0
281
0
  0
CLASS
  1
MATERIAL
  2
AcDbMaterial
  3
ObjectDBX Classes
 90
1153
280
0
281
0
  0
CLASS
  1
SCALE
  2
AcDbScale
  3
ObjectDBX Classes
 90
1153
280
0
281
0
  0
CLASS
  1
TABLESTYLE
  2
AcDbTableStyle
  3
ObjectDBX Classes
 90
4095
280
0
281
0
  0
CLASS
  1
MLEADERSTYLE
  2
AcDbMLeaderStyle
  3
ACDB_MLEADERSTYLE_CLASS
 90
4095
280
0
281
0
  0
CLASS
  1
DICTIONARYVAR
  2
AcDbDictionaryVar
  3
ObjectDBX Classes
 90
0
280
0
281
0
  0
CLASS
  1
CELLSTYLEMAP
  2
AcDbCellStyleMap
  3
ObjectDBX Classes
 90
1152
280
0
281
0
  0
CLASS
  1
MENTALRAYRENDERSETTINGS
  2
AcDbMentalRayRenderSettings
  3
SCENEOE
 90
1024
280
0
281
0
  0
CLASS
  1
ACDBDETAILVIEWSTYLE
  2
AcDbDetailViewStyle
  3
ObjectDBX Classes
 90
1025
280
0
281
0
  0
CLASS
  1
ACDBSECTIONVIEWSTYLE
  2
AcDbSectionViewStyle
  3
ObjectDBX Classes
 90
1025
280
0
281
0
  0
CLASS
  1
RASTERVARIABLES
  2
AcDbRasterVariables
  3
ISM
 90
0
280
0
281
0
  0
CLASS
  1
ACDBPLACEHOLDER
  2
AcDbPlaceHolder
  3
ObjectDBX Classes
 90
0
280
0
281
0
  0
CLASS
  1
LAYOUT
  2
AcDbLayout
  3
ObjectDBX Classes
 90
0
280
0
281
0
  0
ENDSEC
  0
SECTION
  2
TABLES
  0
TABLE
  2
VPORT
  5
8
330
0
100
AcDbSymbolTable
 70
1
  0
VPORT
  5
23
330
8
100
AcDbSymbolTableRecord
100
AcDbViewportTableRecord
  2
*Active
 70
0
 10
0.0
 20
0.0
 11
1.0
 21
1.0
 12
0.0
 22
0.0
 13
0.0
 23
0.0
 14
0.5
 24
0.5
 15
0.5
 25
0.5
 16
0.0
 26
0.0
 36
1.0
 17
0.0
 27
0.0
 37
0.0
 40
1000.0
 41
1.34
 42
50.0
 43
0.0
 44
0.0
 50
0.0
 51
0.0
 71
0
 72
1000
 73
1
 74
3
 75
0
 76
0
 77
0
 78
0
281
0
 65
0
146
0.0
  0
ENDTAB
  0
TABLE
  2
LTYPE
  5
2
330
0
100
AcDbSymbolTable
 70
4
  0
LTYPE
  5
24
330
2
100
AcDbSymbolTableRecord
100
AcDbLinetypeTableRecord
  2
ByBlock
 70
0
  3

 72
65
 73
0
 40
0.0
  0
LTYPE
  5
25
330
2
100
AcDbSymbolTableRecord
100
AcDbLinetypeTableRecord
  2
ByLayer
 70
0
  3

 72
65
 73
0
 40
0.0
  0
LTYPE
  5
26
330
2
100
AcDbSymbolTableRecord
100
AcDbLinetypeTableRecord
  2
Continuous
 70
0
  3

 72
65
 73
0
 40
0.0
  0
LTYPE
  5
2F
330
2
100
AcDbSymbolTableRecord
100
AcDbLinetypeTableRecord
  2
DASHED
 70
0
  3
Loft hidden edge — 2/1.4
 72
65
 73
2
 40
0.0
 49
2.0
 74
0
 49
-1.4
 74
0
  0
ENDTAB
  0
TABLE
  2
LAYER
  5
1
330
0
100
AcDbSymbolTable
 70
6
  0
LAYER
  5
27
330
1
100
AcDbSymbolTableRecord
100
AcDbLayerTableRecord
  2
0
 70
0
 62
7
  6
Continuous
370
-3
390
13
  0
LAYER
  5
28
330
1
100
AcDbSymbolTableRecord
100
AcDbLayerTableRecord
  2
Defpoints
 70
0
 62
7
  6
Continuous
290
0
370
-3
390
13
  0
LAYER
  5
30
330
1
100
AcDbSymbolTableRecord
100
AcDbLayerTableRecord
  2
VISIBLE
 70
0
 62
7
  6
Continuous
370
-3
390
13
  0
LAYER
  5
31
330
1
100
AcDbSymbolTableRecord
100
AcDbLayerTableRecord
  2
HIDDEN
 70
0
 62
8
  6
DASHED
370
-3
390
13
  0
LAYER
  5
32
330
1
100
AcDbSymbolTableRecord
100
AcDbLayerTableRecord
  2
DIMENSION
 70
0
 62
1
  6
Continuous
370
-3
390
13
  0
LAYER
  5
33
330
1
100
AcDbSymbolTableRecord
100
AcDbLayerTableRecord
  2
TITLE
 70
0
 62
5
  6
Continuous
370
-3
390
13
  0
ENDTAB
  0
TABLE
  2
STYLE
  5
5
330
0
100
AcDbSymbolTable
 70
2
  0
STYLE
  5
29
330
5
100
AcDbSymbolTableRecord
100
AcDbTextStyleTableRecord
  2
Standard
 70
0
 40
0.0
 41
1.0
 50
0.0
 71
0
 42
2.5
  3
txt
  4

  0
STYLE
  5
34
330
5
100
AcDbSymbolTableRecord
100
AcDbTextStyleTableRecord
  2
LOFT_MONO
 70
0
 40
0.0
 41
1.0
 50
0.0
 71
0
 42
2.5
  3
cour.ttf
  4

  0
ENDTAB
  0
TABLE
  2
VIEW
  5
7
330
0
100
AcDbSymbolTable
 70
0
  0
ENDTAB
  0
TABLE
  2
UCS
  5
6
330
0
100
AcDbSymbolTable
 70
0
  0
ENDTAB
  0
TABLE
  2
APPID
  5
3
330
0
100
AcDbSymbolTable
 70
3
  0
APPID
  5
2A
330
3
100
AcDbSymbolTableRecord
100
AcDbRegAppTableRecord
  2
ACAD
 70
0
  0
APPID
  5
A0
330
3
100
AcDbSymbolTableRecord
100
AcDbRegAppTableRecord
  2
HATCHBACKGROUNDCOLOR
 70
0
  0
APPID
  5
A1
330
3
100
AcDbSymbolTableRecord
100
AcDbRegAppTableRecord
  2
EZDXF
 70
0
  0
ENDTAB
  0
TABLE
  2
DIMSTYLE
  5
4
330
0
100
AcDbSymbolTable
 70
1
100
AcDbDimStyleTable
  0
DIMSTYLE
105
2B
330
4
100
AcDbSymbolTableRecord
100
AcDbDimStyleTableRecord
  2
Standard
 70
0
  3

  4

 40
1.0
 41
2.5
 42
0.625
 43
3.75
 44
1.25
 45
0.0
 46
0.0
 47
0.0
 48
0.0
140
2.5
141
2.5
142
0.0
143
0.03937007874
144
1.0
145
0.0
146
1.0
147
0.625
148
0.0
 71
0
 72
0
 73
0
 74
0
 75
0
 76
0
 77
1
 78
8
 79
3
170
0
171
3
172
1
173
0
174
0
175
0
176
0
177
0
178
0
179
2
271
2
272
2
273
2
274
3
275
0
276
0
277
2
278
44
279
0
280
0
281
0
282
0
283
0
284
8
285
0
286
0
288
0
289
3
371
-2
372
-2
  0
ENDTAB
  0
TABLE
  2
BLOCK_RECORD
  5
9
330
0
100
AcDbSymbolTable
 70
2
  0
BLOCK_RECORD
  5
17
330
9
100
AcDbSymbolTableRecord
100
AcDbBlockTableRecord
  2
*Model_Space
340
1A
  0
BLOCK_RECORD
  5
1B
330
9
100
AcDbSymbolTableRecord
100
AcDbBlockTableRecord
  2
*Paper_Space
340
1E
  0
ENDTAB
  0
ENDSEC
  0
SECTION
  2
BLOCKS
  0
BLOCK
  5
18
330
17
100
AcDbEntity
  8
0
100
AcDbBlockBegin
  2
*Model_Space
 70
0
 10
0.0
 20
0.0
 30
0.0
  3
*Model_Space
  1

  0
ENDBLK
  5
19
330
17
100
AcDbEntity
  8
0
100
AcDbBlockEnd
  0
BLOCK
  5
1C
330
1B
100
AcDbEntity
  8
0
100
AcDbBlockBegin
  2
*Paper_Space
 70
0
 10
0.0
 20
0.0
 30
0.0
  3
*Paper_Space
  1

  0
ENDBLK
  5
1D
330
1B
100
AcDbEntity
  8
0
100
AcDbBlockEnd
  0
ENDSEC
  0
SECTION
  2
ENTITIES
  0
LWPOLYLINE
  5
35
330
17
100
AcDbEntity
  8
TITLE
100
AcDbPolyline
 90
4
 70
1
 10
10.0
 20
200.0
 10
287.0
 20
200.0
 10
287.0
 20
10.0
 10
10.0
 20
10.0
  0
LINE
  5
36
330
17
100
AcDbEntity
  8
VISIBLE
100
AcDbLine
 10
93.5190296114372
 20
70.64944765528583
 30
0.0
 11
93.5190296114372
 21
80.64944765528583
 31
0.0
  0
LINE
  5
37
330
17
100
AcDbEntity
  8
VISIBLE
100
AcDbLine
 10
93.5190296114372
 20
70.64944765528583
 30
0.0
 11
133.5190296114372
 21
70.64944765528583
 31
0.0
  0
LINE
  5
38
330
17
100
AcDbEntity
  8
VISIBLE
100
AcDbLine
 10
93.5190296114372
 20
80.64944765528583
 30
0.0
 11
133.5190296114372
 21
80.64944765528583
 31
0.0
  0
LINE
  5
39
330
17
100
AcDbEntity
  8
HIDDEN
100
AcDbLine
 10
100.5190296114372
 20
70.64944765528583
 30
0.0
 11
100.5190296114372
 21
80.64944765528583
 31
0.0
  0
LINE
  5
3A
330
17
100
AcDbEntity
  8
HIDDEN
100
AcDbLine
 10
110.5190296114372
 20
70.64944765528583
 30
0.0
 11
110.5190296114372
 21
80.64944765528583
 31
0.0
  0
LINE
  5
3B
330
17
100
AcDbEntity
  8
HIDDEN
100
AcDbLine
 10
116.5190296114372
 20
70.64944765528583
 30
0.0
 11
116.5190296114372
 21
80.64944765528583
 31
0.0
  0
LINE
  5
3C
330
17
100
AcDbEntity
  8
HIDDEN
100
AcDbLine
 10
126.5190296114372
 20
70.64944765528583
 30
0.0
 11
126.5190296114372
 21
80.64944765528583
 31
0.0
  0
LINE
  5
3D
330
17
100
AcDbEntity
  8
VISIBLE
100
AcDbLine
 10
133.5190296114372
 20
70.64944765528583
 30
0.0
 11
133.5190296114372
 21
80.64944765528583
 31
0.0
  0
LWPOLYLINE
  5
3E
330
17
100
AcDbEntity
  8
HIDDEN
100
AcDbPolyline
 90
33
 70
0
 10
100.5190296114372
 20
70.64944765528583
 10
100.57387480353947
 20
70.64944765528583
 10
100.62871999564173
 20
70.64944765528583
 10
100.75995105721465
 20
70.64944765528583
 10
100.92173646657585
 20
70.64944765528583
 10
101.12587657076985
 20
70.64944765528583
 10
101.38648960140758
 20
70.64944765528583
 10
101.65935397428746
 20
70.64944765528583
 10
102.00572640062029
 20
70.64944765528583
 10
102.35209882695312
 20
70.64944765528583
 10
102.75709196978325
 20
70.64944765528583
 10
103.17185523202956
 20
70.64944765528583
 10
103.61381442230096
 20
70.64944765528583
 10
104.07617055859119
 20
70.64944765528583
 10
104.54550052537833
 20
70.64944765528583
 10
105.03226506840777
 20
70.64944765528583
 10
105.5190296114372
 20
70.64944765528583
 10
106.00579415446664
 20
70.64944765528583
 10
106.49255869749608
 20
70.64944765528583
 10
106.96188866428322
 20
70.64944765528583
 10
107.42424480057345
 20
70.64944765528583
 10
107.86620399084485
 20
70.64944765528583
 10
108.28096725309116
 20
70.64944765528583
 10
108.68596039592127
 20
70.64944765528583
 10
109.03233282225412
 20
70.64944765528583
 10
109.37870524858695
 20
70.64944765528583
 10
109.65156962146683
 20
70.64944765528583
 10
109.91218265210456
 20
70.64944765528583
 10
110.11632275629856
 20
70.64944765528583
 10
110.27810816565975
 20
70.64944765528583
 10
110.40933922723268
 20
70.64944765528583
 10
110.46418441933494
 20
70.64944765528583
 10
110.5190296114372
 20
70.64944765528583
  0
LWPOLYLINE
  5
3F
330
17
100
AcDbEntity
  8
HIDDEN
100
AcDbPolyline
 90
33
 70
0
 10
110.5190296114372
 20
70.64944765528583
 10
110.46418441933494
 20
70.64944765528583
 10
110.40933922723268
 20
70.64944765528583
 10
110.27810816565975
 20
70.64944765528583
 10
110.11632275629856
 20
70.64944765528583
 10
109.91218265210456
 20
70.64944765528583
 10
109.65156962146683
 20
70.64944765528583
 10
109.37870524858695
 20
70.64944765528583
 10
109.03233282225412
 20
70.64944765528583
 10
108.68596039592128
 20
70.64944765528583
 10
108.28096725309116
 20
70.64944765528583
 10
107.86620399084485
 20
70.64944765528583
 10
107.42424480057343
 20
70.64944765528583
 10
106.96188866428322
 20
70.64944765528583
 10
106.49255869749608
 20
70.64944765528583
 10
106.00579415446664
 20
70.64944765528583
 10
105.5190296114372
 20
70.64944765528583
 10
105.03226506840777
 20
70.64944765528583
 10
104.54550052537833
 20
70.64944765528583
 10
104.07617055859119
 20
70.64944765528583
 10
103.61381442230098
 20
70.64944765528583
 10
103.17185523202956
 20
70.64944765528583
 10
102.75709196978325
 20
70.64944765528583
 10
102.35209882695314
 20
70.64944765528583
 10
102.00572640062029
 20
70.64944765528583
 10
101.65935397428746
 20
70.64944765528583
 10
101.38648960140758
 20
70.64944765528583
 10
101.12587657076985
 20
70.64944765528583
 10
100.92173646657585
 20
70.64944765528583
 10
100.75995105721465
 20
70.64944765528583
 10
100.62871999564173
 20
70.64944765528583
 10
100.57387480353947
 20
70.64944765528583
 10
100.5190296114372
 20
70.64944765528583
  0
LWPOLYLINE
  5
40
330
17
100
AcDbEntity
  8
HIDDEN
100
AcDbPolyline
 90
33
 70
0
 10
100.5190296114372
 20
80.64944765528583
 10
100.57387480353947
 20
80.64944765528583
 10
100.62871999564173
 20
80.64944765528583
 10
100.75995105721465
 20
80.64944765528583
 10
100.92173646657585
 20
80.64944765528583
 10
101.12587657076985
 20
80.64944765528583
 10
101.38648960140758
 20
80.64944765528583
 10
101.65935397428746
 20
80.64944765528583
 10
102.00572640062029
 20
80.64944765528583
 10
102.35209882695312
 20
80.64944765528583
 10
102.75709196978325
 20
80.64944765528583
 10
103.17185523202956
 20
80.64944765528583
 10
103.61381442230096
 20
80.64944765528583
 10
104.07617055859119
 20
80.64944765528583
 10
104.54550052537833
 20
80.64944765528583
 10
105.03226506840777
 20
80.64944765528583
 10
105.5190296114372
 20
80.64944765528583
 10
106.00579415446664
 20
80.64944765528583
 10
106.49255869749608
 20
80.64944765528583
 10
106.96188866428322
 20
80.64944765528583
 10
107.42424480057345
 20
80.64944765528583
 10
107.86620399084485
 20
80.64944765528583
 10
108.28096725309116
 20
80.64944765528583
 10
108.68596039592127
 20
80.64944765528583
 10
109.03233282225412
 20
80.64944765528583
 10
109.37870524858695
 20
80.64944765528583
 10
109.65156962146683
 20
80.64944765528583
 10
109.91218265210456
 20
80.64944765528583
 10
110.11632275629856
 20
80.64944765528583
 10
110.27810816565975
 20
80.64944765528583
 10
110.40933922723268
 20
80.64944765528583
 10
110.46418441933494
 20
80.64944765528583
 10
110.5190296114372
 20
80.64944765528583
  0
LWPOLYLINE
  5
41
330
17
100
AcDbEntity
  8
HIDDEN
100
AcDbPolyline
 90
33
 70
0
 10
110.5190296114372
 20
80.64944765528583
 10
110.46418441933494
 20
80.64944765528583
 10
110.40933922723268
 20
80.64944765528583
 10
110.27810816565975
 20
80.64944765528583
 10
110.11632275629856
 20
80.64944765528583
 10
109.91218265210456
 20
80.64944765528583
 10
109.65156962146683
 20
80.64944765528583
 10
109.37870524858695
 20
80.64944765528583
 10
109.03233282225412
 20
80.64944765528583
 10
108.68596039592128
 20
80.64944765528583
 10
108.28096725309116
 20
80.64944765528583
 10
107.86620399084485
 20
80.64944765528583
 10
107.42424480057343
 20
80.64944765528583
 10
106.96188866428322
 20
80.64944765528583
 10
106.49255869749608
 20
80.64944765528583
 10
106.00579415446664
 20
80.64944765528583
 10
105.5190296114372
 20
80.64944765528583
 10
105.03226506840777
 20
80.64944765528583
 10
104.54550052537833
 20
80.64944765528583
 10
104.07617055859119
 20
80.64944765528583
 10
103.61381442230098
 20
80.64944765528583
 10
103.17185523202956
 20
80.64944765528583
 10
102.75709196978325
 20
80.64944765528583
 10
102.35209882695314
 20
80.64944765528583
 10
102.00572640062029
 20
80.64944765528583
 10
101.65935397428746
 20
80.64944765528583
 10
101.38648960140758
 20
80.64944765528583
 10
101.12587657076985
 20
80.64944765528583
 10
100.92173646657585
 20
80.64944765528583
 10
100.75995105721465
 20
80.64944765528583
 10
100.62871999564173
 20
80.64944765528583
 10
100.57387480353947
 20
80.64944765528583
 10
100.5190296114372
 20
80.64944765528583
  0
LWPOLYLINE
  5
42
330
17
100
AcDbEntity
  8
HIDDEN
100
AcDbPolyline
 90
33
 70
0
 10
116.5190296114372
 20
70.64944765528583
 10
116.57387480353947
 20
70.64944765528583
 10
116.62871999564173
 20
70.64944765528583
 10
116.75995105721466
 20
70.64944765528583
 10
116.92173646657585
 20
70.64944765528583
 10
117.12587657076985
 20
70.64944765528583
 10
117.38648960140758
 20
70.64944765528583
 10
117.65935397428746
 20
70.64944765528583
 10
118.00572640062029
 20
70.64944765528583
 10
118.35209882695312
 20
70.64944765528583
 10
118.75709196978325
 20
70.64944765528583
 10
119.17185523202956
 20
70.64944765528583
 10
119.61381442230096
 20
70.64944765528583
 10
120.07617055859119
 20
70.64944765528583
 10
120.54550052537833
 20
70.64944765528583
 10
121.03226506840777
 20
70.64944765528583
 10
121.5190296114372
 20
70.64944765528583
 10
122.00579415446664
 20
70.64944765528583
 10
122.49255869749608
 20
70.64944765528583
 10
122.96188866428322
 20
70.64944765528583
 10
123.42424480057345
 20
70.64944765528583
 10
123.86620399084485
 20
70.64944765528583
 10
124.28096725309116
 20
70.64944765528583
 10
124.68596039592127
 20
70.64944765528583
 10
125.03233282225412
 20
70.64944765528583
 10
125.37870524858695
 20
70.64944765528583
 10
125.65156962146683
 20
70.64944765528583
 10
125.91218265210456
 20
70.64944765528583
 10
126.11632275629856
 20
70.64944765528583
 10
126.27810816565975
 20
70.64944765528583
 10
126.40933922723268
 20
70.64944765528583
 10
126.46418441933494
 20
70.64944765528583
 10
126.5190296114372
 20
70.64944765528583
  0
LWPOLYLINE
  5
43
330
17
100
AcDbEntity
  8
HIDDEN
100
AcDbPolyline
 90
33
 70
0
 10
126.5190296114372
 20
70.64944765528583
 10
126.46418441933494
 20
70.64944765528583
 10
126.40933922723268
 20
70.64944765528583
 10
126.27810816565975
 20
70.64944765528583
 10
126.11632275629856
 20
70.64944765528583
 10
125.91218265210456
 20
70.64944765528583
 10
125.65156962146683
 20
70.64944765528583
 10
125.37870524858695
 20
70.64944765528583
 10
125.03233282225412
 20
70.64944765528583
 10
124.68596039592128
 20
70.64944765528583
 10
124.28096725309118
 20
70.64944765528583
 10
123.86620399084485
 20
70.64944765528583
 10
123.42424480057343
 20
70.64944765528583
 10
122.96188866428322
 20
70.64944765528583
 10
122.49255869749608
 20
70.64944765528583
 10
122.00579415446664
 20
70.64944765528583
 10
121.5190296114372
 20
70.64944765528583
 10
121.03226506840777
 20
70.64944765528583
 10
120.54550052537833
 20
70.64944765528583
 10
120.07617055859119
 20
70.64944765528583
 10
119.61381442230098
 20
70.64944765528583
 10
119.17185523202956
 20
70.64944765528583
 10
118.75709196978323
 20
70.64944765528583
 10
118.35209882695312
 20
70.64944765528583
 10
118.00572640062029
 20
70.64944765528583
 10
117.65935397428746
 20
70.64944765528583
 10
117.38648960140758
 20
70.64944765528583
 10
117.12587657076985
 20
70.64944765528583
 10
116.92173646657585
 20
70.64944765528583
 10
116.75995105721466
 20
70.64944765528583
 10
116.62871999564173
 20
70.64944765528583
 10
116.57387480353947
 20
70.64944765528583
 10
116.5190296114372
 20
70.64944765528583
  0
LWPOLYLINE
  5
44
330
17
100
AcDbEntity
  8
HIDDEN
100
AcDbPolyline
 90
33
 70
0
 10
116.5190296114372
 20
80.64944765528583
 10
116.57387480353947
 20
80.64944765528583
 10
116.62871999564173
 20
80.64944765528583
 10
116.75995105721466
 20
80.64944765528583
 10
116.92173646657585
 20
80.64944765528583
 10
117.12587657076985
 20
80.64944765528583
 10
117.38648960140758
 20
80.64944765528583
 10
117.65935397428746
 20
80.64944765528583
 10
118.00572640062029
 20
80.64944765528583
 10
118.35209882695312
 20
80.64944765528583
 10
118.75709196978325
 20
80.64944765528583
 10
119.17185523202956
 20
80.64944765528583
 10
119.61381442230096
 20
80.64944765528583
 10
120.07617055859119
 20
80.64944765528583
 10
120.54550052537833
 20
80.64944765528583
 10
121.03226506840777
 20
80.64944765528583
 10
121.5190296114372
 20
80.64944765528583
 10
122.00579415446664
 20
80.64944765528583
 10
122.49255869749608
 20
80.64944765528583
 10
122.96188866428322
 20
80.64944765528583
 10
123.42424480057345
 20
80.64944765528583
 10
123.86620399084485
 20
80.64944765528583
 10
124.28096725309116
 20
80.64944765528583
 10
124.68596039592127
 20
80.64944765528583
 10
125.03233282225412
 20
80.64944765528583
 10
125.37870524858695
 20
80.64944765528583
 10
125.65156962146683
 20
80.64944765528583
 10
125.91218265210456
 20
80.64944765528583
 10
126.11632275629856
 20
80.64944765528583
 10
126.27810816565975
 20
80.64944765528583
 10
126.40933922723268
 20
80.64944765528583
 10
126.46418441933494
 20
80.64944765528583
 10
126.5190296114372
 20
80.64944765528583
  0
LWPOLYLINE
  5
45
330
17
100
AcDbEntity
  8
HIDDEN
100
AcDbPolyline
 90
33
 70
0
 10
126.5190296114372
 20
80.64944765528583
 10
126.46418441933494
 20
80.64944765528583
 10
126.40933922723268
 20
80.64944765528583
 10
126.27810816565975
 20
80.64944765528583
 10
126.11632275629856
 20
80.64944765528583
 10
125.91218265210456
 20
80.64944765528583
 10
125.65156962146683
 20
80.64944765528583
 10
125.37870524858695
 20
80.64944765528583
 10
125.03233282225412
 20
80.64944765528583
 10
124.68596039592128
 20
80.64944765528583
 10
124.28096725309118
 20
80.64944765528583
 10
123.86620399084485
 20
80.64944765528583
 10
123.42424480057343
 20
80.64944765528583
 10
122.96188866428322
 20
80.64944765528583
 10
122.49255869749608
 20
80.64944765528583
 10
122.00579415446664
 20
80.64944765528583
 10
121.5190296114372
 20
80.64944765528583
 10
121.03226506840777
 20
80.64944765528583
 10
120.54550052537833
 20
80.64944765528583
 10
120.07617055859119
 20
80.64944765528583
 10
119.61381442230098
 20
80.64944765528583
 10
119.17185523202956
 20
80.64944765528583
 10
118.75709196978323
 20
80.64944765528583
 10
118.35209882695312
 20
80.64944765528583
 10
118.00572640062029
 20
80.64944765528583
 10
117.65935397428746
 20
80.64944765528583
 10
117.38648960140758
 20
80.64944765528583
 10
117.12587657076985
 20
80.64944765528583
 10
116.92173646657585
 20
80.64944765528583
 10
116.75995105721466
 20
80.64944765528583
 10
116.62871999564173
 20
80.64944765528583
 10
116.57387480353947
 20
80.64944765528583
 10
116.5190296114372
 20
80.64944765528583
  0
LINE
  5
46
330
17
100
AcDbEntity
  8
DIMENSION
100
AcDbLine
 10
93.5190296114372
 20
69.24944765528582
 30
0.0
 11
93.5190296114372
 21
39.04944765528583
 31
0.0
  0
LINE
  5
47
330
17
100
AcDbEntity
  8
DIMENSION
100
AcDbLine
 10
133.5190296114372
 20
69.24944765528582
 30
0.0
 11
133.5190296114372
 21
39.04944765528583
 31
0.0
  0
LINE
  5
48
330
17
100
AcDbEntity
  8
DIMENSION
100
AcDbLine
 10
93.5190296114372
 20
40.649447655285826
 30
0.0
 11
133.5190296114372
 21
40.649447655285826
 31
0.0
  0
SOLID
  5
49
330
17
100
AcDbEntity
  8
DIMENSION
100
AcDbTrace
 10
93.5190296114372
 20
40.649447655285826
 30
0.0
 11
96.9190296114372
 21
39.74944765528582
 31
0.0
 12
96.9190296114372
 22
41.54944765528583
 32
0.0
 13
96.9190296114372
 23
41.54944765528583
 33
0.0
  0
SOLID
  5
4A
330
17
100
AcDbEntity
  8
DIMENSION
100
AcDbTrace
 10
133.5190296114372
 20
40.649447655285826
 30
0.0
 11
130.1190296114372
 21
41.54944765528583
 31
0.0
 12
130.1190296114372
 22
39.74944765528582
 32
0.0
 13
130.1190296114372
 23
39.74944765528582
 33
0.0
  0
TEXT
  5
4B
330
17
100
AcDbEntity
  8
DIMENSION
100
AcDbText
 10
120.0
 20
110.0
 30
0.0
 40
3.2
  1
40.000
  7
LOFT_MONO
 72
1
 11
120.0
 21
110.0
 31
0.0
100
AcDbText
 73
2
  0
LINE
  5
4C
330
17
100
AcDbEntity
  8
DIMENSION
100
AcDbLine
 10
106.5190296114372
 20
70.64944765528583
 30
0.0
 11
106.40781280929674
 21
72.34628815414649
 31
0.0
  0
LINE
  5
4D
330
17
100
AcDbEntity
  8
DIMENSION
100
AcDbLine
 10
106.40781280929674
 20
72.34628815414649
 30
0.0
 11
106.07606535319509
 21
74.0140952416186
 31
0.0
  0
LINE
  5
4E
330
17
100
AcDbEntity
  8
DIMENSION
100
AcDbLine
 10
106.07606535319509
 20
74.0140952416186
 30
0.0
 11
105.52946353408393
 21
75.62433227603199
 31
0.0
  0
LINE
  5
4F
330
17
100
AcDbEntity
  8
DIMENSION
100
AcDbLine
 10
105.52946353408393
 20
75.62433227603199
 30
0.0
 11
104.7773598606349
 21
77.14944765528583
 31
0.0
  0
LINE
  5
50
330
17
100
AcDbEntity
  8
DIMENSION
100
AcDbLine
 10
104.7773598606349
 20
77.14944765528583
 30
0.0
 11
103.83262303522326
 21
78.5633462323992
 31
0.0
  0
LINE
  5
51
330
17
100
AcDbEntity
  8
DIMENSION
100
AcDbLine
 10
103.83262303522326
 20
78.5633462323992
 30
0.0
 11
102.71141776686233
 21
79.84183581071093
 31
0.0
  0
LINE
  5
52
330
17
100
AcDbEntity
  8
DIMENSION
100
AcDbLine
 10
102.71141776686233
 20
79.84183581071093
 30
0.0
 11
101.43292818855058
 21
80.96304107907187
 31
0.0
  0
LINE
  5
53
330
17
100
AcDbEntity
  8
DIMENSION
100
AcDbLine
 10
101.43292818855058
 20
80.96304107907187
 30
0.0
 11
100.0190296114372
 21
81.90777790448354
 31
0.0
  0
LINE
  5
54
330
17
100
AcDbEntity
  8
DIMENSION
100
AcDbLine
 10
100.0190296114372
 20
81.90777790448354
 30
0.0
 11
98.49391423218337
 21
82.65988157793255
 31
0.0
  0
LINE
  5
55
330
17
100
AcDbEntity
  8
DIMENSION
100
AcDbLine
 10
98.49391423218337
 20
82.65988157793255
 30
0.0
 11
96.88367719776997
 21
83.20648339704371
 31
0.0
  0
LINE
  5
56
330
17
100
AcDbEntity
  8
DIMENSION
100
AcDbLine
 10
96.88367719776997
 20
83.20648339704371
 30
0.0
 11
95.21587011029789
 21
83.53823085314536
 31
0.0
  0
LINE
  5
57
330
17
100
AcDbEntity
  8
DIMENSION
100
AcDbLine
 10
95.21587011029789
 20
83.53823085314536
 30
0.0
 11
93.5190296114372
 21
83.64944765528583
 31
0.0
  0
LINE
  5
58
330
17
100
AcDbEntity
  8
DIMENSION
100
AcDbLine
 10
94.9190296114372
 20
70.64944765528583
 30
0.0
 11
108.1190296114372
 21
70.64944765528583
 31
0.0
  0
LINE
  5
59
330
17
100
AcDbEntity
  8
DIMENSION
100
AcDbLine
 10
93.5190296114372
 20
72.04944765528583
 30
0.0
 11
93.5190296114372
 21
85.24944765528582
 31
0.0
  0
SOLID
  5
5A
330
17
100
AcDbEntity
  8
DIMENSION
100
AcDbTrace
 10
106.5190296114372
 20
70.64944765528583
 30
0.0
 11
105.6457606325785
 21
67.2424840084937
 31
0.0
 12
107.44570511633913
 22
67.25662103009338
 32
0.0
 13
107.44570511633913
 23
67.25662103009338
 33
0.0
  0
SOLID
  5
5B
330
17
100
AcDbEntity
  8
DIMENSION
100
AcDbTrace
 10
93.5190296114372
 20
83.64944765528583
 30
0.0
 11
90.12620298624476
 21
84.57612316018775
 31
0.0
 12
90.11206596464508
 22
82.77617867642712
 32
0.0
 13
90.11206596464508
 23
82.77617867642712
 33
0.0
  0
TEXT
  5
5C
330
17
100
AcDbEntity
  8
DIMENSION
100
AcDbText
 10
105.56812916285597
 20
82.69854720670459
 30
0.0
 40
3.2
  1
90.0°
  7
LOFT_MONO
 72
1
 11
105.56812916285597
 21
82.69854720670459
 31
0.0
100
AcDbText
 73
2
  0
TEXT
  5
5D
330
17
100
AcDbEntity
  8
TITLE
100
AcDbText
 10
113.5190296114372
 20
62.649447655285826
 30
0.0
 40
3.4
  1
FRONT
  7
LOFT_MONO
 72
1
 11
113.5190296114372
 21
62.649447655285826
 31
0.0
100
AcDbText
 73
2
  0
LINE
  5
5E
330
17
100
AcDbEntity
  8
VISIBLE
100
AcDbLine
 10
93.5190296114372
 20
104.64944765528583
 30
0.0
 11
93.5190296114372
 21
129.64944765528583
 31
0.0
  0
LINE
  5
5F
330
17
100
AcDbEntity
  8
VISIBLE
100
AcDbLine
 10
93.5190296114372
 20
104.64944765528583
 30
0.0
 11
133.5190296114372
 21
104.64944765528583
 31
0.0
  0
LINE
  5
60
330
17
100
AcDbEntity
  8
VISIBLE
100
AcDbLine
 10
93.5190296114372
 20
129.64944765528583
 30
0.0
 11
133.5190296114372
 21
129.64944765528583
 31
0.0
  0
LINE
  5
61
330
17
100
AcDbEntity
  8
VISIBLE
100
AcDbLine
 10
133.5190296114372
 20
104.64944765528583
 30
0.0
 11
133.5190296114372
 21
129.64944765528583
 31
0.0
  0
CIRCLE
  5
62
330
17
100
AcDbEntity
  8
VISIBLE
100
AcDbCircle
 10
105.5190296114372
 20
117.14944765528583
 30
0.0
 40
5.0
  0
CIRCLE
  5
63
330
17
100
AcDbEntity
  8
VISIBLE
100
AcDbCircle
 10
121.5190296114372
 20
117.14944765528583
 30
0.0
 40
5.0
  0
LINE
  5
64
330
17
100
AcDbEntity
  8
DIMENSION
100
AcDbLine
 10
100.5190296114372
 20
117.14944765528583
 30
0.0
 11
110.5190296114372
 21
117.14944765528583
 31
0.0
  0
SOLID
  5
65
330
17
100
AcDbEntity
  8
DIMENSION
100
AcDbTrace
 10
100.5190296114372
 20
117.14944765528583
 30
0.0
 11
103.91902961143721
 21
116.24944765528582
 31
0.0
 12
103.91902961143721
 22
118.04944765528583
 32
0.0
 13
103.91902961143721
 23
118.04944765528583
 33
0.0
  0
SOLID
  5
66
330
17
100
AcDbEntity
  8
DIMENSION
100
AcDbTrace
 10
110.5190296114372
 20
117.14944765528583
 30
0.0
 11
107.1190296114372
 21
118.04944765528583
 31
0.0
 12
107.1190296114372
 22
116.24944765528582
 32
0.0
 13
107.1190296114372
 23
116.24944765528582
 33
0.0
  0
TEXT
  5
67
330
17
100
AcDbEntity
  8
DIMENSION
100
AcDbText
 10
91.2750296114372
 20
117.14944765528583
 30
0.0
 40
3.2
  1
Ø10.000
  7
LOFT_MONO
 72
1
 11
91.2750296114372
 21
117.14944765528583
 31
0.0
100
AcDbText
 73
2
  0
LINE
  5
68
330
17
100
AcDbEntity
  8
DIMENSION
100
AcDbLine
 10
105.5190296114372
 20
117.14944765528583
 30
0.0
 11
109.05456351736994
 21
120.68498156121856
 31
0.0
  0
SOLID
  5
69
330
17
100
AcDbEntity
  8
DIMENSION
100
AcDbTrace
 10
109.05456351736994
 20
120.68498156121856
 30
0.0
 11
106.01400435826778
 21
118.9172146082522
 31
0.0
 12
107.28679656440357
 22
117.6444224021164
 32
0.0
 13
107.28679656440357
 23
117.6444224021164
 33
0.0
  0
TEXT
  5
6A
330
17
100
AcDbEntity
  8
DIMENSION
100
AcDbText
 10
115.59671545690787
 20
127.22713350075651
 30
0.0
 40
3.2
  1
R5.000
  7
LOFT_MONO
 72
1
 11
115.59671545690787
 21
127.22713350075651
 31
0.0
100
AcDbText
 73
2
  0
TEXT
  5
6B
330
17
100
AcDbEntity
  8
TITLE
100
AcDbText
 10
113.5190296114372
 20
96.64944765528583
 30
0.0
 40
3.4
  1
TOP
  7
LOFT_MONO
 72
1
 11
113.5190296114372
 21
96.64944765528583
 31
0.0
100
AcDbText
 73
2
  0
LINE
  5
6C
330
17
100
AcDbEntity
  8
VISIBLE
100
AcDbLine
 10
157.5190296114372
 20
70.64944765528583
 30
0.0
 11
157.5190296114372
 21
80.64944765528583
 31
0.0
  0
LINE
  5
6D
330
17
100
AcDbEntity
  8
VISIBLE
100
AcDbLine
 10
157.5190296114372
 20
70.64944765528583
 30
0.0
 11
182.5190296114372
 21
70.64944765528583
 31
0.0
  0
LINE
  5
6E
330
17
100
AcDbEntity
  8
VISIBLE
100
AcDbLine
 10
157.5190296114372
 20
80.64944765528583
 30
0.0
 11
182.5190296114372
 21
80.64944765528583
 31
0.0
  0
LINE
  5
6F
330
17
100
AcDbEntity
  8
HIDDEN
100
AcDbLine
 10
165.0190296114372
 20
70.64944765528583
 30
0.0
 11
165.0190296114372
 21
80.64944765528583
 31
0.0
  0
LINE
  5
70
330
17
100
AcDbEntity
  8
HIDDEN
100
AcDbLine
 10
175.0190296114372
 20
70.64944765528583
 30
0.0
 11
175.0190296114372
 21
80.64944765528583
 31
0.0
  0
LINE
  5
71
330
17
100
AcDbEntity
  8
VISIBLE
100
AcDbLine
 10
182.5190296114372
 20
70.64944765528583
 30
0.0
 11
182.5190296114372
 21
80.64944765528583
 31
0.0
  0
LWPOLYLINE
  5
72
330
17
100
AcDbEntity
  8
HIDDEN
100
AcDbPolyline
 90
33
 70
0
 10
165.0190296114372
 20
70.64944765528583
 10
165.03278415229573
 20
70.64944765528583
 10
165.04653869315425
 20
70.64944765528583
 10
165.07981902714508
 20
70.64944765528583
 10
165.12090967838878
 20
70.64944765528583
 10
165.17349434603443
 20
70.64944765528583
 10
165.24140436888263
 20
70.64944765528583
 10
165.3130237293972
 20
70.64944765528583
 10
165.40689911591022
 20
70.64944765528583
 10
165.50077450242324
 20
70.64944765528583
 10
165.6158940256891
 20
70.64944765528583
 10
165.73455423841378
 20
70.64944765528583
 10
165.8665245112461
 20
70.64944765528583
 10
166.00847732915915
 20
70.64944765528583
 10
166.15657513739797
 20
70.64944765528583
 10
166.32003542145122
 20
70.64944765528583
 10
166.48349570550445
 20
70.64944765528583
 10
166.66640784778406
 20
70.64944765528583
 10
166.84931999006363
 20
70.64944765528583
 10
167.04448329799257
 20
70.64944765528583
 10
167.24454707218126
 20
70.64944765528583
 10
167.4508832951709
 20
70.64944765528583
 10
167.66558278322856
 20
70.64944765528583
 10
167.88198737746265
 20
70.64944765528583
 10
168.10862260875538
 20
70.64944765528583
 10
168.33525784004811
 20
70.64944765528583
 10
168.5696807916592
 20
70.64944765528583
 10
168.8054016966567
 20
70.64944765528583
 10
169.04462051397186
 20
70.64944765528583
 10
169.28646276552533
 20
70.64944765528583
 10
169.52918502848522
 20
70.64944765528583
 10
169.77410731996122
 20
70.64944765528583
 10
170.0190296114372
 20
70.64944765528583
  0
LWPOLYLINE
  5
73
330
17
100
AcDbEntity
  8
HIDDEN
100
AcDbPolyline
 90
33
 70
0
 10
175.0190296114372
 20
70.64944765528583
 10
174.9641844193349
 20
70.64944765528583
 10
174.90933922723266
 20
70.64944765528583
 10
174.77810816565975
 20
70.64944765528583
 10
174.61632275629853
 20
70.64944765528583
 10
174.41218265210455
 20
70.64944765528583
 10
174.15156962146682
 20
70.64944765528583
 10
173.87870524858693
 20
70.64944765528583
 10
173.5323328222541
 20
70.64944765528583
 10
173.18596039592126
 20
70.64944765528583
 10
172.78096725309115
 20
70.64944765528583
 10
172.36620399084484
 20
70.64944765528583
 10
171.92424480057343
 20
70.64944765528583
 10
171.4618886642832
 20
70.64944765528583
 10
170.99255869749607
 20
70.64944765528583
 10
170.50579415446663
 20
70.64944765528583
 10
170.0190296114372
 20
70.64944765528583
 10
169.53226506840775
 20
70.64944765528583
 10
169.04550052537832
 20
70.64944765528583
 10
168.57617055859117
 20
70.64944765528583
 10
168.11381442230095
 20
70.64944765528583
 10
167.67185523202954
 20
70.64944765528583
 10
167.25709196978323
 20
70.64944765528583
 10
166.85209882695312
 20
70.64944765528583
 10
166.5057264006203
 20
70.64944765528583
 10
166.15935397428746
 20
70.64944765528583
 10
165.88648960140756
 20
70.64944765528583
 10
165.62587657076983
 20
70.64944765528583
 10
165.42173646657585
 20
70.64944765528583
 10
165.25995105721464
 20
70.64944765528583
 10
165.12871999564172
 20
70.64944765528583
 10
165.07387480353944
 20
70.64944765528583
 10
165.0190296114372
 20
70.64944765528583
  0
LWPOLYLINE
  5
74
330
17
100
AcDbEntity
  8
HIDDEN
100
AcDbPolyline
 90
33
 70
0
 10
165.0190296114372
 20
80.64944765528583
 10
165.03278415229573
 20
80.64944765528583
 10
165.04653869315425
 20
80.64944765528583
 10
165.07981902714508
 20
80.64944765528583
 10
165.12090967838878
 20
80.64944765528583
 10
165.17349434603443
 20
80.64944765528583
 10
165.24140436888263
 20
80.64944765528583
 10
165.3130237293972
 20
80.64944765528583
 10
165.40689911591022
 20
80.64944765528583
 10
165.50077450242324
 20
80.64944765528583
 10
165.6158940256891
 20
80.64944765528583
 10
165.73455423841378
 20
80.64944765528583
 10
165.8665245112461
 20
80.64944765528583
 10
166.00847732915915
 20
80.64944765528583
 10
166.15657513739797
 20
80.64944765528583
 10
166.32003542145122
 20
80.64944765528583
 10
166.48349570550445
 20
80.64944765528583
 10
166.66640784778406
 20
80.64944765528583
 10
166.84931999006363
 20
80.64944765528583
 10
167.04448329799257
 20
80.64944765528583
 10
167.24454707218126
 20
80.64944765528583
 10
167.4508832951709
 20
80.64944765528583
 10
167.66558278322856
 20
80.64944765528583
 10
167.88198737746265
 20
80.64944765528583
 10
168.10862260875538
 20
80.64944765528583
 10
168.33525784004811
 20
80.64944765528583
 10
168.5696807916592
 20
80.64944765528583
 10
168.8054016966567
 20
80.64944765528583
 10
169.04462051397186
 20
80.64944765528583
 10
169.28646276552533
 20
80.64944765528583
 10
169.52918502848522
 20
80.64944765528583
 10
169.77410731996122
 20
80.64944765528583
 10
170.0190296114372
 20
80.64944765528583
  0
LWPOLYLINE
  5
75
330
17
100
AcDbEntity
  8
HIDDEN
100
AcDbPolyline
 90
33
 70
0
 10
175.0190296114372
 20
80.64944765528583
 10
174.9641844193349
 20
80.64944765528583
 10
174.90933922723266
 20
80.64944765528583
 10
174.77810816565975
 20
80.64944765528583
 10
174.61632275629853
 20
80.64944765528583
 10
174.41218265210455
 20
80.64944765528583
 10
174.15156962146682
 20
80.64944765528583
 10
173.87870524858693
 20
80.64944765528583
 10
173.5323328222541
 20
80.64944765528583
 10
173.18596039592126
 20
80.64944765528583
 10
172.78096725309115
 20
80.64944765528583
 10
172.36620399084484
 20
80.64944765528583
 10
171.92424480057343
 20
80.64944765528583
 10
171.4618886642832
 20
80.64944765528583
 10
170.99255869749607
 20
80.64944765528583
 10
170.50579415446663
 20
80.64944765528583
 10
170.0190296114372
 20
80.64944765528583
 10
169.53226506840775
 20
80.64944765528583
 10
169.04550052537832
 20
80.64944765528583
 10
168.57617055859117
 20
80.64944765528583
 10
168.11381442230095
 20
80.64944765528583
 10
167.67185523202954
 20
80.64944765528583
 10
167.25709196978323
 20
80.64944765528583
 10
166.85209882695312
 20
80.64944765528583
 10
166.5057264006203
 20
80.64944765528583
 10
166.15935397428746
 20
80.64944765528583
 10
165.88648960140756
 20
80.64944765528583
 10
165.62587657076983
 20
80.64944765528583
 10
165.42173646657585
 20
80.64944765528583
 10
165.25995105721464
 20
80.64944765528583
 10
165.12871999564172
 20
80.64944765528583
 10
165.07387480353944
 20
80.64944765528583
 10
165.0190296114372
 20
80.64944765528583
  0
LWPOLYLINE
  5
76
330
17
100
AcDbEntity
  8
HIDDEN
100
AcDbPolyline
 90
33
 70
0
 10
170.0190296114372
 20
70.64944765528583
 10
170.26395190291316
 20
70.64944765528583
 10
170.50887419438916
 20
70.64944765528583
 10
170.75159645734905
 20
70.64944765528583
 10
170.99343870890252
 20
70.64944765528583
 10
171.23265752621768
 20
70.64944765528583
 10
171.46837843121517
 20
70.64944765528583
 10
171.70280138282627
 20
70.64944765528583
 10
171.929436614119
 20
70.64944765528583
 10
172.15607184541173
 20
70.64944765528583
 10
172.37247643964582
 20
70.64944765528583
 10
172.58717592770347
 20
70.64944765528583
 10
172.79351215069312
 20
70.64944765528583
 10
172.9935759248818
 20
70.64944765528583
 10
173.18873923281075
 20
70.64944765528583
 10
173.37165137509032
 20
70.64944765528583
 10
173.55456351736993
 20
70.64944765528583
 10
173.71802380142316
 20
70.64944765528583
 10
173.88148408547642
 20
70.64944765528583
 10
174.02958189371523
 20
70.64944765528583
 10
174.17153471162828
 20
70.64944765528583
 10
174.3035049844606
 20
70.64944765528583
 10
174.42216519718528
 20
70.64944765528583
 10
174.53728472045114
 20
70.64944765528583
 10
174.63116010696416
 20
70.64944765528583
 10
174.72503549347718
 20
70.64944765528583
 10
174.79665485399175
 20
70.64944765528583
 10
174.86456487683995
 20
70.64944765528583
 10
174.9171495444856
 20
70.64944765528583
 10
174.9582401957293
 20
70.64944765528583
 10
174.99152052972013
 20
70.64944765528583
 10
175.00527507057865
 20
70.64944765528583
 10
175.0190296114372
 20
70.64944765528583
  0
LWPOLYLINE
  5
77
330
17
100
AcDbEntity
  8
HIDDEN
100
AcDbPolyline
 90
33
 70
0
 10
170.0190296114372
 20
80.64944765528583
 10
170.26395190291316
 20
80.64944765528583
 10
170.50887419438916
 20
80.64944765528583
 10
170.75159645734905
 20
80.64944765528583
 10
170.99343870890252
 20
80.64944765528583
 10
171.23265752621768
 20
80.64944765528583
 10
171.46837843121517
 20
80.64944765528583
 10
171.70280138282627
 20
80.64944765528583
 10
171.929436614119
 20
80.64944765528583
 10
172.15607184541173
 20
80.64944765528583
 10
172.37247643964582
 20
80.64944765528583
 10
172.58717592770347
 20
80.64944765528583
 10
172.79351215069312
 20
80.64944765528583
 10
172.9935759248818
 20
80.64944765528583
 10
173.18873923281075
 20
80.64944765528583
 10
173.37165137509032
 20
80.64944765528583
 10
173.55456351736993
 20
80.64944765528583
 10
173.71802380142316
 20
80.64944765528583
 10
173.88148408547642
 20
80.64944765528583
 10
174.02958189371523
 20
80.64944765528583
 10
174.17153471162828
 20
80.64944765528583
 10
174.3035049844606
 20
80.64944765528583
 10
174.42216519718528
 20
80.64944765528583
 10
174.53728472045114
 20
80.64944765528583
 10
174.63116010696416
 20
80.64944765528583
 10
174.72503549347718
 20
80.64944765528583
 10
174.79665485399175
 20
80.64944765528583
 10
174.86456487683995
 20
80.64944765528583
 10
174.9171495444856
 20
80.64944765528583
 10
174.9582401957293
 20
80.64944765528583
 10
174.99152052972013
 20
80.64944765528583
 10
175.00527507057865
 20
80.64944765528583
 10
175.0190296114372
 20
80.64944765528583
  0
TEXT
  5
78
330
17
100
AcDbEntity
  8
TITLE
100
AcDbText
 10
170.0190296114372
 20
62.649447655285826
 30
0.0
 40
3.4
  1
RIGHT
  7
LOFT_MONO
 72
1
 11
170.0190296114372
 21
62.649447655285826
 31
0.0
100
AcDbText
 73
2
  0
LINE
  5
79
330
17
100
AcDbEntity
  8
VISIBLE
100
AcDbLine
 10
157.5190296114372
 20
114.8556549168824
 30
0.0
 11
157.5190296114372
 21
123.02062072615965
 31
0.0
  0
LINE
  5
7A
330
17
100
AcDbEntity
  8
VISIBLE
100
AcDbLine
 10
157.5190296114372
 20
114.8556549168824
 30
0.0
 11
175.1966991411009
 21
104.64944765528583
 31
0.0
  0
LINE
  5
7B
330
17
100
AcDbEntity
  8
HIDDEN
100
AcDbLine
 10
157.5190296114372
 20
114.8556549168824
 30
0.0
 11
185.8033008588991
 21
131.18558653543693
 31
0.0
  0
LINE
  5
7C
330
17
100
AcDbEntity
  8
VISIBLE
100
AcDbLine
 10
157.5190296114372
 20
123.02062072615965
 30
0.0
 11
175.1966991411009
 21
112.81441346456307
 31
0.0
  0
LINE
  5
7D
330
17
100
AcDbEntity
  8
VISIBLE
100
AcDbLine
 10
157.5190296114372
 20
123.02062072615965
 30
0.0
 11
185.8033008588991
 21
139.35055234471417
 31
0.0
  0
LINE
  5
7E
330
17
100
AcDbEntity
  8
HIDDEN
100
AcDbLine
 10
169.84314575050763
 20
114.65153077165047
 30
0.0
 11
169.84314575050763
 21
122.81649658092772
 31
0.0
  0
LINE
  5
7F
330
17
100
AcDbEntity
  8
VISIBLE
100
AcDbLine
 10
175.1966991411009
 20
104.64944765528583
 30
0.0
 11
175.1966991411009
 21
112.81441346456307
 31
0.0
  0
LINE
  5
80
330
17
100
AcDbEntity
  8
VISIBLE
100
AcDbLine
 10
175.1966991411009
 20
104.64944765528583
 30
0.0
 11
203.4809703885628
 21
120.97937927384035
 31
0.0
  0
LINE
  5
81
330
17
100
AcDbEntity
  8
VISIBLE
100
AcDbLine
 10
175.1966991411009
 20
112.81441346456307
 30
0.0
 11
203.4809703885628
 21
129.1443450831176
 31
0.0
  0
LINE
  5
82
330
17
100
AcDbEntity
  8
HIDDEN
100
AcDbLine
 10
179.84314575050763
 20
114.65153077165047
 30
0.0
 11
179.84314575050763
 21
122.81649658092772
 31
0.0
  0
LINE
  5
83
330
17
100
AcDbEntity
  8
HIDDEN
100
AcDbLine
 10
181.15685424949237
 20
121.18350341907228
 30
0.0
 11
181.15685424949237
 21
129.34846922834953
 31
0.0
  0
LINE
  5
84
330
17
100
AcDbEntity
  8
HIDDEN
100
AcDbLine
 10
185.8033008588991
 20
131.18558653543693
 30
0.0
 11
185.8033008588991
 21
139.35055234471417
 31
0.0
  0
LINE
  5
85
330
17
100
AcDbEntity
  8
HIDDEN
100
AcDbLine
 10
185.8033008588991
 20
131.18558653543693
 30
0.0
 11
203.4809703885628
 21
120.97937927384034
 31
0.0
  0
LINE
  5
86
330
17
100
AcDbEntity
  8
VISIBLE
100
AcDbLine
 10
185.8033008588991
 20
139.35055234471417
 30
0.0
 11
203.4809703885628
 21
129.1443450831176
 31
0.0
  0
LINE
  5
87
330
17
100
AcDbEntity
  8
HIDDEN
100
AcDbLine
 10
191.15685424949237
 20
121.18350341907228
 30
0.0
 11
191.15685424949237
 21
129.34846922834953
 31
0.0
  0
LINE
  5
88
330
17
100
AcDbEntity
  8
VISIBLE
100
AcDbLine
 10
203.4809703885628
 20
120.97937927384034
 30
0.0
 11
203.4809703885628
 21
129.1443450831176
 31
0.0
  0
LWPOLYLINE
  5
89
330
17
100
AcDbEntity
  8
HIDDEN
100
AcDbPolyline
 90
33
 70
0
 10
178.37867965644037
 20
116.69277222396978
 10
178.1090099652765
 20
116.83740442846688
 10
177.8216422729698
 20
116.9701911942279
 10
177.5181338499431
 20
117.09041293826414
 10
177.2001294346376
 20
117.19741816852836
 10
176.86935232053256
 20
117.29062701440654
 10
176.5275950174687
 20
117.36953436908702
 10
176.17670953788212
 20
117.43371262677805
 10
175.81859736058826
 20
117.4828139999406
 10
175.45519912650371
 20
117.51657240397927
 10
175.0884841221447
 20
117.53480489917762
 10
174.72043960789307
 20
117.53741268206448
 10
174.35306004885982
 20
117.52438162083845
 10
173.98833630670612
 20
117.49578233194934
 10
173.6282448509913
 20
117.45176979742156
 10
173.27473704851317
 20
117.39258252499309
 10
172.92972858868217
 20
117.31854125562135
 10
172.5950891022346
 20
117.2300472253602
 10
172.2726320295415
 20
117.12757999102696
 10
171.9641047934184
 20
117.01169483144255
 10
171.67117932968938
 20
116.88301973832732
 10
171.39544302682228
 20
116.74225201315961
 10
171.13839012373282
 20
116.59015448843861
 10
170.9014136123746
 20
116.42755139382889
 10
170.68579768899488
 20
116.25532388958851
 10
170.49271079496407
 20
116.07440529148519
 10
170.3231992848904
 20
115.8857760130773
 10
170.1781817563339
 20
115.6904582527679
 10
170.05844407184657
 20
115.4895104544229
 10
169.96463510031498
 20
115.28402157157221
 10
169.8972632006837
 20
115.07510516627609
 10
169.85669346711416
 20
114.8638933746359
 10
169.84314575050763
 20
114.65153077165047
  0
LWPOLYLINE
  5
8A
330
17
100
AcDbEntity
  8
HIDDEN
100
AcDbPolyline
 90
33
 70
0
 10
169.84314575050763
 20
114.65153077165047
 10
169.86722211714664
 20
114.36857965987812
 10
169.93921934849146
 20
114.08835352198895
 10
170.05844407184657
 20
113.81355108887803
 10
170.22374808795118
 20
113.54681885819849
 10
170.43353942876584
 20
113.29072560714246
 10
170.68579768899488
 20
113.04773765371242
 10
170.97809348369393
 20
112.8201951047306
 10
171.3076118445749
 20
112.61028931933114
 10
171.67117932968938
 20
112.42004180497361
 10
172.06529458540962
 20
112.25128474922113
 10
172.48616206637763
 20
112.10564337477257
 10
172.92972858868217
 20
111.98452028767957
 10
173.3917223642353
 20
111.88908196948346
 10
173.86769414042698
 20
111.82024754336032
 10
174.35306004885982
 20
111.77867992246247
 10
174.84314575050763
 20
111.76477942570233
 10
175.33323145215542
 20
111.77867992246247
 10
175.81859736058826
 20
111.82024754336032
 10
176.29456913677993
 20
111.88908196948346
 10
176.75656291233307
 20
111.98452028767957
 10
177.2001294346376
 20
112.10564337477257
 10
177.62099691560562
 20
112.25128474922113
 10
178.01511217132585
 20
112.42004180497361
 10
178.37867965644037
 20
112.61028931933114
 10
178.7081980173213
 20
112.8201951047306
 10
179.00049381202035
 20
113.04773765371242
 10
179.2527520722494
 20
113.29072560714246
 10
179.46254341306405
 20
113.54681885819849
 10
179.62784742916867
 20
113.81355108887803
 10
179.74707215252377
 20
114.08835352198895
 10
179.8190693838686
 20
114.36857965987812
 10
179.84314575050763
 20
114.65153077165047
  0
LWPOLYLINE
  5
8B
330
17
100
AcDbEntity
  8
VISIBLE
100
AcDbPolyline
 90
33
 70
0
 10
178.37867965644037
 20
124.85773803324705
 10
178.1090099652765
 20
125.00237023774415
 10
177.8216422729698
 20
125.13515700350516
 10
177.5181338499431
 20
125.25537874754139
 10
177.2001294346376
 20
125.36238397780562
 10
176.86935232053256
 20
125.4555928236838
 10
176.5275950174687
 20
125.53450017836428
 10
176.17670953788212
 20
125.59867843605531
 10
175.81859736058826
 20
125.64777980921787
 10
175.45519912650371
 20
125.68153821325652
 10
175.0884841221447
 20
125.69977070845488
 10
174.72043960789307
 20
125.70237849134175
 10
174.35306004885982
 20
125.6893474301157
 10
173.98833630670612
 20
125.6607481412266
 10
173.6282448509913
 20
125.61673560669882
 10
173.27473704851317
 20
125.55754833427035
 10
172.92972858868217
 20
125.48350706489862
 10
172.5950891022346
 20
125.39501303463746
 10
172.2726320295415
 20
125.29254580030423
 10
171.9641047934184
 20
125.1766606407198
 10
171.67117932968938
 20
125.04798554760458
 10
171.39544302682228
 20
124.90721782243688
 10
171.13839012373282
 20
124.75512029771588
 10
170.9014136123746
 20
124.59251720310615
 10
170.68579768899488
 20
124.42028969886579
 10
170.49271079496407
 20
124.23937110076245
 10
170.3231992848904
 20
124.05074182235457
 10
170.1781817563339
 20
123.85542406204516
 10
170.05844407184657
 20
123.65447626370016
 10
169.96463510031498
 20
123.44898738084947
 10
169.8972632006837
 20
123.24007097555335
 10
169.85669346711416
 20
123.02885918391316
 10
169.84314575050763
 20
122.81649658092772
  0
LWPOLYLINE
  5
8C
330
17
100
AcDbEntity
  8
VISIBLE
100
AcDbPolyline
 90
33
 70
0
 10
169.84314575050763
 20
122.81649658092772
 10
169.86722211714664
 20
122.53354546915538
 10
169.93921934849146
 20
122.25331933126621
 10
170.05844407184657
 20
121.97851689815529
 10
170.22374808795118
 20
121.71178466747575
 10
170.43353942876584
 20
121.45569141641973
 10
170.68579768899488
 20
121.21270346298968
 10
170.97809348369393
 20
120.98516091400788
 10
171.3076118445749
 20
120.7752551286084
 10
171.67117932968938
 20
120.58500761425087
 10
172.06529458540962
 20
120.41625055849839
 10
172.48616206637763
 20
120.27060918404983
 10
172.92972858868217
 20
120.14948609695685
 10
173.3917223642353
 20
120.05404777876072
 10
173.86769414042698
 20
119.98521335263759
 10
174.35306004885982
 20
119.94364573173974
 10
174.84314575050763
 20
119.92974523497959
 10
175.33323145215542
 20
119.94364573173974
 10
175.81859736058826
 20
119.98521335263759
 10
176.29456913677993
 20
120.05404777876072
 10
176.75656291233307
 20
120.14948609695685
 10
177.2001294346376
 20
120.27060918404983
 10
177.62099691560562
 20
120.41625055849838
 10
178.01511217132585
 20
120.58500761425087
 10
178.37867965644037
 20
120.7752551286084
 10
178.7081980173213
 20
120.98516091400788
 10
179.00049381202035
 20
121.21270346298968
 10
179.2527520722494
 20
121.45569141641973
 10
179.46254341306405
 20
121.71178466747575
 10
179.62784742916867
 20
121.97851689815529
 10
179.74707215252377
 20
122.25331933126621
 10
179.8190693838686
 20
122.53354546915538
 10
179.84314575050763
 20
122.81649658092772
  0
LWPOLYLINE
  5
8D
330
17
100
AcDbEntity
  8
HIDDEN
100
AcDbPolyline
 90
33
 70
0
 10
179.84314575050763
 20
114.65153077165047
 10
179.84163984398864
 20
114.7223751961202
 10
179.83712303153348
 20
114.79317694655768
 10
179.82959803390108
 20
114.8638933746359
 10
179.8190693838686
 20
114.9344818834228
 10
179.80554342350118
 20
115.00489995304022
 10
179.78902830033152
 20
115.07510516627609
 10
179.76953396245233
 20
115.1450552341351
 10
179.74707215252377
 20
115.21470802131198
 10
179.72165640070025
 20
115.28402157157221
 10
179.69330201648035
 20
115.35295413302492
 10
179.66202607948483
 20
115.42146418327266
 10
179.62784742916867
 20
115.4895104544229
 10
179.5907866534728
 20
115.55705195794631
 10
179.55086607642272
 20
115.62404800936672
 10
179.50810974468132
 20
115.6904582527679
 10
179.46254341306405
 20
115.75624268510244
 10
179.41419452902528
 20
115.82136168028816
 10
179.36309221612484
 20
115.8857760130773
 10
179.30926725648519
 20
115.94944688268443
 10
179.2527520722494
 20
116.01233593615846
 10
179.19358070605116
 20
116.07440529148519
 10
179.13178880050899
 20
116.13561756040588
 10
179.06741357675617
 20
116.19593587093858
 10
179.00049381202035
 20
116.25532388958851
 10
178.93106981626553
 20
116.31374584323389
 10
178.85918340791085
 20
116.37116654067435
 10
178.78487788864066
 20
116.42755139382889
 10
178.7081980173213
 20
116.48286643857033
 10
178.62918998304005
 20
116.53707835518405
 10
178.54790137728241
 20
116.59015448843861
 10
178.46438116526497
 20
116.642062867256
 10
178.37867965644037
 20
116.69277222396978
  0
LWPOLYLINE
  5
8E
330
17
100
AcDbEntity
  8
VISIBLE
100
AcDbPolyline
 90
33
 70
0
 10
179.84314575050763
 20
122.81649658092772
 10
179.84163984398864
 20
122.88734100539746
 10
179.83712303153348
 20
122.95814275583494
 10
179.82959803390108
 20
123.02885918391316
 10
179.8190693838686
 20
123.09944769270007
 10
179.80554342350118
 20
123.16986576231749
 10
179.78902830033152
 20
123.24007097555335
 10
179.76953396245233
 20
123.31002104341236
 10
179.74707215252377
 20
123.37967383058924
 10
179.72165640070025
 20
123.44898738084947
 10
179.69330201648035
 20
123.5179199423022
 10
179.66202607948483
 20
123.58642999254992
 10
179.62784742916867
 20
123.65447626370016
 10
179.5907866534728
 20
123.72201776722358
 10
179.55086607642272
 20
123.78901381864398
 10
179.50810974468132
 20
123.85542406204516
 10
179.46254341306405
 20
123.9212084943797
 10
179.41419452902528
 20
123.98632748956541
 10
179.36309221612484
 20
124.05074182235457
 10
179.30926725648519
 20
124.11441269196169
 10
179.2527520722494
 20
124.17730174543573
 10
179.19358070605116
 20
124.23937110076245
 10
179.13178880050899
 20
124.30058336968314
 10
179.06741357675617
 20
124.36090168021585
 10
179.00049381202035
 20
124.42028969886579
 10
178.93106981626553
 20
124.47871165251115
 10
178.85918340791085
 20
124.53613234995163
 10
178.78487788864066
 20
124.59251720310615
 10
178.7081980173213
 20
124.64783224784759
 10
178.62918998304005
 20
124.70204416446131
 10
178.54790137728241
 20
124.75512029771588
 10
178.46438116526497
 20
124.80702867653326
 10
178.37867965644037
 20
124.85773803324705
  0
LWPOLYLINE
  5
8F
330
17
100
AcDbEntity
  8
HIDDEN
100
AcDbPolyline
 90
33
 70
0
 10
189.6923881554251
 20
123.2247448713916
 10
189.42271846426127
 20
123.3693770758887
 10
189.13535077195453
 20
123.5021638416497
 10
188.83184234892786
 20
123.62238558568595
 10
188.51383793362237
 20
123.72939081595015
 10
188.18306081951732
 20
123.82259966182835
 10
187.84130351645348
 20
123.90150701650883
 10
187.49041803686688
 20
123.96568527419986
 10
187.13230585957302
 20
124.01478664736241
 10
186.76890762548845
 20
124.04854505140108
 10
186.40219262112947
 20
124.06677754659944
 10
186.0341481068778
 20
124.0693853294863
 10
185.66676854784458
 20
124.05635426826026
 10
185.30204480569088
 20
124.02775497937115
 10
184.94195334997607
 20
123.98374244484337
 10
184.5884455474979
 20
123.9245551724149
 10
184.24343708766693
 20
123.85051390304315
 10
183.90879760121933
 20
123.762019872782
 10
183.58634052852628
 20
123.65955263844877
 10
183.27781329240315
 20
123.54366747886436
 10
182.98488782867415
 20
123.41499238574913
 10
182.70915152580704
 20
123.27422466058142
 10
182.45209862271759
 20
123.12212713586042
 10
182.21512211135934
 20
122.9595240412507
 10
181.99950618797965
 20
122.78729653701032
 10
181.80641929394884
 20
122.606377938907
 10
181.63690778387516
 20
122.41774866049911
 10
181.49189025531868
 20
122.2224309001897
 10
181.37215257083133
 20
122.02148310184471
 10
181.27834359929975
 20
121.81599421899402
 10
181.21097169966848
 20
121.6070778136979
 10
181.17040196609892
 20
121.3958660220577
 10
181.15685424949237
 20
121.18350341907228
  0
LWPOLYLINE
  5
90
330
17
100
AcDbEntity
  8
HIDDEN
100
AcDbPolyline
 90
33
 70
0
 10
181.15685424949237
 20
121.18350341907228
 10
181.1809306161314
 20
120.90055230729993
 10
181.25292784747623
 20
120.62032616941076
 10
181.37215257083133
 20
120.34552373629984
 10
181.53745658693595
 20
120.0787915056203
 10
181.7472479277506
 20
119.82269825456427
 10
181.99950618797965
 20
119.57971030113423
 10
182.2918019826787
 20
119.35216775215241
 10
182.62132034355963
 20
119.14226196675295
 10
182.98488782867415
 20
118.95201445239542
 10
183.37900308439436
 20
118.78325739664294
 10
183.7998705653624
 20
118.63761602219438
 10
184.24343708766693
 20
118.51649293510138
 10
184.70543086322007
 20
118.42105461690527
 10
185.18140263941174
 20
118.35222019078213
 10
185.66676854784458
 20
118.31065256988428
 10
186.15685424949237
 20
118.29675207312414
 10
186.64693995114018
 20
118.31065256988428
 10
187.13230585957302
 20
118.35222019078213
 10
187.6082776357647
 20
118.42105461690527
 10
188.07027141131783
 20
118.51649293510138
 10
188.51383793362237
 20
118.63761602219438
 10
188.93470541459038
 20
118.78325739664294
 10
189.3288206703106
 20
118.95201445239542
 10
189.6923881554251
 20
119.14226196675295
 10
190.02190651630607
 20
119.35216775215241
 10
190.31420231100512
 20
119.57971030113423
 10
190.56646057123416
 20
119.82269825456427
 10
190.77625191204882
 20
120.0787915056203
 10
190.94155592815343
 20
120.34552373629984
 10
191.06078065150854
 20
120.62032616941076
 10
191.13277788285336
 20
120.90055230729993
 10
191.15685424949237
 20
121.18350341907228
  0
LWPOLYLINE
  5
91
330
17
100
AcDbEntity
  8
VISIBLE
100
AcDbPolyline
 90
33
 70
0
 10
189.6923881554251
 20
131.38971068066886
 10
189.42271846426127
 20
131.53434288516596
 10
189.13535077195453
 20
131.66712965092697
 10
188.83184234892786
 20
131.7873513949632
 10
188.51383793362237
 20
131.89435662522743
 10
188.18306081951732
 20
131.9875654711056
 10
187.84130351645348
 20
132.0664728257861
 10
187.49041803686688
 20
132.13065108347712
 10
187.13230585957302
 20
132.17975245663968
 10
186.76890762548845
 20
132.21351086067833
 10
186.40219262112947
 20
132.2317433558767
 10
186.0341481068778
 20
132.23435113876354
 10
185.66676854784458
 20
132.2213200775375
 10
185.30204480569088
 20
132.19272078864842
 10
184.94195334997607
 20
132.14870825412063
 10
184.5884455474979
 20
132.08952098169215
 10
184.24343708766693
 20
132.01547971232043
 10
183.90879760121933
 20
131.92698568205927
 10
183.58634052852628
 20
131.82451844772604
 10
183.27781329240315
 20
131.7086332881416
 10
182.98488782867415
 20
131.5799581950264
 10
182.70915152580704
 20
131.4391904698587
 10
182.45209862271759
 20
131.2870929451377
 10
182.21512211135934
 20
131.12448985052797
 10
181.99950618797965
 20
130.9522623462876
 10
181.80641929394884
 20
130.77134374818428
 10
181.63690778387516
 20
130.58271446977636
 10
181.49189025531868
 20
130.38739670946697
 10
181.37215257083133
 20
130.18644891112197
 10
181.27834359929975
 20
129.98096002827128
 10
181.21097169966848
 20
129.77204362297516
 10
181.17040196609892
 20
129.56083183133495
 10
181.15685424949237
 20
129.34846922834953
  0
LWPOLYLINE
  5
92
330
17
100
AcDbEntity
  8
VISIBLE
100
AcDbPolyline
 90
33
 70
0
 10
181.15685424949237
 20
129.34846922834953
 10
181.1809306161314
 20
129.0655181165772
 10
181.25292784747623
 20
128.785291978688
 10
181.37215257083133
 20
128.51048954557712
 10
181.53745658693595
 20
128.24375731489755
 10
181.7472479277506
 20
127.98766406384154
 10
181.99950618797965
 20
127.74467611041149
 10
182.2918019826787
 20
127.51713356142969
 10
182.62132034355963
 20
127.30722777603022
 10
182.98488782867415
 20
127.11698026167268
 10
183.37900308439436
 20
126.94822320592019
 10
183.7998705653624
 20
126.80258183147166
 10
184.24343708766693
 20
126.68145874437866
 10
184.70543086322007
 20
126.58602042618253
 10
185.18140263941174
 20
126.5171860000594
 10
185.66676854784458
 20
126.47561837916155
 10
186.15685424949237
 20
126.46171788240142
 10
186.64693995114018
 20
126.47561837916155
 10
187.13230585957302
 20
126.5171860000594
 10
187.6082776357647
 20
126.58602042618253
 10
188.07027141131783
 20
126.68145874437866
 10
188.51383793362237
 20
126.80258183147164
 10
188.93470541459038
 20
126.94822320592019
 10
189.3288206703106
 20
127.11698026167268
 10
189.6923881554251
 20
127.30722777603022
 10
190.02190651630607
 20
127.51713356142969
 10
190.31420231100512
 20
127.74467611041149
 10
190.56646057123416
 20
127.98766406384154
 10
190.77625191204882
 20
128.24375731489755
 10
190.94155592815343
 20
128.51048954557712
 10
191.06078065150854
 20
128.785291978688
 10
191.13277788285336
 20
129.0655181165772
 10
191.15685424949237
 20
129.34846922834953
  0
LWPOLYLINE
  5
93
330
17
100
AcDbEntity
  8
HIDDEN
100
AcDbPolyline
 90
33
 70
0
 10
191.15685424949237
 20
121.18350341907228
 10
191.1553483429734
 20
121.254347843542
 10
191.15083153051825
 20
121.32514959397949
 10
191.14330653288584
 20
121.3958660220577
 10
191.13277788285336
 20
121.46645453084462
 10
191.11925192248594
 20
121.53687260046203
 10
191.1027367993163
 20
121.6070778136979
 10
191.0832424614371
 20
121.67702788155691
 10
191.06078065150854
 20
121.74668066873379
 10
191.03536489968502
 20
121.81599421899402
 10
191.0070105154651
 20
121.88492678044673
 10
190.97573457846957
 20
121.95343683069447
 10
190.94155592815343
 20
122.02148310184471
 10
190.90449515245757
 20
122.08902460536812
 10
190.8645745754075
 20
122.15602065678854
 10
190.8218182436661
 20
122.2224309001897
 10
190.77625191204882
 20
122.28821533252425
 10
190.72790302801002
 20
122.35333432770997
 10
190.6768007151096
 20
122.41774866049911
 10
190.62297575546995
 20
122.48141953010624
 10
190.56646057123416
 20
122.54430858358027
 10
190.50728920503593
 20
122.606377938907
 10
190.44549729949375
 20
122.66759020782769
 10
190.3811220757409
 20
122.7279085183604
 10
190.31420231100512
 20
122.78729653701032
 10
190.2447783152503
 20
122.8457184906557
 10
190.17289190689561
 20
122.90313918809616
 10
190.0985863876254
 20
122.9595240412507
 10
190.02190651630607
 20
123.01483908599214
 10
189.94289848202482
 20
123.06905100260585
 10
189.86160987626718
 20
123.12212713586042
 10
189.7780896642497
 20
123.17403551467781
 10
189.6923881554251
 20
123.2247448713916
  0
LWPOLYLINE
  5
94
330
17
100
AcDbEntity
  8
VISIBLE
100
AcDbPolyline
 90
33
 70
0
 10
191.15685424949237
 20
129.34846922834953
 10
191.1553483429734
 20
129.41931365281926
 10
191.15083153051825
 20
129.49011540325677
 10
191.14330653288584
 20
129.56083183133495
 10
191.13277788285336
 20
129.63142034012188
 10
191.11925192248594
 20
129.7018384097393
 10
191.1027367993163
 20
129.77204362297516
 10
191.0832424614371
 20
129.84199369083416
 10
191.06078065150854
 20
129.91164647801105
 10
191.03536489968502
 20
129.98096002827128
 10
191.0070105154651
 20
130.049892589724
 10
190.97573457846957
 20
130.11840263997175
 10
190.94155592815343
 20
130.18644891112197
 10
190.90449515245757
 20
130.2539904146454
 10
190.8645745754075
 20
130.3209864660658
 10
190.8218182436661
 20
130.38739670946697
 10
190.77625191204882
 20
130.4531811418015
 10
190.72790302801002
 20
130.51830013698722
 10
190.6768007151096
 20
130.58271446977636
 10
190.62297575546995
 20
130.6463853393835
 10
190.56646057123416
 20
130.70927439285754
 10
190.50728920503593
 20
130.77134374818428
 10
190.44549729949375
 20
130.83255601710493
 10
190.3811220757409
 20
130.89287432763766
 10
190.31420231100512
 20
130.9522623462876
 10
190.2447783152503
 20
131.01068429993296
 10
190.17289190689561
 20
131.06810499737344
 10
190.0985863876254
 20
131.12448985052797
 10
190.02190651630607
 20
131.1798048952694
 10
189.94289848202482
 20
131.23401681188312
 10
189.86160987626718
 20
131.2870929451377
 10
189.7780896642497
 20
131.33900132395507
 10
189.6923881554251
 20
131.38971068066886
  0
TEXT
  5
95
330
17
100
AcDbEntity
  8
TITLE
100
AcDbText
 10
180.5
 20
96.64944765528583
 30
0.0
 40
3.4
  1
ISOMETRIC
  7
LOFT_MONO
 72
1
 11
180.5
 21
96.64944765528583
 31
0.0
100
AcDbText
 73
2
  0
LWPOLYLINE
  5
96
330
17
100
AcDbEntity
  8
TITLE
100
AcDbPolyline
 90
4
 70
1
 10
191.0
 20
44.0
 10
287.0
 20
44.0
 10
287.0
 20
10.0
 10
191.0
 20
10.0
  0
LINE
  5
97
330
17
100
AcDbEntity
  8
TITLE
100
AcDbLine
 10
248.6
 20
44.0
 30
0.0
 11
248.6
 21
10.0
 31
0.0
  0
LINE
  5
98
330
17
100
AcDbEntity
  8
TITLE
100
AcDbLine
 10
248.6
 20
27.0
 30
0.0
 11
287.0
 21
27.0
 31
0.0
  0
TEXT
  5
99
330
17
100
AcDbEntity
  8
TITLE
100
AcDbText
 10
195.0
 20
36.0
 30
0.0
 40
2.3
  1
TITLE
  7
LOFT_MONO
 11
195.0
 21
36.0
 31
0.0
100
AcDbText
  0
TEXT
  5
9A
330
17
100
AcDbEntity
  8
TITLE
100
AcDbText
 10
195.0
 20
26.0
 30
0.0
 40
3.4
  1
Plate — Authored Plac…
  7
LOFT_MONO
 11
195.0
 21
26.0
 31
0.0
100
AcDbText
  0
TEXT
  5
9B
330
17
100
AcDbEntity
  8
TITLE
100
AcDbText
 10
195.0
 20
14.0
 30
0.0
 40
2.3
  1
LOFT · PART DRAWING
  7
LOFT_MONO
 11
195.0
 21
14.0
 31
0.0
100
AcDbText
  0
TEXT
  5
9C
330
17
100
AcDbEntity
  8
TITLE
100
AcDbText
 10
252.6
 20
36.0
 30
0.0
 40
2.3
  1
SCALE
  7
LOFT_MONO
 11
252.6
 21
36.0
 31
0.0
100
AcDbText
  0
TEXT
  5
9D
330
17
100
AcDbEntity
  8
TITLE
100
AcDbText
 10
252.6
 20
30.0
 30
0.0
 40
3.4
  1
1:1
  7
LOFT_MONO
 11
252.6
 21
30.0
 31
0.0
100
AcDbText
  0
TEXT
  5
9E
330
17
100
AcDbEntity
  8
TITLE
100
AcDbText
 10
252.6
 20
19.0
 30
0.0
 40
2.3
  1
SIZE
  7
LOFT_MONO
 11
252.6
 21
19.0
 31
0.0
100
AcDbText
  0
TEXT
  5
9F
330
17
100
AcDbEntity
  8
TITLE
100
AcDbText
 10
252.6
 20
14.0
 30
0.0
 40
3.4
  1
A4
  7
LOFT_MONO
 11
252.6
 21
14.0
 31
0.0
100
AcDbText
  0
ENDSEC
  0
SECTION
  2
OBJECTS
  0
DICTIONARY
  5
A
330
0
100
AcDbDictionary
281
1
  3
ACAD_COLOR
350
B
  3
ACAD_GROUP
350
C
  3
ACAD_LAYOUT
350
D
  3
ACAD_MATERIAL
350
E
  3
ACAD_MLEADERSTYLE
350
F
  3
ACAD_MLINESTYLE
350
10
  3
ACAD_PLOTSETTINGS
350
11
  3
ACAD_PLOTSTYLENAME
350
12
  3
ACAD_SCALELIST
350
14
  3
ACAD_TABLESTYLE
350
15
  3
ACAD_VISUALSTYLE
350
16
  3
EZDXF_META
350
2D
  0
DICTIONARY
  5
B
330
A
100
AcDbDictionary
281
1
  0
DICTIONARY
  5
C
330
A
100
AcDbDictionary
281
1
  0
DICTIONARY
  5
D
330
A
100
AcDbDictionary
281
1
  3
Model
350
1A
  3
Layout1
350
1E
  0
DICTIONARY
  5
E
330
A
100
AcDbDictionary
281
1
  3
ByBlock
350
1F
  3
ByLayer
350
20
  3
Global
350
21
  0
DICTIONARY
  5
F
330
A
100
AcDbDictionary
281
1
  3
Standard
350
2C
  0
DICTIONARY
  5
10
330
A
100
AcDbDictionary
281
1
  3
Standard
350
22
  0
DICTIONARY
  5
11
330
A
100
AcDbDictionary
281
1
  0
ACDBDICTIONARYWDFLT
  5
12
330
A
100
AcDbDictionary
281
1
  3
Normal
350
13
100
AcDbDictionaryWithDefault
340
13
  0
ACDBPLACEHOLDER
  5
13
330
12
  0
DICTIONARY
  5
14
330
A
100
AcDbDictionary
281
1
  0
DICTIONARY
  5
15
330
A
100
AcDbDictionary
281
1
  0
DICTIONARY
  5
16
330
A
100
AcDbDictionary
281
1
  0
LAYOUT
  5
1A
330
D
100
AcDbPlotSettings
  1

  4
A3
  6

 40
7.5
 41
20.0
 42
7.5
 43
20.0
 44
420.0
 45
297.0
 46
0.0
 47
0.0
 48
0.0
 49
0.0
140
0.0
141
0.0
142
1.0
143
1.0
 70
1024
 72
1
 73
0
 74
5
  7

 75
16
 76
0
 77
2
 78
300
147
1.0
148
0.0
149
0.0
100
AcDbLayout
  1
Model
 70
1
 71
0
 10
0.0
 20
0.0
 11
420.0
 21
297.0
 12
0.0
 22
0.0
 32
0.0
 14
1e+20
 24
1e+20
 34
1e+20
 15
-1e+20
 25
-1e+20
 35
-1e+20
146
0.0
 13
0.0
 23
0.0
 33
0.0
 16
1.0
 26
0.0
 36
0.0
 17
0.0
 27
1.0
 37
0.0
 76
1
330
17
  0
LAYOUT
  5
1E
330
D
100
AcDbPlotSettings
  1

  4
A3
  6

 40
7.5
 41
20.0
 42
7.5
 43
20.0
 44
420.0
 45
297.0
 46
0.0
 47
0.0
 48
0.0
 49
0.0
140
0.0
141
0.0
142
1.0
143
1.0
 70
0
 72
1
 73
0
 74
5
  7

 75
16
 76
0
 77
2
 78
300
147
1.0
148
0.0
149
0.0
100
AcDbLayout
  1
Layout1
 70
1
 71
1
 10
0.0
 20
0.0
 11
420.0
 21
297.0
 12
0.0
 22
0.0
 32
0.0
 14
1e+20
 24
1e+20
 34
1e+20
 15
-1e+20
 25
-1e+20
 35
-1e+20
146
0.0
 13
0.0
 23
0.0
 33
0.0
 16
1.0
 26
0.0
 36
0.0
 17
0.0
 27
1.0
 37
0.0
 76
1
330
1B
  0
MATERIAL
  5
1F
102
{ACAD_REACTORS
330
E
102
}
330
E
100
AcDbMaterial
  1
ByBlock
  2

 70
0
 40
1.0
 71
1
 41
1.0
 91
-1023410177
 42
1.0
 72
1
  3

 73
1
 74
1
 75
1
 44
0.5
 73
0
 45
1.0
 46
1.0
 77
1
  4

 78
1
 79
1
170
1
 48
1.0
171
1
  6

172
1
173
1
174
1
140
1.0
141
1.0
175
1
  7

176
1
177
1
178
1
143
1.0
179
1
  8

270
1
271
1
272
1
145
1.0
146
1.0
273
1
  9

274
1
275
1
276
1
 42
1.0
 72
1
  3

 73
1
 74
1
 75
1
 94
63
  0
MATERIAL
  5
20
102
{ACAD_REACTORS
330
E
102
}
330
E
100
AcDbMaterial
  1
ByLayer
  2

 70
0
 40
1.0
 71
1
 41
1.0
 91
-1023410177
 42
1.0
 72
1
  3

 73
1
 74
1
 75
1
 44
0.5
 73
0
 45
1.0
 46
1.0
 77
1
  4

 78
1
 79
1
170
1
 48
1.0
171
1
  6

172
1
173
1
174
1
140
1.0
141
1.0
175
1
  7

176
1
177
1
178
1
143
1.0
179
1
  8

270
1
271
1
272
1
145
1.0
146
1.0
273
1
  9

274
1
275
1
276
1
 42
1.0
 72
1
  3

 73
1
 74
1
 75
1
 94
63
  0
MATERIAL
  5
21
102
{ACAD_REACTORS
330
E
102
}
330
E
100
AcDbMaterial
  1
Global
  2

 70
0
 40
1.0
 71
1
 41
1.0
 91
-1023410177
 42
1.0
 72
1
  3

 73
1
 74
1
 75
1
 44
0.5
 73
0
 45
1.0
 46
1.0
 77
1
  4

 78
1
 79
1
170
1
 48
1.0
171
1
  6

172
1
173
1
174
1
140
1.0
141
1.0
175
1
  7

176
1
177
1
178
1
143
1.0
179
1
  8

270
1
271
1
272
1
145
1.0
146
1.0
273
1
  9

274
1
275
1
276
1
 42
1.0
 72
1
  3

 73
1
 74
1
 75
1
 94
63
  0
MLINESTYLE
  5
22
102
{ACAD_REACTORS
330
10
102
}
330
10
100
AcDbMlineStyle
  2
Standard
 70
0
  3

 62
256
 51
90.0
 52
90.0
 71
2
 49
0.5
 62
256
  6
BYLAYER
 49
-0.5
 62
256
  6
BYLAYER
  0
MLEADERSTYLE
  5
2C
102
{ACAD_REACTORS
330
F
102
}
330
F
100
AcDbMLeaderStyle
179
2
170
2
171
1
172
0
 90
2
 40
0.0
 41
0.0
173
1
 91
-1056964608
 92
-2
290
1
 42
2.0
291
1
 43
8.0
  3
Standard
 44
4.0
300

342
29
174
1
175
1
176
0
178
1
 93
-1056964608
 45
4.0
292
0
297
0
 46
4.0
 94
-1056964608
 47
1.0
 49
1.0
140
1.0
294
1
141
0.0
177
0
142
1.0
295
0
296
0
143
3.75
271
0
272
9
273
9
  0
DICTIONARY
  5
2D
330
A
100
AcDbDictionary
280
1
281
1
  3
CREATED_BY_EZDXF
350
2E
  3
WRITTEN_BY_EZDXF
350
A2
  0
DICTIONARYVAR
  5
2E
330
2D
100
DictionaryVariables
280
0
  1
0.0 @ 2000-01-01T00:00:00.000000+00:00
  0
DICTIONARYVAR
  5
A2
330
2D
100
DictionaryVariables
280
0
  1
0.0 @ 2000-01-01T00:00:00.000000+00:00
  0
ENDSEC
  0
EOF
