  0
SECTION
  2
HEADER
  9
$ACADVER
  1
AC1015
  9
$ACADMAINTVER
 70
6
  9
$DWGCODEPAGE
  3
ANSI_1252
  9
$INSBASE
 10
0.0
 20
0.0
 30
0.0
  9
$EXTMIN
 10
1e+20
 20
1e+20
 30
1e+20
  9
$EXTMAX
 10
-1e+20
 20
-1e+20
 30
-1e+20
  9
$LIMMIN
 10
0.0
 20
0.0
  9
$LIMMAX
 10
420.0
 20
297.0
  9
$ORTHOMODE
 70
0
  9
$REGENMODE
 70
1
  9
$FILLMODE
 70
1
  9
$QTEXTMODE
 70
0
  9
$MIRRTEXT
 70
1
  9
$LTSCALE
 40
1.0
  9
$ATTMODE
 70
1
  9
$TEXTSIZE
 40
2.5
  9
$TRACEWID
 40
1.0
  9
$TEXTSTYLE
  7
Standard
  9
$CLAYER
  8
0
  9
$CELTYPE
  6
ByLayer
  9
$CECOLOR
 62
256
  9
$CELTSCALE
 40
1.0
  9
$DISPSILH
 70
0
  9
$DIMSCALE
 40
1.0
  9
$DIMASZ
 40
2.5
  9
$DIMEXO
 40
0.625
  9
$DIMDLI
 40
3.75
  9
$DIMRND
 40
0.0
  9
$DIMDLE
 40
0.0
  9
$DIMEXE
 40
1.25
  9
$DIMTP
 40
0.0
  9
$DIMTM
 40
0.0
  9
$DIMTXT
 40
2.5
  9
$DIMCEN
 40
2.5
  9
$DIMTSZ
 40
0.0
  9
$DIMTOL
 70
0
  9
$DIMLIM
 70
0
  9
$DIMTIH
 70
0
  9
$DIMTOH
 70
0
  9
$DIMSE1
 70
0
  9
$DIMSE2
 70
0
  9
$DIMTAD
 70
1
  9
$DIMZIN
 70
8
  9
$DIMBLK
  1

  9
$DIMASO
 70
1
  9
$DIMSHO
 70
1
  9
$DIMPOST
  1

  9
$DIMAPOST
  1

  9
$DIMALT
 70
0
  9
$DIMALTD
 70
3
  9
$DIMALTF
 40
0.03937007874
  9
$DIMLFAC
 40
1.0
  9
$DIMTOFL
 70
1
  9
$DIMTVP
 40
0.0
  9
$DIMTIX
 70
0
  9
$DIMSOXD
 70
0
  9
$DIMSAH
 70
0
  9
$DIMBLK1
  1

  9
$DIMBLK2
  1

  9
$DIMSTYLE
  2
ISO-25
  9
$DIMCLRD
 70
0
  9
$DIMCLRE
 70
0
  9
$DIMCLRT
 70
0
  9
$DIMTFAC
 40
1.0
  9
$DIMGAP
 40
0.625
  9
$DIMJUST
 70
0
  9
$DIMSD1
 70
0
  9
$DIMSD2
 70
0
  9
$DIMTOLJ
 70
0
  9
$DIMTZIN
 70
8
  9
$DIMALTZ
 70
0
  9
$DIMALTTZ
 70
0
  9
$DIMUPT
 70
0
  9
$DIMDEC
 70
2
  9
$DIMTDEC
 70
2
  9
$DIMALTU
 70
2
  9
$DIMALTTD
 70
3
  9
$DIMTXSTY
  7
Standard
  9
$DIMAUNIT
 70
0
  9
$DIMADEC
 70
0
  9
$DIMALTRND
 40
0.0
  9
$DIMAZIN
 70
0
  9
$DIMDSEP
 70
44
  9
$DIMATFIT
 70
3
  9
$DIMFRAC
 70
0
  9
$DIMLDRBLK
  1

  9
$DIMLUNIT
 70
2
  9
$DIMLWD
 70
-2
  9
$DIMLWE
 70
-2
  9
$DIMTMOVE
 70
0
  9
$LUNITS
 70
2
  9
$LUPREC
 70
4
  9
$SKETCHINC
 40
1.0
  9
$FILLETRAD
 40
10.0
  9
$AUNITS
 70
0
  9
$AUPREC
 70
2
  9
$MENU
  1
.
  9
$ELEVATION
 40
0.0
  9
$PELEVATION
 40
0.0
  9
$THICKNESS
 40
0.0
  9
$LIMCHECK
 70
0
  9
$CHAMFERA
 40
0.0
  9
$CHAMFERB
 40
0.0
  9
$CHAMFERC
 40
0.0
  9
$CHAMFERD
 40
0.0
  9
$SKPOLY
 70
0
  9
$TDCREATE
 40
2451545.0
  9
$TDUCREATE
 40
2451545.0
  9
$TDUPDATE
 40
2451545.0
  9
$TDUUPDATE
 40
2451545.0
  9
$TDINDWG
 40
0.0
  9
$TDUSRTIMER
 40
0.0
  9
$USRTIMER
 70
1
  9
$ANGBASE
 50
0.0
  9
$ANGDIR
 70
0
  9
$PDMODE
 70
0
  9
$PDSIZE
 40
0.0
  9
$PLINEWID
 40
0.0
  9
$SPLFRAME
 70
0
  9
$SPLINETYPE
 70
6
  9
$SPLINESEGS
 70
8
  9
$HANDSEED
  5
A3
  9
$SURFTAB1
 70
6
  9
$SURFTAB2
 70
6
  9
$SURFTYPE
 70
6
  9
$SURFU
 70
6
  9
$SURFV
 70
6
  9
$UCSBASE
  2

  9
$UCSNAME
  2

  9
$UCSORG
 10
0.0
 20
0.0
 30
0.0
  9
$UCSXDIR
 10
1.0
 20
0.0
 30
0.0
  9
$UCSYDIR
 10
0.0
 20
1.0
 30
0.0
  9
$UCSORTHOREF
  2

  9
$UCSORTHOVIEW
 70
0
  9
$UCSORGTOP
 10
0.0
 20
0.0
 30
0.0
  9
$UCSORGBOTTOM
 10
0.0
 20
0.0
 30
0.0
  9
$UCSORGLEFT
 10
0.0
 20
0.0
 30
0.0
  9
$UCSORGRIGHT
 10
0.0
 20
0.0
 30
0.0
  9
$UCSORGFRONT
 10
0.0
 20
0.0
 30
0.0
  9
$UCSORGBACK
 10
0.0
 20
0.0
 30
0.0
  9
$PUCSBASE
  2

  9
$PUCSNAME
  2

  9
$PUCSORG
 10
0.0
 20
0.0
 30
0.0
  9
$PUCSXDIR
 10
1.0
 20
0.0
 30
0.0
  9
$PUCSYDIR
 10
0.0
 20
1.0
 30
0.0
  9
$PUCSORTHOREF
  2

  9
$PUCSORTHOVIEW
 70
0
  9
$PUCSORGTOP
 10
0.0
 20
0.0
 30
0.0
  9
$PUCSORGBOTTOM
 10
0.0
 20
0.0
 30
0.0
  9
$PUCSORGLEFT
 10
0.0
 20
0.0
 30
0.0
  9
$PUCSORGRIGHT
 10
0.0
 20
0.0
 30
0.0
  9
$PUCSORGFRONT
 10
0.0
 20
0.0
 30
0.0
  9
$PUCSORGBACK
 10
0.0
 20
0.0
 30
0.0
  9
$USERI1
 70
0
  9
$USERI2
 70
0
  9
$USERI3
 70
0
  9
$USERI4
 70
0
  9
$USERI5
 70
0
  9
$USERR1
 40
0.0
  9
$USERR2
 40
0.0
  9
$USERR3
 40
0.0
  9
$USERR4
 40
0.0
  9
$USERR5
 40
0.0
  9
$WORLDVIEW
 70
1
  9
$SHADEDGE
 70
3
  9
$SHADEDIF
 70
70
  9
$TILEMODE
 70
1
  9
$MAXACTVP
 70
64
  9
$PINSBASE
 10
0.0
 20
0.0
 30
0.0
  9
$PLIMCHECK
 70
0
  9
$PEXTMIN
 10
1e+20
 20
1e+20
 30
1e+20
  9
$PEXTMAX
 10
-1e+20
 20
-1e+20
 30
-1e+20
  9
$PLIMMIN
 10
0.0
 20
0.0
  9
$PLIMMAX
 10
420.0
 20
297.0
  9
$UNITMODE
 70
0
  9
$VISRETAIN
 70
1
  9
$PLINEGEN
 70
0
  9
$PSLTSCALE
 70
1
  9
$TREEDEPTH
 70
3020
  9
$CMLSTYLE
  2
Standard
  9
$CMLJUST
 70
0
  9
$CMLSCALE
 40
20.0
  9
$PROXYGRAPHICS
 70
1
  9
$MEASUREMENT
 70
1
  9
$CELWEIGHT
370
-1
  9
$ENDCAPS
280
0
  9
$JOINSTYLE
280
0
  9
$LWDISPLAY
290
0
  9
$INSUNITS
 70
6
  9
$HYPERLINKBASE
  1

  9
$STYLESHEET
  1

  9
$XEDIT
290
1
  9
$CEPSNTYPE
380
0
  9
$PSTYLEMODE
290
1
  9
$FINGERPRINTGUID
  2
{00000000-0000-0000-0000-000000000000}
  9
$VERSIONGUID
  2
{00000000-0000-0000-0000-000000000000}
  9
$EXTNAMES
290
1
  9
$PSVPSCALE
 40
0.0
  9
$OLESTARTUP
290
0
  0
ENDSEC
  0
SECTION
  2
CLASSES
  0
CLASS
  1
ACDBDICTIONARYWDFLT
  2
AcDbDictionaryWithDefault
  3
ObjectDBX Classes
 90
0
280
0
281
0
  0
CLASS
  1
SUN
  2
AcDbSun
  3
SCENEOE
 90
1153
280
0
281
0
  0
CLASS
  1
VISUALSTYLE
  2
AcDbVisualStyle
  3
ObjectDBX Classes
 90
4095
280
0
281
0
  0
CLASS
  1
MATERIAL
  2
AcDbMaterial
  3
ObjectDBX Classes
 90
1153
280
0
281
0
  0
CLASS
  1
SCALE
  2
AcDbScale
  3
ObjectDBX Classes
 90
1153
280
0
281
0
  0
CLASS
  1
TABLESTYLE
  2
AcDbTableStyle
  3
ObjectDBX Classes
 90
4095
280
0
281
0
  0
CLASS
  1
MLEADERSTYLE
  2
AcDbMLeaderStyle
  3
ACDB_MLEADERSTYLE_CLASS
 90
4095
280
0
281
0
  0
CLASS
  1
DICTIONARYVAR
  2
AcDbDictionaryVar
  3
ObjectDBX Classes
 90
0
280
0
281
0
  0
CLASS
  1
CELLSTYLEMAP
  2
AcDbCellStyleMap
  3
ObjectDBX Classes
 90
1152
280
0
281
0
  0
CLASS
  1
MENTALRAYRENDERSETTINGS
  2
AcDbMentalRayRenderSettings
  3
SCENEOE
 90
1024
280
0
281
0
  0
CLASS
  1
ACDBDETAILVIEWSTYLE
  2
AcDbDetailViewStyle
  3
ObjectDBX Classes
 90
1025
280
0
281
0
  0
CLASS
  1
ACDBSECTIONVIEWSTYLE
  2
AcDbSectionViewStyle
  3
ObjectDBX Classes
 90
1025
280
0
281
0
  0
CLASS
  1
RASTERVARIABLES
  2
AcDbRasterVariables
  3
ISM
 90
0
280
0
281
0
  0
CLASS
  1
ACDBPLACEHOLDER
  2
AcDbPlaceHolder
  3
ObjectDBX Classes
 90
0
280
0
281
0
  0
CLASS
  1
LAYOUT
  2
AcDbLayout
  3
ObjectDBX Classes
 90
0
280
0
281
0
  0
ENDSEC
  0
SECTION
  2
TABLES
  0
TABLE
  2
VPORT
  5
8
330
0
100
AcDbSymbolTable
 70
1
  0
VPORT
  5
23
330
8
100
AcDbSymbolTableRecord
100
AcDbViewportTableRecord
  2
*Active
 70
0
 10
0.0
 20
0.0
 11
1.0
 21
1.0
 12
0.0
 22
0.0
 13
0.0
 23
0.0
 14
0.5
 24
0.5
 15
0.5
 25
0.5
 16
0.0
 26
0.0
 36
1.0
 17
0.0
 27
0.0
 37
0.0
 40
1000.0
 41
1.34
 42
50.0
 43
0.0
 44
0.0
 50
0.0
 51
0.0
 71
0
 72
1000
 73
1
 74
3
 75
0
 76
0
 77
0
 78
0
281
0
 65
0
146
0.0
  0
ENDTAB
  0
TABLE
  2
LTYPE
  5
2
330
0
100
AcDbSymbolTable
 70
4
  0
LTYPE
  5
24
330
2
100
AcDbSymbolTableRecord
100
AcDbLinetypeTableRecord
  2
ByBlock
 70
0
  3

 72
65
 73
0
 40
0.0
  0
LTYPE
  5
25
330
2
100
AcDbSymbolTableRecord
100
AcDbLinetypeTableRecord
  2
ByLayer
 70
0
  3

 72
65
 73
0
 40
0.0
  0
LTYPE
  5
26
330
2
100
AcDbSymbolTableRecord
100
AcDbLinetypeTableRecord
  2
Continuous
 70
0
  3

 72
65
 73
0
 40
0.0
  0
LTYPE
  5
2F
330
2
100
AcDbSymbolTableRecord
100
AcDbLinetypeTableRecord
  2
DASHED
 70
0
  3
Loft hidden edge — 2/1.4
 72
65
 73
2
 40
0.0
 49
2.0
 74
0
 49
-1.4
 74
0
  0
ENDTAB
  0
TABLE
  2
LAYER
  5
1
330
0
100
AcDbSymbolTable
 70
6
  0
LAYER
  5
27
330
1
100
AcDbSymbolTableRecord
100
AcDbLayerTableRecord
  2
0
 70
0
 62
7
  6
Continuous
370
-3
390
13
  0
LAYER
  5
28
330
1
100
AcDbSymbolTableRecord
100
AcDbLayerTableRecord
  2
Defpoints
 70
0
 62
7
  6
Continuous
290
0
370
-3
390
13
  0
LAYER
  5
30
330
1
100
AcDbSymbolTableRecord
100
AcDbLayerTableRecord
  2
VISIBLE
 70
0
 62
7
  6
Continuous
370
-3
390
13
  0
LAYER
  5
31
330
1
100
AcDbSymbolTableRecord
100
AcDbLayerTableRecord
  2
HIDDEN
 70
0
 62
8
  6
DASHED
370
-3
390
13
  0
LAYER
  5
32
330
1
100
AcDbSymbolTableRecord
100
AcDbLayerTableRecord
  2
DIMENSION
 70
0
 62
1
  6
Continuous
370
-3
390
13
  0
LAYER
  5
33
330
1
100
AcDbSymbolTableRecord
100
AcDbLayerTableRecord
  2
TITLE
 70
0
 62
5
  6
Continuous
370
-3
390
13
  0
ENDTAB
  0
TABLE
  2
STYLE
  5
5
330
0
100
AcDbSymbolTable
 70
2
  0
STYLE
  5
29
330
5
100
AcDbSymbolTableRecord
100
AcDbTextStyleTableRecord
  2
Standard
 70
0
 40
0.0
 41
1.0
 50
0.0
 71
0
 42
2.5
  3
txt
  4

  0
STYLE
  5
34
330
5
100
AcDbSymbolTableRecord
100
AcDbTextStyleTableRecord
  2
LOFT_MONO
 70
0
 40
0.0
 41
1.0
 50
0.0
 71
0
 42
2.5
  3
cour.ttf
  4

  0
ENDTAB
  0
TABLE
  2
VIEW
  5
7
330
0
100
AcDbSymbolTable
 70
0
  0
ENDTAB
  0
TABLE
  2
UCS
  5
6
330
0
100
AcDbSymbolTable
 70
0
  0
ENDTAB
  0
TABLE
  2
APPID
  5
3
330
0
100
AcDbSymbolTable
 70
3
  0
APPID
  5
2A
330
3
100
AcDbSymbolTableRecord
100
AcDbRegAppTableRecord
  2
ACAD
 70
0
  0
APPID
  5
A0
330
3
100
AcDbSymbolTableRecord
100
AcDbRegAppTableRecord
  2
HATCHBACKGROUNDCOLOR
 70
0
  0
APPID
  5
A1
330
3
100
AcDbSymbolTableRecord
100
AcDbRegAppTableRecord
  2
EZDXF
 70
0
  0
ENDTAB
  0
TABLE
  2
DIMSTYLE
  5
4
330
0
100
AcDbSymbolTable
 70
1
100
AcDbDimStyleTable
  0
DIMSTYLE
105
2B
330
4
100
AcDbSymbolTableRecord
100
AcDbDimStyleTableRecord
  2
Standard
 70
0
  3

  4

 40
1.0
 41
2.5
 42
0.625
 43
3.75
 44
1.25
 45
0.0
 46
0.0
 47
0.0
 48
0.0
140
2.5
141
2.5
142
0.0
143
0.03937007874
144
1.0
145
0.0
146
1.0
147
0.625
148
0.0
 71
0
 72
0
 73
0
 74
0
 75
0
 76
0
 77
1
 78
8
 79
3
170
0
171
3
172
1
173
0
174
0
175
0
176
0
177
0
178
0
179
2
271
2
272
2
273
2
274
3
275
0
276
0
277
2
278
44
279
0
280
0
281
0
282
0
283
0
284
8
285
0
286
0
288
0
289
3
371
-2
372
-2
  0
ENDTAB
  0
TABLE
  2
BLOCK_RECORD
  5
9
330
0
100
AcDbSymbolTable
 70
2
  0
BLOCK_RECORD
  5
17
330
9
100
AcDbSymbolTableRecord
100
AcDbBlockTableRecord
  2
*Model_Space
340
1A
  0
BLOCK_RECORD
  5
1B
330
9
100
AcDbSymbolTableRecord
100
AcDbBlockTableRecord
  2
*Paper_Space
340
1E
  0
ENDTAB
  0
ENDSEC
  0
SECTION
  2
BLOCKS
  0
BLOCK
  5
18
330
17
100
AcDbEntity
  8
0
100
AcDbBlockBegin
  2
*Model_Space
 70
0
 10
0.0
 20
0.0
 30
0.0
  3
*Model_Space
  1

  0
ENDBLK
  5
19
330
17
100
AcDbEntity
  8
0
100
AcDbBlockEnd
  0
BLOCK
  5
1C
330
1B
100
AcDbEntity
  8
0
100
AcDbBlockBegin
  2
*Paper_Space
 70
0
 10
0.0
 20
0.0
 30
0.0
  3
*Paper_Space
  1

  0
ENDBLK
  5
1D
330
1B
100
AcDbEntity
  8
0
100
AcDbBlockEnd
  0
ENDSEC
  0
SECTION
  2
ENTITIES
  0
LWPOLYLINE
  5
35
330
17
100
AcDbEntity
  8
TITLE
100
AcDbPolyline
 90
4
 70
1
 10
10.0
 20
200.0
 10
287.0
 20
200.0
 10
287.0
 20
10.0
 10
10.0
 20
10.0
  0
LINE
  5
36
330
17
100
AcDbEntity
  8
VISIBLE
100
AcDbLine
 10
98.7595148057186
 20
73.07472382764291
 30
0.0
 11
98.7595148057186
 21
83.07472382764291
 31
0.0
  0
LINE
  5
37
330
17
100
AcDbEntity
  8
VISIBLE
100
AcDbLine
 10
98.7595148057186
 20
73.07472382764291
 30
0.0
 11
138.7595148057186
 21
73.07472382764291
 31
0.0
  0
LINE
  5
38
330
17
100
AcDbEntity
  8
VISIBLE
100
AcDbLine
 10
98.7595148057186
 20
83.07472382764291
 30
0.0
 11
138.7595148057186
 21
83.07472382764291
 31
0.0
  0
LINE
  5
39
330
17
100
AcDbEntity
  8
HIDDEN
100
AcDbLine
 10
105.7595148057186
 20
73.07472382764291
 30
0.0
 11
105.7595148057186
 21
83.07472382764291
 31
0.0
  0
LINE
  5
3A
330
17
100
AcDbEntity
  8
HIDDEN
100
AcDbLine
 10
115.7595148057186
 20
73.07472382764291
 30
0.0
 11
115.7595148057186
 21
83.07472382764291
 31
0.0
  0
LINE
  5
3B
330
17
100
AcDbEntity
  8
HIDDEN
100
AcDbLine
 10
121.7595148057186
 20
73.07472382764291
 30
0.0
 11
121.7595148057186
 21
83.07472382764291
 31
0.0
  0
LINE
  5
3C
330
17
100
AcDbEntity
  8
HIDDEN
100
AcDbLine
 10
131.7595148057186
 20
73.07472382764291
 30
0.0
 11
131.7595148057186
 21
83.07472382764291
 31
0.0
  0
LINE
  5
3D
330
17
100
AcDbEntity
  8
VISIBLE
100
AcDbLine
 10
138.7595148057186
 20
73.07472382764291
 30
0.0
 11
138.7595148057186
 21
83.07472382764291
 31
0.0
  0
LWPOLYLINE
  5
3E
330
17
100
AcDbEntity
  8
HIDDEN
100
AcDbPolyline
 90
33
 70
0
 10
105.7595148057186
 20
73.07472382764291
 10
105.81435999782086
 20
73.07472382764291
 10
105.86920518992312
 20
73.07472382764291
 10
106.00043625149604
 20
73.07472382764291
 10
106.16222166085724
 20
73.07472382764291
 10
106.36636176505124
 20
73.07472382764291
 10
106.62697479568897
 20
73.07472382764291
 10
106.89983916856885
 20
73.07472382764291
 10
107.24621159490168
 20
73.07472382764291
 10
107.59258402123452
 20
73.07472382764291
 10
107.99757716406464
 20
73.07472382764291
 10
108.41234042631095
 20
73.07472382764291
 10
108.85429961658235
 20
73.07472382764291
 10
109.31665575287258
 20
73.07472382764291
 10
109.78598571965972
 20
73.07472382764291
 10
110.27275026268916
 20
73.07472382764291
 10
110.7595148057186
 20
73.07472382764291
 10
111.24627934874803
 20
73.07472382764291
 10
111.73304389177747
 20
73.07472382764291
 10
112.20237385856461
 20
73.07472382764291
 10
112.66472999485484
 20
73.07472382764291
 10
113.10668918512624
 20
73.07472382764291
 10
113.52145244737255
 20
73.07472382764291
 10
113.92644559020266
 20
73.07472382764291
 10
114.2728180165355
 20
73.07472382764291
 10
114.61919044286834
 20
73.07472382764291
 10
114.89205481574822
 20
73.07472382764291
 10
115.15266784638595
 20
73.07472382764291
 10
115.35680795057995
 20
73.07472382764291
 10
115.51859335994115
 20
73.07472382764291
 10
115.64982442151407
 20
73.07472382764291
 10
115.70466961361633
 20
73.07472382764291
 10
115.7595148057186
 20
73.07472382764291
  0
LWPOLYLINE
  5
3F
330
17
100
AcDbEntity
  8
HIDDEN
100
AcDbPolyline
 90
33
 70
0
 10
115.7595148057186
 20
73.07472382764291
 10
115.70466961361633
 20
73.07472382764291
 10
115.64982442151407
 20
73.07472382764291
 10
115.51859335994115
 20
73.07472382764291
 10
115.35680795057995
 20
73.07472382764291
 10
115.15266784638595
 20
73.07472382764291
 10
114.89205481574822
 20
73.07472382764291
 10
114.61919044286834
 20
73.07472382764291
 10
114.27281801653551
 20
73.07472382764291
 10
113.92644559020266
 20
73.07472382764291
 10
113.52145244737255
 20
73.07472382764291
 10
113.10668918512624
 20
73.07472382764291
 10
112.66472999485484
 20
73.07472382764291
 10
112.20237385856461
 20
73.07472382764291
 10
111.73304389177747
 20
73.07472382764291
 10
111.24627934874803
 20
73.07472382764291
 10
110.7595148057186
 20
73.07472382764291
 10
110.27275026268916
 20
73.07472382764291
 10
109.78598571965972
 20
73.07472382764291
 10
109.31665575287258
 20
73.07472382764291
 10
108.85429961658235
 20
73.07472382764291
 10
108.41234042631095
 20
73.07472382764291
 10
107.99757716406464
 20
73.07472382764291
 10
107.59258402123453
 20
73.07472382764291
 10
107.24621159490168
 20
73.07472382764291
 10
106.89983916856885
 20
73.07472382764291
 10
106.62697479568897
 20
73.07472382764291
 10
106.36636176505124
 20
73.07472382764291
 10
106.16222166085724
 20
73.07472382764291
 10
106.00043625149604
 20
73.07472382764291
 10
105.86920518992312
 20
73.07472382764291
 10
105.81435999782086
 20
73.07472382764291
 10
105.7595148057186
 20
73.07472382764291
  0
LWPOLYLINE
  5
40
330
17
100
AcDbEntity
  8
HIDDEN
100
AcDbPolyline
 90
33
 70
0
 10
105.7595148057186
 20
83.07472382764291
 10
105.81435999782086
 20
83.07472382764291
 10
105.86920518992312
 20
83.07472382764291
 10
106.00043625149604
 20
83.07472382764291
 10
106.16222166085724
 20
83.07472382764291
 10
106.36636176505124
 20
83.07472382764291
 10
106.62697479568897
 20
83.07472382764291
 10
106.89983916856885
 20
83.07472382764291
 10
107.24621159490168
 20
83.07472382764291
 10
107.59258402123452
 20
83.07472382764291
 10
107.99757716406464
 20
83.07472382764291
 10
108.41234042631095
 20
83.07472382764291
 10
108.85429961658235
 20
83.07472382764291
 10
109.31665575287258
 20
83.07472382764291
 10
109.78598571965972
 20
83.07472382764291
 10
110.27275026268916
 20
83.07472382764291
 10
110.7595148057186
 20
83.07472382764291
 10
111.24627934874803
 20
83.07472382764291
 10
111.73304389177747
 20
83.07472382764291
 10
112.20237385856461
 20
83.07472382764291
 10
112.66472999485484
 20
83.07472382764291
 10
113.10668918512624
 20
83.07472382764291
 10
113.52145244737255
 20
83.07472382764291
 10
113.92644559020266
 20
83.07472382764291
 10
114.2728180165355
 20
83.07472382764291
 10
114.61919044286834
 20
83.07472382764291
 10
114.89205481574822
 20
83.07472382764291
 10
115.15266784638595
 20
83.07472382764291
 10
115.35680795057995
 20
83.07472382764291
 10
115.51859335994115
 20
83.07472382764291
 10
115.64982442151407
 20
83.07472382764291
 10
115.70466961361633
 20
83.07472382764291
 10
115.7595148057186
 20
83.07472382764291
  0
LWPOLYLINE
  5
41
330
17
100
AcDbEntity
  8
HIDDEN
100
AcDbPolyline
 90
33
 70
0
 10
115.7595148057186
 20
83.07472382764291
 10
115.70466961361633
 20
83.07472382764291
 10
115.64982442151407
 20
83.07472382764291
 10
115.51859335994115
 20
83.07472382764291
 10
115.35680795057995
 20
83.07472382764291
 10
115.15266784638595
 20
83.07472382764291
 10
114.89205481574822
 20
83.07472382764291
 10
114.61919044286834
 20
83.07472382764291
 10
114.27281801653551
 20
83.07472382764291
 10
113.92644559020266
 20
83.07472382764291
 10
113.52145244737255
 20
83.07472382764291
 10
113.10668918512624
 20
83.07472382764291
 10
112.66472999485484
 20
83.07472382764291
 10
112.20237385856461
 20
83.07472382764291
 10
111.73304389177747
 20
83.07472382764291
 10
111.24627934874803
 20
83.07472382764291
 10
110.7595148057186
 20
83.07472382764291
 10
110.27275026268916
 20
83.07472382764291
 10
109.78598571965972
 20
83.07472382764291
 10
109.31665575287258
 20
83.07472382764291
 10
108.85429961658235
 20
83.07472382764291
 10
108.41234042631095
 20
83.07472382764291
 10
107.99757716406464
 20
83.07472382764291
 10
107.59258402123453
 20
83.07472382764291
 10
107.24621159490168
 20
83.07472382764291
 10
106.89983916856885
 20
83.07472382764291
 10
106.62697479568897
 20
83.07472382764291
 10
106.36636176505124
 20
83.07472382764291
 10
106.16222166085724
 20
83.07472382764291
 10
106.00043625149604
 20
83.07472382764291
 10
105.86920518992312
 20
83.07472382764291
 10
105.81435999782086
 20
83.07472382764291
 10
105.7595148057186
 20
83.07472382764291
  0
LWPOLYLINE
  5
42
330
17
100
AcDbEntity
  8
HIDDEN
100
AcDbPolyline
 90
33
 70
0
 10
121.7595148057186
 20
73.07472382764291
 10
121.81435999782086
 20
73.07472382764291
 10
121.86920518992312
 20
73.07472382764291
 10
122.00043625149604
 20
73.07472382764291
 10
122.16222166085724
 20
73.07472382764291
 10
122.36636176505124
 20
73.07472382764291
 10
122.62697479568897
 20
73.07472382764291
 10
122.89983916856885
 20
73.07472382764291
 10
123.2462115949017
 20
73.07472382764291
 10
123.59258402123453
 20
73.07472382764291
 10
123.99757716406464
 20
73.07472382764291
 10
124.41234042631095
 20
73.07472382764291
 10
124.85429961658235
 20
73.07472382764291
 10
125.31665575287258
 20
73.07472382764291
 10
125.78598571965972
 20
73.07472382764291
 10
126.27275026268916
 20
73.07472382764291
 10
126.7595148057186
 20
73.07472382764291
 10
127.24627934874803
 20
73.07472382764291
 10
127.73304389177747
 20
73.07472382764291
 10
128.2023738585646
 20
73.07472382764291
 10
128.66472999485484
 20
73.07472382764291
 10
129.10668918512624
 20
73.07472382764291
 10
129.52145244737255
 20
73.07472382764291
 10
129.92644559020266
 20
73.07472382764291
 10
130.2728180165355
 20
73.07472382764291
 10
130.61919044286833
 20
73.07472382764291
 10
130.89205481574822
 20
73.07472382764291
 10
131.15266784638595
 20
73.07472382764291
 10
131.35680795057993
 20
73.07472382764291
 10
131.51859335994115
 20
73.07472382764291
 10
131.64982442151407
 20
73.07472382764291
 10
131.70466961361632
 20
73.07472382764291
 10
131.7595148057186
 20
73.07472382764291
  0
LWPOLYLINE
  5
43
330
17
100
AcDbEntity
  8
HIDDEN
100
AcDbPolyline
 90
33
 70
0
 10
131.7595148057186
 20
73.07472382764291
 10
131.70466961361632
 20
73.07472382764291
 10
131.64982442151407
 20
73.07472382764291
 10
131.51859335994115
 20
73.07472382764291
 10
131.35680795057993
 20
73.07472382764291
 10
131.15266784638595
 20
73.07472382764291
 10
130.89205481574822
 20
73.07472382764291
 10
130.61919044286833
 20
73.07472382764291
 10
130.2728180165355
 20
73.07472382764291
 10
129.92644559020266
 20
73.07472382764291
 10
129.52145244737255
 20
73.07472382764291
 10
129.10668918512624
 20
73.07472382764291
 10
128.66472999485484
 20
73.07472382764291
 10
128.2023738585646
 20
73.07472382764291
 10
127.73304389177747
 20
73.07472382764291
 10
127.24627934874803
 20
73.07472382764291
 10
126.7595148057186
 20
73.07472382764291
 10
126.27275026268916
 20
73.07472382764291
 10
125.78598571965972
 20
73.07472382764291
 10
125.31665575287258
 20
73.07472382764291
 10
124.85429961658235
 20
73.07472382764291
 10
124.41234042631095
 20
73.07472382764291
 10
123.99757716406464
 20
73.07472382764291
 10
123.59258402123453
 20
73.07472382764291
 10
123.24621159490168
 20
73.07472382764291
 10
122.89983916856885
 20
73.07472382764291
 10
122.62697479568897
 20
73.07472382764291
 10
122.36636176505124
 20
73.07472382764291
 10
122.16222166085724
 20
73.07472382764291
 10
122.00043625149604
 20
73.07472382764291
 10
121.86920518992312
 20
73.07472382764291
 10
121.81435999782086
 20
73.07472382764291
 10
121.7595148057186
 20
73.07472382764291
  0
LWPOLYLINE
  5
44
330
17
100
AcDbEntity
  8
HIDDEN
100
AcDbPolyline
 90
33
 70
0
 10
121.7595148057186
 20
83.07472382764291
 10
121.81435999782086
 20
83.07472382764291
 10
121.86920518992312
 20
83.07472382764291
 10
122.00043625149604
 20
83.07472382764291
 10
122.16222166085724
 20
83.07472382764291
 10
122.36636176505124
 20
83.07472382764291
 10
122.62697479568897
 20
83.07472382764291
 10
122.89983916856885
 20
83.07472382764291
 10
123.2462115949017
 20
83.07472382764291
 10
123.59258402123453
 20
83.07472382764291
 10
123.99757716406464
 20
83.07472382764291
 10
124.41234042631095
 20
83.07472382764291
 10
124.85429961658235
 20
83.07472382764291
 10
125.31665575287258
 20
83.07472382764291
 10
125.78598571965972
 20
83.07472382764291
 10
126.27275026268916
 20
83.07472382764291
 10
126.7595148057186
 20
83.07472382764291
 10
127.24627934874803
 20
83.07472382764291
 10
127.73304389177747
 20
83.07472382764291
 10
128.2023738585646
 20
83.07472382764291
 10
128.66472999485484
 20
83.07472382764291
 10
129.10668918512624
 20
83.07472382764291
 10
129.52145244737255
 20
83.07472382764291
 10
129.92644559020266
 20
83.07472382764291
 10
130.2728180165355
 20
83.07472382764291
 10
130.61919044286833
 20
83.07472382764291
 10
130.89205481574822
 20
83.07472382764291
 10
131.15266784638595
 20
83.07472382764291
 10
131.35680795057993
 20
83.07472382764291
 10
131.51859335994115
 20
83.07472382764291
 10
131.64982442151407
 20
83.07472382764291
 10
131.70466961361632
 20
83.07472382764291
 10
131.7595148057186
 20
83.07472382764291
  0
LWPOLYLINE
  5
45
330
17
100
AcDbEntity
  8
HIDDEN
100
AcDbPolyline
 90
33
 70
0
 10
131.7595148057186
 20
83.07472382764291
 10
131.70466961361632
 20
83.07472382764291
 10
131.64982442151407
 20
83.07472382764291
 10
131.51859335994115
 20
83.07472382764291
 10
131.35680795057993
 20
83.07472382764291
 10
131.15266784638595
 20
83.07472382764291
 10
130.89205481574822
 20
83.07472382764291
 10
130.61919044286833
 20
83.07472382764291
 10
130.2728180165355
 20
83.07472382764291
 10
129.92644559020266
 20
83.07472382764291
 10
129.52145244737255
 20
83.07472382764291
 10
129.10668918512624
 20
83.07472382764291
 10
128.66472999485484
 20
83.07472382764291
 10
128.2023738585646
 20
83.07472382764291
 10
127.73304389177747
 20
83.07472382764291
 10
127.24627934874803
 20
83.07472382764291
 10
126.7595148057186
 20
83.07472382764291
 10
126.27275026268916
 20
83.07472382764291
 10
125.78598571965972
 20
83.07472382764291
 10
125.31665575287258
 20
83.07472382764291
 10
124.85429961658235
 20
83.07472382764291
 10
124.41234042631095
 20
83.07472382764291
 10
123.99757716406464
 20
83.07472382764291
 10
123.59258402123453
 20
83.07472382764291
 10
123.24621159490168
 20
83.07472382764291
 10
122.89983916856885
 20
83.07472382764291
 10
122.62697479568897
 20
83.07472382764291
 10
122.36636176505124
 20
83.07472382764291
 10
122.16222166085724
 20
83.07472382764291
 10
122.00043625149604
 20
83.07472382764291
 10
121.86920518992312
 20
83.07472382764291
 10
121.81435999782086
 20
83.07472382764291
 10
121.7595148057186
 20
83.07472382764291
  0
LINE
  5
46
330
17
100
AcDbEntity
  8
DIMENSION
100
AcDbLine
 10
98.7595148057186
 20
71.67472382764291
 30
0.0
 11
98.7595148057186
 21
41.47472382764292
 31
0.0
  0
LINE
  5
47
330
17
100
AcDbEntity
  8
DIMENSION
100
AcDbLine
 10
138.7595148057186
 20
71.67472382764291
 30
0.0
 11
138.7595148057186
 21
41.47472382764292
 31
0.0
  0
LINE
  5
48
330
17
100
AcDbEntity
  8
DIMENSION
100
AcDbLine
 10
98.7595148057186
 20
43.07472382764291
 30
0.0
 11
138.7595148057186
 21
43.07472382764291
 31
0.0
  0
SOLID
  5
49
330
17
100
AcDbEntity
  8
DIMENSION
100
AcDbTrace
 10
98.7595148057186
 20
43.07472382764291
 30
0.0
 11
102.1595148057186
 21
42.17472382764291
 31
0.0
 12
102.1595148057186
 22
43.97472382764292
 32
0.0
 13
102.1595148057186
 23
43.97472382764292
 33
0.0
  0
SOLID
  5
4A
330
17
100
AcDbEntity
  8
DIMENSION
100
AcDbTrace
 10
138.7595148057186
 20
43.07472382764291
 30
0.0
 11
135.3595148057186
 21
43.97472382764292
 31
0.0
 12
135.3595148057186
 22
42.17472382764291
 32
0.0
 13
135.3595148057186
 23
42.17472382764291
 33
0.0
  0
TEXT
  5
4B
330
17
100
AcDbEntity
  8
DIMENSION
100
AcDbText
 10
120.0
 20
110.0
 30
0.0
 40
3.2
  1
40.000
  7
LOFT_MONO
 72
1
 11
120.0
 21
110.0
 31
0.0
100
AcDbText
 73
2
  0
LINE
  5
4C
330
17
100
AcDbEntity
  8
DIMENSION
100
AcDbLine
 10
111.7595148057186
 20
73.07472382764291
 30
0.0
 11
111.64829800357813
 21
74.77156432650358
 31
0.0
  0
LINE
  5
4D
330
17
100
AcDbEntity
  8
DIMENSION
100
AcDbLine
 10
111.64829800357813
 20
74.77156432650358
 30
0.0
 11
111.31655054747648
 21
76.43937141397569
 31
0.0
  0
LINE
  5
4E
330
17
100
AcDbEntity
  8
DIMENSION
100
AcDbLine
 10
111.31655054747648
 20
76.43937141397569
 30
0.0
 11
110.76994872836532
 21
78.04960844838908
 31
0.0
  0
LINE
  5
4F
330
17
100
AcDbEntity
  8
DIMENSION
100
AcDbLine
 10
110.76994872836532
 20
78.04960844838908
 30
0.0
 11
110.0178450549163
 21
79.57472382764291
 31
0.0
  0
LINE
  5
50
330
17
100
AcDbEntity
  8
DIMENSION
100
AcDbLine
 10
110.0178450549163
 20
79.57472382764291
 30
0.0
 11
109.07310822950465
 21
80.98862240475628
 31
0.0
  0
LINE
  5
51
330
17
100
AcDbEntity
  8
DIMENSION
100
AcDbLine
 10
109.07310822950465
 20
80.98862240475628
 30
0.0
 11
107.95190296114372
 21
82.26711198306803
 31
0.0
  0
LINE
  5
52
330
17
100
AcDbEntity
  8
DIMENSION
100
AcDbLine
 10
107.95190296114372
 20
82.26711198306803
 30
0.0
 11
106.67341338283197
 21
83.38831725142897
 31
0.0
  0
LINE
  5
53
330
17
100
AcDbEntity
  8
DIMENSION
100
AcDbLine
 10
106.67341338283197
 20
83.38831725142897
 30
0.0
 11
105.2595148057186
 21
84.33305407684061
 31
0.0
  0
LINE
  5
54
330
17
100
AcDbEntity
  8
DIMENSION
100
AcDbLine
 10
105.2595148057186
 20
84.33305407684061
 30
0.0
 11
103.73439942646476
 21
85.08515775028964
 31
0.0
  0
LINE
  5
55
330
17
100
AcDbEntity
  8
DIMENSION
100
AcDbLine
 10
103.73439942646476
 20
85.08515775028964
 30
0.0
 11
102.12416239205136
 21
85.6317595694008
 31
0.0
  0
LINE
  5
56
330
17
100
AcDbEntity
  8
DIMENSION
100
AcDbLine
 10
102.12416239205136
 20
85.6317595694008
 30
0.0
 11
100.45635530457926
 21
85.96350702550245
 31
0.0
  0
LINE
  5
57
330
17
100
AcDbEntity
  8
DIMENSION
100
AcDbLine
 10
100.45635530457926
 20
85.96350702550245
 30
0.0
 11
98.7595148057186
 21
86.07472382764291
 31
0.0
  0
LINE
  5
58
330
17
100
AcDbEntity
  8
DIMENSION
100
AcDbLine
 10
100.1595148057186
 20
73.07472382764291
 30
0.0
 11
113.35951480571859
 21
73.07472382764291
 31
0.0
  0
LINE
  5
59
330
17
100
AcDbEntity
  8
DIMENSION
100
AcDbLine
 10
98.7595148057186
 20
74.47472382764292
 30
0.0
 11
98.7595148057186
 21
87.67472382764291
 31
0.0
  0
SOLID
  5
5A
330
17
100
AcDbEntity
  8
DIMENSION
100
AcDbTrace
 10
111.7595148057186
 20
73.07472382764291
 30
0.0
 11
110.88624582685989
 21
69.66776018085079
 31
0.0
 12
112.68619031062052
 22
69.68189720245047
 32
0.0
 13
112.68619031062052
 23
69.68189720245047
 33
0.0
  0
SOLID
  5
5B
330
17
100
AcDbEntity
  8
DIMENSION
100
AcDbTrace
 10
98.7595148057186
 20
86.07472382764291
 30
0.0
 11
95.36668818052615
 21
87.00139933254484
 31
0.0
 12
95.35255115892647
 22
85.20145484878421
 32
0.0
 13
95.35255115892647
 23
85.20145484878421
 33
0.0
  0
TEXT
  5
5C
330
17
100
AcDbEntity
  8
DIMENSION
100
AcDbText
 10
110.80861435713737
 20
85.12382337906168
 30
0.0
 40
3.2
  1
90.0°
  7
LOFT_MONO
 72
1
 11
110.80861435713737
 21
85.12382337906168
 31
0.0
100
AcDbText
 73
2
  0
TEXT
  5
5D
330
17
100
AcDbEntity
  8
TITLE
100
AcDbText
 10
118.7595148057186
 20
65.07472382764291
 30
0.0
 40
3.4
  1
FRONT
  7
LOFT_MONO
 72
1
 11
118.7595148057186
 21
65.07472382764291
 31
0.0
100
AcDbText
 73
2
  0
LINE
  5
5E
330
17
100
AcDbEntity
  8
VISIBLE
100
AcDbLine
 10
98.7595148057186
 20
107.07472382764291
 30
0.0
 11
98.7595148057186
 21
132.0747238276429
 31
0.0
  0
LINE
  5
5F
330
17
100
AcDbEntity
  8
VISIBLE
100
AcDbLine
 10
98.7595148057186
 20
107.07472382764291
 30
0.0
 11
138.7595148057186
 21
107.07472382764291
 31
0.0
  0
LINE
  5
60
330
17
100
AcDbEntity
  8
VISIBLE
100
AcDbLine
 10
98.7595148057186
 20
132.0747238276429
 30
0.0
 11
138.7595148057186
 21
132.0747238276429
 31
0.0
  0
LINE
  5
61
330
17
100
AcDbEntity
  8
VISIBLE
100
AcDbLine
 10
138.7595148057186
 20
107.07472382764291
 30
0.0
 11
138.7595148057186
 21
132.0747238276429
 31
0.0
  0
CIRCLE
  5
62
330
17
100
AcDbEntity
  8
VISIBLE
100
AcDbCircle
 10
110.7595148057186
 20
119.57472382764291
 30
0.0
 40
5.0
  0
CIRCLE
  5
63
330
17
100
AcDbEntity
  8
VISIBLE
100
AcDbCircle
 10
126.7595148057186
 20
119.57472382764291
 30
0.0
 40
5.0
  0
LINE
  5
64
330
17
100
AcDbEntity
  8
DIMENSION
100
AcDbLine
 10
105.7595148057186
 20
119.57472382764291
 30
0.0
 11
115.7595148057186
 21
119.57472382764291
 31
0.0
  0
SOLID
  5
65
330
17
100
AcDbEntity
  8
DIMENSION
100
AcDbTrace
 10
105.7595148057186
 20
119.57472382764291
 30
0.0
 11
109.1595148057186
 21
118.67472382764291
 31
0.0
 12
109.1595148057186
 22
120.47472382764292
 32
0.0
 13
109.1595148057186
 23
120.47472382764292
 33
0.0
  0
SOLID
  5
66
330
17
100
AcDbEntity
  8
DIMENSION
100
AcDbTrace
 10
115.7595148057186
 20
119.57472382764291
 30
0.0
 11
112.35951480571859
 21
120.47472382764292
 31
0.0
 12
112.35951480571859
 22
118.67472382764291
 32
0.0
 13
112.35951480571859
 23
118.67472382764291
 33
0.0
  0
TEXT
  5
67
330
17
100
AcDbEntity
  8
DIMENSION
100
AcDbText
 10
96.5155148057186
 20
119.57472382764291
 30
0.0
 40
3.2
  1
Ø10.000
  7
LOFT_MONO
 72
1
 11
96.5155148057186
 21
119.57472382764291
 31
0.0
100
AcDbText
 73
2
  0
LINE
  5
68
330
17
100
AcDbEntity
  8
DIMENSION
100
AcDbLine
 10
110.7595148057186
 20
119.57472382764291
 30
0.0
 11
114.29504871165133
 21
123.11025773357565
 31
0.0
  0
SOLID
  5
69
330
17
100
AcDbEntity
  8
DIMENSION
100
AcDbTrace
 10
114.29504871165133
 20
123.11025773357565
 30
0.0
 11
111.25448955254917
 21
121.34249078060928
 31
0.0
 12
112.52728175868496
 22
120.06969857447349
 32
0.0
 13
112.52728175868496
 23
120.06969857447349
 33
0.0
  0
TEXT
  5
6A
330
17
100
AcDbEntity
  8
DIMENSION
100
AcDbText
 10
120.83720065118928
 20
129.6524096731136
 30
0.0
 40
3.2
  1
R5.000
  7
LOFT_MONO
 72
1
 11
120.83720065118928
 21
129.6524096731136
 31
0.0
100
AcDbText
 73
2
  0
TEXT
  5
6B
330
17
100
AcDbEntity
  8
TITLE
100
AcDbText
 10
118.7595148057186
 20
99.07472382764291
 30
0.0
 40
3.4
  1
TOP
  7
LOFT_MONO
 72
1
 11
118.7595148057186
 21
99.07472382764291
 31
0.0
100
AcDbText
 73
2
  0
LINE
  5
6C
330
17
100
AcDbEntity
  8
VISIBLE
100
AcDbLine
 10
162.7595148057186
 20
73.07472382764291
 30
0.0
 11
162.7595148057186
 21
83.07472382764291
 31
0.0
  0
LINE
  5
6D
330
17
100
AcDbEntity
  8
VISIBLE
100
AcDbLine
 10
162.7595148057186
 20
73.07472382764291
 30
0.0
 11
187.7595148057186
 21
73.07472382764291
 31
0.0
  0
LINE
  5
6E
330
17
100
AcDbEntity
  8
VISIBLE
100
AcDbLine
 10
162.7595148057186
 20
83.07472382764291
 30
0.0
 11
187.7595148057186
 21
83.07472382764291
 31
0.0
  0
LINE
  5
6F
330
17
100
AcDbEntity
  8
HIDDEN
100
AcDbLine
 10
170.2595148057186
 20
73.07472382764291
 30
0.0
 11
170.2595148057186
 21
83.07472382764291
 31
0.0
  0
LINE
  5
70
330
17
100
AcDbEntity
  8
HIDDEN
100
AcDbLine
 10
180.2595148057186
 20
73.07472382764291
 30
0.0
 11
180.2595148057186
 21
83.07472382764291
 31
0.0
  0
LINE
  5
71
330
17
100
AcDbEntity
  8
VISIBLE
100
AcDbLine
 10
187.7595148057186
 20
73.07472382764291
 30
0.0
 11
187.7595148057186
 21
83.07472382764291
 31
0.0
  0
LWPOLYLINE
  5
72
330
17
100
AcDbEntity
  8
HIDDEN
100
AcDbPolyline
 90
33
 70
0
 10
170.2595148057186
 20
73.07472382764291
 10
170.27326934657714
 20
73.07472382764291
 10
170.28702388743565
 20
73.07472382764291
 10
170.32030422142648
 20
73.07472382764291
 10
170.3613948726702
 20
73.07472382764291
 10
170.41397954031584
 20
73.07472382764291
 10
170.48188956316403
 20
73.07472382764291
 10
170.5535089236786
 20
73.07472382764291
 10
170.64738431019163
 20
73.07472382764291
 10
170.74125969670465
 20
73.07472382764291
 10
170.8563792199705
 20
73.07472382764291
 10
170.97503943269518
 20
73.07472382764291
 10
171.1070097055275
 20
73.07472382764291
 10
171.24896252344055
 20
73.07472382764291
 10
171.39706033167937
 20
73.07472382764291
 10
171.56052061573263
 20
73.07472382764291
 10
171.72398089978586
 20
73.07472382764291
 10
171.90689304206546
 20
73.07472382764291
 10
172.08980518434504
 20
73.07472382764291
 10
172.28496849227398
 20
73.07472382764291
 10
172.48503226646267
 20
73.07472382764291
 10
172.69136848945232
 20
73.07472382764291
 10
172.90606797750996
 20
73.07472382764291
 10
173.12247257174405
 20
73.07472382764291
 10
173.3491078030368
 20
73.07472382764291
 10
173.57574303432952
 20
73.07472382764291
 10
173.8101659859406
 20
73.07472382764291
 10
174.0458868909381
 20
73.07472382764291
 10
174.28510570825327
 20
73.07472382764291
 10
174.52694795980673
 20
73.07472382764291
 10
174.76967022276662
 20
73.07472382764291
 10
175.01459251424262
 20
73.07472382764291
 10
175.2595148057186
 20
73.07472382764291
  0
LWPOLYLINE
  5
73
330
17
100
AcDbEntity
  8
HIDDEN
100
AcDbPolyline
 90
33
 70
0
 10
180.2595148057186
 20
73.07472382764291
 10
180.20466961361632
 20
73.07472382764291
 10
180.14982442151407
 20
73.07472382764291
 10
180.01859335994115
 20
73.07472382764291
 10
179.85680795057993
 20
73.07472382764291
 10
179.65266784638595
 20
73.07472382764291
 10
179.39205481574822
 20
73.07472382764291
 10
179.11919044286833
 20
73.07472382764291
 10
178.7728180165355
 20
73.07472382764291
 10
178.42644559020266
 20
73.07472382764291
 10
178.02145244737255
 20
73.07472382764291
 10
177.60668918512624
 20
73.07472382764291
 10
177.16472999485484
 20
73.07472382764291
 10
176.7023738585646
 20
73.07472382764291
 10
176.23304389177747
 20
73.07472382764291
 10
175.74627934874803
 20
73.07472382764291
 10
175.2595148057186
 20
73.07472382764291
 10
174.77275026268916
 20
73.07472382764291
 10
174.28598571965972
 20
73.07472382764291
 10
173.81665575287258
 20
73.07472382764291
 10
173.35429961658235
 20
73.07472382764291
 10
172.91234042631095
 20
73.07472382764291
 10
172.49757716406464
 20
73.07472382764291
 10
172.09258402123453
 20
73.07472382764291
 10
171.7462115949017
 20
73.07472382764291
 10
171.39983916856886
 20
73.07472382764291
 10
171.12697479568897
 20
73.07472382764291
 10
170.86636176505124
 20
73.07472382764291
 10
170.66222166085726
 20
73.07472382764291
 10
170.50043625149604
 20
73.07472382764291
 10
170.36920518992312
 20
73.07472382764291
 10
170.31435999782084
 20
73.07472382764291
 10
170.2595148057186
 20
73.07472382764291
  0
LWPOLYLINE
  5
74
330
17
100
AcDbEntity
  8
HIDDEN
100
AcDbPolyline
 90
33
 70
0
 10
170.2595148057186
 20
83.07472382764291
 10
170.27326934657714
 20
83.07472382764291
 10
170.28702388743565
 20
83.07472382764291
 10
170.32030422142648
 20
83.07472382764291
 10
170.3613948726702
 20
83.07472382764291
 10
170.41397954031584
 20
83.07472382764291
 10
170.48188956316403
 20
83.07472382764291
 10
170.5535089236786
 20
83.07472382764291
 10
170.64738431019163
 20
83.07472382764291
 10
170.74125969670465
 20
83.07472382764291
 10
170.8563792199705
 20
83.07472382764291
 10
170.97503943269518
 20
83.07472382764291
 10
171.1070097055275
 20
83.07472382764291
 10
171.24896252344055
 20
83.07472382764291
 10
171.39706033167937
 20
83.07472382764291
 10
171.56052061573263
 20
83.07472382764291
 10
171.72398089978586
 20
83.07472382764291
 10
171.90689304206546
 20
83.07472382764291
 10
172.08980518434504
 20
83.07472382764291
 10
172.28496849227398
 20
83.07472382764291
 10
172.48503226646267
 20
83.07472382764291
 10
172.69136848945232
 20
83.07472382764291
 10
172.90606797750996
 20
83.07472382764291
 10
173.12247257174405
 20
83.07472382764291
 10
173.3491078030368
 20
83.07472382764291
 10
173.57574303432952
 20
83.07472382764291
 10
173.8101659859406
 20
83.07472382764291
 10
174.0458868909381
 20
83.07472382764291
 10
174.28510570825327
 20
83.07472382764291
 10
174.52694795980673
 20
83.07472382764291
 10
174.76967022276662
 20
83.07472382764291
 10
175.01459251424262
 20
83.07472382764291
 10
175.2595148057186
 20
83.07472382764291
  0
LWPOLYLINE
  5
75
330
17
100
AcDbEntity
  8
HIDDEN
100
AcDbPolyline
 90
33
 70
0
 10
180.2595148057186
 20
83.07472382764291
 10
180.20466961361632
 20
83.07472382764291
 10
180.14982442151407
 20
83.07472382764291
 10
180.01859335994115
 20
83.07472382764291
 10
179.85680795057993
 20
83.07472382764291
 10
179.65266784638595
 20
83.07472382764291
 10
179.39205481574822
 20
83.07472382764291
 10
179.11919044286833
 20
83.07472382764291
 10
178.7728180165355
 20
83.07472382764291
 10
178.42644559020266
 20
83.07472382764291
 10
178.02145244737255
 20
83.07472382764291
 10
177.60668918512624
 20
83.07472382764291
 10
177.16472999485484
 20
83.07472382764291
 10
176.7023738585646
 20
83.07472382764291
 10
176.23304389177747
 20
83.07472382764291
 10
175.74627934874803
 20
83.07472382764291
 10
175.2595148057186
 20
83.07472382764291
 10
174.77275026268916
 20
83.07472382764291
 10
174.28598571965972
 20
83.07472382764291
 10
173.81665575287258
 20
83.07472382764291
 10
173.35429961658235
 20
83.07472382764291
 10
172.91234042631095
 20
83.07472382764291
 10
172.49757716406464
 20
83.07472382764291
 10
172.09258402123453
 20
83.07472382764291
 10
171.7462115949017
 20
83.07472382764291
 10
171.39983916856886
 20
83.07472382764291
 10
171.12697479568897
 20
83.07472382764291
 10
170.86636176505124
 20
83.07472382764291
 10
170.66222166085726
 20
83.07472382764291
 10
170.50043625149604
 20
83.07472382764291
 10
170.36920518992312
 20
83.07472382764291
 10
170.31435999782084
 20
83.07472382764291
 10
170.2595148057186
 20
83.07472382764291
  0
LWPOLYLINE
  5
76
330
17
100
AcDbEntity
  8
HIDDEN
100
AcDbPolyline
 90
33
 70
0
 10
175.2595148057186
 20
73.07472382764291
 10
175.50443709719457
 20
73.07472382764291
 10
175.74935938867057
 20
73.07472382764291
 10
175.99208165163046
 20
73.07472382764291
 10
176.23392390318392
 20
73.07472382764291
 10
176.47314272049908
 20
73.07472382764291
 10
176.70886362549658
 20
73.07472382764291
 10
176.94328657710767
 20
73.07472382764291
 10
177.1699218084004
 20
73.07472382764291
 10
177.39655703969314
 20
73.07472382764291
 10
177.61296163392723
 20
73.07472382764291
 10
177.82766112198487
 20
73.07472382764291
 10
178.03399734497452
 20
73.07472382764291
 10
178.23406111916321
 20
73.07472382764291
 10
178.42922442709215
 20
73.07472382764291
 10
178.61213656937173
 20
73.07472382764291
 10
178.79504871165133
 20
73.07472382764291
 10
178.95850899570456
 20
73.07472382764291
 10
179.12196927975782
 20
73.07472382764291
 10
179.27006708799664
 20
73.07472382764291
 10
179.4120199059097
 20
73.07472382764291
 10
179.543990178742
 20
73.07472382764291
 10
179.66265039146668
 20
73.07472382764291
 10
179.77776991473254
 20
73.07472382764291
 10
179.87164530124556
 20
73.07472382764291
 10
179.96552068775858
 20
73.07472382764291
 10
180.03714004827316
 20
73.07472382764291
 10
180.10505007112135
 20
73.07472382764291
 10
180.157634738767
 20
73.07472382764291
 10
180.1987253900107
 20
73.07472382764291
 10
180.23200572400154
 20
73.07472382764291
 10
180.24576026486005
 20
73.07472382764291
 10
180.2595148057186
 20
73.07472382764291
  0
LWPOLYLINE
  5
77
330
17
100
AcDbEntity
  8
HIDDEN
100
AcDbPolyline
 90
33
 70
0
 10
175.2595148057186
 20
83.07472382764291
 10
175.50443709719457
 20
83.07472382764291
 10
175.74935938867057
 20
83.07472382764291
 10
175.99208165163046
 20
83.07472382764291
 10
176.23392390318392
 20
83.07472382764291
 10
176.47314272049908
 20
83.07472382764291
 10
176.70886362549658
 20
83.07472382764291
 10
176.94328657710767
 20
83.07472382764291
 10
177.1699218084004
 20
83.07472382764291
 10
177.39655703969314
 20
83.07472382764291
 10
177.61296163392723
 20
83.07472382764291
 10
177.82766112198487
 20
83.07472382764291
 10
178.03399734497452
 20
83.07472382764291
 10
178.23406111916321
 20
83.07472382764291
 10
178.42922442709215
 20
83.07472382764291
 10
178.61213656937173
 20
83.07472382764291
 10
178.79504871165133
 20
83.07472382764291
 10
178.95850899570456
 20
83.07472382764291
 10
179.12196927975782
 20
83.07472382764291
 10
179.27006708799664
 20
83.07472382764291
 10
179.4120199059097
 20
83.07472382764291
 10
179.543990178742
 20
83.07472382764291
 10
179.66265039146668
 20
83.07472382764291
 10
179.77776991473254
 20
83.07472382764291
 10
179.87164530124556
 20
83.07472382764291
 10
179.96552068775858
 20
83.07472382764291
 10
180.03714004827316
 20
83.07472382764291
 10
180.10505007112135
 20
83.07472382764291
 10
180.157634738767
 20
83.07472382764291
 10
180.1987253900107
 20
83.07472382764291
 10
180.23200572400154
 20
83.07472382764291
 10
180.24576026486005
 20
83.07472382764291
 10
180.2595148057186
 20
83.07472382764291
  0
TEXT
  5
78
330
17
100
AcDbEntity
  8
TITLE
100
AcDbText
 10
175.2595148057186
 20
65.07472382764291
 30
0.0
 40
3.4
  1
RIGHT
  7
LOFT_MONO
 72
1
 11
175.2595148057186
 21
65.07472382764291
 31
0.0
100
AcDbText
 73
2
  0
LINE
  5
79
330
17
100
AcDbEntity
  8
VISIBLE
100
AcDbLine
 10
152.27854441715579
 20
112.43037874452531
 30
0.0
 11
152.27854441715579
 21
120.59534455380256
 31
0.0
  0
LINE
  5
7A
330
17
100
AcDbEntity
  8
VISIBLE
100
AcDbLine
 10
152.27854441715579
 20
112.43037874452531
 30
0.0
 11
169.9562139468195
 21
102.22417148292874
 31
0.0
  0
LINE
  5
7B
330
17
100
AcDbEntity
  8
HIDDEN
100
AcDbLine
 10
152.27854441715579
 20
112.43037874452531
 30
0.0
 11
180.5628156646177
 21
128.76031036307984
 31
0.0
  0
LINE
  5
7C
330
17
100
AcDbEntity
  8
VISIBLE
100
AcDbLine
 10
152.27854441715579
 20
120.59534455380256
 30
0.0
 11
169.9562139468195
 21
110.38913729220599
 31
0.0
  0
LINE
  5
7D
330
17
100
AcDbEntity
  8
VISIBLE
100
AcDbLine
 10
152.27854441715579
 20
120.59534455380256
 30
0.0
 11
180.5628156646177
 21
136.9252761723571
 31
0.0
  0
LINE
  5
7E
330
17
100
AcDbEntity
  8
HIDDEN
100
AcDbLine
 10
164.60266055622623
 20
112.22625459929338
 30
0.0
 11
164.60266055622623
 21
120.39122040857063
 31
0.0
  0
LINE
  5
7F
330
17
100
AcDbEntity
  8
VISIBLE
100
AcDbLine
 10
169.9562139468195
 20
102.22417148292874
 30
0.0
 11
169.9562139468195
 21
110.38913729220599
 31
0.0
  0
LINE
  5
80
330
17
100
AcDbEntity
  8
VISIBLE
100
AcDbLine
 10
169.9562139468195
 20
102.22417148292874
 30
0.0
 11
198.2404851942814
 21
118.55410310148326
 31
0.0
  0
LINE
  5
81
330
17
100
AcDbEntity
  8
VISIBLE
100
AcDbLine
 10
169.9562139468195
 20
110.38913729220599
 30
0.0
 11
198.2404851942814
 21
126.71906891076051
 31
0.0
  0
LINE
  5
82
330
17
100
AcDbEntity
  8
HIDDEN
100
AcDbLine
 10
174.60266055622623
 20
112.22625459929338
 30
0.0
 11
174.60266055622623
 21
120.39122040857063
 31
0.0
  0
LINE
  5
83
330
17
100
AcDbEntity
  8
HIDDEN
100
AcDbLine
 10
175.91636905521096
 20
118.7582272467152
 30
0.0
 11
175.91636905521096
 21
126.92319305599244
 31
0.0
  0
LINE
  5
84
330
17
100
AcDbEntity
  8
HIDDEN
100
AcDbLine
 10
180.5628156646177
 20
128.76031036307984
 30
0.0
 11
180.5628156646177
 21
136.9252761723571
 31
0.0
  0
LINE
  5
85
330
17
100
AcDbEntity
  8
HIDDEN
100
AcDbLine
 10
180.5628156646177
 20
128.76031036307984
 30
0.0
 11
198.2404851942814
 21
118.55410310148325
 31
0.0
  0
LINE
  5
86
330
17
100
AcDbEntity
  8
VISIBLE
100
AcDbLine
 10
180.5628156646177
 20
136.9252761723571
 30
0.0
 11
198.2404851942814
 21
126.71906891076051
 31
0.0
  0
LINE
  5
87
330
17
100
AcDbEntity
  8
HIDDEN
100
AcDbLine
 10
185.91636905521096
 20
118.7582272467152
 30
0.0
 11
185.91636905521096
 21
126.92319305599244
 31
0.0
  0
LINE
  5
88
330
17
100
AcDbEntity
  8
VISIBLE
100
AcDbLine
 10
198.2404851942814
 20
118.55410310148325
 30
0.0
 11
198.2404851942814
 21
126.71906891076051
 31
0.0
  0
LWPOLYLINE
  5
89
330
17
100
AcDbEntity
  8
HIDDEN
100
AcDbPolyline
 90
33
 70
0
 10
173.13819446215896
 20
114.2674960516127
 10
172.8685247709951
 20
114.4121282561098
 10
172.5811570786884
 20
114.5449150218708
 10
172.2776486556617
 20
114.66513676590705
 10
171.9596442403562
 20
114.77214199617127
 10
171.62886712625115
 20
114.86535084204945
 10
171.2871098231873
 20
114.94425819672993
 10
170.9362243436007
 20
115.00843645442096
 10
170.57811216630685
 20
115.05753782758352
 10
170.2147139322223
 20
115.09129623162218
 10
169.8479989278633
 20
115.10952872682053
 10
169.47995441361167
 20
115.1121365097074
 10
169.1125748545784
 20
115.09910544848137
 10
168.7478511124247
 20
115.07050615959226
 10
168.3877596567099
 20
115.02649362506448
 10
168.03425185423177
 20
114.967306352636
 10
167.68924339440076
 20
114.89326508326427
 10
167.3546039079532
 20
114.80477105300311
 10
167.0321468352601
 20
114.70230381866988
 10
166.72361959913698
 20
114.58641865908547
 10
166.43069413540798
 20
114.45774356597023
 10
166.15495783254087
 20
114.31697584080253
 10
165.8979049294514
 20
114.16487831608153
 10
165.6609284180932
 20
114.0022752214718
 10
165.44531249471348
 20
113.83004771723142
 10
165.25222560068266
 20
113.6491291191281
 10
165.082714090609
 20
113.46049984072022
 10
164.9376965620525
 20
113.26518208041081
 10
164.81795887756516
 20
113.06423428206581
 10
164.72414990603357
 20
112.85874539921512
 10
164.6567780064023
 20
112.649828993919
 10
164.61620827283275
 20
112.4386172022788
 10
164.60266055622623
 20
112.22625459929338
  0
LWPOLYLINE
  5
8A
330
17
100
AcDbEntity
  8
HIDDEN
100
AcDbPolyline
 90
33
 70
0
 10
164.60266055622623
 20
112.22625459929338
 10
164.62673692286523
 20
111.94330348752104
 10
164.69873415421006
 20
111.66307734963186
 10
164.81795887756516
 20
111.38827491652094
 10
164.98326289366977
 20
111.1215426858414
 10
165.19305423448444
 20
110.86544943478538
 10
165.44531249471348
 20
110.62246148135533
 10
165.73760828941252
 20
110.39491893237351
 10
166.0671266502935
 20
110.18501314697406
 10
166.43069413540798
 20
109.99476563261652
 10
166.8248093911282
 20
109.82600857686404
 10
167.24567687209623
 20
109.68036720241548
 10
167.68924339440076
 20
109.55924411532249
 10
168.1512371699539
 20
109.46380579712637
 10
168.62720894614557
 20
109.39497137100324
 10
169.1125748545784
 20
109.35340375010539
 10
169.60266055622623
 20
109.33950325334524
 10
170.092746257874
 20
109.35340375010539
 10
170.57811216630685
 20
109.39497137100324
 10
171.05408394249852
 20
109.46380579712637
 10
171.51607771805166
 20
109.55924411532249
 10
171.9596442403562
 20
109.68036720241548
 10
172.3805117213242
 20
109.82600857686404
 10
172.77462697704445
 20
109.99476563261652
 10
173.13819446215896
 20
110.18501314697406
 10
173.4677128230399
 20
110.39491893237351
 10
173.76000861773895
 20
110.62246148135533
 10
174.012266877968
 20
110.86544943478538
 10
174.22205821878265
 20
111.1215426858414
 10
174.38736223488726
 20
111.38827491652094
 10
174.50658695824237
 20
111.66307734963186
 10
174.5785841895872
 20
111.94330348752104
 10
174.60266055622623
 20
112.22625459929338
  0
LWPOLYLINE
  5
8B
330
17
100
AcDbEntity
  8
VISIBLE
100
AcDbPolyline
 90
33
 70
0
 10
173.13819446215896
 20
122.43246186088996
 10
172.8685247709951
 20
122.57709406538706
 10
172.5811570786884
 20
122.70988083114807
 10
172.2776486556617
 20
122.8301025751843
 10
171.9596442403562
 20
122.93710780544853
 10
171.62886712625115
 20
123.03031665132671
 10
171.2871098231873
 20
123.1092240060072
 10
170.9362243436007
 20
123.17340226369822
 10
170.57811216630685
 20
123.22250363686078
 10
170.2147139322223
 20
123.25626204089943
 10
169.8479989278633
 20
123.27449453609779
 10
169.47995441361167
 20
123.27710231898466
 10
169.1125748545784
 20
123.26407125775862
 10
168.7478511124247
 20
123.23547196886952
 10
168.3877596567099
 20
123.19145943434174
 10
168.03425185423177
 20
123.13227216191326
 10
167.68924339440076
 20
123.05823089254153
 10
167.3546039079532
 20
122.96973686228037
 10
167.0321468352601
 20
122.86726962794714
 10
166.72361959913698
 20
122.75138446836272
 10
166.43069413540798
 20
122.6227093752475
 10
166.15495783254087
 20
122.48194165007979
 10
165.8979049294514
 20
122.32984412535879
 10
165.6609284180932
 20
122.16724103074907
 10
165.44531249471348
 20
121.9950135265087
 10
165.25222560068266
 20
121.81409492840537
 10
165.082714090609
 20
121.62546564999748
 10
164.9376965620525
 20
121.43014788968807
 10
164.81795887756516
 20
121.22920009134307
 10
164.72414990603357
 20
121.02371120849239
 10
164.6567780064023
 20
120.81479480319626
 10
164.61620827283275
 20
120.60358301155607
 10
164.60266055622623
 20
120.39122040857063
  0
LWPOLYLINE
  5
8C
330
17
100
AcDbEntity
  8
VISIBLE
100
AcDbPolyline
 90
33
 70
0
 10
164.60266055622623
 20
120.39122040857063
 10
164.62673692286523
 20
120.1082692967983
 10
164.69873415421006
 20
119.82804315890913
 10
164.81795887756516
 20
119.5532407257982
 10
164.98326289366977
 20
119.28650849511867
 10
165.19305423448444
 20
119.03041524406264
 10
165.44531249471348
 20
118.78742729063259
 10
165.73760828941252
 20
118.55988474165079
 10
166.0671266502935
 20
118.34997895625132
 10
166.43069413540798
 20
118.15973144189378
 10
166.8248093911282
 20
117.9909743861413
 10
167.24567687209623
 20
117.84533301169274
 10
167.68924339440076
 20
117.72420992459976
 10
168.1512371699539
 20
117.62877160640363
 10
168.62720894614557
 20
117.5599371802805
 10
169.1125748545784
 20
117.51836955938265
 10
169.60266055622623
 20
117.5044690626225
 10
170.092746257874
 20
117.51836955938265
 10
170.57811216630685
 20
117.5599371802805
 10
171.05408394249852
 20
117.62877160640363
 10
171.51607771805166
 20
117.72420992459976
 10
171.9596442403562
 20
117.84533301169274
 10
172.3805117213242
 20
117.99097438614129
 10
172.77462697704445
 20
118.15973144189378
 10
173.13819446215896
 20
118.34997895625132
 10
173.4677128230399
 20
118.55988474165079
 10
173.76000861773895
 20
118.78742729063259
 10
174.012266877968
 20
119.03041524406264
 10
174.22205821878265
 20
119.28650849511867
 10
174.38736223488726
 20
119.5532407257982
 10
174.50658695824237
 20
119.82804315890913
 10
174.5785841895872
 20
120.1082692967983
 10
174.60266055622623
 20
120.39122040857063
  0
LWPOLYLINE
  5
8D
330
17
100
AcDbEntity
  8
HIDDEN
100
AcDbPolyline
 90
33
 70
0
 10
174.60266055622623
 20
112.22625459929338
 10
174.60115464970724
 20
112.29709902376311
 10
174.59663783725208
 20
112.36790077420059
 10
174.58911283961967
 20
112.4386172022788
 10
174.5785841895872
 20
112.50920571106572
 10
174.56505822921977
 20
112.57962378068314
 10
174.54854310605012
 20
112.649828993919
 10
174.52904876817092
 20
112.71977906177801
 10
174.50658695824237
 20
112.78943184895489
 10
174.48117120641885
 20
112.85874539921512
 10
174.45281682219894
 20
112.92767796066784
 10
174.42154088520343
 20
112.99618801091557
 10
174.38736223488726
 20
113.06423428206581
 10
174.3503014591914
 20
113.13177578558923
 10
174.31038088214132
 20
113.19877183700963
 10
174.26762455039992
 20
113.26518208041081
 10
174.22205821878265
 20
113.33096651274535
 10
174.17370933474388
 20
113.39608550793108
 10
174.12260702184344
 20
113.46049984072022
 10
174.06878206220378
 20
113.52417071032734
 10
174.012266877968
 20
113.58705976380138
 10
173.95309551176976
 20
113.6491291191281
 10
173.89130360622758
 20
113.71034138804879
 10
173.82692838247476
 20
113.7706596985815
 10
173.76000861773895
 20
113.83004771723142
 10
173.69058462198413
 20
113.8884696708768
 10
173.61869821362944
 20
113.94589036831727
 10
173.54439269435926
 20
114.0022752214718
 10
173.4677128230399
 20
114.05759026621324
 10
173.38870478875864
 20
114.11180218282696
 10
173.307416183001
 20
114.16487831608153
 10
173.22389597098356
 20
114.21678669489891
 10
173.13819446215896
 20
114.2674960516127
  0
LWPOLYLINE
  5
8E
330
17
100
AcDbEntity
  8
VISIBLE
100
AcDbPolyline
 90
33
 70
0
 10
174.60266055622623
 20
120.39122040857063
 10
174.60115464970724
 20
120.46206483304037
 10
174.59663783725208
 20
120.53286658347785
 10
174.58911283961967
 20
120.60358301155607
 10
174.5785841895872
 20
120.67417152034298
 10
174.56505822921977
 20
120.7445895899604
 10
174.54854310605012
 20
120.81479480319626
 10
174.52904876817092
 20
120.88474487105528
 10
174.50658695824237
 20
120.95439765823215
 10
174.48117120641885
 20
121.02371120849239
 10
174.45281682219894
 20
121.09264376994511
 10
174.42154088520343
 20
121.16115382019284
 10
174.38736223488726
 20
121.22920009134307
 10
174.3503014591914
 20
121.29674159486649
 10
174.31038088214132
 20
121.36373764628689
 10
174.26762455039992
 20
121.43014788968807
 10
174.22205821878265
 20
121.49593232202261
 10
174.17370933474388
 20
121.56105131720832
 10
174.12260702184344
 20
121.62546564999748
 10
174.06878206220378
 20
121.6891365196046
 10
174.012266877968
 20
121.75202557307864
 10
173.95309551176976
 20
121.81409492840537
 10
173.89130360622758
 20
121.87530719732605
 10
173.82692838247476
 20
121.93562550785876
 10
173.76000861773895
 20
121.9950135265087
 10
173.69058462198413
 20
122.05343548015406
 10
173.61869821362944
 20
122.11085617759454
 10
173.54439269435926
 20
122.16724103074907
 10
173.4677128230399
 20
122.2225560754905
 10
173.38870478875864
 20
122.27676799210423
 10
173.307416183001
 20
122.32984412535879
 10
173.22389597098356
 20
122.38175250417618
 10
173.13819446215896
 20
122.43246186088996
  0
LWPOLYLINE
  5
8F
330
17
100
AcDbEntity
  8
HIDDEN
100
AcDbPolyline
 90
33
 70
0
 10
184.4519029611437
 20
120.7994686990345
 10
184.18223326997986
 20
120.94410090353162
 10
183.89486557767313
 20
121.07688766929262
 10
183.59135715464646
 20
121.19710941332886
 10
183.27335273934096
 20
121.30411464359307
 10
182.94257562523592
 20
121.39732348947126
 10
182.60081832217207
 20
121.47623084415174
 10
182.24993284258548
 20
121.54040910184277
 10
181.89182066529162
 20
121.58951047500533
 10
181.52842243120705
 20
121.62326887904399
 10
181.16170742684807
 20
121.64150137424235
 10
180.7936629125964
 20
121.64410915712921
 10
180.42628335356318
 20
121.63107809590318
 10
180.06155961140948
 20
121.60247880701407
 10
179.70146815569467
 20
121.55846627248629
 10
179.3479603532165
 20
121.49927900005781
 10
179.00295189338553
 20
121.42523773068606
 10
178.66831240693793
 20
121.33674370042492
 10
178.34585533424487
 20
121.23427646609169
 10
178.03732809812175
 20
121.11839130650728
 10
177.74440263439274
 20
120.98971621339204
 10
177.46866633152564
 20
120.84894848822434
 10
177.21161342843618
 20
120.69685096350334
 10
176.97463691707793
 20
120.53424786889362
 10
176.75902099369824
 20
120.36202036465323
 10
176.56593409966743
 20
120.18110176654992
 10
176.39642258959375
 20
119.99247248814203
 10
176.25140506103727
 20
119.79715472783262
 10
176.13166737654993
 20
119.59620692948762
 10
176.03785840501834
 20
119.39071804663693
 10
175.97048650538707
 20
119.18180164134081
 10
175.92991677181752
 20
118.97058984970062
 10
175.91636905521096
 20
118.7582272467152
  0
LWPOLYLINE
  5
90
330
17
100
AcDbEntity
  8
HIDDEN
100
AcDbPolyline
 90
33
 70
0
 10
175.91636905521096
 20
118.7582272467152
 10
175.94044542185
 20
118.47527613494285
 10
176.01244265319482
 20
118.19504999705367
 10
176.13166737654993
 20
117.92024756394275
 10
176.29697139265454
 20
117.65351533326321
 10
176.5067627334692
 20
117.39742208220719
 10
176.75902099369824
 20
117.15443412877714
 10
177.0513167883973
 20
116.92689157979532
 10
177.38083514927823
 20
116.71698579439587
 10
177.74440263439274
 20
116.52673828003833
 10
178.13851789011295
 20
116.35798122428585
 10
178.559385371081
 20
116.21233984983729
 10
179.00295189338553
 20
116.0912167627443
 10
179.46494566893867
 20
115.99577844454818
 10
179.94091744513034
 20
115.92694401842505
 10
180.42628335356318
 20
115.8853763975272
 10
180.91636905521096
 20
115.87147590076705
 10
181.40645475685878
 20
115.8853763975272
 10
181.89182066529162
 20
115.92694401842505
 10
182.3677924414833
 20
115.99577844454818
 10
182.82978621703643
 20
116.0912167627443
 10
183.27335273934096
 20
116.21233984983729
 10
183.69422022030898
 20
116.35798122428585
 10
184.0883354760292
 20
116.52673828003833
 10
184.4519029611437
 20
116.71698579439587
 10
184.78142132202467
 20
116.92689157979532
 10
185.0737171167237
 20
117.15443412877714
 10
185.32597537695275
 20
117.39742208220719
 10
185.53576671776742
 20
117.65351533326321
 10
185.70107073387203
 20
117.92024756394275
 10
185.82029545722713
 20
118.19504999705367
 10
185.89229268857196
 20
118.47527613494285
 10
185.91636905521096
 20
118.7582272467152
  0
LWPOLYLINE
  5
91
330
17
100
AcDbEntity
  8
VISIBLE
100
AcDbPolyline
 90
33
 70
0
 10
184.4519029611437
 20
128.96443450831177
 10
184.18223326997986
 20
129.10906671280887
 10
183.89486557767313
 20
129.24185347856988
 10
183.59135715464646
 20
129.3620752226061
 10
183.27335273934096
 20
129.46908045287034
 10
182.94257562523592
 20
129.5622892987485
 10
182.60081832217207
 20
129.641196653429
 10
182.24993284258548
 20
129.70537491112003
 10
181.89182066529162
 20
129.7544762842826
 10
181.52842243120705
 20
129.78823468832124
 10
181.16170742684807
 20
129.8064671835196
 10
180.7936629125964
 20
129.80907496640646
 10
180.42628335356318
 20
129.79604390518043
 10
180.06155961140948
 20
129.76744461629133
 10
179.70146815569467
 20
129.72343208176355
 10
179.3479603532165
 20
129.66424480933506
 10
179.00295189338553
 20
129.59020353996334
 10
178.66831240693793
 20
129.50170950970218
 10
178.34585533424487
 20
129.39924227536895
 10
178.03732809812175
 20
129.28335711578453
 10
177.74440263439274
 20
129.1546820226693
 10
177.46866633152564
 20
129.0139142975016
 10
177.21161342843618
 20
128.8618167727806
 10
176.97463691707793
 20
128.69921367817088
 10
176.75902099369824
 20
128.5269861739305
 10
176.56593409966743
 20
128.3460675758272
 10
176.39642258959375
 20
128.15743829741928
 10
176.25140506103727
 20
127.96212053710988
 10
176.13166737654993
 20
127.76117273876488
 10
176.03785840501834
 20
127.5556838559142
 10
175.97048650538707
 20
127.34676745061807
 10
175.92991677181752
 20
127.13555565897788
 10
175.91636905521096
 20
126.92319305599244
  0
LWPOLYLINE
  5
92
330
17
100
AcDbEntity
  8
VISIBLE
100
AcDbPolyline
 90
33
 70
0
 10
175.91636905521096
 20
126.92319305599244
 10
175.94044542185
 20
126.64024194422011
 10
176.01244265319482
 20
126.36001580633094
 10
176.13166737654993
 20
126.08521337322001
 10
176.29697139265454
 20
125.81848114254048
 10
176.5067627334692
 20
125.56238789148445
 10
176.75902099369824
 20
125.3193999380544
 10
177.0513167883973
 20
125.0918573890726
 10
177.38083514927823
 20
124.88195160367313
 10
177.74440263439274
 20
124.69170408931559
 10
178.13851789011295
 20
124.5229470335631
 10
178.559385371081
 20
124.37730565911457
 10
179.00295189338553
 20
124.25618257202157
 10
179.46494566893867
 20
124.16074425382544
 10
179.94091744513034
 20
124.09190982770231
 10
180.42628335356318
 20
124.05034220680446
 10
180.91636905521096
 20
124.03644171004433
 10
181.40645475685878
 20
124.05034220680446
 10
181.89182066529162
 20
124.09190982770231
 10
182.3677924414833
 20
124.16074425382544
 10
182.82978621703643
 20
124.25618257202157
 10
183.27335273934096
 20
124.37730565911455
 10
183.69422022030898
 20
124.5229470335631
 10
184.0883354760292
 20
124.69170408931559
 10
184.4519029611437
 20
124.88195160367313
 10
184.78142132202467
 20
125.0918573890726
 10
185.0737171167237
 20
125.3193999380544
 10
185.32597537695275
 20
125.56238789148445
 10
185.53576671776742
 20
125.81848114254048
 10
185.70107073387203
 20
126.08521337322001
 10
185.82029545722713
 20
126.36001580633094
 10
185.89229268857196
 20
126.64024194422011
 10
185.91636905521096
 20
126.92319305599244
  0
LWPOLYLINE
  5
93
330
17
100
AcDbEntity
  8
HIDDEN
100
AcDbPolyline
 90
33
 70
0
 10
185.91636905521096
 20
118.7582272467152
 10
185.914863148692
 20
118.82907167118492
 10
185.91034633623684
 20
118.8998734216224
 10
185.90282133860444
 20
118.97058984970062
 10
185.89229268857196
 20
119.04117835848753
 10
185.87876672820454
 20
119.11159642810495
 10
185.86225160503488
 20
119.18180164134081
 10
185.8427572671557
 20
119.25175170919982
 10
185.82029545722713
 20
119.3214044963767
 10
185.79487970540362
 20
119.39071804663693
 10
185.7665253211837
 20
119.45965060808965
 10
185.73524938418817
 20
119.52816065833738
 10
185.70107073387203
 20
119.59620692948762
 10
185.66400995817617
 20
119.66374843301104
 10
185.62408938112608
 20
119.73074448443145
 10
185.58133304938468
 20
119.79715472783262
 10
185.53576671776742
 20
119.86293916016716
 10
185.4874178337286
 20
119.92805815535289
 10
185.4363155208282
 20
119.99247248814203
 10
185.38249056118855
 20
120.05614335774915
 10
185.32597537695275
 20
120.11903241122319
 10
185.26680401075453
 20
120.18110176654992
 10
185.20501210521235
 20
120.2423140354706
 10
185.1406368814595
 20
120.3026323460033
 10
185.0737171167237
 20
120.36202036465323
 10
185.0042931209689
 20
120.42044231829861
 10
184.9324067126142
 20
120.47786301573908
 10
184.858101193344
 20
120.53424786889362
 10
184.78142132202467
 20
120.58956291363505
 10
184.7024132877434
 20
120.64377483024876
 10
184.62112468198578
 20
120.69685096350334
 10
184.5376044699683
 20
120.74875934232072
 10
184.4519029611437
 20
120.7994686990345
  0
LWPOLYLINE
  5
94
330
17
100
AcDbEntity
  8
VISIBLE
100
AcDbPolyline
 90
33
 70
0
 10
185.91636905521096
 20
126.92319305599244
 10
185.914863148692
 20
126.99403748046218
 10
185.91034633623684
 20
127.06483923089966
 10
185.90282133860444
 20
127.13555565897788
 10
185.89229268857196
 20
127.20614416776479
 10
185.87876672820454
 20
127.27656223738221
 10
185.86225160503488
 20
127.34676745061807
 10
185.8427572671557
 20
127.41671751847709
 10
185.82029545722713
 20
127.48637030565396
 10
185.79487970540362
 20
127.5556838559142
 10
185.7665253211837
 20
127.62461641736692
 10
185.73524938418817
 20
127.69312646761465
 10
185.70107073387203
 20
127.76117273876488
 10
185.66400995817617
 20
127.8287142422883
 10
185.62408938112608
 20
127.8957102937087
 10
185.58133304938468
 20
127.96212053710988
 10
185.53576671776742
 20
128.02790496944442
 10
185.4874178337286
 20
128.09302396463013
 10
185.4363155208282
 20
128.15743829741928
 10
185.38249056118855
 20
128.2211091670264
 10
185.32597537695275
 20
128.28399822050045
 10
185.26680401075453
 20
128.3460675758272
 10
185.20501210521235
 20
128.40727984474785
 10
185.1406368814595
 20
128.46759815528057
 10
185.0737171167237
 20
128.5269861739305
 10
185.0042931209689
 20
128.58540812757587
 10
184.9324067126142
 20
128.64282882501635
 10
184.858101193344
 20
128.69921367817088
 10
184.78142132202467
 20
128.7545287229123
 10
184.7024132877434
 20
128.80874063952604
 10
184.62112468198578
 20
128.8618167727806
 10
184.5376044699683
 20
128.913725151598
 10
184.4519029611437
 20
128.96443450831177
  0
TEXT
  5
95
330
17
100
AcDbEntity
  8
TITLE
100
AcDbText
 10
175.2595148057186
 20
94.22417148292874
 30
0.0
 40
3.4
  1
ISOMETRIC
  7
LOFT_MONO
 72
1
 11
175.2595148057186
 21
94.22417148292874
 31
0.0
100
AcDbText
 73
2
  0
LWPOLYLINE
  5
96
330
17
100
AcDbEntity
  8
TITLE
100
AcDbPolyline
 90
4
 70
1
 10
191.0
 20
44.0
 10
287.0
 20
44.0
 10
287.0
 20
10.0
 10
191.0
 20
10.0
  0
LINE
  5
97
330
17
100
AcDbEntity
  8
TITLE
100
AcDbLine
 10
248.6
 20
44.0
 30
0.0
 11
248.6
 21
10.0
 31
0.0
  0
LINE
  5
98
330
17
100
AcDbEntity
  8
TITLE
100
AcDbLine
 10
248.6
 20
27.0
 30
0.0
 11
287.0
 21
27.0
 31
0.0
  0
TEXT
  5
99
330
17
100
AcDbEntity
  8
TITLE
100
AcDbText
 10
195.0
 20
36.0
 30
0.0
 40
2.3
  1
TITLE
  7
LOFT_MONO
 11
195.0
 21
36.0
 31
0.0
100
AcDbText
  0
TEXT
  5
9A
330
17
100
AcDbEntity
  8
TITLE
100
AcDbText
 10
195.0
 20
26.0
 30
0.0
 40
3.4
  1
Plate — Authored Plac…
  7
LOFT_MONO
 11
195.0
 21
26.0
 31
0.0
100
AcDbText
  0
TEXT
  5
9B
330
17
100
AcDbEntity
  8
TITLE
100
AcDbText
 10
195.0
 20
14.0
 30
0.0
 40
2.3
  1
LOFT · PART DRAWING
  7
LOFT_MONO
 11
195.0
 21
14.0
 31
0.0
100
AcDbText
  0
TEXT
  5
9C
330
17
100
AcDbEntity
  8
TITLE
100
AcDbText
 10
252.6
 20
36.0
 30
0.0
 40
2.3
  1
SCALE
  7
LOFT_MONO
 11
252.6
 21
36.0
 31
0.0
100
AcDbText
  0
TEXT
  5
9D
330
17
100
AcDbEntity
  8
TITLE
100
AcDbText
 10
252.6
 20
30.0
 30
0.0
 40
3.4
  1
1:1
  7
LOFT_MONO
 11
252.6
 21
30.0
 31
0.0
100
AcDbText
  0
TEXT
  5
9E
330
17
100
AcDbEntity
  8
TITLE
100
AcDbText
 10
252.6
 20
19.0
 30
0.0
 40
2.3
  1
SIZE
  7
LOFT_MONO
 11
252.6
 21
19.0
 31
0.0
100
AcDbText
  0
TEXT
  5
9F
330
17
100
AcDbEntity
  8
TITLE
100
AcDbText
 10
252.6
 20
14.0
 30
0.0
 40
3.4
  1
A4
  7
LOFT_MONO
 11
252.6
 21
14.0
 31
0.0
100
AcDbText
  0
ENDSEC
  0
SECTION
  2
OBJECTS
  0
DICTIONARY
  5
A
330
0
100
AcDbDictionary
281
1
  3
ACAD_COLOR
350
B
  3
ACAD_GROUP
350
C
  3
ACAD_LAYOUT
350
D
  3
ACAD_MATERIAL
350
E
  3
ACAD_MLEADERSTYLE
350
F
  3
ACAD_MLINESTYLE
350
10
  3
ACAD_PLOTSETTINGS
350
11
  3
ACAD_PLOTSTYLENAME
350
12
  3
ACAD_SCALELIST
350
14
  3
ACAD_TABLESTYLE
350
15
  3
ACAD_VISUALSTYLE
350
16
  3
EZDXF_META
350
2D
  0
DICTIONARY
  5
B
330
A
100
AcDbDictionary
281
1
  0
DICTIONARY
  5
C
330
A
100
AcDbDictionary
281
1
  0
DICTIONARY
  5
D
330
A
100
AcDbDictionary
281
1
  3
Model
350
1A
  3
Layout1
350
1E
  0
DICTIONARY
  5
E
330
A
100
AcDbDictionary
281
1
  3
ByBlock
350
1F
  3
ByLayer
350
20
  3
Global
350
21
  0
DICTIONARY
  5
F
330
A
100
AcDbDictionary
281
1
  3
Standard
350
2C
  0
DICTIONARY
  5
10
330
A
100
AcDbDictionary
281
1
  3
Standard
350
22
  0
DICTIONARY
  5
11
330
A
100
AcDbDictionary
281
1
  0
ACDBDICTIONARYWDFLT
  5
12
330
A
100
AcDbDictionary
281
1
  3
Normal
350
13
100
AcDbDictionaryWithDefault
340
13
  0
ACDBPLACEHOLDER
  5
13
330
12
  0
DICTIONARY
  5
14
330
A
100
AcDbDictionary
281
1
  0
DICTIONARY
  5
15
330
A
100
AcDbDictionary
281
1
  0
DICTIONARY
  5
16
330
A
100
AcDbDictionary
281
1
  0
LAYOUT
  5
1A
330
D
100
AcDbPlotSettings
  1

  4
A3
  6

 40
7.5
 41
20.0
 42
7.5
 43
20.0
 44
420.0
 45
297.0
 46
0.0
 47
0.0
 48
0.0
 49
0.0
140
0.0
141
0.0
142
1.0
143
1.0
 70
1024
 72
1
 73
0
 74
5
  7

 75
16
 76
0
 77
2
 78
300
147
1.0
148
0.0
149
0.0
100
AcDbLayout
  1
Model
 70
1
 71
0
 10
0.0
 20
0.0
 11
420.0
 21
297.0
 12
0.0
 22
0.0
 32
0.0
 14
1e+20
 24
1e+20
 34
1e+20
 15
-1e+20
 25
-1e+20
 35
-1e+20
146
0.0
 13
0.0
 23
0.0
 33
0.0
 16
1.0
 26
0.0
 36
0.0
 17
0.0
 27
1.0
 37
0.0
 76
1
330
17
  0
LAYOUT
  5
1E
330
D
100
AcDbPlotSettings
  1

  4
A3
  6

 40
7.5
 41
20.0
 42
7.5
 43
20.0
 44
420.0
 45
297.0
 46
0.0
 47
0.0
 48
0.0
 49
0.0
140
0.0
141
0.0
142
1.0
143
1.0
 70
0
 72
1
 73
0
 74
5
  7

 75
16
 76
0
 77
2
 78
300
147
1.0
148
0.0
149
0.0
100
AcDbLayout
  1
Layout1
 70
1
 71
1
 10
0.0
 20
0.0
 11
420.0
 21
297.0
 12
0.0
 22
0.0
 32
0.0
 14
1e+20
 24
1e+20
 34
1e+20
 15
-1e+20
 25
-1e+20
 35
-1e+20
146
0.0
 13
0.0
 23
0.0
 33
0.0
 16
1.0
 26
0.0
 36
0.0
 17
0.0
 27
1.0
 37
0.0
 76
1
330
1B
  0
MATERIAL
  5
1F
102
{ACAD_REACTORS
330
E
102
}
330
E
100
AcDbMaterial
  1
ByBlock
  2

 70
0
 40
1.0
 71
1
 41
1.0
 91
-1023410177
 42
1.0
 72
1
  3

 73
1
 74
1
 75
1
 44
0.5
 73
0
 45
1.0
 46
1.0
 77
1
  4

 78
1
 79
1
170
1
 48
1.0
171
1
  6

172
1
173
1
174
1
140
1.0
141
1.0
175
1
  7

176
1
177
1
178
1
143
1.0
179
1
  8

270
1
271
1
272
1
145
1.0
146
1.0
273
1
  9

274
1
275
1
276
1
 42
1.0
 72
1
  3

 73
1
 74
1
 75
1
 94
63
  0
MATERIAL
  5
20
102
{ACAD_REACTORS
330
E
102
}
330
E
100
AcDbMaterial
  1
ByLayer
  2

 70
0
 40
1.0
 71
1
 41
1.0
 91
-1023410177
 42
1.0
 72
1
  3

 73
1
 74
1
 75
1
 44
0.5
 73
0
 45
1.0
 46
1.0
 77
1
  4

 78
1
 79
1
170
1
 48
1.0
171
1
  6

172
1
173
1
174
1
140
1.0
141
1.0
175
1
  7

176
1
177
1
178
1
143
1.0
179
1
  8

270
1
271
1
272
1
145
1.0
146
1.0
273
1
  9

274
1
275
1
276
1
 42
1.0
 72
1
  3

 73
1
 74
1
 75
1
 94
63
  0
MATERIAL
  5
21
102
{ACAD_REACTORS
330
E
102
}
330
E
100
AcDbMaterial
  1
Global
  2

 70
0
 40
1.0
 71
1
 41
1.0
 91
-1023410177
 42
1.0
 72
1
  3

 73
1
 74
1
 75
1
 44
0.5
 73
0
 45
1.0
 46
1.0
 77
1
  4

 78
1
 79
1
170
1
 48
1.0
171
1
  6

172
1
173
1
174
1
140
1.0
141
1.0
175
1
  7

176
1
177
1
178
1
143
1.0
179
1
  8

270
1
271
1
272
1
145
1.0
146
1.0
273
1
  9

274
1
275
1
276
1
 42
1.0
 72
1
  3

 73
1
 74
1
 75
1
 94
63
  0
MLINESTYLE
  5
22
102
{ACAD_REACTORS
330
10
102
}
330
10
100
AcDbMlineStyle
  2
Standard
 70
0
  3

 62
256
 51
90.0
 52
90.0
 71
2
 49
0.5
 62
256
  6
BYLAYER
 49
-0.5
 62
256
  6
BYLAYER
  0
MLEADERSTYLE
  5
2C
102
{ACAD_REACTORS
330
F
102
}
330
F
100
AcDbMLeaderStyle
179
2
170
2
171
1
172
0
 90
2
 40
0.0
 41
0.0
173
1
 91
-1056964608
 92
-2
290
1
 42
2.0
291
1
 43
8.0
  3
Standard
 44
4.0
300

342
29
174
1
175
1
176
0
178
1
 93
-1056964608
 45
4.0
292
0
297
0
 46
4.0
 94
-1056964608
 47
1.0
 49
1.0
140
1.0
294
1
141
0.0
177
0
142
1.0
295
0
296
0
143
3.75
271
0
272
9
273
9
  0
DICTIONARY
  5
2D
330
A
100
AcDbDictionary
280
1
281
1
  3
CREATED_BY_EZDXF
350
2E
  3
WRITTEN_BY_EZDXF
350
A2
  0
DICTIONARYVAR
  5
2E
330
2D
100
DictionaryVariables
280
0
  1
0.0 @ 2000-01-01T00:00:00.000000+00:00
  0
DICTIONARYVAR
  5
A2
330
2D
100
DictionaryVariables
280
0
  1
0.0 @ 2000-01-01T00:00:00.000000+00:00
  0
ENDSEC
  0
EOF
